G04 (created by PCBNEW (2013-07-07 BZR 4022)-stable) date 21.08.2014 16:08:41*
%MOIN*%
G04 Gerber Fmt 3.4, Leading zero omitted, Abs format*
%FSLAX34Y34*%
G01*
G70*
G90*
G04 APERTURE LIST*
%ADD10C,0.00590551*%
%ADD11C,0.015*%
%ADD12R,0.06X0.06*%
%ADD13C,0.06*%
%ADD14C,0.056*%
%ADD15C,0.035*%
%ADD16C,0.0118*%
%ADD17C,0.0063*%
G04 APERTURE END LIST*
G54D10*
G54D11*
X14000Y-19500D02*
X34000Y-19500D01*
X14000Y-29500D02*
X14000Y-19500D01*
X34000Y-29500D02*
X14000Y-29500D01*
X34000Y-19500D02*
X34000Y-29500D01*
G54D12*
X28500Y-28000D03*
G54D13*
X28500Y-27000D03*
X29500Y-28000D03*
X29500Y-27000D03*
X30500Y-28000D03*
X30500Y-27000D03*
G54D12*
X33500Y-20000D03*
G54D13*
X28500Y-20000D03*
X27500Y-20000D03*
X26500Y-20000D03*
X25500Y-20000D03*
X24500Y-20000D03*
X23500Y-20000D03*
X22500Y-20000D03*
X21500Y-20000D03*
X20500Y-20000D03*
X19500Y-20000D03*
X18500Y-20000D03*
X17500Y-20000D03*
X16500Y-20000D03*
X15500Y-20000D03*
X32500Y-20000D03*
X31500Y-20000D03*
X30500Y-20000D03*
X29500Y-20000D03*
X14500Y-20000D03*
G54D12*
X14500Y-29000D03*
G54D13*
X19500Y-29000D03*
X20500Y-29000D03*
X21500Y-29000D03*
X22500Y-29000D03*
X23500Y-29000D03*
X24500Y-29000D03*
X25500Y-29000D03*
X26500Y-29000D03*
X27500Y-29000D03*
X28500Y-29000D03*
X29500Y-29000D03*
X30500Y-29000D03*
X31500Y-29000D03*
X32500Y-29000D03*
X15500Y-29000D03*
X16500Y-29000D03*
X17500Y-29000D03*
X18500Y-29000D03*
X33500Y-29000D03*
G54D14*
X32000Y-24000D03*
X32000Y-26000D03*
G54D15*
X16250Y-24994D03*
X22000Y-25250D03*
X22250Y-25750D03*
X17750Y-25750D03*
X23000Y-28000D03*
X23250Y-27500D03*
X23250Y-26000D03*
X24250Y-26250D03*
X26000Y-27500D03*
X16250Y-25900D03*
X23650Y-25600D03*
X22350Y-22950D03*
X26900Y-21600D03*
X14850Y-22850D03*
X18250Y-25000D03*
X21500Y-24500D03*
X33500Y-23500D03*
X24500Y-24750D03*
X30500Y-24000D03*
X16250Y-24000D03*
G54D16*
X18250Y-25500D02*
X18000Y-25500D01*
X18250Y-25500D02*
X21750Y-25500D01*
X21750Y-25500D02*
X22000Y-25250D01*
X17494Y-24994D02*
X16250Y-24994D01*
X18000Y-25500D02*
X17494Y-24994D01*
X17750Y-25750D02*
X22250Y-25750D01*
X24500Y-28250D02*
X24250Y-28000D01*
X24250Y-28000D02*
X23000Y-28000D01*
X24500Y-29000D02*
X24500Y-28250D01*
X28500Y-28000D02*
X29500Y-29000D01*
X25500Y-28750D02*
X25500Y-29000D01*
X24250Y-27500D02*
X25500Y-28750D01*
X23250Y-27500D02*
X24250Y-27500D01*
X26500Y-29000D02*
X26250Y-29000D01*
X26250Y-29000D02*
X23250Y-26000D01*
X25500Y-27500D02*
X26250Y-28250D01*
X24250Y-26250D02*
X25500Y-27500D01*
X26250Y-28250D02*
X26750Y-28250D01*
X26750Y-28250D02*
X27500Y-29000D01*
X26500Y-28000D02*
X27500Y-28000D01*
X27500Y-28000D02*
X28500Y-29000D01*
X26000Y-27500D02*
X26500Y-28000D01*
X31500Y-26250D02*
X31500Y-29000D01*
X32000Y-26000D02*
X31750Y-26000D01*
X31750Y-26000D02*
X31500Y-26250D01*
X33000Y-25000D02*
X32000Y-24000D01*
X32500Y-27000D02*
X33000Y-26500D01*
X33000Y-26500D02*
X33000Y-25000D01*
X32500Y-29000D02*
X32500Y-27000D01*
X30500Y-28000D02*
X30500Y-29000D01*
X16250Y-25900D02*
X16300Y-25900D01*
X14500Y-26250D02*
X14500Y-24750D01*
X14500Y-24750D02*
X15250Y-24000D01*
X15250Y-24000D02*
X16250Y-24000D01*
X14500Y-29000D02*
X14500Y-26250D01*
G54D10*
G36*
X33775Y-29275D02*
X32860Y-29275D01*
X32880Y-29254D01*
X32949Y-29089D01*
X32949Y-28910D01*
X32881Y-28745D01*
X32754Y-28619D01*
X32708Y-28599D01*
X32708Y-27086D01*
X33147Y-26647D01*
X33192Y-26579D01*
X33208Y-26500D01*
X33208Y-25000D01*
X33192Y-24920D01*
X33192Y-24920D01*
X33174Y-24893D01*
X33147Y-24852D01*
X33147Y-24852D01*
X32415Y-24120D01*
X32429Y-24085D01*
X32429Y-23914D01*
X32364Y-23757D01*
X32243Y-23636D01*
X32085Y-23570D01*
X31914Y-23570D01*
X31757Y-23635D01*
X31636Y-23756D01*
X31570Y-23914D01*
X31570Y-24085D01*
X31635Y-24242D01*
X31756Y-24363D01*
X31914Y-24429D01*
X32085Y-24429D01*
X32120Y-24415D01*
X32791Y-25086D01*
X32791Y-26413D01*
X32352Y-26852D01*
X32307Y-26920D01*
X32291Y-27000D01*
X32291Y-28599D01*
X32245Y-28618D01*
X32119Y-28745D01*
X32050Y-28910D01*
X32050Y-29089D01*
X32118Y-29254D01*
X32139Y-29275D01*
X31860Y-29275D01*
X31880Y-29254D01*
X31949Y-29089D01*
X31949Y-28910D01*
X31881Y-28745D01*
X31754Y-28619D01*
X31708Y-28599D01*
X31708Y-26336D01*
X31718Y-26326D01*
X31756Y-26363D01*
X31914Y-26429D01*
X32085Y-26429D01*
X32242Y-26364D01*
X32363Y-26243D01*
X32429Y-26085D01*
X32429Y-25914D01*
X32364Y-25757D01*
X32243Y-25636D01*
X32085Y-25570D01*
X31914Y-25570D01*
X31757Y-25635D01*
X31636Y-25756D01*
X31591Y-25863D01*
X31352Y-26102D01*
X31307Y-26170D01*
X31291Y-26250D01*
X31291Y-28599D01*
X31245Y-28618D01*
X31119Y-28745D01*
X31050Y-28910D01*
X31050Y-29089D01*
X31118Y-29254D01*
X31139Y-29275D01*
X30860Y-29275D01*
X30880Y-29254D01*
X30949Y-29089D01*
X30949Y-28910D01*
X30881Y-28745D01*
X30754Y-28619D01*
X30708Y-28599D01*
X30708Y-28400D01*
X30754Y-28381D01*
X30880Y-28254D01*
X30949Y-28089D01*
X30949Y-27910D01*
X30881Y-27745D01*
X30754Y-27619D01*
X30589Y-27550D01*
X30410Y-27550D01*
X30245Y-27618D01*
X30119Y-27745D01*
X30050Y-27910D01*
X30050Y-28089D01*
X30118Y-28254D01*
X30245Y-28380D01*
X30291Y-28400D01*
X30291Y-28599D01*
X30245Y-28618D01*
X30119Y-28745D01*
X30050Y-28910D01*
X30050Y-29089D01*
X30118Y-29254D01*
X30139Y-29275D01*
X29860Y-29275D01*
X29880Y-29254D01*
X29949Y-29089D01*
X29949Y-28910D01*
X29949Y-27910D01*
X29949Y-26910D01*
X29881Y-26745D01*
X29754Y-26619D01*
X29589Y-26550D01*
X29410Y-26550D01*
X29245Y-26618D01*
X29119Y-26745D01*
X29050Y-26910D01*
X29050Y-27089D01*
X29118Y-27254D01*
X29245Y-27380D01*
X29410Y-27449D01*
X29589Y-27449D01*
X29754Y-27381D01*
X29880Y-27254D01*
X29949Y-27089D01*
X29949Y-26910D01*
X29949Y-27910D01*
X29881Y-27745D01*
X29754Y-27619D01*
X29589Y-27550D01*
X29410Y-27550D01*
X29245Y-27618D01*
X29119Y-27745D01*
X29050Y-27910D01*
X29050Y-28089D01*
X29118Y-28254D01*
X29245Y-28380D01*
X29410Y-28449D01*
X29589Y-28449D01*
X29754Y-28381D01*
X29880Y-28254D01*
X29949Y-28089D01*
X29949Y-27910D01*
X29949Y-28910D01*
X29881Y-28745D01*
X29754Y-28619D01*
X29589Y-28550D01*
X29410Y-28550D01*
X29364Y-28569D01*
X28949Y-28154D01*
X28949Y-26910D01*
X28881Y-26745D01*
X28754Y-26619D01*
X28589Y-26550D01*
X28410Y-26550D01*
X28245Y-26618D01*
X28119Y-26745D01*
X28050Y-26910D01*
X28050Y-27089D01*
X28118Y-27254D01*
X28245Y-27380D01*
X28410Y-27449D01*
X28589Y-27449D01*
X28754Y-27381D01*
X28880Y-27254D01*
X28949Y-27089D01*
X28949Y-26910D01*
X28949Y-28154D01*
X28949Y-28154D01*
X28949Y-27670D01*
X28926Y-27615D01*
X28884Y-27573D01*
X28829Y-27550D01*
X28770Y-27550D01*
X28170Y-27550D01*
X28115Y-27573D01*
X28073Y-27615D01*
X28050Y-27670D01*
X28050Y-27729D01*
X28050Y-28255D01*
X27647Y-27852D01*
X27579Y-27807D01*
X27500Y-27791D01*
X26586Y-27791D01*
X26324Y-27529D01*
X26324Y-27435D01*
X26275Y-27316D01*
X26184Y-27225D01*
X26064Y-27175D01*
X25935Y-27175D01*
X25816Y-27224D01*
X25725Y-27315D01*
X25691Y-27396D01*
X25647Y-27352D01*
X24574Y-26279D01*
X24574Y-26185D01*
X24525Y-26066D01*
X24434Y-25975D01*
X24314Y-25925D01*
X24185Y-25925D01*
X24066Y-25974D01*
X23975Y-26065D01*
X23925Y-26185D01*
X23925Y-26314D01*
X23972Y-26427D01*
X23574Y-26029D01*
X23574Y-25935D01*
X23525Y-25816D01*
X23434Y-25725D01*
X23314Y-25675D01*
X23185Y-25675D01*
X23066Y-25724D01*
X22975Y-25815D01*
X22925Y-25935D01*
X22925Y-26064D01*
X22974Y-26183D01*
X23065Y-26274D01*
X23185Y-26324D01*
X23279Y-26324D01*
X24246Y-27291D01*
X23500Y-27291D01*
X23434Y-27225D01*
X23314Y-27175D01*
X23185Y-27175D01*
X23066Y-27224D01*
X22975Y-27315D01*
X22925Y-27435D01*
X22925Y-27564D01*
X22971Y-27675D01*
X22935Y-27675D01*
X22816Y-27724D01*
X22725Y-27815D01*
X22675Y-27935D01*
X22675Y-28064D01*
X22724Y-28183D01*
X22815Y-28274D01*
X22935Y-28324D01*
X23064Y-28324D01*
X23183Y-28275D01*
X23250Y-28208D01*
X24163Y-28208D01*
X24291Y-28336D01*
X24291Y-28599D01*
X24245Y-28618D01*
X24119Y-28745D01*
X24050Y-28910D01*
X24050Y-29089D01*
X24118Y-29254D01*
X24139Y-29275D01*
X23860Y-29275D01*
X23880Y-29254D01*
X23949Y-29089D01*
X23949Y-28910D01*
X23881Y-28745D01*
X23754Y-28619D01*
X23589Y-28550D01*
X23410Y-28550D01*
X23245Y-28618D01*
X23119Y-28745D01*
X23050Y-28910D01*
X23050Y-29089D01*
X23118Y-29254D01*
X23139Y-29275D01*
X22860Y-29275D01*
X22880Y-29254D01*
X22949Y-29089D01*
X22949Y-28910D01*
X22881Y-28745D01*
X22754Y-28619D01*
X22589Y-28550D01*
X22574Y-28550D01*
X22574Y-25685D01*
X22525Y-25566D01*
X22434Y-25475D01*
X22314Y-25425D01*
X22278Y-25425D01*
X22324Y-25314D01*
X22324Y-25185D01*
X22275Y-25066D01*
X22184Y-24975D01*
X22064Y-24925D01*
X21935Y-24925D01*
X21816Y-24974D01*
X21725Y-25065D01*
X21675Y-25185D01*
X21675Y-25279D01*
X21663Y-25291D01*
X18250Y-25291D01*
X18086Y-25291D01*
X17641Y-24846D01*
X17573Y-24801D01*
X17494Y-24785D01*
X16500Y-24785D01*
X16434Y-24719D01*
X16314Y-24669D01*
X16185Y-24669D01*
X16066Y-24718D01*
X15975Y-24809D01*
X15925Y-24929D01*
X15925Y-25058D01*
X15974Y-25177D01*
X16065Y-25268D01*
X16185Y-25318D01*
X16314Y-25318D01*
X16433Y-25269D01*
X16500Y-25202D01*
X17407Y-25202D01*
X17646Y-25441D01*
X17566Y-25474D01*
X17475Y-25565D01*
X17425Y-25685D01*
X17425Y-25814D01*
X17474Y-25933D01*
X17565Y-26024D01*
X17685Y-26074D01*
X17814Y-26074D01*
X17933Y-26025D01*
X18000Y-25958D01*
X21999Y-25958D01*
X22065Y-26024D01*
X22185Y-26074D01*
X22314Y-26074D01*
X22433Y-26025D01*
X22524Y-25934D01*
X22574Y-25814D01*
X22574Y-25685D01*
X22574Y-28550D01*
X22410Y-28550D01*
X22245Y-28618D01*
X22119Y-28745D01*
X22050Y-28910D01*
X22050Y-29089D01*
X22118Y-29254D01*
X22139Y-29275D01*
X21860Y-29275D01*
X21880Y-29254D01*
X21949Y-29089D01*
X21949Y-28910D01*
X21881Y-28745D01*
X21754Y-28619D01*
X21589Y-28550D01*
X21410Y-28550D01*
X21245Y-28618D01*
X21119Y-28745D01*
X21050Y-28910D01*
X21050Y-29089D01*
X21118Y-29254D01*
X21139Y-29275D01*
X20860Y-29275D01*
X20880Y-29254D01*
X20949Y-29089D01*
X20949Y-28910D01*
X20881Y-28745D01*
X20754Y-28619D01*
X20589Y-28550D01*
X20410Y-28550D01*
X20245Y-28618D01*
X20119Y-28745D01*
X20050Y-28910D01*
X20050Y-29089D01*
X20118Y-29254D01*
X20139Y-29275D01*
X19860Y-29275D01*
X19880Y-29254D01*
X19949Y-29089D01*
X19949Y-28910D01*
X19881Y-28745D01*
X19754Y-28619D01*
X19589Y-28550D01*
X19410Y-28550D01*
X19245Y-28618D01*
X19119Y-28745D01*
X19050Y-28910D01*
X19050Y-29089D01*
X19118Y-29254D01*
X19139Y-29275D01*
X18860Y-29275D01*
X18880Y-29254D01*
X18949Y-29089D01*
X18949Y-28910D01*
X18881Y-28745D01*
X18754Y-28619D01*
X18589Y-28550D01*
X18410Y-28550D01*
X18245Y-28618D01*
X18119Y-28745D01*
X18050Y-28910D01*
X18050Y-29089D01*
X18118Y-29254D01*
X18139Y-29275D01*
X17860Y-29275D01*
X17880Y-29254D01*
X17949Y-29089D01*
X17949Y-28910D01*
X17881Y-28745D01*
X17754Y-28619D01*
X17589Y-28550D01*
X17410Y-28550D01*
X17245Y-28618D01*
X17119Y-28745D01*
X17050Y-28910D01*
X17050Y-29089D01*
X17118Y-29254D01*
X17139Y-29275D01*
X16860Y-29275D01*
X16880Y-29254D01*
X16949Y-29089D01*
X16949Y-28910D01*
X16881Y-28745D01*
X16754Y-28619D01*
X16589Y-28550D01*
X16410Y-28550D01*
X16245Y-28618D01*
X16119Y-28745D01*
X16050Y-28910D01*
X16050Y-29089D01*
X16118Y-29254D01*
X16139Y-29275D01*
X14949Y-29275D01*
X14949Y-29270D01*
X14949Y-28670D01*
X14926Y-28615D01*
X14884Y-28573D01*
X14829Y-28550D01*
X14770Y-28550D01*
X14708Y-28550D01*
X14708Y-26250D01*
X14708Y-24836D01*
X15336Y-24208D01*
X15999Y-24208D01*
X16065Y-24274D01*
X16185Y-24324D01*
X16314Y-24324D01*
X16433Y-24275D01*
X16524Y-24184D01*
X16574Y-24064D01*
X16574Y-23935D01*
X16525Y-23816D01*
X16434Y-23725D01*
X16314Y-23675D01*
X16185Y-23675D01*
X16066Y-23724D01*
X15999Y-23791D01*
X15250Y-23791D01*
X15249Y-23791D01*
X15234Y-23794D01*
X15170Y-23807D01*
X15102Y-23852D01*
X15102Y-23852D01*
X14352Y-24602D01*
X14307Y-24670D01*
X14291Y-24750D01*
X14291Y-26250D01*
X14291Y-28550D01*
X14224Y-28550D01*
X14224Y-20360D01*
X14245Y-20380D01*
X14410Y-20449D01*
X14589Y-20449D01*
X14754Y-20381D01*
X14880Y-20254D01*
X14949Y-20089D01*
X14949Y-19910D01*
X14881Y-19745D01*
X14860Y-19724D01*
X15139Y-19724D01*
X15119Y-19745D01*
X15050Y-19910D01*
X15050Y-20089D01*
X15118Y-20254D01*
X15245Y-20380D01*
X15410Y-20449D01*
X15589Y-20449D01*
X15754Y-20381D01*
X15880Y-20254D01*
X15949Y-20089D01*
X15949Y-19910D01*
X15881Y-19745D01*
X15860Y-19724D01*
X16139Y-19724D01*
X16119Y-19745D01*
X16050Y-19910D01*
X16050Y-20089D01*
X16118Y-20254D01*
X16245Y-20380D01*
X16410Y-20449D01*
X16589Y-20449D01*
X16754Y-20381D01*
X16880Y-20254D01*
X16949Y-20089D01*
X16949Y-19910D01*
X16881Y-19745D01*
X16860Y-19724D01*
X17139Y-19724D01*
X17119Y-19745D01*
X17050Y-19910D01*
X17050Y-20089D01*
X17118Y-20254D01*
X17245Y-20380D01*
X17410Y-20449D01*
X17589Y-20449D01*
X17754Y-20381D01*
X17880Y-20254D01*
X17949Y-20089D01*
X17949Y-19910D01*
X17881Y-19745D01*
X17860Y-19724D01*
X18139Y-19724D01*
X18119Y-19745D01*
X18050Y-19910D01*
X18050Y-20089D01*
X18118Y-20254D01*
X18245Y-20380D01*
X18410Y-20449D01*
X18589Y-20449D01*
X18754Y-20381D01*
X18880Y-20254D01*
X18949Y-20089D01*
X18949Y-19910D01*
X18881Y-19745D01*
X18860Y-19724D01*
X19139Y-19724D01*
X19119Y-19745D01*
X19050Y-19910D01*
X19050Y-20089D01*
X19118Y-20254D01*
X19245Y-20380D01*
X19410Y-20449D01*
X19589Y-20449D01*
X19754Y-20381D01*
X19880Y-20254D01*
X19949Y-20089D01*
X19949Y-19910D01*
X19881Y-19745D01*
X19860Y-19724D01*
X20139Y-19724D01*
X20119Y-19745D01*
X20050Y-19910D01*
X20050Y-20089D01*
X20118Y-20254D01*
X20245Y-20380D01*
X20410Y-20449D01*
X20589Y-20449D01*
X20754Y-20381D01*
X20880Y-20254D01*
X20949Y-20089D01*
X20949Y-19910D01*
X20881Y-19745D01*
X20860Y-19724D01*
X21139Y-19724D01*
X21119Y-19745D01*
X21050Y-19910D01*
X21050Y-20089D01*
X21118Y-20254D01*
X21245Y-20380D01*
X21410Y-20449D01*
X21589Y-20449D01*
X21754Y-20381D01*
X21880Y-20254D01*
X21949Y-20089D01*
X21949Y-19910D01*
X21881Y-19745D01*
X21860Y-19724D01*
X22139Y-19724D01*
X22119Y-19745D01*
X22050Y-19910D01*
X22050Y-20089D01*
X22118Y-20254D01*
X22245Y-20380D01*
X22410Y-20449D01*
X22589Y-20449D01*
X22754Y-20381D01*
X22880Y-20254D01*
X22949Y-20089D01*
X22949Y-19910D01*
X22881Y-19745D01*
X22860Y-19724D01*
X23139Y-19724D01*
X23119Y-19745D01*
X23050Y-19910D01*
X23050Y-20089D01*
X23118Y-20254D01*
X23245Y-20380D01*
X23410Y-20449D01*
X23589Y-20449D01*
X23754Y-20381D01*
X23880Y-20254D01*
X23949Y-20089D01*
X23949Y-19910D01*
X23881Y-19745D01*
X23860Y-19724D01*
X24139Y-19724D01*
X24119Y-19745D01*
X24050Y-19910D01*
X24050Y-20089D01*
X24118Y-20254D01*
X24245Y-20380D01*
X24410Y-20449D01*
X24589Y-20449D01*
X24754Y-20381D01*
X24880Y-20254D01*
X24949Y-20089D01*
X24949Y-19910D01*
X24881Y-19745D01*
X24860Y-19724D01*
X25139Y-19724D01*
X25119Y-19745D01*
X25050Y-19910D01*
X25050Y-20089D01*
X25118Y-20254D01*
X25245Y-20380D01*
X25410Y-20449D01*
X25589Y-20449D01*
X25754Y-20381D01*
X25880Y-20254D01*
X25949Y-20089D01*
X25949Y-19910D01*
X25881Y-19745D01*
X25860Y-19724D01*
X26139Y-19724D01*
X26119Y-19745D01*
X26050Y-19910D01*
X26050Y-20089D01*
X26118Y-20254D01*
X26245Y-20380D01*
X26410Y-20449D01*
X26589Y-20449D01*
X26754Y-20381D01*
X26880Y-20254D01*
X26949Y-20089D01*
X26949Y-19910D01*
X26881Y-19745D01*
X26860Y-19724D01*
X27139Y-19724D01*
X27119Y-19745D01*
X27050Y-19910D01*
X27050Y-20089D01*
X27118Y-20254D01*
X27245Y-20380D01*
X27410Y-20449D01*
X27589Y-20449D01*
X27754Y-20381D01*
X27880Y-20254D01*
X27949Y-20089D01*
X27949Y-19910D01*
X27881Y-19745D01*
X27860Y-19724D01*
X28139Y-19724D01*
X28119Y-19745D01*
X28050Y-19910D01*
X28050Y-20089D01*
X28118Y-20254D01*
X28245Y-20380D01*
X28410Y-20449D01*
X28589Y-20449D01*
X28754Y-20381D01*
X28880Y-20254D01*
X28949Y-20089D01*
X28949Y-19910D01*
X28881Y-19745D01*
X28860Y-19724D01*
X29139Y-19724D01*
X29119Y-19745D01*
X29050Y-19910D01*
X29050Y-20089D01*
X29118Y-20254D01*
X29245Y-20380D01*
X29410Y-20449D01*
X29589Y-20449D01*
X29754Y-20381D01*
X29880Y-20254D01*
X29949Y-20089D01*
X29949Y-19910D01*
X29881Y-19745D01*
X29860Y-19724D01*
X30139Y-19724D01*
X30119Y-19745D01*
X30050Y-19910D01*
X30050Y-20089D01*
X30118Y-20254D01*
X30245Y-20380D01*
X30410Y-20449D01*
X30589Y-20449D01*
X30754Y-20381D01*
X30880Y-20254D01*
X30949Y-20089D01*
X30949Y-19910D01*
X30881Y-19745D01*
X30860Y-19724D01*
X31139Y-19724D01*
X31119Y-19745D01*
X31050Y-19910D01*
X31050Y-20089D01*
X31118Y-20254D01*
X31245Y-20380D01*
X31410Y-20449D01*
X31589Y-20449D01*
X31754Y-20381D01*
X31880Y-20254D01*
X31949Y-20089D01*
X31949Y-19910D01*
X31881Y-19745D01*
X31860Y-19724D01*
X32139Y-19724D01*
X32119Y-19745D01*
X32050Y-19910D01*
X32050Y-20089D01*
X32118Y-20254D01*
X32245Y-20380D01*
X32410Y-20449D01*
X32589Y-20449D01*
X32754Y-20381D01*
X32880Y-20254D01*
X32949Y-20089D01*
X32949Y-19910D01*
X32881Y-19745D01*
X32860Y-19724D01*
X33050Y-19724D01*
X33050Y-19729D01*
X33050Y-20329D01*
X33073Y-20384D01*
X33115Y-20426D01*
X33170Y-20449D01*
X33229Y-20449D01*
X33775Y-20449D01*
X33775Y-29275D01*
X33775Y-29275D01*
G37*
G54D17*
X33775Y-29275D02*
X32860Y-29275D01*
X32880Y-29254D01*
X32949Y-29089D01*
X32949Y-28910D01*
X32881Y-28745D01*
X32754Y-28619D01*
X32708Y-28599D01*
X32708Y-27086D01*
X33147Y-26647D01*
X33192Y-26579D01*
X33208Y-26500D01*
X33208Y-25000D01*
X33192Y-24920D01*
X33192Y-24920D01*
X33174Y-24893D01*
X33147Y-24852D01*
X33147Y-24852D01*
X32415Y-24120D01*
X32429Y-24085D01*
X32429Y-23914D01*
X32364Y-23757D01*
X32243Y-23636D01*
X32085Y-23570D01*
X31914Y-23570D01*
X31757Y-23635D01*
X31636Y-23756D01*
X31570Y-23914D01*
X31570Y-24085D01*
X31635Y-24242D01*
X31756Y-24363D01*
X31914Y-24429D01*
X32085Y-24429D01*
X32120Y-24415D01*
X32791Y-25086D01*
X32791Y-26413D01*
X32352Y-26852D01*
X32307Y-26920D01*
X32291Y-27000D01*
X32291Y-28599D01*
X32245Y-28618D01*
X32119Y-28745D01*
X32050Y-28910D01*
X32050Y-29089D01*
X32118Y-29254D01*
X32139Y-29275D01*
X31860Y-29275D01*
X31880Y-29254D01*
X31949Y-29089D01*
X31949Y-28910D01*
X31881Y-28745D01*
X31754Y-28619D01*
X31708Y-28599D01*
X31708Y-26336D01*
X31718Y-26326D01*
X31756Y-26363D01*
X31914Y-26429D01*
X32085Y-26429D01*
X32242Y-26364D01*
X32363Y-26243D01*
X32429Y-26085D01*
X32429Y-25914D01*
X32364Y-25757D01*
X32243Y-25636D01*
X32085Y-25570D01*
X31914Y-25570D01*
X31757Y-25635D01*
X31636Y-25756D01*
X31591Y-25863D01*
X31352Y-26102D01*
X31307Y-26170D01*
X31291Y-26250D01*
X31291Y-28599D01*
X31245Y-28618D01*
X31119Y-28745D01*
X31050Y-28910D01*
X31050Y-29089D01*
X31118Y-29254D01*
X31139Y-29275D01*
X30860Y-29275D01*
X30880Y-29254D01*
X30949Y-29089D01*
X30949Y-28910D01*
X30881Y-28745D01*
X30754Y-28619D01*
X30708Y-28599D01*
X30708Y-28400D01*
X30754Y-28381D01*
X30880Y-28254D01*
X30949Y-28089D01*
X30949Y-27910D01*
X30881Y-27745D01*
X30754Y-27619D01*
X30589Y-27550D01*
X30410Y-27550D01*
X30245Y-27618D01*
X30119Y-27745D01*
X30050Y-27910D01*
X30050Y-28089D01*
X30118Y-28254D01*
X30245Y-28380D01*
X30291Y-28400D01*
X30291Y-28599D01*
X30245Y-28618D01*
X30119Y-28745D01*
X30050Y-28910D01*
X30050Y-29089D01*
X30118Y-29254D01*
X30139Y-29275D01*
X29860Y-29275D01*
X29880Y-29254D01*
X29949Y-29089D01*
X29949Y-28910D01*
X29949Y-27910D01*
X29949Y-26910D01*
X29881Y-26745D01*
X29754Y-26619D01*
X29589Y-26550D01*
X29410Y-26550D01*
X29245Y-26618D01*
X29119Y-26745D01*
X29050Y-26910D01*
X29050Y-27089D01*
X29118Y-27254D01*
X29245Y-27380D01*
X29410Y-27449D01*
X29589Y-27449D01*
X29754Y-27381D01*
X29880Y-27254D01*
X29949Y-27089D01*
X29949Y-26910D01*
X29949Y-27910D01*
X29881Y-27745D01*
X29754Y-27619D01*
X29589Y-27550D01*
X29410Y-27550D01*
X29245Y-27618D01*
X29119Y-27745D01*
X29050Y-27910D01*
X29050Y-28089D01*
X29118Y-28254D01*
X29245Y-28380D01*
X29410Y-28449D01*
X29589Y-28449D01*
X29754Y-28381D01*
X29880Y-28254D01*
X29949Y-28089D01*
X29949Y-27910D01*
X29949Y-28910D01*
X29881Y-28745D01*
X29754Y-28619D01*
X29589Y-28550D01*
X29410Y-28550D01*
X29364Y-28569D01*
X28949Y-28154D01*
X28949Y-26910D01*
X28881Y-26745D01*
X28754Y-26619D01*
X28589Y-26550D01*
X28410Y-26550D01*
X28245Y-26618D01*
X28119Y-26745D01*
X28050Y-26910D01*
X28050Y-27089D01*
X28118Y-27254D01*
X28245Y-27380D01*
X28410Y-27449D01*
X28589Y-27449D01*
X28754Y-27381D01*
X28880Y-27254D01*
X28949Y-27089D01*
X28949Y-26910D01*
X28949Y-28154D01*
X28949Y-28154D01*
X28949Y-27670D01*
X28926Y-27615D01*
X28884Y-27573D01*
X28829Y-27550D01*
X28770Y-27550D01*
X28170Y-27550D01*
X28115Y-27573D01*
X28073Y-27615D01*
X28050Y-27670D01*
X28050Y-27729D01*
X28050Y-28255D01*
X27647Y-27852D01*
X27579Y-27807D01*
X27500Y-27791D01*
X26586Y-27791D01*
X26324Y-27529D01*
X26324Y-27435D01*
X26275Y-27316D01*
X26184Y-27225D01*
X26064Y-27175D01*
X25935Y-27175D01*
X25816Y-27224D01*
X25725Y-27315D01*
X25691Y-27396D01*
X25647Y-27352D01*
X24574Y-26279D01*
X24574Y-26185D01*
X24525Y-26066D01*
X24434Y-25975D01*
X24314Y-25925D01*
X24185Y-25925D01*
X24066Y-25974D01*
X23975Y-26065D01*
X23925Y-26185D01*
X23925Y-26314D01*
X23972Y-26427D01*
X23574Y-26029D01*
X23574Y-25935D01*
X23525Y-25816D01*
X23434Y-25725D01*
X23314Y-25675D01*
X23185Y-25675D01*
X23066Y-25724D01*
X22975Y-25815D01*
X22925Y-25935D01*
X22925Y-26064D01*
X22974Y-26183D01*
X23065Y-26274D01*
X23185Y-26324D01*
X23279Y-26324D01*
X24246Y-27291D01*
X23500Y-27291D01*
X23434Y-27225D01*
X23314Y-27175D01*
X23185Y-27175D01*
X23066Y-27224D01*
X22975Y-27315D01*
X22925Y-27435D01*
X22925Y-27564D01*
X22971Y-27675D01*
X22935Y-27675D01*
X22816Y-27724D01*
X22725Y-27815D01*
X22675Y-27935D01*
X22675Y-28064D01*
X22724Y-28183D01*
X22815Y-28274D01*
X22935Y-28324D01*
X23064Y-28324D01*
X23183Y-28275D01*
X23250Y-28208D01*
X24163Y-28208D01*
X24291Y-28336D01*
X24291Y-28599D01*
X24245Y-28618D01*
X24119Y-28745D01*
X24050Y-28910D01*
X24050Y-29089D01*
X24118Y-29254D01*
X24139Y-29275D01*
X23860Y-29275D01*
X23880Y-29254D01*
X23949Y-29089D01*
X23949Y-28910D01*
X23881Y-28745D01*
X23754Y-28619D01*
X23589Y-28550D01*
X23410Y-28550D01*
X23245Y-28618D01*
X23119Y-28745D01*
X23050Y-28910D01*
X23050Y-29089D01*
X23118Y-29254D01*
X23139Y-29275D01*
X22860Y-29275D01*
X22880Y-29254D01*
X22949Y-29089D01*
X22949Y-28910D01*
X22881Y-28745D01*
X22754Y-28619D01*
X22589Y-28550D01*
X22574Y-28550D01*
X22574Y-25685D01*
X22525Y-25566D01*
X22434Y-25475D01*
X22314Y-25425D01*
X22278Y-25425D01*
X22324Y-25314D01*
X22324Y-25185D01*
X22275Y-25066D01*
X22184Y-24975D01*
X22064Y-24925D01*
X21935Y-24925D01*
X21816Y-24974D01*
X21725Y-25065D01*
X21675Y-25185D01*
X21675Y-25279D01*
X21663Y-25291D01*
X18250Y-25291D01*
X18086Y-25291D01*
X17641Y-24846D01*
X17573Y-24801D01*
X17494Y-24785D01*
X16500Y-24785D01*
X16434Y-24719D01*
X16314Y-24669D01*
X16185Y-24669D01*
X16066Y-24718D01*
X15975Y-24809D01*
X15925Y-24929D01*
X15925Y-25058D01*
X15974Y-25177D01*
X16065Y-25268D01*
X16185Y-25318D01*
X16314Y-25318D01*
X16433Y-25269D01*
X16500Y-25202D01*
X17407Y-25202D01*
X17646Y-25441D01*
X17566Y-25474D01*
X17475Y-25565D01*
X17425Y-25685D01*
X17425Y-25814D01*
X17474Y-25933D01*
X17565Y-26024D01*
X17685Y-26074D01*
X17814Y-26074D01*
X17933Y-26025D01*
X18000Y-25958D01*
X21999Y-25958D01*
X22065Y-26024D01*
X22185Y-26074D01*
X22314Y-26074D01*
X22433Y-26025D01*
X22524Y-25934D01*
X22574Y-25814D01*
X22574Y-25685D01*
X22574Y-28550D01*
X22410Y-28550D01*
X22245Y-28618D01*
X22119Y-28745D01*
X22050Y-28910D01*
X22050Y-29089D01*
X22118Y-29254D01*
X22139Y-29275D01*
X21860Y-29275D01*
X21880Y-29254D01*
X21949Y-29089D01*
X21949Y-28910D01*
X21881Y-28745D01*
X21754Y-28619D01*
X21589Y-28550D01*
X21410Y-28550D01*
X21245Y-28618D01*
X21119Y-28745D01*
X21050Y-28910D01*
X21050Y-29089D01*
X21118Y-29254D01*
X21139Y-29275D01*
X20860Y-29275D01*
X20880Y-29254D01*
X20949Y-29089D01*
X20949Y-28910D01*
X20881Y-28745D01*
X20754Y-28619D01*
X20589Y-28550D01*
X20410Y-28550D01*
X20245Y-28618D01*
X20119Y-28745D01*
X20050Y-28910D01*
X20050Y-29089D01*
X20118Y-29254D01*
X20139Y-29275D01*
X19860Y-29275D01*
X19880Y-29254D01*
X19949Y-29089D01*
X19949Y-28910D01*
X19881Y-28745D01*
X19754Y-28619D01*
X19589Y-28550D01*
X19410Y-28550D01*
X19245Y-28618D01*
X19119Y-28745D01*
X19050Y-28910D01*
X19050Y-29089D01*
X19118Y-29254D01*
X19139Y-29275D01*
X18860Y-29275D01*
X18880Y-29254D01*
X18949Y-29089D01*
X18949Y-28910D01*
X18881Y-28745D01*
X18754Y-28619D01*
X18589Y-28550D01*
X18410Y-28550D01*
X18245Y-28618D01*
X18119Y-28745D01*
X18050Y-28910D01*
X18050Y-29089D01*
X18118Y-29254D01*
X18139Y-29275D01*
X17860Y-29275D01*
X17880Y-29254D01*
X17949Y-29089D01*
X17949Y-28910D01*
X17881Y-28745D01*
X17754Y-28619D01*
X17589Y-28550D01*
X17410Y-28550D01*
X17245Y-28618D01*
X17119Y-28745D01*
X17050Y-28910D01*
X17050Y-29089D01*
X17118Y-29254D01*
X17139Y-29275D01*
X16860Y-29275D01*
X16880Y-29254D01*
X16949Y-29089D01*
X16949Y-28910D01*
X16881Y-28745D01*
X16754Y-28619D01*
X16589Y-28550D01*
X16410Y-28550D01*
X16245Y-28618D01*
X16119Y-28745D01*
X16050Y-28910D01*
X16050Y-29089D01*
X16118Y-29254D01*
X16139Y-29275D01*
X14949Y-29275D01*
X14949Y-29270D01*
X14949Y-28670D01*
X14926Y-28615D01*
X14884Y-28573D01*
X14829Y-28550D01*
X14770Y-28550D01*
X14708Y-28550D01*
X14708Y-26250D01*
X14708Y-24836D01*
X15336Y-24208D01*
X15999Y-24208D01*
X16065Y-24274D01*
X16185Y-24324D01*
X16314Y-24324D01*
X16433Y-24275D01*
X16524Y-24184D01*
X16574Y-24064D01*
X16574Y-23935D01*
X16525Y-23816D01*
X16434Y-23725D01*
X16314Y-23675D01*
X16185Y-23675D01*
X16066Y-23724D01*
X15999Y-23791D01*
X15250Y-23791D01*
X15249Y-23791D01*
X15234Y-23794D01*
X15170Y-23807D01*
X15102Y-23852D01*
X15102Y-23852D01*
X14352Y-24602D01*
X14307Y-24670D01*
X14291Y-24750D01*
X14291Y-26250D01*
X14291Y-28550D01*
X14224Y-28550D01*
X14224Y-20360D01*
X14245Y-20380D01*
X14410Y-20449D01*
X14589Y-20449D01*
X14754Y-20381D01*
X14880Y-20254D01*
X14949Y-20089D01*
X14949Y-19910D01*
X14881Y-19745D01*
X14860Y-19724D01*
X15139Y-19724D01*
X15119Y-19745D01*
X15050Y-19910D01*
X15050Y-20089D01*
X15118Y-20254D01*
X15245Y-20380D01*
X15410Y-20449D01*
X15589Y-20449D01*
X15754Y-20381D01*
X15880Y-20254D01*
X15949Y-20089D01*
X15949Y-19910D01*
X15881Y-19745D01*
X15860Y-19724D01*
X16139Y-19724D01*
X16119Y-19745D01*
X16050Y-19910D01*
X16050Y-20089D01*
X16118Y-20254D01*
X16245Y-20380D01*
X16410Y-20449D01*
X16589Y-20449D01*
X16754Y-20381D01*
X16880Y-20254D01*
X16949Y-20089D01*
X16949Y-19910D01*
X16881Y-19745D01*
X16860Y-19724D01*
X17139Y-19724D01*
X17119Y-19745D01*
X17050Y-19910D01*
X17050Y-20089D01*
X17118Y-20254D01*
X17245Y-20380D01*
X17410Y-20449D01*
X17589Y-20449D01*
X17754Y-20381D01*
X17880Y-20254D01*
X17949Y-20089D01*
X17949Y-19910D01*
X17881Y-19745D01*
X17860Y-19724D01*
X18139Y-19724D01*
X18119Y-19745D01*
X18050Y-19910D01*
X18050Y-20089D01*
X18118Y-20254D01*
X18245Y-20380D01*
X18410Y-20449D01*
X18589Y-20449D01*
X18754Y-20381D01*
X18880Y-20254D01*
X18949Y-20089D01*
X18949Y-19910D01*
X18881Y-19745D01*
X18860Y-19724D01*
X19139Y-19724D01*
X19119Y-19745D01*
X19050Y-19910D01*
X19050Y-20089D01*
X19118Y-20254D01*
X19245Y-20380D01*
X19410Y-20449D01*
X19589Y-20449D01*
X19754Y-20381D01*
X19880Y-20254D01*
X19949Y-20089D01*
X19949Y-19910D01*
X19881Y-19745D01*
X19860Y-19724D01*
X20139Y-19724D01*
X20119Y-19745D01*
X20050Y-19910D01*
X20050Y-20089D01*
X20118Y-20254D01*
X20245Y-20380D01*
X20410Y-20449D01*
X20589Y-20449D01*
X20754Y-20381D01*
X20880Y-20254D01*
X20949Y-20089D01*
X20949Y-19910D01*
X20881Y-19745D01*
X20860Y-19724D01*
X21139Y-19724D01*
X21119Y-19745D01*
X21050Y-19910D01*
X21050Y-20089D01*
X21118Y-20254D01*
X21245Y-20380D01*
X21410Y-20449D01*
X21589Y-20449D01*
X21754Y-20381D01*
X21880Y-20254D01*
X21949Y-20089D01*
X21949Y-19910D01*
X21881Y-19745D01*
X21860Y-19724D01*
X22139Y-19724D01*
X22119Y-19745D01*
X22050Y-19910D01*
X22050Y-20089D01*
X22118Y-20254D01*
X22245Y-20380D01*
X22410Y-20449D01*
X22589Y-20449D01*
X22754Y-20381D01*
X22880Y-20254D01*
X22949Y-20089D01*
X22949Y-19910D01*
X22881Y-19745D01*
X22860Y-19724D01*
X23139Y-19724D01*
X23119Y-19745D01*
X23050Y-19910D01*
X23050Y-20089D01*
X23118Y-20254D01*
X23245Y-20380D01*
X23410Y-20449D01*
X23589Y-20449D01*
X23754Y-20381D01*
X23880Y-20254D01*
X23949Y-20089D01*
X23949Y-19910D01*
X23881Y-19745D01*
X23860Y-19724D01*
X24139Y-19724D01*
X24119Y-19745D01*
X24050Y-19910D01*
X24050Y-20089D01*
X24118Y-20254D01*
X24245Y-20380D01*
X24410Y-20449D01*
X24589Y-20449D01*
X24754Y-20381D01*
X24880Y-20254D01*
X24949Y-20089D01*
X24949Y-19910D01*
X24881Y-19745D01*
X24860Y-19724D01*
X25139Y-19724D01*
X25119Y-19745D01*
X25050Y-19910D01*
X25050Y-20089D01*
X25118Y-20254D01*
X25245Y-20380D01*
X25410Y-20449D01*
X25589Y-20449D01*
X25754Y-20381D01*
X25880Y-20254D01*
X25949Y-20089D01*
X25949Y-19910D01*
X25881Y-19745D01*
X25860Y-19724D01*
X26139Y-19724D01*
X26119Y-19745D01*
X26050Y-19910D01*
X26050Y-20089D01*
X26118Y-20254D01*
X26245Y-20380D01*
X26410Y-20449D01*
X26589Y-20449D01*
X26754Y-20381D01*
X26880Y-20254D01*
X26949Y-20089D01*
X26949Y-19910D01*
X26881Y-19745D01*
X26860Y-19724D01*
X27139Y-19724D01*
X27119Y-19745D01*
X27050Y-19910D01*
X27050Y-20089D01*
X27118Y-20254D01*
X27245Y-20380D01*
X27410Y-20449D01*
X27589Y-20449D01*
X27754Y-20381D01*
X27880Y-20254D01*
X27949Y-20089D01*
X27949Y-19910D01*
X27881Y-19745D01*
X27860Y-19724D01*
X28139Y-19724D01*
X28119Y-19745D01*
X28050Y-19910D01*
X28050Y-20089D01*
X28118Y-20254D01*
X28245Y-20380D01*
X28410Y-20449D01*
X28589Y-20449D01*
X28754Y-20381D01*
X28880Y-20254D01*
X28949Y-20089D01*
X28949Y-19910D01*
X28881Y-19745D01*
X28860Y-19724D01*
X29139Y-19724D01*
X29119Y-19745D01*
X29050Y-19910D01*
X29050Y-20089D01*
X29118Y-20254D01*
X29245Y-20380D01*
X29410Y-20449D01*
X29589Y-20449D01*
X29754Y-20381D01*
X29880Y-20254D01*
X29949Y-20089D01*
X29949Y-19910D01*
X29881Y-19745D01*
X29860Y-19724D01*
X30139Y-19724D01*
X30119Y-19745D01*
X30050Y-19910D01*
X30050Y-20089D01*
X30118Y-20254D01*
X30245Y-20380D01*
X30410Y-20449D01*
X30589Y-20449D01*
X30754Y-20381D01*
X30880Y-20254D01*
X30949Y-20089D01*
X30949Y-19910D01*
X30881Y-19745D01*
X30860Y-19724D01*
X31139Y-19724D01*
X31119Y-19745D01*
X31050Y-19910D01*
X31050Y-20089D01*
X31118Y-20254D01*
X31245Y-20380D01*
X31410Y-20449D01*
X31589Y-20449D01*
X31754Y-20381D01*
X31880Y-20254D01*
X31949Y-20089D01*
X31949Y-19910D01*
X31881Y-19745D01*
X31860Y-19724D01*
X32139Y-19724D01*
X32119Y-19745D01*
X32050Y-19910D01*
X32050Y-20089D01*
X32118Y-20254D01*
X32245Y-20380D01*
X32410Y-20449D01*
X32589Y-20449D01*
X32754Y-20381D01*
X32880Y-20254D01*
X32949Y-20089D01*
X32949Y-19910D01*
X32881Y-19745D01*
X32860Y-19724D01*
X33050Y-19724D01*
X33050Y-19729D01*
X33050Y-20329D01*
X33073Y-20384D01*
X33115Y-20426D01*
X33170Y-20449D01*
X33229Y-20449D01*
X33775Y-20449D01*
X33775Y-29275D01*
M02*
