G04 (created by PCBNEW (2013-07-07 BZR 4022)-stable) date 21.08.2014 16:08:41*
%MOIN*%
G04 Gerber Fmt 3.4, Leading zero omitted, Abs format*
%FSLAX34Y34*%
G01*
G70*
G90*
G04 APERTURE LIST*
%ADD10C,0.00590551*%
%ADD11C,0.015*%
%ADD12R,0.06X0.016*%
%ADD13R,0.016X0.06*%
%ADD14R,0.055X0.035*%
%ADD15R,0.06X0.06*%
%ADD16C,0.06*%
%ADD17R,0.035X0.055*%
%ADD18R,0.045X0.025*%
%ADD19R,0.025X0.045*%
%ADD20R,0.0472X0.0472*%
%ADD21R,0.0531X0.0256*%
%ADD22C,0.056*%
%ADD23R,0.0747X0.0747*%
%ADD24R,0.0747X0.0748*%
%ADD25R,0.0747X0.0707*%
%ADD26R,0.0629X0.0825*%
%ADD27R,0.053X0.0157*%
%ADD28R,0.0197X0.0315*%
%ADD29C,0.035*%
%ADD30C,0.0118*%
%ADD31C,0.0063*%
G04 APERTURE END LIST*
G54D10*
G54D11*
X14000Y-19500D02*
X34000Y-19500D01*
X14000Y-29500D02*
X14000Y-19500D01*
X34000Y-29500D02*
X14000Y-29500D01*
X34000Y-19500D02*
X34000Y-29500D01*
G54D12*
X25250Y-24500D03*
X25250Y-24185D03*
X25250Y-23870D03*
X25250Y-23555D03*
X25250Y-23240D03*
X25250Y-22925D03*
X25250Y-24815D03*
X25250Y-25130D03*
X25250Y-25445D03*
X25250Y-25760D03*
X25250Y-26075D03*
X20750Y-24500D03*
X20750Y-24185D03*
X20750Y-23870D03*
X20750Y-23555D03*
X20750Y-23240D03*
X20750Y-22925D03*
X20750Y-24815D03*
X20750Y-25130D03*
X20750Y-25445D03*
X20750Y-25760D03*
X20750Y-26075D03*
G54D13*
X23000Y-22250D03*
X23000Y-26750D03*
X22685Y-22250D03*
X22685Y-26750D03*
X22370Y-26750D03*
X22370Y-22250D03*
X22055Y-22250D03*
X22055Y-26750D03*
X21740Y-26750D03*
X21740Y-22250D03*
X21425Y-22250D03*
X21425Y-26750D03*
X23315Y-26750D03*
X23315Y-22250D03*
X23630Y-22250D03*
X23630Y-26750D03*
X23945Y-26750D03*
X23945Y-22250D03*
X24260Y-22250D03*
X24260Y-26750D03*
X24575Y-26750D03*
X24575Y-22250D03*
G54D14*
X27500Y-26875D03*
X27500Y-26125D03*
G54D15*
X28500Y-28000D03*
G54D16*
X28500Y-27000D03*
X29500Y-28000D03*
X29500Y-27000D03*
X30500Y-28000D03*
X30500Y-27000D03*
G54D17*
X29875Y-24500D03*
X29125Y-24500D03*
G54D15*
X33500Y-20000D03*
G54D16*
X28500Y-20000D03*
X27500Y-20000D03*
X26500Y-20000D03*
X25500Y-20000D03*
X24500Y-20000D03*
X23500Y-20000D03*
X22500Y-20000D03*
X21500Y-20000D03*
X20500Y-20000D03*
X19500Y-20000D03*
X18500Y-20000D03*
X17500Y-20000D03*
X16500Y-20000D03*
X15500Y-20000D03*
X32500Y-20000D03*
X31500Y-20000D03*
X30500Y-20000D03*
X29500Y-20000D03*
X14500Y-20000D03*
G54D15*
X14500Y-29000D03*
G54D16*
X19500Y-29000D03*
X20500Y-29000D03*
X21500Y-29000D03*
X22500Y-29000D03*
X23500Y-29000D03*
X24500Y-29000D03*
X25500Y-29000D03*
X26500Y-29000D03*
X27500Y-29000D03*
X28500Y-29000D03*
X29500Y-29000D03*
X30500Y-29000D03*
X31500Y-29000D03*
X32500Y-29000D03*
X15500Y-29000D03*
X16500Y-29000D03*
X17500Y-29000D03*
X18500Y-29000D03*
X33500Y-29000D03*
G54D14*
X29750Y-25875D03*
X29750Y-25125D03*
X30500Y-25375D03*
X30500Y-24625D03*
X26250Y-20875D03*
X26250Y-21625D03*
X28250Y-24125D03*
X28250Y-24875D03*
G54D18*
X19250Y-25550D03*
X19250Y-24950D03*
G54D19*
X21700Y-21000D03*
X22300Y-21000D03*
G54D14*
X33500Y-27375D03*
X33500Y-28125D03*
G54D19*
X24300Y-27750D03*
X23700Y-27750D03*
G54D18*
X26000Y-24200D03*
X26000Y-24800D03*
X25500Y-20950D03*
X25500Y-21550D03*
G54D14*
X27500Y-24375D03*
X27500Y-25125D03*
G54D18*
X26750Y-25050D03*
X26750Y-24450D03*
G54D14*
X15500Y-27375D03*
X15500Y-28125D03*
X17500Y-22125D03*
X17500Y-21375D03*
X16500Y-22125D03*
X16500Y-21375D03*
G54D20*
X15663Y-22250D03*
X14837Y-22250D03*
X15663Y-21500D03*
X14837Y-21500D03*
G54D14*
X16500Y-27375D03*
X16500Y-28125D03*
G54D17*
X33375Y-21500D03*
X32625Y-21500D03*
G54D14*
X17000Y-23125D03*
X17000Y-23875D03*
G54D21*
X17972Y-24500D03*
X17028Y-24500D03*
G54D22*
X32000Y-24000D03*
X32000Y-26000D03*
G54D20*
X33500Y-22087D03*
X33500Y-22913D03*
X17750Y-23087D03*
X17750Y-23913D03*
G54D23*
X14570Y-24778D03*
G54D24*
X14570Y-25722D03*
G54D25*
X14570Y-26746D03*
G54D26*
X15574Y-24030D03*
G54D27*
X15624Y-24739D03*
X15624Y-24995D03*
X15624Y-25250D03*
X15624Y-25505D03*
X15624Y-25761D03*
G54D26*
X15574Y-26470D03*
G54D25*
X14570Y-23754D03*
G54D28*
X16744Y-26094D03*
X17000Y-25306D03*
X17256Y-26094D03*
X17000Y-26094D03*
X17256Y-25306D03*
X16744Y-25306D03*
G54D29*
X16250Y-24994D03*
X22000Y-25250D03*
X22250Y-25750D03*
X17750Y-25750D03*
X23000Y-28000D03*
X23250Y-27500D03*
X23250Y-26000D03*
X24250Y-26250D03*
X26000Y-27500D03*
X16250Y-25900D03*
X23650Y-25600D03*
X22350Y-22950D03*
X26900Y-21600D03*
X14850Y-22850D03*
X18250Y-25000D03*
X21500Y-24500D03*
X33500Y-23500D03*
X24500Y-24750D03*
X30500Y-24000D03*
X16250Y-24000D03*
G54D30*
X16500Y-28125D02*
X16500Y-29000D01*
X29125Y-24500D02*
X27625Y-24500D01*
X27625Y-24500D02*
X27500Y-24375D01*
X25250Y-24500D02*
X26700Y-24500D01*
X26750Y-24450D02*
X27425Y-24450D01*
X27425Y-24450D02*
X27500Y-24375D01*
X26700Y-24500D02*
X26750Y-24450D01*
X25250Y-24185D02*
X25985Y-24185D01*
X31750Y-21000D02*
X32500Y-21000D01*
X28250Y-24125D02*
X28625Y-24125D01*
X28625Y-24125D02*
X31750Y-21000D01*
X32500Y-21000D02*
X33500Y-20000D01*
X26000Y-24200D02*
X26300Y-24200D01*
X26500Y-24000D02*
X28125Y-24000D01*
X26300Y-24200D02*
X26500Y-24000D01*
X25985Y-24185D02*
X26000Y-24200D01*
X28125Y-24000D02*
X28250Y-24125D01*
X28500Y-23750D02*
X31500Y-20750D01*
X25250Y-23870D02*
X26130Y-23870D01*
X31500Y-20750D02*
X31750Y-20750D01*
X31750Y-20750D02*
X32500Y-20000D01*
X26130Y-23870D02*
X26250Y-23750D01*
X26250Y-23750D02*
X28500Y-23750D01*
X25970Y-23500D02*
X28250Y-23500D01*
X28250Y-23500D02*
X31500Y-20250D01*
X31500Y-20250D02*
X31500Y-20000D01*
X25250Y-23555D02*
X25915Y-23555D01*
X25915Y-23555D02*
X25970Y-23500D01*
X25740Y-23240D02*
X25750Y-23250D01*
X28000Y-23250D02*
X30500Y-20750D01*
X25750Y-23250D02*
X28000Y-23250D01*
X25250Y-23240D02*
X25740Y-23240D01*
X30500Y-20750D02*
X30500Y-20000D01*
X27825Y-22925D02*
X29500Y-21250D01*
X29500Y-21250D02*
X29500Y-20000D01*
X25250Y-22925D02*
X27825Y-22925D01*
X28000Y-20500D02*
X28500Y-20000D01*
X27250Y-22250D02*
X28000Y-21500D01*
X28000Y-21500D02*
X28000Y-20500D01*
X24575Y-22250D02*
X27250Y-22250D01*
X27500Y-21500D02*
X27500Y-20000D01*
X24260Y-22250D02*
X24260Y-21740D01*
X24500Y-21500D02*
X24750Y-21500D01*
X25250Y-22000D02*
X27000Y-22000D01*
X27000Y-22000D02*
X27500Y-21500D01*
X24260Y-21740D02*
X24500Y-21500D01*
X24750Y-21500D02*
X25250Y-22000D01*
X27000Y-21000D02*
X27000Y-20750D01*
X26500Y-20250D02*
X26500Y-20000D01*
X27000Y-20750D02*
X26500Y-20250D01*
X26500Y-21250D02*
X26750Y-21250D01*
X26000Y-21250D02*
X26500Y-21250D01*
X24250Y-21250D02*
X26000Y-21250D01*
X23945Y-22250D02*
X23945Y-21555D01*
X26750Y-21250D02*
X27000Y-21000D01*
X23945Y-21555D02*
X24250Y-21250D01*
X24000Y-21000D02*
X25450Y-21000D01*
X26250Y-20875D02*
X25575Y-20875D01*
X25450Y-21000D02*
X25500Y-20950D01*
X23630Y-21370D02*
X24000Y-21000D01*
X23630Y-22250D02*
X23630Y-21370D01*
X25500Y-20950D02*
X25500Y-20000D01*
X25575Y-20875D02*
X25500Y-20950D01*
X23315Y-21185D02*
X23750Y-20750D01*
X23750Y-20750D02*
X24250Y-20750D01*
X23315Y-22250D02*
X23315Y-21185D01*
X24500Y-20500D02*
X24500Y-20000D01*
X24250Y-20750D02*
X24500Y-20500D01*
X23000Y-22250D02*
X23000Y-20500D01*
X23000Y-20500D02*
X23500Y-20000D01*
X22685Y-22250D02*
X22685Y-20185D01*
X22685Y-20185D02*
X22500Y-20000D01*
X21740Y-21760D02*
X21250Y-21270D01*
X21740Y-22250D02*
X21740Y-21760D01*
X21250Y-20250D02*
X21500Y-20000D01*
X21250Y-21270D02*
X21250Y-20250D01*
X21425Y-22250D02*
X21425Y-21925D01*
X21425Y-21925D02*
X21000Y-21500D01*
X21000Y-20500D02*
X20500Y-20000D01*
X21000Y-21500D02*
X21000Y-20500D01*
X20000Y-21000D02*
X19500Y-20500D01*
X20000Y-22500D02*
X20000Y-21000D01*
X19500Y-20500D02*
X19500Y-20000D01*
X20750Y-22925D02*
X20425Y-22925D01*
X20425Y-22925D02*
X20000Y-22500D01*
X19750Y-21250D02*
X18500Y-20000D01*
X19750Y-22980D02*
X19750Y-21250D01*
X20010Y-23240D02*
X19750Y-22980D01*
X20750Y-23240D02*
X20010Y-23240D01*
X19500Y-21500D02*
X18750Y-20750D01*
X19805Y-23555D02*
X19500Y-23250D01*
X18250Y-20750D02*
X17500Y-20000D01*
X18750Y-20750D02*
X18250Y-20750D01*
X20750Y-23555D02*
X19805Y-23555D01*
X19500Y-23250D02*
X19500Y-21500D01*
X19250Y-23500D02*
X19250Y-21750D01*
X19250Y-21750D02*
X18500Y-21000D01*
X20750Y-23870D02*
X19620Y-23870D01*
X17750Y-21000D02*
X17500Y-20750D01*
X18500Y-21000D02*
X17750Y-21000D01*
X19620Y-23870D02*
X19250Y-23500D01*
X17250Y-20750D02*
X16500Y-20000D01*
X17500Y-20750D02*
X17250Y-20750D01*
X20750Y-24185D02*
X19435Y-24185D01*
X17375Y-21375D02*
X16750Y-20750D01*
X18375Y-21375D02*
X17500Y-21375D01*
X16750Y-20750D02*
X16250Y-20750D01*
X19000Y-22000D02*
X18375Y-21375D01*
X19000Y-23750D02*
X19000Y-22000D01*
X16250Y-20750D02*
X15500Y-20000D01*
X17500Y-21375D02*
X17375Y-21375D01*
X19435Y-24185D02*
X19000Y-23750D01*
X15875Y-20750D02*
X16500Y-21375D01*
X14500Y-20250D02*
X15000Y-20750D01*
X18750Y-24000D02*
X19250Y-24500D01*
X16500Y-21375D02*
X16625Y-21375D01*
X19250Y-24500D02*
X20750Y-24500D01*
X18250Y-21750D02*
X18750Y-22250D01*
X17000Y-21750D02*
X18250Y-21750D01*
X15000Y-20750D02*
X15875Y-20750D01*
X18750Y-22250D02*
X18750Y-24000D01*
X14500Y-20000D02*
X14500Y-20250D01*
X16625Y-21375D02*
X17000Y-21750D01*
X17500Y-29000D02*
X19500Y-27000D01*
X20055Y-25445D02*
X20750Y-25445D01*
X19500Y-26000D02*
X20055Y-25445D01*
X19500Y-27000D02*
X19500Y-26000D01*
X20750Y-25760D02*
X20240Y-25760D01*
X20000Y-27500D02*
X18500Y-29000D01*
X20000Y-26000D02*
X20000Y-27500D01*
X20240Y-25760D02*
X20000Y-26000D01*
X19500Y-29000D02*
X20750Y-27750D01*
X20750Y-27750D02*
X20750Y-26075D01*
X21425Y-26750D02*
X21425Y-28075D01*
X21425Y-28075D02*
X20500Y-29000D01*
X21740Y-26750D02*
X21740Y-28760D01*
X21740Y-28760D02*
X21500Y-29000D01*
X22055Y-26750D02*
X22055Y-28555D01*
X22055Y-28555D02*
X22500Y-29000D01*
X16250Y-24994D02*
X16644Y-24994D01*
X16744Y-25094D02*
X16744Y-25306D01*
X16644Y-24994D02*
X16744Y-25094D01*
X22370Y-26750D02*
X22370Y-26370D01*
X21750Y-25750D02*
X22370Y-26370D01*
X22000Y-25250D02*
X21750Y-25500D01*
X22370Y-26750D02*
X22370Y-28120D01*
X21750Y-25500D02*
X21750Y-25750D01*
X23250Y-29000D02*
X23500Y-29000D01*
X15504Y-24994D02*
X16250Y-24994D01*
X22370Y-28120D02*
X23250Y-29000D01*
X17750Y-25750D02*
X16550Y-25750D01*
X16050Y-25250D02*
X15624Y-25250D01*
X16550Y-25750D02*
X16050Y-25250D01*
X17256Y-26094D02*
X17406Y-26094D01*
X17406Y-26094D02*
X17750Y-25750D01*
X22250Y-25750D02*
X22685Y-26185D01*
X22685Y-26750D02*
X22685Y-26185D01*
X22685Y-27685D02*
X22685Y-26750D01*
X23000Y-28000D02*
X22685Y-27685D01*
X26000Y-26500D02*
X28750Y-26500D01*
X29000Y-27500D02*
X28500Y-28000D01*
X28750Y-26500D02*
X29000Y-26750D01*
X29000Y-26750D02*
X29000Y-27500D01*
X25575Y-26075D02*
X26000Y-26500D01*
X25250Y-26075D02*
X25575Y-26075D01*
X23000Y-26750D02*
X23000Y-27250D01*
X23000Y-27250D02*
X23250Y-27500D01*
X23315Y-26065D02*
X23315Y-26750D01*
X23250Y-26000D02*
X23315Y-26065D01*
X24260Y-26260D02*
X24250Y-26250D01*
X24260Y-26750D02*
X24260Y-26260D01*
X25000Y-26750D02*
X25750Y-27500D01*
X24575Y-26750D02*
X25000Y-26750D01*
X25750Y-27500D02*
X26000Y-27500D01*
X25250Y-25445D02*
X25945Y-25445D01*
X28500Y-25750D02*
X28625Y-25875D01*
X29750Y-25875D02*
X31875Y-25875D01*
X26250Y-25750D02*
X28500Y-25750D01*
X25945Y-25445D02*
X26250Y-25750D01*
X28625Y-25875D02*
X29750Y-25875D01*
X31875Y-25875D02*
X32000Y-26000D01*
X31500Y-24500D02*
X32000Y-24000D01*
X31500Y-25000D02*
X31500Y-24500D01*
X31125Y-25375D02*
X31500Y-25000D01*
X25250Y-25130D02*
X26130Y-25130D01*
X26130Y-25130D02*
X26530Y-25530D01*
X30500Y-25375D02*
X31125Y-25375D01*
X30345Y-25530D02*
X30500Y-25375D01*
X26530Y-25530D02*
X30345Y-25530D01*
X25250Y-25760D02*
X25760Y-25760D01*
X30000Y-26500D02*
X30000Y-27500D01*
X25760Y-25760D02*
X26125Y-26125D01*
X29750Y-26250D02*
X30000Y-26500D01*
X28375Y-26125D02*
X28500Y-26250D01*
X27500Y-26125D02*
X28375Y-26125D01*
X26125Y-26125D02*
X27500Y-26125D01*
X28500Y-26250D02*
X29750Y-26250D01*
X30000Y-27500D02*
X30500Y-28000D01*
X16400Y-26400D02*
X16250Y-26250D01*
X16744Y-26344D02*
X16744Y-26356D01*
X16700Y-26400D02*
X16400Y-26400D01*
X16744Y-26356D02*
X16700Y-26400D01*
X16250Y-26250D02*
X16250Y-25900D01*
X15624Y-25761D02*
X16139Y-25761D01*
X16139Y-25761D02*
X16250Y-25872D01*
X16250Y-25872D02*
X16250Y-25900D01*
X17000Y-26094D02*
X17000Y-26300D01*
X17000Y-26300D02*
X16900Y-26400D01*
X16900Y-26400D02*
X16800Y-26400D01*
X16800Y-26400D02*
X16744Y-26344D01*
X16744Y-26344D02*
X16744Y-26094D01*
X23630Y-25620D02*
X23650Y-25600D01*
X23630Y-26750D02*
X23630Y-25620D01*
X22370Y-22930D02*
X22350Y-22950D01*
X22370Y-22250D02*
X22370Y-22930D01*
X26250Y-21625D02*
X26875Y-21625D01*
X26875Y-21625D02*
X26900Y-21600D01*
X14837Y-22250D02*
X14837Y-22837D01*
X14837Y-22837D02*
X14850Y-22850D01*
X17972Y-24500D02*
X17972Y-24722D01*
X17972Y-24722D02*
X18250Y-25000D01*
X17750Y-23875D02*
X17750Y-24000D01*
X17972Y-24222D02*
X17972Y-24500D01*
X17750Y-24000D02*
X17972Y-24222D01*
X25985Y-24815D02*
X26000Y-24800D01*
X14837Y-21500D02*
X14837Y-22250D01*
X25250Y-24815D02*
X25985Y-24815D01*
X27500Y-25125D02*
X28000Y-25125D01*
X19550Y-24950D02*
X19685Y-24815D01*
X29875Y-25125D02*
X30000Y-25000D01*
X26175Y-21550D02*
X26250Y-21625D01*
X23630Y-27680D02*
X23700Y-27750D01*
X33500Y-22875D02*
X33500Y-23500D01*
X20750Y-24815D02*
X21185Y-24815D01*
X28000Y-25125D02*
X28250Y-24875D01*
X29750Y-25125D02*
X29875Y-25125D01*
X30500Y-24625D02*
X30500Y-24000D01*
X24565Y-24815D02*
X24500Y-24750D01*
X25250Y-24815D02*
X24565Y-24815D01*
X19250Y-24950D02*
X19550Y-24950D01*
X33500Y-28125D02*
X33500Y-29000D01*
X15500Y-28125D02*
X15500Y-29000D01*
X27425Y-25050D02*
X27500Y-25125D01*
X21185Y-24815D02*
X21500Y-24500D01*
X26750Y-25050D02*
X27425Y-25050D01*
X30125Y-25000D02*
X30500Y-24625D01*
X30000Y-25000D02*
X30125Y-25000D01*
X19685Y-24815D02*
X20750Y-24815D01*
X26000Y-24800D02*
X26500Y-24800D01*
X23630Y-26750D02*
X23630Y-27680D01*
X26500Y-24800D02*
X26750Y-25050D01*
X25500Y-21550D02*
X26175Y-21550D01*
X22370Y-22250D02*
X22370Y-21070D01*
X22370Y-21070D02*
X22300Y-21000D01*
X17000Y-23125D02*
X17750Y-23125D01*
X33500Y-22125D02*
X33500Y-21625D01*
X33500Y-21625D02*
X33375Y-21500D01*
X16500Y-22125D02*
X16288Y-22125D01*
X16288Y-22125D02*
X15663Y-21500D01*
X17256Y-25306D02*
X17256Y-24728D01*
X17256Y-24728D02*
X17028Y-24500D01*
X17000Y-25306D02*
X17000Y-24528D01*
X17000Y-24528D02*
X17028Y-24500D01*
X17000Y-24528D02*
X17028Y-24500D01*
X17000Y-24528D02*
X17028Y-24500D01*
X17028Y-24500D02*
X16250Y-24500D01*
X17000Y-24528D02*
X17028Y-24500D01*
X17000Y-23875D02*
X17000Y-24472D01*
X17000Y-24472D02*
X17028Y-24500D01*
X16250Y-24000D02*
X16250Y-24500D01*
X16012Y-24738D02*
X16250Y-24500D01*
X15504Y-24738D02*
X16012Y-24738D01*
X15663Y-22250D02*
X15750Y-22250D01*
X17125Y-22500D02*
X17500Y-22125D01*
X16000Y-22500D02*
X17125Y-22500D01*
X15750Y-22250D02*
X16000Y-22500D01*
G54D10*
G36*
X33775Y-27800D02*
X33745Y-27800D01*
X33195Y-27800D01*
X33140Y-27823D01*
X33098Y-27865D01*
X33075Y-27920D01*
X33075Y-27979D01*
X33075Y-28329D01*
X33098Y-28384D01*
X33140Y-28426D01*
X33195Y-28449D01*
X33254Y-28449D01*
X33291Y-28449D01*
X33291Y-28599D01*
X33245Y-28618D01*
X33119Y-28745D01*
X33050Y-28910D01*
X33050Y-29089D01*
X33118Y-29254D01*
X33139Y-29275D01*
X32860Y-29275D01*
X32880Y-29254D01*
X32949Y-29089D01*
X32949Y-28910D01*
X32881Y-28745D01*
X32754Y-28619D01*
X32589Y-28550D01*
X32410Y-28550D01*
X32245Y-28618D01*
X32119Y-28745D01*
X32050Y-28910D01*
X32050Y-29089D01*
X32118Y-29254D01*
X32139Y-29275D01*
X31860Y-29275D01*
X31880Y-29254D01*
X31949Y-29089D01*
X31949Y-28910D01*
X31881Y-28745D01*
X31754Y-28619D01*
X31589Y-28550D01*
X31410Y-28550D01*
X31245Y-28618D01*
X31119Y-28745D01*
X31050Y-28910D01*
X31050Y-29089D01*
X31118Y-29254D01*
X31139Y-29275D01*
X30860Y-29275D01*
X30880Y-29254D01*
X30949Y-29089D01*
X30949Y-28910D01*
X30881Y-28745D01*
X30754Y-28619D01*
X30589Y-28550D01*
X30410Y-28550D01*
X30245Y-28618D01*
X30119Y-28745D01*
X30050Y-28910D01*
X30050Y-29089D01*
X30118Y-29254D01*
X30139Y-29275D01*
X29860Y-29275D01*
X29880Y-29254D01*
X29949Y-29089D01*
X29949Y-28910D01*
X29949Y-27910D01*
X29881Y-27745D01*
X29754Y-27619D01*
X29589Y-27550D01*
X29410Y-27550D01*
X29245Y-27618D01*
X29119Y-27745D01*
X29050Y-27910D01*
X29050Y-28089D01*
X29118Y-28254D01*
X29245Y-28380D01*
X29410Y-28449D01*
X29589Y-28449D01*
X29754Y-28381D01*
X29880Y-28254D01*
X29949Y-28089D01*
X29949Y-27910D01*
X29949Y-28910D01*
X29881Y-28745D01*
X29754Y-28619D01*
X29589Y-28550D01*
X29410Y-28550D01*
X29245Y-28618D01*
X29119Y-28745D01*
X29050Y-28910D01*
X29050Y-29089D01*
X29118Y-29254D01*
X29139Y-29275D01*
X28860Y-29275D01*
X28880Y-29254D01*
X28949Y-29089D01*
X28949Y-28910D01*
X28881Y-28745D01*
X28754Y-28619D01*
X28589Y-28550D01*
X28410Y-28550D01*
X28245Y-28618D01*
X28119Y-28745D01*
X28050Y-28910D01*
X28050Y-29089D01*
X28118Y-29254D01*
X28139Y-29275D01*
X27860Y-29275D01*
X27880Y-29254D01*
X27949Y-29089D01*
X27949Y-28910D01*
X27881Y-28745D01*
X27754Y-28619D01*
X27589Y-28550D01*
X27410Y-28550D01*
X27245Y-28618D01*
X27119Y-28745D01*
X27050Y-28910D01*
X27050Y-29089D01*
X27118Y-29254D01*
X27139Y-29275D01*
X26860Y-29275D01*
X26880Y-29254D01*
X26949Y-29089D01*
X26949Y-28910D01*
X26881Y-28745D01*
X26754Y-28619D01*
X26589Y-28550D01*
X26410Y-28550D01*
X26324Y-28586D01*
X26324Y-27435D01*
X26275Y-27316D01*
X26184Y-27225D01*
X26064Y-27175D01*
X25935Y-27175D01*
X25816Y-27224D01*
X25792Y-27248D01*
X25147Y-26602D01*
X25079Y-26557D01*
X25000Y-26541D01*
X24804Y-26541D01*
X24804Y-26420D01*
X24781Y-26365D01*
X24739Y-26323D01*
X24684Y-26300D01*
X24625Y-26300D01*
X24574Y-26300D01*
X24574Y-26185D01*
X24525Y-26066D01*
X24434Y-25975D01*
X24314Y-25925D01*
X24185Y-25925D01*
X24066Y-25974D01*
X23975Y-26065D01*
X23925Y-26185D01*
X23925Y-26314D01*
X23974Y-26433D01*
X24030Y-26489D01*
X24030Y-27079D01*
X24053Y-27134D01*
X24095Y-27176D01*
X24150Y-27199D01*
X24209Y-27199D01*
X24369Y-27199D01*
X24417Y-27179D01*
X24465Y-27199D01*
X24524Y-27199D01*
X24684Y-27199D01*
X24739Y-27176D01*
X24781Y-27134D01*
X24804Y-27079D01*
X24804Y-27020D01*
X24804Y-26958D01*
X24913Y-26958D01*
X25602Y-27647D01*
X25602Y-27647D01*
X25670Y-27692D01*
X25670Y-27692D01*
X25734Y-27705D01*
X25749Y-27708D01*
X25749Y-27708D01*
X25815Y-27774D01*
X25935Y-27824D01*
X26064Y-27824D01*
X26183Y-27775D01*
X26274Y-27684D01*
X26324Y-27564D01*
X26324Y-27435D01*
X26324Y-28586D01*
X26245Y-28618D01*
X26119Y-28745D01*
X26050Y-28910D01*
X26050Y-29089D01*
X26118Y-29254D01*
X26139Y-29275D01*
X25860Y-29275D01*
X25880Y-29254D01*
X25949Y-29089D01*
X25949Y-28910D01*
X25881Y-28745D01*
X25754Y-28619D01*
X25589Y-28550D01*
X25410Y-28550D01*
X25245Y-28618D01*
X25119Y-28745D01*
X25050Y-28910D01*
X25050Y-29089D01*
X25118Y-29254D01*
X25139Y-29275D01*
X24860Y-29275D01*
X24880Y-29254D01*
X24949Y-29089D01*
X24949Y-28910D01*
X24881Y-28745D01*
X24754Y-28619D01*
X24589Y-28550D01*
X24410Y-28550D01*
X24245Y-28618D01*
X24119Y-28745D01*
X24050Y-28910D01*
X24050Y-29089D01*
X24118Y-29254D01*
X24139Y-29275D01*
X23860Y-29275D01*
X23880Y-29254D01*
X23949Y-29089D01*
X23949Y-28910D01*
X23881Y-28745D01*
X23754Y-28619D01*
X23589Y-28550D01*
X23410Y-28550D01*
X23245Y-28618D01*
X23204Y-28659D01*
X22822Y-28277D01*
X22935Y-28324D01*
X23064Y-28324D01*
X23183Y-28275D01*
X23274Y-28184D01*
X23324Y-28064D01*
X23324Y-27935D01*
X23278Y-27824D01*
X23314Y-27824D01*
X23425Y-27778D01*
X23425Y-28004D01*
X23448Y-28059D01*
X23490Y-28101D01*
X23545Y-28124D01*
X23604Y-28124D01*
X23854Y-28124D01*
X23909Y-28101D01*
X23951Y-28059D01*
X23974Y-28004D01*
X23974Y-27945D01*
X23974Y-27495D01*
X23951Y-27440D01*
X23909Y-27398D01*
X23854Y-27375D01*
X23838Y-27375D01*
X23838Y-27130D01*
X23859Y-27079D01*
X23859Y-27020D01*
X23859Y-26420D01*
X23838Y-26369D01*
X23838Y-25870D01*
X23924Y-25784D01*
X23974Y-25664D01*
X23974Y-25535D01*
X23925Y-25416D01*
X23834Y-25325D01*
X23714Y-25275D01*
X23585Y-25275D01*
X23466Y-25324D01*
X23375Y-25415D01*
X23325Y-25535D01*
X23325Y-25664D01*
X23333Y-25683D01*
X23314Y-25675D01*
X23185Y-25675D01*
X23066Y-25724D01*
X22975Y-25815D01*
X22925Y-25935D01*
X22925Y-26064D01*
X22974Y-26183D01*
X23065Y-26274D01*
X23106Y-26291D01*
X23106Y-26300D01*
X23050Y-26300D01*
X22893Y-26300D01*
X22893Y-26185D01*
X22877Y-26105D01*
X22877Y-26105D01*
X22832Y-26037D01*
X22832Y-26037D01*
X22574Y-25779D01*
X22574Y-25685D01*
X22525Y-25566D01*
X22434Y-25475D01*
X22314Y-25425D01*
X22278Y-25425D01*
X22324Y-25314D01*
X22324Y-25185D01*
X22275Y-25066D01*
X22184Y-24975D01*
X22064Y-24925D01*
X21935Y-24925D01*
X21816Y-24974D01*
X21725Y-25065D01*
X21675Y-25185D01*
X21675Y-25279D01*
X21602Y-25352D01*
X21557Y-25420D01*
X21541Y-25500D01*
X21541Y-25750D01*
X21557Y-25829D01*
X21602Y-25897D01*
X22005Y-26300D01*
X21945Y-26300D01*
X21897Y-26320D01*
X21849Y-26300D01*
X21790Y-26300D01*
X21630Y-26300D01*
X21582Y-26320D01*
X21534Y-26300D01*
X21475Y-26300D01*
X21315Y-26300D01*
X21260Y-26323D01*
X21218Y-26365D01*
X21195Y-26420D01*
X21195Y-26479D01*
X21195Y-27079D01*
X21216Y-27130D01*
X21216Y-27988D01*
X20635Y-28569D01*
X20589Y-28550D01*
X20410Y-28550D01*
X20245Y-28618D01*
X20119Y-28745D01*
X20050Y-28910D01*
X20050Y-29089D01*
X20118Y-29254D01*
X20139Y-29275D01*
X19860Y-29275D01*
X19880Y-29254D01*
X19949Y-29089D01*
X19949Y-28910D01*
X19930Y-28864D01*
X20897Y-27897D01*
X20942Y-27829D01*
X20958Y-27750D01*
X20958Y-26304D01*
X21079Y-26304D01*
X21134Y-26281D01*
X21176Y-26239D01*
X21199Y-26184D01*
X21199Y-26125D01*
X21199Y-25965D01*
X21179Y-25917D01*
X21199Y-25869D01*
X21199Y-25810D01*
X21199Y-25650D01*
X21179Y-25602D01*
X21199Y-25554D01*
X21199Y-25495D01*
X21199Y-25335D01*
X21176Y-25280D01*
X21134Y-25238D01*
X21079Y-25215D01*
X21020Y-25215D01*
X20420Y-25215D01*
X20369Y-25236D01*
X20055Y-25236D01*
X20054Y-25236D01*
X20039Y-25239D01*
X19975Y-25252D01*
X19907Y-25297D01*
X19907Y-25297D01*
X19352Y-25852D01*
X19307Y-25920D01*
X19291Y-26000D01*
X19291Y-26913D01*
X18574Y-27630D01*
X18574Y-24935D01*
X18525Y-24816D01*
X18434Y-24725D01*
X18370Y-24698D01*
X18386Y-24657D01*
X18387Y-24598D01*
X18387Y-24342D01*
X18364Y-24287D01*
X18322Y-24245D01*
X18267Y-24222D01*
X18207Y-24222D01*
X18180Y-24222D01*
X18180Y-24222D01*
X18180Y-24221D01*
X18180Y-24221D01*
X18177Y-24206D01*
X18164Y-24142D01*
X18164Y-24142D01*
X18135Y-24098D01*
X18135Y-24098D01*
X18135Y-23647D01*
X18135Y-23293D01*
X18135Y-22821D01*
X18112Y-22766D01*
X18070Y-22724D01*
X18015Y-22701D01*
X17956Y-22701D01*
X17484Y-22701D01*
X17429Y-22724D01*
X17387Y-22766D01*
X17364Y-22821D01*
X17364Y-22828D01*
X17359Y-22823D01*
X17304Y-22800D01*
X17245Y-22800D01*
X16695Y-22800D01*
X16640Y-22823D01*
X16598Y-22865D01*
X16575Y-22920D01*
X16575Y-22979D01*
X16575Y-23329D01*
X16598Y-23384D01*
X16640Y-23426D01*
X16695Y-23449D01*
X16754Y-23449D01*
X17304Y-23449D01*
X17359Y-23426D01*
X17384Y-23401D01*
X17387Y-23407D01*
X17429Y-23449D01*
X17484Y-23472D01*
X17543Y-23472D01*
X18015Y-23472D01*
X18070Y-23449D01*
X18112Y-23407D01*
X18135Y-23352D01*
X18135Y-23293D01*
X18135Y-23647D01*
X18112Y-23592D01*
X18070Y-23550D01*
X18015Y-23527D01*
X17956Y-23527D01*
X17484Y-23527D01*
X17429Y-23550D01*
X17387Y-23592D01*
X17384Y-23598D01*
X17359Y-23573D01*
X17304Y-23550D01*
X17245Y-23550D01*
X16695Y-23550D01*
X16640Y-23573D01*
X16598Y-23615D01*
X16575Y-23670D01*
X16575Y-23729D01*
X16575Y-24079D01*
X16598Y-24134D01*
X16640Y-24176D01*
X16695Y-24199D01*
X16754Y-24199D01*
X16791Y-24199D01*
X16791Y-24222D01*
X16732Y-24222D01*
X16677Y-24245D01*
X16635Y-24287D01*
X16634Y-24291D01*
X16458Y-24291D01*
X16458Y-24250D01*
X16524Y-24184D01*
X16574Y-24064D01*
X16574Y-23935D01*
X16525Y-23816D01*
X16434Y-23725D01*
X16314Y-23675D01*
X16185Y-23675D01*
X16066Y-23724D01*
X16038Y-23753D01*
X16038Y-23587D01*
X16015Y-23532D01*
X15973Y-23490D01*
X15918Y-23468D01*
X15858Y-23467D01*
X15229Y-23467D01*
X15222Y-23471D01*
X15222Y-22456D01*
X15222Y-21984D01*
X15199Y-21929D01*
X15157Y-21887D01*
X15128Y-21874D01*
X15157Y-21862D01*
X15199Y-21820D01*
X15222Y-21765D01*
X15222Y-21706D01*
X15222Y-21234D01*
X15199Y-21179D01*
X15157Y-21137D01*
X15102Y-21114D01*
X15043Y-21114D01*
X14571Y-21114D01*
X14516Y-21137D01*
X14474Y-21179D01*
X14451Y-21234D01*
X14451Y-21293D01*
X14451Y-21765D01*
X14474Y-21820D01*
X14516Y-21862D01*
X14545Y-21875D01*
X14516Y-21887D01*
X14474Y-21929D01*
X14451Y-21984D01*
X14451Y-22043D01*
X14451Y-22515D01*
X14474Y-22570D01*
X14516Y-22612D01*
X14571Y-22635D01*
X14605Y-22635D01*
X14575Y-22665D01*
X14525Y-22785D01*
X14525Y-22914D01*
X14574Y-23033D01*
X14665Y-23124D01*
X14785Y-23174D01*
X14914Y-23174D01*
X15033Y-23125D01*
X15124Y-23034D01*
X15174Y-22914D01*
X15174Y-22785D01*
X15125Y-22666D01*
X15094Y-22635D01*
X15102Y-22635D01*
X15157Y-22612D01*
X15199Y-22570D01*
X15222Y-22515D01*
X15222Y-22456D01*
X15222Y-23471D01*
X15174Y-23490D01*
X15132Y-23532D01*
X15110Y-23587D01*
X15109Y-23647D01*
X15109Y-24472D01*
X15132Y-24527D01*
X15174Y-24569D01*
X15226Y-24590D01*
X15209Y-24630D01*
X15209Y-24690D01*
X15209Y-24847D01*
X15217Y-24866D01*
X15209Y-24886D01*
X15209Y-24946D01*
X15209Y-25103D01*
X15217Y-25122D01*
X15209Y-25141D01*
X15209Y-25201D01*
X15209Y-25358D01*
X15217Y-25377D01*
X15209Y-25396D01*
X15209Y-25456D01*
X15209Y-25613D01*
X15217Y-25632D01*
X15209Y-25652D01*
X15209Y-25712D01*
X15209Y-25869D01*
X15226Y-25909D01*
X15174Y-25930D01*
X15132Y-25972D01*
X15110Y-26027D01*
X15109Y-26087D01*
X15109Y-26912D01*
X15132Y-26967D01*
X15174Y-27009D01*
X15229Y-27031D01*
X15289Y-27032D01*
X15918Y-27032D01*
X15973Y-27009D01*
X16015Y-26967D01*
X16037Y-26912D01*
X16038Y-26852D01*
X16038Y-26146D01*
X16041Y-26150D01*
X16041Y-26250D01*
X16057Y-26329D01*
X16102Y-26397D01*
X16252Y-26547D01*
X16252Y-26547D01*
X16293Y-26574D01*
X16320Y-26592D01*
X16320Y-26592D01*
X16400Y-26608D01*
X16700Y-26608D01*
X16750Y-26598D01*
X16784Y-26605D01*
X16799Y-26608D01*
X16799Y-26608D01*
X16800Y-26608D01*
X16900Y-26608D01*
X16979Y-26592D01*
X17047Y-26547D01*
X17147Y-26447D01*
X17178Y-26401D01*
X17187Y-26401D01*
X17384Y-26401D01*
X17439Y-26378D01*
X17481Y-26336D01*
X17503Y-26281D01*
X17503Y-26274D01*
X17553Y-26241D01*
X17720Y-26074D01*
X17814Y-26074D01*
X17933Y-26025D01*
X18024Y-25934D01*
X18074Y-25814D01*
X18074Y-25685D01*
X18025Y-25566D01*
X17934Y-25475D01*
X17814Y-25425D01*
X17685Y-25425D01*
X17566Y-25474D01*
X17499Y-25541D01*
X17483Y-25541D01*
X17503Y-25493D01*
X17504Y-25433D01*
X17504Y-25118D01*
X17481Y-25063D01*
X17464Y-25047D01*
X17464Y-24728D01*
X17448Y-24648D01*
X17448Y-24648D01*
X17442Y-24639D01*
X17442Y-24639D01*
X17443Y-24598D01*
X17443Y-24342D01*
X17420Y-24287D01*
X17378Y-24245D01*
X17323Y-24222D01*
X17263Y-24222D01*
X17208Y-24222D01*
X17208Y-24199D01*
X17304Y-24199D01*
X17359Y-24176D01*
X17364Y-24171D01*
X17364Y-24178D01*
X17387Y-24233D01*
X17429Y-24275D01*
X17484Y-24298D01*
X17543Y-24298D01*
X17575Y-24298D01*
X17557Y-24342D01*
X17556Y-24401D01*
X17556Y-24657D01*
X17579Y-24712D01*
X17621Y-24754D01*
X17676Y-24777D01*
X17736Y-24777D01*
X17774Y-24777D01*
X17779Y-24801D01*
X17824Y-24869D01*
X17925Y-24970D01*
X17925Y-25064D01*
X17974Y-25183D01*
X18065Y-25274D01*
X18185Y-25324D01*
X18314Y-25324D01*
X18433Y-25275D01*
X18524Y-25184D01*
X18574Y-25064D01*
X18574Y-24935D01*
X18574Y-27630D01*
X17635Y-28569D01*
X17589Y-28550D01*
X17410Y-28550D01*
X17245Y-28618D01*
X17119Y-28745D01*
X17050Y-28910D01*
X17050Y-29089D01*
X17118Y-29254D01*
X17139Y-29275D01*
X16860Y-29275D01*
X16880Y-29254D01*
X16949Y-29089D01*
X16949Y-28910D01*
X16881Y-28745D01*
X16754Y-28619D01*
X16708Y-28599D01*
X16708Y-28449D01*
X16804Y-28449D01*
X16859Y-28426D01*
X16901Y-28384D01*
X16924Y-28329D01*
X16924Y-28270D01*
X16924Y-27920D01*
X16901Y-27865D01*
X16859Y-27823D01*
X16804Y-27800D01*
X16745Y-27800D01*
X16195Y-27800D01*
X16140Y-27823D01*
X16098Y-27865D01*
X16075Y-27920D01*
X16075Y-27979D01*
X16075Y-28329D01*
X16098Y-28384D01*
X16140Y-28426D01*
X16195Y-28449D01*
X16254Y-28449D01*
X16291Y-28449D01*
X16291Y-28599D01*
X16245Y-28618D01*
X16119Y-28745D01*
X16050Y-28910D01*
X16050Y-29089D01*
X16118Y-29254D01*
X16139Y-29275D01*
X15860Y-29275D01*
X15880Y-29254D01*
X15949Y-29089D01*
X15949Y-28910D01*
X15881Y-28745D01*
X15754Y-28619D01*
X15708Y-28599D01*
X15708Y-28449D01*
X15804Y-28449D01*
X15859Y-28426D01*
X15901Y-28384D01*
X15924Y-28329D01*
X15924Y-28270D01*
X15924Y-27920D01*
X15901Y-27865D01*
X15859Y-27823D01*
X15804Y-27800D01*
X15745Y-27800D01*
X15195Y-27800D01*
X15140Y-27823D01*
X15098Y-27865D01*
X15075Y-27920D01*
X15075Y-27979D01*
X15075Y-28329D01*
X15098Y-28384D01*
X15140Y-28426D01*
X15195Y-28449D01*
X15254Y-28449D01*
X15291Y-28449D01*
X15291Y-28599D01*
X15245Y-28618D01*
X15119Y-28745D01*
X15050Y-28910D01*
X15050Y-29089D01*
X15118Y-29254D01*
X15139Y-29275D01*
X14949Y-29275D01*
X14949Y-29270D01*
X14949Y-28670D01*
X14926Y-28615D01*
X14884Y-28573D01*
X14829Y-28550D01*
X14770Y-28550D01*
X14224Y-28550D01*
X14224Y-27249D01*
X14226Y-27249D01*
X14973Y-27249D01*
X15028Y-27226D01*
X15070Y-27184D01*
X15092Y-27129D01*
X15093Y-27069D01*
X15093Y-26362D01*
X15070Y-26307D01*
X15028Y-26265D01*
X14976Y-26244D01*
X15028Y-26222D01*
X15070Y-26180D01*
X15092Y-26125D01*
X15093Y-26066D01*
X15093Y-25318D01*
X15070Y-25263D01*
X15056Y-25249D01*
X15070Y-25236D01*
X15092Y-25181D01*
X15093Y-25121D01*
X15093Y-24374D01*
X15070Y-24319D01*
X15028Y-24277D01*
X14975Y-24255D01*
X15028Y-24234D01*
X15070Y-24192D01*
X15092Y-24137D01*
X15093Y-24077D01*
X15093Y-23370D01*
X15070Y-23315D01*
X15028Y-23273D01*
X14973Y-23251D01*
X14913Y-23250D01*
X14224Y-23250D01*
X14224Y-20360D01*
X14245Y-20380D01*
X14400Y-20445D01*
X14852Y-20897D01*
X14920Y-20942D01*
X15000Y-20958D01*
X15788Y-20958D01*
X15955Y-21125D01*
X15928Y-21114D01*
X15869Y-21114D01*
X15397Y-21114D01*
X15342Y-21137D01*
X15300Y-21179D01*
X15277Y-21234D01*
X15277Y-21293D01*
X15277Y-21765D01*
X15300Y-21820D01*
X15342Y-21862D01*
X15371Y-21875D01*
X15342Y-21887D01*
X15300Y-21929D01*
X15277Y-21984D01*
X15277Y-22043D01*
X15277Y-22515D01*
X15300Y-22570D01*
X15342Y-22612D01*
X15397Y-22635D01*
X15456Y-22635D01*
X15840Y-22635D01*
X15852Y-22647D01*
X15852Y-22647D01*
X15920Y-22692D01*
X15920Y-22692D01*
X16000Y-22708D01*
X17125Y-22708D01*
X17204Y-22692D01*
X17272Y-22647D01*
X17470Y-22449D01*
X17804Y-22449D01*
X17859Y-22426D01*
X17901Y-22384D01*
X17924Y-22329D01*
X17924Y-22270D01*
X17924Y-21958D01*
X18163Y-21958D01*
X18541Y-22336D01*
X18541Y-24000D01*
X18557Y-24079D01*
X18602Y-24147D01*
X19102Y-24647D01*
X19144Y-24675D01*
X18995Y-24675D01*
X18940Y-24698D01*
X18898Y-24740D01*
X18875Y-24795D01*
X18875Y-24854D01*
X18875Y-25104D01*
X18898Y-25159D01*
X18940Y-25201D01*
X18995Y-25224D01*
X19054Y-25224D01*
X19504Y-25224D01*
X19559Y-25201D01*
X19601Y-25159D01*
X19606Y-25147D01*
X19629Y-25142D01*
X19697Y-25097D01*
X19771Y-25023D01*
X20369Y-25023D01*
X20420Y-25044D01*
X20479Y-25044D01*
X21079Y-25044D01*
X21130Y-25023D01*
X21185Y-25023D01*
X21264Y-25007D01*
X21332Y-24962D01*
X21470Y-24824D01*
X21564Y-24824D01*
X21683Y-24775D01*
X21774Y-24684D01*
X21824Y-24564D01*
X21824Y-24435D01*
X21775Y-24316D01*
X21684Y-24225D01*
X21564Y-24175D01*
X21435Y-24175D01*
X21316Y-24224D01*
X21225Y-24315D01*
X21196Y-24383D01*
X21179Y-24342D01*
X21199Y-24294D01*
X21199Y-24235D01*
X21199Y-24075D01*
X21179Y-24027D01*
X21199Y-23979D01*
X21199Y-23920D01*
X21199Y-23760D01*
X21179Y-23712D01*
X21199Y-23664D01*
X21199Y-23605D01*
X21199Y-23445D01*
X21179Y-23397D01*
X21199Y-23349D01*
X21199Y-23290D01*
X21199Y-23130D01*
X21179Y-23082D01*
X21199Y-23034D01*
X21199Y-22975D01*
X21199Y-22815D01*
X21176Y-22760D01*
X21134Y-22718D01*
X21079Y-22695D01*
X21020Y-22695D01*
X20490Y-22695D01*
X20208Y-22413D01*
X20208Y-21000D01*
X20192Y-20920D01*
X20147Y-20852D01*
X19708Y-20413D01*
X19708Y-20400D01*
X19754Y-20381D01*
X19880Y-20254D01*
X19949Y-20089D01*
X19949Y-19910D01*
X19881Y-19745D01*
X19860Y-19724D01*
X20139Y-19724D01*
X20119Y-19745D01*
X20050Y-19910D01*
X20050Y-20089D01*
X20118Y-20254D01*
X20245Y-20380D01*
X20410Y-20449D01*
X20589Y-20449D01*
X20635Y-20430D01*
X20791Y-20586D01*
X20791Y-21500D01*
X20807Y-21579D01*
X20852Y-21647D01*
X21195Y-21990D01*
X21195Y-22579D01*
X21218Y-22634D01*
X21260Y-22676D01*
X21315Y-22699D01*
X21374Y-22699D01*
X21534Y-22699D01*
X21582Y-22679D01*
X21630Y-22699D01*
X21689Y-22699D01*
X21849Y-22699D01*
X21904Y-22676D01*
X21946Y-22634D01*
X21969Y-22579D01*
X21969Y-22520D01*
X21969Y-21920D01*
X21948Y-21869D01*
X21948Y-21760D01*
X21932Y-21680D01*
X21887Y-21612D01*
X21458Y-21183D01*
X21458Y-20449D01*
X21589Y-20449D01*
X21754Y-20381D01*
X21880Y-20254D01*
X21949Y-20089D01*
X21949Y-19910D01*
X21881Y-19745D01*
X21860Y-19724D01*
X22139Y-19724D01*
X22119Y-19745D01*
X22050Y-19910D01*
X22050Y-20089D01*
X22118Y-20254D01*
X22245Y-20380D01*
X22410Y-20449D01*
X22476Y-20449D01*
X22476Y-20634D01*
X22454Y-20625D01*
X22395Y-20625D01*
X22145Y-20625D01*
X22090Y-20648D01*
X22048Y-20690D01*
X22025Y-20745D01*
X22025Y-20804D01*
X22025Y-21254D01*
X22048Y-21309D01*
X22090Y-21351D01*
X22145Y-21374D01*
X22161Y-21374D01*
X22161Y-21869D01*
X22140Y-21920D01*
X22140Y-21979D01*
X22140Y-22579D01*
X22161Y-22630D01*
X22161Y-22679D01*
X22075Y-22765D01*
X22025Y-22885D01*
X22025Y-23014D01*
X22074Y-23133D01*
X22165Y-23224D01*
X22285Y-23274D01*
X22414Y-23274D01*
X22533Y-23225D01*
X22624Y-23134D01*
X22674Y-23014D01*
X22674Y-22885D01*
X22625Y-22766D01*
X22578Y-22719D01*
X22578Y-22699D01*
X22634Y-22699D01*
X22794Y-22699D01*
X22842Y-22679D01*
X22890Y-22699D01*
X22949Y-22699D01*
X23109Y-22699D01*
X23157Y-22679D01*
X23205Y-22699D01*
X23264Y-22699D01*
X23424Y-22699D01*
X23472Y-22679D01*
X23520Y-22699D01*
X23579Y-22699D01*
X23739Y-22699D01*
X23787Y-22679D01*
X23835Y-22699D01*
X23894Y-22699D01*
X24054Y-22699D01*
X24102Y-22679D01*
X24150Y-22699D01*
X24209Y-22699D01*
X24369Y-22699D01*
X24417Y-22679D01*
X24465Y-22699D01*
X24524Y-22699D01*
X24684Y-22699D01*
X24739Y-22676D01*
X24781Y-22634D01*
X24804Y-22579D01*
X24804Y-22520D01*
X24804Y-22458D01*
X27250Y-22458D01*
X27329Y-22442D01*
X27397Y-22397D01*
X28147Y-21647D01*
X28147Y-21647D01*
X28147Y-21647D01*
X28192Y-21579D01*
X28192Y-21579D01*
X28205Y-21515D01*
X28208Y-21500D01*
X28208Y-21500D01*
X28208Y-21500D01*
X28208Y-20586D01*
X28364Y-20430D01*
X28410Y-20449D01*
X28589Y-20449D01*
X28754Y-20381D01*
X28880Y-20254D01*
X28949Y-20089D01*
X28949Y-19910D01*
X28881Y-19745D01*
X28860Y-19724D01*
X29139Y-19724D01*
X29119Y-19745D01*
X29050Y-19910D01*
X29050Y-20089D01*
X29118Y-20254D01*
X29245Y-20380D01*
X29291Y-20400D01*
X29291Y-21163D01*
X27738Y-22716D01*
X25630Y-22716D01*
X25579Y-22695D01*
X25520Y-22695D01*
X24920Y-22695D01*
X24865Y-22718D01*
X24823Y-22760D01*
X24800Y-22815D01*
X24800Y-22874D01*
X24800Y-23034D01*
X24820Y-23082D01*
X24800Y-23130D01*
X24800Y-23189D01*
X24800Y-23349D01*
X24820Y-23397D01*
X24800Y-23445D01*
X24800Y-23504D01*
X24800Y-23664D01*
X24820Y-23712D01*
X24800Y-23760D01*
X24800Y-23819D01*
X24800Y-23979D01*
X24820Y-24027D01*
X24800Y-24075D01*
X24800Y-24134D01*
X24800Y-24294D01*
X24820Y-24342D01*
X24800Y-24390D01*
X24800Y-24449D01*
X24800Y-24606D01*
X24791Y-24606D01*
X24775Y-24566D01*
X24684Y-24475D01*
X24564Y-24425D01*
X24435Y-24425D01*
X24316Y-24474D01*
X24225Y-24565D01*
X24175Y-24685D01*
X24175Y-24814D01*
X24224Y-24933D01*
X24315Y-25024D01*
X24435Y-25074D01*
X24564Y-25074D01*
X24683Y-25025D01*
X24685Y-25023D01*
X24800Y-25023D01*
X24800Y-25079D01*
X24800Y-25239D01*
X24820Y-25287D01*
X24800Y-25335D01*
X24800Y-25394D01*
X24800Y-25554D01*
X24820Y-25602D01*
X24800Y-25650D01*
X24800Y-25709D01*
X24800Y-25869D01*
X24820Y-25917D01*
X24800Y-25965D01*
X24800Y-26024D01*
X24800Y-26184D01*
X24823Y-26239D01*
X24865Y-26281D01*
X24920Y-26304D01*
X24979Y-26304D01*
X25509Y-26304D01*
X25852Y-26647D01*
X25852Y-26647D01*
X25920Y-26692D01*
X25920Y-26692D01*
X26000Y-26708D01*
X28663Y-26708D01*
X28791Y-26836D01*
X28791Y-27413D01*
X28654Y-27550D01*
X28170Y-27550D01*
X28115Y-27573D01*
X28073Y-27615D01*
X28050Y-27670D01*
X28050Y-27729D01*
X28050Y-28329D01*
X28073Y-28384D01*
X28115Y-28426D01*
X28170Y-28449D01*
X28229Y-28449D01*
X28829Y-28449D01*
X28884Y-28426D01*
X28926Y-28384D01*
X28949Y-28329D01*
X28949Y-28270D01*
X28949Y-27845D01*
X29147Y-27647D01*
X29192Y-27579D01*
X29208Y-27500D01*
X29208Y-27344D01*
X29245Y-27380D01*
X29410Y-27449D01*
X29589Y-27449D01*
X29754Y-27381D01*
X29791Y-27344D01*
X29791Y-27500D01*
X29807Y-27579D01*
X29852Y-27647D01*
X30069Y-27864D01*
X30050Y-27910D01*
X30050Y-28089D01*
X30118Y-28254D01*
X30245Y-28380D01*
X30410Y-28449D01*
X30589Y-28449D01*
X30754Y-28381D01*
X30880Y-28254D01*
X30949Y-28089D01*
X30949Y-27910D01*
X30881Y-27745D01*
X30754Y-27619D01*
X30589Y-27550D01*
X30410Y-27550D01*
X30364Y-27569D01*
X30208Y-27413D01*
X30208Y-27344D01*
X30245Y-27380D01*
X30410Y-27449D01*
X30589Y-27449D01*
X30754Y-27381D01*
X30880Y-27254D01*
X30949Y-27089D01*
X30949Y-26910D01*
X30881Y-26745D01*
X30754Y-26619D01*
X30589Y-26550D01*
X30410Y-26550D01*
X30245Y-26618D01*
X30208Y-26655D01*
X30208Y-26500D01*
X30192Y-26420D01*
X30192Y-26420D01*
X30147Y-26352D01*
X30147Y-26352D01*
X29994Y-26199D01*
X30054Y-26199D01*
X30109Y-26176D01*
X30151Y-26134D01*
X30172Y-26083D01*
X31570Y-26083D01*
X31570Y-26085D01*
X31635Y-26242D01*
X31756Y-26363D01*
X31914Y-26429D01*
X32085Y-26429D01*
X32242Y-26364D01*
X32363Y-26243D01*
X32429Y-26085D01*
X32429Y-25914D01*
X32364Y-25757D01*
X32243Y-25636D01*
X32085Y-25570D01*
X31914Y-25570D01*
X31757Y-25635D01*
X31726Y-25666D01*
X30869Y-25666D01*
X30901Y-25634D01*
X30922Y-25583D01*
X31125Y-25583D01*
X31204Y-25567D01*
X31272Y-25522D01*
X31647Y-25147D01*
X31647Y-25147D01*
X31647Y-25147D01*
X31674Y-25106D01*
X31692Y-25079D01*
X31692Y-25079D01*
X31708Y-25000D01*
X31708Y-24586D01*
X31879Y-24415D01*
X31914Y-24429D01*
X32085Y-24429D01*
X32242Y-24364D01*
X32363Y-24243D01*
X32429Y-24085D01*
X32429Y-23914D01*
X32364Y-23757D01*
X32243Y-23636D01*
X32085Y-23570D01*
X31914Y-23570D01*
X31757Y-23635D01*
X31636Y-23756D01*
X31570Y-23914D01*
X31570Y-24085D01*
X31584Y-24120D01*
X31352Y-24352D01*
X31307Y-24420D01*
X31291Y-24500D01*
X31291Y-24913D01*
X31038Y-25166D01*
X30922Y-25166D01*
X30901Y-25115D01*
X30859Y-25073D01*
X30804Y-25050D01*
X30745Y-25050D01*
X30369Y-25050D01*
X30470Y-24949D01*
X30804Y-24949D01*
X30859Y-24926D01*
X30901Y-24884D01*
X30924Y-24829D01*
X30924Y-24770D01*
X30924Y-24420D01*
X30901Y-24365D01*
X30859Y-24323D01*
X30804Y-24300D01*
X30745Y-24300D01*
X30708Y-24300D01*
X30708Y-24250D01*
X30774Y-24184D01*
X30824Y-24064D01*
X30824Y-23935D01*
X30775Y-23816D01*
X30684Y-23725D01*
X30564Y-23675D01*
X30435Y-23675D01*
X30316Y-23724D01*
X30225Y-23815D01*
X30175Y-23935D01*
X30175Y-24064D01*
X30224Y-24183D01*
X30291Y-24250D01*
X30291Y-24300D01*
X30195Y-24300D01*
X30140Y-24323D01*
X30098Y-24365D01*
X30075Y-24420D01*
X30075Y-24479D01*
X30075Y-24754D01*
X30038Y-24791D01*
X30000Y-24791D01*
X29999Y-24791D01*
X29984Y-24794D01*
X29954Y-24800D01*
X29449Y-24800D01*
X29449Y-24745D01*
X29449Y-24195D01*
X29426Y-24140D01*
X29384Y-24098D01*
X29329Y-24075D01*
X29270Y-24075D01*
X28969Y-24075D01*
X31836Y-21208D01*
X32500Y-21208D01*
X32579Y-21192D01*
X32647Y-21147D01*
X33345Y-20449D01*
X33775Y-20449D01*
X33775Y-21705D01*
X33765Y-21701D01*
X33708Y-21701D01*
X33708Y-21625D01*
X33708Y-21624D01*
X33708Y-21624D01*
X33705Y-21609D01*
X33699Y-21579D01*
X33699Y-21579D01*
X33699Y-21195D01*
X33676Y-21140D01*
X33634Y-21098D01*
X33579Y-21075D01*
X33520Y-21075D01*
X33170Y-21075D01*
X33115Y-21098D01*
X33073Y-21140D01*
X33050Y-21195D01*
X33050Y-21254D01*
X33050Y-21804D01*
X33073Y-21859D01*
X33114Y-21900D01*
X33114Y-22352D01*
X33137Y-22407D01*
X33179Y-22449D01*
X33234Y-22472D01*
X33293Y-22472D01*
X33765Y-22472D01*
X33775Y-22468D01*
X33775Y-22531D01*
X33765Y-22527D01*
X33706Y-22527D01*
X33234Y-22527D01*
X33179Y-22550D01*
X33137Y-22592D01*
X33114Y-22647D01*
X33114Y-22706D01*
X33114Y-23178D01*
X33137Y-23233D01*
X33179Y-23275D01*
X33234Y-23298D01*
X33242Y-23298D01*
X33225Y-23315D01*
X33175Y-23435D01*
X33175Y-23564D01*
X33224Y-23683D01*
X33315Y-23774D01*
X33435Y-23824D01*
X33564Y-23824D01*
X33683Y-23775D01*
X33774Y-23684D01*
X33775Y-23682D01*
X33775Y-27800D01*
X33775Y-27800D01*
G37*
G54D31*
X33775Y-27800D02*
X33745Y-27800D01*
X33195Y-27800D01*
X33140Y-27823D01*
X33098Y-27865D01*
X33075Y-27920D01*
X33075Y-27979D01*
X33075Y-28329D01*
X33098Y-28384D01*
X33140Y-28426D01*
X33195Y-28449D01*
X33254Y-28449D01*
X33291Y-28449D01*
X33291Y-28599D01*
X33245Y-28618D01*
X33119Y-28745D01*
X33050Y-28910D01*
X33050Y-29089D01*
X33118Y-29254D01*
X33139Y-29275D01*
X32860Y-29275D01*
X32880Y-29254D01*
X32949Y-29089D01*
X32949Y-28910D01*
X32881Y-28745D01*
X32754Y-28619D01*
X32589Y-28550D01*
X32410Y-28550D01*
X32245Y-28618D01*
X32119Y-28745D01*
X32050Y-28910D01*
X32050Y-29089D01*
X32118Y-29254D01*
X32139Y-29275D01*
X31860Y-29275D01*
X31880Y-29254D01*
X31949Y-29089D01*
X31949Y-28910D01*
X31881Y-28745D01*
X31754Y-28619D01*
X31589Y-28550D01*
X31410Y-28550D01*
X31245Y-28618D01*
X31119Y-28745D01*
X31050Y-28910D01*
X31050Y-29089D01*
X31118Y-29254D01*
X31139Y-29275D01*
X30860Y-29275D01*
X30880Y-29254D01*
X30949Y-29089D01*
X30949Y-28910D01*
X30881Y-28745D01*
X30754Y-28619D01*
X30589Y-28550D01*
X30410Y-28550D01*
X30245Y-28618D01*
X30119Y-28745D01*
X30050Y-28910D01*
X30050Y-29089D01*
X30118Y-29254D01*
X30139Y-29275D01*
X29860Y-29275D01*
X29880Y-29254D01*
X29949Y-29089D01*
X29949Y-28910D01*
X29949Y-27910D01*
X29881Y-27745D01*
X29754Y-27619D01*
X29589Y-27550D01*
X29410Y-27550D01*
X29245Y-27618D01*
X29119Y-27745D01*
X29050Y-27910D01*
X29050Y-28089D01*
X29118Y-28254D01*
X29245Y-28380D01*
X29410Y-28449D01*
X29589Y-28449D01*
X29754Y-28381D01*
X29880Y-28254D01*
X29949Y-28089D01*
X29949Y-27910D01*
X29949Y-28910D01*
X29881Y-28745D01*
X29754Y-28619D01*
X29589Y-28550D01*
X29410Y-28550D01*
X29245Y-28618D01*
X29119Y-28745D01*
X29050Y-28910D01*
X29050Y-29089D01*
X29118Y-29254D01*
X29139Y-29275D01*
X28860Y-29275D01*
X28880Y-29254D01*
X28949Y-29089D01*
X28949Y-28910D01*
X28881Y-28745D01*
X28754Y-28619D01*
X28589Y-28550D01*
X28410Y-28550D01*
X28245Y-28618D01*
X28119Y-28745D01*
X28050Y-28910D01*
X28050Y-29089D01*
X28118Y-29254D01*
X28139Y-29275D01*
X27860Y-29275D01*
X27880Y-29254D01*
X27949Y-29089D01*
X27949Y-28910D01*
X27881Y-28745D01*
X27754Y-28619D01*
X27589Y-28550D01*
X27410Y-28550D01*
X27245Y-28618D01*
X27119Y-28745D01*
X27050Y-28910D01*
X27050Y-29089D01*
X27118Y-29254D01*
X27139Y-29275D01*
X26860Y-29275D01*
X26880Y-29254D01*
X26949Y-29089D01*
X26949Y-28910D01*
X26881Y-28745D01*
X26754Y-28619D01*
X26589Y-28550D01*
X26410Y-28550D01*
X26324Y-28586D01*
X26324Y-27435D01*
X26275Y-27316D01*
X26184Y-27225D01*
X26064Y-27175D01*
X25935Y-27175D01*
X25816Y-27224D01*
X25792Y-27248D01*
X25147Y-26602D01*
X25079Y-26557D01*
X25000Y-26541D01*
X24804Y-26541D01*
X24804Y-26420D01*
X24781Y-26365D01*
X24739Y-26323D01*
X24684Y-26300D01*
X24625Y-26300D01*
X24574Y-26300D01*
X24574Y-26185D01*
X24525Y-26066D01*
X24434Y-25975D01*
X24314Y-25925D01*
X24185Y-25925D01*
X24066Y-25974D01*
X23975Y-26065D01*
X23925Y-26185D01*
X23925Y-26314D01*
X23974Y-26433D01*
X24030Y-26489D01*
X24030Y-27079D01*
X24053Y-27134D01*
X24095Y-27176D01*
X24150Y-27199D01*
X24209Y-27199D01*
X24369Y-27199D01*
X24417Y-27179D01*
X24465Y-27199D01*
X24524Y-27199D01*
X24684Y-27199D01*
X24739Y-27176D01*
X24781Y-27134D01*
X24804Y-27079D01*
X24804Y-27020D01*
X24804Y-26958D01*
X24913Y-26958D01*
X25602Y-27647D01*
X25602Y-27647D01*
X25670Y-27692D01*
X25670Y-27692D01*
X25734Y-27705D01*
X25749Y-27708D01*
X25749Y-27708D01*
X25815Y-27774D01*
X25935Y-27824D01*
X26064Y-27824D01*
X26183Y-27775D01*
X26274Y-27684D01*
X26324Y-27564D01*
X26324Y-27435D01*
X26324Y-28586D01*
X26245Y-28618D01*
X26119Y-28745D01*
X26050Y-28910D01*
X26050Y-29089D01*
X26118Y-29254D01*
X26139Y-29275D01*
X25860Y-29275D01*
X25880Y-29254D01*
X25949Y-29089D01*
X25949Y-28910D01*
X25881Y-28745D01*
X25754Y-28619D01*
X25589Y-28550D01*
X25410Y-28550D01*
X25245Y-28618D01*
X25119Y-28745D01*
X25050Y-28910D01*
X25050Y-29089D01*
X25118Y-29254D01*
X25139Y-29275D01*
X24860Y-29275D01*
X24880Y-29254D01*
X24949Y-29089D01*
X24949Y-28910D01*
X24881Y-28745D01*
X24754Y-28619D01*
X24589Y-28550D01*
X24410Y-28550D01*
X24245Y-28618D01*
X24119Y-28745D01*
X24050Y-28910D01*
X24050Y-29089D01*
X24118Y-29254D01*
X24139Y-29275D01*
X23860Y-29275D01*
X23880Y-29254D01*
X23949Y-29089D01*
X23949Y-28910D01*
X23881Y-28745D01*
X23754Y-28619D01*
X23589Y-28550D01*
X23410Y-28550D01*
X23245Y-28618D01*
X23204Y-28659D01*
X22822Y-28277D01*
X22935Y-28324D01*
X23064Y-28324D01*
X23183Y-28275D01*
X23274Y-28184D01*
X23324Y-28064D01*
X23324Y-27935D01*
X23278Y-27824D01*
X23314Y-27824D01*
X23425Y-27778D01*
X23425Y-28004D01*
X23448Y-28059D01*
X23490Y-28101D01*
X23545Y-28124D01*
X23604Y-28124D01*
X23854Y-28124D01*
X23909Y-28101D01*
X23951Y-28059D01*
X23974Y-28004D01*
X23974Y-27945D01*
X23974Y-27495D01*
X23951Y-27440D01*
X23909Y-27398D01*
X23854Y-27375D01*
X23838Y-27375D01*
X23838Y-27130D01*
X23859Y-27079D01*
X23859Y-27020D01*
X23859Y-26420D01*
X23838Y-26369D01*
X23838Y-25870D01*
X23924Y-25784D01*
X23974Y-25664D01*
X23974Y-25535D01*
X23925Y-25416D01*
X23834Y-25325D01*
X23714Y-25275D01*
X23585Y-25275D01*
X23466Y-25324D01*
X23375Y-25415D01*
X23325Y-25535D01*
X23325Y-25664D01*
X23333Y-25683D01*
X23314Y-25675D01*
X23185Y-25675D01*
X23066Y-25724D01*
X22975Y-25815D01*
X22925Y-25935D01*
X22925Y-26064D01*
X22974Y-26183D01*
X23065Y-26274D01*
X23106Y-26291D01*
X23106Y-26300D01*
X23050Y-26300D01*
X22893Y-26300D01*
X22893Y-26185D01*
X22877Y-26105D01*
X22877Y-26105D01*
X22832Y-26037D01*
X22832Y-26037D01*
X22574Y-25779D01*
X22574Y-25685D01*
X22525Y-25566D01*
X22434Y-25475D01*
X22314Y-25425D01*
X22278Y-25425D01*
X22324Y-25314D01*
X22324Y-25185D01*
X22275Y-25066D01*
X22184Y-24975D01*
X22064Y-24925D01*
X21935Y-24925D01*
X21816Y-24974D01*
X21725Y-25065D01*
X21675Y-25185D01*
X21675Y-25279D01*
X21602Y-25352D01*
X21557Y-25420D01*
X21541Y-25500D01*
X21541Y-25750D01*
X21557Y-25829D01*
X21602Y-25897D01*
X22005Y-26300D01*
X21945Y-26300D01*
X21897Y-26320D01*
X21849Y-26300D01*
X21790Y-26300D01*
X21630Y-26300D01*
X21582Y-26320D01*
X21534Y-26300D01*
X21475Y-26300D01*
X21315Y-26300D01*
X21260Y-26323D01*
X21218Y-26365D01*
X21195Y-26420D01*
X21195Y-26479D01*
X21195Y-27079D01*
X21216Y-27130D01*
X21216Y-27988D01*
X20635Y-28569D01*
X20589Y-28550D01*
X20410Y-28550D01*
X20245Y-28618D01*
X20119Y-28745D01*
X20050Y-28910D01*
X20050Y-29089D01*
X20118Y-29254D01*
X20139Y-29275D01*
X19860Y-29275D01*
X19880Y-29254D01*
X19949Y-29089D01*
X19949Y-28910D01*
X19930Y-28864D01*
X20897Y-27897D01*
X20942Y-27829D01*
X20958Y-27750D01*
X20958Y-26304D01*
X21079Y-26304D01*
X21134Y-26281D01*
X21176Y-26239D01*
X21199Y-26184D01*
X21199Y-26125D01*
X21199Y-25965D01*
X21179Y-25917D01*
X21199Y-25869D01*
X21199Y-25810D01*
X21199Y-25650D01*
X21179Y-25602D01*
X21199Y-25554D01*
X21199Y-25495D01*
X21199Y-25335D01*
X21176Y-25280D01*
X21134Y-25238D01*
X21079Y-25215D01*
X21020Y-25215D01*
X20420Y-25215D01*
X20369Y-25236D01*
X20055Y-25236D01*
X20054Y-25236D01*
X20039Y-25239D01*
X19975Y-25252D01*
X19907Y-25297D01*
X19907Y-25297D01*
X19352Y-25852D01*
X19307Y-25920D01*
X19291Y-26000D01*
X19291Y-26913D01*
X18574Y-27630D01*
X18574Y-24935D01*
X18525Y-24816D01*
X18434Y-24725D01*
X18370Y-24698D01*
X18386Y-24657D01*
X18387Y-24598D01*
X18387Y-24342D01*
X18364Y-24287D01*
X18322Y-24245D01*
X18267Y-24222D01*
X18207Y-24222D01*
X18180Y-24222D01*
X18180Y-24222D01*
X18180Y-24221D01*
X18180Y-24221D01*
X18177Y-24206D01*
X18164Y-24142D01*
X18164Y-24142D01*
X18135Y-24098D01*
X18135Y-24098D01*
X18135Y-23647D01*
X18135Y-23293D01*
X18135Y-22821D01*
X18112Y-22766D01*
X18070Y-22724D01*
X18015Y-22701D01*
X17956Y-22701D01*
X17484Y-22701D01*
X17429Y-22724D01*
X17387Y-22766D01*
X17364Y-22821D01*
X17364Y-22828D01*
X17359Y-22823D01*
X17304Y-22800D01*
X17245Y-22800D01*
X16695Y-22800D01*
X16640Y-22823D01*
X16598Y-22865D01*
X16575Y-22920D01*
X16575Y-22979D01*
X16575Y-23329D01*
X16598Y-23384D01*
X16640Y-23426D01*
X16695Y-23449D01*
X16754Y-23449D01*
X17304Y-23449D01*
X17359Y-23426D01*
X17384Y-23401D01*
X17387Y-23407D01*
X17429Y-23449D01*
X17484Y-23472D01*
X17543Y-23472D01*
X18015Y-23472D01*
X18070Y-23449D01*
X18112Y-23407D01*
X18135Y-23352D01*
X18135Y-23293D01*
X18135Y-23647D01*
X18112Y-23592D01*
X18070Y-23550D01*
X18015Y-23527D01*
X17956Y-23527D01*
X17484Y-23527D01*
X17429Y-23550D01*
X17387Y-23592D01*
X17384Y-23598D01*
X17359Y-23573D01*
X17304Y-23550D01*
X17245Y-23550D01*
X16695Y-23550D01*
X16640Y-23573D01*
X16598Y-23615D01*
X16575Y-23670D01*
X16575Y-23729D01*
X16575Y-24079D01*
X16598Y-24134D01*
X16640Y-24176D01*
X16695Y-24199D01*
X16754Y-24199D01*
X16791Y-24199D01*
X16791Y-24222D01*
X16732Y-24222D01*
X16677Y-24245D01*
X16635Y-24287D01*
X16634Y-24291D01*
X16458Y-24291D01*
X16458Y-24250D01*
X16524Y-24184D01*
X16574Y-24064D01*
X16574Y-23935D01*
X16525Y-23816D01*
X16434Y-23725D01*
X16314Y-23675D01*
X16185Y-23675D01*
X16066Y-23724D01*
X16038Y-23753D01*
X16038Y-23587D01*
X16015Y-23532D01*
X15973Y-23490D01*
X15918Y-23468D01*
X15858Y-23467D01*
X15229Y-23467D01*
X15222Y-23471D01*
X15222Y-22456D01*
X15222Y-21984D01*
X15199Y-21929D01*
X15157Y-21887D01*
X15128Y-21874D01*
X15157Y-21862D01*
X15199Y-21820D01*
X15222Y-21765D01*
X15222Y-21706D01*
X15222Y-21234D01*
X15199Y-21179D01*
X15157Y-21137D01*
X15102Y-21114D01*
X15043Y-21114D01*
X14571Y-21114D01*
X14516Y-21137D01*
X14474Y-21179D01*
X14451Y-21234D01*
X14451Y-21293D01*
X14451Y-21765D01*
X14474Y-21820D01*
X14516Y-21862D01*
X14545Y-21875D01*
X14516Y-21887D01*
X14474Y-21929D01*
X14451Y-21984D01*
X14451Y-22043D01*
X14451Y-22515D01*
X14474Y-22570D01*
X14516Y-22612D01*
X14571Y-22635D01*
X14605Y-22635D01*
X14575Y-22665D01*
X14525Y-22785D01*
X14525Y-22914D01*
X14574Y-23033D01*
X14665Y-23124D01*
X14785Y-23174D01*
X14914Y-23174D01*
X15033Y-23125D01*
X15124Y-23034D01*
X15174Y-22914D01*
X15174Y-22785D01*
X15125Y-22666D01*
X15094Y-22635D01*
X15102Y-22635D01*
X15157Y-22612D01*
X15199Y-22570D01*
X15222Y-22515D01*
X15222Y-22456D01*
X15222Y-23471D01*
X15174Y-23490D01*
X15132Y-23532D01*
X15110Y-23587D01*
X15109Y-23647D01*
X15109Y-24472D01*
X15132Y-24527D01*
X15174Y-24569D01*
X15226Y-24590D01*
X15209Y-24630D01*
X15209Y-24690D01*
X15209Y-24847D01*
X15217Y-24866D01*
X15209Y-24886D01*
X15209Y-24946D01*
X15209Y-25103D01*
X15217Y-25122D01*
X15209Y-25141D01*
X15209Y-25201D01*
X15209Y-25358D01*
X15217Y-25377D01*
X15209Y-25396D01*
X15209Y-25456D01*
X15209Y-25613D01*
X15217Y-25632D01*
X15209Y-25652D01*
X15209Y-25712D01*
X15209Y-25869D01*
X15226Y-25909D01*
X15174Y-25930D01*
X15132Y-25972D01*
X15110Y-26027D01*
X15109Y-26087D01*
X15109Y-26912D01*
X15132Y-26967D01*
X15174Y-27009D01*
X15229Y-27031D01*
X15289Y-27032D01*
X15918Y-27032D01*
X15973Y-27009D01*
X16015Y-26967D01*
X16037Y-26912D01*
X16038Y-26852D01*
X16038Y-26146D01*
X16041Y-26150D01*
X16041Y-26250D01*
X16057Y-26329D01*
X16102Y-26397D01*
X16252Y-26547D01*
X16252Y-26547D01*
X16293Y-26574D01*
X16320Y-26592D01*
X16320Y-26592D01*
X16400Y-26608D01*
X16700Y-26608D01*
X16750Y-26598D01*
X16784Y-26605D01*
X16799Y-26608D01*
X16799Y-26608D01*
X16800Y-26608D01*
X16900Y-26608D01*
X16979Y-26592D01*
X17047Y-26547D01*
X17147Y-26447D01*
X17178Y-26401D01*
X17187Y-26401D01*
X17384Y-26401D01*
X17439Y-26378D01*
X17481Y-26336D01*
X17503Y-26281D01*
X17503Y-26274D01*
X17553Y-26241D01*
X17720Y-26074D01*
X17814Y-26074D01*
X17933Y-26025D01*
X18024Y-25934D01*
X18074Y-25814D01*
X18074Y-25685D01*
X18025Y-25566D01*
X17934Y-25475D01*
X17814Y-25425D01*
X17685Y-25425D01*
X17566Y-25474D01*
X17499Y-25541D01*
X17483Y-25541D01*
X17503Y-25493D01*
X17504Y-25433D01*
X17504Y-25118D01*
X17481Y-25063D01*
X17464Y-25047D01*
X17464Y-24728D01*
X17448Y-24648D01*
X17448Y-24648D01*
X17442Y-24639D01*
X17442Y-24639D01*
X17443Y-24598D01*
X17443Y-24342D01*
X17420Y-24287D01*
X17378Y-24245D01*
X17323Y-24222D01*
X17263Y-24222D01*
X17208Y-24222D01*
X17208Y-24199D01*
X17304Y-24199D01*
X17359Y-24176D01*
X17364Y-24171D01*
X17364Y-24178D01*
X17387Y-24233D01*
X17429Y-24275D01*
X17484Y-24298D01*
X17543Y-24298D01*
X17575Y-24298D01*
X17557Y-24342D01*
X17556Y-24401D01*
X17556Y-24657D01*
X17579Y-24712D01*
X17621Y-24754D01*
X17676Y-24777D01*
X17736Y-24777D01*
X17774Y-24777D01*
X17779Y-24801D01*
X17824Y-24869D01*
X17925Y-24970D01*
X17925Y-25064D01*
X17974Y-25183D01*
X18065Y-25274D01*
X18185Y-25324D01*
X18314Y-25324D01*
X18433Y-25275D01*
X18524Y-25184D01*
X18574Y-25064D01*
X18574Y-24935D01*
X18574Y-27630D01*
X17635Y-28569D01*
X17589Y-28550D01*
X17410Y-28550D01*
X17245Y-28618D01*
X17119Y-28745D01*
X17050Y-28910D01*
X17050Y-29089D01*
X17118Y-29254D01*
X17139Y-29275D01*
X16860Y-29275D01*
X16880Y-29254D01*
X16949Y-29089D01*
X16949Y-28910D01*
X16881Y-28745D01*
X16754Y-28619D01*
X16708Y-28599D01*
X16708Y-28449D01*
X16804Y-28449D01*
X16859Y-28426D01*
X16901Y-28384D01*
X16924Y-28329D01*
X16924Y-28270D01*
X16924Y-27920D01*
X16901Y-27865D01*
X16859Y-27823D01*
X16804Y-27800D01*
X16745Y-27800D01*
X16195Y-27800D01*
X16140Y-27823D01*
X16098Y-27865D01*
X16075Y-27920D01*
X16075Y-27979D01*
X16075Y-28329D01*
X16098Y-28384D01*
X16140Y-28426D01*
X16195Y-28449D01*
X16254Y-28449D01*
X16291Y-28449D01*
X16291Y-28599D01*
X16245Y-28618D01*
X16119Y-28745D01*
X16050Y-28910D01*
X16050Y-29089D01*
X16118Y-29254D01*
X16139Y-29275D01*
X15860Y-29275D01*
X15880Y-29254D01*
X15949Y-29089D01*
X15949Y-28910D01*
X15881Y-28745D01*
X15754Y-28619D01*
X15708Y-28599D01*
X15708Y-28449D01*
X15804Y-28449D01*
X15859Y-28426D01*
X15901Y-28384D01*
X15924Y-28329D01*
X15924Y-28270D01*
X15924Y-27920D01*
X15901Y-27865D01*
X15859Y-27823D01*
X15804Y-27800D01*
X15745Y-27800D01*
X15195Y-27800D01*
X15140Y-27823D01*
X15098Y-27865D01*
X15075Y-27920D01*
X15075Y-27979D01*
X15075Y-28329D01*
X15098Y-28384D01*
X15140Y-28426D01*
X15195Y-28449D01*
X15254Y-28449D01*
X15291Y-28449D01*
X15291Y-28599D01*
X15245Y-28618D01*
X15119Y-28745D01*
X15050Y-28910D01*
X15050Y-29089D01*
X15118Y-29254D01*
X15139Y-29275D01*
X14949Y-29275D01*
X14949Y-29270D01*
X14949Y-28670D01*
X14926Y-28615D01*
X14884Y-28573D01*
X14829Y-28550D01*
X14770Y-28550D01*
X14224Y-28550D01*
X14224Y-27249D01*
X14226Y-27249D01*
X14973Y-27249D01*
X15028Y-27226D01*
X15070Y-27184D01*
X15092Y-27129D01*
X15093Y-27069D01*
X15093Y-26362D01*
X15070Y-26307D01*
X15028Y-26265D01*
X14976Y-26244D01*
X15028Y-26222D01*
X15070Y-26180D01*
X15092Y-26125D01*
X15093Y-26066D01*
X15093Y-25318D01*
X15070Y-25263D01*
X15056Y-25249D01*
X15070Y-25236D01*
X15092Y-25181D01*
X15093Y-25121D01*
X15093Y-24374D01*
X15070Y-24319D01*
X15028Y-24277D01*
X14975Y-24255D01*
X15028Y-24234D01*
X15070Y-24192D01*
X15092Y-24137D01*
X15093Y-24077D01*
X15093Y-23370D01*
X15070Y-23315D01*
X15028Y-23273D01*
X14973Y-23251D01*
X14913Y-23250D01*
X14224Y-23250D01*
X14224Y-20360D01*
X14245Y-20380D01*
X14400Y-20445D01*
X14852Y-20897D01*
X14920Y-20942D01*
X15000Y-20958D01*
X15788Y-20958D01*
X15955Y-21125D01*
X15928Y-21114D01*
X15869Y-21114D01*
X15397Y-21114D01*
X15342Y-21137D01*
X15300Y-21179D01*
X15277Y-21234D01*
X15277Y-21293D01*
X15277Y-21765D01*
X15300Y-21820D01*
X15342Y-21862D01*
X15371Y-21875D01*
X15342Y-21887D01*
X15300Y-21929D01*
X15277Y-21984D01*
X15277Y-22043D01*
X15277Y-22515D01*
X15300Y-22570D01*
X15342Y-22612D01*
X15397Y-22635D01*
X15456Y-22635D01*
X15840Y-22635D01*
X15852Y-22647D01*
X15852Y-22647D01*
X15920Y-22692D01*
X15920Y-22692D01*
X16000Y-22708D01*
X17125Y-22708D01*
X17204Y-22692D01*
X17272Y-22647D01*
X17470Y-22449D01*
X17804Y-22449D01*
X17859Y-22426D01*
X17901Y-22384D01*
X17924Y-22329D01*
X17924Y-22270D01*
X17924Y-21958D01*
X18163Y-21958D01*
X18541Y-22336D01*
X18541Y-24000D01*
X18557Y-24079D01*
X18602Y-24147D01*
X19102Y-24647D01*
X19144Y-24675D01*
X18995Y-24675D01*
X18940Y-24698D01*
X18898Y-24740D01*
X18875Y-24795D01*
X18875Y-24854D01*
X18875Y-25104D01*
X18898Y-25159D01*
X18940Y-25201D01*
X18995Y-25224D01*
X19054Y-25224D01*
X19504Y-25224D01*
X19559Y-25201D01*
X19601Y-25159D01*
X19606Y-25147D01*
X19629Y-25142D01*
X19697Y-25097D01*
X19771Y-25023D01*
X20369Y-25023D01*
X20420Y-25044D01*
X20479Y-25044D01*
X21079Y-25044D01*
X21130Y-25023D01*
X21185Y-25023D01*
X21264Y-25007D01*
X21332Y-24962D01*
X21470Y-24824D01*
X21564Y-24824D01*
X21683Y-24775D01*
X21774Y-24684D01*
X21824Y-24564D01*
X21824Y-24435D01*
X21775Y-24316D01*
X21684Y-24225D01*
X21564Y-24175D01*
X21435Y-24175D01*
X21316Y-24224D01*
X21225Y-24315D01*
X21196Y-24383D01*
X21179Y-24342D01*
X21199Y-24294D01*
X21199Y-24235D01*
X21199Y-24075D01*
X21179Y-24027D01*
X21199Y-23979D01*
X21199Y-23920D01*
X21199Y-23760D01*
X21179Y-23712D01*
X21199Y-23664D01*
X21199Y-23605D01*
X21199Y-23445D01*
X21179Y-23397D01*
X21199Y-23349D01*
X21199Y-23290D01*
X21199Y-23130D01*
X21179Y-23082D01*
X21199Y-23034D01*
X21199Y-22975D01*
X21199Y-22815D01*
X21176Y-22760D01*
X21134Y-22718D01*
X21079Y-22695D01*
X21020Y-22695D01*
X20490Y-22695D01*
X20208Y-22413D01*
X20208Y-21000D01*
X20192Y-20920D01*
X20147Y-20852D01*
X19708Y-20413D01*
X19708Y-20400D01*
X19754Y-20381D01*
X19880Y-20254D01*
X19949Y-20089D01*
X19949Y-19910D01*
X19881Y-19745D01*
X19860Y-19724D01*
X20139Y-19724D01*
X20119Y-19745D01*
X20050Y-19910D01*
X20050Y-20089D01*
X20118Y-20254D01*
X20245Y-20380D01*
X20410Y-20449D01*
X20589Y-20449D01*
X20635Y-20430D01*
X20791Y-20586D01*
X20791Y-21500D01*
X20807Y-21579D01*
X20852Y-21647D01*
X21195Y-21990D01*
X21195Y-22579D01*
X21218Y-22634D01*
X21260Y-22676D01*
X21315Y-22699D01*
X21374Y-22699D01*
X21534Y-22699D01*
X21582Y-22679D01*
X21630Y-22699D01*
X21689Y-22699D01*
X21849Y-22699D01*
X21904Y-22676D01*
X21946Y-22634D01*
X21969Y-22579D01*
X21969Y-22520D01*
X21969Y-21920D01*
X21948Y-21869D01*
X21948Y-21760D01*
X21932Y-21680D01*
X21887Y-21612D01*
X21458Y-21183D01*
X21458Y-20449D01*
X21589Y-20449D01*
X21754Y-20381D01*
X21880Y-20254D01*
X21949Y-20089D01*
X21949Y-19910D01*
X21881Y-19745D01*
X21860Y-19724D01*
X22139Y-19724D01*
X22119Y-19745D01*
X22050Y-19910D01*
X22050Y-20089D01*
X22118Y-20254D01*
X22245Y-20380D01*
X22410Y-20449D01*
X22476Y-20449D01*
X22476Y-20634D01*
X22454Y-20625D01*
X22395Y-20625D01*
X22145Y-20625D01*
X22090Y-20648D01*
X22048Y-20690D01*
X22025Y-20745D01*
X22025Y-20804D01*
X22025Y-21254D01*
X22048Y-21309D01*
X22090Y-21351D01*
X22145Y-21374D01*
X22161Y-21374D01*
X22161Y-21869D01*
X22140Y-21920D01*
X22140Y-21979D01*
X22140Y-22579D01*
X22161Y-22630D01*
X22161Y-22679D01*
X22075Y-22765D01*
X22025Y-22885D01*
X22025Y-23014D01*
X22074Y-23133D01*
X22165Y-23224D01*
X22285Y-23274D01*
X22414Y-23274D01*
X22533Y-23225D01*
X22624Y-23134D01*
X22674Y-23014D01*
X22674Y-22885D01*
X22625Y-22766D01*
X22578Y-22719D01*
X22578Y-22699D01*
X22634Y-22699D01*
X22794Y-22699D01*
X22842Y-22679D01*
X22890Y-22699D01*
X22949Y-22699D01*
X23109Y-22699D01*
X23157Y-22679D01*
X23205Y-22699D01*
X23264Y-22699D01*
X23424Y-22699D01*
X23472Y-22679D01*
X23520Y-22699D01*
X23579Y-22699D01*
X23739Y-22699D01*
X23787Y-22679D01*
X23835Y-22699D01*
X23894Y-22699D01*
X24054Y-22699D01*
X24102Y-22679D01*
X24150Y-22699D01*
X24209Y-22699D01*
X24369Y-22699D01*
X24417Y-22679D01*
X24465Y-22699D01*
X24524Y-22699D01*
X24684Y-22699D01*
X24739Y-22676D01*
X24781Y-22634D01*
X24804Y-22579D01*
X24804Y-22520D01*
X24804Y-22458D01*
X27250Y-22458D01*
X27329Y-22442D01*
X27397Y-22397D01*
X28147Y-21647D01*
X28147Y-21647D01*
X28147Y-21647D01*
X28192Y-21579D01*
X28192Y-21579D01*
X28205Y-21515D01*
X28208Y-21500D01*
X28208Y-21500D01*
X28208Y-21500D01*
X28208Y-20586D01*
X28364Y-20430D01*
X28410Y-20449D01*
X28589Y-20449D01*
X28754Y-20381D01*
X28880Y-20254D01*
X28949Y-20089D01*
X28949Y-19910D01*
X28881Y-19745D01*
X28860Y-19724D01*
X29139Y-19724D01*
X29119Y-19745D01*
X29050Y-19910D01*
X29050Y-20089D01*
X29118Y-20254D01*
X29245Y-20380D01*
X29291Y-20400D01*
X29291Y-21163D01*
X27738Y-22716D01*
X25630Y-22716D01*
X25579Y-22695D01*
X25520Y-22695D01*
X24920Y-22695D01*
X24865Y-22718D01*
X24823Y-22760D01*
X24800Y-22815D01*
X24800Y-22874D01*
X24800Y-23034D01*
X24820Y-23082D01*
X24800Y-23130D01*
X24800Y-23189D01*
X24800Y-23349D01*
X24820Y-23397D01*
X24800Y-23445D01*
X24800Y-23504D01*
X24800Y-23664D01*
X24820Y-23712D01*
X24800Y-23760D01*
X24800Y-23819D01*
X24800Y-23979D01*
X24820Y-24027D01*
X24800Y-24075D01*
X24800Y-24134D01*
X24800Y-24294D01*
X24820Y-24342D01*
X24800Y-24390D01*
X24800Y-24449D01*
X24800Y-24606D01*
X24791Y-24606D01*
X24775Y-24566D01*
X24684Y-24475D01*
X24564Y-24425D01*
X24435Y-24425D01*
X24316Y-24474D01*
X24225Y-24565D01*
X24175Y-24685D01*
X24175Y-24814D01*
X24224Y-24933D01*
X24315Y-25024D01*
X24435Y-25074D01*
X24564Y-25074D01*
X24683Y-25025D01*
X24685Y-25023D01*
X24800Y-25023D01*
X24800Y-25079D01*
X24800Y-25239D01*
X24820Y-25287D01*
X24800Y-25335D01*
X24800Y-25394D01*
X24800Y-25554D01*
X24820Y-25602D01*
X24800Y-25650D01*
X24800Y-25709D01*
X24800Y-25869D01*
X24820Y-25917D01*
X24800Y-25965D01*
X24800Y-26024D01*
X24800Y-26184D01*
X24823Y-26239D01*
X24865Y-26281D01*
X24920Y-26304D01*
X24979Y-26304D01*
X25509Y-26304D01*
X25852Y-26647D01*
X25852Y-26647D01*
X25920Y-26692D01*
X25920Y-26692D01*
X26000Y-26708D01*
X28663Y-26708D01*
X28791Y-26836D01*
X28791Y-27413D01*
X28654Y-27550D01*
X28170Y-27550D01*
X28115Y-27573D01*
X28073Y-27615D01*
X28050Y-27670D01*
X28050Y-27729D01*
X28050Y-28329D01*
X28073Y-28384D01*
X28115Y-28426D01*
X28170Y-28449D01*
X28229Y-28449D01*
X28829Y-28449D01*
X28884Y-28426D01*
X28926Y-28384D01*
X28949Y-28329D01*
X28949Y-28270D01*
X28949Y-27845D01*
X29147Y-27647D01*
X29192Y-27579D01*
X29208Y-27500D01*
X29208Y-27344D01*
X29245Y-27380D01*
X29410Y-27449D01*
X29589Y-27449D01*
X29754Y-27381D01*
X29791Y-27344D01*
X29791Y-27500D01*
X29807Y-27579D01*
X29852Y-27647D01*
X30069Y-27864D01*
X30050Y-27910D01*
X30050Y-28089D01*
X30118Y-28254D01*
X30245Y-28380D01*
X30410Y-28449D01*
X30589Y-28449D01*
X30754Y-28381D01*
X30880Y-28254D01*
X30949Y-28089D01*
X30949Y-27910D01*
X30881Y-27745D01*
X30754Y-27619D01*
X30589Y-27550D01*
X30410Y-27550D01*
X30364Y-27569D01*
X30208Y-27413D01*
X30208Y-27344D01*
X30245Y-27380D01*
X30410Y-27449D01*
X30589Y-27449D01*
X30754Y-27381D01*
X30880Y-27254D01*
X30949Y-27089D01*
X30949Y-26910D01*
X30881Y-26745D01*
X30754Y-26619D01*
X30589Y-26550D01*
X30410Y-26550D01*
X30245Y-26618D01*
X30208Y-26655D01*
X30208Y-26500D01*
X30192Y-26420D01*
X30192Y-26420D01*
X30147Y-26352D01*
X30147Y-26352D01*
X29994Y-26199D01*
X30054Y-26199D01*
X30109Y-26176D01*
X30151Y-26134D01*
X30172Y-26083D01*
X31570Y-26083D01*
X31570Y-26085D01*
X31635Y-26242D01*
X31756Y-26363D01*
X31914Y-26429D01*
X32085Y-26429D01*
X32242Y-26364D01*
X32363Y-26243D01*
X32429Y-26085D01*
X32429Y-25914D01*
X32364Y-25757D01*
X32243Y-25636D01*
X32085Y-25570D01*
X31914Y-25570D01*
X31757Y-25635D01*
X31726Y-25666D01*
X30869Y-25666D01*
X30901Y-25634D01*
X30922Y-25583D01*
X31125Y-25583D01*
X31204Y-25567D01*
X31272Y-25522D01*
X31647Y-25147D01*
X31647Y-25147D01*
X31647Y-25147D01*
X31674Y-25106D01*
X31692Y-25079D01*
X31692Y-25079D01*
X31708Y-25000D01*
X31708Y-24586D01*
X31879Y-24415D01*
X31914Y-24429D01*
X32085Y-24429D01*
X32242Y-24364D01*
X32363Y-24243D01*
X32429Y-24085D01*
X32429Y-23914D01*
X32364Y-23757D01*
X32243Y-23636D01*
X32085Y-23570D01*
X31914Y-23570D01*
X31757Y-23635D01*
X31636Y-23756D01*
X31570Y-23914D01*
X31570Y-24085D01*
X31584Y-24120D01*
X31352Y-24352D01*
X31307Y-24420D01*
X31291Y-24500D01*
X31291Y-24913D01*
X31038Y-25166D01*
X30922Y-25166D01*
X30901Y-25115D01*
X30859Y-25073D01*
X30804Y-25050D01*
X30745Y-25050D01*
X30369Y-25050D01*
X30470Y-24949D01*
X30804Y-24949D01*
X30859Y-24926D01*
X30901Y-24884D01*
X30924Y-24829D01*
X30924Y-24770D01*
X30924Y-24420D01*
X30901Y-24365D01*
X30859Y-24323D01*
X30804Y-24300D01*
X30745Y-24300D01*
X30708Y-24300D01*
X30708Y-24250D01*
X30774Y-24184D01*
X30824Y-24064D01*
X30824Y-23935D01*
X30775Y-23816D01*
X30684Y-23725D01*
X30564Y-23675D01*
X30435Y-23675D01*
X30316Y-23724D01*
X30225Y-23815D01*
X30175Y-23935D01*
X30175Y-24064D01*
X30224Y-24183D01*
X30291Y-24250D01*
X30291Y-24300D01*
X30195Y-24300D01*
X30140Y-24323D01*
X30098Y-24365D01*
X30075Y-24420D01*
X30075Y-24479D01*
X30075Y-24754D01*
X30038Y-24791D01*
X30000Y-24791D01*
X29999Y-24791D01*
X29984Y-24794D01*
X29954Y-24800D01*
X29449Y-24800D01*
X29449Y-24745D01*
X29449Y-24195D01*
X29426Y-24140D01*
X29384Y-24098D01*
X29329Y-24075D01*
X29270Y-24075D01*
X28969Y-24075D01*
X31836Y-21208D01*
X32500Y-21208D01*
X32579Y-21192D01*
X32647Y-21147D01*
X33345Y-20449D01*
X33775Y-20449D01*
X33775Y-21705D01*
X33765Y-21701D01*
X33708Y-21701D01*
X33708Y-21625D01*
X33708Y-21624D01*
X33708Y-21624D01*
X33705Y-21609D01*
X33699Y-21579D01*
X33699Y-21579D01*
X33699Y-21195D01*
X33676Y-21140D01*
X33634Y-21098D01*
X33579Y-21075D01*
X33520Y-21075D01*
X33170Y-21075D01*
X33115Y-21098D01*
X33073Y-21140D01*
X33050Y-21195D01*
X33050Y-21254D01*
X33050Y-21804D01*
X33073Y-21859D01*
X33114Y-21900D01*
X33114Y-22352D01*
X33137Y-22407D01*
X33179Y-22449D01*
X33234Y-22472D01*
X33293Y-22472D01*
X33765Y-22472D01*
X33775Y-22468D01*
X33775Y-22531D01*
X33765Y-22527D01*
X33706Y-22527D01*
X33234Y-22527D01*
X33179Y-22550D01*
X33137Y-22592D01*
X33114Y-22647D01*
X33114Y-22706D01*
X33114Y-23178D01*
X33137Y-23233D01*
X33179Y-23275D01*
X33234Y-23298D01*
X33242Y-23298D01*
X33225Y-23315D01*
X33175Y-23435D01*
X33175Y-23564D01*
X33224Y-23683D01*
X33315Y-23774D01*
X33435Y-23824D01*
X33564Y-23824D01*
X33683Y-23775D01*
X33774Y-23684D01*
X33775Y-23682D01*
X33775Y-27800D01*
M02*
