G04 (created by PCBNEW (2013-03-31 BZR 4008)-stable) date 01.09.2013 16:31:27*
%MOIN*%
G04 Gerber Fmt 3.4, Leading zero omitted, Abs format*
%FSLAX34Y34*%
G01*
G70*
G90*
G04 APERTURE LIST*
%ADD10C,2.3622e-006*%
%ADD11C,0.015*%
%ADD12R,0.08X0.036*%
%ADD13R,0.036X0.08*%
%ADD14R,0.075X0.055*%
%ADD15R,0.08X0.08*%
%ADD16C,0.08*%
%ADD17R,0.055X0.075*%
%ADD18R,0.065X0.045*%
%ADD19R,0.045X0.065*%
%ADD20R,0.0672X0.0672*%
%ADD21R,0.0731X0.0456*%
%ADD22C,0.076*%
%ADD23R,0.0947X0.0947*%
%ADD24R,0.0947X0.0948*%
%ADD25R,0.0947X0.0907*%
%ADD26R,0.0829X0.1025*%
%ADD27R,0.073X0.0357*%
%ADD28R,0.0318X0.0476*%
G04 APERTURE END LIST*
G54D10*
G54D11*
X14000Y-19500D02*
X34000Y-19500D01*
X14000Y-29500D02*
X14000Y-19500D01*
X34000Y-29500D02*
X14000Y-29500D01*
X34000Y-19500D02*
X34000Y-29500D01*
G54D12*
X25250Y-24500D03*
X25250Y-24185D03*
X25250Y-23870D03*
X25250Y-23555D03*
X25250Y-23240D03*
X25250Y-22925D03*
X25250Y-24815D03*
X25250Y-25130D03*
X25250Y-25445D03*
X25250Y-25760D03*
X25250Y-26075D03*
X20750Y-24500D03*
X20750Y-24185D03*
X20750Y-23870D03*
X20750Y-23555D03*
X20750Y-23240D03*
X20750Y-22925D03*
X20750Y-24815D03*
X20750Y-25130D03*
X20750Y-25445D03*
X20750Y-25760D03*
X20750Y-26075D03*
G54D13*
X23000Y-22250D03*
X23000Y-26750D03*
X22685Y-22250D03*
X22685Y-26750D03*
X22370Y-26750D03*
X22370Y-22250D03*
X22055Y-22250D03*
X22055Y-26750D03*
X21740Y-26750D03*
X21740Y-22250D03*
X21425Y-22250D03*
X21425Y-26750D03*
X23315Y-26750D03*
X23315Y-22250D03*
X23630Y-22250D03*
X23630Y-26750D03*
X23945Y-26750D03*
X23945Y-22250D03*
X24260Y-22250D03*
X24260Y-26750D03*
X24575Y-26750D03*
X24575Y-22250D03*
G54D14*
X27500Y-26875D03*
X27500Y-26125D03*
G54D15*
X28500Y-28000D03*
G54D16*
X28500Y-27000D03*
X29500Y-28000D03*
X29500Y-27000D03*
X30500Y-28000D03*
X30500Y-27000D03*
G54D17*
X29875Y-24500D03*
X29125Y-24500D03*
G54D15*
X33500Y-20000D03*
G54D16*
X28500Y-20000D03*
X27500Y-20000D03*
X26500Y-20000D03*
X25500Y-20000D03*
X24500Y-20000D03*
X23500Y-20000D03*
X22500Y-20000D03*
X21500Y-20000D03*
X20500Y-20000D03*
X19500Y-20000D03*
X18500Y-20000D03*
X17500Y-20000D03*
X16500Y-20000D03*
X15500Y-20000D03*
X32500Y-20000D03*
X31500Y-20000D03*
X30500Y-20000D03*
X29500Y-20000D03*
X14500Y-20000D03*
G54D15*
X14500Y-29000D03*
G54D16*
X19500Y-29000D03*
X20500Y-29000D03*
X21500Y-29000D03*
X22500Y-29000D03*
X23500Y-29000D03*
X24500Y-29000D03*
X25500Y-29000D03*
X26500Y-29000D03*
X27500Y-29000D03*
X28500Y-29000D03*
X29500Y-29000D03*
X30500Y-29000D03*
X31500Y-29000D03*
X32500Y-29000D03*
X15500Y-29000D03*
X16500Y-29000D03*
X17500Y-29000D03*
X18500Y-29000D03*
X33500Y-29000D03*
G54D14*
X29750Y-25875D03*
X29750Y-25125D03*
X30500Y-25375D03*
X30500Y-24625D03*
X26250Y-20875D03*
X26250Y-21625D03*
X28250Y-24125D03*
X28250Y-24875D03*
G54D18*
X19250Y-25550D03*
X19250Y-24950D03*
G54D19*
X21700Y-21000D03*
X22300Y-21000D03*
G54D14*
X33500Y-27375D03*
X33500Y-28125D03*
G54D19*
X24300Y-27750D03*
X23700Y-27750D03*
G54D18*
X26000Y-24200D03*
X26000Y-24800D03*
X25500Y-20950D03*
X25500Y-21550D03*
G54D14*
X27500Y-24375D03*
X27500Y-25125D03*
G54D18*
X26750Y-25050D03*
X26750Y-24450D03*
G54D14*
X15500Y-27375D03*
X15500Y-28125D03*
X17500Y-22125D03*
X17500Y-21375D03*
X16500Y-22125D03*
X16500Y-21375D03*
G54D20*
X15663Y-22250D03*
X14837Y-22250D03*
X15663Y-21500D03*
X14837Y-21500D03*
G54D14*
X16500Y-27375D03*
X16500Y-28125D03*
G54D17*
X33375Y-21500D03*
X32625Y-21500D03*
G54D14*
X17000Y-23125D03*
X17000Y-23875D03*
G54D21*
X17972Y-24500D03*
X17028Y-24500D03*
G54D22*
X32000Y-24000D03*
X32000Y-26000D03*
G54D20*
X33500Y-22087D03*
X33500Y-22913D03*
X17750Y-23087D03*
X17750Y-23913D03*
G54D23*
X14570Y-24778D03*
G54D24*
X14570Y-25722D03*
G54D25*
X14570Y-26746D03*
G54D26*
X15574Y-24030D03*
G54D27*
X15624Y-24739D03*
X15624Y-24995D03*
X15624Y-25250D03*
X15624Y-25505D03*
X15624Y-25761D03*
G54D26*
X15574Y-26470D03*
G54D25*
X14570Y-23754D03*
G54D28*
X17000Y-25565D03*
X17256Y-25565D03*
X17256Y-24935D03*
X17000Y-24935D03*
X16744Y-24935D03*
X16744Y-25565D03*
M02*
