G04 (created by PCBNEW (2013-07-07 BZR 4022)-stable) date 21.08.2014 16:08:41*
%MOIN*%
G04 Gerber Fmt 3.4, Leading zero omitted, Abs format*
%FSLAX34Y34*%
G01*
G70*
G90*
G04 APERTURE LIST*
%ADD10C,0.00590551*%
%ADD11C,0.00606299*%
%ADD12C,0.012*%
%ADD13C,0.00393701*%
%ADD14C,0.015*%
%ADD15C,0.008*%
%ADD16C,0.005*%
%ADD17C,0.0026*%
%ADD18C,0.004*%
%ADD19C,0.002*%
%ADD20C,0.0039*%
%ADD21C,0.0125*%
%ADD22C,0.0045*%
%ADD23C,0.00984252*%
%ADD24C,0.0075*%
%ADD25C,0.0024*%
G04 APERTURE END LIST*
G54D10*
G54D11*
X14174Y-21824D02*
X14174Y-21656D01*
X14469Y-21740D02*
X14174Y-21740D01*
X14174Y-21585D02*
X14469Y-21389D01*
X14174Y-21389D02*
X14469Y-21585D01*
X14469Y-22349D02*
X14328Y-22447D01*
X14469Y-22517D02*
X14174Y-22517D01*
X14174Y-22405D01*
X14188Y-22377D01*
X14202Y-22363D01*
X14230Y-22349D01*
X14272Y-22349D01*
X14300Y-22363D01*
X14314Y-22377D01*
X14328Y-22405D01*
X14328Y-22517D01*
X14174Y-22250D02*
X14469Y-22053D01*
X14174Y-22053D02*
X14469Y-22250D01*
G54D12*
X26514Y-21923D02*
X26914Y-22723D01*
X26914Y-21923D02*
X26514Y-22723D01*
X27142Y-22723D02*
X27142Y-22190D01*
X27142Y-22266D02*
X27171Y-22228D01*
X27228Y-22190D01*
X27314Y-22190D01*
X27371Y-22228D01*
X27400Y-22304D01*
X27400Y-22723D01*
X27400Y-22304D02*
X27428Y-22228D01*
X27485Y-22190D01*
X27571Y-22190D01*
X27628Y-22228D01*
X27657Y-22304D01*
X27657Y-22723D01*
X28171Y-22685D02*
X28114Y-22723D01*
X28000Y-22723D01*
X27942Y-22685D01*
X27914Y-22609D01*
X27914Y-22304D01*
X27942Y-22228D01*
X28000Y-22190D01*
X28114Y-22190D01*
X28171Y-22228D01*
X28200Y-22304D01*
X28200Y-22380D01*
X27914Y-22457D01*
X28714Y-22190D02*
X28714Y-22838D01*
X28685Y-22914D01*
X28657Y-22952D01*
X28600Y-22990D01*
X28514Y-22990D01*
X28457Y-22952D01*
X28714Y-22685D02*
X28657Y-22723D01*
X28542Y-22723D01*
X28485Y-22685D01*
X28457Y-22647D01*
X28428Y-22571D01*
X28428Y-22342D01*
X28457Y-22266D01*
X28485Y-22228D01*
X28542Y-22190D01*
X28657Y-22190D01*
X28714Y-22228D01*
X29257Y-22723D02*
X29257Y-22304D01*
X29228Y-22228D01*
X29171Y-22190D01*
X29057Y-22190D01*
X29000Y-22228D01*
X29257Y-22685D02*
X29200Y-22723D01*
X29057Y-22723D01*
X29000Y-22685D01*
X28971Y-22609D01*
X28971Y-22533D01*
X29000Y-22457D01*
X29057Y-22419D01*
X29200Y-22419D01*
X29257Y-22380D01*
X29857Y-22723D02*
X29514Y-22723D01*
X29685Y-22723D02*
X29685Y-21923D01*
X29628Y-22038D01*
X29571Y-22114D01*
X29514Y-22152D01*
X30085Y-22000D02*
X30114Y-21961D01*
X30171Y-21923D01*
X30314Y-21923D01*
X30371Y-21961D01*
X30400Y-22000D01*
X30428Y-22076D01*
X30428Y-22152D01*
X30400Y-22266D01*
X30057Y-22723D01*
X30428Y-22723D01*
X30771Y-22266D02*
X30714Y-22228D01*
X30685Y-22190D01*
X30657Y-22114D01*
X30657Y-22076D01*
X30685Y-22000D01*
X30714Y-21961D01*
X30771Y-21923D01*
X30885Y-21923D01*
X30942Y-21961D01*
X30971Y-22000D01*
X31000Y-22076D01*
X31000Y-22114D01*
X30971Y-22190D01*
X30942Y-22228D01*
X30885Y-22266D01*
X30771Y-22266D01*
X30714Y-22304D01*
X30685Y-22342D01*
X30657Y-22419D01*
X30657Y-22571D01*
X30685Y-22647D01*
X30714Y-22685D01*
X30771Y-22723D01*
X30885Y-22723D01*
X30942Y-22685D01*
X30971Y-22647D01*
X31000Y-22571D01*
X31000Y-22419D01*
X30971Y-22342D01*
X30942Y-22304D01*
X30885Y-22266D01*
X31514Y-22723D02*
X31514Y-22304D01*
X31485Y-22228D01*
X31428Y-22190D01*
X31314Y-22190D01*
X31257Y-22228D01*
X31514Y-22685D02*
X31457Y-22723D01*
X31314Y-22723D01*
X31257Y-22685D01*
X31228Y-22609D01*
X31228Y-22533D01*
X31257Y-22457D01*
X31314Y-22419D01*
X31457Y-22419D01*
X31514Y-22380D01*
X32057Y-22190D02*
X32057Y-22723D01*
X31914Y-21885D02*
X31771Y-22457D01*
X32142Y-22457D01*
X32628Y-22190D02*
X32628Y-22723D01*
X32371Y-22190D02*
X32371Y-22609D01*
X32400Y-22685D01*
X32457Y-22723D01*
X32542Y-22723D01*
X32600Y-22685D01*
X32628Y-22647D01*
G54D13*
X27856Y-28234D02*
X27593Y-28234D01*
X27593Y-28159D01*
X27606Y-28140D01*
X27618Y-28131D01*
X27643Y-28121D01*
X27681Y-28121D01*
X27706Y-28131D01*
X27718Y-28140D01*
X27731Y-28159D01*
X27731Y-28234D01*
X27718Y-28037D02*
X27718Y-27971D01*
X27856Y-27943D02*
X27856Y-28037D01*
X27593Y-28037D01*
X27593Y-27943D01*
X27593Y-27878D02*
X27593Y-27756D01*
X27693Y-27821D01*
X27693Y-27793D01*
X27706Y-27775D01*
X27718Y-27765D01*
X27743Y-27756D01*
X27806Y-27756D01*
X27831Y-27765D01*
X27843Y-27775D01*
X27856Y-27793D01*
X27856Y-27850D01*
X27843Y-27868D01*
X27831Y-27878D01*
X27356Y-28234D02*
X27093Y-28234D01*
X27093Y-28159D01*
X27106Y-28140D01*
X27118Y-28131D01*
X27143Y-28121D01*
X27181Y-28121D01*
X27206Y-28131D01*
X27218Y-28140D01*
X27231Y-28159D01*
X27231Y-28234D01*
X27218Y-28037D02*
X27218Y-27971D01*
X27356Y-27943D02*
X27356Y-28037D01*
X27093Y-28037D01*
X27093Y-27943D01*
X27118Y-27868D02*
X27106Y-27859D01*
X27093Y-27840D01*
X27093Y-27793D01*
X27106Y-27775D01*
X27118Y-27765D01*
X27143Y-27756D01*
X27168Y-27756D01*
X27206Y-27765D01*
X27356Y-27878D01*
X27356Y-27756D01*
G54D10*
X33284Y-26724D02*
X33265Y-26753D01*
X33265Y-26795D01*
X33284Y-26837D01*
X33321Y-26865D01*
X33359Y-26879D01*
X33434Y-26893D01*
X33490Y-26893D01*
X33565Y-26879D01*
X33603Y-26865D01*
X33640Y-26837D01*
X33659Y-26795D01*
X33659Y-26767D01*
X33640Y-26724D01*
X33621Y-26710D01*
X33490Y-26710D01*
X33490Y-26767D01*
X33659Y-26584D02*
X33265Y-26584D01*
X33659Y-26415D01*
X33265Y-26415D01*
X33659Y-26275D02*
X33265Y-26275D01*
X33265Y-26204D01*
X33284Y-26162D01*
X33321Y-26134D01*
X33359Y-26120D01*
X33434Y-26106D01*
X33490Y-26106D01*
X33565Y-26120D01*
X33603Y-26134D01*
X33640Y-26162D01*
X33659Y-26204D01*
X33659Y-26275D01*
X32659Y-28365D02*
X32265Y-28365D01*
X32265Y-28253D01*
X32284Y-28224D01*
X32303Y-28210D01*
X32340Y-28196D01*
X32396Y-28196D01*
X32434Y-28210D01*
X32453Y-28224D01*
X32471Y-28253D01*
X32471Y-28365D01*
X32659Y-27901D02*
X32471Y-28000D01*
X32659Y-28070D02*
X32265Y-28070D01*
X32265Y-27957D01*
X32284Y-27929D01*
X32303Y-27915D01*
X32340Y-27901D01*
X32396Y-27901D01*
X32434Y-27915D01*
X32453Y-27929D01*
X32471Y-27957D01*
X32471Y-28070D01*
X32659Y-27620D02*
X32659Y-27789D01*
X32659Y-27704D02*
X32265Y-27704D01*
X32321Y-27732D01*
X32359Y-27760D01*
X32378Y-27789D01*
X26659Y-28351D02*
X26265Y-28351D01*
X26265Y-28239D01*
X26284Y-28210D01*
X26303Y-28196D01*
X26340Y-28182D01*
X26396Y-28182D01*
X26434Y-28196D01*
X26453Y-28210D01*
X26471Y-28239D01*
X26471Y-28351D01*
X26453Y-28056D02*
X26453Y-27957D01*
X26659Y-27915D02*
X26659Y-28056D01*
X26265Y-28056D01*
X26265Y-27915D01*
X26659Y-27634D02*
X26659Y-27803D01*
X26659Y-27718D02*
X26265Y-27718D01*
X26321Y-27746D01*
X26359Y-27775D01*
X26378Y-27803D01*
G54D13*
X24306Y-28356D02*
X24306Y-28093D01*
X24381Y-28093D01*
X24400Y-28106D01*
X24409Y-28118D01*
X24418Y-28143D01*
X24418Y-28181D01*
X24409Y-28206D01*
X24400Y-28218D01*
X24381Y-28231D01*
X24306Y-28231D01*
X24503Y-28356D02*
X24503Y-28093D01*
X24550Y-28093D01*
X24578Y-28106D01*
X24596Y-28131D01*
X24606Y-28156D01*
X24615Y-28206D01*
X24615Y-28243D01*
X24606Y-28293D01*
X24596Y-28318D01*
X24578Y-28343D01*
X24550Y-28356D01*
X24503Y-28356D01*
X24681Y-28093D02*
X24812Y-28093D01*
X24728Y-28356D01*
X23306Y-28356D02*
X23306Y-28093D01*
X23381Y-28093D01*
X23400Y-28106D01*
X23409Y-28118D01*
X23418Y-28143D01*
X23418Y-28181D01*
X23409Y-28206D01*
X23400Y-28218D01*
X23381Y-28231D01*
X23306Y-28231D01*
X23503Y-28356D02*
X23503Y-28093D01*
X23550Y-28093D01*
X23578Y-28106D01*
X23596Y-28131D01*
X23606Y-28156D01*
X23615Y-28206D01*
X23615Y-28243D01*
X23606Y-28293D01*
X23596Y-28318D01*
X23578Y-28343D01*
X23550Y-28356D01*
X23503Y-28356D01*
X23784Y-28093D02*
X23746Y-28093D01*
X23728Y-28106D01*
X23718Y-28118D01*
X23699Y-28156D01*
X23690Y-28206D01*
X23690Y-28306D01*
X23699Y-28331D01*
X23709Y-28343D01*
X23728Y-28356D01*
X23765Y-28356D01*
X23784Y-28343D01*
X23793Y-28331D01*
X23803Y-28306D01*
X23803Y-28243D01*
X23793Y-28218D01*
X23784Y-28206D01*
X23765Y-28193D01*
X23728Y-28193D01*
X23709Y-28206D01*
X23699Y-28218D01*
X23690Y-28243D01*
G54D10*
X22659Y-28365D02*
X22265Y-28365D01*
X22265Y-28253D01*
X22284Y-28224D01*
X22303Y-28210D01*
X22340Y-28196D01*
X22396Y-28196D01*
X22434Y-28210D01*
X22453Y-28224D01*
X22471Y-28253D01*
X22471Y-28365D01*
X22659Y-28070D02*
X22265Y-28070D01*
X22265Y-28000D01*
X22284Y-27957D01*
X22321Y-27929D01*
X22359Y-27915D01*
X22434Y-27901D01*
X22490Y-27901D01*
X22565Y-27915D01*
X22603Y-27929D01*
X22640Y-27957D01*
X22659Y-28000D01*
X22659Y-28070D01*
X22265Y-27634D02*
X22265Y-27775D01*
X22453Y-27789D01*
X22434Y-27775D01*
X22415Y-27746D01*
X22415Y-27676D01*
X22434Y-27648D01*
X22453Y-27634D01*
X22490Y-27620D01*
X22584Y-27620D01*
X22621Y-27634D01*
X22640Y-27648D01*
X22659Y-27676D01*
X22659Y-27746D01*
X22640Y-27775D01*
X22621Y-27789D01*
X21659Y-28365D02*
X21265Y-28365D01*
X21265Y-28253D01*
X21284Y-28224D01*
X21303Y-28210D01*
X21340Y-28196D01*
X21396Y-28196D01*
X21434Y-28210D01*
X21453Y-28224D01*
X21471Y-28253D01*
X21471Y-28365D01*
X21659Y-28070D02*
X21265Y-28070D01*
X21265Y-28000D01*
X21284Y-27957D01*
X21321Y-27929D01*
X21359Y-27915D01*
X21434Y-27901D01*
X21490Y-27901D01*
X21565Y-27915D01*
X21603Y-27929D01*
X21640Y-27957D01*
X21659Y-28000D01*
X21659Y-28070D01*
X21396Y-27648D02*
X21659Y-27648D01*
X21246Y-27718D02*
X21528Y-27789D01*
X21528Y-27606D01*
X20659Y-28365D02*
X20265Y-28365D01*
X20265Y-28253D01*
X20284Y-28224D01*
X20303Y-28210D01*
X20340Y-28196D01*
X20396Y-28196D01*
X20434Y-28210D01*
X20453Y-28224D01*
X20471Y-28253D01*
X20471Y-28365D01*
X20659Y-28070D02*
X20265Y-28070D01*
X20265Y-28000D01*
X20284Y-27957D01*
X20321Y-27929D01*
X20359Y-27915D01*
X20434Y-27901D01*
X20490Y-27901D01*
X20565Y-27915D01*
X20603Y-27929D01*
X20640Y-27957D01*
X20659Y-28000D01*
X20659Y-28070D01*
X20265Y-27803D02*
X20265Y-27620D01*
X20415Y-27718D01*
X20415Y-27676D01*
X20434Y-27648D01*
X20453Y-27634D01*
X20490Y-27620D01*
X20584Y-27620D01*
X20621Y-27634D01*
X20640Y-27648D01*
X20659Y-27676D01*
X20659Y-27760D01*
X20640Y-27789D01*
X20621Y-27803D01*
X19659Y-28365D02*
X19265Y-28365D01*
X19265Y-28253D01*
X19284Y-28224D01*
X19303Y-28210D01*
X19340Y-28196D01*
X19396Y-28196D01*
X19434Y-28210D01*
X19453Y-28224D01*
X19471Y-28253D01*
X19471Y-28365D01*
X19659Y-28070D02*
X19265Y-28070D01*
X19265Y-28000D01*
X19284Y-27957D01*
X19321Y-27929D01*
X19359Y-27915D01*
X19434Y-27901D01*
X19490Y-27901D01*
X19565Y-27915D01*
X19603Y-27929D01*
X19640Y-27957D01*
X19659Y-28000D01*
X19659Y-28070D01*
X19303Y-27789D02*
X19284Y-27775D01*
X19265Y-27746D01*
X19265Y-27676D01*
X19284Y-27648D01*
X19303Y-27634D01*
X19340Y-27620D01*
X19378Y-27620D01*
X19434Y-27634D01*
X19659Y-27803D01*
X19659Y-27620D01*
X18659Y-28365D02*
X18265Y-28365D01*
X18265Y-28253D01*
X18284Y-28224D01*
X18303Y-28210D01*
X18340Y-28196D01*
X18396Y-28196D01*
X18434Y-28210D01*
X18453Y-28224D01*
X18471Y-28253D01*
X18471Y-28365D01*
X18659Y-28070D02*
X18265Y-28070D01*
X18265Y-28000D01*
X18284Y-27957D01*
X18321Y-27929D01*
X18359Y-27915D01*
X18434Y-27901D01*
X18490Y-27901D01*
X18565Y-27915D01*
X18603Y-27929D01*
X18640Y-27957D01*
X18659Y-28000D01*
X18659Y-28070D01*
X18659Y-27620D02*
X18659Y-27789D01*
X18659Y-27704D02*
X18265Y-27704D01*
X18321Y-27732D01*
X18359Y-27760D01*
X18378Y-27789D01*
X14784Y-28224D02*
X14765Y-28253D01*
X14765Y-28295D01*
X14784Y-28337D01*
X14821Y-28365D01*
X14859Y-28379D01*
X14934Y-28393D01*
X14990Y-28393D01*
X15065Y-28379D01*
X15103Y-28365D01*
X15140Y-28337D01*
X15159Y-28295D01*
X15159Y-28267D01*
X15140Y-28224D01*
X15121Y-28210D01*
X14990Y-28210D01*
X14990Y-28267D01*
X15159Y-28084D02*
X14765Y-28084D01*
X15159Y-27915D01*
X14765Y-27915D01*
X15159Y-27775D02*
X14765Y-27775D01*
X14765Y-27704D01*
X14784Y-27662D01*
X14821Y-27634D01*
X14859Y-27620D01*
X14934Y-27606D01*
X14990Y-27606D01*
X15065Y-27620D01*
X15103Y-27634D01*
X15140Y-27662D01*
X15159Y-27704D01*
X15159Y-27775D01*
X16218Y-26515D02*
X16317Y-26909D01*
X16415Y-26515D01*
X16514Y-26759D02*
X16739Y-26759D01*
X16626Y-26909D02*
X16626Y-26609D01*
X14234Y-21059D02*
X14234Y-20665D01*
X14346Y-20665D01*
X14375Y-20684D01*
X14389Y-20703D01*
X14403Y-20740D01*
X14403Y-20796D01*
X14389Y-20834D01*
X14375Y-20853D01*
X14346Y-20871D01*
X14234Y-20871D01*
X14698Y-21021D02*
X14684Y-21040D01*
X14642Y-21059D01*
X14614Y-21059D01*
X14571Y-21040D01*
X14543Y-21003D01*
X14529Y-20965D01*
X14515Y-20890D01*
X14515Y-20834D01*
X14529Y-20759D01*
X14543Y-20721D01*
X14571Y-20684D01*
X14614Y-20665D01*
X14642Y-20665D01*
X14684Y-20684D01*
X14698Y-20703D01*
X14796Y-20665D02*
X14993Y-20665D01*
X14867Y-21059D01*
X15234Y-21059D02*
X15234Y-20665D01*
X15346Y-20665D01*
X15375Y-20684D01*
X15389Y-20703D01*
X15403Y-20740D01*
X15403Y-20796D01*
X15389Y-20834D01*
X15375Y-20853D01*
X15346Y-20871D01*
X15234Y-20871D01*
X15698Y-21021D02*
X15684Y-21040D01*
X15642Y-21059D01*
X15614Y-21059D01*
X15571Y-21040D01*
X15543Y-21003D01*
X15529Y-20965D01*
X15515Y-20890D01*
X15515Y-20834D01*
X15529Y-20759D01*
X15543Y-20721D01*
X15571Y-20684D01*
X15614Y-20665D01*
X15642Y-20665D01*
X15684Y-20684D01*
X15698Y-20703D01*
X15951Y-20665D02*
X15895Y-20665D01*
X15867Y-20684D01*
X15853Y-20703D01*
X15824Y-20759D01*
X15810Y-20834D01*
X15810Y-20984D01*
X15824Y-21021D01*
X15839Y-21040D01*
X15867Y-21059D01*
X15923Y-21059D01*
X15951Y-21040D01*
X15965Y-21021D01*
X15979Y-20984D01*
X15979Y-20890D01*
X15965Y-20853D01*
X15951Y-20834D01*
X15923Y-20815D01*
X15867Y-20815D01*
X15839Y-20834D01*
X15824Y-20853D01*
X15810Y-20890D01*
X16234Y-21059D02*
X16234Y-20665D01*
X16346Y-20665D01*
X16375Y-20684D01*
X16389Y-20703D01*
X16403Y-20740D01*
X16403Y-20796D01*
X16389Y-20834D01*
X16375Y-20853D01*
X16346Y-20871D01*
X16234Y-20871D01*
X16698Y-21021D02*
X16684Y-21040D01*
X16642Y-21059D01*
X16614Y-21059D01*
X16571Y-21040D01*
X16543Y-21003D01*
X16529Y-20965D01*
X16515Y-20890D01*
X16515Y-20834D01*
X16529Y-20759D01*
X16543Y-20721D01*
X16571Y-20684D01*
X16614Y-20665D01*
X16642Y-20665D01*
X16684Y-20684D01*
X16698Y-20703D01*
X16965Y-20665D02*
X16824Y-20665D01*
X16810Y-20853D01*
X16824Y-20834D01*
X16853Y-20815D01*
X16923Y-20815D01*
X16951Y-20834D01*
X16965Y-20853D01*
X16979Y-20890D01*
X16979Y-20984D01*
X16965Y-21021D01*
X16951Y-21040D01*
X16923Y-21059D01*
X16853Y-21059D01*
X16824Y-21040D01*
X16810Y-21021D01*
X17234Y-21059D02*
X17234Y-20665D01*
X17346Y-20665D01*
X17375Y-20684D01*
X17389Y-20703D01*
X17403Y-20740D01*
X17403Y-20796D01*
X17389Y-20834D01*
X17375Y-20853D01*
X17346Y-20871D01*
X17234Y-20871D01*
X17698Y-21021D02*
X17684Y-21040D01*
X17642Y-21059D01*
X17614Y-21059D01*
X17571Y-21040D01*
X17543Y-21003D01*
X17529Y-20965D01*
X17515Y-20890D01*
X17515Y-20834D01*
X17529Y-20759D01*
X17543Y-20721D01*
X17571Y-20684D01*
X17614Y-20665D01*
X17642Y-20665D01*
X17684Y-20684D01*
X17698Y-20703D01*
X17951Y-20796D02*
X17951Y-21059D01*
X17881Y-20646D02*
X17810Y-20928D01*
X17993Y-20928D01*
X18659Y-21365D02*
X18265Y-21365D01*
X18265Y-21253D01*
X18284Y-21224D01*
X18303Y-21210D01*
X18340Y-21196D01*
X18396Y-21196D01*
X18434Y-21210D01*
X18453Y-21224D01*
X18471Y-21253D01*
X18471Y-21365D01*
X18621Y-20901D02*
X18640Y-20915D01*
X18659Y-20957D01*
X18659Y-20985D01*
X18640Y-21028D01*
X18603Y-21056D01*
X18565Y-21070D01*
X18490Y-21084D01*
X18434Y-21084D01*
X18359Y-21070D01*
X18321Y-21056D01*
X18284Y-21028D01*
X18265Y-20985D01*
X18265Y-20957D01*
X18284Y-20915D01*
X18303Y-20901D01*
X18265Y-20803D02*
X18265Y-20620D01*
X18415Y-20718D01*
X18415Y-20676D01*
X18434Y-20648D01*
X18453Y-20634D01*
X18490Y-20620D01*
X18584Y-20620D01*
X18621Y-20634D01*
X18640Y-20648D01*
X18659Y-20676D01*
X18659Y-20760D01*
X18640Y-20789D01*
X18621Y-20803D01*
X19659Y-21365D02*
X19265Y-21365D01*
X19265Y-21253D01*
X19284Y-21224D01*
X19303Y-21210D01*
X19340Y-21196D01*
X19396Y-21196D01*
X19434Y-21210D01*
X19453Y-21224D01*
X19471Y-21253D01*
X19471Y-21365D01*
X19621Y-20901D02*
X19640Y-20915D01*
X19659Y-20957D01*
X19659Y-20985D01*
X19640Y-21028D01*
X19603Y-21056D01*
X19565Y-21070D01*
X19490Y-21084D01*
X19434Y-21084D01*
X19359Y-21070D01*
X19321Y-21056D01*
X19284Y-21028D01*
X19265Y-20985D01*
X19265Y-20957D01*
X19284Y-20915D01*
X19303Y-20901D01*
X19303Y-20789D02*
X19284Y-20775D01*
X19265Y-20746D01*
X19265Y-20676D01*
X19284Y-20648D01*
X19303Y-20634D01*
X19340Y-20620D01*
X19378Y-20620D01*
X19434Y-20634D01*
X19659Y-20803D01*
X19659Y-20620D01*
X21409Y-21365D02*
X21015Y-21365D01*
X21015Y-21253D01*
X21034Y-21224D01*
X21053Y-21210D01*
X21090Y-21196D01*
X21146Y-21196D01*
X21184Y-21210D01*
X21203Y-21224D01*
X21221Y-21253D01*
X21221Y-21365D01*
X21371Y-20901D02*
X21390Y-20915D01*
X21409Y-20957D01*
X21409Y-20985D01*
X21390Y-21028D01*
X21353Y-21056D01*
X21315Y-21070D01*
X21240Y-21084D01*
X21184Y-21084D01*
X21109Y-21070D01*
X21071Y-21056D01*
X21034Y-21028D01*
X21015Y-20985D01*
X21015Y-20957D01*
X21034Y-20915D01*
X21053Y-20901D01*
X21015Y-20718D02*
X21015Y-20690D01*
X21034Y-20662D01*
X21053Y-20648D01*
X21090Y-20634D01*
X21165Y-20620D01*
X21259Y-20620D01*
X21334Y-20634D01*
X21371Y-20648D01*
X21390Y-20662D01*
X21409Y-20690D01*
X21409Y-20718D01*
X21390Y-20746D01*
X21371Y-20760D01*
X21334Y-20775D01*
X21259Y-20789D01*
X21165Y-20789D01*
X21090Y-20775D01*
X21053Y-20760D01*
X21034Y-20746D01*
X21015Y-20718D01*
X23159Y-21365D02*
X22765Y-21365D01*
X22765Y-21253D01*
X22784Y-21224D01*
X22803Y-21210D01*
X22840Y-21196D01*
X22896Y-21196D01*
X22934Y-21210D01*
X22953Y-21224D01*
X22971Y-21253D01*
X22971Y-21365D01*
X22953Y-20971D02*
X22971Y-20929D01*
X22990Y-20915D01*
X23028Y-20901D01*
X23084Y-20901D01*
X23121Y-20915D01*
X23140Y-20929D01*
X23159Y-20957D01*
X23159Y-21070D01*
X22765Y-21070D01*
X22765Y-20971D01*
X22784Y-20943D01*
X22803Y-20929D01*
X22840Y-20915D01*
X22878Y-20915D01*
X22915Y-20929D01*
X22934Y-20943D01*
X22953Y-20971D01*
X22953Y-21070D01*
X22765Y-20803D02*
X22765Y-20620D01*
X22915Y-20718D01*
X22915Y-20676D01*
X22934Y-20648D01*
X22953Y-20634D01*
X22990Y-20620D01*
X23084Y-20620D01*
X23121Y-20634D01*
X23140Y-20648D01*
X23159Y-20676D01*
X23159Y-20760D01*
X23140Y-20789D01*
X23121Y-20803D01*
X23659Y-21365D02*
X23265Y-21365D01*
X23265Y-21253D01*
X23284Y-21224D01*
X23303Y-21210D01*
X23340Y-21196D01*
X23396Y-21196D01*
X23434Y-21210D01*
X23453Y-21224D01*
X23471Y-21253D01*
X23471Y-21365D01*
X23453Y-20971D02*
X23471Y-20929D01*
X23490Y-20915D01*
X23528Y-20901D01*
X23584Y-20901D01*
X23621Y-20915D01*
X23640Y-20929D01*
X23659Y-20957D01*
X23659Y-21070D01*
X23265Y-21070D01*
X23265Y-20971D01*
X23284Y-20943D01*
X23303Y-20929D01*
X23340Y-20915D01*
X23378Y-20915D01*
X23415Y-20929D01*
X23434Y-20943D01*
X23453Y-20971D01*
X23453Y-21070D01*
X23303Y-20789D02*
X23284Y-20775D01*
X23265Y-20746D01*
X23265Y-20676D01*
X23284Y-20648D01*
X23303Y-20634D01*
X23340Y-20620D01*
X23378Y-20620D01*
X23434Y-20634D01*
X23659Y-20803D01*
X23659Y-20620D01*
X25159Y-21365D02*
X24765Y-21365D01*
X24765Y-21253D01*
X24784Y-21224D01*
X24803Y-21210D01*
X24840Y-21196D01*
X24896Y-21196D01*
X24934Y-21210D01*
X24953Y-21224D01*
X24971Y-21253D01*
X24971Y-21365D01*
X24953Y-20971D02*
X24971Y-20929D01*
X24990Y-20915D01*
X25028Y-20901D01*
X25084Y-20901D01*
X25121Y-20915D01*
X25140Y-20929D01*
X25159Y-20957D01*
X25159Y-21070D01*
X24765Y-21070D01*
X24765Y-20971D01*
X24784Y-20943D01*
X24803Y-20929D01*
X24840Y-20915D01*
X24878Y-20915D01*
X24915Y-20929D01*
X24934Y-20943D01*
X24953Y-20971D01*
X24953Y-21070D01*
X24765Y-20718D02*
X24765Y-20690D01*
X24784Y-20662D01*
X24803Y-20648D01*
X24840Y-20634D01*
X24915Y-20620D01*
X25009Y-20620D01*
X25084Y-20634D01*
X25121Y-20648D01*
X25140Y-20662D01*
X25159Y-20690D01*
X25159Y-20718D01*
X25140Y-20746D01*
X25121Y-20760D01*
X25084Y-20775D01*
X25009Y-20789D01*
X24915Y-20789D01*
X24840Y-20775D01*
X24803Y-20760D01*
X24784Y-20746D01*
X24765Y-20718D01*
X27159Y-21344D02*
X26765Y-21344D01*
X26765Y-21232D01*
X26784Y-21203D01*
X26803Y-21189D01*
X26840Y-21175D01*
X26896Y-21175D01*
X26934Y-21189D01*
X26953Y-21203D01*
X26971Y-21232D01*
X26971Y-21344D01*
X27046Y-21063D02*
X27046Y-20922D01*
X27159Y-21091D02*
X26765Y-20992D01*
X27159Y-20894D01*
X26765Y-20824D02*
X26765Y-20627D01*
X27159Y-20753D01*
X32105Y-21059D02*
X32105Y-20665D01*
X32217Y-20665D01*
X32246Y-20684D01*
X32260Y-20703D01*
X32274Y-20740D01*
X32274Y-20796D01*
X32260Y-20834D01*
X32246Y-20853D01*
X32217Y-20871D01*
X32105Y-20871D01*
X32386Y-20946D02*
X32527Y-20946D01*
X32358Y-21059D02*
X32457Y-20665D01*
X32555Y-21059D01*
X32808Y-21059D02*
X32639Y-21059D01*
X32724Y-21059D02*
X32724Y-20665D01*
X32696Y-20721D01*
X32667Y-20759D01*
X32639Y-20778D01*
X31659Y-21344D02*
X31265Y-21344D01*
X31265Y-21232D01*
X31284Y-21203D01*
X31303Y-21189D01*
X31340Y-21175D01*
X31396Y-21175D01*
X31434Y-21189D01*
X31453Y-21203D01*
X31471Y-21232D01*
X31471Y-21344D01*
X31546Y-21063D02*
X31546Y-20922D01*
X31659Y-21091D02*
X31265Y-20992D01*
X31659Y-20894D01*
X31303Y-20810D02*
X31284Y-20796D01*
X31265Y-20767D01*
X31265Y-20697D01*
X31284Y-20669D01*
X31303Y-20655D01*
X31340Y-20641D01*
X31378Y-20641D01*
X31434Y-20655D01*
X31659Y-20824D01*
X31659Y-20641D01*
X30659Y-21344D02*
X30265Y-21344D01*
X30265Y-21232D01*
X30284Y-21203D01*
X30303Y-21189D01*
X30340Y-21175D01*
X30396Y-21175D01*
X30434Y-21189D01*
X30453Y-21203D01*
X30471Y-21232D01*
X30471Y-21344D01*
X30546Y-21063D02*
X30546Y-20922D01*
X30659Y-21091D02*
X30265Y-20992D01*
X30659Y-20894D01*
X30265Y-20824D02*
X30265Y-20641D01*
X30415Y-20739D01*
X30415Y-20697D01*
X30434Y-20669D01*
X30453Y-20655D01*
X30490Y-20641D01*
X30584Y-20641D01*
X30621Y-20655D01*
X30640Y-20669D01*
X30659Y-20697D01*
X30659Y-20782D01*
X30640Y-20810D01*
X30621Y-20824D01*
X29659Y-21344D02*
X29265Y-21344D01*
X29265Y-21232D01*
X29284Y-21203D01*
X29303Y-21189D01*
X29340Y-21175D01*
X29396Y-21175D01*
X29434Y-21189D01*
X29453Y-21203D01*
X29471Y-21232D01*
X29471Y-21344D01*
X29546Y-21063D02*
X29546Y-20922D01*
X29659Y-21091D02*
X29265Y-20992D01*
X29659Y-20894D01*
X29396Y-20669D02*
X29659Y-20669D01*
X29246Y-20739D02*
X29528Y-20810D01*
X29528Y-20627D01*
X28659Y-21344D02*
X28265Y-21344D01*
X28265Y-21232D01*
X28284Y-21203D01*
X28303Y-21189D01*
X28340Y-21175D01*
X28396Y-21175D01*
X28434Y-21189D01*
X28453Y-21203D01*
X28471Y-21232D01*
X28471Y-21344D01*
X28546Y-21063D02*
X28546Y-20922D01*
X28659Y-21091D02*
X28265Y-20992D01*
X28659Y-20894D01*
X28265Y-20655D02*
X28265Y-20796D01*
X28453Y-20810D01*
X28434Y-20796D01*
X28415Y-20767D01*
X28415Y-20697D01*
X28434Y-20669D01*
X28453Y-20655D01*
X28490Y-20641D01*
X28584Y-20641D01*
X28621Y-20655D01*
X28640Y-20669D01*
X28659Y-20697D01*
X28659Y-20767D01*
X28640Y-20796D01*
X28621Y-20810D01*
X27659Y-21344D02*
X27265Y-21344D01*
X27265Y-21232D01*
X27284Y-21203D01*
X27303Y-21189D01*
X27340Y-21175D01*
X27396Y-21175D01*
X27434Y-21189D01*
X27453Y-21203D01*
X27471Y-21232D01*
X27471Y-21344D01*
X27546Y-21063D02*
X27546Y-20922D01*
X27659Y-21091D02*
X27265Y-20992D01*
X27659Y-20894D01*
X27265Y-20669D02*
X27265Y-20725D01*
X27284Y-20753D01*
X27303Y-20767D01*
X27359Y-20796D01*
X27434Y-20810D01*
X27584Y-20810D01*
X27621Y-20796D01*
X27640Y-20782D01*
X27659Y-20753D01*
X27659Y-20697D01*
X27640Y-20669D01*
X27621Y-20655D01*
X27584Y-20641D01*
X27490Y-20641D01*
X27453Y-20655D01*
X27434Y-20669D01*
X27415Y-20697D01*
X27415Y-20753D01*
X27434Y-20782D01*
X27453Y-20796D01*
X27490Y-20810D01*
X14265Y-28291D02*
X14659Y-28192D01*
X14265Y-28094D01*
X14265Y-27996D02*
X14584Y-27996D01*
X14621Y-27982D01*
X14640Y-27967D01*
X14659Y-27939D01*
X14659Y-27883D01*
X14640Y-27855D01*
X14621Y-27841D01*
X14584Y-27827D01*
X14265Y-27827D01*
X14640Y-27700D02*
X14659Y-27658D01*
X14659Y-27588D01*
X14640Y-27560D01*
X14621Y-27546D01*
X14584Y-27532D01*
X14546Y-27532D01*
X14509Y-27546D01*
X14490Y-27560D01*
X14471Y-27588D01*
X14453Y-27644D01*
X14434Y-27672D01*
X14415Y-27686D01*
X14378Y-27700D01*
X14340Y-27700D01*
X14303Y-27686D01*
X14284Y-27672D01*
X14265Y-27644D01*
X14265Y-27574D01*
X14284Y-27532D01*
X14453Y-27307D02*
X14471Y-27264D01*
X14490Y-27250D01*
X14528Y-27236D01*
X14584Y-27236D01*
X14621Y-27250D01*
X14640Y-27264D01*
X14659Y-27293D01*
X14659Y-27405D01*
X14265Y-27405D01*
X14265Y-27307D01*
X14284Y-27278D01*
X14303Y-27264D01*
X14340Y-27250D01*
X14378Y-27250D01*
X14415Y-27264D01*
X14434Y-27278D01*
X14453Y-27307D01*
X14453Y-27405D01*
X31291Y-27859D02*
X31192Y-27671D01*
X31122Y-27859D02*
X31122Y-27465D01*
X31235Y-27465D01*
X31263Y-27484D01*
X31277Y-27503D01*
X31291Y-27540D01*
X31291Y-27596D01*
X31277Y-27634D01*
X31263Y-27653D01*
X31235Y-27671D01*
X31122Y-27671D01*
X27204Y-27659D02*
X27204Y-27265D01*
X27317Y-27265D01*
X27345Y-27284D01*
X27359Y-27303D01*
X27373Y-27340D01*
X27373Y-27396D01*
X27359Y-27434D01*
X27345Y-27453D01*
X27317Y-27471D01*
X27204Y-27471D01*
X27500Y-27659D02*
X27500Y-27265D01*
X27570Y-27265D01*
X27612Y-27284D01*
X27640Y-27321D01*
X27654Y-27359D01*
X27668Y-27434D01*
X27668Y-27490D01*
X27654Y-27565D01*
X27640Y-27603D01*
X27612Y-27640D01*
X27570Y-27659D01*
X27500Y-27659D01*
X27795Y-27659D02*
X27795Y-27265D01*
X30275Y-25984D02*
X30246Y-25965D01*
X30204Y-25965D01*
X30162Y-25984D01*
X30134Y-26021D01*
X30120Y-26059D01*
X30106Y-26134D01*
X30106Y-26190D01*
X30120Y-26265D01*
X30134Y-26303D01*
X30162Y-26340D01*
X30204Y-26359D01*
X30232Y-26359D01*
X30275Y-26340D01*
X30289Y-26321D01*
X30289Y-26190D01*
X30232Y-26190D01*
X30415Y-26359D02*
X30415Y-25965D01*
X30584Y-26359D01*
X30584Y-25965D01*
X30724Y-26359D02*
X30724Y-25965D01*
X30795Y-25965D01*
X30837Y-25984D01*
X30865Y-26021D01*
X30879Y-26059D01*
X30893Y-26134D01*
X30893Y-26190D01*
X30879Y-26265D01*
X30865Y-26303D01*
X30837Y-26340D01*
X30795Y-26359D01*
X30724Y-26359D01*
X28106Y-25965D02*
X28204Y-26359D01*
X28303Y-25965D01*
X28570Y-26321D02*
X28556Y-26340D01*
X28514Y-26359D01*
X28485Y-26359D01*
X28443Y-26340D01*
X28415Y-26303D01*
X28401Y-26265D01*
X28387Y-26190D01*
X28387Y-26134D01*
X28401Y-26059D01*
X28415Y-26021D01*
X28443Y-25984D01*
X28485Y-25965D01*
X28514Y-25965D01*
X28556Y-25984D01*
X28570Y-26003D01*
X28865Y-26321D02*
X28851Y-26340D01*
X28809Y-26359D01*
X28781Y-26359D01*
X28739Y-26340D01*
X28710Y-26303D01*
X28696Y-26265D01*
X28682Y-26190D01*
X28682Y-26134D01*
X28696Y-26059D01*
X28710Y-26021D01*
X28739Y-25984D01*
X28781Y-25965D01*
X28809Y-25965D01*
X28851Y-25984D01*
X28865Y-26003D01*
X31909Y-28365D02*
X31515Y-28365D01*
X31515Y-28253D01*
X31534Y-28224D01*
X31553Y-28210D01*
X31590Y-28196D01*
X31646Y-28196D01*
X31684Y-28210D01*
X31703Y-28224D01*
X31721Y-28253D01*
X31721Y-28365D01*
X31909Y-27901D02*
X31721Y-28000D01*
X31909Y-28070D02*
X31515Y-28070D01*
X31515Y-27957D01*
X31534Y-27929D01*
X31553Y-27915D01*
X31590Y-27901D01*
X31646Y-27901D01*
X31684Y-27915D01*
X31703Y-27929D01*
X31721Y-27957D01*
X31721Y-28070D01*
X31515Y-27718D02*
X31515Y-27690D01*
X31534Y-27662D01*
X31553Y-27648D01*
X31590Y-27634D01*
X31665Y-27620D01*
X31759Y-27620D01*
X31834Y-27634D01*
X31871Y-27648D01*
X31890Y-27662D01*
X31909Y-27690D01*
X31909Y-27718D01*
X31890Y-27746D01*
X31871Y-27760D01*
X31834Y-27775D01*
X31759Y-27789D01*
X31665Y-27789D01*
X31590Y-27775D01*
X31553Y-27760D01*
X31534Y-27746D01*
X31515Y-27718D01*
X25659Y-28351D02*
X25265Y-28351D01*
X25265Y-28239D01*
X25284Y-28210D01*
X25303Y-28196D01*
X25340Y-28182D01*
X25396Y-28182D01*
X25434Y-28196D01*
X25453Y-28210D01*
X25471Y-28239D01*
X25471Y-28351D01*
X25453Y-28056D02*
X25453Y-27957D01*
X25659Y-27915D02*
X25659Y-28056D01*
X25265Y-28056D01*
X25265Y-27915D01*
X25265Y-27732D02*
X25265Y-27704D01*
X25284Y-27676D01*
X25303Y-27662D01*
X25340Y-27648D01*
X25415Y-27634D01*
X25509Y-27634D01*
X25584Y-27648D01*
X25621Y-27662D01*
X25640Y-27676D01*
X25659Y-27704D01*
X25659Y-27732D01*
X25640Y-27760D01*
X25621Y-27775D01*
X25584Y-27789D01*
X25509Y-27803D01*
X25415Y-27803D01*
X25340Y-27789D01*
X25303Y-27775D01*
X25284Y-27760D01*
X25265Y-27732D01*
X17659Y-28365D02*
X17265Y-28365D01*
X17265Y-28253D01*
X17284Y-28224D01*
X17303Y-28210D01*
X17340Y-28196D01*
X17396Y-28196D01*
X17434Y-28210D01*
X17453Y-28224D01*
X17471Y-28253D01*
X17471Y-28365D01*
X17659Y-28070D02*
X17265Y-28070D01*
X17265Y-28000D01*
X17284Y-27957D01*
X17321Y-27929D01*
X17359Y-27915D01*
X17434Y-27901D01*
X17490Y-27901D01*
X17565Y-27915D01*
X17603Y-27929D01*
X17640Y-27957D01*
X17659Y-28000D01*
X17659Y-28070D01*
X17265Y-27718D02*
X17265Y-27690D01*
X17284Y-27662D01*
X17303Y-27648D01*
X17340Y-27634D01*
X17415Y-27620D01*
X17509Y-27620D01*
X17584Y-27634D01*
X17621Y-27648D01*
X17640Y-27662D01*
X17659Y-27690D01*
X17659Y-27718D01*
X17640Y-27746D01*
X17621Y-27760D01*
X17584Y-27775D01*
X17509Y-27789D01*
X17415Y-27789D01*
X17340Y-27775D01*
X17303Y-27760D01*
X17284Y-27746D01*
X17265Y-27718D01*
X20659Y-21365D02*
X20265Y-21365D01*
X20265Y-21253D01*
X20284Y-21224D01*
X20303Y-21210D01*
X20340Y-21196D01*
X20396Y-21196D01*
X20434Y-21210D01*
X20453Y-21224D01*
X20471Y-21253D01*
X20471Y-21365D01*
X20621Y-20901D02*
X20640Y-20915D01*
X20659Y-20957D01*
X20659Y-20985D01*
X20640Y-21028D01*
X20603Y-21056D01*
X20565Y-21070D01*
X20490Y-21084D01*
X20434Y-21084D01*
X20359Y-21070D01*
X20321Y-21056D01*
X20284Y-21028D01*
X20265Y-20985D01*
X20265Y-20957D01*
X20284Y-20915D01*
X20303Y-20901D01*
X20659Y-20620D02*
X20659Y-20789D01*
X20659Y-20704D02*
X20265Y-20704D01*
X20321Y-20732D01*
X20359Y-20760D01*
X20378Y-20789D01*
X24659Y-21365D02*
X24265Y-21365D01*
X24265Y-21253D01*
X24284Y-21224D01*
X24303Y-21210D01*
X24340Y-21196D01*
X24396Y-21196D01*
X24434Y-21210D01*
X24453Y-21224D01*
X24471Y-21253D01*
X24471Y-21365D01*
X24453Y-20971D02*
X24471Y-20929D01*
X24490Y-20915D01*
X24528Y-20901D01*
X24584Y-20901D01*
X24621Y-20915D01*
X24640Y-20929D01*
X24659Y-20957D01*
X24659Y-21070D01*
X24265Y-21070D01*
X24265Y-20971D01*
X24284Y-20943D01*
X24303Y-20929D01*
X24340Y-20915D01*
X24378Y-20915D01*
X24415Y-20929D01*
X24434Y-20943D01*
X24453Y-20971D01*
X24453Y-21070D01*
X24659Y-20620D02*
X24659Y-20789D01*
X24659Y-20704D02*
X24265Y-20704D01*
X24321Y-20732D01*
X24359Y-20760D01*
X24378Y-20789D01*
X33055Y-21059D02*
X33055Y-20665D01*
X33167Y-20665D01*
X33196Y-20684D01*
X33210Y-20703D01*
X33224Y-20740D01*
X33224Y-20796D01*
X33210Y-20834D01*
X33196Y-20853D01*
X33167Y-20871D01*
X33055Y-20871D01*
X33336Y-20946D02*
X33477Y-20946D01*
X33308Y-21059D02*
X33407Y-20665D01*
X33505Y-21059D01*
X33660Y-20665D02*
X33688Y-20665D01*
X33716Y-20684D01*
X33730Y-20703D01*
X33744Y-20740D01*
X33758Y-20815D01*
X33758Y-20909D01*
X33744Y-20984D01*
X33730Y-21021D01*
X33716Y-21040D01*
X33688Y-21059D01*
X33660Y-21059D01*
X33632Y-21040D01*
X33617Y-21021D01*
X33603Y-20984D01*
X33589Y-20909D01*
X33589Y-20815D01*
X33603Y-20740D01*
X33617Y-20703D01*
X33632Y-20684D01*
X33660Y-20665D01*
G54D14*
X14000Y-19500D02*
X34000Y-19500D01*
X14000Y-29500D02*
X14000Y-19500D01*
X34000Y-29500D02*
X14000Y-29500D01*
X34000Y-19500D02*
X34000Y-29500D01*
G54D12*
X24970Y-26470D02*
X21030Y-26470D01*
X21030Y-26470D02*
X21030Y-22530D01*
X24780Y-22530D02*
X21030Y-22530D01*
X24970Y-22720D02*
X24970Y-26470D01*
X24780Y-22530D02*
X24970Y-22720D01*
G54D15*
X24750Y-23000D02*
G75*
G03X24750Y-23000I-250J0D01*
G74*
G01*
G54D16*
X27850Y-27150D02*
G75*
G03X27850Y-27150I-50J0D01*
G74*
G01*
X27800Y-26700D02*
X27800Y-27100D01*
X27800Y-27100D02*
X27200Y-27100D01*
X27200Y-27100D02*
X27200Y-26700D01*
X27200Y-26300D02*
X27200Y-25900D01*
X27200Y-25900D02*
X27800Y-25900D01*
X27800Y-25900D02*
X27800Y-26300D01*
G54D15*
X31000Y-28500D02*
X28000Y-28500D01*
X28000Y-26500D02*
X31000Y-26500D01*
X31000Y-26500D02*
X31000Y-28500D01*
X28000Y-28500D02*
X28000Y-26500D01*
G54D16*
X30200Y-24200D02*
G75*
G03X30200Y-24200I-50J0D01*
G74*
G01*
X29700Y-24200D02*
X30100Y-24200D01*
X30100Y-24200D02*
X30100Y-24800D01*
X30100Y-24800D02*
X29700Y-24800D01*
X29300Y-24800D02*
X28900Y-24800D01*
X28900Y-24800D02*
X28900Y-24200D01*
X28900Y-24200D02*
X29300Y-24200D01*
X30100Y-26150D02*
G75*
G03X30100Y-26150I-50J0D01*
G74*
G01*
X30050Y-25700D02*
X30050Y-26100D01*
X30050Y-26100D02*
X29450Y-26100D01*
X29450Y-26100D02*
X29450Y-25700D01*
X29450Y-25300D02*
X29450Y-24900D01*
X29450Y-24900D02*
X30050Y-24900D01*
X30050Y-24900D02*
X30050Y-25300D01*
X30850Y-25650D02*
G75*
G03X30850Y-25650I-50J0D01*
G74*
G01*
X30800Y-25200D02*
X30800Y-25600D01*
X30800Y-25600D02*
X30200Y-25600D01*
X30200Y-25600D02*
X30200Y-25200D01*
X30200Y-24800D02*
X30200Y-24400D01*
X30200Y-24400D02*
X30800Y-24400D01*
X30800Y-24400D02*
X30800Y-24800D01*
X26000Y-20600D02*
G75*
G03X26000Y-20600I-50J0D01*
G74*
G01*
X25950Y-21050D02*
X25950Y-20650D01*
X25950Y-20650D02*
X26550Y-20650D01*
X26550Y-20650D02*
X26550Y-21050D01*
X26550Y-21450D02*
X26550Y-21850D01*
X26550Y-21850D02*
X25950Y-21850D01*
X25950Y-21850D02*
X25950Y-21450D01*
X28000Y-23850D02*
G75*
G03X28000Y-23850I-50J0D01*
G74*
G01*
X27950Y-24300D02*
X27950Y-23900D01*
X27950Y-23900D02*
X28550Y-23900D01*
X28550Y-23900D02*
X28550Y-24300D01*
X28550Y-24700D02*
X28550Y-25100D01*
X28550Y-25100D02*
X27950Y-25100D01*
X27950Y-25100D02*
X27950Y-24700D01*
X19000Y-25700D02*
X19000Y-24800D01*
X19000Y-24800D02*
X19500Y-24800D01*
X19500Y-24800D02*
X19500Y-25700D01*
X19500Y-25700D02*
X19000Y-25700D01*
X21550Y-20750D02*
X22450Y-20750D01*
X22450Y-20750D02*
X22450Y-21250D01*
X22450Y-21250D02*
X21550Y-21250D01*
X21550Y-21250D02*
X21550Y-20750D01*
X33250Y-27100D02*
G75*
G03X33250Y-27100I-50J0D01*
G74*
G01*
X33200Y-27550D02*
X33200Y-27150D01*
X33200Y-27150D02*
X33800Y-27150D01*
X33800Y-27150D02*
X33800Y-27550D01*
X33800Y-27950D02*
X33800Y-28350D01*
X33800Y-28350D02*
X33200Y-28350D01*
X33200Y-28350D02*
X33200Y-27950D01*
X24450Y-28000D02*
X23550Y-28000D01*
X23550Y-28000D02*
X23550Y-27500D01*
X23550Y-27500D02*
X24450Y-27500D01*
X24450Y-27500D02*
X24450Y-28000D01*
X26250Y-24050D02*
X26250Y-24950D01*
X26250Y-24950D02*
X25750Y-24950D01*
X25750Y-24950D02*
X25750Y-24050D01*
X25750Y-24050D02*
X26250Y-24050D01*
X25750Y-20800D02*
X25750Y-21700D01*
X25750Y-21700D02*
X25250Y-21700D01*
X25250Y-21700D02*
X25250Y-20800D01*
X25250Y-20800D02*
X25750Y-20800D01*
X27250Y-24100D02*
G75*
G03X27250Y-24100I-50J0D01*
G74*
G01*
X27200Y-24550D02*
X27200Y-24150D01*
X27200Y-24150D02*
X27800Y-24150D01*
X27800Y-24150D02*
X27800Y-24550D01*
X27800Y-24950D02*
X27800Y-25350D01*
X27800Y-25350D02*
X27200Y-25350D01*
X27200Y-25350D02*
X27200Y-24950D01*
X26500Y-25200D02*
X26500Y-24300D01*
X26500Y-24300D02*
X27000Y-24300D01*
X27000Y-24300D02*
X27000Y-25200D01*
X27000Y-25200D02*
X26500Y-25200D01*
X15250Y-27100D02*
G75*
G03X15250Y-27100I-50J0D01*
G74*
G01*
X15200Y-27550D02*
X15200Y-27150D01*
X15200Y-27150D02*
X15800Y-27150D01*
X15800Y-27150D02*
X15800Y-27550D01*
X15800Y-27950D02*
X15800Y-28350D01*
X15800Y-28350D02*
X15200Y-28350D01*
X15200Y-28350D02*
X15200Y-27950D01*
X17850Y-22400D02*
G75*
G03X17850Y-22400I-50J0D01*
G74*
G01*
X17800Y-21950D02*
X17800Y-22350D01*
X17800Y-22350D02*
X17200Y-22350D01*
X17200Y-22350D02*
X17200Y-21950D01*
X17200Y-21550D02*
X17200Y-21150D01*
X17200Y-21150D02*
X17800Y-21150D01*
X17800Y-21150D02*
X17800Y-21550D01*
X16850Y-22400D02*
G75*
G03X16850Y-22400I-50J0D01*
G74*
G01*
X16800Y-21950D02*
X16800Y-22350D01*
X16800Y-22350D02*
X16200Y-22350D01*
X16200Y-22350D02*
X16200Y-21950D01*
X16200Y-21550D02*
X16200Y-21150D01*
X16200Y-21150D02*
X16800Y-21150D01*
X16800Y-21150D02*
X16800Y-21550D01*
G54D17*
X15054Y-22132D02*
X15054Y-22004D01*
X15054Y-22004D02*
X14857Y-22004D01*
X14857Y-22132D02*
X14857Y-22004D01*
X15054Y-22132D02*
X14857Y-22132D01*
X15054Y-22377D02*
X15054Y-22318D01*
X15054Y-22318D02*
X14955Y-22318D01*
X14955Y-22377D02*
X14955Y-22318D01*
X15054Y-22377D02*
X14955Y-22377D01*
X15054Y-22182D02*
X15054Y-22123D01*
X15054Y-22123D02*
X14955Y-22123D01*
X14955Y-22182D02*
X14955Y-22123D01*
X15054Y-22182D02*
X14955Y-22182D01*
X15054Y-22328D02*
X15054Y-22172D01*
X15054Y-22172D02*
X14985Y-22172D01*
X14985Y-22328D02*
X14985Y-22172D01*
X15054Y-22328D02*
X14985Y-22328D01*
X15643Y-22132D02*
X15643Y-22004D01*
X15643Y-22004D02*
X15446Y-22004D01*
X15446Y-22132D02*
X15446Y-22004D01*
X15643Y-22132D02*
X15446Y-22132D01*
X15643Y-22496D02*
X15643Y-22368D01*
X15643Y-22368D02*
X15446Y-22368D01*
X15446Y-22496D02*
X15446Y-22368D01*
X15643Y-22496D02*
X15446Y-22496D01*
X15545Y-22182D02*
X15545Y-22123D01*
X15545Y-22123D02*
X15446Y-22123D01*
X15446Y-22182D02*
X15446Y-22123D01*
X15545Y-22182D02*
X15446Y-22182D01*
X15545Y-22377D02*
X15545Y-22318D01*
X15545Y-22318D02*
X15446Y-22318D01*
X15446Y-22377D02*
X15446Y-22318D01*
X15545Y-22377D02*
X15446Y-22377D01*
X15515Y-22328D02*
X15515Y-22172D01*
X15515Y-22172D02*
X15446Y-22172D01*
X15446Y-22328D02*
X15446Y-22172D01*
X15515Y-22328D02*
X15446Y-22328D01*
X15250Y-22289D02*
X15250Y-22211D01*
X15250Y-22211D02*
X15172Y-22211D01*
X15172Y-22289D02*
X15172Y-22211D01*
X15250Y-22289D02*
X15172Y-22289D01*
X15054Y-22486D02*
X15054Y-22368D01*
X15054Y-22368D02*
X14936Y-22368D01*
X14936Y-22486D02*
X14936Y-22368D01*
X15054Y-22486D02*
X14936Y-22486D01*
X14886Y-22496D02*
X14886Y-22407D01*
X14886Y-22407D02*
X14857Y-22407D01*
X14857Y-22496D02*
X14857Y-22407D01*
X14886Y-22496D02*
X14857Y-22496D01*
G54D18*
X15044Y-22024D02*
X15456Y-22024D01*
X15446Y-22476D02*
X14886Y-22476D01*
G54D19*
X14944Y-22427D02*
G75*
G03X14944Y-22427I-28J0D01*
G74*
G01*
G54D18*
X14857Y-22387D02*
G75*
G03X14857Y-22113I0J137D01*
G74*
G01*
X15643Y-22113D02*
G75*
G03X15643Y-22387I0J-137D01*
G74*
G01*
G54D17*
X15054Y-21382D02*
X15054Y-21254D01*
X15054Y-21254D02*
X14857Y-21254D01*
X14857Y-21382D02*
X14857Y-21254D01*
X15054Y-21382D02*
X14857Y-21382D01*
X15054Y-21627D02*
X15054Y-21568D01*
X15054Y-21568D02*
X14955Y-21568D01*
X14955Y-21627D02*
X14955Y-21568D01*
X15054Y-21627D02*
X14955Y-21627D01*
X15054Y-21432D02*
X15054Y-21373D01*
X15054Y-21373D02*
X14955Y-21373D01*
X14955Y-21432D02*
X14955Y-21373D01*
X15054Y-21432D02*
X14955Y-21432D01*
X15054Y-21578D02*
X15054Y-21422D01*
X15054Y-21422D02*
X14985Y-21422D01*
X14985Y-21578D02*
X14985Y-21422D01*
X15054Y-21578D02*
X14985Y-21578D01*
X15643Y-21382D02*
X15643Y-21254D01*
X15643Y-21254D02*
X15446Y-21254D01*
X15446Y-21382D02*
X15446Y-21254D01*
X15643Y-21382D02*
X15446Y-21382D01*
X15643Y-21746D02*
X15643Y-21618D01*
X15643Y-21618D02*
X15446Y-21618D01*
X15446Y-21746D02*
X15446Y-21618D01*
X15643Y-21746D02*
X15446Y-21746D01*
X15545Y-21432D02*
X15545Y-21373D01*
X15545Y-21373D02*
X15446Y-21373D01*
X15446Y-21432D02*
X15446Y-21373D01*
X15545Y-21432D02*
X15446Y-21432D01*
X15545Y-21627D02*
X15545Y-21568D01*
X15545Y-21568D02*
X15446Y-21568D01*
X15446Y-21627D02*
X15446Y-21568D01*
X15545Y-21627D02*
X15446Y-21627D01*
X15515Y-21578D02*
X15515Y-21422D01*
X15515Y-21422D02*
X15446Y-21422D01*
X15446Y-21578D02*
X15446Y-21422D01*
X15515Y-21578D02*
X15446Y-21578D01*
X15250Y-21539D02*
X15250Y-21461D01*
X15250Y-21461D02*
X15172Y-21461D01*
X15172Y-21539D02*
X15172Y-21461D01*
X15250Y-21539D02*
X15172Y-21539D01*
X15054Y-21736D02*
X15054Y-21618D01*
X15054Y-21618D02*
X14936Y-21618D01*
X14936Y-21736D02*
X14936Y-21618D01*
X15054Y-21736D02*
X14936Y-21736D01*
X14886Y-21746D02*
X14886Y-21657D01*
X14886Y-21657D02*
X14857Y-21657D01*
X14857Y-21746D02*
X14857Y-21657D01*
X14886Y-21746D02*
X14857Y-21746D01*
G54D18*
X15044Y-21274D02*
X15456Y-21274D01*
X15446Y-21726D02*
X14886Y-21726D01*
G54D19*
X14944Y-21677D02*
G75*
G03X14944Y-21677I-28J0D01*
G74*
G01*
G54D18*
X14857Y-21637D02*
G75*
G03X14857Y-21363I0J137D01*
G74*
G01*
X15643Y-21363D02*
G75*
G03X15643Y-21637I0J-137D01*
G74*
G01*
G54D16*
X16250Y-27100D02*
G75*
G03X16250Y-27100I-50J0D01*
G74*
G01*
X16200Y-27550D02*
X16200Y-27150D01*
X16200Y-27150D02*
X16800Y-27150D01*
X16800Y-27150D02*
X16800Y-27550D01*
X16800Y-27950D02*
X16800Y-28350D01*
X16800Y-28350D02*
X16200Y-28350D01*
X16200Y-28350D02*
X16200Y-27950D01*
X33700Y-21200D02*
G75*
G03X33700Y-21200I-50J0D01*
G74*
G01*
X33200Y-21200D02*
X33600Y-21200D01*
X33600Y-21200D02*
X33600Y-21800D01*
X33600Y-21800D02*
X33200Y-21800D01*
X32800Y-21800D02*
X32400Y-21800D01*
X32400Y-21800D02*
X32400Y-21200D01*
X32400Y-21200D02*
X32800Y-21200D01*
X16750Y-22850D02*
G75*
G03X16750Y-22850I-50J0D01*
G74*
G01*
X16700Y-23300D02*
X16700Y-22900D01*
X16700Y-22900D02*
X17300Y-22900D01*
X17300Y-22900D02*
X17300Y-23300D01*
X17300Y-23700D02*
X17300Y-24100D01*
X17300Y-24100D02*
X16700Y-24100D01*
X16700Y-24100D02*
X16700Y-23700D01*
G54D20*
X17205Y-24224D02*
X17205Y-24776D01*
X17146Y-24224D02*
X17854Y-24224D01*
X17854Y-24224D02*
X17854Y-24776D01*
X17854Y-24776D02*
X17146Y-24776D01*
X17146Y-24776D02*
X17146Y-24224D01*
G54D21*
X31000Y-23750D02*
X31000Y-26250D01*
X33000Y-23750D02*
X33000Y-26250D01*
X32000Y-27250D02*
G75*
G03X33000Y-26250I0J1000D01*
G74*
G01*
X31000Y-26250D02*
G75*
G03X32000Y-27250I1000J0D01*
G74*
G01*
X33000Y-23750D02*
G75*
G03X32000Y-22750I-1000J0D01*
G74*
G01*
X32000Y-22750D02*
G75*
G03X31000Y-23750I0J-1000D01*
G74*
G01*
G54D17*
X33382Y-22696D02*
X33254Y-22696D01*
X33254Y-22696D02*
X33254Y-22893D01*
X33382Y-22893D02*
X33254Y-22893D01*
X33382Y-22696D02*
X33382Y-22893D01*
X33627Y-22696D02*
X33568Y-22696D01*
X33568Y-22696D02*
X33568Y-22795D01*
X33627Y-22795D02*
X33568Y-22795D01*
X33627Y-22696D02*
X33627Y-22795D01*
X33432Y-22696D02*
X33373Y-22696D01*
X33373Y-22696D02*
X33373Y-22795D01*
X33432Y-22795D02*
X33373Y-22795D01*
X33432Y-22696D02*
X33432Y-22795D01*
X33578Y-22696D02*
X33422Y-22696D01*
X33422Y-22696D02*
X33422Y-22765D01*
X33578Y-22765D02*
X33422Y-22765D01*
X33578Y-22696D02*
X33578Y-22765D01*
X33382Y-22107D02*
X33254Y-22107D01*
X33254Y-22107D02*
X33254Y-22304D01*
X33382Y-22304D02*
X33254Y-22304D01*
X33382Y-22107D02*
X33382Y-22304D01*
X33746Y-22107D02*
X33618Y-22107D01*
X33618Y-22107D02*
X33618Y-22304D01*
X33746Y-22304D02*
X33618Y-22304D01*
X33746Y-22107D02*
X33746Y-22304D01*
X33432Y-22205D02*
X33373Y-22205D01*
X33373Y-22205D02*
X33373Y-22304D01*
X33432Y-22304D02*
X33373Y-22304D01*
X33432Y-22205D02*
X33432Y-22304D01*
X33627Y-22205D02*
X33568Y-22205D01*
X33568Y-22205D02*
X33568Y-22304D01*
X33627Y-22304D02*
X33568Y-22304D01*
X33627Y-22205D02*
X33627Y-22304D01*
X33578Y-22235D02*
X33422Y-22235D01*
X33422Y-22235D02*
X33422Y-22304D01*
X33578Y-22304D02*
X33422Y-22304D01*
X33578Y-22235D02*
X33578Y-22304D01*
X33539Y-22500D02*
X33461Y-22500D01*
X33461Y-22500D02*
X33461Y-22578D01*
X33539Y-22578D02*
X33461Y-22578D01*
X33539Y-22500D02*
X33539Y-22578D01*
X33736Y-22696D02*
X33618Y-22696D01*
X33618Y-22696D02*
X33618Y-22814D01*
X33736Y-22814D02*
X33618Y-22814D01*
X33736Y-22696D02*
X33736Y-22814D01*
X33746Y-22864D02*
X33657Y-22864D01*
X33657Y-22864D02*
X33657Y-22893D01*
X33746Y-22893D02*
X33657Y-22893D01*
X33746Y-22864D02*
X33746Y-22893D01*
G54D18*
X33274Y-22706D02*
X33274Y-22294D01*
X33726Y-22304D02*
X33726Y-22864D01*
G54D19*
X33705Y-22834D02*
G75*
G03X33705Y-22834I-28J0D01*
G74*
G01*
G54D18*
X33637Y-22893D02*
G75*
G03X33363Y-22893I-137J0D01*
G74*
G01*
X33363Y-22107D02*
G75*
G03X33637Y-22107I137J0D01*
G74*
G01*
G54D17*
X17632Y-23696D02*
X17504Y-23696D01*
X17504Y-23696D02*
X17504Y-23893D01*
X17632Y-23893D02*
X17504Y-23893D01*
X17632Y-23696D02*
X17632Y-23893D01*
X17877Y-23696D02*
X17818Y-23696D01*
X17818Y-23696D02*
X17818Y-23795D01*
X17877Y-23795D02*
X17818Y-23795D01*
X17877Y-23696D02*
X17877Y-23795D01*
X17682Y-23696D02*
X17623Y-23696D01*
X17623Y-23696D02*
X17623Y-23795D01*
X17682Y-23795D02*
X17623Y-23795D01*
X17682Y-23696D02*
X17682Y-23795D01*
X17828Y-23696D02*
X17672Y-23696D01*
X17672Y-23696D02*
X17672Y-23765D01*
X17828Y-23765D02*
X17672Y-23765D01*
X17828Y-23696D02*
X17828Y-23765D01*
X17632Y-23107D02*
X17504Y-23107D01*
X17504Y-23107D02*
X17504Y-23304D01*
X17632Y-23304D02*
X17504Y-23304D01*
X17632Y-23107D02*
X17632Y-23304D01*
X17996Y-23107D02*
X17868Y-23107D01*
X17868Y-23107D02*
X17868Y-23304D01*
X17996Y-23304D02*
X17868Y-23304D01*
X17996Y-23107D02*
X17996Y-23304D01*
X17682Y-23205D02*
X17623Y-23205D01*
X17623Y-23205D02*
X17623Y-23304D01*
X17682Y-23304D02*
X17623Y-23304D01*
X17682Y-23205D02*
X17682Y-23304D01*
X17877Y-23205D02*
X17818Y-23205D01*
X17818Y-23205D02*
X17818Y-23304D01*
X17877Y-23304D02*
X17818Y-23304D01*
X17877Y-23205D02*
X17877Y-23304D01*
X17828Y-23235D02*
X17672Y-23235D01*
X17672Y-23235D02*
X17672Y-23304D01*
X17828Y-23304D02*
X17672Y-23304D01*
X17828Y-23235D02*
X17828Y-23304D01*
X17789Y-23500D02*
X17711Y-23500D01*
X17711Y-23500D02*
X17711Y-23578D01*
X17789Y-23578D02*
X17711Y-23578D01*
X17789Y-23500D02*
X17789Y-23578D01*
X17986Y-23696D02*
X17868Y-23696D01*
X17868Y-23696D02*
X17868Y-23814D01*
X17986Y-23814D02*
X17868Y-23814D01*
X17986Y-23696D02*
X17986Y-23814D01*
X17996Y-23864D02*
X17907Y-23864D01*
X17907Y-23864D02*
X17907Y-23893D01*
X17996Y-23893D02*
X17907Y-23893D01*
X17996Y-23864D02*
X17996Y-23893D01*
G54D18*
X17524Y-23706D02*
X17524Y-23294D01*
X17976Y-23304D02*
X17976Y-23864D01*
G54D19*
X17955Y-23834D02*
G75*
G03X17955Y-23834I-28J0D01*
G74*
G01*
G54D18*
X17887Y-23893D02*
G75*
G03X17613Y-23893I-137J0D01*
G74*
G01*
X17613Y-23107D02*
G75*
G03X17887Y-23107I137J0D01*
G74*
G01*
G54D20*
X13606Y-23675D02*
X13528Y-23675D01*
X13606Y-26825D02*
X13528Y-26825D01*
X15732Y-23675D02*
X15732Y-26825D01*
X15732Y-26825D02*
X13606Y-26825D01*
X13528Y-26825D02*
X13528Y-23675D01*
X13606Y-23675D02*
X15732Y-23675D01*
G54D16*
X16825Y-25955D02*
X16565Y-25695D01*
X16765Y-25955D02*
X16565Y-25760D01*
X17255Y-25445D02*
X17255Y-25225D01*
X16745Y-25445D02*
X16745Y-25225D01*
X17000Y-25955D02*
X17000Y-26175D01*
X17255Y-25955D02*
X17255Y-26175D01*
X16745Y-25955D02*
X16745Y-26175D01*
X17000Y-25445D02*
X17000Y-25225D01*
X16565Y-25445D02*
X17435Y-25445D01*
X17435Y-25445D02*
X17435Y-25955D01*
X17435Y-25955D02*
X16565Y-25955D01*
X16565Y-25955D02*
X16565Y-25445D01*
G54D15*
X23242Y-24890D02*
X22642Y-24890D01*
X23185Y-24471D02*
X23214Y-24490D01*
X23242Y-24547D01*
X23242Y-24585D01*
X23214Y-24642D01*
X23157Y-24680D01*
X23100Y-24699D01*
X22985Y-24719D01*
X22900Y-24719D01*
X22785Y-24699D01*
X22728Y-24680D01*
X22671Y-24642D01*
X22642Y-24585D01*
X22642Y-24547D01*
X22671Y-24490D01*
X22700Y-24471D01*
X23242Y-24090D02*
X23242Y-24319D01*
X23242Y-24204D02*
X22642Y-24204D01*
X22728Y-24242D01*
X22785Y-24280D01*
X22814Y-24319D01*
G54D16*
X27458Y-25801D02*
X27375Y-25682D01*
X27315Y-25801D02*
X27315Y-25551D01*
X27410Y-25551D01*
X27434Y-25563D01*
X27446Y-25575D01*
X27458Y-25598D01*
X27458Y-25634D01*
X27446Y-25658D01*
X27434Y-25670D01*
X27410Y-25682D01*
X27315Y-25682D01*
X27696Y-25801D02*
X27553Y-25801D01*
X27625Y-25801D02*
X27625Y-25551D01*
X27601Y-25586D01*
X27577Y-25610D01*
X27553Y-25622D01*
G54D15*
X28204Y-25661D02*
X28204Y-25261D01*
X28357Y-25261D01*
X28395Y-25280D01*
X28414Y-25300D01*
X28433Y-25338D01*
X28433Y-25395D01*
X28414Y-25433D01*
X28395Y-25452D01*
X28357Y-25471D01*
X28204Y-25471D01*
X28585Y-25300D02*
X28604Y-25280D01*
X28642Y-25261D01*
X28738Y-25261D01*
X28776Y-25280D01*
X28795Y-25300D01*
X28814Y-25338D01*
X28814Y-25376D01*
X28795Y-25433D01*
X28566Y-25661D01*
X28814Y-25661D01*
G54D16*
X29458Y-24101D02*
X29339Y-24101D01*
X29339Y-23851D01*
X29529Y-23875D02*
X29541Y-23863D01*
X29565Y-23851D01*
X29625Y-23851D01*
X29648Y-23863D01*
X29660Y-23875D01*
X29672Y-23898D01*
X29672Y-23922D01*
X29660Y-23958D01*
X29517Y-24101D01*
X29672Y-24101D01*
X29327Y-25660D02*
X29339Y-25672D01*
X29351Y-25708D01*
X29351Y-25732D01*
X29339Y-25767D01*
X29315Y-25791D01*
X29291Y-25803D01*
X29244Y-25815D01*
X29208Y-25815D01*
X29160Y-25803D01*
X29136Y-25791D01*
X29113Y-25767D01*
X29101Y-25732D01*
X29101Y-25708D01*
X29113Y-25672D01*
X29125Y-25660D01*
X29351Y-25422D02*
X29351Y-25565D01*
X29351Y-25494D02*
X29101Y-25494D01*
X29136Y-25517D01*
X29160Y-25541D01*
X29172Y-25565D01*
X29351Y-25184D02*
X29351Y-25327D01*
X29351Y-25255D02*
X29101Y-25255D01*
X29136Y-25279D01*
X29160Y-25303D01*
X29172Y-25327D01*
X30339Y-23577D02*
X30327Y-23589D01*
X30291Y-23601D01*
X30267Y-23601D01*
X30232Y-23589D01*
X30208Y-23565D01*
X30196Y-23541D01*
X30184Y-23494D01*
X30184Y-23458D01*
X30196Y-23410D01*
X30208Y-23386D01*
X30232Y-23363D01*
X30267Y-23351D01*
X30291Y-23351D01*
X30327Y-23363D01*
X30339Y-23375D01*
X30577Y-23601D02*
X30434Y-23601D01*
X30505Y-23601D02*
X30505Y-23351D01*
X30482Y-23386D01*
X30458Y-23410D01*
X30434Y-23422D01*
X30732Y-23351D02*
X30755Y-23351D01*
X30779Y-23363D01*
X30791Y-23375D01*
X30803Y-23398D01*
X30815Y-23446D01*
X30815Y-23505D01*
X30803Y-23553D01*
X30791Y-23577D01*
X30779Y-23589D01*
X30755Y-23601D01*
X30732Y-23601D01*
X30708Y-23589D01*
X30696Y-23577D01*
X30684Y-23553D01*
X30672Y-23505D01*
X30672Y-23446D01*
X30684Y-23398D01*
X30696Y-23375D01*
X30708Y-23363D01*
X30732Y-23351D01*
X26208Y-22327D02*
X26196Y-22339D01*
X26160Y-22351D01*
X26136Y-22351D01*
X26101Y-22339D01*
X26077Y-22315D01*
X26065Y-22291D01*
X26053Y-22244D01*
X26053Y-22208D01*
X26065Y-22160D01*
X26077Y-22136D01*
X26101Y-22113D01*
X26136Y-22101D01*
X26160Y-22101D01*
X26196Y-22113D01*
X26208Y-22125D01*
X26291Y-22101D02*
X26446Y-22101D01*
X26363Y-22196D01*
X26398Y-22196D01*
X26422Y-22208D01*
X26434Y-22220D01*
X26446Y-22244D01*
X26446Y-22303D01*
X26434Y-22327D01*
X26422Y-22339D01*
X26398Y-22351D01*
X26327Y-22351D01*
X26303Y-22339D01*
X26291Y-22327D01*
X28208Y-23577D02*
X28196Y-23589D01*
X28160Y-23601D01*
X28136Y-23601D01*
X28101Y-23589D01*
X28077Y-23565D01*
X28065Y-23541D01*
X28053Y-23494D01*
X28053Y-23458D01*
X28065Y-23410D01*
X28077Y-23386D01*
X28101Y-23363D01*
X28136Y-23351D01*
X28160Y-23351D01*
X28196Y-23363D01*
X28208Y-23375D01*
X28446Y-23601D02*
X28303Y-23601D01*
X28375Y-23601D02*
X28375Y-23351D01*
X28351Y-23386D01*
X28327Y-23410D01*
X28303Y-23422D01*
G54D22*
X19220Y-26061D02*
X19211Y-26071D01*
X19185Y-26080D01*
X19168Y-26080D01*
X19142Y-26071D01*
X19125Y-26052D01*
X19117Y-26033D01*
X19108Y-25995D01*
X19108Y-25966D01*
X19117Y-25928D01*
X19125Y-25909D01*
X19142Y-25890D01*
X19168Y-25880D01*
X19185Y-25880D01*
X19211Y-25890D01*
X19220Y-25900D01*
X19374Y-25880D02*
X19340Y-25880D01*
X19322Y-25890D01*
X19314Y-25900D01*
X19297Y-25928D01*
X19288Y-25966D01*
X19288Y-26042D01*
X19297Y-26061D01*
X19305Y-26071D01*
X19322Y-26080D01*
X19357Y-26080D01*
X19374Y-26071D01*
X19382Y-26061D01*
X19391Y-26042D01*
X19391Y-25995D01*
X19382Y-25976D01*
X19374Y-25966D01*
X19357Y-25957D01*
X19322Y-25957D01*
X19305Y-25966D01*
X19297Y-25976D01*
X19288Y-25995D01*
X21970Y-21561D02*
X21961Y-21571D01*
X21935Y-21580D01*
X21918Y-21580D01*
X21892Y-21571D01*
X21875Y-21552D01*
X21867Y-21533D01*
X21858Y-21495D01*
X21858Y-21466D01*
X21867Y-21428D01*
X21875Y-21409D01*
X21892Y-21390D01*
X21918Y-21380D01*
X21935Y-21380D01*
X21961Y-21390D01*
X21970Y-21400D01*
X22030Y-21380D02*
X22150Y-21380D01*
X22072Y-21580D01*
G54D16*
X33077Y-27741D02*
X33089Y-27753D01*
X33101Y-27789D01*
X33101Y-27813D01*
X33089Y-27848D01*
X33065Y-27872D01*
X33041Y-27884D01*
X32994Y-27896D01*
X32958Y-27896D01*
X32910Y-27884D01*
X32886Y-27872D01*
X32863Y-27848D01*
X32851Y-27813D01*
X32851Y-27789D01*
X32863Y-27753D01*
X32875Y-27741D01*
X33101Y-27622D02*
X33101Y-27575D01*
X33089Y-27551D01*
X33077Y-27539D01*
X33041Y-27515D01*
X32994Y-27503D01*
X32898Y-27503D01*
X32875Y-27515D01*
X32863Y-27527D01*
X32851Y-27551D01*
X32851Y-27598D01*
X32863Y-27622D01*
X32875Y-27634D01*
X32898Y-27646D01*
X32958Y-27646D01*
X32982Y-27634D01*
X32994Y-27622D01*
X33005Y-27598D01*
X33005Y-27551D01*
X32994Y-27527D01*
X32982Y-27515D01*
X32958Y-27503D01*
G54D22*
X23970Y-27361D02*
X23961Y-27371D01*
X23935Y-27380D01*
X23918Y-27380D01*
X23892Y-27371D01*
X23875Y-27352D01*
X23867Y-27333D01*
X23858Y-27295D01*
X23858Y-27266D01*
X23867Y-27228D01*
X23875Y-27209D01*
X23892Y-27190D01*
X23918Y-27180D01*
X23935Y-27180D01*
X23961Y-27190D01*
X23970Y-27200D01*
X24072Y-27266D02*
X24055Y-27257D01*
X24047Y-27247D01*
X24038Y-27228D01*
X24038Y-27219D01*
X24047Y-27200D01*
X24055Y-27190D01*
X24072Y-27180D01*
X24107Y-27180D01*
X24124Y-27190D01*
X24132Y-27200D01*
X24141Y-27219D01*
X24141Y-27228D01*
X24132Y-27247D01*
X24124Y-27257D01*
X24107Y-27266D01*
X24072Y-27266D01*
X24055Y-27276D01*
X24047Y-27285D01*
X24038Y-27304D01*
X24038Y-27342D01*
X24047Y-27361D01*
X24055Y-27371D01*
X24072Y-27380D01*
X24107Y-27380D01*
X24124Y-27371D01*
X24132Y-27361D01*
X24141Y-27342D01*
X24141Y-27304D01*
X24132Y-27285D01*
X24124Y-27276D01*
X24107Y-27266D01*
X25970Y-25311D02*
X25961Y-25321D01*
X25935Y-25330D01*
X25918Y-25330D01*
X25892Y-25321D01*
X25875Y-25302D01*
X25867Y-25283D01*
X25858Y-25245D01*
X25858Y-25216D01*
X25867Y-25178D01*
X25875Y-25159D01*
X25892Y-25140D01*
X25918Y-25130D01*
X25935Y-25130D01*
X25961Y-25140D01*
X25970Y-25150D01*
X26038Y-25150D02*
X26047Y-25140D01*
X26064Y-25130D01*
X26107Y-25130D01*
X26124Y-25140D01*
X26132Y-25150D01*
X26141Y-25169D01*
X26141Y-25188D01*
X26132Y-25216D01*
X26030Y-25330D01*
X26141Y-25330D01*
X25470Y-22061D02*
X25461Y-22071D01*
X25435Y-22080D01*
X25418Y-22080D01*
X25392Y-22071D01*
X25375Y-22052D01*
X25367Y-22033D01*
X25358Y-21995D01*
X25358Y-21966D01*
X25367Y-21928D01*
X25375Y-21909D01*
X25392Y-21890D01*
X25418Y-21880D01*
X25435Y-21880D01*
X25461Y-21890D01*
X25470Y-21900D01*
X25624Y-21947D02*
X25624Y-22080D01*
X25581Y-21871D02*
X25538Y-22014D01*
X25650Y-22014D01*
G54D16*
X27339Y-23827D02*
X27327Y-23839D01*
X27291Y-23851D01*
X27267Y-23851D01*
X27232Y-23839D01*
X27208Y-23815D01*
X27196Y-23791D01*
X27184Y-23744D01*
X27184Y-23708D01*
X27196Y-23660D01*
X27208Y-23636D01*
X27232Y-23613D01*
X27267Y-23601D01*
X27291Y-23601D01*
X27327Y-23613D01*
X27339Y-23625D01*
X27577Y-23851D02*
X27434Y-23851D01*
X27505Y-23851D02*
X27505Y-23601D01*
X27482Y-23636D01*
X27458Y-23660D01*
X27434Y-23672D01*
X27672Y-23625D02*
X27684Y-23613D01*
X27708Y-23601D01*
X27767Y-23601D01*
X27791Y-23613D01*
X27803Y-23625D01*
X27815Y-23648D01*
X27815Y-23672D01*
X27803Y-23708D01*
X27660Y-23851D01*
X27815Y-23851D01*
G54D22*
X26720Y-25561D02*
X26711Y-25571D01*
X26685Y-25580D01*
X26668Y-25580D01*
X26642Y-25571D01*
X26625Y-25552D01*
X26617Y-25533D01*
X26608Y-25495D01*
X26608Y-25466D01*
X26617Y-25428D01*
X26625Y-25409D01*
X26642Y-25390D01*
X26668Y-25380D01*
X26685Y-25380D01*
X26711Y-25390D01*
X26720Y-25400D01*
X26882Y-25380D02*
X26797Y-25380D01*
X26788Y-25476D01*
X26797Y-25466D01*
X26814Y-25457D01*
X26857Y-25457D01*
X26874Y-25466D01*
X26882Y-25476D01*
X26891Y-25495D01*
X26891Y-25542D01*
X26882Y-25561D01*
X26874Y-25571D01*
X26857Y-25580D01*
X26814Y-25580D01*
X26797Y-25571D01*
X26788Y-25561D01*
G54D16*
X16077Y-27910D02*
X16089Y-27922D01*
X16101Y-27958D01*
X16101Y-27982D01*
X16089Y-28017D01*
X16065Y-28041D01*
X16041Y-28053D01*
X15994Y-28065D01*
X15958Y-28065D01*
X15910Y-28053D01*
X15886Y-28041D01*
X15863Y-28017D01*
X15851Y-27982D01*
X15851Y-27958D01*
X15863Y-27922D01*
X15875Y-27910D01*
X16101Y-27672D02*
X16101Y-27815D01*
X16101Y-27744D02*
X15851Y-27744D01*
X15886Y-27767D01*
X15910Y-27791D01*
X15922Y-27815D01*
X15851Y-27589D02*
X15851Y-27434D01*
X15946Y-27517D01*
X15946Y-27482D01*
X15958Y-27458D01*
X15970Y-27446D01*
X15994Y-27434D01*
X16053Y-27434D01*
X16077Y-27446D01*
X16089Y-27458D01*
X16101Y-27482D01*
X16101Y-27553D01*
X16089Y-27577D01*
X16077Y-27589D01*
X17458Y-22701D02*
X17375Y-22582D01*
X17315Y-22701D02*
X17315Y-22451D01*
X17410Y-22451D01*
X17434Y-22463D01*
X17446Y-22475D01*
X17458Y-22498D01*
X17458Y-22534D01*
X17446Y-22558D01*
X17434Y-22570D01*
X17410Y-22582D01*
X17315Y-22582D01*
X17553Y-22475D02*
X17565Y-22463D01*
X17589Y-22451D01*
X17648Y-22451D01*
X17672Y-22463D01*
X17684Y-22475D01*
X17696Y-22498D01*
X17696Y-22522D01*
X17684Y-22558D01*
X17541Y-22701D01*
X17696Y-22701D01*
X16458Y-22701D02*
X16375Y-22582D01*
X16315Y-22701D02*
X16315Y-22451D01*
X16410Y-22451D01*
X16434Y-22463D01*
X16446Y-22475D01*
X16458Y-22498D01*
X16458Y-22534D01*
X16446Y-22558D01*
X16434Y-22570D01*
X16410Y-22582D01*
X16315Y-22582D01*
X16541Y-22451D02*
X16696Y-22451D01*
X16613Y-22546D01*
X16648Y-22546D01*
X16672Y-22558D01*
X16684Y-22570D01*
X16696Y-22594D01*
X16696Y-22653D01*
X16684Y-22677D01*
X16672Y-22689D01*
X16648Y-22701D01*
X16577Y-22701D01*
X16553Y-22689D01*
X16541Y-22677D01*
X15728Y-23271D02*
X15728Y-22971D01*
X15800Y-22971D01*
X15842Y-22985D01*
X15871Y-23014D01*
X15885Y-23042D01*
X15900Y-23100D01*
X15900Y-23142D01*
X15885Y-23200D01*
X15871Y-23228D01*
X15842Y-23257D01*
X15800Y-23271D01*
X15728Y-23271D01*
X16185Y-23271D02*
X16014Y-23271D01*
X16100Y-23271D02*
X16100Y-22971D01*
X16071Y-23014D01*
X16042Y-23042D01*
X16014Y-23057D01*
X15728Y-22871D02*
X15728Y-22571D01*
X15800Y-22571D01*
X15842Y-22585D01*
X15871Y-22614D01*
X15885Y-22642D01*
X15900Y-22700D01*
X15900Y-22742D01*
X15885Y-22800D01*
X15871Y-22828D01*
X15842Y-22857D01*
X15800Y-22871D01*
X15728Y-22871D01*
X16014Y-22600D02*
X16028Y-22585D01*
X16057Y-22571D01*
X16128Y-22571D01*
X16157Y-22585D01*
X16171Y-22600D01*
X16185Y-22628D01*
X16185Y-22657D01*
X16171Y-22700D01*
X16000Y-22871D01*
X16185Y-22871D01*
X17101Y-27791D02*
X17101Y-27910D01*
X16851Y-27910D01*
X17101Y-27577D02*
X17101Y-27720D01*
X17101Y-27648D02*
X16851Y-27648D01*
X16886Y-27672D01*
X16910Y-27696D01*
X16922Y-27720D01*
X32101Y-21541D02*
X31982Y-21625D01*
X32101Y-21684D02*
X31851Y-21684D01*
X31851Y-21589D01*
X31863Y-21565D01*
X31875Y-21553D01*
X31898Y-21541D01*
X31934Y-21541D01*
X31958Y-21553D01*
X31970Y-21565D01*
X31982Y-21589D01*
X31982Y-21684D01*
X31934Y-21327D02*
X32101Y-21327D01*
X31839Y-21386D02*
X32017Y-21446D01*
X32017Y-21291D01*
X16551Y-23491D02*
X16432Y-23575D01*
X16551Y-23634D02*
X16301Y-23634D01*
X16301Y-23539D01*
X16313Y-23515D01*
X16325Y-23503D01*
X16348Y-23491D01*
X16384Y-23491D01*
X16408Y-23503D01*
X16420Y-23515D01*
X16432Y-23539D01*
X16432Y-23634D01*
X16301Y-23265D02*
X16301Y-23384D01*
X16420Y-23396D01*
X16408Y-23384D01*
X16396Y-23360D01*
X16396Y-23301D01*
X16408Y-23277D01*
X16420Y-23265D01*
X16444Y-23253D01*
X16503Y-23253D01*
X16527Y-23265D01*
X16539Y-23277D01*
X16551Y-23301D01*
X16551Y-23360D01*
X16539Y-23384D01*
X16527Y-23396D01*
G54D23*
X18509Y-24609D02*
X18509Y-24215D01*
X18603Y-24215D01*
X18659Y-24234D01*
X18696Y-24271D01*
X18715Y-24309D01*
X18734Y-24384D01*
X18734Y-24440D01*
X18715Y-24515D01*
X18696Y-24553D01*
X18659Y-24590D01*
X18603Y-24609D01*
X18509Y-24609D01*
X19071Y-24215D02*
X18996Y-24215D01*
X18959Y-24234D01*
X18940Y-24253D01*
X18903Y-24309D01*
X18884Y-24384D01*
X18884Y-24534D01*
X18903Y-24571D01*
X18921Y-24590D01*
X18959Y-24609D01*
X19034Y-24609D01*
X19071Y-24590D01*
X19090Y-24571D01*
X19109Y-24534D01*
X19109Y-24440D01*
X19090Y-24403D01*
X19071Y-24384D01*
X19034Y-24365D01*
X18959Y-24365D01*
X18921Y-24384D01*
X18903Y-24403D01*
X18884Y-24440D01*
G54D12*
X33142Y-25485D02*
X33742Y-25085D01*
X33142Y-25085D02*
X33742Y-25485D01*
X33742Y-24542D02*
X33742Y-24885D01*
X33742Y-24714D02*
X33142Y-24714D01*
X33228Y-24771D01*
X33285Y-24828D01*
X33314Y-24885D01*
G54D16*
X33071Y-22671D02*
X32771Y-22671D01*
X32771Y-22600D01*
X32785Y-22557D01*
X32814Y-22528D01*
X32842Y-22514D01*
X32900Y-22500D01*
X32942Y-22500D01*
X33000Y-22514D01*
X33028Y-22528D01*
X33057Y-22557D01*
X33071Y-22600D01*
X33071Y-22671D01*
X32771Y-22400D02*
X32771Y-22214D01*
X32885Y-22314D01*
X32885Y-22271D01*
X32900Y-22242D01*
X32914Y-22228D01*
X32942Y-22214D01*
X33014Y-22214D01*
X33042Y-22228D01*
X33057Y-22242D01*
X33071Y-22271D01*
X33071Y-22357D01*
X33057Y-22385D01*
X33042Y-22400D01*
X18471Y-23771D02*
X18171Y-23771D01*
X18171Y-23700D01*
X18185Y-23657D01*
X18214Y-23628D01*
X18242Y-23614D01*
X18300Y-23600D01*
X18342Y-23600D01*
X18400Y-23614D01*
X18428Y-23628D01*
X18457Y-23657D01*
X18471Y-23700D01*
X18471Y-23771D01*
X18171Y-23328D02*
X18171Y-23471D01*
X18314Y-23485D01*
X18300Y-23471D01*
X18285Y-23442D01*
X18285Y-23371D01*
X18300Y-23342D01*
X18314Y-23328D01*
X18342Y-23314D01*
X18414Y-23314D01*
X18442Y-23328D01*
X18457Y-23342D01*
X18471Y-23371D01*
X18471Y-23442D01*
X18457Y-23471D01*
X18442Y-23485D01*
G54D24*
X15178Y-23421D02*
X15178Y-23121D01*
X15292Y-23121D01*
X15321Y-23135D01*
X15335Y-23150D01*
X15350Y-23178D01*
X15350Y-23221D01*
X15335Y-23250D01*
X15321Y-23264D01*
X15292Y-23278D01*
X15178Y-23278D01*
X15607Y-23221D02*
X15607Y-23421D01*
X15535Y-23107D02*
X15464Y-23321D01*
X15650Y-23321D01*
G54D25*
X16912Y-25668D02*
X16912Y-25550D01*
X16941Y-25550D01*
X16957Y-25556D01*
X16969Y-25567D01*
X16974Y-25578D01*
X16980Y-25601D01*
X16980Y-25618D01*
X16974Y-25640D01*
X16969Y-25651D01*
X16957Y-25663D01*
X16941Y-25668D01*
X16912Y-25668D01*
X17081Y-25590D02*
X17081Y-25668D01*
X17053Y-25545D02*
X17025Y-25629D01*
X17098Y-25629D01*
M02*
