G04 (created by PCBNEW (2013-03-31 BZR 4008)-stable) date 13.09.2013 22:32:34*
%MOIN*%
G04 Gerber Fmt 3.4, Leading zero omitted, Abs format*
%FSLAX34Y34*%
G01*
G70*
G90*
G04 APERTURE LIST*
%ADD10C,0.006*%
%ADD11C,0.0591*%
%ADD12C,0.1181*%
%ADD13R,0.144X0.08*%
%ADD14R,0.04X0.08*%
%ADD15R,0.0531X0.0256*%
%ADD16R,0.035X0.055*%
%ADD17R,0.055X0.035*%
%ADD18R,0.06X0.06*%
%ADD19C,0.06*%
%ADD20R,0.0472X0.0472*%
%ADD21C,0.189*%
%ADD22R,0.189X0.189*%
%ADD23R,0.0512X0.0669*%
%ADD24R,0.0276X0.063*%
%ADD25R,0.0276X0.0827*%
%ADD26R,0.0787X0.1083*%
%ADD27R,0.0315X0.0394*%
%ADD28C,0.0590551*%
%ADD29R,0.0669X0.0512*%
%ADD30C,0.1654*%
G04 APERTURE END LIST*
G54D10*
G54D11*
X21600Y-11750D03*
X22600Y-11750D03*
X23400Y-11750D03*
X24400Y-11750D03*
G54D12*
X20400Y-10700D03*
X25800Y-10700D03*
G54D13*
X36750Y-8700D03*
G54D14*
X36750Y-11300D03*
X37650Y-11300D03*
X35850Y-11300D03*
G54D15*
X24028Y-18000D03*
X24972Y-18000D03*
X29472Y-19500D03*
X28528Y-19500D03*
G54D16*
X36125Y-16000D03*
X36875Y-16000D03*
G54D17*
X20500Y-16625D03*
X20500Y-15875D03*
X18250Y-17125D03*
X18250Y-17875D03*
X23500Y-13125D03*
X23500Y-13875D03*
X22500Y-13125D03*
X22500Y-13875D03*
G54D16*
X36375Y-12500D03*
X37125Y-12500D03*
X25125Y-20000D03*
X24375Y-20000D03*
X28125Y-16000D03*
X27375Y-16000D03*
X35875Y-13500D03*
X36625Y-13500D03*
G54D17*
X17250Y-17625D03*
X17250Y-18375D03*
X33000Y-8625D03*
X33000Y-9375D03*
G54D16*
X37875Y-16000D03*
X38625Y-16000D03*
X21375Y-16250D03*
X22125Y-16250D03*
X33125Y-16000D03*
X33875Y-16000D03*
X31375Y-16000D03*
X32125Y-16000D03*
X29125Y-16000D03*
X29875Y-16000D03*
X20625Y-21750D03*
X21375Y-21750D03*
X28375Y-16750D03*
X29125Y-16750D03*
G54D17*
X37500Y-21125D03*
X37500Y-21875D03*
G54D16*
X34625Y-24000D03*
X35375Y-24000D03*
G54D17*
X23750Y-19375D03*
X23750Y-18625D03*
G54D16*
X31875Y-22000D03*
X31125Y-22000D03*
X26875Y-22000D03*
X26125Y-22000D03*
X26375Y-21000D03*
X25625Y-21000D03*
X24375Y-16000D03*
X25125Y-16000D03*
G54D17*
X19500Y-21125D03*
X19500Y-21875D03*
X34750Y-21375D03*
X34750Y-20625D03*
X28500Y-21875D03*
X28500Y-21125D03*
X29500Y-21125D03*
X29500Y-21875D03*
X31000Y-20375D03*
X31000Y-21125D03*
G54D16*
X20625Y-24000D03*
X21375Y-24000D03*
G54D17*
X35250Y-17375D03*
X35250Y-18125D03*
X31750Y-17375D03*
X31750Y-18125D03*
X38500Y-21875D03*
X38500Y-21125D03*
X37000Y-17375D03*
X37000Y-18125D03*
X33000Y-20625D03*
X33000Y-21375D03*
X33500Y-17375D03*
X33500Y-18125D03*
G54D16*
X29375Y-24000D03*
X28625Y-24000D03*
G54D17*
X28500Y-18625D03*
X28500Y-17875D03*
X29500Y-18625D03*
X29500Y-17875D03*
X26000Y-17875D03*
X26000Y-17125D03*
X27000Y-17875D03*
X27000Y-17125D03*
G54D18*
X40500Y-18000D03*
G54D19*
X41500Y-18000D03*
X40500Y-19000D03*
X41500Y-19000D03*
X40500Y-20000D03*
X41500Y-20000D03*
G54D20*
X30000Y-25913D03*
X30000Y-25087D03*
X36000Y-25913D03*
X36000Y-25087D03*
X24500Y-25087D03*
X24500Y-25913D03*
X22500Y-25087D03*
X22500Y-25913D03*
X17250Y-19587D03*
X17250Y-20413D03*
X18500Y-25913D03*
X18500Y-25087D03*
X32000Y-25087D03*
X32000Y-25913D03*
X20500Y-25087D03*
X20500Y-25913D03*
X28000Y-25087D03*
X28000Y-25913D03*
X38000Y-25913D03*
X38000Y-25087D03*
X34000Y-25087D03*
X34000Y-25913D03*
G54D21*
X30500Y-9750D03*
G54D22*
X30500Y-12150D03*
G54D21*
X28500Y-10650D03*
G54D23*
X20311Y-20500D03*
X21689Y-20500D03*
G54D24*
X33659Y-9748D03*
G54D25*
X34250Y-9650D03*
G54D24*
X34841Y-9748D03*
G54D26*
X34250Y-8705D03*
G54D27*
X34750Y-19683D03*
X34375Y-18817D03*
X35125Y-18817D03*
X31250Y-19683D03*
X30875Y-18817D03*
X31625Y-18817D03*
X36500Y-19683D03*
X36125Y-18817D03*
X36875Y-18817D03*
X33000Y-19683D03*
X32625Y-18817D03*
X33375Y-18817D03*
X26500Y-19433D03*
X26125Y-18567D03*
X26875Y-18567D03*
G54D28*
X19500Y-23000D03*
X20500Y-23000D03*
X21500Y-23000D03*
X22500Y-23000D03*
X23500Y-23000D03*
X24500Y-23000D03*
X25500Y-23000D03*
X26500Y-23000D03*
X27500Y-23000D03*
X28500Y-23000D03*
X29500Y-23000D03*
X30500Y-23000D03*
X31500Y-23000D03*
X32500Y-23000D03*
X33500Y-23000D03*
X34500Y-23000D03*
X35500Y-23000D03*
X36500Y-23000D03*
X37500Y-23000D03*
X38500Y-23000D03*
X38500Y-15000D03*
X37500Y-15000D03*
X36500Y-15000D03*
X35500Y-15000D03*
X34500Y-15000D03*
X33500Y-15000D03*
X32500Y-15000D03*
X31500Y-15000D03*
X30500Y-15000D03*
X29500Y-15000D03*
X28500Y-15000D03*
X27500Y-15000D03*
X26500Y-15000D03*
X25500Y-15000D03*
X24500Y-15000D03*
X23500Y-15000D03*
X22500Y-15000D03*
X21500Y-15000D03*
X20500Y-15000D03*
X19500Y-15000D03*
G54D29*
X33500Y-11939D03*
X33500Y-10561D03*
G54D30*
X41750Y-8250D03*
X41750Y-25500D03*
X16750Y-25500D03*
X16750Y-8250D03*
M02*
