G04 (created by PCBNEW (2013-03-31 BZR 4008)-stable) date 15.09.2013 15:25:41*
%MOIN*%
G04 Gerber Fmt 3.4, Leading zero omitted, Abs format*
%FSLAX34Y34*%
G01*
G70*
G90*
G04 APERTURE LIST*
%ADD10C,0.006*%
%ADD11C,0.0591*%
%ADD12C,0.1181*%
%ADD13R,0.08X0.144*%
%ADD14R,0.08X0.04*%
%ADD15R,0.035X0.055*%
%ADD16R,0.055X0.035*%
%ADD17R,0.06X0.06*%
%ADD18C,0.06*%
%ADD19R,0.0472X0.0472*%
%ADD20C,0.189*%
%ADD21R,0.189X0.189*%
%ADD22R,0.0512X0.0669*%
%ADD23R,0.0276X0.063*%
%ADD24R,0.0276X0.0827*%
%ADD25R,0.0787X0.1083*%
%ADD26R,0.0315X0.0394*%
%ADD27R,0.0236X0.0394*%
%ADD28R,0.0394X0.0236*%
%ADD29C,0.0590551*%
%ADD30C,0.1654*%
%ADD31C,0.035*%
%ADD32C,0.01*%
%ADD33C,0.00787402*%
G04 APERTURE END LIST*
G54D10*
G54D11*
X21600Y-10750D03*
X22600Y-10750D03*
X23400Y-10750D03*
X24400Y-10750D03*
G54D12*
X20400Y-9700D03*
X25800Y-9700D03*
G54D13*
X42050Y-11500D03*
G54D14*
X39450Y-11500D03*
X39450Y-12400D03*
X39450Y-10600D03*
G54D15*
X36125Y-15000D03*
X36875Y-15000D03*
G54D16*
X20250Y-15625D03*
X20250Y-14875D03*
X18250Y-17125D03*
X18250Y-17875D03*
X23500Y-12125D03*
X23500Y-12875D03*
X22500Y-12125D03*
X22500Y-12875D03*
X37500Y-11625D03*
X37500Y-12375D03*
X24000Y-21375D03*
X24000Y-22125D03*
G54D15*
X28375Y-15000D03*
X27625Y-15000D03*
G54D16*
X38500Y-10625D03*
X38500Y-11375D03*
X17250Y-17625D03*
X17250Y-18375D03*
X33750Y-9625D03*
X33750Y-10375D03*
G54D15*
X37625Y-15000D03*
X38375Y-15000D03*
X21125Y-15250D03*
X21875Y-15250D03*
X33125Y-15000D03*
X33875Y-15000D03*
X31625Y-15000D03*
X32375Y-15000D03*
X29125Y-15000D03*
X29875Y-15000D03*
G54D16*
X21750Y-20375D03*
X21750Y-21125D03*
G54D15*
X28375Y-16000D03*
X29125Y-16000D03*
G54D16*
X37500Y-21125D03*
X37500Y-21875D03*
G54D15*
X34625Y-22000D03*
X35375Y-22000D03*
X24875Y-17750D03*
X24125Y-17750D03*
X31875Y-22000D03*
X31125Y-22000D03*
X26875Y-22000D03*
X26125Y-22000D03*
X25375Y-22000D03*
X24625Y-22000D03*
X25125Y-15000D03*
X25875Y-15000D03*
G54D16*
X19500Y-21125D03*
X19500Y-21875D03*
X35000Y-21125D03*
X35000Y-20375D03*
X28500Y-21875D03*
X28500Y-21125D03*
X29500Y-21125D03*
X29500Y-21875D03*
X31000Y-20375D03*
X31000Y-21125D03*
G54D15*
X20625Y-22000D03*
X21375Y-22000D03*
G54D16*
X35250Y-17375D03*
X35250Y-18125D03*
G54D15*
X28125Y-18750D03*
X28875Y-18750D03*
G54D16*
X38500Y-21875D03*
X38500Y-21125D03*
X37000Y-17375D03*
X37000Y-18125D03*
X33000Y-20625D03*
X33000Y-21375D03*
X33500Y-17375D03*
X33500Y-18125D03*
X27000Y-20875D03*
X27000Y-20125D03*
X26000Y-20875D03*
X26000Y-20125D03*
X25000Y-20125D03*
X25000Y-20875D03*
X26000Y-17125D03*
X26000Y-16375D03*
X27000Y-17125D03*
X27000Y-16375D03*
G54D17*
X40500Y-18000D03*
G54D18*
X41500Y-18000D03*
X40500Y-19000D03*
X41500Y-19000D03*
X40500Y-20000D03*
X41500Y-20000D03*
G54D19*
X30000Y-25913D03*
X30000Y-25087D03*
X36000Y-25913D03*
X36000Y-25087D03*
X24500Y-25087D03*
X24500Y-25913D03*
X22500Y-25087D03*
X22500Y-25913D03*
X17250Y-19587D03*
X17250Y-20413D03*
X18500Y-25913D03*
X18500Y-25087D03*
X32000Y-25087D03*
X32000Y-25913D03*
X20500Y-25087D03*
X20500Y-25913D03*
X28000Y-25913D03*
X28000Y-25087D03*
X38000Y-25913D03*
X38000Y-25087D03*
X34000Y-25087D03*
X34000Y-25913D03*
G54D20*
X30500Y-8750D03*
G54D21*
X30500Y-11150D03*
G54D20*
X28500Y-9650D03*
G54D22*
X20939Y-20000D03*
X19561Y-20000D03*
G54D23*
X34409Y-10748D03*
G54D24*
X35000Y-10650D03*
G54D23*
X35591Y-10748D03*
G54D25*
X35000Y-9705D03*
G54D26*
X35000Y-19683D03*
X34625Y-18817D03*
X35375Y-18817D03*
X28500Y-20433D03*
X28125Y-19567D03*
X28875Y-19567D03*
X36750Y-19683D03*
X36375Y-18817D03*
X37125Y-18817D03*
X33000Y-19683D03*
X32625Y-18817D03*
X33375Y-18817D03*
X26500Y-18683D03*
X26125Y-17817D03*
X26875Y-17817D03*
G54D22*
X32311Y-11750D03*
X33689Y-11750D03*
G54D15*
X34875Y-11750D03*
X35625Y-11750D03*
G54D11*
X33750Y-8242D03*
X33750Y-7258D03*
X36500Y-8242D03*
X36500Y-7258D03*
X39250Y-8242D03*
X39250Y-7258D03*
G54D27*
X30375Y-19084D03*
X30000Y-19916D03*
X29625Y-19084D03*
X31125Y-19166D03*
X31500Y-18334D03*
X31875Y-19166D03*
G54D28*
X24084Y-16125D03*
X24916Y-16500D03*
X24084Y-16875D03*
G54D22*
X21311Y-17750D03*
X22689Y-17750D03*
G54D29*
X19500Y-23000D03*
X20500Y-23000D03*
X21500Y-23000D03*
X22500Y-23000D03*
X23500Y-23000D03*
X24500Y-23000D03*
X25500Y-23000D03*
X26500Y-23000D03*
X27500Y-23000D03*
X28500Y-23000D03*
X29500Y-23000D03*
X30500Y-23000D03*
X31500Y-23000D03*
X32500Y-23000D03*
X33500Y-23000D03*
X34500Y-23000D03*
X35500Y-23000D03*
X36500Y-23000D03*
X37500Y-23000D03*
X38500Y-23000D03*
X38500Y-14000D03*
X37500Y-14000D03*
X36500Y-14000D03*
X35500Y-14000D03*
X34500Y-14000D03*
X33500Y-14000D03*
X32500Y-14000D03*
X31500Y-14000D03*
X30500Y-14000D03*
X29500Y-14000D03*
X28500Y-14000D03*
X27500Y-14000D03*
X26500Y-14000D03*
X25500Y-14000D03*
X24500Y-14000D03*
X23500Y-14000D03*
X22500Y-14000D03*
X21500Y-14000D03*
X20500Y-14000D03*
X19500Y-14000D03*
G54D30*
X41750Y-7250D03*
X41750Y-25500D03*
X16750Y-25500D03*
X16750Y-7250D03*
G54D31*
X37500Y-10750D03*
X21250Y-18750D03*
X30750Y-19750D03*
X35000Y-12500D03*
X32500Y-24000D03*
X25250Y-26000D03*
X23250Y-26000D03*
X36000Y-17750D03*
X17250Y-21250D03*
X17750Y-14250D03*
X26250Y-25000D03*
X25750Y-19500D03*
X22500Y-18750D03*
X18250Y-16250D03*
X21500Y-24750D03*
X26000Y-26000D03*
X25000Y-24000D03*
G54D32*
X36500Y-8242D02*
X36500Y-9839D01*
X36500Y-9839D02*
X35591Y-10748D01*
X35625Y-11750D02*
X35625Y-12875D01*
X35625Y-12875D02*
X35500Y-13000D01*
X39450Y-12400D02*
X37525Y-12400D01*
X37525Y-12400D02*
X36925Y-13000D01*
X36925Y-13000D02*
X35500Y-13000D01*
X26375Y-16750D02*
X26000Y-17125D01*
X35500Y-13000D02*
X35000Y-13500D01*
X35000Y-13500D02*
X35000Y-16000D01*
X35000Y-16000D02*
X34250Y-16750D01*
X34250Y-16750D02*
X26375Y-16750D01*
X26000Y-17125D02*
X26000Y-17692D01*
X26000Y-17692D02*
X26125Y-17817D01*
X35591Y-10748D02*
X35591Y-11716D01*
X35591Y-11716D02*
X35625Y-11750D01*
X38500Y-10625D02*
X37625Y-10625D01*
X37500Y-10750D02*
X37500Y-11625D01*
X37625Y-10625D02*
X37500Y-10750D01*
X39450Y-10600D02*
X38525Y-10600D01*
X38525Y-10600D02*
X38500Y-10625D01*
X21311Y-18689D02*
X21250Y-18750D01*
X21311Y-17750D02*
X21311Y-18689D01*
X31125Y-19166D02*
X31125Y-19375D01*
X30375Y-19375D02*
X30750Y-19750D01*
X30375Y-19375D02*
X30375Y-19084D01*
X31125Y-19375D02*
X30750Y-19750D01*
X34875Y-11750D02*
X34875Y-12375D01*
X34875Y-12375D02*
X35000Y-12500D01*
X35000Y-10650D02*
X35000Y-11625D01*
X35000Y-11625D02*
X34875Y-11750D01*
X32500Y-25500D02*
X32500Y-24000D01*
X34000Y-25913D02*
X32913Y-25913D01*
X32913Y-25913D02*
X32500Y-25500D01*
X32000Y-25913D02*
X32087Y-25913D01*
X32087Y-25913D02*
X32500Y-25500D01*
X24500Y-25913D02*
X25163Y-25913D01*
X25163Y-25913D02*
X25250Y-26000D01*
X22500Y-25913D02*
X23163Y-25913D01*
X23163Y-25913D02*
X23250Y-26000D01*
X35000Y-9705D02*
X35000Y-10650D01*
X35250Y-17375D02*
X35875Y-17375D01*
X36375Y-17375D02*
X36000Y-17750D01*
X36375Y-17375D02*
X37000Y-17375D01*
X36000Y-17500D02*
X36000Y-17750D01*
X35875Y-17375D02*
X36000Y-17500D01*
X17250Y-20413D02*
X17250Y-21250D01*
X35000Y-9705D02*
X33830Y-9705D01*
X33830Y-9705D02*
X33750Y-9625D01*
X24875Y-17750D02*
X24875Y-18375D01*
X23500Y-19000D02*
X23500Y-23000D01*
X23750Y-18750D02*
X23500Y-19000D01*
X24500Y-18750D02*
X23750Y-18750D01*
X24875Y-18375D02*
X24500Y-18750D01*
X25500Y-23000D02*
X25500Y-22625D01*
X25500Y-22625D02*
X26125Y-22000D01*
X27625Y-15000D02*
X27000Y-15000D01*
X27000Y-15000D02*
X26000Y-16000D01*
X26000Y-16000D02*
X24750Y-16000D01*
X24750Y-16000D02*
X24500Y-16250D01*
X24500Y-16250D02*
X24500Y-18250D01*
X24500Y-18250D02*
X24250Y-18500D01*
X24250Y-18500D02*
X23250Y-18500D01*
X23250Y-18500D02*
X23000Y-18750D01*
X23000Y-18750D02*
X23000Y-24587D01*
X23000Y-24587D02*
X22500Y-25087D01*
X29125Y-15000D02*
X28375Y-15000D01*
X28375Y-15000D02*
X28375Y-14125D01*
X28375Y-14125D02*
X28500Y-14000D01*
X17250Y-18375D02*
X17250Y-19587D01*
X33875Y-15000D02*
X33875Y-14625D01*
X33875Y-14625D02*
X34500Y-14000D01*
X36125Y-15000D02*
X35750Y-15000D01*
X35500Y-14750D02*
X35500Y-14000D01*
X35750Y-15000D02*
X35500Y-14750D01*
X36875Y-15000D02*
X36875Y-14625D01*
X36875Y-14625D02*
X37500Y-14000D01*
X24000Y-21375D02*
X24000Y-19750D01*
X35000Y-17000D02*
X36500Y-15500D01*
X28500Y-17000D02*
X35000Y-17000D01*
X27250Y-18250D02*
X28500Y-17000D01*
X25500Y-18250D02*
X27250Y-18250D01*
X24000Y-19750D02*
X25500Y-18250D01*
X37625Y-15000D02*
X37625Y-15375D01*
X36500Y-15500D02*
X36500Y-14000D01*
X36750Y-15750D02*
X36500Y-15500D01*
X37250Y-15750D02*
X36750Y-15750D01*
X37625Y-15375D02*
X37250Y-15750D01*
X20250Y-14875D02*
X20250Y-14250D01*
X20250Y-14250D02*
X20500Y-14000D01*
X38500Y-14000D02*
X38500Y-14875D01*
X38500Y-14875D02*
X38375Y-15000D01*
X22500Y-12125D02*
X22500Y-10850D01*
X22500Y-10850D02*
X22600Y-10750D01*
X23500Y-12125D02*
X23500Y-10850D01*
X23500Y-10850D02*
X23400Y-10750D01*
X17750Y-17250D02*
X17750Y-18250D01*
X17750Y-14250D02*
X17750Y-17250D01*
X17750Y-18250D02*
X18000Y-18500D01*
X18000Y-18500D02*
X18000Y-24587D01*
X18500Y-25087D02*
X18000Y-24587D01*
X24084Y-16125D02*
X21875Y-16125D01*
X21875Y-16125D02*
X21500Y-15750D01*
X21500Y-15750D02*
X21500Y-14000D01*
X24125Y-17750D02*
X23750Y-17750D01*
X23750Y-17750D02*
X23500Y-17500D01*
X23500Y-17500D02*
X23500Y-16709D01*
X23500Y-16709D02*
X24084Y-16125D01*
X27500Y-23000D02*
X27500Y-22500D01*
X27000Y-22000D02*
X26875Y-22000D01*
X27500Y-22500D02*
X27000Y-22000D01*
X31500Y-23000D02*
X31500Y-21500D01*
X37125Y-20750D02*
X37500Y-21125D01*
X33750Y-20750D02*
X37125Y-20750D01*
X33500Y-21000D02*
X33750Y-20750D01*
X32000Y-21000D02*
X33500Y-21000D01*
X31500Y-21500D02*
X32000Y-21000D01*
X33500Y-23000D02*
X33500Y-22500D01*
X34500Y-22000D02*
X34625Y-22000D01*
X34000Y-22000D02*
X34500Y-22000D01*
X33500Y-22500D02*
X34000Y-22000D01*
X37500Y-21875D02*
X37500Y-23000D01*
X35375Y-22000D02*
X36000Y-22000D01*
X36500Y-22500D02*
X36500Y-23000D01*
X36000Y-22000D02*
X36500Y-22500D01*
X22500Y-23000D02*
X22500Y-19500D01*
X20625Y-16000D02*
X20250Y-15625D01*
X21000Y-16000D02*
X20625Y-16000D01*
X22000Y-17000D02*
X21000Y-16000D01*
X22000Y-19000D02*
X22000Y-17000D01*
X22500Y-19500D02*
X22000Y-19000D01*
X23500Y-12875D02*
X23500Y-14000D01*
X22500Y-14000D02*
X22500Y-12875D01*
X24000Y-22125D02*
X24000Y-24587D01*
X24000Y-24587D02*
X24500Y-25087D01*
X28375Y-16000D02*
X28250Y-16000D01*
X28000Y-14500D02*
X27500Y-14000D01*
X28000Y-15750D02*
X28000Y-14500D01*
X28250Y-16000D02*
X28000Y-15750D01*
X29125Y-16000D02*
X29250Y-16000D01*
X29500Y-15750D02*
X29500Y-14000D01*
X29250Y-16000D02*
X29500Y-15750D01*
X29875Y-15000D02*
X29875Y-14625D01*
X29875Y-14625D02*
X30500Y-14000D01*
X31625Y-15000D02*
X31625Y-14125D01*
X31625Y-14125D02*
X31500Y-14000D01*
X32375Y-15000D02*
X32375Y-15625D01*
X33500Y-15500D02*
X33500Y-14000D01*
X33250Y-15750D02*
X33500Y-15500D01*
X32500Y-15750D02*
X33250Y-15750D01*
X32375Y-15625D02*
X32500Y-15750D01*
X33125Y-15000D02*
X33125Y-14625D01*
X33125Y-14625D02*
X32500Y-14000D01*
X30500Y-11150D02*
X31711Y-11150D01*
X31711Y-11150D02*
X32311Y-11750D01*
X25500Y-14000D02*
X25500Y-15500D01*
X24250Y-15250D02*
X21875Y-15250D01*
X24750Y-15750D02*
X24250Y-15250D01*
X25250Y-15750D02*
X24750Y-15750D01*
X25500Y-15500D02*
X25250Y-15750D01*
X33750Y-10375D02*
X33375Y-10375D01*
X33000Y-8992D02*
X33750Y-8242D01*
X33000Y-10000D02*
X33000Y-8992D01*
X33375Y-10375D02*
X33000Y-10000D01*
X33689Y-11750D02*
X33689Y-10436D01*
X33689Y-10436D02*
X33750Y-10375D01*
X34409Y-10748D02*
X34123Y-10748D01*
X34123Y-10748D02*
X33750Y-10375D01*
X30500Y-23000D02*
X30500Y-22625D01*
X30500Y-22625D02*
X31125Y-22000D01*
X20500Y-25913D02*
X20837Y-25913D01*
X25750Y-25500D02*
X26250Y-25000D01*
X21250Y-25500D02*
X25750Y-25500D01*
X20837Y-25913D02*
X21250Y-25500D01*
X22689Y-17750D02*
X22689Y-18561D01*
X26000Y-19750D02*
X26000Y-20125D01*
X25750Y-19500D02*
X26000Y-19750D01*
X22689Y-18561D02*
X22500Y-18750D01*
X26000Y-20125D02*
X27000Y-20125D01*
X32500Y-23000D02*
X32500Y-22625D01*
X32500Y-22625D02*
X31875Y-22000D01*
X35500Y-23000D02*
X35500Y-23250D01*
X40500Y-21000D02*
X40500Y-20000D01*
X40000Y-21500D02*
X40500Y-21000D01*
X37000Y-21500D02*
X40000Y-21500D01*
X36750Y-21750D02*
X37000Y-21500D01*
X36750Y-22000D02*
X36750Y-21750D01*
X37000Y-22250D02*
X36750Y-22000D01*
X37000Y-23500D02*
X37000Y-22250D01*
X36750Y-23750D02*
X37000Y-23500D01*
X36000Y-23750D02*
X36750Y-23750D01*
X35500Y-23250D02*
X36000Y-23750D01*
X30000Y-25087D02*
X29837Y-25087D01*
X27000Y-21250D02*
X27000Y-20875D01*
X28000Y-22250D02*
X27000Y-21250D01*
X28000Y-23250D02*
X28000Y-22250D01*
X29837Y-25087D02*
X28000Y-23250D01*
X18250Y-17125D02*
X18250Y-16250D01*
X19500Y-14000D02*
X19500Y-15000D01*
X19750Y-15250D02*
X21125Y-15250D01*
X19500Y-15000D02*
X19750Y-15250D01*
X21750Y-20375D02*
X21750Y-20250D01*
X21500Y-20000D02*
X20939Y-20000D01*
X21750Y-20250D02*
X21500Y-20000D01*
X27000Y-17125D02*
X27000Y-17692D01*
X27000Y-17692D02*
X26875Y-17817D01*
X31000Y-21125D02*
X31000Y-21250D01*
X32000Y-23750D02*
X32000Y-25087D01*
X31750Y-23500D02*
X32000Y-23750D01*
X30250Y-23500D02*
X31750Y-23500D01*
X30000Y-23250D02*
X30250Y-23500D01*
X30000Y-22250D02*
X30000Y-23250D01*
X31000Y-21250D02*
X30000Y-22250D01*
X28500Y-20433D02*
X30942Y-20433D01*
X30942Y-20433D02*
X31000Y-20375D01*
X28500Y-21125D02*
X29500Y-21125D01*
X35000Y-21125D02*
X35000Y-24500D01*
X35587Y-25087D02*
X36000Y-25087D01*
X35000Y-24500D02*
X35587Y-25087D01*
X35000Y-19683D02*
X35000Y-20375D01*
X33000Y-21375D02*
X33000Y-23250D01*
X34000Y-24000D02*
X34000Y-25087D01*
X33750Y-23750D02*
X34000Y-24000D01*
X33500Y-23750D02*
X33750Y-23750D01*
X33000Y-23250D02*
X33500Y-23750D01*
X25875Y-15000D02*
X26250Y-15000D01*
X26500Y-14750D02*
X26500Y-14000D01*
X26250Y-15000D02*
X26500Y-14750D01*
X33000Y-19683D02*
X33000Y-20625D01*
X31500Y-18334D02*
X31666Y-18334D01*
X31875Y-18125D02*
X33500Y-18125D01*
X31666Y-18334D02*
X31875Y-18125D01*
X33500Y-18125D02*
X33500Y-18692D01*
X33500Y-18692D02*
X33375Y-18817D01*
X38000Y-25087D02*
X38000Y-22375D01*
X38000Y-22375D02*
X38500Y-21875D01*
X18250Y-17875D02*
X18250Y-23500D01*
X18837Y-25913D02*
X18500Y-25913D01*
X19250Y-25500D02*
X18837Y-25913D01*
X19250Y-24500D02*
X19250Y-25500D01*
X18250Y-23500D02*
X19250Y-24500D01*
X36750Y-19683D02*
X38183Y-19683D01*
X38500Y-20000D02*
X38500Y-21125D01*
X38183Y-19683D02*
X38500Y-20000D01*
X37000Y-18125D02*
X37000Y-18250D01*
X37125Y-18375D02*
X37125Y-18817D01*
X37000Y-18250D02*
X37125Y-18375D01*
X30000Y-19916D02*
X29224Y-19916D01*
X29224Y-19916D02*
X28875Y-19567D01*
X28875Y-18750D02*
X28875Y-19567D01*
X35250Y-18125D02*
X35250Y-18250D01*
X35375Y-18375D02*
X35375Y-18817D01*
X35250Y-18250D02*
X35375Y-18375D01*
X20500Y-25087D02*
X20500Y-24750D01*
X20000Y-22625D02*
X20625Y-22000D01*
X20000Y-24250D02*
X20000Y-22625D01*
X20500Y-24750D02*
X20000Y-24250D01*
X28125Y-18750D02*
X28125Y-17875D01*
X28625Y-17375D02*
X33500Y-17375D01*
X28125Y-17875D02*
X28625Y-17375D01*
X26500Y-18683D02*
X28058Y-18683D01*
X28058Y-18683D02*
X28125Y-18750D01*
X25000Y-20125D02*
X25000Y-19250D01*
X25567Y-18683D02*
X26500Y-18683D01*
X25000Y-19250D02*
X25567Y-18683D01*
X25125Y-15000D02*
X24750Y-15000D01*
X24500Y-14750D02*
X24500Y-14000D01*
X24750Y-15000D02*
X24500Y-14750D01*
X24916Y-16500D02*
X25250Y-16500D01*
X25250Y-16500D02*
X25375Y-16375D01*
X25375Y-16375D02*
X26000Y-16375D01*
X26000Y-16375D02*
X27000Y-16375D01*
X29500Y-21875D02*
X29625Y-21875D01*
X32625Y-20125D02*
X32625Y-18817D01*
X32000Y-20750D02*
X32625Y-20125D01*
X30500Y-20750D02*
X32000Y-20750D01*
X30250Y-21000D02*
X30500Y-20750D01*
X30250Y-21250D02*
X30250Y-21000D01*
X29625Y-21875D02*
X30250Y-21250D01*
X36375Y-18817D02*
X36375Y-18875D01*
X36375Y-18875D02*
X36000Y-19250D01*
X36000Y-19250D02*
X33058Y-19250D01*
X33058Y-19250D02*
X32625Y-18817D01*
X29500Y-21875D02*
X29500Y-23000D01*
X28000Y-25913D02*
X26087Y-25913D01*
X20625Y-21125D02*
X19500Y-21125D01*
X21000Y-21500D02*
X20625Y-21125D01*
X21000Y-24250D02*
X21000Y-21500D01*
X21500Y-24750D02*
X21000Y-24250D01*
X26087Y-25913D02*
X26000Y-26000D01*
X19561Y-20000D02*
X19561Y-21064D01*
X19561Y-21064D02*
X19500Y-21125D01*
X28000Y-25087D02*
X27837Y-25087D01*
X26750Y-24000D02*
X25000Y-24000D01*
X27837Y-25087D02*
X26750Y-24000D01*
X26000Y-20875D02*
X25000Y-20875D01*
X25000Y-24000D02*
X25000Y-20875D01*
X30000Y-25913D02*
X29663Y-25913D01*
X28837Y-25087D02*
X28000Y-25087D01*
X29663Y-25913D02*
X28837Y-25087D01*
X19500Y-23000D02*
X19500Y-21875D01*
X28125Y-19567D02*
X28183Y-19567D01*
X34625Y-18375D02*
X34625Y-18817D01*
X34000Y-17750D02*
X34625Y-18375D01*
X30750Y-17750D02*
X34000Y-17750D01*
X30500Y-18000D02*
X30750Y-17750D01*
X28750Y-18000D02*
X30500Y-18000D01*
X28500Y-18250D02*
X28750Y-18000D01*
X28500Y-19250D02*
X28500Y-18250D01*
X28183Y-19567D02*
X28500Y-19250D01*
X28500Y-21875D02*
X28375Y-21875D01*
X28000Y-19692D02*
X28125Y-19567D01*
X28000Y-21500D02*
X28000Y-19692D01*
X28375Y-21875D02*
X28000Y-21500D01*
X28500Y-23000D02*
X28500Y-21875D01*
X24625Y-22000D02*
X24625Y-22875D01*
X24625Y-22875D02*
X24500Y-23000D01*
X25375Y-22000D02*
X25375Y-21375D01*
X26500Y-21500D02*
X26500Y-23000D01*
X26250Y-21250D02*
X26500Y-21500D01*
X25500Y-21250D02*
X26250Y-21250D01*
X25375Y-21375D02*
X25500Y-21250D01*
G54D10*
G36*
X42822Y-26572D02*
X42734Y-26572D01*
X42734Y-25305D01*
X42734Y-7055D01*
X42585Y-6693D01*
X42308Y-6415D01*
X41946Y-6265D01*
X41555Y-6265D01*
X41193Y-6414D01*
X40915Y-6691D01*
X40765Y-7053D01*
X40765Y-7444D01*
X40914Y-7806D01*
X41191Y-8084D01*
X41553Y-8234D01*
X41944Y-8234D01*
X42306Y-8085D01*
X42584Y-7808D01*
X42734Y-7446D01*
X42734Y-7055D01*
X42734Y-25305D01*
X42607Y-24997D01*
X42607Y-12188D01*
X42607Y-10748D01*
X42583Y-10690D01*
X42539Y-10646D01*
X42481Y-10622D01*
X42418Y-10622D01*
X41618Y-10622D01*
X41560Y-10646D01*
X41516Y-10690D01*
X41492Y-10748D01*
X41492Y-10811D01*
X41492Y-12251D01*
X41516Y-12309D01*
X41560Y-12353D01*
X41618Y-12377D01*
X41681Y-12377D01*
X42481Y-12377D01*
X42539Y-12353D01*
X42583Y-12309D01*
X42607Y-12251D01*
X42607Y-12188D01*
X42607Y-24997D01*
X42585Y-24943D01*
X42308Y-24665D01*
X41957Y-24520D01*
X41957Y-19909D01*
X41957Y-18909D01*
X41888Y-18741D01*
X41759Y-18612D01*
X41591Y-18542D01*
X41409Y-18542D01*
X41241Y-18611D01*
X41112Y-18740D01*
X41042Y-18908D01*
X41042Y-19090D01*
X41111Y-19258D01*
X41240Y-19387D01*
X41408Y-19457D01*
X41590Y-19457D01*
X41758Y-19388D01*
X41887Y-19259D01*
X41957Y-19091D01*
X41957Y-18909D01*
X41957Y-19909D01*
X41888Y-19741D01*
X41759Y-19612D01*
X41591Y-19542D01*
X41409Y-19542D01*
X41241Y-19611D01*
X41112Y-19740D01*
X41042Y-19908D01*
X41042Y-20090D01*
X41111Y-20258D01*
X41240Y-20387D01*
X41408Y-20457D01*
X41590Y-20457D01*
X41758Y-20388D01*
X41887Y-20259D01*
X41957Y-20091D01*
X41957Y-19909D01*
X41957Y-24520D01*
X41946Y-24515D01*
X41555Y-24515D01*
X41193Y-24664D01*
X40957Y-24900D01*
X40957Y-19909D01*
X40957Y-18909D01*
X40957Y-18909D01*
X40957Y-18268D01*
X40957Y-17668D01*
X40933Y-17610D01*
X40889Y-17566D01*
X40831Y-17542D01*
X40768Y-17542D01*
X40168Y-17542D01*
X40110Y-17566D01*
X40066Y-17610D01*
X40042Y-17668D01*
X40042Y-17731D01*
X40042Y-18331D01*
X40066Y-18389D01*
X40110Y-18433D01*
X40168Y-18457D01*
X40231Y-18457D01*
X40831Y-18457D01*
X40889Y-18433D01*
X40933Y-18389D01*
X40957Y-18331D01*
X40957Y-18268D01*
X40957Y-18909D01*
X40888Y-18741D01*
X40759Y-18612D01*
X40591Y-18542D01*
X40409Y-18542D01*
X40241Y-18611D01*
X40112Y-18740D01*
X40042Y-18908D01*
X40042Y-19090D01*
X40111Y-19258D01*
X40240Y-19387D01*
X40408Y-19457D01*
X40590Y-19457D01*
X40758Y-19388D01*
X40887Y-19259D01*
X40957Y-19091D01*
X40957Y-18909D01*
X40957Y-19909D01*
X40888Y-19741D01*
X40759Y-19612D01*
X40591Y-19542D01*
X40409Y-19542D01*
X40241Y-19611D01*
X40112Y-19740D01*
X40042Y-19908D01*
X40042Y-20090D01*
X40111Y-20258D01*
X40240Y-20387D01*
X40292Y-20409D01*
X40292Y-20914D01*
X39914Y-21292D01*
X38952Y-21292D01*
X38952Y-13910D01*
X38884Y-13743D01*
X38756Y-13616D01*
X38590Y-13547D01*
X38410Y-13547D01*
X38243Y-13615D01*
X38116Y-13743D01*
X38047Y-13909D01*
X38047Y-14089D01*
X38115Y-14256D01*
X38243Y-14383D01*
X38292Y-14404D01*
X38292Y-14567D01*
X38168Y-14567D01*
X38110Y-14591D01*
X38066Y-14635D01*
X38042Y-14693D01*
X38042Y-14756D01*
X38042Y-15306D01*
X38066Y-15364D01*
X38110Y-15408D01*
X38168Y-15432D01*
X38231Y-15432D01*
X38581Y-15432D01*
X38639Y-15408D01*
X38683Y-15364D01*
X38707Y-15306D01*
X38707Y-15243D01*
X38707Y-14693D01*
X38707Y-14693D01*
X38707Y-14404D01*
X38756Y-14384D01*
X38883Y-14256D01*
X38952Y-14090D01*
X38952Y-13910D01*
X38952Y-21292D01*
X38932Y-21292D01*
X38932Y-21268D01*
X38932Y-20918D01*
X38908Y-20860D01*
X38864Y-20816D01*
X38806Y-20792D01*
X38743Y-20792D01*
X38707Y-20792D01*
X38707Y-20000D01*
X38691Y-19920D01*
X38691Y-19920D01*
X38676Y-19898D01*
X38646Y-19853D01*
X38646Y-19853D01*
X38329Y-19536D01*
X38262Y-19491D01*
X38183Y-19475D01*
X37440Y-19475D01*
X37440Y-18982D01*
X37440Y-18588D01*
X37416Y-18530D01*
X37371Y-18486D01*
X37332Y-18470D01*
X37332Y-18446D01*
X37364Y-18433D01*
X37408Y-18389D01*
X37432Y-18331D01*
X37432Y-18268D01*
X37432Y-17918D01*
X37408Y-17860D01*
X37364Y-17816D01*
X37306Y-17792D01*
X37243Y-17792D01*
X36693Y-17792D01*
X36635Y-17816D01*
X36591Y-17860D01*
X36567Y-17918D01*
X36567Y-17981D01*
X36567Y-18331D01*
X36591Y-18389D01*
X36635Y-18433D01*
X36693Y-18457D01*
X36756Y-18457D01*
X36914Y-18457D01*
X36917Y-18460D01*
X36917Y-18470D01*
X36878Y-18486D01*
X36834Y-18530D01*
X36810Y-18588D01*
X36809Y-18651D01*
X36809Y-19045D01*
X36833Y-19103D01*
X36878Y-19147D01*
X36936Y-19171D01*
X36998Y-19171D01*
X37313Y-19171D01*
X37371Y-19147D01*
X37415Y-19103D01*
X37439Y-19045D01*
X37440Y-18982D01*
X37440Y-19475D01*
X37065Y-19475D01*
X37065Y-19454D01*
X37041Y-19396D01*
X36996Y-19352D01*
X36938Y-19328D01*
X36876Y-19328D01*
X36561Y-19328D01*
X36503Y-19352D01*
X36459Y-19396D01*
X36435Y-19454D01*
X36434Y-19517D01*
X36434Y-19911D01*
X36458Y-19969D01*
X36503Y-20013D01*
X36561Y-20037D01*
X36623Y-20037D01*
X36938Y-20037D01*
X36996Y-20013D01*
X37040Y-19969D01*
X37064Y-19911D01*
X37064Y-19890D01*
X38097Y-19890D01*
X38292Y-20085D01*
X38292Y-20792D01*
X38193Y-20792D01*
X38135Y-20816D01*
X38091Y-20860D01*
X38067Y-20918D01*
X38067Y-20981D01*
X38067Y-21292D01*
X37932Y-21292D01*
X37932Y-21268D01*
X37932Y-20918D01*
X37908Y-20860D01*
X37864Y-20816D01*
X37806Y-20792D01*
X37743Y-20792D01*
X37460Y-20792D01*
X37271Y-20603D01*
X37204Y-20558D01*
X37125Y-20542D01*
X35432Y-20542D01*
X35432Y-20518D01*
X35432Y-20168D01*
X35408Y-20110D01*
X35364Y-20066D01*
X35306Y-20042D01*
X35243Y-20042D01*
X35207Y-20042D01*
X35207Y-20029D01*
X35246Y-20013D01*
X35290Y-19969D01*
X35314Y-19911D01*
X35315Y-19848D01*
X35315Y-19457D01*
X36000Y-19457D01*
X36079Y-19441D01*
X36079Y-19441D01*
X36146Y-19396D01*
X36371Y-19171D01*
X36563Y-19171D01*
X36621Y-19147D01*
X36665Y-19103D01*
X36689Y-19045D01*
X36690Y-18982D01*
X36690Y-18588D01*
X36666Y-18530D01*
X36621Y-18486D01*
X36563Y-18462D01*
X36501Y-18462D01*
X36186Y-18462D01*
X36128Y-18486D01*
X36084Y-18530D01*
X36060Y-18588D01*
X36059Y-18651D01*
X36059Y-18896D01*
X35914Y-19042D01*
X35689Y-19042D01*
X35690Y-18982D01*
X35690Y-18588D01*
X35666Y-18530D01*
X35621Y-18486D01*
X35582Y-18470D01*
X35582Y-18446D01*
X35614Y-18433D01*
X35658Y-18389D01*
X35682Y-18331D01*
X35682Y-18268D01*
X35682Y-17918D01*
X35658Y-17860D01*
X35614Y-17816D01*
X35556Y-17792D01*
X35493Y-17792D01*
X34943Y-17792D01*
X34885Y-17816D01*
X34841Y-17860D01*
X34817Y-17918D01*
X34817Y-17981D01*
X34817Y-18299D01*
X34816Y-18295D01*
X34816Y-18295D01*
X34771Y-18228D01*
X34146Y-17603D01*
X34079Y-17558D01*
X34000Y-17542D01*
X33932Y-17542D01*
X33932Y-17518D01*
X33932Y-17207D01*
X34817Y-17207D01*
X34817Y-17231D01*
X34817Y-17581D01*
X34841Y-17639D01*
X34885Y-17683D01*
X34943Y-17707D01*
X35006Y-17707D01*
X35556Y-17707D01*
X35614Y-17683D01*
X35658Y-17639D01*
X35682Y-17582D01*
X35709Y-17582D01*
X35667Y-17683D01*
X35667Y-17815D01*
X35717Y-17938D01*
X35811Y-18031D01*
X35933Y-18082D01*
X36065Y-18082D01*
X36188Y-18032D01*
X36281Y-17938D01*
X36332Y-17816D01*
X36332Y-17710D01*
X36460Y-17582D01*
X36568Y-17582D01*
X36591Y-17639D01*
X36635Y-17683D01*
X36693Y-17707D01*
X36756Y-17707D01*
X37306Y-17707D01*
X37364Y-17683D01*
X37408Y-17639D01*
X37432Y-17581D01*
X37432Y-17518D01*
X37432Y-17168D01*
X37408Y-17110D01*
X37364Y-17066D01*
X37306Y-17042D01*
X37243Y-17042D01*
X36693Y-17042D01*
X36635Y-17066D01*
X36591Y-17110D01*
X36567Y-17167D01*
X36375Y-17167D01*
X36295Y-17183D01*
X36273Y-17198D01*
X36228Y-17228D01*
X36125Y-17331D01*
X36021Y-17228D01*
X35954Y-17183D01*
X35875Y-17167D01*
X35681Y-17167D01*
X35658Y-17110D01*
X35614Y-17066D01*
X35556Y-17042D01*
X35493Y-17042D01*
X35250Y-17042D01*
X36500Y-15793D01*
X36603Y-15896D01*
X36603Y-15896D01*
X36648Y-15926D01*
X36670Y-15941D01*
X36670Y-15941D01*
X36750Y-15957D01*
X37250Y-15957D01*
X37329Y-15941D01*
X37329Y-15941D01*
X37396Y-15896D01*
X37771Y-15521D01*
X37771Y-15521D01*
X37801Y-15476D01*
X37816Y-15454D01*
X37816Y-15454D01*
X37821Y-15432D01*
X37831Y-15432D01*
X37889Y-15408D01*
X37933Y-15364D01*
X37957Y-15306D01*
X37957Y-15243D01*
X37957Y-14693D01*
X37933Y-14635D01*
X37889Y-14591D01*
X37831Y-14567D01*
X37768Y-14567D01*
X37418Y-14567D01*
X37360Y-14591D01*
X37316Y-14635D01*
X37292Y-14693D01*
X37292Y-14756D01*
X37292Y-15306D01*
X37316Y-15364D01*
X37329Y-15377D01*
X37164Y-15542D01*
X36835Y-15542D01*
X36725Y-15432D01*
X36731Y-15432D01*
X37081Y-15432D01*
X37139Y-15408D01*
X37183Y-15364D01*
X37207Y-15306D01*
X37207Y-15243D01*
X37207Y-14693D01*
X37183Y-14635D01*
X37170Y-14622D01*
X37360Y-14432D01*
X37409Y-14452D01*
X37589Y-14452D01*
X37756Y-14384D01*
X37883Y-14256D01*
X37952Y-14090D01*
X37952Y-13910D01*
X37884Y-13743D01*
X37756Y-13616D01*
X37590Y-13547D01*
X37410Y-13547D01*
X37243Y-13615D01*
X37116Y-13743D01*
X37047Y-13909D01*
X37047Y-14089D01*
X37067Y-14139D01*
X36728Y-14478D01*
X36707Y-14509D01*
X36707Y-14404D01*
X36756Y-14384D01*
X36883Y-14256D01*
X36952Y-14090D01*
X36952Y-13910D01*
X36884Y-13743D01*
X36756Y-13616D01*
X36590Y-13547D01*
X36410Y-13547D01*
X36243Y-13615D01*
X36116Y-13743D01*
X36047Y-13909D01*
X36047Y-14089D01*
X36115Y-14256D01*
X36243Y-14383D01*
X36292Y-14404D01*
X36292Y-14567D01*
X36268Y-14567D01*
X35918Y-14567D01*
X35860Y-14591D01*
X35816Y-14635D01*
X35792Y-14693D01*
X35792Y-14749D01*
X35707Y-14664D01*
X35707Y-14404D01*
X35756Y-14384D01*
X35883Y-14256D01*
X35952Y-14090D01*
X35952Y-13910D01*
X35884Y-13743D01*
X35756Y-13616D01*
X35590Y-13547D01*
X35410Y-13547D01*
X35243Y-13615D01*
X35207Y-13652D01*
X35207Y-13585D01*
X35585Y-13207D01*
X36925Y-13207D01*
X37004Y-13191D01*
X37004Y-13191D01*
X37071Y-13146D01*
X37510Y-12707D01*
X37806Y-12707D01*
X37864Y-12683D01*
X37908Y-12639D01*
X37921Y-12607D01*
X38892Y-12607D01*
X38892Y-12631D01*
X38916Y-12689D01*
X38960Y-12733D01*
X39018Y-12757D01*
X39081Y-12757D01*
X39881Y-12757D01*
X39939Y-12733D01*
X39983Y-12689D01*
X40007Y-12631D01*
X40007Y-12568D01*
X40007Y-12168D01*
X40007Y-10768D01*
X40007Y-10368D01*
X39983Y-10310D01*
X39939Y-10266D01*
X39881Y-10242D01*
X39818Y-10242D01*
X39703Y-10242D01*
X39703Y-7168D01*
X39634Y-7001D01*
X39506Y-6874D01*
X39340Y-6805D01*
X39160Y-6804D01*
X38993Y-6873D01*
X38866Y-7001D01*
X38797Y-7167D01*
X38796Y-7347D01*
X38865Y-7514D01*
X38993Y-7641D01*
X39159Y-7710D01*
X39339Y-7711D01*
X39506Y-7642D01*
X39633Y-7514D01*
X39702Y-7348D01*
X39703Y-7168D01*
X39703Y-10242D01*
X39018Y-10242D01*
X38960Y-10266D01*
X38916Y-10310D01*
X38899Y-10351D01*
X38864Y-10316D01*
X38806Y-10292D01*
X38743Y-10292D01*
X38193Y-10292D01*
X38135Y-10316D01*
X38091Y-10360D01*
X38067Y-10417D01*
X37625Y-10417D01*
X37585Y-10425D01*
X37566Y-10417D01*
X37434Y-10417D01*
X37311Y-10467D01*
X37218Y-10561D01*
X37167Y-10683D01*
X37167Y-10815D01*
X37217Y-10938D01*
X37292Y-11012D01*
X37292Y-11292D01*
X37193Y-11292D01*
X37135Y-11316D01*
X37091Y-11360D01*
X37067Y-11418D01*
X37067Y-11481D01*
X37067Y-11831D01*
X37091Y-11889D01*
X37135Y-11933D01*
X37193Y-11957D01*
X37256Y-11957D01*
X37806Y-11957D01*
X37864Y-11933D01*
X37908Y-11889D01*
X37932Y-11831D01*
X37932Y-11768D01*
X37932Y-11418D01*
X37908Y-11360D01*
X37864Y-11316D01*
X37806Y-11292D01*
X37743Y-11292D01*
X37707Y-11292D01*
X37707Y-11012D01*
X37781Y-10938D01*
X37825Y-10832D01*
X38068Y-10832D01*
X38091Y-10889D01*
X38135Y-10933D01*
X38193Y-10957D01*
X38256Y-10957D01*
X38806Y-10957D01*
X38864Y-10933D01*
X38908Y-10889D01*
X38912Y-10879D01*
X38916Y-10889D01*
X38960Y-10933D01*
X39018Y-10957D01*
X39081Y-10957D01*
X39881Y-10957D01*
X39939Y-10933D01*
X39983Y-10889D01*
X40007Y-10831D01*
X40007Y-10768D01*
X40007Y-12168D01*
X39983Y-12110D01*
X39939Y-12066D01*
X39881Y-12042D01*
X39818Y-12042D01*
X39018Y-12042D01*
X38960Y-12066D01*
X38916Y-12110D01*
X38892Y-12168D01*
X38892Y-12192D01*
X37932Y-12192D01*
X37932Y-12168D01*
X37908Y-12110D01*
X37864Y-12066D01*
X37806Y-12042D01*
X37743Y-12042D01*
X37193Y-12042D01*
X37135Y-12066D01*
X37091Y-12110D01*
X37067Y-12168D01*
X37067Y-12231D01*
X37067Y-12564D01*
X36839Y-12792D01*
X35832Y-12792D01*
X35832Y-12181D01*
X35889Y-12158D01*
X35933Y-12114D01*
X35957Y-12056D01*
X35957Y-11993D01*
X35957Y-11443D01*
X35933Y-11385D01*
X35889Y-11341D01*
X35831Y-11317D01*
X35798Y-11317D01*
X35798Y-11204D01*
X35818Y-11196D01*
X35862Y-11152D01*
X35886Y-11094D01*
X35886Y-11031D01*
X35886Y-10745D01*
X36646Y-9985D01*
X36691Y-9918D01*
X36691Y-9918D01*
X36707Y-9839D01*
X36707Y-8646D01*
X36756Y-8626D01*
X36883Y-8498D01*
X36952Y-8332D01*
X36953Y-8152D01*
X36953Y-7168D01*
X36884Y-7001D01*
X36756Y-6874D01*
X36590Y-6805D01*
X36410Y-6804D01*
X36243Y-6873D01*
X36116Y-7001D01*
X36047Y-7167D01*
X36046Y-7347D01*
X36115Y-7514D01*
X36243Y-7641D01*
X36409Y-7710D01*
X36589Y-7711D01*
X36756Y-7642D01*
X36883Y-7514D01*
X36952Y-7348D01*
X36953Y-7168D01*
X36953Y-8152D01*
X36884Y-7985D01*
X36756Y-7858D01*
X36590Y-7789D01*
X36410Y-7788D01*
X36243Y-7857D01*
X36116Y-7985D01*
X36047Y-8151D01*
X36046Y-8331D01*
X36115Y-8498D01*
X36243Y-8625D01*
X36292Y-8646D01*
X36292Y-9753D01*
X35767Y-10278D01*
X35760Y-10275D01*
X35697Y-10275D01*
X35550Y-10275D01*
X35551Y-10215D01*
X35551Y-9132D01*
X35527Y-9074D01*
X35482Y-9030D01*
X35424Y-9006D01*
X35362Y-9005D01*
X34575Y-9005D01*
X34517Y-9029D01*
X34473Y-9074D01*
X34449Y-9132D01*
X34448Y-9194D01*
X34448Y-9497D01*
X34182Y-9497D01*
X34182Y-9418D01*
X34158Y-9360D01*
X34114Y-9316D01*
X34056Y-9292D01*
X33993Y-9292D01*
X33443Y-9292D01*
X33385Y-9316D01*
X33341Y-9360D01*
X33317Y-9418D01*
X33317Y-9481D01*
X33317Y-9831D01*
X33341Y-9889D01*
X33385Y-9933D01*
X33443Y-9957D01*
X33506Y-9957D01*
X34056Y-9957D01*
X34114Y-9933D01*
X34135Y-9912D01*
X34448Y-9912D01*
X34448Y-10275D01*
X34239Y-10275D01*
X34182Y-10299D01*
X34182Y-10168D01*
X34158Y-10110D01*
X34114Y-10066D01*
X34056Y-10042D01*
X33993Y-10042D01*
X33443Y-10042D01*
X33385Y-10066D01*
X33372Y-10079D01*
X33207Y-9914D01*
X33207Y-9077D01*
X33610Y-8674D01*
X33659Y-8694D01*
X33839Y-8695D01*
X34006Y-8626D01*
X34133Y-8498D01*
X34202Y-8332D01*
X34203Y-8152D01*
X34203Y-7168D01*
X34134Y-7001D01*
X34006Y-6874D01*
X33840Y-6805D01*
X33660Y-6804D01*
X33493Y-6873D01*
X33366Y-7001D01*
X33297Y-7167D01*
X33296Y-7347D01*
X33365Y-7514D01*
X33493Y-7641D01*
X33659Y-7710D01*
X33839Y-7711D01*
X34006Y-7642D01*
X34133Y-7514D01*
X34202Y-7348D01*
X34203Y-7168D01*
X34203Y-8152D01*
X34134Y-7985D01*
X34006Y-7858D01*
X33840Y-7789D01*
X33660Y-7788D01*
X33493Y-7857D01*
X33366Y-7985D01*
X33297Y-8151D01*
X33296Y-8331D01*
X33317Y-8381D01*
X32853Y-8845D01*
X32808Y-8912D01*
X32792Y-8992D01*
X32792Y-10000D01*
X32808Y-10079D01*
X32853Y-10146D01*
X33228Y-10521D01*
X33228Y-10521D01*
X33273Y-10551D01*
X33295Y-10566D01*
X33295Y-10566D01*
X33317Y-10571D01*
X33317Y-10581D01*
X33341Y-10639D01*
X33385Y-10683D01*
X33443Y-10707D01*
X33481Y-10707D01*
X33481Y-11257D01*
X33401Y-11257D01*
X33343Y-11281D01*
X33299Y-11326D01*
X33275Y-11384D01*
X33275Y-11446D01*
X33275Y-12115D01*
X33299Y-12173D01*
X33343Y-12217D01*
X33401Y-12241D01*
X33464Y-12242D01*
X33976Y-12242D01*
X34034Y-12218D01*
X34078Y-12173D01*
X34102Y-12115D01*
X34102Y-12053D01*
X34102Y-11384D01*
X34078Y-11326D01*
X34034Y-11282D01*
X33976Y-11258D01*
X33913Y-11257D01*
X33896Y-11257D01*
X33896Y-10814D01*
X33976Y-10894D01*
X34043Y-10939D01*
X34043Y-10939D01*
X34056Y-10942D01*
X34113Y-10953D01*
X34113Y-11094D01*
X34137Y-11152D01*
X34181Y-11196D01*
X34239Y-11220D01*
X34302Y-11220D01*
X34578Y-11220D01*
X34636Y-11196D01*
X34680Y-11152D01*
X34704Y-11094D01*
X34704Y-11048D01*
X34704Y-11094D01*
X34728Y-11152D01*
X34772Y-11196D01*
X34792Y-11205D01*
X34792Y-11317D01*
X34668Y-11317D01*
X34610Y-11341D01*
X34566Y-11385D01*
X34542Y-11443D01*
X34542Y-11506D01*
X34542Y-12056D01*
X34566Y-12114D01*
X34610Y-12158D01*
X34667Y-12182D01*
X34667Y-12375D01*
X34675Y-12414D01*
X34667Y-12433D01*
X34667Y-12565D01*
X34717Y-12688D01*
X34811Y-12781D01*
X34933Y-12832D01*
X35065Y-12832D01*
X35188Y-12782D01*
X35281Y-12688D01*
X35332Y-12566D01*
X35332Y-12434D01*
X35282Y-12311D01*
X35188Y-12218D01*
X35091Y-12178D01*
X35139Y-12158D01*
X35183Y-12114D01*
X35207Y-12056D01*
X35207Y-11993D01*
X35207Y-11443D01*
X35207Y-11443D01*
X35207Y-11205D01*
X35227Y-11197D01*
X35271Y-11152D01*
X35295Y-11094D01*
X35295Y-11049D01*
X35295Y-11094D01*
X35319Y-11152D01*
X35363Y-11196D01*
X35383Y-11204D01*
X35383Y-11332D01*
X35360Y-11341D01*
X35316Y-11385D01*
X35292Y-11443D01*
X35292Y-11506D01*
X35292Y-12056D01*
X35316Y-12114D01*
X35360Y-12158D01*
X35417Y-12182D01*
X35417Y-12789D01*
X35353Y-12853D01*
X34853Y-13353D01*
X34808Y-13420D01*
X34792Y-13500D01*
X34792Y-13652D01*
X34756Y-13616D01*
X34590Y-13547D01*
X34410Y-13547D01*
X34243Y-13615D01*
X34116Y-13743D01*
X34047Y-13909D01*
X34047Y-14089D01*
X34067Y-14139D01*
X33728Y-14478D01*
X33707Y-14509D01*
X33707Y-14404D01*
X33756Y-14384D01*
X33883Y-14256D01*
X33952Y-14090D01*
X33952Y-13910D01*
X33884Y-13743D01*
X33756Y-13616D01*
X33590Y-13547D01*
X33410Y-13547D01*
X33243Y-13615D01*
X33116Y-13743D01*
X33047Y-13909D01*
X33047Y-14089D01*
X33115Y-14256D01*
X33243Y-14383D01*
X33292Y-14404D01*
X33292Y-14509D01*
X33271Y-14478D01*
X32932Y-14139D01*
X32952Y-14090D01*
X32952Y-13910D01*
X32884Y-13743D01*
X32756Y-13616D01*
X32724Y-13602D01*
X32724Y-12053D01*
X32724Y-11384D01*
X32700Y-11326D01*
X32656Y-11282D01*
X32598Y-11258D01*
X32535Y-11257D01*
X32112Y-11257D01*
X31857Y-11003D01*
X31790Y-10958D01*
X31711Y-10942D01*
X31602Y-10942D01*
X31602Y-10173D01*
X31578Y-10115D01*
X31534Y-10071D01*
X31476Y-10047D01*
X31413Y-10047D01*
X29528Y-10047D01*
X29602Y-9870D01*
X29602Y-9431D01*
X29588Y-9397D01*
X29874Y-9684D01*
X30279Y-9852D01*
X30718Y-9852D01*
X31123Y-9685D01*
X31434Y-9375D01*
X31602Y-8970D01*
X31602Y-8531D01*
X31435Y-8126D01*
X31125Y-7815D01*
X30720Y-7647D01*
X30281Y-7647D01*
X29876Y-7814D01*
X29565Y-8124D01*
X29397Y-8529D01*
X29397Y-8968D01*
X29411Y-9002D01*
X29125Y-8715D01*
X28720Y-8547D01*
X28281Y-8547D01*
X27876Y-8714D01*
X27565Y-9024D01*
X27397Y-9429D01*
X27397Y-9868D01*
X27564Y-10273D01*
X27874Y-10584D01*
X28279Y-10752D01*
X28718Y-10752D01*
X29123Y-10585D01*
X29397Y-10311D01*
X29397Y-12126D01*
X29421Y-12184D01*
X29465Y-12228D01*
X29523Y-12252D01*
X29586Y-12252D01*
X31476Y-12252D01*
X31534Y-12228D01*
X31578Y-12184D01*
X31602Y-12126D01*
X31602Y-12063D01*
X31602Y-11357D01*
X31625Y-11357D01*
X31897Y-11629D01*
X31897Y-12115D01*
X31921Y-12173D01*
X31965Y-12217D01*
X32023Y-12241D01*
X32086Y-12242D01*
X32598Y-12242D01*
X32656Y-12218D01*
X32700Y-12173D01*
X32724Y-12115D01*
X32724Y-12053D01*
X32724Y-13602D01*
X32590Y-13547D01*
X32410Y-13547D01*
X32243Y-13615D01*
X32116Y-13743D01*
X32047Y-13909D01*
X32047Y-14089D01*
X32115Y-14256D01*
X32243Y-14383D01*
X32409Y-14452D01*
X32589Y-14452D01*
X32639Y-14432D01*
X32829Y-14622D01*
X32816Y-14635D01*
X32792Y-14693D01*
X32792Y-14756D01*
X32792Y-15306D01*
X32816Y-15364D01*
X32860Y-15408D01*
X32918Y-15432D01*
X32981Y-15432D01*
X33274Y-15432D01*
X33164Y-15542D01*
X32585Y-15542D01*
X32582Y-15539D01*
X32582Y-15431D01*
X32639Y-15408D01*
X32683Y-15364D01*
X32707Y-15306D01*
X32707Y-15243D01*
X32707Y-14693D01*
X32683Y-14635D01*
X32639Y-14591D01*
X32581Y-14567D01*
X32518Y-14567D01*
X32168Y-14567D01*
X32110Y-14591D01*
X32066Y-14635D01*
X32042Y-14693D01*
X32042Y-14756D01*
X32042Y-15306D01*
X32066Y-15364D01*
X32110Y-15408D01*
X32167Y-15432D01*
X32167Y-15625D01*
X32183Y-15704D01*
X32228Y-15771D01*
X32353Y-15896D01*
X32353Y-15896D01*
X32398Y-15926D01*
X32420Y-15941D01*
X32420Y-15941D01*
X32499Y-15957D01*
X32500Y-15957D01*
X33250Y-15957D01*
X33329Y-15941D01*
X33329Y-15941D01*
X33396Y-15896D01*
X33646Y-15646D01*
X33646Y-15646D01*
X33676Y-15601D01*
X33691Y-15579D01*
X33691Y-15579D01*
X33707Y-15500D01*
X33707Y-15500D01*
X33707Y-15432D01*
X33731Y-15432D01*
X34081Y-15432D01*
X34139Y-15408D01*
X34183Y-15364D01*
X34207Y-15306D01*
X34207Y-15243D01*
X34207Y-14693D01*
X34183Y-14635D01*
X34170Y-14622D01*
X34360Y-14432D01*
X34409Y-14452D01*
X34589Y-14452D01*
X34756Y-14384D01*
X34792Y-14347D01*
X34792Y-15914D01*
X34164Y-16542D01*
X31957Y-16542D01*
X31957Y-15243D01*
X31957Y-14693D01*
X31933Y-14635D01*
X31889Y-14591D01*
X31832Y-14567D01*
X31832Y-14307D01*
X31883Y-14256D01*
X31952Y-14090D01*
X31952Y-13910D01*
X31884Y-13743D01*
X31756Y-13616D01*
X31590Y-13547D01*
X31410Y-13547D01*
X31243Y-13615D01*
X31116Y-13743D01*
X31047Y-13909D01*
X31047Y-14089D01*
X31115Y-14256D01*
X31243Y-14383D01*
X31409Y-14452D01*
X31417Y-14452D01*
X31417Y-14568D01*
X31360Y-14591D01*
X31316Y-14635D01*
X31292Y-14693D01*
X31292Y-14756D01*
X31292Y-15306D01*
X31316Y-15364D01*
X31360Y-15408D01*
X31418Y-15432D01*
X31481Y-15432D01*
X31831Y-15432D01*
X31889Y-15408D01*
X31933Y-15364D01*
X31957Y-15306D01*
X31957Y-15243D01*
X31957Y-16542D01*
X27432Y-16542D01*
X27432Y-16518D01*
X27432Y-16168D01*
X27408Y-16110D01*
X27364Y-16066D01*
X27306Y-16042D01*
X27243Y-16042D01*
X26693Y-16042D01*
X26635Y-16066D01*
X26591Y-16110D01*
X26567Y-16167D01*
X26431Y-16167D01*
X26408Y-16110D01*
X26364Y-16066D01*
X26306Y-16042D01*
X26250Y-16042D01*
X27085Y-15207D01*
X27292Y-15207D01*
X27292Y-15306D01*
X27316Y-15364D01*
X27360Y-15408D01*
X27418Y-15432D01*
X27481Y-15432D01*
X27792Y-15432D01*
X27792Y-15750D01*
X27808Y-15829D01*
X27853Y-15896D01*
X28042Y-16085D01*
X28042Y-16306D01*
X28066Y-16364D01*
X28110Y-16408D01*
X28168Y-16432D01*
X28231Y-16432D01*
X28581Y-16432D01*
X28639Y-16408D01*
X28683Y-16364D01*
X28707Y-16306D01*
X28707Y-16243D01*
X28707Y-15693D01*
X28683Y-15635D01*
X28639Y-15591D01*
X28581Y-15567D01*
X28518Y-15567D01*
X28207Y-15567D01*
X28207Y-15432D01*
X28231Y-15432D01*
X28581Y-15432D01*
X28639Y-15408D01*
X28683Y-15364D01*
X28707Y-15306D01*
X28707Y-15243D01*
X28707Y-15207D01*
X28792Y-15207D01*
X28792Y-15306D01*
X28816Y-15364D01*
X28860Y-15408D01*
X28918Y-15432D01*
X28981Y-15432D01*
X29292Y-15432D01*
X29292Y-15567D01*
X29268Y-15567D01*
X28918Y-15567D01*
X28860Y-15591D01*
X28816Y-15635D01*
X28792Y-15693D01*
X28792Y-15756D01*
X28792Y-16306D01*
X28816Y-16364D01*
X28860Y-16408D01*
X28918Y-16432D01*
X28981Y-16432D01*
X29331Y-16432D01*
X29389Y-16408D01*
X29433Y-16364D01*
X29457Y-16306D01*
X29457Y-16243D01*
X29457Y-16085D01*
X29646Y-15896D01*
X29646Y-15896D01*
X29676Y-15851D01*
X29691Y-15829D01*
X29691Y-15829D01*
X29707Y-15750D01*
X29707Y-15750D01*
X29707Y-15432D01*
X29731Y-15432D01*
X30081Y-15432D01*
X30139Y-15408D01*
X30183Y-15364D01*
X30207Y-15306D01*
X30207Y-15243D01*
X30207Y-14693D01*
X30183Y-14635D01*
X30170Y-14622D01*
X30360Y-14432D01*
X30409Y-14452D01*
X30589Y-14452D01*
X30756Y-14384D01*
X30883Y-14256D01*
X30952Y-14090D01*
X30952Y-13910D01*
X30884Y-13743D01*
X30756Y-13616D01*
X30590Y-13547D01*
X30410Y-13547D01*
X30243Y-13615D01*
X30116Y-13743D01*
X30047Y-13909D01*
X30047Y-14089D01*
X30067Y-14139D01*
X29728Y-14478D01*
X29707Y-14509D01*
X29707Y-14404D01*
X29756Y-14384D01*
X29883Y-14256D01*
X29952Y-14090D01*
X29952Y-13910D01*
X29884Y-13743D01*
X29756Y-13616D01*
X29590Y-13547D01*
X29410Y-13547D01*
X29243Y-13615D01*
X29116Y-13743D01*
X29047Y-13909D01*
X29047Y-14089D01*
X29115Y-14256D01*
X29243Y-14383D01*
X29292Y-14404D01*
X29292Y-14567D01*
X29268Y-14567D01*
X28918Y-14567D01*
X28860Y-14591D01*
X28816Y-14635D01*
X28792Y-14693D01*
X28792Y-14756D01*
X28792Y-14792D01*
X28707Y-14792D01*
X28707Y-14693D01*
X28683Y-14635D01*
X28639Y-14591D01*
X28582Y-14567D01*
X28582Y-14452D01*
X28589Y-14452D01*
X28756Y-14384D01*
X28883Y-14256D01*
X28952Y-14090D01*
X28952Y-13910D01*
X28884Y-13743D01*
X28756Y-13616D01*
X28590Y-13547D01*
X28410Y-13547D01*
X28243Y-13615D01*
X28116Y-13743D01*
X28047Y-13909D01*
X28047Y-14089D01*
X28115Y-14256D01*
X28167Y-14307D01*
X28167Y-14384D01*
X28146Y-14353D01*
X27932Y-14139D01*
X27952Y-14090D01*
X27952Y-13910D01*
X27884Y-13743D01*
X27756Y-13616D01*
X27590Y-13547D01*
X27410Y-13547D01*
X27243Y-13615D01*
X27116Y-13743D01*
X27047Y-13909D01*
X27047Y-14089D01*
X27115Y-14256D01*
X27243Y-14383D01*
X27409Y-14452D01*
X27589Y-14452D01*
X27639Y-14432D01*
X27774Y-14567D01*
X27768Y-14567D01*
X27418Y-14567D01*
X27360Y-14591D01*
X27316Y-14635D01*
X27292Y-14693D01*
X27292Y-14756D01*
X27292Y-14792D01*
X27000Y-14792D01*
X26920Y-14808D01*
X26898Y-14823D01*
X26853Y-14853D01*
X25914Y-15792D01*
X25500Y-15792D01*
X25646Y-15646D01*
X25646Y-15646D01*
X25676Y-15601D01*
X25691Y-15579D01*
X25691Y-15579D01*
X25707Y-15500D01*
X25707Y-15500D01*
X25707Y-15432D01*
X25731Y-15432D01*
X26081Y-15432D01*
X26139Y-15408D01*
X26183Y-15364D01*
X26207Y-15306D01*
X26207Y-15243D01*
X26207Y-15207D01*
X26250Y-15207D01*
X26329Y-15191D01*
X26329Y-15191D01*
X26396Y-15146D01*
X26646Y-14896D01*
X26646Y-14896D01*
X26676Y-14851D01*
X26691Y-14829D01*
X26691Y-14829D01*
X26707Y-14750D01*
X26707Y-14750D01*
X26707Y-14404D01*
X26756Y-14384D01*
X26883Y-14256D01*
X26952Y-14090D01*
X26952Y-13910D01*
X26884Y-13743D01*
X26756Y-13616D01*
X26590Y-13547D01*
X26548Y-13547D01*
X26548Y-9551D01*
X26434Y-9276D01*
X26224Y-9066D01*
X25949Y-8952D01*
X25651Y-8951D01*
X25376Y-9065D01*
X25166Y-9275D01*
X25052Y-9550D01*
X25051Y-9848D01*
X25165Y-10123D01*
X25375Y-10333D01*
X25650Y-10447D01*
X25948Y-10448D01*
X26223Y-10334D01*
X26433Y-10124D01*
X26547Y-9849D01*
X26548Y-9551D01*
X26548Y-13547D01*
X26410Y-13547D01*
X26243Y-13615D01*
X26116Y-13743D01*
X26047Y-13909D01*
X26047Y-14089D01*
X26115Y-14256D01*
X26243Y-14383D01*
X26292Y-14404D01*
X26292Y-14664D01*
X26207Y-14749D01*
X26207Y-14693D01*
X26183Y-14635D01*
X26139Y-14591D01*
X26081Y-14567D01*
X26018Y-14567D01*
X25707Y-14567D01*
X25707Y-14404D01*
X25756Y-14384D01*
X25883Y-14256D01*
X25952Y-14090D01*
X25952Y-13910D01*
X25884Y-13743D01*
X25756Y-13616D01*
X25590Y-13547D01*
X25410Y-13547D01*
X25243Y-13615D01*
X25116Y-13743D01*
X25047Y-13909D01*
X25047Y-14089D01*
X25115Y-14256D01*
X25243Y-14383D01*
X25292Y-14404D01*
X25292Y-14567D01*
X25268Y-14567D01*
X24918Y-14567D01*
X24860Y-14591D01*
X24816Y-14635D01*
X24792Y-14693D01*
X24792Y-14749D01*
X24707Y-14664D01*
X24707Y-14404D01*
X24756Y-14384D01*
X24883Y-14256D01*
X24952Y-14090D01*
X24952Y-13910D01*
X24884Y-13743D01*
X24853Y-13712D01*
X24853Y-10660D01*
X24784Y-10493D01*
X24656Y-10366D01*
X24490Y-10297D01*
X24310Y-10296D01*
X24143Y-10365D01*
X24016Y-10493D01*
X23947Y-10659D01*
X23946Y-10839D01*
X24015Y-11006D01*
X24143Y-11133D01*
X24309Y-11202D01*
X24489Y-11203D01*
X24656Y-11134D01*
X24783Y-11006D01*
X24852Y-10840D01*
X24853Y-10660D01*
X24853Y-13712D01*
X24756Y-13616D01*
X24590Y-13547D01*
X24410Y-13547D01*
X24243Y-13615D01*
X24116Y-13743D01*
X24047Y-13909D01*
X24047Y-14089D01*
X24115Y-14256D01*
X24243Y-14383D01*
X24292Y-14404D01*
X24292Y-14750D01*
X24308Y-14829D01*
X24353Y-14896D01*
X24603Y-15146D01*
X24603Y-15146D01*
X24648Y-15176D01*
X24670Y-15191D01*
X24670Y-15191D01*
X24750Y-15207D01*
X24792Y-15207D01*
X24792Y-15306D01*
X24816Y-15364D01*
X24860Y-15408D01*
X24918Y-15432D01*
X24981Y-15432D01*
X25274Y-15432D01*
X25164Y-15542D01*
X24835Y-15542D01*
X24396Y-15103D01*
X24329Y-15058D01*
X24250Y-15042D01*
X23952Y-15042D01*
X23952Y-13910D01*
X23884Y-13743D01*
X23756Y-13616D01*
X23707Y-13595D01*
X23707Y-13207D01*
X23806Y-13207D01*
X23864Y-13183D01*
X23908Y-13139D01*
X23932Y-13081D01*
X23932Y-13018D01*
X23932Y-12668D01*
X23932Y-12268D01*
X23932Y-11918D01*
X23908Y-11860D01*
X23864Y-11816D01*
X23806Y-11792D01*
X23743Y-11792D01*
X23707Y-11792D01*
X23707Y-11083D01*
X23783Y-11006D01*
X23852Y-10840D01*
X23853Y-10660D01*
X23784Y-10493D01*
X23656Y-10366D01*
X23490Y-10297D01*
X23310Y-10296D01*
X23143Y-10365D01*
X23016Y-10493D01*
X23000Y-10531D01*
X22984Y-10493D01*
X22856Y-10366D01*
X22690Y-10297D01*
X22510Y-10296D01*
X22343Y-10365D01*
X22216Y-10493D01*
X22147Y-10659D01*
X22146Y-10839D01*
X22215Y-11006D01*
X22292Y-11083D01*
X22292Y-11792D01*
X22193Y-11792D01*
X22135Y-11816D01*
X22091Y-11860D01*
X22067Y-11918D01*
X22067Y-11981D01*
X22067Y-12331D01*
X22091Y-12389D01*
X22135Y-12433D01*
X22193Y-12457D01*
X22256Y-12457D01*
X22806Y-12457D01*
X22864Y-12433D01*
X22908Y-12389D01*
X22932Y-12331D01*
X22932Y-12268D01*
X22932Y-11918D01*
X22908Y-11860D01*
X22864Y-11816D01*
X22806Y-11792D01*
X22743Y-11792D01*
X22707Y-11792D01*
X22707Y-11195D01*
X22856Y-11134D01*
X22983Y-11006D01*
X22999Y-10968D01*
X23015Y-11006D01*
X23143Y-11133D01*
X23292Y-11195D01*
X23292Y-11792D01*
X23193Y-11792D01*
X23135Y-11816D01*
X23091Y-11860D01*
X23067Y-11918D01*
X23067Y-11981D01*
X23067Y-12331D01*
X23091Y-12389D01*
X23135Y-12433D01*
X23193Y-12457D01*
X23256Y-12457D01*
X23806Y-12457D01*
X23864Y-12433D01*
X23908Y-12389D01*
X23932Y-12331D01*
X23932Y-12268D01*
X23932Y-12668D01*
X23908Y-12610D01*
X23864Y-12566D01*
X23806Y-12542D01*
X23743Y-12542D01*
X23193Y-12542D01*
X23135Y-12566D01*
X23091Y-12610D01*
X23067Y-12668D01*
X23067Y-12731D01*
X23067Y-13081D01*
X23091Y-13139D01*
X23135Y-13183D01*
X23193Y-13207D01*
X23256Y-13207D01*
X23292Y-13207D01*
X23292Y-13595D01*
X23243Y-13615D01*
X23116Y-13743D01*
X23047Y-13909D01*
X23047Y-14089D01*
X23115Y-14256D01*
X23243Y-14383D01*
X23409Y-14452D01*
X23589Y-14452D01*
X23756Y-14384D01*
X23883Y-14256D01*
X23952Y-14090D01*
X23952Y-13910D01*
X23952Y-15042D01*
X22952Y-15042D01*
X22952Y-13910D01*
X22884Y-13743D01*
X22756Y-13616D01*
X22707Y-13595D01*
X22707Y-13207D01*
X22806Y-13207D01*
X22864Y-13183D01*
X22908Y-13139D01*
X22932Y-13081D01*
X22932Y-13018D01*
X22932Y-12668D01*
X22908Y-12610D01*
X22864Y-12566D01*
X22806Y-12542D01*
X22743Y-12542D01*
X22193Y-12542D01*
X22135Y-12566D01*
X22091Y-12610D01*
X22067Y-12668D01*
X22067Y-12731D01*
X22067Y-13081D01*
X22091Y-13139D01*
X22135Y-13183D01*
X22193Y-13207D01*
X22256Y-13207D01*
X22292Y-13207D01*
X22292Y-13595D01*
X22243Y-13615D01*
X22116Y-13743D01*
X22053Y-13895D01*
X22053Y-10660D01*
X21984Y-10493D01*
X21856Y-10366D01*
X21690Y-10297D01*
X21510Y-10296D01*
X21343Y-10365D01*
X21216Y-10493D01*
X21148Y-10657D01*
X21148Y-9551D01*
X21034Y-9276D01*
X20824Y-9066D01*
X20549Y-8952D01*
X20251Y-8951D01*
X19976Y-9065D01*
X19766Y-9275D01*
X19652Y-9550D01*
X19651Y-9848D01*
X19765Y-10123D01*
X19975Y-10333D01*
X20250Y-10447D01*
X20548Y-10448D01*
X20823Y-10334D01*
X21033Y-10124D01*
X21147Y-9849D01*
X21148Y-9551D01*
X21148Y-10657D01*
X21147Y-10659D01*
X21146Y-10839D01*
X21215Y-11006D01*
X21343Y-11133D01*
X21509Y-11202D01*
X21689Y-11203D01*
X21856Y-11134D01*
X21983Y-11006D01*
X22052Y-10840D01*
X22053Y-10660D01*
X22053Y-13895D01*
X22047Y-13909D01*
X22047Y-14089D01*
X22115Y-14256D01*
X22243Y-14383D01*
X22409Y-14452D01*
X22589Y-14452D01*
X22756Y-14384D01*
X22883Y-14256D01*
X22952Y-14090D01*
X22952Y-13910D01*
X22952Y-15042D01*
X22207Y-15042D01*
X22207Y-14943D01*
X22183Y-14885D01*
X22139Y-14841D01*
X22081Y-14817D01*
X22018Y-14817D01*
X21707Y-14817D01*
X21707Y-14404D01*
X21756Y-14384D01*
X21883Y-14256D01*
X21952Y-14090D01*
X21952Y-13910D01*
X21884Y-13743D01*
X21756Y-13616D01*
X21590Y-13547D01*
X21410Y-13547D01*
X21243Y-13615D01*
X21116Y-13743D01*
X21047Y-13909D01*
X21047Y-14089D01*
X21115Y-14256D01*
X21243Y-14383D01*
X21292Y-14404D01*
X21292Y-14817D01*
X21268Y-14817D01*
X20918Y-14817D01*
X20860Y-14841D01*
X20816Y-14885D01*
X20792Y-14943D01*
X20792Y-15006D01*
X20792Y-15042D01*
X20682Y-15042D01*
X20682Y-15018D01*
X20682Y-14668D01*
X20658Y-14610D01*
X20614Y-14566D01*
X20556Y-14542D01*
X20493Y-14542D01*
X20457Y-14542D01*
X20457Y-14452D01*
X20589Y-14452D01*
X20756Y-14384D01*
X20883Y-14256D01*
X20952Y-14090D01*
X20952Y-13910D01*
X20884Y-13743D01*
X20756Y-13616D01*
X20590Y-13547D01*
X20410Y-13547D01*
X20243Y-13615D01*
X20116Y-13743D01*
X20047Y-13909D01*
X20047Y-14089D01*
X20072Y-14149D01*
X20072Y-14149D01*
X20058Y-14170D01*
X20042Y-14250D01*
X20042Y-14542D01*
X19943Y-14542D01*
X19885Y-14566D01*
X19841Y-14610D01*
X19817Y-14668D01*
X19817Y-14731D01*
X19817Y-15024D01*
X19707Y-14914D01*
X19707Y-14404D01*
X19756Y-14384D01*
X19883Y-14256D01*
X19952Y-14090D01*
X19952Y-13910D01*
X19884Y-13743D01*
X19756Y-13616D01*
X19590Y-13547D01*
X19410Y-13547D01*
X19243Y-13615D01*
X19116Y-13743D01*
X19047Y-13909D01*
X19047Y-14089D01*
X19115Y-14256D01*
X19243Y-14383D01*
X19292Y-14404D01*
X19292Y-15000D01*
X19308Y-15079D01*
X19353Y-15146D01*
X19603Y-15396D01*
X19603Y-15396D01*
X19648Y-15426D01*
X19670Y-15441D01*
X19670Y-15441D01*
X19750Y-15457D01*
X19817Y-15457D01*
X19817Y-15481D01*
X19817Y-15831D01*
X19841Y-15889D01*
X19885Y-15933D01*
X19943Y-15957D01*
X20006Y-15957D01*
X20289Y-15957D01*
X20478Y-16146D01*
X20478Y-16146D01*
X20523Y-16176D01*
X20545Y-16191D01*
X20545Y-16191D01*
X20625Y-16207D01*
X20914Y-16207D01*
X21792Y-17085D01*
X21792Y-19000D01*
X21808Y-19079D01*
X21853Y-19146D01*
X22292Y-19585D01*
X22292Y-22595D01*
X22243Y-22615D01*
X22182Y-22677D01*
X22182Y-20518D01*
X22182Y-20168D01*
X22158Y-20110D01*
X22114Y-20066D01*
X22056Y-20042D01*
X21993Y-20042D01*
X21835Y-20042D01*
X21724Y-19931D01*
X21724Y-18053D01*
X21724Y-17384D01*
X21700Y-17326D01*
X21656Y-17282D01*
X21598Y-17258D01*
X21535Y-17257D01*
X21023Y-17257D01*
X20965Y-17281D01*
X20921Y-17326D01*
X20897Y-17384D01*
X20897Y-17446D01*
X20897Y-18115D01*
X20921Y-18173D01*
X20965Y-18217D01*
X21023Y-18241D01*
X21086Y-18242D01*
X21103Y-18242D01*
X21103Y-18450D01*
X21061Y-18467D01*
X20968Y-18561D01*
X20917Y-18683D01*
X20917Y-18815D01*
X20967Y-18938D01*
X21061Y-19031D01*
X21183Y-19082D01*
X21315Y-19082D01*
X21438Y-19032D01*
X21531Y-18938D01*
X21582Y-18816D01*
X21582Y-18684D01*
X21532Y-18561D01*
X21518Y-18548D01*
X21518Y-18242D01*
X21598Y-18242D01*
X21656Y-18218D01*
X21700Y-18173D01*
X21724Y-18115D01*
X21724Y-18053D01*
X21724Y-19931D01*
X21646Y-19853D01*
X21579Y-19808D01*
X21500Y-19792D01*
X21352Y-19792D01*
X21352Y-19634D01*
X21328Y-19576D01*
X21284Y-19532D01*
X21226Y-19508D01*
X21163Y-19507D01*
X20651Y-19507D01*
X20593Y-19531D01*
X20549Y-19576D01*
X20525Y-19634D01*
X20525Y-19696D01*
X20525Y-20365D01*
X20549Y-20423D01*
X20593Y-20467D01*
X20651Y-20491D01*
X20714Y-20492D01*
X21226Y-20492D01*
X21284Y-20468D01*
X21317Y-20434D01*
X21317Y-20581D01*
X21341Y-20639D01*
X21385Y-20683D01*
X21443Y-20707D01*
X21506Y-20707D01*
X22056Y-20707D01*
X22114Y-20683D01*
X22158Y-20639D01*
X22182Y-20581D01*
X22182Y-20518D01*
X22182Y-22677D01*
X22116Y-22743D01*
X22047Y-22909D01*
X22047Y-23089D01*
X22115Y-23256D01*
X22243Y-23383D01*
X22409Y-23452D01*
X22589Y-23452D01*
X22756Y-23384D01*
X22792Y-23347D01*
X22792Y-24501D01*
X22600Y-24693D01*
X22232Y-24693D01*
X22174Y-24717D01*
X22130Y-24761D01*
X22106Y-24819D01*
X22106Y-24882D01*
X22106Y-25292D01*
X21832Y-25292D01*
X21832Y-24684D01*
X21782Y-24561D01*
X21688Y-24468D01*
X21566Y-24417D01*
X21460Y-24417D01*
X21207Y-24164D01*
X21207Y-21500D01*
X21191Y-21420D01*
X21191Y-21420D01*
X21176Y-21398D01*
X21146Y-21353D01*
X21146Y-21353D01*
X20771Y-20978D01*
X20704Y-20933D01*
X20625Y-20917D01*
X19931Y-20917D01*
X19908Y-20860D01*
X19864Y-20816D01*
X19806Y-20792D01*
X19768Y-20792D01*
X19768Y-20492D01*
X19848Y-20492D01*
X19906Y-20468D01*
X19950Y-20423D01*
X19974Y-20365D01*
X19974Y-20303D01*
X19974Y-19634D01*
X19950Y-19576D01*
X19906Y-19532D01*
X19848Y-19508D01*
X19785Y-19507D01*
X19273Y-19507D01*
X19215Y-19531D01*
X19171Y-19576D01*
X19147Y-19634D01*
X19147Y-19696D01*
X19147Y-20365D01*
X19171Y-20423D01*
X19215Y-20467D01*
X19273Y-20491D01*
X19336Y-20492D01*
X19353Y-20492D01*
X19353Y-20792D01*
X19193Y-20792D01*
X19135Y-20816D01*
X19091Y-20860D01*
X19067Y-20918D01*
X19067Y-20981D01*
X19067Y-21331D01*
X19091Y-21389D01*
X19135Y-21433D01*
X19193Y-21457D01*
X19256Y-21457D01*
X19806Y-21457D01*
X19864Y-21433D01*
X19908Y-21389D01*
X19932Y-21332D01*
X20539Y-21332D01*
X20774Y-21567D01*
X20768Y-21567D01*
X20418Y-21567D01*
X20360Y-21591D01*
X20316Y-21635D01*
X20292Y-21693D01*
X20292Y-21756D01*
X20292Y-22039D01*
X19853Y-22478D01*
X19808Y-22545D01*
X19792Y-22625D01*
X19792Y-22652D01*
X19756Y-22616D01*
X19707Y-22595D01*
X19707Y-22207D01*
X19806Y-22207D01*
X19864Y-22183D01*
X19908Y-22139D01*
X19932Y-22081D01*
X19932Y-22018D01*
X19932Y-21668D01*
X19908Y-21610D01*
X19864Y-21566D01*
X19806Y-21542D01*
X19743Y-21542D01*
X19193Y-21542D01*
X19135Y-21566D01*
X19091Y-21610D01*
X19067Y-21668D01*
X19067Y-21731D01*
X19067Y-22081D01*
X19091Y-22139D01*
X19135Y-22183D01*
X19193Y-22207D01*
X19256Y-22207D01*
X19292Y-22207D01*
X19292Y-22595D01*
X19243Y-22615D01*
X19116Y-22743D01*
X19047Y-22909D01*
X19047Y-23089D01*
X19115Y-23256D01*
X19243Y-23383D01*
X19409Y-23452D01*
X19589Y-23452D01*
X19756Y-23384D01*
X19792Y-23347D01*
X19792Y-24250D01*
X19808Y-24329D01*
X19853Y-24396D01*
X20174Y-24717D01*
X20130Y-24761D01*
X20106Y-24819D01*
X20106Y-24882D01*
X20106Y-25354D01*
X20130Y-25412D01*
X20174Y-25456D01*
X20232Y-25480D01*
X20295Y-25480D01*
X20767Y-25480D01*
X20825Y-25456D01*
X20869Y-25412D01*
X20893Y-25354D01*
X20893Y-25291D01*
X20893Y-24819D01*
X20869Y-24761D01*
X20825Y-24717D01*
X20767Y-24693D01*
X20704Y-24693D01*
X20696Y-24693D01*
X20694Y-24683D01*
X20691Y-24670D01*
X20691Y-24670D01*
X20646Y-24603D01*
X20207Y-24164D01*
X20207Y-23347D01*
X20243Y-23383D01*
X20409Y-23452D01*
X20589Y-23452D01*
X20756Y-23384D01*
X20792Y-23347D01*
X20792Y-24250D01*
X20808Y-24329D01*
X20853Y-24396D01*
X21167Y-24710D01*
X21167Y-24815D01*
X21217Y-24938D01*
X21311Y-25031D01*
X21433Y-25082D01*
X21565Y-25082D01*
X21688Y-25032D01*
X21781Y-24938D01*
X21832Y-24816D01*
X21832Y-24684D01*
X21832Y-25292D01*
X21250Y-25292D01*
X21183Y-25305D01*
X21170Y-25308D01*
X21103Y-25353D01*
X20869Y-25587D01*
X20825Y-25543D01*
X20767Y-25519D01*
X20704Y-25519D01*
X20232Y-25519D01*
X20174Y-25543D01*
X20130Y-25587D01*
X20106Y-25645D01*
X20106Y-25708D01*
X20106Y-26180D01*
X20130Y-26238D01*
X20174Y-26282D01*
X20232Y-26306D01*
X20295Y-26306D01*
X20767Y-26306D01*
X20825Y-26282D01*
X20869Y-26238D01*
X20893Y-26180D01*
X20893Y-26117D01*
X20893Y-26109D01*
X20916Y-26104D01*
X20916Y-26104D01*
X20983Y-26059D01*
X21335Y-25707D01*
X22106Y-25707D01*
X22106Y-25708D01*
X22106Y-26180D01*
X22130Y-26238D01*
X22174Y-26282D01*
X22232Y-26306D01*
X22295Y-26306D01*
X22767Y-26306D01*
X22825Y-26282D01*
X22869Y-26238D01*
X22893Y-26180D01*
X22893Y-26120D01*
X22940Y-26120D01*
X22967Y-26188D01*
X23061Y-26281D01*
X23183Y-26332D01*
X23315Y-26332D01*
X23438Y-26282D01*
X23531Y-26188D01*
X23582Y-26066D01*
X23582Y-25934D01*
X23532Y-25811D01*
X23438Y-25718D01*
X23412Y-25707D01*
X24106Y-25707D01*
X24106Y-25708D01*
X24106Y-26180D01*
X24130Y-26238D01*
X24174Y-26282D01*
X24232Y-26306D01*
X24295Y-26306D01*
X24767Y-26306D01*
X24825Y-26282D01*
X24869Y-26238D01*
X24893Y-26180D01*
X24893Y-26120D01*
X24940Y-26120D01*
X24967Y-26188D01*
X25061Y-26281D01*
X25183Y-26332D01*
X25315Y-26332D01*
X25438Y-26282D01*
X25531Y-26188D01*
X25582Y-26066D01*
X25582Y-25934D01*
X25532Y-25811D01*
X25438Y-25718D01*
X25412Y-25707D01*
X25750Y-25707D01*
X25829Y-25691D01*
X25829Y-25691D01*
X25896Y-25646D01*
X26210Y-25332D01*
X26315Y-25332D01*
X26438Y-25282D01*
X26531Y-25188D01*
X26582Y-25066D01*
X26582Y-24934D01*
X26532Y-24811D01*
X26438Y-24718D01*
X26316Y-24667D01*
X26184Y-24667D01*
X26061Y-24717D01*
X25968Y-24811D01*
X25917Y-24933D01*
X25917Y-25039D01*
X25664Y-25292D01*
X24893Y-25292D01*
X24893Y-25291D01*
X24893Y-24819D01*
X24869Y-24761D01*
X24825Y-24717D01*
X24767Y-24693D01*
X24704Y-24693D01*
X24399Y-24693D01*
X24207Y-24501D01*
X24207Y-23347D01*
X24243Y-23383D01*
X24409Y-23452D01*
X24589Y-23452D01*
X24756Y-23384D01*
X24792Y-23347D01*
X24792Y-23737D01*
X24718Y-23811D01*
X24667Y-23933D01*
X24667Y-24065D01*
X24717Y-24188D01*
X24811Y-24281D01*
X24933Y-24332D01*
X25065Y-24332D01*
X25188Y-24282D01*
X25262Y-24207D01*
X26664Y-24207D01*
X27606Y-25149D01*
X27606Y-25354D01*
X27630Y-25412D01*
X27674Y-25456D01*
X27732Y-25480D01*
X27795Y-25480D01*
X28267Y-25480D01*
X28325Y-25456D01*
X28369Y-25412D01*
X28393Y-25354D01*
X28393Y-25294D01*
X28751Y-25294D01*
X29516Y-26059D01*
X29516Y-26059D01*
X29561Y-26089D01*
X29583Y-26104D01*
X29583Y-26104D01*
X29606Y-26109D01*
X29606Y-26180D01*
X29630Y-26238D01*
X29674Y-26282D01*
X29732Y-26306D01*
X29795Y-26306D01*
X30267Y-26306D01*
X30325Y-26282D01*
X30369Y-26238D01*
X30393Y-26180D01*
X30393Y-26117D01*
X30393Y-25645D01*
X30369Y-25587D01*
X30325Y-25543D01*
X30267Y-25519D01*
X30204Y-25519D01*
X29732Y-25519D01*
X29674Y-25543D01*
X29630Y-25587D01*
X28983Y-24940D01*
X28916Y-24895D01*
X28837Y-24879D01*
X28393Y-24879D01*
X28393Y-24819D01*
X28369Y-24761D01*
X28325Y-24717D01*
X28267Y-24693D01*
X28204Y-24693D01*
X27736Y-24693D01*
X26896Y-23853D01*
X26829Y-23808D01*
X26750Y-23792D01*
X25262Y-23792D01*
X25207Y-23737D01*
X25207Y-23347D01*
X25243Y-23383D01*
X25409Y-23452D01*
X25589Y-23452D01*
X25756Y-23384D01*
X25883Y-23256D01*
X25952Y-23090D01*
X25952Y-22910D01*
X25884Y-22743D01*
X25779Y-22639D01*
X25985Y-22432D01*
X26292Y-22432D01*
X26292Y-22595D01*
X26243Y-22615D01*
X26116Y-22743D01*
X26047Y-22909D01*
X26047Y-23089D01*
X26115Y-23256D01*
X26243Y-23383D01*
X26409Y-23452D01*
X26589Y-23452D01*
X26756Y-23384D01*
X26883Y-23256D01*
X26952Y-23090D01*
X26952Y-22910D01*
X26884Y-22743D01*
X26756Y-22616D01*
X26707Y-22595D01*
X26707Y-22432D01*
X26731Y-22432D01*
X27081Y-22432D01*
X27122Y-22415D01*
X27292Y-22585D01*
X27292Y-22595D01*
X27243Y-22615D01*
X27116Y-22743D01*
X27047Y-22909D01*
X27047Y-23089D01*
X27115Y-23256D01*
X27243Y-23383D01*
X27409Y-23452D01*
X27589Y-23452D01*
X27756Y-23384D01*
X27809Y-23330D01*
X27853Y-23396D01*
X29606Y-25149D01*
X29606Y-25354D01*
X29630Y-25412D01*
X29674Y-25456D01*
X29732Y-25480D01*
X29795Y-25480D01*
X30267Y-25480D01*
X30325Y-25456D01*
X30369Y-25412D01*
X30393Y-25354D01*
X30393Y-25291D01*
X30393Y-24819D01*
X30369Y-24761D01*
X30325Y-24717D01*
X30267Y-24693D01*
X30204Y-24693D01*
X29736Y-24693D01*
X28496Y-23452D01*
X28589Y-23452D01*
X28756Y-23384D01*
X28883Y-23256D01*
X28952Y-23090D01*
X28952Y-22910D01*
X28884Y-22743D01*
X28756Y-22616D01*
X28707Y-22595D01*
X28707Y-22207D01*
X28806Y-22207D01*
X28864Y-22183D01*
X28908Y-22139D01*
X28932Y-22081D01*
X28932Y-22018D01*
X28932Y-21668D01*
X28908Y-21610D01*
X28864Y-21566D01*
X28806Y-21542D01*
X28743Y-21542D01*
X28335Y-21542D01*
X28250Y-21457D01*
X28256Y-21457D01*
X28806Y-21457D01*
X28864Y-21433D01*
X28908Y-21389D01*
X28932Y-21332D01*
X29068Y-21332D01*
X29091Y-21389D01*
X29135Y-21433D01*
X29193Y-21457D01*
X29256Y-21457D01*
X29749Y-21457D01*
X29664Y-21542D01*
X29193Y-21542D01*
X29135Y-21566D01*
X29091Y-21610D01*
X29067Y-21668D01*
X29067Y-21731D01*
X29067Y-22081D01*
X29091Y-22139D01*
X29135Y-22183D01*
X29193Y-22207D01*
X29256Y-22207D01*
X29292Y-22207D01*
X29292Y-22595D01*
X29243Y-22615D01*
X29116Y-22743D01*
X29047Y-22909D01*
X29047Y-23089D01*
X29115Y-23256D01*
X29243Y-23383D01*
X29409Y-23452D01*
X29589Y-23452D01*
X29756Y-23384D01*
X29809Y-23330D01*
X29853Y-23396D01*
X30103Y-23646D01*
X30103Y-23646D01*
X30148Y-23676D01*
X30170Y-23691D01*
X30170Y-23691D01*
X30250Y-23707D01*
X31664Y-23707D01*
X31792Y-23835D01*
X31792Y-24693D01*
X31732Y-24693D01*
X31674Y-24717D01*
X31630Y-24761D01*
X31606Y-24819D01*
X31606Y-24882D01*
X31606Y-25354D01*
X31630Y-25412D01*
X31674Y-25456D01*
X31732Y-25480D01*
X31795Y-25480D01*
X32226Y-25480D01*
X32187Y-25519D01*
X31732Y-25519D01*
X31674Y-25543D01*
X31630Y-25587D01*
X31606Y-25645D01*
X31606Y-25708D01*
X31606Y-26180D01*
X31630Y-26238D01*
X31674Y-26282D01*
X31732Y-26306D01*
X31795Y-26306D01*
X32267Y-26306D01*
X32325Y-26282D01*
X32369Y-26238D01*
X32393Y-26180D01*
X32393Y-26117D01*
X32393Y-25899D01*
X32500Y-25793D01*
X32766Y-26059D01*
X32833Y-26104D01*
X32833Y-26104D01*
X32846Y-26107D01*
X32913Y-26120D01*
X33606Y-26120D01*
X33606Y-26180D01*
X33630Y-26238D01*
X33674Y-26282D01*
X33732Y-26306D01*
X33795Y-26306D01*
X34267Y-26306D01*
X34325Y-26282D01*
X34369Y-26238D01*
X34393Y-26180D01*
X34393Y-26117D01*
X34393Y-25645D01*
X34369Y-25587D01*
X34325Y-25543D01*
X34267Y-25519D01*
X34204Y-25519D01*
X33732Y-25519D01*
X33674Y-25543D01*
X33630Y-25587D01*
X33606Y-25645D01*
X33606Y-25705D01*
X32998Y-25705D01*
X32707Y-25414D01*
X32707Y-24262D01*
X32781Y-24188D01*
X32832Y-24066D01*
X32832Y-23934D01*
X32782Y-23811D01*
X32688Y-23718D01*
X32566Y-23667D01*
X32434Y-23667D01*
X32311Y-23717D01*
X32218Y-23811D01*
X32207Y-23837D01*
X32207Y-23750D01*
X32191Y-23670D01*
X32191Y-23670D01*
X32176Y-23648D01*
X32146Y-23603D01*
X32146Y-23603D01*
X31896Y-23353D01*
X31830Y-23309D01*
X31883Y-23256D01*
X31952Y-23090D01*
X31952Y-22910D01*
X31884Y-22743D01*
X31756Y-22616D01*
X31707Y-22595D01*
X31707Y-22432D01*
X31731Y-22432D01*
X32014Y-22432D01*
X32220Y-22639D01*
X32116Y-22743D01*
X32047Y-22909D01*
X32047Y-23089D01*
X32115Y-23256D01*
X32243Y-23383D01*
X32409Y-23452D01*
X32589Y-23452D01*
X32756Y-23384D01*
X32809Y-23330D01*
X32853Y-23396D01*
X33353Y-23896D01*
X33420Y-23941D01*
X33420Y-23941D01*
X33433Y-23944D01*
X33500Y-23957D01*
X33664Y-23957D01*
X33792Y-24085D01*
X33792Y-24693D01*
X33732Y-24693D01*
X33674Y-24717D01*
X33630Y-24761D01*
X33606Y-24819D01*
X33606Y-24882D01*
X33606Y-25354D01*
X33630Y-25412D01*
X33674Y-25456D01*
X33732Y-25480D01*
X33795Y-25480D01*
X34267Y-25480D01*
X34325Y-25456D01*
X34369Y-25412D01*
X34393Y-25354D01*
X34393Y-25291D01*
X34393Y-24819D01*
X34369Y-24761D01*
X34325Y-24717D01*
X34267Y-24693D01*
X34207Y-24693D01*
X34207Y-24000D01*
X34191Y-23920D01*
X34191Y-23920D01*
X34176Y-23898D01*
X34146Y-23853D01*
X34146Y-23853D01*
X33896Y-23603D01*
X33829Y-23558D01*
X33750Y-23542D01*
X33585Y-23542D01*
X33496Y-23452D01*
X33589Y-23452D01*
X33756Y-23384D01*
X33883Y-23256D01*
X33952Y-23090D01*
X33952Y-22910D01*
X33884Y-22743D01*
X33756Y-22616D01*
X33707Y-22595D01*
X33707Y-22585D01*
X34085Y-22207D01*
X34292Y-22207D01*
X34292Y-22306D01*
X34316Y-22364D01*
X34360Y-22408D01*
X34418Y-22432D01*
X34481Y-22432D01*
X34792Y-22432D01*
X34792Y-22652D01*
X34756Y-22616D01*
X34590Y-22547D01*
X34410Y-22547D01*
X34243Y-22615D01*
X34116Y-22743D01*
X34047Y-22909D01*
X34047Y-23089D01*
X34115Y-23256D01*
X34243Y-23383D01*
X34409Y-23452D01*
X34589Y-23452D01*
X34756Y-23384D01*
X34792Y-23347D01*
X34792Y-24500D01*
X34808Y-24579D01*
X34853Y-24646D01*
X35440Y-25233D01*
X35507Y-25278D01*
X35507Y-25278D01*
X35587Y-25294D01*
X35606Y-25294D01*
X35606Y-25354D01*
X35630Y-25412D01*
X35674Y-25456D01*
X35732Y-25480D01*
X35795Y-25480D01*
X36267Y-25480D01*
X36325Y-25456D01*
X36369Y-25412D01*
X36393Y-25354D01*
X36393Y-25291D01*
X36393Y-24819D01*
X36369Y-24761D01*
X36325Y-24717D01*
X36267Y-24693D01*
X36204Y-24693D01*
X35732Y-24693D01*
X35674Y-24717D01*
X35630Y-24761D01*
X35608Y-24815D01*
X35207Y-24414D01*
X35207Y-23347D01*
X35243Y-23383D01*
X35409Y-23452D01*
X35853Y-23896D01*
X35920Y-23941D01*
X35920Y-23941D01*
X35933Y-23944D01*
X36000Y-23957D01*
X36750Y-23957D01*
X36829Y-23941D01*
X36829Y-23941D01*
X36896Y-23896D01*
X37146Y-23646D01*
X37146Y-23646D01*
X37176Y-23601D01*
X37191Y-23579D01*
X37191Y-23579D01*
X37207Y-23500D01*
X37207Y-23500D01*
X37207Y-23347D01*
X37243Y-23383D01*
X37409Y-23452D01*
X37589Y-23452D01*
X37756Y-23384D01*
X37792Y-23347D01*
X37792Y-24693D01*
X37732Y-24693D01*
X37674Y-24717D01*
X37630Y-24761D01*
X37606Y-24819D01*
X37606Y-24882D01*
X37606Y-25354D01*
X37630Y-25412D01*
X37674Y-25456D01*
X37732Y-25480D01*
X37795Y-25480D01*
X38267Y-25480D01*
X38325Y-25456D01*
X38369Y-25412D01*
X38393Y-25354D01*
X38393Y-25291D01*
X38393Y-24819D01*
X38369Y-24761D01*
X38325Y-24717D01*
X38267Y-24693D01*
X38207Y-24693D01*
X38207Y-23347D01*
X38243Y-23383D01*
X38409Y-23452D01*
X38589Y-23452D01*
X38756Y-23384D01*
X38883Y-23256D01*
X38952Y-23090D01*
X38952Y-22910D01*
X38884Y-22743D01*
X38756Y-22616D01*
X38590Y-22547D01*
X38410Y-22547D01*
X38243Y-22615D01*
X38207Y-22652D01*
X38207Y-22460D01*
X38460Y-22207D01*
X38806Y-22207D01*
X38864Y-22183D01*
X38908Y-22139D01*
X38932Y-22081D01*
X38932Y-22018D01*
X38932Y-21707D01*
X40000Y-21707D01*
X40079Y-21691D01*
X40079Y-21691D01*
X40146Y-21646D01*
X40646Y-21146D01*
X40691Y-21079D01*
X40691Y-21079D01*
X40694Y-21066D01*
X40707Y-21000D01*
X40707Y-21000D01*
X40707Y-20409D01*
X40758Y-20388D01*
X40887Y-20259D01*
X40957Y-20091D01*
X40957Y-19909D01*
X40957Y-24900D01*
X40915Y-24941D01*
X40765Y-25303D01*
X40765Y-25694D01*
X40914Y-26056D01*
X41191Y-26334D01*
X41553Y-26484D01*
X41944Y-26484D01*
X42306Y-26335D01*
X42584Y-26058D01*
X42734Y-25696D01*
X42734Y-25305D01*
X42734Y-26572D01*
X28393Y-26572D01*
X28393Y-26117D01*
X28393Y-25645D01*
X28369Y-25587D01*
X28325Y-25543D01*
X28267Y-25519D01*
X28204Y-25519D01*
X27732Y-25519D01*
X27674Y-25543D01*
X27630Y-25587D01*
X27606Y-25645D01*
X27606Y-25705D01*
X26157Y-25705D01*
X26066Y-25667D01*
X25934Y-25667D01*
X25811Y-25717D01*
X25718Y-25811D01*
X25667Y-25933D01*
X25667Y-26065D01*
X25717Y-26188D01*
X25811Y-26281D01*
X25933Y-26332D01*
X26065Y-26332D01*
X26188Y-26282D01*
X26281Y-26188D01*
X26309Y-26120D01*
X27606Y-26120D01*
X27606Y-26180D01*
X27630Y-26238D01*
X27674Y-26282D01*
X27732Y-26306D01*
X27795Y-26306D01*
X28267Y-26306D01*
X28325Y-26282D01*
X28369Y-26238D01*
X28393Y-26180D01*
X28393Y-26117D01*
X28393Y-26572D01*
X19457Y-26572D01*
X19457Y-25500D01*
X19457Y-24500D01*
X19441Y-24420D01*
X19441Y-24420D01*
X19426Y-24398D01*
X19396Y-24353D01*
X19396Y-24353D01*
X18457Y-23414D01*
X18457Y-18207D01*
X18556Y-18207D01*
X18614Y-18183D01*
X18658Y-18139D01*
X18682Y-18081D01*
X18682Y-18018D01*
X18682Y-17668D01*
X18658Y-17610D01*
X18614Y-17566D01*
X18556Y-17542D01*
X18493Y-17542D01*
X17957Y-17542D01*
X17957Y-17457D01*
X18006Y-17457D01*
X18556Y-17457D01*
X18614Y-17433D01*
X18658Y-17389D01*
X18682Y-17331D01*
X18682Y-17268D01*
X18682Y-16918D01*
X18658Y-16860D01*
X18614Y-16816D01*
X18556Y-16792D01*
X18493Y-16792D01*
X18457Y-16792D01*
X18457Y-16512D01*
X18531Y-16438D01*
X18582Y-16316D01*
X18582Y-16184D01*
X18532Y-16061D01*
X18438Y-15968D01*
X18316Y-15917D01*
X18184Y-15917D01*
X18061Y-15967D01*
X17968Y-16061D01*
X17957Y-16087D01*
X17957Y-14512D01*
X18031Y-14438D01*
X18082Y-14316D01*
X18082Y-14184D01*
X18032Y-14061D01*
X17938Y-13968D01*
X17816Y-13917D01*
X17734Y-13917D01*
X17734Y-7055D01*
X17585Y-6693D01*
X17308Y-6415D01*
X16946Y-6265D01*
X16555Y-6265D01*
X16193Y-6414D01*
X15915Y-6691D01*
X15765Y-7053D01*
X15765Y-7444D01*
X15914Y-7806D01*
X16191Y-8084D01*
X16553Y-8234D01*
X16944Y-8234D01*
X17306Y-8085D01*
X17584Y-7808D01*
X17734Y-7446D01*
X17734Y-7055D01*
X17734Y-13917D01*
X17684Y-13917D01*
X17561Y-13967D01*
X17468Y-14061D01*
X17417Y-14183D01*
X17417Y-14315D01*
X17467Y-14438D01*
X17542Y-14512D01*
X17542Y-17250D01*
X17542Y-18042D01*
X17493Y-18042D01*
X16943Y-18042D01*
X16885Y-18066D01*
X16841Y-18110D01*
X16817Y-18168D01*
X16817Y-18231D01*
X16817Y-18581D01*
X16841Y-18639D01*
X16885Y-18683D01*
X16943Y-18707D01*
X17006Y-18707D01*
X17042Y-18707D01*
X17042Y-19193D01*
X16982Y-19193D01*
X16924Y-19217D01*
X16880Y-19261D01*
X16856Y-19319D01*
X16856Y-19382D01*
X16856Y-19854D01*
X16880Y-19912D01*
X16924Y-19956D01*
X16982Y-19980D01*
X17045Y-19980D01*
X17517Y-19980D01*
X17575Y-19956D01*
X17619Y-19912D01*
X17643Y-19854D01*
X17643Y-19791D01*
X17643Y-19319D01*
X17619Y-19261D01*
X17575Y-19217D01*
X17517Y-19193D01*
X17457Y-19193D01*
X17457Y-18707D01*
X17556Y-18707D01*
X17614Y-18683D01*
X17658Y-18639D01*
X17682Y-18581D01*
X17682Y-18518D01*
X17682Y-18475D01*
X17792Y-18585D01*
X17792Y-24587D01*
X17808Y-24666D01*
X17853Y-24733D01*
X18106Y-24986D01*
X18106Y-25354D01*
X18130Y-25412D01*
X18174Y-25456D01*
X18232Y-25480D01*
X18295Y-25480D01*
X18767Y-25480D01*
X18825Y-25456D01*
X18869Y-25412D01*
X18893Y-25354D01*
X18893Y-25291D01*
X18893Y-24819D01*
X18869Y-24761D01*
X18825Y-24717D01*
X18767Y-24693D01*
X18704Y-24693D01*
X18399Y-24693D01*
X18207Y-24501D01*
X18207Y-23750D01*
X19042Y-24585D01*
X19042Y-25414D01*
X18869Y-25587D01*
X18825Y-25543D01*
X18767Y-25519D01*
X18704Y-25519D01*
X18232Y-25519D01*
X18174Y-25543D01*
X18130Y-25587D01*
X18106Y-25645D01*
X18106Y-25708D01*
X18106Y-26180D01*
X18130Y-26238D01*
X18174Y-26282D01*
X18232Y-26306D01*
X18295Y-26306D01*
X18767Y-26306D01*
X18825Y-26282D01*
X18869Y-26238D01*
X18893Y-26180D01*
X18893Y-26117D01*
X18893Y-26109D01*
X18916Y-26104D01*
X18916Y-26104D01*
X18983Y-26059D01*
X19396Y-25646D01*
X19441Y-25579D01*
X19441Y-25579D01*
X19444Y-25566D01*
X19457Y-25500D01*
X19457Y-25500D01*
X19457Y-26572D01*
X17734Y-26572D01*
X17734Y-25305D01*
X17643Y-25084D01*
X17643Y-20617D01*
X17643Y-20145D01*
X17619Y-20087D01*
X17575Y-20043D01*
X17517Y-20019D01*
X17454Y-20019D01*
X16982Y-20019D01*
X16924Y-20043D01*
X16880Y-20087D01*
X16856Y-20145D01*
X16856Y-20208D01*
X16856Y-20680D01*
X16880Y-20738D01*
X16924Y-20782D01*
X16982Y-20806D01*
X17042Y-20806D01*
X17042Y-20987D01*
X16968Y-21061D01*
X16917Y-21183D01*
X16917Y-21315D01*
X16967Y-21438D01*
X17061Y-21531D01*
X17183Y-21582D01*
X17315Y-21582D01*
X17438Y-21532D01*
X17531Y-21438D01*
X17582Y-21316D01*
X17582Y-21184D01*
X17532Y-21061D01*
X17457Y-20987D01*
X17457Y-20806D01*
X17517Y-20806D01*
X17575Y-20782D01*
X17619Y-20738D01*
X17643Y-20680D01*
X17643Y-20617D01*
X17643Y-25084D01*
X17585Y-24943D01*
X17308Y-24665D01*
X16946Y-24515D01*
X16555Y-24515D01*
X16193Y-24664D01*
X15915Y-24941D01*
X15765Y-25303D01*
X15765Y-25694D01*
X15914Y-26056D01*
X16191Y-26334D01*
X16553Y-26484D01*
X16944Y-26484D01*
X17306Y-26335D01*
X17584Y-26058D01*
X17734Y-25696D01*
X17734Y-25305D01*
X17734Y-26572D01*
X15677Y-26572D01*
X15677Y-6177D01*
X42822Y-6177D01*
X42822Y-26572D01*
X42822Y-26572D01*
G37*
G54D33*
X42822Y-26572D02*
X42734Y-26572D01*
X42734Y-25305D01*
X42734Y-7055D01*
X42585Y-6693D01*
X42308Y-6415D01*
X41946Y-6265D01*
X41555Y-6265D01*
X41193Y-6414D01*
X40915Y-6691D01*
X40765Y-7053D01*
X40765Y-7444D01*
X40914Y-7806D01*
X41191Y-8084D01*
X41553Y-8234D01*
X41944Y-8234D01*
X42306Y-8085D01*
X42584Y-7808D01*
X42734Y-7446D01*
X42734Y-7055D01*
X42734Y-25305D01*
X42607Y-24997D01*
X42607Y-12188D01*
X42607Y-10748D01*
X42583Y-10690D01*
X42539Y-10646D01*
X42481Y-10622D01*
X42418Y-10622D01*
X41618Y-10622D01*
X41560Y-10646D01*
X41516Y-10690D01*
X41492Y-10748D01*
X41492Y-10811D01*
X41492Y-12251D01*
X41516Y-12309D01*
X41560Y-12353D01*
X41618Y-12377D01*
X41681Y-12377D01*
X42481Y-12377D01*
X42539Y-12353D01*
X42583Y-12309D01*
X42607Y-12251D01*
X42607Y-12188D01*
X42607Y-24997D01*
X42585Y-24943D01*
X42308Y-24665D01*
X41957Y-24520D01*
X41957Y-19909D01*
X41957Y-18909D01*
X41888Y-18741D01*
X41759Y-18612D01*
X41591Y-18542D01*
X41409Y-18542D01*
X41241Y-18611D01*
X41112Y-18740D01*
X41042Y-18908D01*
X41042Y-19090D01*
X41111Y-19258D01*
X41240Y-19387D01*
X41408Y-19457D01*
X41590Y-19457D01*
X41758Y-19388D01*
X41887Y-19259D01*
X41957Y-19091D01*
X41957Y-18909D01*
X41957Y-19909D01*
X41888Y-19741D01*
X41759Y-19612D01*
X41591Y-19542D01*
X41409Y-19542D01*
X41241Y-19611D01*
X41112Y-19740D01*
X41042Y-19908D01*
X41042Y-20090D01*
X41111Y-20258D01*
X41240Y-20387D01*
X41408Y-20457D01*
X41590Y-20457D01*
X41758Y-20388D01*
X41887Y-20259D01*
X41957Y-20091D01*
X41957Y-19909D01*
X41957Y-24520D01*
X41946Y-24515D01*
X41555Y-24515D01*
X41193Y-24664D01*
X40957Y-24900D01*
X40957Y-19909D01*
X40957Y-18909D01*
X40957Y-18909D01*
X40957Y-18268D01*
X40957Y-17668D01*
X40933Y-17610D01*
X40889Y-17566D01*
X40831Y-17542D01*
X40768Y-17542D01*
X40168Y-17542D01*
X40110Y-17566D01*
X40066Y-17610D01*
X40042Y-17668D01*
X40042Y-17731D01*
X40042Y-18331D01*
X40066Y-18389D01*
X40110Y-18433D01*
X40168Y-18457D01*
X40231Y-18457D01*
X40831Y-18457D01*
X40889Y-18433D01*
X40933Y-18389D01*
X40957Y-18331D01*
X40957Y-18268D01*
X40957Y-18909D01*
X40888Y-18741D01*
X40759Y-18612D01*
X40591Y-18542D01*
X40409Y-18542D01*
X40241Y-18611D01*
X40112Y-18740D01*
X40042Y-18908D01*
X40042Y-19090D01*
X40111Y-19258D01*
X40240Y-19387D01*
X40408Y-19457D01*
X40590Y-19457D01*
X40758Y-19388D01*
X40887Y-19259D01*
X40957Y-19091D01*
X40957Y-18909D01*
X40957Y-19909D01*
X40888Y-19741D01*
X40759Y-19612D01*
X40591Y-19542D01*
X40409Y-19542D01*
X40241Y-19611D01*
X40112Y-19740D01*
X40042Y-19908D01*
X40042Y-20090D01*
X40111Y-20258D01*
X40240Y-20387D01*
X40292Y-20409D01*
X40292Y-20914D01*
X39914Y-21292D01*
X38952Y-21292D01*
X38952Y-13910D01*
X38884Y-13743D01*
X38756Y-13616D01*
X38590Y-13547D01*
X38410Y-13547D01*
X38243Y-13615D01*
X38116Y-13743D01*
X38047Y-13909D01*
X38047Y-14089D01*
X38115Y-14256D01*
X38243Y-14383D01*
X38292Y-14404D01*
X38292Y-14567D01*
X38168Y-14567D01*
X38110Y-14591D01*
X38066Y-14635D01*
X38042Y-14693D01*
X38042Y-14756D01*
X38042Y-15306D01*
X38066Y-15364D01*
X38110Y-15408D01*
X38168Y-15432D01*
X38231Y-15432D01*
X38581Y-15432D01*
X38639Y-15408D01*
X38683Y-15364D01*
X38707Y-15306D01*
X38707Y-15243D01*
X38707Y-14693D01*
X38707Y-14693D01*
X38707Y-14404D01*
X38756Y-14384D01*
X38883Y-14256D01*
X38952Y-14090D01*
X38952Y-13910D01*
X38952Y-21292D01*
X38932Y-21292D01*
X38932Y-21268D01*
X38932Y-20918D01*
X38908Y-20860D01*
X38864Y-20816D01*
X38806Y-20792D01*
X38743Y-20792D01*
X38707Y-20792D01*
X38707Y-20000D01*
X38691Y-19920D01*
X38691Y-19920D01*
X38676Y-19898D01*
X38646Y-19853D01*
X38646Y-19853D01*
X38329Y-19536D01*
X38262Y-19491D01*
X38183Y-19475D01*
X37440Y-19475D01*
X37440Y-18982D01*
X37440Y-18588D01*
X37416Y-18530D01*
X37371Y-18486D01*
X37332Y-18470D01*
X37332Y-18446D01*
X37364Y-18433D01*
X37408Y-18389D01*
X37432Y-18331D01*
X37432Y-18268D01*
X37432Y-17918D01*
X37408Y-17860D01*
X37364Y-17816D01*
X37306Y-17792D01*
X37243Y-17792D01*
X36693Y-17792D01*
X36635Y-17816D01*
X36591Y-17860D01*
X36567Y-17918D01*
X36567Y-17981D01*
X36567Y-18331D01*
X36591Y-18389D01*
X36635Y-18433D01*
X36693Y-18457D01*
X36756Y-18457D01*
X36914Y-18457D01*
X36917Y-18460D01*
X36917Y-18470D01*
X36878Y-18486D01*
X36834Y-18530D01*
X36810Y-18588D01*
X36809Y-18651D01*
X36809Y-19045D01*
X36833Y-19103D01*
X36878Y-19147D01*
X36936Y-19171D01*
X36998Y-19171D01*
X37313Y-19171D01*
X37371Y-19147D01*
X37415Y-19103D01*
X37439Y-19045D01*
X37440Y-18982D01*
X37440Y-19475D01*
X37065Y-19475D01*
X37065Y-19454D01*
X37041Y-19396D01*
X36996Y-19352D01*
X36938Y-19328D01*
X36876Y-19328D01*
X36561Y-19328D01*
X36503Y-19352D01*
X36459Y-19396D01*
X36435Y-19454D01*
X36434Y-19517D01*
X36434Y-19911D01*
X36458Y-19969D01*
X36503Y-20013D01*
X36561Y-20037D01*
X36623Y-20037D01*
X36938Y-20037D01*
X36996Y-20013D01*
X37040Y-19969D01*
X37064Y-19911D01*
X37064Y-19890D01*
X38097Y-19890D01*
X38292Y-20085D01*
X38292Y-20792D01*
X38193Y-20792D01*
X38135Y-20816D01*
X38091Y-20860D01*
X38067Y-20918D01*
X38067Y-20981D01*
X38067Y-21292D01*
X37932Y-21292D01*
X37932Y-21268D01*
X37932Y-20918D01*
X37908Y-20860D01*
X37864Y-20816D01*
X37806Y-20792D01*
X37743Y-20792D01*
X37460Y-20792D01*
X37271Y-20603D01*
X37204Y-20558D01*
X37125Y-20542D01*
X35432Y-20542D01*
X35432Y-20518D01*
X35432Y-20168D01*
X35408Y-20110D01*
X35364Y-20066D01*
X35306Y-20042D01*
X35243Y-20042D01*
X35207Y-20042D01*
X35207Y-20029D01*
X35246Y-20013D01*
X35290Y-19969D01*
X35314Y-19911D01*
X35315Y-19848D01*
X35315Y-19457D01*
X36000Y-19457D01*
X36079Y-19441D01*
X36079Y-19441D01*
X36146Y-19396D01*
X36371Y-19171D01*
X36563Y-19171D01*
X36621Y-19147D01*
X36665Y-19103D01*
X36689Y-19045D01*
X36690Y-18982D01*
X36690Y-18588D01*
X36666Y-18530D01*
X36621Y-18486D01*
X36563Y-18462D01*
X36501Y-18462D01*
X36186Y-18462D01*
X36128Y-18486D01*
X36084Y-18530D01*
X36060Y-18588D01*
X36059Y-18651D01*
X36059Y-18896D01*
X35914Y-19042D01*
X35689Y-19042D01*
X35690Y-18982D01*
X35690Y-18588D01*
X35666Y-18530D01*
X35621Y-18486D01*
X35582Y-18470D01*
X35582Y-18446D01*
X35614Y-18433D01*
X35658Y-18389D01*
X35682Y-18331D01*
X35682Y-18268D01*
X35682Y-17918D01*
X35658Y-17860D01*
X35614Y-17816D01*
X35556Y-17792D01*
X35493Y-17792D01*
X34943Y-17792D01*
X34885Y-17816D01*
X34841Y-17860D01*
X34817Y-17918D01*
X34817Y-17981D01*
X34817Y-18299D01*
X34816Y-18295D01*
X34816Y-18295D01*
X34771Y-18228D01*
X34146Y-17603D01*
X34079Y-17558D01*
X34000Y-17542D01*
X33932Y-17542D01*
X33932Y-17518D01*
X33932Y-17207D01*
X34817Y-17207D01*
X34817Y-17231D01*
X34817Y-17581D01*
X34841Y-17639D01*
X34885Y-17683D01*
X34943Y-17707D01*
X35006Y-17707D01*
X35556Y-17707D01*
X35614Y-17683D01*
X35658Y-17639D01*
X35682Y-17582D01*
X35709Y-17582D01*
X35667Y-17683D01*
X35667Y-17815D01*
X35717Y-17938D01*
X35811Y-18031D01*
X35933Y-18082D01*
X36065Y-18082D01*
X36188Y-18032D01*
X36281Y-17938D01*
X36332Y-17816D01*
X36332Y-17710D01*
X36460Y-17582D01*
X36568Y-17582D01*
X36591Y-17639D01*
X36635Y-17683D01*
X36693Y-17707D01*
X36756Y-17707D01*
X37306Y-17707D01*
X37364Y-17683D01*
X37408Y-17639D01*
X37432Y-17581D01*
X37432Y-17518D01*
X37432Y-17168D01*
X37408Y-17110D01*
X37364Y-17066D01*
X37306Y-17042D01*
X37243Y-17042D01*
X36693Y-17042D01*
X36635Y-17066D01*
X36591Y-17110D01*
X36567Y-17167D01*
X36375Y-17167D01*
X36295Y-17183D01*
X36273Y-17198D01*
X36228Y-17228D01*
X36125Y-17331D01*
X36021Y-17228D01*
X35954Y-17183D01*
X35875Y-17167D01*
X35681Y-17167D01*
X35658Y-17110D01*
X35614Y-17066D01*
X35556Y-17042D01*
X35493Y-17042D01*
X35250Y-17042D01*
X36500Y-15793D01*
X36603Y-15896D01*
X36603Y-15896D01*
X36648Y-15926D01*
X36670Y-15941D01*
X36670Y-15941D01*
X36750Y-15957D01*
X37250Y-15957D01*
X37329Y-15941D01*
X37329Y-15941D01*
X37396Y-15896D01*
X37771Y-15521D01*
X37771Y-15521D01*
X37801Y-15476D01*
X37816Y-15454D01*
X37816Y-15454D01*
X37821Y-15432D01*
X37831Y-15432D01*
X37889Y-15408D01*
X37933Y-15364D01*
X37957Y-15306D01*
X37957Y-15243D01*
X37957Y-14693D01*
X37933Y-14635D01*
X37889Y-14591D01*
X37831Y-14567D01*
X37768Y-14567D01*
X37418Y-14567D01*
X37360Y-14591D01*
X37316Y-14635D01*
X37292Y-14693D01*
X37292Y-14756D01*
X37292Y-15306D01*
X37316Y-15364D01*
X37329Y-15377D01*
X37164Y-15542D01*
X36835Y-15542D01*
X36725Y-15432D01*
X36731Y-15432D01*
X37081Y-15432D01*
X37139Y-15408D01*
X37183Y-15364D01*
X37207Y-15306D01*
X37207Y-15243D01*
X37207Y-14693D01*
X37183Y-14635D01*
X37170Y-14622D01*
X37360Y-14432D01*
X37409Y-14452D01*
X37589Y-14452D01*
X37756Y-14384D01*
X37883Y-14256D01*
X37952Y-14090D01*
X37952Y-13910D01*
X37884Y-13743D01*
X37756Y-13616D01*
X37590Y-13547D01*
X37410Y-13547D01*
X37243Y-13615D01*
X37116Y-13743D01*
X37047Y-13909D01*
X37047Y-14089D01*
X37067Y-14139D01*
X36728Y-14478D01*
X36707Y-14509D01*
X36707Y-14404D01*
X36756Y-14384D01*
X36883Y-14256D01*
X36952Y-14090D01*
X36952Y-13910D01*
X36884Y-13743D01*
X36756Y-13616D01*
X36590Y-13547D01*
X36410Y-13547D01*
X36243Y-13615D01*
X36116Y-13743D01*
X36047Y-13909D01*
X36047Y-14089D01*
X36115Y-14256D01*
X36243Y-14383D01*
X36292Y-14404D01*
X36292Y-14567D01*
X36268Y-14567D01*
X35918Y-14567D01*
X35860Y-14591D01*
X35816Y-14635D01*
X35792Y-14693D01*
X35792Y-14749D01*
X35707Y-14664D01*
X35707Y-14404D01*
X35756Y-14384D01*
X35883Y-14256D01*
X35952Y-14090D01*
X35952Y-13910D01*
X35884Y-13743D01*
X35756Y-13616D01*
X35590Y-13547D01*
X35410Y-13547D01*
X35243Y-13615D01*
X35207Y-13652D01*
X35207Y-13585D01*
X35585Y-13207D01*
X36925Y-13207D01*
X37004Y-13191D01*
X37004Y-13191D01*
X37071Y-13146D01*
X37510Y-12707D01*
X37806Y-12707D01*
X37864Y-12683D01*
X37908Y-12639D01*
X37921Y-12607D01*
X38892Y-12607D01*
X38892Y-12631D01*
X38916Y-12689D01*
X38960Y-12733D01*
X39018Y-12757D01*
X39081Y-12757D01*
X39881Y-12757D01*
X39939Y-12733D01*
X39983Y-12689D01*
X40007Y-12631D01*
X40007Y-12568D01*
X40007Y-12168D01*
X40007Y-10768D01*
X40007Y-10368D01*
X39983Y-10310D01*
X39939Y-10266D01*
X39881Y-10242D01*
X39818Y-10242D01*
X39703Y-10242D01*
X39703Y-7168D01*
X39634Y-7001D01*
X39506Y-6874D01*
X39340Y-6805D01*
X39160Y-6804D01*
X38993Y-6873D01*
X38866Y-7001D01*
X38797Y-7167D01*
X38796Y-7347D01*
X38865Y-7514D01*
X38993Y-7641D01*
X39159Y-7710D01*
X39339Y-7711D01*
X39506Y-7642D01*
X39633Y-7514D01*
X39702Y-7348D01*
X39703Y-7168D01*
X39703Y-10242D01*
X39018Y-10242D01*
X38960Y-10266D01*
X38916Y-10310D01*
X38899Y-10351D01*
X38864Y-10316D01*
X38806Y-10292D01*
X38743Y-10292D01*
X38193Y-10292D01*
X38135Y-10316D01*
X38091Y-10360D01*
X38067Y-10417D01*
X37625Y-10417D01*
X37585Y-10425D01*
X37566Y-10417D01*
X37434Y-10417D01*
X37311Y-10467D01*
X37218Y-10561D01*
X37167Y-10683D01*
X37167Y-10815D01*
X37217Y-10938D01*
X37292Y-11012D01*
X37292Y-11292D01*
X37193Y-11292D01*
X37135Y-11316D01*
X37091Y-11360D01*
X37067Y-11418D01*
X37067Y-11481D01*
X37067Y-11831D01*
X37091Y-11889D01*
X37135Y-11933D01*
X37193Y-11957D01*
X37256Y-11957D01*
X37806Y-11957D01*
X37864Y-11933D01*
X37908Y-11889D01*
X37932Y-11831D01*
X37932Y-11768D01*
X37932Y-11418D01*
X37908Y-11360D01*
X37864Y-11316D01*
X37806Y-11292D01*
X37743Y-11292D01*
X37707Y-11292D01*
X37707Y-11012D01*
X37781Y-10938D01*
X37825Y-10832D01*
X38068Y-10832D01*
X38091Y-10889D01*
X38135Y-10933D01*
X38193Y-10957D01*
X38256Y-10957D01*
X38806Y-10957D01*
X38864Y-10933D01*
X38908Y-10889D01*
X38912Y-10879D01*
X38916Y-10889D01*
X38960Y-10933D01*
X39018Y-10957D01*
X39081Y-10957D01*
X39881Y-10957D01*
X39939Y-10933D01*
X39983Y-10889D01*
X40007Y-10831D01*
X40007Y-10768D01*
X40007Y-12168D01*
X39983Y-12110D01*
X39939Y-12066D01*
X39881Y-12042D01*
X39818Y-12042D01*
X39018Y-12042D01*
X38960Y-12066D01*
X38916Y-12110D01*
X38892Y-12168D01*
X38892Y-12192D01*
X37932Y-12192D01*
X37932Y-12168D01*
X37908Y-12110D01*
X37864Y-12066D01*
X37806Y-12042D01*
X37743Y-12042D01*
X37193Y-12042D01*
X37135Y-12066D01*
X37091Y-12110D01*
X37067Y-12168D01*
X37067Y-12231D01*
X37067Y-12564D01*
X36839Y-12792D01*
X35832Y-12792D01*
X35832Y-12181D01*
X35889Y-12158D01*
X35933Y-12114D01*
X35957Y-12056D01*
X35957Y-11993D01*
X35957Y-11443D01*
X35933Y-11385D01*
X35889Y-11341D01*
X35831Y-11317D01*
X35798Y-11317D01*
X35798Y-11204D01*
X35818Y-11196D01*
X35862Y-11152D01*
X35886Y-11094D01*
X35886Y-11031D01*
X35886Y-10745D01*
X36646Y-9985D01*
X36691Y-9918D01*
X36691Y-9918D01*
X36707Y-9839D01*
X36707Y-8646D01*
X36756Y-8626D01*
X36883Y-8498D01*
X36952Y-8332D01*
X36953Y-8152D01*
X36953Y-7168D01*
X36884Y-7001D01*
X36756Y-6874D01*
X36590Y-6805D01*
X36410Y-6804D01*
X36243Y-6873D01*
X36116Y-7001D01*
X36047Y-7167D01*
X36046Y-7347D01*
X36115Y-7514D01*
X36243Y-7641D01*
X36409Y-7710D01*
X36589Y-7711D01*
X36756Y-7642D01*
X36883Y-7514D01*
X36952Y-7348D01*
X36953Y-7168D01*
X36953Y-8152D01*
X36884Y-7985D01*
X36756Y-7858D01*
X36590Y-7789D01*
X36410Y-7788D01*
X36243Y-7857D01*
X36116Y-7985D01*
X36047Y-8151D01*
X36046Y-8331D01*
X36115Y-8498D01*
X36243Y-8625D01*
X36292Y-8646D01*
X36292Y-9753D01*
X35767Y-10278D01*
X35760Y-10275D01*
X35697Y-10275D01*
X35550Y-10275D01*
X35551Y-10215D01*
X35551Y-9132D01*
X35527Y-9074D01*
X35482Y-9030D01*
X35424Y-9006D01*
X35362Y-9005D01*
X34575Y-9005D01*
X34517Y-9029D01*
X34473Y-9074D01*
X34449Y-9132D01*
X34448Y-9194D01*
X34448Y-9497D01*
X34182Y-9497D01*
X34182Y-9418D01*
X34158Y-9360D01*
X34114Y-9316D01*
X34056Y-9292D01*
X33993Y-9292D01*
X33443Y-9292D01*
X33385Y-9316D01*
X33341Y-9360D01*
X33317Y-9418D01*
X33317Y-9481D01*
X33317Y-9831D01*
X33341Y-9889D01*
X33385Y-9933D01*
X33443Y-9957D01*
X33506Y-9957D01*
X34056Y-9957D01*
X34114Y-9933D01*
X34135Y-9912D01*
X34448Y-9912D01*
X34448Y-10275D01*
X34239Y-10275D01*
X34182Y-10299D01*
X34182Y-10168D01*
X34158Y-10110D01*
X34114Y-10066D01*
X34056Y-10042D01*
X33993Y-10042D01*
X33443Y-10042D01*
X33385Y-10066D01*
X33372Y-10079D01*
X33207Y-9914D01*
X33207Y-9077D01*
X33610Y-8674D01*
X33659Y-8694D01*
X33839Y-8695D01*
X34006Y-8626D01*
X34133Y-8498D01*
X34202Y-8332D01*
X34203Y-8152D01*
X34203Y-7168D01*
X34134Y-7001D01*
X34006Y-6874D01*
X33840Y-6805D01*
X33660Y-6804D01*
X33493Y-6873D01*
X33366Y-7001D01*
X33297Y-7167D01*
X33296Y-7347D01*
X33365Y-7514D01*
X33493Y-7641D01*
X33659Y-7710D01*
X33839Y-7711D01*
X34006Y-7642D01*
X34133Y-7514D01*
X34202Y-7348D01*
X34203Y-7168D01*
X34203Y-8152D01*
X34134Y-7985D01*
X34006Y-7858D01*
X33840Y-7789D01*
X33660Y-7788D01*
X33493Y-7857D01*
X33366Y-7985D01*
X33297Y-8151D01*
X33296Y-8331D01*
X33317Y-8381D01*
X32853Y-8845D01*
X32808Y-8912D01*
X32792Y-8992D01*
X32792Y-10000D01*
X32808Y-10079D01*
X32853Y-10146D01*
X33228Y-10521D01*
X33228Y-10521D01*
X33273Y-10551D01*
X33295Y-10566D01*
X33295Y-10566D01*
X33317Y-10571D01*
X33317Y-10581D01*
X33341Y-10639D01*
X33385Y-10683D01*
X33443Y-10707D01*
X33481Y-10707D01*
X33481Y-11257D01*
X33401Y-11257D01*
X33343Y-11281D01*
X33299Y-11326D01*
X33275Y-11384D01*
X33275Y-11446D01*
X33275Y-12115D01*
X33299Y-12173D01*
X33343Y-12217D01*
X33401Y-12241D01*
X33464Y-12242D01*
X33976Y-12242D01*
X34034Y-12218D01*
X34078Y-12173D01*
X34102Y-12115D01*
X34102Y-12053D01*
X34102Y-11384D01*
X34078Y-11326D01*
X34034Y-11282D01*
X33976Y-11258D01*
X33913Y-11257D01*
X33896Y-11257D01*
X33896Y-10814D01*
X33976Y-10894D01*
X34043Y-10939D01*
X34043Y-10939D01*
X34056Y-10942D01*
X34113Y-10953D01*
X34113Y-11094D01*
X34137Y-11152D01*
X34181Y-11196D01*
X34239Y-11220D01*
X34302Y-11220D01*
X34578Y-11220D01*
X34636Y-11196D01*
X34680Y-11152D01*
X34704Y-11094D01*
X34704Y-11048D01*
X34704Y-11094D01*
X34728Y-11152D01*
X34772Y-11196D01*
X34792Y-11205D01*
X34792Y-11317D01*
X34668Y-11317D01*
X34610Y-11341D01*
X34566Y-11385D01*
X34542Y-11443D01*
X34542Y-11506D01*
X34542Y-12056D01*
X34566Y-12114D01*
X34610Y-12158D01*
X34667Y-12182D01*
X34667Y-12375D01*
X34675Y-12414D01*
X34667Y-12433D01*
X34667Y-12565D01*
X34717Y-12688D01*
X34811Y-12781D01*
X34933Y-12832D01*
X35065Y-12832D01*
X35188Y-12782D01*
X35281Y-12688D01*
X35332Y-12566D01*
X35332Y-12434D01*
X35282Y-12311D01*
X35188Y-12218D01*
X35091Y-12178D01*
X35139Y-12158D01*
X35183Y-12114D01*
X35207Y-12056D01*
X35207Y-11993D01*
X35207Y-11443D01*
X35207Y-11443D01*
X35207Y-11205D01*
X35227Y-11197D01*
X35271Y-11152D01*
X35295Y-11094D01*
X35295Y-11049D01*
X35295Y-11094D01*
X35319Y-11152D01*
X35363Y-11196D01*
X35383Y-11204D01*
X35383Y-11332D01*
X35360Y-11341D01*
X35316Y-11385D01*
X35292Y-11443D01*
X35292Y-11506D01*
X35292Y-12056D01*
X35316Y-12114D01*
X35360Y-12158D01*
X35417Y-12182D01*
X35417Y-12789D01*
X35353Y-12853D01*
X34853Y-13353D01*
X34808Y-13420D01*
X34792Y-13500D01*
X34792Y-13652D01*
X34756Y-13616D01*
X34590Y-13547D01*
X34410Y-13547D01*
X34243Y-13615D01*
X34116Y-13743D01*
X34047Y-13909D01*
X34047Y-14089D01*
X34067Y-14139D01*
X33728Y-14478D01*
X33707Y-14509D01*
X33707Y-14404D01*
X33756Y-14384D01*
X33883Y-14256D01*
X33952Y-14090D01*
X33952Y-13910D01*
X33884Y-13743D01*
X33756Y-13616D01*
X33590Y-13547D01*
X33410Y-13547D01*
X33243Y-13615D01*
X33116Y-13743D01*
X33047Y-13909D01*
X33047Y-14089D01*
X33115Y-14256D01*
X33243Y-14383D01*
X33292Y-14404D01*
X33292Y-14509D01*
X33271Y-14478D01*
X32932Y-14139D01*
X32952Y-14090D01*
X32952Y-13910D01*
X32884Y-13743D01*
X32756Y-13616D01*
X32724Y-13602D01*
X32724Y-12053D01*
X32724Y-11384D01*
X32700Y-11326D01*
X32656Y-11282D01*
X32598Y-11258D01*
X32535Y-11257D01*
X32112Y-11257D01*
X31857Y-11003D01*
X31790Y-10958D01*
X31711Y-10942D01*
X31602Y-10942D01*
X31602Y-10173D01*
X31578Y-10115D01*
X31534Y-10071D01*
X31476Y-10047D01*
X31413Y-10047D01*
X29528Y-10047D01*
X29602Y-9870D01*
X29602Y-9431D01*
X29588Y-9397D01*
X29874Y-9684D01*
X30279Y-9852D01*
X30718Y-9852D01*
X31123Y-9685D01*
X31434Y-9375D01*
X31602Y-8970D01*
X31602Y-8531D01*
X31435Y-8126D01*
X31125Y-7815D01*
X30720Y-7647D01*
X30281Y-7647D01*
X29876Y-7814D01*
X29565Y-8124D01*
X29397Y-8529D01*
X29397Y-8968D01*
X29411Y-9002D01*
X29125Y-8715D01*
X28720Y-8547D01*
X28281Y-8547D01*
X27876Y-8714D01*
X27565Y-9024D01*
X27397Y-9429D01*
X27397Y-9868D01*
X27564Y-10273D01*
X27874Y-10584D01*
X28279Y-10752D01*
X28718Y-10752D01*
X29123Y-10585D01*
X29397Y-10311D01*
X29397Y-12126D01*
X29421Y-12184D01*
X29465Y-12228D01*
X29523Y-12252D01*
X29586Y-12252D01*
X31476Y-12252D01*
X31534Y-12228D01*
X31578Y-12184D01*
X31602Y-12126D01*
X31602Y-12063D01*
X31602Y-11357D01*
X31625Y-11357D01*
X31897Y-11629D01*
X31897Y-12115D01*
X31921Y-12173D01*
X31965Y-12217D01*
X32023Y-12241D01*
X32086Y-12242D01*
X32598Y-12242D01*
X32656Y-12218D01*
X32700Y-12173D01*
X32724Y-12115D01*
X32724Y-12053D01*
X32724Y-13602D01*
X32590Y-13547D01*
X32410Y-13547D01*
X32243Y-13615D01*
X32116Y-13743D01*
X32047Y-13909D01*
X32047Y-14089D01*
X32115Y-14256D01*
X32243Y-14383D01*
X32409Y-14452D01*
X32589Y-14452D01*
X32639Y-14432D01*
X32829Y-14622D01*
X32816Y-14635D01*
X32792Y-14693D01*
X32792Y-14756D01*
X32792Y-15306D01*
X32816Y-15364D01*
X32860Y-15408D01*
X32918Y-15432D01*
X32981Y-15432D01*
X33274Y-15432D01*
X33164Y-15542D01*
X32585Y-15542D01*
X32582Y-15539D01*
X32582Y-15431D01*
X32639Y-15408D01*
X32683Y-15364D01*
X32707Y-15306D01*
X32707Y-15243D01*
X32707Y-14693D01*
X32683Y-14635D01*
X32639Y-14591D01*
X32581Y-14567D01*
X32518Y-14567D01*
X32168Y-14567D01*
X32110Y-14591D01*
X32066Y-14635D01*
X32042Y-14693D01*
X32042Y-14756D01*
X32042Y-15306D01*
X32066Y-15364D01*
X32110Y-15408D01*
X32167Y-15432D01*
X32167Y-15625D01*
X32183Y-15704D01*
X32228Y-15771D01*
X32353Y-15896D01*
X32353Y-15896D01*
X32398Y-15926D01*
X32420Y-15941D01*
X32420Y-15941D01*
X32499Y-15957D01*
X32500Y-15957D01*
X33250Y-15957D01*
X33329Y-15941D01*
X33329Y-15941D01*
X33396Y-15896D01*
X33646Y-15646D01*
X33646Y-15646D01*
X33676Y-15601D01*
X33691Y-15579D01*
X33691Y-15579D01*
X33707Y-15500D01*
X33707Y-15500D01*
X33707Y-15432D01*
X33731Y-15432D01*
X34081Y-15432D01*
X34139Y-15408D01*
X34183Y-15364D01*
X34207Y-15306D01*
X34207Y-15243D01*
X34207Y-14693D01*
X34183Y-14635D01*
X34170Y-14622D01*
X34360Y-14432D01*
X34409Y-14452D01*
X34589Y-14452D01*
X34756Y-14384D01*
X34792Y-14347D01*
X34792Y-15914D01*
X34164Y-16542D01*
X31957Y-16542D01*
X31957Y-15243D01*
X31957Y-14693D01*
X31933Y-14635D01*
X31889Y-14591D01*
X31832Y-14567D01*
X31832Y-14307D01*
X31883Y-14256D01*
X31952Y-14090D01*
X31952Y-13910D01*
X31884Y-13743D01*
X31756Y-13616D01*
X31590Y-13547D01*
X31410Y-13547D01*
X31243Y-13615D01*
X31116Y-13743D01*
X31047Y-13909D01*
X31047Y-14089D01*
X31115Y-14256D01*
X31243Y-14383D01*
X31409Y-14452D01*
X31417Y-14452D01*
X31417Y-14568D01*
X31360Y-14591D01*
X31316Y-14635D01*
X31292Y-14693D01*
X31292Y-14756D01*
X31292Y-15306D01*
X31316Y-15364D01*
X31360Y-15408D01*
X31418Y-15432D01*
X31481Y-15432D01*
X31831Y-15432D01*
X31889Y-15408D01*
X31933Y-15364D01*
X31957Y-15306D01*
X31957Y-15243D01*
X31957Y-16542D01*
X27432Y-16542D01*
X27432Y-16518D01*
X27432Y-16168D01*
X27408Y-16110D01*
X27364Y-16066D01*
X27306Y-16042D01*
X27243Y-16042D01*
X26693Y-16042D01*
X26635Y-16066D01*
X26591Y-16110D01*
X26567Y-16167D01*
X26431Y-16167D01*
X26408Y-16110D01*
X26364Y-16066D01*
X26306Y-16042D01*
X26250Y-16042D01*
X27085Y-15207D01*
X27292Y-15207D01*
X27292Y-15306D01*
X27316Y-15364D01*
X27360Y-15408D01*
X27418Y-15432D01*
X27481Y-15432D01*
X27792Y-15432D01*
X27792Y-15750D01*
X27808Y-15829D01*
X27853Y-15896D01*
X28042Y-16085D01*
X28042Y-16306D01*
X28066Y-16364D01*
X28110Y-16408D01*
X28168Y-16432D01*
X28231Y-16432D01*
X28581Y-16432D01*
X28639Y-16408D01*
X28683Y-16364D01*
X28707Y-16306D01*
X28707Y-16243D01*
X28707Y-15693D01*
X28683Y-15635D01*
X28639Y-15591D01*
X28581Y-15567D01*
X28518Y-15567D01*
X28207Y-15567D01*
X28207Y-15432D01*
X28231Y-15432D01*
X28581Y-15432D01*
X28639Y-15408D01*
X28683Y-15364D01*
X28707Y-15306D01*
X28707Y-15243D01*
X28707Y-15207D01*
X28792Y-15207D01*
X28792Y-15306D01*
X28816Y-15364D01*
X28860Y-15408D01*
X28918Y-15432D01*
X28981Y-15432D01*
X29292Y-15432D01*
X29292Y-15567D01*
X29268Y-15567D01*
X28918Y-15567D01*
X28860Y-15591D01*
X28816Y-15635D01*
X28792Y-15693D01*
X28792Y-15756D01*
X28792Y-16306D01*
X28816Y-16364D01*
X28860Y-16408D01*
X28918Y-16432D01*
X28981Y-16432D01*
X29331Y-16432D01*
X29389Y-16408D01*
X29433Y-16364D01*
X29457Y-16306D01*
X29457Y-16243D01*
X29457Y-16085D01*
X29646Y-15896D01*
X29646Y-15896D01*
X29676Y-15851D01*
X29691Y-15829D01*
X29691Y-15829D01*
X29707Y-15750D01*
X29707Y-15750D01*
X29707Y-15432D01*
X29731Y-15432D01*
X30081Y-15432D01*
X30139Y-15408D01*
X30183Y-15364D01*
X30207Y-15306D01*
X30207Y-15243D01*
X30207Y-14693D01*
X30183Y-14635D01*
X30170Y-14622D01*
X30360Y-14432D01*
X30409Y-14452D01*
X30589Y-14452D01*
X30756Y-14384D01*
X30883Y-14256D01*
X30952Y-14090D01*
X30952Y-13910D01*
X30884Y-13743D01*
X30756Y-13616D01*
X30590Y-13547D01*
X30410Y-13547D01*
X30243Y-13615D01*
X30116Y-13743D01*
X30047Y-13909D01*
X30047Y-14089D01*
X30067Y-14139D01*
X29728Y-14478D01*
X29707Y-14509D01*
X29707Y-14404D01*
X29756Y-14384D01*
X29883Y-14256D01*
X29952Y-14090D01*
X29952Y-13910D01*
X29884Y-13743D01*
X29756Y-13616D01*
X29590Y-13547D01*
X29410Y-13547D01*
X29243Y-13615D01*
X29116Y-13743D01*
X29047Y-13909D01*
X29047Y-14089D01*
X29115Y-14256D01*
X29243Y-14383D01*
X29292Y-14404D01*
X29292Y-14567D01*
X29268Y-14567D01*
X28918Y-14567D01*
X28860Y-14591D01*
X28816Y-14635D01*
X28792Y-14693D01*
X28792Y-14756D01*
X28792Y-14792D01*
X28707Y-14792D01*
X28707Y-14693D01*
X28683Y-14635D01*
X28639Y-14591D01*
X28582Y-14567D01*
X28582Y-14452D01*
X28589Y-14452D01*
X28756Y-14384D01*
X28883Y-14256D01*
X28952Y-14090D01*
X28952Y-13910D01*
X28884Y-13743D01*
X28756Y-13616D01*
X28590Y-13547D01*
X28410Y-13547D01*
X28243Y-13615D01*
X28116Y-13743D01*
X28047Y-13909D01*
X28047Y-14089D01*
X28115Y-14256D01*
X28167Y-14307D01*
X28167Y-14384D01*
X28146Y-14353D01*
X27932Y-14139D01*
X27952Y-14090D01*
X27952Y-13910D01*
X27884Y-13743D01*
X27756Y-13616D01*
X27590Y-13547D01*
X27410Y-13547D01*
X27243Y-13615D01*
X27116Y-13743D01*
X27047Y-13909D01*
X27047Y-14089D01*
X27115Y-14256D01*
X27243Y-14383D01*
X27409Y-14452D01*
X27589Y-14452D01*
X27639Y-14432D01*
X27774Y-14567D01*
X27768Y-14567D01*
X27418Y-14567D01*
X27360Y-14591D01*
X27316Y-14635D01*
X27292Y-14693D01*
X27292Y-14756D01*
X27292Y-14792D01*
X27000Y-14792D01*
X26920Y-14808D01*
X26898Y-14823D01*
X26853Y-14853D01*
X25914Y-15792D01*
X25500Y-15792D01*
X25646Y-15646D01*
X25646Y-15646D01*
X25676Y-15601D01*
X25691Y-15579D01*
X25691Y-15579D01*
X25707Y-15500D01*
X25707Y-15500D01*
X25707Y-15432D01*
X25731Y-15432D01*
X26081Y-15432D01*
X26139Y-15408D01*
X26183Y-15364D01*
X26207Y-15306D01*
X26207Y-15243D01*
X26207Y-15207D01*
X26250Y-15207D01*
X26329Y-15191D01*
X26329Y-15191D01*
X26396Y-15146D01*
X26646Y-14896D01*
X26646Y-14896D01*
X26676Y-14851D01*
X26691Y-14829D01*
X26691Y-14829D01*
X26707Y-14750D01*
X26707Y-14750D01*
X26707Y-14404D01*
X26756Y-14384D01*
X26883Y-14256D01*
X26952Y-14090D01*
X26952Y-13910D01*
X26884Y-13743D01*
X26756Y-13616D01*
X26590Y-13547D01*
X26548Y-13547D01*
X26548Y-9551D01*
X26434Y-9276D01*
X26224Y-9066D01*
X25949Y-8952D01*
X25651Y-8951D01*
X25376Y-9065D01*
X25166Y-9275D01*
X25052Y-9550D01*
X25051Y-9848D01*
X25165Y-10123D01*
X25375Y-10333D01*
X25650Y-10447D01*
X25948Y-10448D01*
X26223Y-10334D01*
X26433Y-10124D01*
X26547Y-9849D01*
X26548Y-9551D01*
X26548Y-13547D01*
X26410Y-13547D01*
X26243Y-13615D01*
X26116Y-13743D01*
X26047Y-13909D01*
X26047Y-14089D01*
X26115Y-14256D01*
X26243Y-14383D01*
X26292Y-14404D01*
X26292Y-14664D01*
X26207Y-14749D01*
X26207Y-14693D01*
X26183Y-14635D01*
X26139Y-14591D01*
X26081Y-14567D01*
X26018Y-14567D01*
X25707Y-14567D01*
X25707Y-14404D01*
X25756Y-14384D01*
X25883Y-14256D01*
X25952Y-14090D01*
X25952Y-13910D01*
X25884Y-13743D01*
X25756Y-13616D01*
X25590Y-13547D01*
X25410Y-13547D01*
X25243Y-13615D01*
X25116Y-13743D01*
X25047Y-13909D01*
X25047Y-14089D01*
X25115Y-14256D01*
X25243Y-14383D01*
X25292Y-14404D01*
X25292Y-14567D01*
X25268Y-14567D01*
X24918Y-14567D01*
X24860Y-14591D01*
X24816Y-14635D01*
X24792Y-14693D01*
X24792Y-14749D01*
X24707Y-14664D01*
X24707Y-14404D01*
X24756Y-14384D01*
X24883Y-14256D01*
X24952Y-14090D01*
X24952Y-13910D01*
X24884Y-13743D01*
X24853Y-13712D01*
X24853Y-10660D01*
X24784Y-10493D01*
X24656Y-10366D01*
X24490Y-10297D01*
X24310Y-10296D01*
X24143Y-10365D01*
X24016Y-10493D01*
X23947Y-10659D01*
X23946Y-10839D01*
X24015Y-11006D01*
X24143Y-11133D01*
X24309Y-11202D01*
X24489Y-11203D01*
X24656Y-11134D01*
X24783Y-11006D01*
X24852Y-10840D01*
X24853Y-10660D01*
X24853Y-13712D01*
X24756Y-13616D01*
X24590Y-13547D01*
X24410Y-13547D01*
X24243Y-13615D01*
X24116Y-13743D01*
X24047Y-13909D01*
X24047Y-14089D01*
X24115Y-14256D01*
X24243Y-14383D01*
X24292Y-14404D01*
X24292Y-14750D01*
X24308Y-14829D01*
X24353Y-14896D01*
X24603Y-15146D01*
X24603Y-15146D01*
X24648Y-15176D01*
X24670Y-15191D01*
X24670Y-15191D01*
X24750Y-15207D01*
X24792Y-15207D01*
X24792Y-15306D01*
X24816Y-15364D01*
X24860Y-15408D01*
X24918Y-15432D01*
X24981Y-15432D01*
X25274Y-15432D01*
X25164Y-15542D01*
X24835Y-15542D01*
X24396Y-15103D01*
X24329Y-15058D01*
X24250Y-15042D01*
X23952Y-15042D01*
X23952Y-13910D01*
X23884Y-13743D01*
X23756Y-13616D01*
X23707Y-13595D01*
X23707Y-13207D01*
X23806Y-13207D01*
X23864Y-13183D01*
X23908Y-13139D01*
X23932Y-13081D01*
X23932Y-13018D01*
X23932Y-12668D01*
X23932Y-12268D01*
X23932Y-11918D01*
X23908Y-11860D01*
X23864Y-11816D01*
X23806Y-11792D01*
X23743Y-11792D01*
X23707Y-11792D01*
X23707Y-11083D01*
X23783Y-11006D01*
X23852Y-10840D01*
X23853Y-10660D01*
X23784Y-10493D01*
X23656Y-10366D01*
X23490Y-10297D01*
X23310Y-10296D01*
X23143Y-10365D01*
X23016Y-10493D01*
X23000Y-10531D01*
X22984Y-10493D01*
X22856Y-10366D01*
X22690Y-10297D01*
X22510Y-10296D01*
X22343Y-10365D01*
X22216Y-10493D01*
X22147Y-10659D01*
X22146Y-10839D01*
X22215Y-11006D01*
X22292Y-11083D01*
X22292Y-11792D01*
X22193Y-11792D01*
X22135Y-11816D01*
X22091Y-11860D01*
X22067Y-11918D01*
X22067Y-11981D01*
X22067Y-12331D01*
X22091Y-12389D01*
X22135Y-12433D01*
X22193Y-12457D01*
X22256Y-12457D01*
X22806Y-12457D01*
X22864Y-12433D01*
X22908Y-12389D01*
X22932Y-12331D01*
X22932Y-12268D01*
X22932Y-11918D01*
X22908Y-11860D01*
X22864Y-11816D01*
X22806Y-11792D01*
X22743Y-11792D01*
X22707Y-11792D01*
X22707Y-11195D01*
X22856Y-11134D01*
X22983Y-11006D01*
X22999Y-10968D01*
X23015Y-11006D01*
X23143Y-11133D01*
X23292Y-11195D01*
X23292Y-11792D01*
X23193Y-11792D01*
X23135Y-11816D01*
X23091Y-11860D01*
X23067Y-11918D01*
X23067Y-11981D01*
X23067Y-12331D01*
X23091Y-12389D01*
X23135Y-12433D01*
X23193Y-12457D01*
X23256Y-12457D01*
X23806Y-12457D01*
X23864Y-12433D01*
X23908Y-12389D01*
X23932Y-12331D01*
X23932Y-12268D01*
X23932Y-12668D01*
X23908Y-12610D01*
X23864Y-12566D01*
X23806Y-12542D01*
X23743Y-12542D01*
X23193Y-12542D01*
X23135Y-12566D01*
X23091Y-12610D01*
X23067Y-12668D01*
X23067Y-12731D01*
X23067Y-13081D01*
X23091Y-13139D01*
X23135Y-13183D01*
X23193Y-13207D01*
X23256Y-13207D01*
X23292Y-13207D01*
X23292Y-13595D01*
X23243Y-13615D01*
X23116Y-13743D01*
X23047Y-13909D01*
X23047Y-14089D01*
X23115Y-14256D01*
X23243Y-14383D01*
X23409Y-14452D01*
X23589Y-14452D01*
X23756Y-14384D01*
X23883Y-14256D01*
X23952Y-14090D01*
X23952Y-13910D01*
X23952Y-15042D01*
X22952Y-15042D01*
X22952Y-13910D01*
X22884Y-13743D01*
X22756Y-13616D01*
X22707Y-13595D01*
X22707Y-13207D01*
X22806Y-13207D01*
X22864Y-13183D01*
X22908Y-13139D01*
X22932Y-13081D01*
X22932Y-13018D01*
X22932Y-12668D01*
X22908Y-12610D01*
X22864Y-12566D01*
X22806Y-12542D01*
X22743Y-12542D01*
X22193Y-12542D01*
X22135Y-12566D01*
X22091Y-12610D01*
X22067Y-12668D01*
X22067Y-12731D01*
X22067Y-13081D01*
X22091Y-13139D01*
X22135Y-13183D01*
X22193Y-13207D01*
X22256Y-13207D01*
X22292Y-13207D01*
X22292Y-13595D01*
X22243Y-13615D01*
X22116Y-13743D01*
X22053Y-13895D01*
X22053Y-10660D01*
X21984Y-10493D01*
X21856Y-10366D01*
X21690Y-10297D01*
X21510Y-10296D01*
X21343Y-10365D01*
X21216Y-10493D01*
X21148Y-10657D01*
X21148Y-9551D01*
X21034Y-9276D01*
X20824Y-9066D01*
X20549Y-8952D01*
X20251Y-8951D01*
X19976Y-9065D01*
X19766Y-9275D01*
X19652Y-9550D01*
X19651Y-9848D01*
X19765Y-10123D01*
X19975Y-10333D01*
X20250Y-10447D01*
X20548Y-10448D01*
X20823Y-10334D01*
X21033Y-10124D01*
X21147Y-9849D01*
X21148Y-9551D01*
X21148Y-10657D01*
X21147Y-10659D01*
X21146Y-10839D01*
X21215Y-11006D01*
X21343Y-11133D01*
X21509Y-11202D01*
X21689Y-11203D01*
X21856Y-11134D01*
X21983Y-11006D01*
X22052Y-10840D01*
X22053Y-10660D01*
X22053Y-13895D01*
X22047Y-13909D01*
X22047Y-14089D01*
X22115Y-14256D01*
X22243Y-14383D01*
X22409Y-14452D01*
X22589Y-14452D01*
X22756Y-14384D01*
X22883Y-14256D01*
X22952Y-14090D01*
X22952Y-13910D01*
X22952Y-15042D01*
X22207Y-15042D01*
X22207Y-14943D01*
X22183Y-14885D01*
X22139Y-14841D01*
X22081Y-14817D01*
X22018Y-14817D01*
X21707Y-14817D01*
X21707Y-14404D01*
X21756Y-14384D01*
X21883Y-14256D01*
X21952Y-14090D01*
X21952Y-13910D01*
X21884Y-13743D01*
X21756Y-13616D01*
X21590Y-13547D01*
X21410Y-13547D01*
X21243Y-13615D01*
X21116Y-13743D01*
X21047Y-13909D01*
X21047Y-14089D01*
X21115Y-14256D01*
X21243Y-14383D01*
X21292Y-14404D01*
X21292Y-14817D01*
X21268Y-14817D01*
X20918Y-14817D01*
X20860Y-14841D01*
X20816Y-14885D01*
X20792Y-14943D01*
X20792Y-15006D01*
X20792Y-15042D01*
X20682Y-15042D01*
X20682Y-15018D01*
X20682Y-14668D01*
X20658Y-14610D01*
X20614Y-14566D01*
X20556Y-14542D01*
X20493Y-14542D01*
X20457Y-14542D01*
X20457Y-14452D01*
X20589Y-14452D01*
X20756Y-14384D01*
X20883Y-14256D01*
X20952Y-14090D01*
X20952Y-13910D01*
X20884Y-13743D01*
X20756Y-13616D01*
X20590Y-13547D01*
X20410Y-13547D01*
X20243Y-13615D01*
X20116Y-13743D01*
X20047Y-13909D01*
X20047Y-14089D01*
X20072Y-14149D01*
X20072Y-14149D01*
X20058Y-14170D01*
X20042Y-14250D01*
X20042Y-14542D01*
X19943Y-14542D01*
X19885Y-14566D01*
X19841Y-14610D01*
X19817Y-14668D01*
X19817Y-14731D01*
X19817Y-15024D01*
X19707Y-14914D01*
X19707Y-14404D01*
X19756Y-14384D01*
X19883Y-14256D01*
X19952Y-14090D01*
X19952Y-13910D01*
X19884Y-13743D01*
X19756Y-13616D01*
X19590Y-13547D01*
X19410Y-13547D01*
X19243Y-13615D01*
X19116Y-13743D01*
X19047Y-13909D01*
X19047Y-14089D01*
X19115Y-14256D01*
X19243Y-14383D01*
X19292Y-14404D01*
X19292Y-15000D01*
X19308Y-15079D01*
X19353Y-15146D01*
X19603Y-15396D01*
X19603Y-15396D01*
X19648Y-15426D01*
X19670Y-15441D01*
X19670Y-15441D01*
X19750Y-15457D01*
X19817Y-15457D01*
X19817Y-15481D01*
X19817Y-15831D01*
X19841Y-15889D01*
X19885Y-15933D01*
X19943Y-15957D01*
X20006Y-15957D01*
X20289Y-15957D01*
X20478Y-16146D01*
X20478Y-16146D01*
X20523Y-16176D01*
X20545Y-16191D01*
X20545Y-16191D01*
X20625Y-16207D01*
X20914Y-16207D01*
X21792Y-17085D01*
X21792Y-19000D01*
X21808Y-19079D01*
X21853Y-19146D01*
X22292Y-19585D01*
X22292Y-22595D01*
X22243Y-22615D01*
X22182Y-22677D01*
X22182Y-20518D01*
X22182Y-20168D01*
X22158Y-20110D01*
X22114Y-20066D01*
X22056Y-20042D01*
X21993Y-20042D01*
X21835Y-20042D01*
X21724Y-19931D01*
X21724Y-18053D01*
X21724Y-17384D01*
X21700Y-17326D01*
X21656Y-17282D01*
X21598Y-17258D01*
X21535Y-17257D01*
X21023Y-17257D01*
X20965Y-17281D01*
X20921Y-17326D01*
X20897Y-17384D01*
X20897Y-17446D01*
X20897Y-18115D01*
X20921Y-18173D01*
X20965Y-18217D01*
X21023Y-18241D01*
X21086Y-18242D01*
X21103Y-18242D01*
X21103Y-18450D01*
X21061Y-18467D01*
X20968Y-18561D01*
X20917Y-18683D01*
X20917Y-18815D01*
X20967Y-18938D01*
X21061Y-19031D01*
X21183Y-19082D01*
X21315Y-19082D01*
X21438Y-19032D01*
X21531Y-18938D01*
X21582Y-18816D01*
X21582Y-18684D01*
X21532Y-18561D01*
X21518Y-18548D01*
X21518Y-18242D01*
X21598Y-18242D01*
X21656Y-18218D01*
X21700Y-18173D01*
X21724Y-18115D01*
X21724Y-18053D01*
X21724Y-19931D01*
X21646Y-19853D01*
X21579Y-19808D01*
X21500Y-19792D01*
X21352Y-19792D01*
X21352Y-19634D01*
X21328Y-19576D01*
X21284Y-19532D01*
X21226Y-19508D01*
X21163Y-19507D01*
X20651Y-19507D01*
X20593Y-19531D01*
X20549Y-19576D01*
X20525Y-19634D01*
X20525Y-19696D01*
X20525Y-20365D01*
X20549Y-20423D01*
X20593Y-20467D01*
X20651Y-20491D01*
X20714Y-20492D01*
X21226Y-20492D01*
X21284Y-20468D01*
X21317Y-20434D01*
X21317Y-20581D01*
X21341Y-20639D01*
X21385Y-20683D01*
X21443Y-20707D01*
X21506Y-20707D01*
X22056Y-20707D01*
X22114Y-20683D01*
X22158Y-20639D01*
X22182Y-20581D01*
X22182Y-20518D01*
X22182Y-22677D01*
X22116Y-22743D01*
X22047Y-22909D01*
X22047Y-23089D01*
X22115Y-23256D01*
X22243Y-23383D01*
X22409Y-23452D01*
X22589Y-23452D01*
X22756Y-23384D01*
X22792Y-23347D01*
X22792Y-24501D01*
X22600Y-24693D01*
X22232Y-24693D01*
X22174Y-24717D01*
X22130Y-24761D01*
X22106Y-24819D01*
X22106Y-24882D01*
X22106Y-25292D01*
X21832Y-25292D01*
X21832Y-24684D01*
X21782Y-24561D01*
X21688Y-24468D01*
X21566Y-24417D01*
X21460Y-24417D01*
X21207Y-24164D01*
X21207Y-21500D01*
X21191Y-21420D01*
X21191Y-21420D01*
X21176Y-21398D01*
X21146Y-21353D01*
X21146Y-21353D01*
X20771Y-20978D01*
X20704Y-20933D01*
X20625Y-20917D01*
X19931Y-20917D01*
X19908Y-20860D01*
X19864Y-20816D01*
X19806Y-20792D01*
X19768Y-20792D01*
X19768Y-20492D01*
X19848Y-20492D01*
X19906Y-20468D01*
X19950Y-20423D01*
X19974Y-20365D01*
X19974Y-20303D01*
X19974Y-19634D01*
X19950Y-19576D01*
X19906Y-19532D01*
X19848Y-19508D01*
X19785Y-19507D01*
X19273Y-19507D01*
X19215Y-19531D01*
X19171Y-19576D01*
X19147Y-19634D01*
X19147Y-19696D01*
X19147Y-20365D01*
X19171Y-20423D01*
X19215Y-20467D01*
X19273Y-20491D01*
X19336Y-20492D01*
X19353Y-20492D01*
X19353Y-20792D01*
X19193Y-20792D01*
X19135Y-20816D01*
X19091Y-20860D01*
X19067Y-20918D01*
X19067Y-20981D01*
X19067Y-21331D01*
X19091Y-21389D01*
X19135Y-21433D01*
X19193Y-21457D01*
X19256Y-21457D01*
X19806Y-21457D01*
X19864Y-21433D01*
X19908Y-21389D01*
X19932Y-21332D01*
X20539Y-21332D01*
X20774Y-21567D01*
X20768Y-21567D01*
X20418Y-21567D01*
X20360Y-21591D01*
X20316Y-21635D01*
X20292Y-21693D01*
X20292Y-21756D01*
X20292Y-22039D01*
X19853Y-22478D01*
X19808Y-22545D01*
X19792Y-22625D01*
X19792Y-22652D01*
X19756Y-22616D01*
X19707Y-22595D01*
X19707Y-22207D01*
X19806Y-22207D01*
X19864Y-22183D01*
X19908Y-22139D01*
X19932Y-22081D01*
X19932Y-22018D01*
X19932Y-21668D01*
X19908Y-21610D01*
X19864Y-21566D01*
X19806Y-21542D01*
X19743Y-21542D01*
X19193Y-21542D01*
X19135Y-21566D01*
X19091Y-21610D01*
X19067Y-21668D01*
X19067Y-21731D01*
X19067Y-22081D01*
X19091Y-22139D01*
X19135Y-22183D01*
X19193Y-22207D01*
X19256Y-22207D01*
X19292Y-22207D01*
X19292Y-22595D01*
X19243Y-22615D01*
X19116Y-22743D01*
X19047Y-22909D01*
X19047Y-23089D01*
X19115Y-23256D01*
X19243Y-23383D01*
X19409Y-23452D01*
X19589Y-23452D01*
X19756Y-23384D01*
X19792Y-23347D01*
X19792Y-24250D01*
X19808Y-24329D01*
X19853Y-24396D01*
X20174Y-24717D01*
X20130Y-24761D01*
X20106Y-24819D01*
X20106Y-24882D01*
X20106Y-25354D01*
X20130Y-25412D01*
X20174Y-25456D01*
X20232Y-25480D01*
X20295Y-25480D01*
X20767Y-25480D01*
X20825Y-25456D01*
X20869Y-25412D01*
X20893Y-25354D01*
X20893Y-25291D01*
X20893Y-24819D01*
X20869Y-24761D01*
X20825Y-24717D01*
X20767Y-24693D01*
X20704Y-24693D01*
X20696Y-24693D01*
X20694Y-24683D01*
X20691Y-24670D01*
X20691Y-24670D01*
X20646Y-24603D01*
X20207Y-24164D01*
X20207Y-23347D01*
X20243Y-23383D01*
X20409Y-23452D01*
X20589Y-23452D01*
X20756Y-23384D01*
X20792Y-23347D01*
X20792Y-24250D01*
X20808Y-24329D01*
X20853Y-24396D01*
X21167Y-24710D01*
X21167Y-24815D01*
X21217Y-24938D01*
X21311Y-25031D01*
X21433Y-25082D01*
X21565Y-25082D01*
X21688Y-25032D01*
X21781Y-24938D01*
X21832Y-24816D01*
X21832Y-24684D01*
X21832Y-25292D01*
X21250Y-25292D01*
X21183Y-25305D01*
X21170Y-25308D01*
X21103Y-25353D01*
X20869Y-25587D01*
X20825Y-25543D01*
X20767Y-25519D01*
X20704Y-25519D01*
X20232Y-25519D01*
X20174Y-25543D01*
X20130Y-25587D01*
X20106Y-25645D01*
X20106Y-25708D01*
X20106Y-26180D01*
X20130Y-26238D01*
X20174Y-26282D01*
X20232Y-26306D01*
X20295Y-26306D01*
X20767Y-26306D01*
X20825Y-26282D01*
X20869Y-26238D01*
X20893Y-26180D01*
X20893Y-26117D01*
X20893Y-26109D01*
X20916Y-26104D01*
X20916Y-26104D01*
X20983Y-26059D01*
X21335Y-25707D01*
X22106Y-25707D01*
X22106Y-25708D01*
X22106Y-26180D01*
X22130Y-26238D01*
X22174Y-26282D01*
X22232Y-26306D01*
X22295Y-26306D01*
X22767Y-26306D01*
X22825Y-26282D01*
X22869Y-26238D01*
X22893Y-26180D01*
X22893Y-26120D01*
X22940Y-26120D01*
X22967Y-26188D01*
X23061Y-26281D01*
X23183Y-26332D01*
X23315Y-26332D01*
X23438Y-26282D01*
X23531Y-26188D01*
X23582Y-26066D01*
X23582Y-25934D01*
X23532Y-25811D01*
X23438Y-25718D01*
X23412Y-25707D01*
X24106Y-25707D01*
X24106Y-25708D01*
X24106Y-26180D01*
X24130Y-26238D01*
X24174Y-26282D01*
X24232Y-26306D01*
X24295Y-26306D01*
X24767Y-26306D01*
X24825Y-26282D01*
X24869Y-26238D01*
X24893Y-26180D01*
X24893Y-26120D01*
X24940Y-26120D01*
X24967Y-26188D01*
X25061Y-26281D01*
X25183Y-26332D01*
X25315Y-26332D01*
X25438Y-26282D01*
X25531Y-26188D01*
X25582Y-26066D01*
X25582Y-25934D01*
X25532Y-25811D01*
X25438Y-25718D01*
X25412Y-25707D01*
X25750Y-25707D01*
X25829Y-25691D01*
X25829Y-25691D01*
X25896Y-25646D01*
X26210Y-25332D01*
X26315Y-25332D01*
X26438Y-25282D01*
X26531Y-25188D01*
X26582Y-25066D01*
X26582Y-24934D01*
X26532Y-24811D01*
X26438Y-24718D01*
X26316Y-24667D01*
X26184Y-24667D01*
X26061Y-24717D01*
X25968Y-24811D01*
X25917Y-24933D01*
X25917Y-25039D01*
X25664Y-25292D01*
X24893Y-25292D01*
X24893Y-25291D01*
X24893Y-24819D01*
X24869Y-24761D01*
X24825Y-24717D01*
X24767Y-24693D01*
X24704Y-24693D01*
X24399Y-24693D01*
X24207Y-24501D01*
X24207Y-23347D01*
X24243Y-23383D01*
X24409Y-23452D01*
X24589Y-23452D01*
X24756Y-23384D01*
X24792Y-23347D01*
X24792Y-23737D01*
X24718Y-23811D01*
X24667Y-23933D01*
X24667Y-24065D01*
X24717Y-24188D01*
X24811Y-24281D01*
X24933Y-24332D01*
X25065Y-24332D01*
X25188Y-24282D01*
X25262Y-24207D01*
X26664Y-24207D01*
X27606Y-25149D01*
X27606Y-25354D01*
X27630Y-25412D01*
X27674Y-25456D01*
X27732Y-25480D01*
X27795Y-25480D01*
X28267Y-25480D01*
X28325Y-25456D01*
X28369Y-25412D01*
X28393Y-25354D01*
X28393Y-25294D01*
X28751Y-25294D01*
X29516Y-26059D01*
X29516Y-26059D01*
X29561Y-26089D01*
X29583Y-26104D01*
X29583Y-26104D01*
X29606Y-26109D01*
X29606Y-26180D01*
X29630Y-26238D01*
X29674Y-26282D01*
X29732Y-26306D01*
X29795Y-26306D01*
X30267Y-26306D01*
X30325Y-26282D01*
X30369Y-26238D01*
X30393Y-26180D01*
X30393Y-26117D01*
X30393Y-25645D01*
X30369Y-25587D01*
X30325Y-25543D01*
X30267Y-25519D01*
X30204Y-25519D01*
X29732Y-25519D01*
X29674Y-25543D01*
X29630Y-25587D01*
X28983Y-24940D01*
X28916Y-24895D01*
X28837Y-24879D01*
X28393Y-24879D01*
X28393Y-24819D01*
X28369Y-24761D01*
X28325Y-24717D01*
X28267Y-24693D01*
X28204Y-24693D01*
X27736Y-24693D01*
X26896Y-23853D01*
X26829Y-23808D01*
X26750Y-23792D01*
X25262Y-23792D01*
X25207Y-23737D01*
X25207Y-23347D01*
X25243Y-23383D01*
X25409Y-23452D01*
X25589Y-23452D01*
X25756Y-23384D01*
X25883Y-23256D01*
X25952Y-23090D01*
X25952Y-22910D01*
X25884Y-22743D01*
X25779Y-22639D01*
X25985Y-22432D01*
X26292Y-22432D01*
X26292Y-22595D01*
X26243Y-22615D01*
X26116Y-22743D01*
X26047Y-22909D01*
X26047Y-23089D01*
X26115Y-23256D01*
X26243Y-23383D01*
X26409Y-23452D01*
X26589Y-23452D01*
X26756Y-23384D01*
X26883Y-23256D01*
X26952Y-23090D01*
X26952Y-22910D01*
X26884Y-22743D01*
X26756Y-22616D01*
X26707Y-22595D01*
X26707Y-22432D01*
X26731Y-22432D01*
X27081Y-22432D01*
X27122Y-22415D01*
X27292Y-22585D01*
X27292Y-22595D01*
X27243Y-22615D01*
X27116Y-22743D01*
X27047Y-22909D01*
X27047Y-23089D01*
X27115Y-23256D01*
X27243Y-23383D01*
X27409Y-23452D01*
X27589Y-23452D01*
X27756Y-23384D01*
X27809Y-23330D01*
X27853Y-23396D01*
X29606Y-25149D01*
X29606Y-25354D01*
X29630Y-25412D01*
X29674Y-25456D01*
X29732Y-25480D01*
X29795Y-25480D01*
X30267Y-25480D01*
X30325Y-25456D01*
X30369Y-25412D01*
X30393Y-25354D01*
X30393Y-25291D01*
X30393Y-24819D01*
X30369Y-24761D01*
X30325Y-24717D01*
X30267Y-24693D01*
X30204Y-24693D01*
X29736Y-24693D01*
X28496Y-23452D01*
X28589Y-23452D01*
X28756Y-23384D01*
X28883Y-23256D01*
X28952Y-23090D01*
X28952Y-22910D01*
X28884Y-22743D01*
X28756Y-22616D01*
X28707Y-22595D01*
X28707Y-22207D01*
X28806Y-22207D01*
X28864Y-22183D01*
X28908Y-22139D01*
X28932Y-22081D01*
X28932Y-22018D01*
X28932Y-21668D01*
X28908Y-21610D01*
X28864Y-21566D01*
X28806Y-21542D01*
X28743Y-21542D01*
X28335Y-21542D01*
X28250Y-21457D01*
X28256Y-21457D01*
X28806Y-21457D01*
X28864Y-21433D01*
X28908Y-21389D01*
X28932Y-21332D01*
X29068Y-21332D01*
X29091Y-21389D01*
X29135Y-21433D01*
X29193Y-21457D01*
X29256Y-21457D01*
X29749Y-21457D01*
X29664Y-21542D01*
X29193Y-21542D01*
X29135Y-21566D01*
X29091Y-21610D01*
X29067Y-21668D01*
X29067Y-21731D01*
X29067Y-22081D01*
X29091Y-22139D01*
X29135Y-22183D01*
X29193Y-22207D01*
X29256Y-22207D01*
X29292Y-22207D01*
X29292Y-22595D01*
X29243Y-22615D01*
X29116Y-22743D01*
X29047Y-22909D01*
X29047Y-23089D01*
X29115Y-23256D01*
X29243Y-23383D01*
X29409Y-23452D01*
X29589Y-23452D01*
X29756Y-23384D01*
X29809Y-23330D01*
X29853Y-23396D01*
X30103Y-23646D01*
X30103Y-23646D01*
X30148Y-23676D01*
X30170Y-23691D01*
X30170Y-23691D01*
X30250Y-23707D01*
X31664Y-23707D01*
X31792Y-23835D01*
X31792Y-24693D01*
X31732Y-24693D01*
X31674Y-24717D01*
X31630Y-24761D01*
X31606Y-24819D01*
X31606Y-24882D01*
X31606Y-25354D01*
X31630Y-25412D01*
X31674Y-25456D01*
X31732Y-25480D01*
X31795Y-25480D01*
X32226Y-25480D01*
X32187Y-25519D01*
X31732Y-25519D01*
X31674Y-25543D01*
X31630Y-25587D01*
X31606Y-25645D01*
X31606Y-25708D01*
X31606Y-26180D01*
X31630Y-26238D01*
X31674Y-26282D01*
X31732Y-26306D01*
X31795Y-26306D01*
X32267Y-26306D01*
X32325Y-26282D01*
X32369Y-26238D01*
X32393Y-26180D01*
X32393Y-26117D01*
X32393Y-25899D01*
X32500Y-25793D01*
X32766Y-26059D01*
X32833Y-26104D01*
X32833Y-26104D01*
X32846Y-26107D01*
X32913Y-26120D01*
X33606Y-26120D01*
X33606Y-26180D01*
X33630Y-26238D01*
X33674Y-26282D01*
X33732Y-26306D01*
X33795Y-26306D01*
X34267Y-26306D01*
X34325Y-26282D01*
X34369Y-26238D01*
X34393Y-26180D01*
X34393Y-26117D01*
X34393Y-25645D01*
X34369Y-25587D01*
X34325Y-25543D01*
X34267Y-25519D01*
X34204Y-25519D01*
X33732Y-25519D01*
X33674Y-25543D01*
X33630Y-25587D01*
X33606Y-25645D01*
X33606Y-25705D01*
X32998Y-25705D01*
X32707Y-25414D01*
X32707Y-24262D01*
X32781Y-24188D01*
X32832Y-24066D01*
X32832Y-23934D01*
X32782Y-23811D01*
X32688Y-23718D01*
X32566Y-23667D01*
X32434Y-23667D01*
X32311Y-23717D01*
X32218Y-23811D01*
X32207Y-23837D01*
X32207Y-23750D01*
X32191Y-23670D01*
X32191Y-23670D01*
X32176Y-23648D01*
X32146Y-23603D01*
X32146Y-23603D01*
X31896Y-23353D01*
X31830Y-23309D01*
X31883Y-23256D01*
X31952Y-23090D01*
X31952Y-22910D01*
X31884Y-22743D01*
X31756Y-22616D01*
X31707Y-22595D01*
X31707Y-22432D01*
X31731Y-22432D01*
X32014Y-22432D01*
X32220Y-22639D01*
X32116Y-22743D01*
X32047Y-22909D01*
X32047Y-23089D01*
X32115Y-23256D01*
X32243Y-23383D01*
X32409Y-23452D01*
X32589Y-23452D01*
X32756Y-23384D01*
X32809Y-23330D01*
X32853Y-23396D01*
X33353Y-23896D01*
X33420Y-23941D01*
X33420Y-23941D01*
X33433Y-23944D01*
X33500Y-23957D01*
X33664Y-23957D01*
X33792Y-24085D01*
X33792Y-24693D01*
X33732Y-24693D01*
X33674Y-24717D01*
X33630Y-24761D01*
X33606Y-24819D01*
X33606Y-24882D01*
X33606Y-25354D01*
X33630Y-25412D01*
X33674Y-25456D01*
X33732Y-25480D01*
X33795Y-25480D01*
X34267Y-25480D01*
X34325Y-25456D01*
X34369Y-25412D01*
X34393Y-25354D01*
X34393Y-25291D01*
X34393Y-24819D01*
X34369Y-24761D01*
X34325Y-24717D01*
X34267Y-24693D01*
X34207Y-24693D01*
X34207Y-24000D01*
X34191Y-23920D01*
X34191Y-23920D01*
X34176Y-23898D01*
X34146Y-23853D01*
X34146Y-23853D01*
X33896Y-23603D01*
X33829Y-23558D01*
X33750Y-23542D01*
X33585Y-23542D01*
X33496Y-23452D01*
X33589Y-23452D01*
X33756Y-23384D01*
X33883Y-23256D01*
X33952Y-23090D01*
X33952Y-22910D01*
X33884Y-22743D01*
X33756Y-22616D01*
X33707Y-22595D01*
X33707Y-22585D01*
X34085Y-22207D01*
X34292Y-22207D01*
X34292Y-22306D01*
X34316Y-22364D01*
X34360Y-22408D01*
X34418Y-22432D01*
X34481Y-22432D01*
X34792Y-22432D01*
X34792Y-22652D01*
X34756Y-22616D01*
X34590Y-22547D01*
X34410Y-22547D01*
X34243Y-22615D01*
X34116Y-22743D01*
X34047Y-22909D01*
X34047Y-23089D01*
X34115Y-23256D01*
X34243Y-23383D01*
X34409Y-23452D01*
X34589Y-23452D01*
X34756Y-23384D01*
X34792Y-23347D01*
X34792Y-24500D01*
X34808Y-24579D01*
X34853Y-24646D01*
X35440Y-25233D01*
X35507Y-25278D01*
X35507Y-25278D01*
X35587Y-25294D01*
X35606Y-25294D01*
X35606Y-25354D01*
X35630Y-25412D01*
X35674Y-25456D01*
X35732Y-25480D01*
X35795Y-25480D01*
X36267Y-25480D01*
X36325Y-25456D01*
X36369Y-25412D01*
X36393Y-25354D01*
X36393Y-25291D01*
X36393Y-24819D01*
X36369Y-24761D01*
X36325Y-24717D01*
X36267Y-24693D01*
X36204Y-24693D01*
X35732Y-24693D01*
X35674Y-24717D01*
X35630Y-24761D01*
X35608Y-24815D01*
X35207Y-24414D01*
X35207Y-23347D01*
X35243Y-23383D01*
X35409Y-23452D01*
X35853Y-23896D01*
X35920Y-23941D01*
X35920Y-23941D01*
X35933Y-23944D01*
X36000Y-23957D01*
X36750Y-23957D01*
X36829Y-23941D01*
X36829Y-23941D01*
X36896Y-23896D01*
X37146Y-23646D01*
X37146Y-23646D01*
X37176Y-23601D01*
X37191Y-23579D01*
X37191Y-23579D01*
X37207Y-23500D01*
X37207Y-23500D01*
X37207Y-23347D01*
X37243Y-23383D01*
X37409Y-23452D01*
X37589Y-23452D01*
X37756Y-23384D01*
X37792Y-23347D01*
X37792Y-24693D01*
X37732Y-24693D01*
X37674Y-24717D01*
X37630Y-24761D01*
X37606Y-24819D01*
X37606Y-24882D01*
X37606Y-25354D01*
X37630Y-25412D01*
X37674Y-25456D01*
X37732Y-25480D01*
X37795Y-25480D01*
X38267Y-25480D01*
X38325Y-25456D01*
X38369Y-25412D01*
X38393Y-25354D01*
X38393Y-25291D01*
X38393Y-24819D01*
X38369Y-24761D01*
X38325Y-24717D01*
X38267Y-24693D01*
X38207Y-24693D01*
X38207Y-23347D01*
X38243Y-23383D01*
X38409Y-23452D01*
X38589Y-23452D01*
X38756Y-23384D01*
X38883Y-23256D01*
X38952Y-23090D01*
X38952Y-22910D01*
X38884Y-22743D01*
X38756Y-22616D01*
X38590Y-22547D01*
X38410Y-22547D01*
X38243Y-22615D01*
X38207Y-22652D01*
X38207Y-22460D01*
X38460Y-22207D01*
X38806Y-22207D01*
X38864Y-22183D01*
X38908Y-22139D01*
X38932Y-22081D01*
X38932Y-22018D01*
X38932Y-21707D01*
X40000Y-21707D01*
X40079Y-21691D01*
X40079Y-21691D01*
X40146Y-21646D01*
X40646Y-21146D01*
X40691Y-21079D01*
X40691Y-21079D01*
X40694Y-21066D01*
X40707Y-21000D01*
X40707Y-21000D01*
X40707Y-20409D01*
X40758Y-20388D01*
X40887Y-20259D01*
X40957Y-20091D01*
X40957Y-19909D01*
X40957Y-24900D01*
X40915Y-24941D01*
X40765Y-25303D01*
X40765Y-25694D01*
X40914Y-26056D01*
X41191Y-26334D01*
X41553Y-26484D01*
X41944Y-26484D01*
X42306Y-26335D01*
X42584Y-26058D01*
X42734Y-25696D01*
X42734Y-25305D01*
X42734Y-26572D01*
X28393Y-26572D01*
X28393Y-26117D01*
X28393Y-25645D01*
X28369Y-25587D01*
X28325Y-25543D01*
X28267Y-25519D01*
X28204Y-25519D01*
X27732Y-25519D01*
X27674Y-25543D01*
X27630Y-25587D01*
X27606Y-25645D01*
X27606Y-25705D01*
X26157Y-25705D01*
X26066Y-25667D01*
X25934Y-25667D01*
X25811Y-25717D01*
X25718Y-25811D01*
X25667Y-25933D01*
X25667Y-26065D01*
X25717Y-26188D01*
X25811Y-26281D01*
X25933Y-26332D01*
X26065Y-26332D01*
X26188Y-26282D01*
X26281Y-26188D01*
X26309Y-26120D01*
X27606Y-26120D01*
X27606Y-26180D01*
X27630Y-26238D01*
X27674Y-26282D01*
X27732Y-26306D01*
X27795Y-26306D01*
X28267Y-26306D01*
X28325Y-26282D01*
X28369Y-26238D01*
X28393Y-26180D01*
X28393Y-26117D01*
X28393Y-26572D01*
X19457Y-26572D01*
X19457Y-25500D01*
X19457Y-24500D01*
X19441Y-24420D01*
X19441Y-24420D01*
X19426Y-24398D01*
X19396Y-24353D01*
X19396Y-24353D01*
X18457Y-23414D01*
X18457Y-18207D01*
X18556Y-18207D01*
X18614Y-18183D01*
X18658Y-18139D01*
X18682Y-18081D01*
X18682Y-18018D01*
X18682Y-17668D01*
X18658Y-17610D01*
X18614Y-17566D01*
X18556Y-17542D01*
X18493Y-17542D01*
X17957Y-17542D01*
X17957Y-17457D01*
X18006Y-17457D01*
X18556Y-17457D01*
X18614Y-17433D01*
X18658Y-17389D01*
X18682Y-17331D01*
X18682Y-17268D01*
X18682Y-16918D01*
X18658Y-16860D01*
X18614Y-16816D01*
X18556Y-16792D01*
X18493Y-16792D01*
X18457Y-16792D01*
X18457Y-16512D01*
X18531Y-16438D01*
X18582Y-16316D01*
X18582Y-16184D01*
X18532Y-16061D01*
X18438Y-15968D01*
X18316Y-15917D01*
X18184Y-15917D01*
X18061Y-15967D01*
X17968Y-16061D01*
X17957Y-16087D01*
X17957Y-14512D01*
X18031Y-14438D01*
X18082Y-14316D01*
X18082Y-14184D01*
X18032Y-14061D01*
X17938Y-13968D01*
X17816Y-13917D01*
X17734Y-13917D01*
X17734Y-7055D01*
X17585Y-6693D01*
X17308Y-6415D01*
X16946Y-6265D01*
X16555Y-6265D01*
X16193Y-6414D01*
X15915Y-6691D01*
X15765Y-7053D01*
X15765Y-7444D01*
X15914Y-7806D01*
X16191Y-8084D01*
X16553Y-8234D01*
X16944Y-8234D01*
X17306Y-8085D01*
X17584Y-7808D01*
X17734Y-7446D01*
X17734Y-7055D01*
X17734Y-13917D01*
X17684Y-13917D01*
X17561Y-13967D01*
X17468Y-14061D01*
X17417Y-14183D01*
X17417Y-14315D01*
X17467Y-14438D01*
X17542Y-14512D01*
X17542Y-17250D01*
X17542Y-18042D01*
X17493Y-18042D01*
X16943Y-18042D01*
X16885Y-18066D01*
X16841Y-18110D01*
X16817Y-18168D01*
X16817Y-18231D01*
X16817Y-18581D01*
X16841Y-18639D01*
X16885Y-18683D01*
X16943Y-18707D01*
X17006Y-18707D01*
X17042Y-18707D01*
X17042Y-19193D01*
X16982Y-19193D01*
X16924Y-19217D01*
X16880Y-19261D01*
X16856Y-19319D01*
X16856Y-19382D01*
X16856Y-19854D01*
X16880Y-19912D01*
X16924Y-19956D01*
X16982Y-19980D01*
X17045Y-19980D01*
X17517Y-19980D01*
X17575Y-19956D01*
X17619Y-19912D01*
X17643Y-19854D01*
X17643Y-19791D01*
X17643Y-19319D01*
X17619Y-19261D01*
X17575Y-19217D01*
X17517Y-19193D01*
X17457Y-19193D01*
X17457Y-18707D01*
X17556Y-18707D01*
X17614Y-18683D01*
X17658Y-18639D01*
X17682Y-18581D01*
X17682Y-18518D01*
X17682Y-18475D01*
X17792Y-18585D01*
X17792Y-24587D01*
X17808Y-24666D01*
X17853Y-24733D01*
X18106Y-24986D01*
X18106Y-25354D01*
X18130Y-25412D01*
X18174Y-25456D01*
X18232Y-25480D01*
X18295Y-25480D01*
X18767Y-25480D01*
X18825Y-25456D01*
X18869Y-25412D01*
X18893Y-25354D01*
X18893Y-25291D01*
X18893Y-24819D01*
X18869Y-24761D01*
X18825Y-24717D01*
X18767Y-24693D01*
X18704Y-24693D01*
X18399Y-24693D01*
X18207Y-24501D01*
X18207Y-23750D01*
X19042Y-24585D01*
X19042Y-25414D01*
X18869Y-25587D01*
X18825Y-25543D01*
X18767Y-25519D01*
X18704Y-25519D01*
X18232Y-25519D01*
X18174Y-25543D01*
X18130Y-25587D01*
X18106Y-25645D01*
X18106Y-25708D01*
X18106Y-26180D01*
X18130Y-26238D01*
X18174Y-26282D01*
X18232Y-26306D01*
X18295Y-26306D01*
X18767Y-26306D01*
X18825Y-26282D01*
X18869Y-26238D01*
X18893Y-26180D01*
X18893Y-26117D01*
X18893Y-26109D01*
X18916Y-26104D01*
X18916Y-26104D01*
X18983Y-26059D01*
X19396Y-25646D01*
X19441Y-25579D01*
X19441Y-25579D01*
X19444Y-25566D01*
X19457Y-25500D01*
X19457Y-25500D01*
X19457Y-26572D01*
X17734Y-26572D01*
X17734Y-25305D01*
X17643Y-25084D01*
X17643Y-20617D01*
X17643Y-20145D01*
X17619Y-20087D01*
X17575Y-20043D01*
X17517Y-20019D01*
X17454Y-20019D01*
X16982Y-20019D01*
X16924Y-20043D01*
X16880Y-20087D01*
X16856Y-20145D01*
X16856Y-20208D01*
X16856Y-20680D01*
X16880Y-20738D01*
X16924Y-20782D01*
X16982Y-20806D01*
X17042Y-20806D01*
X17042Y-20987D01*
X16968Y-21061D01*
X16917Y-21183D01*
X16917Y-21315D01*
X16967Y-21438D01*
X17061Y-21531D01*
X17183Y-21582D01*
X17315Y-21582D01*
X17438Y-21532D01*
X17531Y-21438D01*
X17582Y-21316D01*
X17582Y-21184D01*
X17532Y-21061D01*
X17457Y-20987D01*
X17457Y-20806D01*
X17517Y-20806D01*
X17575Y-20782D01*
X17619Y-20738D01*
X17643Y-20680D01*
X17643Y-20617D01*
X17643Y-25084D01*
X17585Y-24943D01*
X17308Y-24665D01*
X16946Y-24515D01*
X16555Y-24515D01*
X16193Y-24664D01*
X15915Y-24941D01*
X15765Y-25303D01*
X15765Y-25694D01*
X15914Y-26056D01*
X16191Y-26334D01*
X16553Y-26484D01*
X16944Y-26484D01*
X17306Y-26335D01*
X17584Y-26058D01*
X17734Y-25696D01*
X17734Y-25305D01*
X17734Y-26572D01*
X15677Y-26572D01*
X15677Y-6177D01*
X42822Y-6177D01*
X42822Y-26572D01*
M02*
