G04 (created by PCBNEW (2013-03-31 BZR 4008)-stable) date 15.09.2013 15:25:41*
%MOIN*%
G04 Gerber Fmt 3.4, Leading zero omitted, Abs format*
%FSLAX34Y34*%
G01*
G70*
G90*
G04 APERTURE LIST*
%ADD10C,0.006*%
%ADD11C,0.0591*%
%ADD12C,0.1181*%
%ADD13R,0.06X0.06*%
%ADD14C,0.06*%
%ADD15C,0.189*%
%ADD16R,0.189X0.189*%
%ADD17C,0.0590551*%
%ADD18C,0.1654*%
%ADD19C,0.035*%
%ADD20C,0.01*%
%ADD21C,0.00787402*%
G04 APERTURE END LIST*
G54D10*
G54D11*
X21600Y-10750D03*
X22600Y-10750D03*
X23400Y-10750D03*
X24400Y-10750D03*
G54D12*
X20400Y-9700D03*
X25800Y-9700D03*
G54D13*
X40500Y-18000D03*
G54D14*
X41500Y-18000D03*
X40500Y-19000D03*
X41500Y-19000D03*
X40500Y-20000D03*
X41500Y-20000D03*
G54D15*
X30500Y-8750D03*
G54D16*
X30500Y-11150D03*
G54D15*
X28500Y-9650D03*
G54D11*
X33750Y-8242D03*
X33750Y-7258D03*
X36500Y-8242D03*
X36500Y-7258D03*
X39250Y-8242D03*
X39250Y-7258D03*
G54D17*
X19500Y-23000D03*
X20500Y-23000D03*
X21500Y-23000D03*
X22500Y-23000D03*
X23500Y-23000D03*
X24500Y-23000D03*
X25500Y-23000D03*
X26500Y-23000D03*
X27500Y-23000D03*
X28500Y-23000D03*
X29500Y-23000D03*
X30500Y-23000D03*
X31500Y-23000D03*
X32500Y-23000D03*
X33500Y-23000D03*
X34500Y-23000D03*
X35500Y-23000D03*
X36500Y-23000D03*
X37500Y-23000D03*
X38500Y-23000D03*
X38500Y-14000D03*
X37500Y-14000D03*
X36500Y-14000D03*
X35500Y-14000D03*
X34500Y-14000D03*
X33500Y-14000D03*
X32500Y-14000D03*
X31500Y-14000D03*
X30500Y-14000D03*
X29500Y-14000D03*
X28500Y-14000D03*
X27500Y-14000D03*
X26500Y-14000D03*
X25500Y-14000D03*
X24500Y-14000D03*
X23500Y-14000D03*
X22500Y-14000D03*
X21500Y-14000D03*
X20500Y-14000D03*
X19500Y-14000D03*
G54D18*
X41750Y-7250D03*
X41750Y-25500D03*
X16750Y-25500D03*
X16750Y-7250D03*
G54D19*
X37500Y-10750D03*
X21250Y-18750D03*
X30750Y-19750D03*
X35000Y-12500D03*
X32500Y-24000D03*
X25250Y-26000D03*
X23250Y-26000D03*
X36000Y-17750D03*
X17250Y-21250D03*
X17750Y-14250D03*
X26250Y-25000D03*
X25750Y-19500D03*
X22500Y-18750D03*
X18250Y-16250D03*
X21500Y-24750D03*
X26000Y-26000D03*
X25000Y-24000D03*
G54D20*
X19500Y-10750D02*
X17750Y-12500D01*
X17750Y-12500D02*
X17750Y-14250D01*
X19500Y-10750D02*
X21600Y-10750D01*
X38500Y-24000D02*
X38500Y-23000D01*
X38000Y-24500D02*
X38500Y-24000D01*
X26750Y-24500D02*
X38000Y-24500D01*
X26250Y-25000D02*
X26750Y-24500D01*
X23250Y-19500D02*
X25750Y-19500D01*
X22500Y-18750D02*
X23250Y-19500D01*
X18250Y-16250D02*
X18250Y-15250D01*
X24400Y-10850D02*
X23500Y-11750D01*
X23500Y-11750D02*
X19250Y-11750D01*
X19250Y-11750D02*
X18250Y-12750D01*
X18250Y-12750D02*
X18250Y-15250D01*
X24400Y-10850D02*
X24400Y-10750D01*
X40500Y-18000D02*
X36250Y-18000D01*
X34500Y-19750D02*
X34500Y-23000D01*
X36250Y-18000D02*
X34500Y-19750D01*
X21750Y-25000D02*
X21500Y-24750D01*
X25000Y-25000D02*
X21750Y-25000D01*
X26000Y-26000D02*
X25000Y-25000D01*
X19500Y-23250D02*
X19500Y-23000D01*
X20250Y-24000D02*
X19500Y-23250D01*
X25000Y-24000D02*
X20250Y-24000D01*
G54D10*
G36*
X42822Y-26572D02*
X42734Y-26572D01*
X42734Y-25305D01*
X42734Y-7055D01*
X42585Y-6693D01*
X42308Y-6415D01*
X41946Y-6265D01*
X41555Y-6265D01*
X41193Y-6414D01*
X40915Y-6691D01*
X40765Y-7053D01*
X40765Y-7444D01*
X40914Y-7806D01*
X41191Y-8084D01*
X41553Y-8234D01*
X41944Y-8234D01*
X42306Y-8085D01*
X42584Y-7808D01*
X42734Y-7446D01*
X42734Y-7055D01*
X42734Y-25305D01*
X42585Y-24943D01*
X42308Y-24665D01*
X41957Y-24520D01*
X41957Y-18909D01*
X41957Y-17909D01*
X41888Y-17741D01*
X41759Y-17612D01*
X41591Y-17542D01*
X41409Y-17542D01*
X41241Y-17611D01*
X41112Y-17740D01*
X41042Y-17908D01*
X41042Y-18090D01*
X41111Y-18258D01*
X41240Y-18387D01*
X41408Y-18457D01*
X41590Y-18457D01*
X41758Y-18388D01*
X41887Y-18259D01*
X41957Y-18091D01*
X41957Y-17909D01*
X41957Y-18909D01*
X41888Y-18741D01*
X41759Y-18612D01*
X41591Y-18542D01*
X41409Y-18542D01*
X41241Y-18611D01*
X41112Y-18740D01*
X41042Y-18908D01*
X41042Y-19090D01*
X41111Y-19258D01*
X41240Y-19387D01*
X41408Y-19457D01*
X41590Y-19457D01*
X41758Y-19388D01*
X41887Y-19259D01*
X41957Y-19091D01*
X41957Y-18909D01*
X41957Y-24520D01*
X41946Y-24515D01*
X41555Y-24515D01*
X41193Y-24664D01*
X40957Y-24900D01*
X40957Y-19909D01*
X40957Y-18909D01*
X40957Y-18909D01*
X40957Y-18268D01*
X40957Y-17668D01*
X40933Y-17610D01*
X40889Y-17566D01*
X40831Y-17542D01*
X40768Y-17542D01*
X40168Y-17542D01*
X40110Y-17566D01*
X40066Y-17610D01*
X40042Y-17668D01*
X40042Y-17731D01*
X40042Y-17792D01*
X39703Y-17792D01*
X39703Y-8152D01*
X39634Y-7985D01*
X39506Y-7858D01*
X39340Y-7789D01*
X39160Y-7788D01*
X38993Y-7857D01*
X38866Y-7985D01*
X38797Y-8151D01*
X38796Y-8331D01*
X38865Y-8498D01*
X38993Y-8625D01*
X39159Y-8694D01*
X39339Y-8695D01*
X39506Y-8626D01*
X39633Y-8498D01*
X39702Y-8332D01*
X39703Y-8152D01*
X39703Y-17792D01*
X38952Y-17792D01*
X38952Y-13910D01*
X38884Y-13743D01*
X38756Y-13616D01*
X38590Y-13547D01*
X38410Y-13547D01*
X38243Y-13615D01*
X38116Y-13743D01*
X38047Y-13909D01*
X38047Y-14089D01*
X38115Y-14256D01*
X38243Y-14383D01*
X38409Y-14452D01*
X38589Y-14452D01*
X38756Y-14384D01*
X38883Y-14256D01*
X38952Y-14090D01*
X38952Y-13910D01*
X38952Y-17792D01*
X37952Y-17792D01*
X37952Y-13910D01*
X37884Y-13743D01*
X37756Y-13616D01*
X37590Y-13547D01*
X37410Y-13547D01*
X37243Y-13615D01*
X37116Y-13743D01*
X37047Y-13909D01*
X37047Y-14089D01*
X37115Y-14256D01*
X37243Y-14383D01*
X37409Y-14452D01*
X37589Y-14452D01*
X37756Y-14384D01*
X37883Y-14256D01*
X37952Y-14090D01*
X37952Y-13910D01*
X37952Y-17792D01*
X36953Y-17792D01*
X36953Y-8152D01*
X36884Y-7985D01*
X36756Y-7858D01*
X36590Y-7789D01*
X36410Y-7788D01*
X36243Y-7857D01*
X36116Y-7985D01*
X36047Y-8151D01*
X36046Y-8331D01*
X36115Y-8498D01*
X36243Y-8625D01*
X36409Y-8694D01*
X36589Y-8695D01*
X36756Y-8626D01*
X36883Y-8498D01*
X36952Y-8332D01*
X36953Y-8152D01*
X36953Y-17792D01*
X36952Y-17792D01*
X36952Y-13910D01*
X36884Y-13743D01*
X36756Y-13616D01*
X36590Y-13547D01*
X36410Y-13547D01*
X36243Y-13615D01*
X36116Y-13743D01*
X36047Y-13909D01*
X36047Y-14089D01*
X36115Y-14256D01*
X36243Y-14383D01*
X36409Y-14452D01*
X36589Y-14452D01*
X36756Y-14384D01*
X36883Y-14256D01*
X36952Y-14090D01*
X36952Y-13910D01*
X36952Y-17792D01*
X36250Y-17792D01*
X36183Y-17805D01*
X36170Y-17808D01*
X36103Y-17853D01*
X35952Y-18003D01*
X35952Y-13910D01*
X35884Y-13743D01*
X35756Y-13616D01*
X35590Y-13547D01*
X35410Y-13547D01*
X35243Y-13615D01*
X35116Y-13743D01*
X35047Y-13909D01*
X35047Y-14089D01*
X35115Y-14256D01*
X35243Y-14383D01*
X35409Y-14452D01*
X35589Y-14452D01*
X35756Y-14384D01*
X35883Y-14256D01*
X35952Y-14090D01*
X35952Y-13910D01*
X35952Y-18003D01*
X34952Y-19003D01*
X34952Y-13910D01*
X34884Y-13743D01*
X34756Y-13616D01*
X34590Y-13547D01*
X34410Y-13547D01*
X34243Y-13615D01*
X34203Y-13656D01*
X34203Y-8152D01*
X34134Y-7985D01*
X34006Y-7858D01*
X33840Y-7789D01*
X33660Y-7788D01*
X33493Y-7857D01*
X33366Y-7985D01*
X33297Y-8151D01*
X33296Y-8331D01*
X33365Y-8498D01*
X33493Y-8625D01*
X33659Y-8694D01*
X33839Y-8695D01*
X34006Y-8626D01*
X34133Y-8498D01*
X34202Y-8332D01*
X34203Y-8152D01*
X34203Y-13656D01*
X34116Y-13743D01*
X34047Y-13909D01*
X34047Y-14089D01*
X34115Y-14256D01*
X34243Y-14383D01*
X34409Y-14452D01*
X34589Y-14452D01*
X34756Y-14384D01*
X34883Y-14256D01*
X34952Y-14090D01*
X34952Y-13910D01*
X34952Y-19003D01*
X34353Y-19603D01*
X34308Y-19670D01*
X34292Y-19750D01*
X34292Y-22595D01*
X34243Y-22615D01*
X34116Y-22743D01*
X34047Y-22909D01*
X34047Y-23089D01*
X34115Y-23256D01*
X34243Y-23383D01*
X34409Y-23452D01*
X34589Y-23452D01*
X34756Y-23384D01*
X34883Y-23256D01*
X34952Y-23090D01*
X34952Y-22910D01*
X34884Y-22743D01*
X34756Y-22616D01*
X34707Y-22595D01*
X34707Y-19835D01*
X36335Y-18207D01*
X40042Y-18207D01*
X40042Y-18331D01*
X40066Y-18389D01*
X40110Y-18433D01*
X40168Y-18457D01*
X40231Y-18457D01*
X40831Y-18457D01*
X40889Y-18433D01*
X40933Y-18389D01*
X40957Y-18331D01*
X40957Y-18268D01*
X40957Y-18909D01*
X40888Y-18741D01*
X40759Y-18612D01*
X40591Y-18542D01*
X40409Y-18542D01*
X40241Y-18611D01*
X40112Y-18740D01*
X40042Y-18908D01*
X40042Y-19090D01*
X40111Y-19258D01*
X40240Y-19387D01*
X40408Y-19457D01*
X40590Y-19457D01*
X40758Y-19388D01*
X40887Y-19259D01*
X40957Y-19091D01*
X40957Y-18909D01*
X40957Y-19909D01*
X40888Y-19741D01*
X40759Y-19612D01*
X40591Y-19542D01*
X40409Y-19542D01*
X40241Y-19611D01*
X40112Y-19740D01*
X40042Y-19908D01*
X40042Y-20090D01*
X40111Y-20258D01*
X40240Y-20387D01*
X40408Y-20457D01*
X40590Y-20457D01*
X40758Y-20388D01*
X40887Y-20259D01*
X40957Y-20091D01*
X40957Y-19909D01*
X40957Y-24900D01*
X40915Y-24941D01*
X40765Y-25303D01*
X40765Y-25694D01*
X40914Y-26056D01*
X41191Y-26334D01*
X41553Y-26484D01*
X41944Y-26484D01*
X42306Y-26335D01*
X42584Y-26058D01*
X42734Y-25696D01*
X42734Y-25305D01*
X42734Y-26572D01*
X38952Y-26572D01*
X38952Y-22910D01*
X38884Y-22743D01*
X38756Y-22616D01*
X38590Y-22547D01*
X38410Y-22547D01*
X38243Y-22615D01*
X38116Y-22743D01*
X38047Y-22909D01*
X38047Y-23089D01*
X38115Y-23256D01*
X38243Y-23383D01*
X38292Y-23404D01*
X38292Y-23914D01*
X37952Y-24253D01*
X37952Y-22910D01*
X37884Y-22743D01*
X37756Y-22616D01*
X37590Y-22547D01*
X37410Y-22547D01*
X37243Y-22615D01*
X37116Y-22743D01*
X37047Y-22909D01*
X37047Y-23089D01*
X37115Y-23256D01*
X37243Y-23383D01*
X37409Y-23452D01*
X37589Y-23452D01*
X37756Y-23384D01*
X37883Y-23256D01*
X37952Y-23090D01*
X37952Y-22910D01*
X37952Y-24253D01*
X37914Y-24292D01*
X36952Y-24292D01*
X36952Y-22910D01*
X36884Y-22743D01*
X36756Y-22616D01*
X36590Y-22547D01*
X36410Y-22547D01*
X36243Y-22615D01*
X36116Y-22743D01*
X36047Y-22909D01*
X36047Y-23089D01*
X36115Y-23256D01*
X36243Y-23383D01*
X36409Y-23452D01*
X36589Y-23452D01*
X36756Y-23384D01*
X36883Y-23256D01*
X36952Y-23090D01*
X36952Y-22910D01*
X36952Y-24292D01*
X35952Y-24292D01*
X35952Y-22910D01*
X35884Y-22743D01*
X35756Y-22616D01*
X35590Y-22547D01*
X35410Y-22547D01*
X35243Y-22615D01*
X35116Y-22743D01*
X35047Y-22909D01*
X35047Y-23089D01*
X35115Y-23256D01*
X35243Y-23383D01*
X35409Y-23452D01*
X35589Y-23452D01*
X35756Y-23384D01*
X35883Y-23256D01*
X35952Y-23090D01*
X35952Y-22910D01*
X35952Y-24292D01*
X33952Y-24292D01*
X33952Y-22910D01*
X33952Y-13910D01*
X33884Y-13743D01*
X33756Y-13616D01*
X33590Y-13547D01*
X33410Y-13547D01*
X33243Y-13615D01*
X33116Y-13743D01*
X33047Y-13909D01*
X33047Y-14089D01*
X33115Y-14256D01*
X33243Y-14383D01*
X33409Y-14452D01*
X33589Y-14452D01*
X33756Y-14384D01*
X33883Y-14256D01*
X33952Y-14090D01*
X33952Y-13910D01*
X33952Y-22910D01*
X33884Y-22743D01*
X33756Y-22616D01*
X33590Y-22547D01*
X33410Y-22547D01*
X33243Y-22615D01*
X33116Y-22743D01*
X33047Y-22909D01*
X33047Y-23089D01*
X33115Y-23256D01*
X33243Y-23383D01*
X33409Y-23452D01*
X33589Y-23452D01*
X33756Y-23384D01*
X33883Y-23256D01*
X33952Y-23090D01*
X33952Y-22910D01*
X33952Y-24292D01*
X32952Y-24292D01*
X32952Y-22910D01*
X32952Y-13910D01*
X32884Y-13743D01*
X32756Y-13616D01*
X32590Y-13547D01*
X32410Y-13547D01*
X32243Y-13615D01*
X32116Y-13743D01*
X32047Y-13909D01*
X32047Y-14089D01*
X32115Y-14256D01*
X32243Y-14383D01*
X32409Y-14452D01*
X32589Y-14452D01*
X32756Y-14384D01*
X32883Y-14256D01*
X32952Y-14090D01*
X32952Y-13910D01*
X32952Y-22910D01*
X32884Y-22743D01*
X32756Y-22616D01*
X32590Y-22547D01*
X32410Y-22547D01*
X32243Y-22615D01*
X32116Y-22743D01*
X32047Y-22909D01*
X32047Y-23089D01*
X32115Y-23256D01*
X32243Y-23383D01*
X32409Y-23452D01*
X32589Y-23452D01*
X32756Y-23384D01*
X32883Y-23256D01*
X32952Y-23090D01*
X32952Y-22910D01*
X32952Y-24292D01*
X31952Y-24292D01*
X31952Y-22910D01*
X31952Y-13910D01*
X31884Y-13743D01*
X31756Y-13616D01*
X31602Y-13552D01*
X31602Y-12063D01*
X31602Y-10173D01*
X31578Y-10115D01*
X31534Y-10071D01*
X31476Y-10047D01*
X31413Y-10047D01*
X29523Y-10047D01*
X29465Y-10071D01*
X29421Y-10115D01*
X29397Y-10173D01*
X29397Y-10236D01*
X29397Y-12126D01*
X29421Y-12184D01*
X29465Y-12228D01*
X29523Y-12252D01*
X29586Y-12252D01*
X31476Y-12252D01*
X31534Y-12228D01*
X31578Y-12184D01*
X31602Y-12126D01*
X31602Y-12063D01*
X31602Y-13552D01*
X31590Y-13547D01*
X31410Y-13547D01*
X31243Y-13615D01*
X31116Y-13743D01*
X31047Y-13909D01*
X31047Y-14089D01*
X31115Y-14256D01*
X31243Y-14383D01*
X31409Y-14452D01*
X31589Y-14452D01*
X31756Y-14384D01*
X31883Y-14256D01*
X31952Y-14090D01*
X31952Y-13910D01*
X31952Y-22910D01*
X31884Y-22743D01*
X31756Y-22616D01*
X31590Y-22547D01*
X31410Y-22547D01*
X31243Y-22615D01*
X31116Y-22743D01*
X31047Y-22909D01*
X31047Y-23089D01*
X31115Y-23256D01*
X31243Y-23383D01*
X31409Y-23452D01*
X31589Y-23452D01*
X31756Y-23384D01*
X31883Y-23256D01*
X31952Y-23090D01*
X31952Y-22910D01*
X31952Y-24292D01*
X30952Y-24292D01*
X30952Y-22910D01*
X30952Y-13910D01*
X30884Y-13743D01*
X30756Y-13616D01*
X30590Y-13547D01*
X30410Y-13547D01*
X30243Y-13615D01*
X30116Y-13743D01*
X30047Y-13909D01*
X30047Y-14089D01*
X30115Y-14256D01*
X30243Y-14383D01*
X30409Y-14452D01*
X30589Y-14452D01*
X30756Y-14384D01*
X30883Y-14256D01*
X30952Y-14090D01*
X30952Y-13910D01*
X30952Y-22910D01*
X30884Y-22743D01*
X30756Y-22616D01*
X30590Y-22547D01*
X30410Y-22547D01*
X30243Y-22615D01*
X30116Y-22743D01*
X30047Y-22909D01*
X30047Y-23089D01*
X30115Y-23256D01*
X30243Y-23383D01*
X30409Y-23452D01*
X30589Y-23452D01*
X30756Y-23384D01*
X30883Y-23256D01*
X30952Y-23090D01*
X30952Y-22910D01*
X30952Y-24292D01*
X29952Y-24292D01*
X29952Y-22910D01*
X29952Y-13910D01*
X29884Y-13743D01*
X29756Y-13616D01*
X29590Y-13547D01*
X29410Y-13547D01*
X29243Y-13615D01*
X29116Y-13743D01*
X29047Y-13909D01*
X29047Y-14089D01*
X29115Y-14256D01*
X29243Y-14383D01*
X29409Y-14452D01*
X29589Y-14452D01*
X29756Y-14384D01*
X29883Y-14256D01*
X29952Y-14090D01*
X29952Y-13910D01*
X29952Y-22910D01*
X29884Y-22743D01*
X29756Y-22616D01*
X29590Y-22547D01*
X29410Y-22547D01*
X29243Y-22615D01*
X29116Y-22743D01*
X29047Y-22909D01*
X29047Y-23089D01*
X29115Y-23256D01*
X29243Y-23383D01*
X29409Y-23452D01*
X29589Y-23452D01*
X29756Y-23384D01*
X29883Y-23256D01*
X29952Y-23090D01*
X29952Y-22910D01*
X29952Y-24292D01*
X28952Y-24292D01*
X28952Y-22910D01*
X28952Y-13910D01*
X28884Y-13743D01*
X28756Y-13616D01*
X28590Y-13547D01*
X28410Y-13547D01*
X28243Y-13615D01*
X28116Y-13743D01*
X28047Y-13909D01*
X28047Y-14089D01*
X28115Y-14256D01*
X28243Y-14383D01*
X28409Y-14452D01*
X28589Y-14452D01*
X28756Y-14384D01*
X28883Y-14256D01*
X28952Y-14090D01*
X28952Y-13910D01*
X28952Y-22910D01*
X28884Y-22743D01*
X28756Y-22616D01*
X28590Y-22547D01*
X28410Y-22547D01*
X28243Y-22615D01*
X28116Y-22743D01*
X28047Y-22909D01*
X28047Y-23089D01*
X28115Y-23256D01*
X28243Y-23383D01*
X28409Y-23452D01*
X28589Y-23452D01*
X28756Y-23384D01*
X28883Y-23256D01*
X28952Y-23090D01*
X28952Y-22910D01*
X28952Y-24292D01*
X27952Y-24292D01*
X27952Y-22910D01*
X27952Y-13910D01*
X27884Y-13743D01*
X27756Y-13616D01*
X27590Y-13547D01*
X27410Y-13547D01*
X27243Y-13615D01*
X27116Y-13743D01*
X27047Y-13909D01*
X27047Y-14089D01*
X27115Y-14256D01*
X27243Y-14383D01*
X27409Y-14452D01*
X27589Y-14452D01*
X27756Y-14384D01*
X27883Y-14256D01*
X27952Y-14090D01*
X27952Y-13910D01*
X27952Y-22910D01*
X27884Y-22743D01*
X27756Y-22616D01*
X27590Y-22547D01*
X27410Y-22547D01*
X27243Y-22615D01*
X27116Y-22743D01*
X27047Y-22909D01*
X27047Y-23089D01*
X27115Y-23256D01*
X27243Y-23383D01*
X27409Y-23452D01*
X27589Y-23452D01*
X27756Y-23384D01*
X27883Y-23256D01*
X27952Y-23090D01*
X27952Y-22910D01*
X27952Y-24292D01*
X26952Y-24292D01*
X26952Y-22910D01*
X26952Y-13910D01*
X26884Y-13743D01*
X26756Y-13616D01*
X26590Y-13547D01*
X26548Y-13547D01*
X26548Y-9551D01*
X26434Y-9276D01*
X26224Y-9066D01*
X25949Y-8952D01*
X25651Y-8951D01*
X25376Y-9065D01*
X25166Y-9275D01*
X25052Y-9550D01*
X25051Y-9848D01*
X25165Y-10123D01*
X25375Y-10333D01*
X25650Y-10447D01*
X25948Y-10448D01*
X26223Y-10334D01*
X26433Y-10124D01*
X26547Y-9849D01*
X26548Y-9551D01*
X26548Y-13547D01*
X26410Y-13547D01*
X26243Y-13615D01*
X26116Y-13743D01*
X26047Y-13909D01*
X26047Y-14089D01*
X26115Y-14256D01*
X26243Y-14383D01*
X26409Y-14452D01*
X26589Y-14452D01*
X26756Y-14384D01*
X26883Y-14256D01*
X26952Y-14090D01*
X26952Y-13910D01*
X26952Y-22910D01*
X26884Y-22743D01*
X26756Y-22616D01*
X26590Y-22547D01*
X26410Y-22547D01*
X26243Y-22615D01*
X26116Y-22743D01*
X26082Y-22824D01*
X26082Y-19434D01*
X26032Y-19311D01*
X25952Y-19232D01*
X25952Y-13910D01*
X25884Y-13743D01*
X25756Y-13616D01*
X25590Y-13547D01*
X25410Y-13547D01*
X25243Y-13615D01*
X25116Y-13743D01*
X25047Y-13909D01*
X25047Y-14089D01*
X25115Y-14256D01*
X25243Y-14383D01*
X25409Y-14452D01*
X25589Y-14452D01*
X25756Y-14384D01*
X25883Y-14256D01*
X25952Y-14090D01*
X25952Y-13910D01*
X25952Y-19232D01*
X25938Y-19218D01*
X25816Y-19167D01*
X25684Y-19167D01*
X25561Y-19217D01*
X25487Y-19292D01*
X24952Y-19292D01*
X24952Y-13910D01*
X24884Y-13743D01*
X24853Y-13712D01*
X24853Y-10660D01*
X24784Y-10493D01*
X24656Y-10366D01*
X24490Y-10297D01*
X24310Y-10296D01*
X24143Y-10365D01*
X24016Y-10493D01*
X23947Y-10659D01*
X23946Y-10839D01*
X23996Y-10959D01*
X23853Y-11103D01*
X23853Y-10660D01*
X23784Y-10493D01*
X23656Y-10366D01*
X23490Y-10297D01*
X23310Y-10296D01*
X23143Y-10365D01*
X23016Y-10493D01*
X23000Y-10531D01*
X22984Y-10493D01*
X22856Y-10366D01*
X22690Y-10297D01*
X22510Y-10296D01*
X22343Y-10365D01*
X22216Y-10493D01*
X22147Y-10659D01*
X22146Y-10839D01*
X22215Y-11006D01*
X22343Y-11133D01*
X22509Y-11202D01*
X22689Y-11203D01*
X22856Y-11134D01*
X22983Y-11006D01*
X22999Y-10968D01*
X23015Y-11006D01*
X23143Y-11133D01*
X23309Y-11202D01*
X23489Y-11203D01*
X23656Y-11134D01*
X23783Y-11006D01*
X23852Y-10840D01*
X23853Y-10660D01*
X23853Y-11103D01*
X23414Y-11542D01*
X19250Y-11542D01*
X19170Y-11558D01*
X19148Y-11573D01*
X19103Y-11603D01*
X18103Y-12603D01*
X18058Y-12670D01*
X18042Y-12750D01*
X18042Y-14087D01*
X18032Y-14061D01*
X17957Y-13987D01*
X17957Y-12585D01*
X19585Y-10957D01*
X21195Y-10957D01*
X21215Y-11006D01*
X21343Y-11133D01*
X21509Y-11202D01*
X21689Y-11203D01*
X21856Y-11134D01*
X21983Y-11006D01*
X22052Y-10840D01*
X22053Y-10660D01*
X21984Y-10493D01*
X21856Y-10366D01*
X21690Y-10297D01*
X21510Y-10296D01*
X21343Y-10365D01*
X21216Y-10493D01*
X21195Y-10542D01*
X21148Y-10542D01*
X21148Y-9551D01*
X21034Y-9276D01*
X20824Y-9066D01*
X20549Y-8952D01*
X20251Y-8951D01*
X19976Y-9065D01*
X19766Y-9275D01*
X19652Y-9550D01*
X19651Y-9848D01*
X19765Y-10123D01*
X19975Y-10333D01*
X20250Y-10447D01*
X20548Y-10448D01*
X20823Y-10334D01*
X21033Y-10124D01*
X21147Y-9849D01*
X21148Y-9551D01*
X21148Y-10542D01*
X19500Y-10542D01*
X19433Y-10555D01*
X19420Y-10558D01*
X19353Y-10603D01*
X17734Y-12221D01*
X17734Y-7055D01*
X17585Y-6693D01*
X17308Y-6415D01*
X16946Y-6265D01*
X16555Y-6265D01*
X16193Y-6414D01*
X15915Y-6691D01*
X15765Y-7053D01*
X15765Y-7444D01*
X15914Y-7806D01*
X16191Y-8084D01*
X16553Y-8234D01*
X16944Y-8234D01*
X17306Y-8085D01*
X17584Y-7808D01*
X17734Y-7446D01*
X17734Y-7055D01*
X17734Y-12221D01*
X17603Y-12353D01*
X17558Y-12420D01*
X17542Y-12500D01*
X17542Y-13987D01*
X17468Y-14061D01*
X17417Y-14183D01*
X17417Y-14315D01*
X17467Y-14438D01*
X17561Y-14531D01*
X17683Y-14582D01*
X17815Y-14582D01*
X17938Y-14532D01*
X18031Y-14438D01*
X18042Y-14412D01*
X18042Y-15250D01*
X18042Y-15987D01*
X17968Y-16061D01*
X17917Y-16183D01*
X17917Y-16315D01*
X17967Y-16438D01*
X18061Y-16531D01*
X18183Y-16582D01*
X18315Y-16582D01*
X18438Y-16532D01*
X18531Y-16438D01*
X18582Y-16316D01*
X18582Y-16184D01*
X18532Y-16061D01*
X18457Y-15987D01*
X18457Y-15250D01*
X18457Y-12835D01*
X19335Y-11957D01*
X23500Y-11957D01*
X23579Y-11941D01*
X23579Y-11941D01*
X23646Y-11896D01*
X24340Y-11202D01*
X24489Y-11203D01*
X24656Y-11134D01*
X24783Y-11006D01*
X24852Y-10840D01*
X24853Y-10660D01*
X24853Y-13712D01*
X24756Y-13616D01*
X24590Y-13547D01*
X24410Y-13547D01*
X24243Y-13615D01*
X24116Y-13743D01*
X24047Y-13909D01*
X24047Y-14089D01*
X24115Y-14256D01*
X24243Y-14383D01*
X24409Y-14452D01*
X24589Y-14452D01*
X24756Y-14384D01*
X24883Y-14256D01*
X24952Y-14090D01*
X24952Y-13910D01*
X24952Y-19292D01*
X23952Y-19292D01*
X23952Y-13910D01*
X23884Y-13743D01*
X23756Y-13616D01*
X23590Y-13547D01*
X23410Y-13547D01*
X23243Y-13615D01*
X23116Y-13743D01*
X23047Y-13909D01*
X23047Y-14089D01*
X23115Y-14256D01*
X23243Y-14383D01*
X23409Y-14452D01*
X23589Y-14452D01*
X23756Y-14384D01*
X23883Y-14256D01*
X23952Y-14090D01*
X23952Y-13910D01*
X23952Y-19292D01*
X23335Y-19292D01*
X22952Y-18909D01*
X22952Y-13910D01*
X22884Y-13743D01*
X22756Y-13616D01*
X22590Y-13547D01*
X22410Y-13547D01*
X22243Y-13615D01*
X22116Y-13743D01*
X22047Y-13909D01*
X22047Y-14089D01*
X22115Y-14256D01*
X22243Y-14383D01*
X22409Y-14452D01*
X22589Y-14452D01*
X22756Y-14384D01*
X22883Y-14256D01*
X22952Y-14090D01*
X22952Y-13910D01*
X22952Y-18909D01*
X22832Y-18789D01*
X22832Y-18684D01*
X22782Y-18561D01*
X22688Y-18468D01*
X22566Y-18417D01*
X22434Y-18417D01*
X22311Y-18467D01*
X22218Y-18561D01*
X22167Y-18683D01*
X22167Y-18815D01*
X22217Y-18938D01*
X22311Y-19031D01*
X22433Y-19082D01*
X22539Y-19082D01*
X23103Y-19646D01*
X23103Y-19646D01*
X23148Y-19676D01*
X23170Y-19691D01*
X23170Y-19691D01*
X23249Y-19707D01*
X23250Y-19707D01*
X25487Y-19707D01*
X25561Y-19781D01*
X25683Y-19832D01*
X25815Y-19832D01*
X25938Y-19782D01*
X26031Y-19688D01*
X26082Y-19566D01*
X26082Y-19434D01*
X26082Y-22824D01*
X26047Y-22909D01*
X26047Y-23089D01*
X26115Y-23256D01*
X26243Y-23383D01*
X26409Y-23452D01*
X26589Y-23452D01*
X26756Y-23384D01*
X26883Y-23256D01*
X26952Y-23090D01*
X26952Y-22910D01*
X26952Y-24292D01*
X26750Y-24292D01*
X26683Y-24305D01*
X26670Y-24308D01*
X26603Y-24353D01*
X26289Y-24667D01*
X26184Y-24667D01*
X26061Y-24717D01*
X25968Y-24811D01*
X25952Y-24848D01*
X25952Y-22910D01*
X25884Y-22743D01*
X25756Y-22616D01*
X25590Y-22547D01*
X25410Y-22547D01*
X25243Y-22615D01*
X25116Y-22743D01*
X25047Y-22909D01*
X25047Y-23089D01*
X25115Y-23256D01*
X25243Y-23383D01*
X25409Y-23452D01*
X25589Y-23452D01*
X25756Y-23384D01*
X25883Y-23256D01*
X25952Y-23090D01*
X25952Y-22910D01*
X25952Y-24848D01*
X25917Y-24933D01*
X25917Y-25065D01*
X25967Y-25188D01*
X26061Y-25281D01*
X26183Y-25332D01*
X26315Y-25332D01*
X26438Y-25282D01*
X26531Y-25188D01*
X26582Y-25066D01*
X26582Y-24960D01*
X26835Y-24707D01*
X38000Y-24707D01*
X38079Y-24691D01*
X38079Y-24691D01*
X38146Y-24646D01*
X38646Y-24146D01*
X38691Y-24079D01*
X38691Y-24079D01*
X38694Y-24066D01*
X38707Y-24000D01*
X38707Y-24000D01*
X38707Y-23404D01*
X38756Y-23384D01*
X38883Y-23256D01*
X38952Y-23090D01*
X38952Y-22910D01*
X38952Y-26572D01*
X26332Y-26572D01*
X26332Y-25934D01*
X26282Y-25811D01*
X26188Y-25718D01*
X26066Y-25667D01*
X25960Y-25667D01*
X25332Y-25039D01*
X25332Y-23934D01*
X25282Y-23811D01*
X25188Y-23718D01*
X25066Y-23667D01*
X24952Y-23667D01*
X24952Y-22910D01*
X24884Y-22743D01*
X24756Y-22616D01*
X24590Y-22547D01*
X24410Y-22547D01*
X24243Y-22615D01*
X24116Y-22743D01*
X24047Y-22909D01*
X24047Y-23089D01*
X24115Y-23256D01*
X24243Y-23383D01*
X24409Y-23452D01*
X24589Y-23452D01*
X24756Y-23384D01*
X24883Y-23256D01*
X24952Y-23090D01*
X24952Y-22910D01*
X24952Y-23667D01*
X24934Y-23667D01*
X24811Y-23717D01*
X24737Y-23792D01*
X23952Y-23792D01*
X23952Y-22910D01*
X23884Y-22743D01*
X23756Y-22616D01*
X23590Y-22547D01*
X23410Y-22547D01*
X23243Y-22615D01*
X23116Y-22743D01*
X23047Y-22909D01*
X23047Y-23089D01*
X23115Y-23256D01*
X23243Y-23383D01*
X23409Y-23452D01*
X23589Y-23452D01*
X23756Y-23384D01*
X23883Y-23256D01*
X23952Y-23090D01*
X23952Y-22910D01*
X23952Y-23792D01*
X22952Y-23792D01*
X22952Y-22910D01*
X22884Y-22743D01*
X22756Y-22616D01*
X22590Y-22547D01*
X22410Y-22547D01*
X22243Y-22615D01*
X22116Y-22743D01*
X22047Y-22909D01*
X22047Y-23089D01*
X22115Y-23256D01*
X22243Y-23383D01*
X22409Y-23452D01*
X22589Y-23452D01*
X22756Y-23384D01*
X22883Y-23256D01*
X22952Y-23090D01*
X22952Y-22910D01*
X22952Y-23792D01*
X21952Y-23792D01*
X21952Y-22910D01*
X21952Y-13910D01*
X21884Y-13743D01*
X21756Y-13616D01*
X21590Y-13547D01*
X21410Y-13547D01*
X21243Y-13615D01*
X21116Y-13743D01*
X21047Y-13909D01*
X21047Y-14089D01*
X21115Y-14256D01*
X21243Y-14383D01*
X21409Y-14452D01*
X21589Y-14452D01*
X21756Y-14384D01*
X21883Y-14256D01*
X21952Y-14090D01*
X21952Y-13910D01*
X21952Y-22910D01*
X21884Y-22743D01*
X21756Y-22616D01*
X21590Y-22547D01*
X21410Y-22547D01*
X21243Y-22615D01*
X21116Y-22743D01*
X21047Y-22909D01*
X21047Y-23089D01*
X21115Y-23256D01*
X21243Y-23383D01*
X21409Y-23452D01*
X21589Y-23452D01*
X21756Y-23384D01*
X21883Y-23256D01*
X21952Y-23090D01*
X21952Y-22910D01*
X21952Y-23792D01*
X20952Y-23792D01*
X20952Y-13910D01*
X20884Y-13743D01*
X20756Y-13616D01*
X20590Y-13547D01*
X20410Y-13547D01*
X20243Y-13615D01*
X20116Y-13743D01*
X20047Y-13909D01*
X20047Y-14089D01*
X20115Y-14256D01*
X20243Y-14383D01*
X20409Y-14452D01*
X20589Y-14452D01*
X20756Y-14384D01*
X20883Y-14256D01*
X20952Y-14090D01*
X20952Y-13910D01*
X20952Y-23792D01*
X20335Y-23792D01*
X19841Y-23298D01*
X19883Y-23256D01*
X19952Y-23090D01*
X19952Y-22910D01*
X19952Y-13910D01*
X19884Y-13743D01*
X19756Y-13616D01*
X19590Y-13547D01*
X19410Y-13547D01*
X19243Y-13615D01*
X19116Y-13743D01*
X19047Y-13909D01*
X19047Y-14089D01*
X19115Y-14256D01*
X19243Y-14383D01*
X19409Y-14452D01*
X19589Y-14452D01*
X19756Y-14384D01*
X19883Y-14256D01*
X19952Y-14090D01*
X19952Y-13910D01*
X19952Y-22910D01*
X19884Y-22743D01*
X19756Y-22616D01*
X19590Y-22547D01*
X19410Y-22547D01*
X19243Y-22615D01*
X19116Y-22743D01*
X19047Y-22909D01*
X19047Y-23089D01*
X19115Y-23256D01*
X19243Y-23383D01*
X19409Y-23452D01*
X20103Y-24146D01*
X20103Y-24146D01*
X20148Y-24176D01*
X20170Y-24191D01*
X20170Y-24191D01*
X20249Y-24207D01*
X20250Y-24207D01*
X24737Y-24207D01*
X24811Y-24281D01*
X24933Y-24332D01*
X25065Y-24332D01*
X25188Y-24282D01*
X25281Y-24188D01*
X25332Y-24066D01*
X25332Y-23934D01*
X25332Y-25039D01*
X25146Y-24853D01*
X25079Y-24808D01*
X25000Y-24792D01*
X21835Y-24792D01*
X21832Y-24789D01*
X21832Y-24684D01*
X21782Y-24561D01*
X21688Y-24468D01*
X21566Y-24417D01*
X21434Y-24417D01*
X21311Y-24467D01*
X21218Y-24561D01*
X21167Y-24683D01*
X21167Y-24815D01*
X21217Y-24938D01*
X21311Y-25031D01*
X21433Y-25082D01*
X21539Y-25082D01*
X21603Y-25146D01*
X21603Y-25146D01*
X21648Y-25176D01*
X21670Y-25191D01*
X21670Y-25191D01*
X21750Y-25207D01*
X24914Y-25207D01*
X25667Y-25960D01*
X25667Y-26065D01*
X25717Y-26188D01*
X25811Y-26281D01*
X25933Y-26332D01*
X26065Y-26332D01*
X26188Y-26282D01*
X26281Y-26188D01*
X26332Y-26066D01*
X26332Y-25934D01*
X26332Y-26572D01*
X17734Y-26572D01*
X17734Y-25305D01*
X17585Y-24943D01*
X17308Y-24665D01*
X16946Y-24515D01*
X16555Y-24515D01*
X16193Y-24664D01*
X15915Y-24941D01*
X15765Y-25303D01*
X15765Y-25694D01*
X15914Y-26056D01*
X16191Y-26334D01*
X16553Y-26484D01*
X16944Y-26484D01*
X17306Y-26335D01*
X17584Y-26058D01*
X17734Y-25696D01*
X17734Y-25305D01*
X17734Y-26572D01*
X15677Y-26572D01*
X15677Y-6177D01*
X42822Y-6177D01*
X42822Y-26572D01*
X42822Y-26572D01*
G37*
G54D21*
X42822Y-26572D02*
X42734Y-26572D01*
X42734Y-25305D01*
X42734Y-7055D01*
X42585Y-6693D01*
X42308Y-6415D01*
X41946Y-6265D01*
X41555Y-6265D01*
X41193Y-6414D01*
X40915Y-6691D01*
X40765Y-7053D01*
X40765Y-7444D01*
X40914Y-7806D01*
X41191Y-8084D01*
X41553Y-8234D01*
X41944Y-8234D01*
X42306Y-8085D01*
X42584Y-7808D01*
X42734Y-7446D01*
X42734Y-7055D01*
X42734Y-25305D01*
X42585Y-24943D01*
X42308Y-24665D01*
X41957Y-24520D01*
X41957Y-18909D01*
X41957Y-17909D01*
X41888Y-17741D01*
X41759Y-17612D01*
X41591Y-17542D01*
X41409Y-17542D01*
X41241Y-17611D01*
X41112Y-17740D01*
X41042Y-17908D01*
X41042Y-18090D01*
X41111Y-18258D01*
X41240Y-18387D01*
X41408Y-18457D01*
X41590Y-18457D01*
X41758Y-18388D01*
X41887Y-18259D01*
X41957Y-18091D01*
X41957Y-17909D01*
X41957Y-18909D01*
X41888Y-18741D01*
X41759Y-18612D01*
X41591Y-18542D01*
X41409Y-18542D01*
X41241Y-18611D01*
X41112Y-18740D01*
X41042Y-18908D01*
X41042Y-19090D01*
X41111Y-19258D01*
X41240Y-19387D01*
X41408Y-19457D01*
X41590Y-19457D01*
X41758Y-19388D01*
X41887Y-19259D01*
X41957Y-19091D01*
X41957Y-18909D01*
X41957Y-24520D01*
X41946Y-24515D01*
X41555Y-24515D01*
X41193Y-24664D01*
X40957Y-24900D01*
X40957Y-19909D01*
X40957Y-18909D01*
X40957Y-18909D01*
X40957Y-18268D01*
X40957Y-17668D01*
X40933Y-17610D01*
X40889Y-17566D01*
X40831Y-17542D01*
X40768Y-17542D01*
X40168Y-17542D01*
X40110Y-17566D01*
X40066Y-17610D01*
X40042Y-17668D01*
X40042Y-17731D01*
X40042Y-17792D01*
X39703Y-17792D01*
X39703Y-8152D01*
X39634Y-7985D01*
X39506Y-7858D01*
X39340Y-7789D01*
X39160Y-7788D01*
X38993Y-7857D01*
X38866Y-7985D01*
X38797Y-8151D01*
X38796Y-8331D01*
X38865Y-8498D01*
X38993Y-8625D01*
X39159Y-8694D01*
X39339Y-8695D01*
X39506Y-8626D01*
X39633Y-8498D01*
X39702Y-8332D01*
X39703Y-8152D01*
X39703Y-17792D01*
X38952Y-17792D01*
X38952Y-13910D01*
X38884Y-13743D01*
X38756Y-13616D01*
X38590Y-13547D01*
X38410Y-13547D01*
X38243Y-13615D01*
X38116Y-13743D01*
X38047Y-13909D01*
X38047Y-14089D01*
X38115Y-14256D01*
X38243Y-14383D01*
X38409Y-14452D01*
X38589Y-14452D01*
X38756Y-14384D01*
X38883Y-14256D01*
X38952Y-14090D01*
X38952Y-13910D01*
X38952Y-17792D01*
X37952Y-17792D01*
X37952Y-13910D01*
X37884Y-13743D01*
X37756Y-13616D01*
X37590Y-13547D01*
X37410Y-13547D01*
X37243Y-13615D01*
X37116Y-13743D01*
X37047Y-13909D01*
X37047Y-14089D01*
X37115Y-14256D01*
X37243Y-14383D01*
X37409Y-14452D01*
X37589Y-14452D01*
X37756Y-14384D01*
X37883Y-14256D01*
X37952Y-14090D01*
X37952Y-13910D01*
X37952Y-17792D01*
X36953Y-17792D01*
X36953Y-8152D01*
X36884Y-7985D01*
X36756Y-7858D01*
X36590Y-7789D01*
X36410Y-7788D01*
X36243Y-7857D01*
X36116Y-7985D01*
X36047Y-8151D01*
X36046Y-8331D01*
X36115Y-8498D01*
X36243Y-8625D01*
X36409Y-8694D01*
X36589Y-8695D01*
X36756Y-8626D01*
X36883Y-8498D01*
X36952Y-8332D01*
X36953Y-8152D01*
X36953Y-17792D01*
X36952Y-17792D01*
X36952Y-13910D01*
X36884Y-13743D01*
X36756Y-13616D01*
X36590Y-13547D01*
X36410Y-13547D01*
X36243Y-13615D01*
X36116Y-13743D01*
X36047Y-13909D01*
X36047Y-14089D01*
X36115Y-14256D01*
X36243Y-14383D01*
X36409Y-14452D01*
X36589Y-14452D01*
X36756Y-14384D01*
X36883Y-14256D01*
X36952Y-14090D01*
X36952Y-13910D01*
X36952Y-17792D01*
X36250Y-17792D01*
X36183Y-17805D01*
X36170Y-17808D01*
X36103Y-17853D01*
X35952Y-18003D01*
X35952Y-13910D01*
X35884Y-13743D01*
X35756Y-13616D01*
X35590Y-13547D01*
X35410Y-13547D01*
X35243Y-13615D01*
X35116Y-13743D01*
X35047Y-13909D01*
X35047Y-14089D01*
X35115Y-14256D01*
X35243Y-14383D01*
X35409Y-14452D01*
X35589Y-14452D01*
X35756Y-14384D01*
X35883Y-14256D01*
X35952Y-14090D01*
X35952Y-13910D01*
X35952Y-18003D01*
X34952Y-19003D01*
X34952Y-13910D01*
X34884Y-13743D01*
X34756Y-13616D01*
X34590Y-13547D01*
X34410Y-13547D01*
X34243Y-13615D01*
X34203Y-13656D01*
X34203Y-8152D01*
X34134Y-7985D01*
X34006Y-7858D01*
X33840Y-7789D01*
X33660Y-7788D01*
X33493Y-7857D01*
X33366Y-7985D01*
X33297Y-8151D01*
X33296Y-8331D01*
X33365Y-8498D01*
X33493Y-8625D01*
X33659Y-8694D01*
X33839Y-8695D01*
X34006Y-8626D01*
X34133Y-8498D01*
X34202Y-8332D01*
X34203Y-8152D01*
X34203Y-13656D01*
X34116Y-13743D01*
X34047Y-13909D01*
X34047Y-14089D01*
X34115Y-14256D01*
X34243Y-14383D01*
X34409Y-14452D01*
X34589Y-14452D01*
X34756Y-14384D01*
X34883Y-14256D01*
X34952Y-14090D01*
X34952Y-13910D01*
X34952Y-19003D01*
X34353Y-19603D01*
X34308Y-19670D01*
X34292Y-19750D01*
X34292Y-22595D01*
X34243Y-22615D01*
X34116Y-22743D01*
X34047Y-22909D01*
X34047Y-23089D01*
X34115Y-23256D01*
X34243Y-23383D01*
X34409Y-23452D01*
X34589Y-23452D01*
X34756Y-23384D01*
X34883Y-23256D01*
X34952Y-23090D01*
X34952Y-22910D01*
X34884Y-22743D01*
X34756Y-22616D01*
X34707Y-22595D01*
X34707Y-19835D01*
X36335Y-18207D01*
X40042Y-18207D01*
X40042Y-18331D01*
X40066Y-18389D01*
X40110Y-18433D01*
X40168Y-18457D01*
X40231Y-18457D01*
X40831Y-18457D01*
X40889Y-18433D01*
X40933Y-18389D01*
X40957Y-18331D01*
X40957Y-18268D01*
X40957Y-18909D01*
X40888Y-18741D01*
X40759Y-18612D01*
X40591Y-18542D01*
X40409Y-18542D01*
X40241Y-18611D01*
X40112Y-18740D01*
X40042Y-18908D01*
X40042Y-19090D01*
X40111Y-19258D01*
X40240Y-19387D01*
X40408Y-19457D01*
X40590Y-19457D01*
X40758Y-19388D01*
X40887Y-19259D01*
X40957Y-19091D01*
X40957Y-18909D01*
X40957Y-19909D01*
X40888Y-19741D01*
X40759Y-19612D01*
X40591Y-19542D01*
X40409Y-19542D01*
X40241Y-19611D01*
X40112Y-19740D01*
X40042Y-19908D01*
X40042Y-20090D01*
X40111Y-20258D01*
X40240Y-20387D01*
X40408Y-20457D01*
X40590Y-20457D01*
X40758Y-20388D01*
X40887Y-20259D01*
X40957Y-20091D01*
X40957Y-19909D01*
X40957Y-24900D01*
X40915Y-24941D01*
X40765Y-25303D01*
X40765Y-25694D01*
X40914Y-26056D01*
X41191Y-26334D01*
X41553Y-26484D01*
X41944Y-26484D01*
X42306Y-26335D01*
X42584Y-26058D01*
X42734Y-25696D01*
X42734Y-25305D01*
X42734Y-26572D01*
X38952Y-26572D01*
X38952Y-22910D01*
X38884Y-22743D01*
X38756Y-22616D01*
X38590Y-22547D01*
X38410Y-22547D01*
X38243Y-22615D01*
X38116Y-22743D01*
X38047Y-22909D01*
X38047Y-23089D01*
X38115Y-23256D01*
X38243Y-23383D01*
X38292Y-23404D01*
X38292Y-23914D01*
X37952Y-24253D01*
X37952Y-22910D01*
X37884Y-22743D01*
X37756Y-22616D01*
X37590Y-22547D01*
X37410Y-22547D01*
X37243Y-22615D01*
X37116Y-22743D01*
X37047Y-22909D01*
X37047Y-23089D01*
X37115Y-23256D01*
X37243Y-23383D01*
X37409Y-23452D01*
X37589Y-23452D01*
X37756Y-23384D01*
X37883Y-23256D01*
X37952Y-23090D01*
X37952Y-22910D01*
X37952Y-24253D01*
X37914Y-24292D01*
X36952Y-24292D01*
X36952Y-22910D01*
X36884Y-22743D01*
X36756Y-22616D01*
X36590Y-22547D01*
X36410Y-22547D01*
X36243Y-22615D01*
X36116Y-22743D01*
X36047Y-22909D01*
X36047Y-23089D01*
X36115Y-23256D01*
X36243Y-23383D01*
X36409Y-23452D01*
X36589Y-23452D01*
X36756Y-23384D01*
X36883Y-23256D01*
X36952Y-23090D01*
X36952Y-22910D01*
X36952Y-24292D01*
X35952Y-24292D01*
X35952Y-22910D01*
X35884Y-22743D01*
X35756Y-22616D01*
X35590Y-22547D01*
X35410Y-22547D01*
X35243Y-22615D01*
X35116Y-22743D01*
X35047Y-22909D01*
X35047Y-23089D01*
X35115Y-23256D01*
X35243Y-23383D01*
X35409Y-23452D01*
X35589Y-23452D01*
X35756Y-23384D01*
X35883Y-23256D01*
X35952Y-23090D01*
X35952Y-22910D01*
X35952Y-24292D01*
X33952Y-24292D01*
X33952Y-22910D01*
X33952Y-13910D01*
X33884Y-13743D01*
X33756Y-13616D01*
X33590Y-13547D01*
X33410Y-13547D01*
X33243Y-13615D01*
X33116Y-13743D01*
X33047Y-13909D01*
X33047Y-14089D01*
X33115Y-14256D01*
X33243Y-14383D01*
X33409Y-14452D01*
X33589Y-14452D01*
X33756Y-14384D01*
X33883Y-14256D01*
X33952Y-14090D01*
X33952Y-13910D01*
X33952Y-22910D01*
X33884Y-22743D01*
X33756Y-22616D01*
X33590Y-22547D01*
X33410Y-22547D01*
X33243Y-22615D01*
X33116Y-22743D01*
X33047Y-22909D01*
X33047Y-23089D01*
X33115Y-23256D01*
X33243Y-23383D01*
X33409Y-23452D01*
X33589Y-23452D01*
X33756Y-23384D01*
X33883Y-23256D01*
X33952Y-23090D01*
X33952Y-22910D01*
X33952Y-24292D01*
X32952Y-24292D01*
X32952Y-22910D01*
X32952Y-13910D01*
X32884Y-13743D01*
X32756Y-13616D01*
X32590Y-13547D01*
X32410Y-13547D01*
X32243Y-13615D01*
X32116Y-13743D01*
X32047Y-13909D01*
X32047Y-14089D01*
X32115Y-14256D01*
X32243Y-14383D01*
X32409Y-14452D01*
X32589Y-14452D01*
X32756Y-14384D01*
X32883Y-14256D01*
X32952Y-14090D01*
X32952Y-13910D01*
X32952Y-22910D01*
X32884Y-22743D01*
X32756Y-22616D01*
X32590Y-22547D01*
X32410Y-22547D01*
X32243Y-22615D01*
X32116Y-22743D01*
X32047Y-22909D01*
X32047Y-23089D01*
X32115Y-23256D01*
X32243Y-23383D01*
X32409Y-23452D01*
X32589Y-23452D01*
X32756Y-23384D01*
X32883Y-23256D01*
X32952Y-23090D01*
X32952Y-22910D01*
X32952Y-24292D01*
X31952Y-24292D01*
X31952Y-22910D01*
X31952Y-13910D01*
X31884Y-13743D01*
X31756Y-13616D01*
X31602Y-13552D01*
X31602Y-12063D01*
X31602Y-10173D01*
X31578Y-10115D01*
X31534Y-10071D01*
X31476Y-10047D01*
X31413Y-10047D01*
X29523Y-10047D01*
X29465Y-10071D01*
X29421Y-10115D01*
X29397Y-10173D01*
X29397Y-10236D01*
X29397Y-12126D01*
X29421Y-12184D01*
X29465Y-12228D01*
X29523Y-12252D01*
X29586Y-12252D01*
X31476Y-12252D01*
X31534Y-12228D01*
X31578Y-12184D01*
X31602Y-12126D01*
X31602Y-12063D01*
X31602Y-13552D01*
X31590Y-13547D01*
X31410Y-13547D01*
X31243Y-13615D01*
X31116Y-13743D01*
X31047Y-13909D01*
X31047Y-14089D01*
X31115Y-14256D01*
X31243Y-14383D01*
X31409Y-14452D01*
X31589Y-14452D01*
X31756Y-14384D01*
X31883Y-14256D01*
X31952Y-14090D01*
X31952Y-13910D01*
X31952Y-22910D01*
X31884Y-22743D01*
X31756Y-22616D01*
X31590Y-22547D01*
X31410Y-22547D01*
X31243Y-22615D01*
X31116Y-22743D01*
X31047Y-22909D01*
X31047Y-23089D01*
X31115Y-23256D01*
X31243Y-23383D01*
X31409Y-23452D01*
X31589Y-23452D01*
X31756Y-23384D01*
X31883Y-23256D01*
X31952Y-23090D01*
X31952Y-22910D01*
X31952Y-24292D01*
X30952Y-24292D01*
X30952Y-22910D01*
X30952Y-13910D01*
X30884Y-13743D01*
X30756Y-13616D01*
X30590Y-13547D01*
X30410Y-13547D01*
X30243Y-13615D01*
X30116Y-13743D01*
X30047Y-13909D01*
X30047Y-14089D01*
X30115Y-14256D01*
X30243Y-14383D01*
X30409Y-14452D01*
X30589Y-14452D01*
X30756Y-14384D01*
X30883Y-14256D01*
X30952Y-14090D01*
X30952Y-13910D01*
X30952Y-22910D01*
X30884Y-22743D01*
X30756Y-22616D01*
X30590Y-22547D01*
X30410Y-22547D01*
X30243Y-22615D01*
X30116Y-22743D01*
X30047Y-22909D01*
X30047Y-23089D01*
X30115Y-23256D01*
X30243Y-23383D01*
X30409Y-23452D01*
X30589Y-23452D01*
X30756Y-23384D01*
X30883Y-23256D01*
X30952Y-23090D01*
X30952Y-22910D01*
X30952Y-24292D01*
X29952Y-24292D01*
X29952Y-22910D01*
X29952Y-13910D01*
X29884Y-13743D01*
X29756Y-13616D01*
X29590Y-13547D01*
X29410Y-13547D01*
X29243Y-13615D01*
X29116Y-13743D01*
X29047Y-13909D01*
X29047Y-14089D01*
X29115Y-14256D01*
X29243Y-14383D01*
X29409Y-14452D01*
X29589Y-14452D01*
X29756Y-14384D01*
X29883Y-14256D01*
X29952Y-14090D01*
X29952Y-13910D01*
X29952Y-22910D01*
X29884Y-22743D01*
X29756Y-22616D01*
X29590Y-22547D01*
X29410Y-22547D01*
X29243Y-22615D01*
X29116Y-22743D01*
X29047Y-22909D01*
X29047Y-23089D01*
X29115Y-23256D01*
X29243Y-23383D01*
X29409Y-23452D01*
X29589Y-23452D01*
X29756Y-23384D01*
X29883Y-23256D01*
X29952Y-23090D01*
X29952Y-22910D01*
X29952Y-24292D01*
X28952Y-24292D01*
X28952Y-22910D01*
X28952Y-13910D01*
X28884Y-13743D01*
X28756Y-13616D01*
X28590Y-13547D01*
X28410Y-13547D01*
X28243Y-13615D01*
X28116Y-13743D01*
X28047Y-13909D01*
X28047Y-14089D01*
X28115Y-14256D01*
X28243Y-14383D01*
X28409Y-14452D01*
X28589Y-14452D01*
X28756Y-14384D01*
X28883Y-14256D01*
X28952Y-14090D01*
X28952Y-13910D01*
X28952Y-22910D01*
X28884Y-22743D01*
X28756Y-22616D01*
X28590Y-22547D01*
X28410Y-22547D01*
X28243Y-22615D01*
X28116Y-22743D01*
X28047Y-22909D01*
X28047Y-23089D01*
X28115Y-23256D01*
X28243Y-23383D01*
X28409Y-23452D01*
X28589Y-23452D01*
X28756Y-23384D01*
X28883Y-23256D01*
X28952Y-23090D01*
X28952Y-22910D01*
X28952Y-24292D01*
X27952Y-24292D01*
X27952Y-22910D01*
X27952Y-13910D01*
X27884Y-13743D01*
X27756Y-13616D01*
X27590Y-13547D01*
X27410Y-13547D01*
X27243Y-13615D01*
X27116Y-13743D01*
X27047Y-13909D01*
X27047Y-14089D01*
X27115Y-14256D01*
X27243Y-14383D01*
X27409Y-14452D01*
X27589Y-14452D01*
X27756Y-14384D01*
X27883Y-14256D01*
X27952Y-14090D01*
X27952Y-13910D01*
X27952Y-22910D01*
X27884Y-22743D01*
X27756Y-22616D01*
X27590Y-22547D01*
X27410Y-22547D01*
X27243Y-22615D01*
X27116Y-22743D01*
X27047Y-22909D01*
X27047Y-23089D01*
X27115Y-23256D01*
X27243Y-23383D01*
X27409Y-23452D01*
X27589Y-23452D01*
X27756Y-23384D01*
X27883Y-23256D01*
X27952Y-23090D01*
X27952Y-22910D01*
X27952Y-24292D01*
X26952Y-24292D01*
X26952Y-22910D01*
X26952Y-13910D01*
X26884Y-13743D01*
X26756Y-13616D01*
X26590Y-13547D01*
X26548Y-13547D01*
X26548Y-9551D01*
X26434Y-9276D01*
X26224Y-9066D01*
X25949Y-8952D01*
X25651Y-8951D01*
X25376Y-9065D01*
X25166Y-9275D01*
X25052Y-9550D01*
X25051Y-9848D01*
X25165Y-10123D01*
X25375Y-10333D01*
X25650Y-10447D01*
X25948Y-10448D01*
X26223Y-10334D01*
X26433Y-10124D01*
X26547Y-9849D01*
X26548Y-9551D01*
X26548Y-13547D01*
X26410Y-13547D01*
X26243Y-13615D01*
X26116Y-13743D01*
X26047Y-13909D01*
X26047Y-14089D01*
X26115Y-14256D01*
X26243Y-14383D01*
X26409Y-14452D01*
X26589Y-14452D01*
X26756Y-14384D01*
X26883Y-14256D01*
X26952Y-14090D01*
X26952Y-13910D01*
X26952Y-22910D01*
X26884Y-22743D01*
X26756Y-22616D01*
X26590Y-22547D01*
X26410Y-22547D01*
X26243Y-22615D01*
X26116Y-22743D01*
X26082Y-22824D01*
X26082Y-19434D01*
X26032Y-19311D01*
X25952Y-19232D01*
X25952Y-13910D01*
X25884Y-13743D01*
X25756Y-13616D01*
X25590Y-13547D01*
X25410Y-13547D01*
X25243Y-13615D01*
X25116Y-13743D01*
X25047Y-13909D01*
X25047Y-14089D01*
X25115Y-14256D01*
X25243Y-14383D01*
X25409Y-14452D01*
X25589Y-14452D01*
X25756Y-14384D01*
X25883Y-14256D01*
X25952Y-14090D01*
X25952Y-13910D01*
X25952Y-19232D01*
X25938Y-19218D01*
X25816Y-19167D01*
X25684Y-19167D01*
X25561Y-19217D01*
X25487Y-19292D01*
X24952Y-19292D01*
X24952Y-13910D01*
X24884Y-13743D01*
X24853Y-13712D01*
X24853Y-10660D01*
X24784Y-10493D01*
X24656Y-10366D01*
X24490Y-10297D01*
X24310Y-10296D01*
X24143Y-10365D01*
X24016Y-10493D01*
X23947Y-10659D01*
X23946Y-10839D01*
X23996Y-10959D01*
X23853Y-11103D01*
X23853Y-10660D01*
X23784Y-10493D01*
X23656Y-10366D01*
X23490Y-10297D01*
X23310Y-10296D01*
X23143Y-10365D01*
X23016Y-10493D01*
X23000Y-10531D01*
X22984Y-10493D01*
X22856Y-10366D01*
X22690Y-10297D01*
X22510Y-10296D01*
X22343Y-10365D01*
X22216Y-10493D01*
X22147Y-10659D01*
X22146Y-10839D01*
X22215Y-11006D01*
X22343Y-11133D01*
X22509Y-11202D01*
X22689Y-11203D01*
X22856Y-11134D01*
X22983Y-11006D01*
X22999Y-10968D01*
X23015Y-11006D01*
X23143Y-11133D01*
X23309Y-11202D01*
X23489Y-11203D01*
X23656Y-11134D01*
X23783Y-11006D01*
X23852Y-10840D01*
X23853Y-10660D01*
X23853Y-11103D01*
X23414Y-11542D01*
X19250Y-11542D01*
X19170Y-11558D01*
X19148Y-11573D01*
X19103Y-11603D01*
X18103Y-12603D01*
X18058Y-12670D01*
X18042Y-12750D01*
X18042Y-14087D01*
X18032Y-14061D01*
X17957Y-13987D01*
X17957Y-12585D01*
X19585Y-10957D01*
X21195Y-10957D01*
X21215Y-11006D01*
X21343Y-11133D01*
X21509Y-11202D01*
X21689Y-11203D01*
X21856Y-11134D01*
X21983Y-11006D01*
X22052Y-10840D01*
X22053Y-10660D01*
X21984Y-10493D01*
X21856Y-10366D01*
X21690Y-10297D01*
X21510Y-10296D01*
X21343Y-10365D01*
X21216Y-10493D01*
X21195Y-10542D01*
X21148Y-10542D01*
X21148Y-9551D01*
X21034Y-9276D01*
X20824Y-9066D01*
X20549Y-8952D01*
X20251Y-8951D01*
X19976Y-9065D01*
X19766Y-9275D01*
X19652Y-9550D01*
X19651Y-9848D01*
X19765Y-10123D01*
X19975Y-10333D01*
X20250Y-10447D01*
X20548Y-10448D01*
X20823Y-10334D01*
X21033Y-10124D01*
X21147Y-9849D01*
X21148Y-9551D01*
X21148Y-10542D01*
X19500Y-10542D01*
X19433Y-10555D01*
X19420Y-10558D01*
X19353Y-10603D01*
X17734Y-12221D01*
X17734Y-7055D01*
X17585Y-6693D01*
X17308Y-6415D01*
X16946Y-6265D01*
X16555Y-6265D01*
X16193Y-6414D01*
X15915Y-6691D01*
X15765Y-7053D01*
X15765Y-7444D01*
X15914Y-7806D01*
X16191Y-8084D01*
X16553Y-8234D01*
X16944Y-8234D01*
X17306Y-8085D01*
X17584Y-7808D01*
X17734Y-7446D01*
X17734Y-7055D01*
X17734Y-12221D01*
X17603Y-12353D01*
X17558Y-12420D01*
X17542Y-12500D01*
X17542Y-13987D01*
X17468Y-14061D01*
X17417Y-14183D01*
X17417Y-14315D01*
X17467Y-14438D01*
X17561Y-14531D01*
X17683Y-14582D01*
X17815Y-14582D01*
X17938Y-14532D01*
X18031Y-14438D01*
X18042Y-14412D01*
X18042Y-15250D01*
X18042Y-15987D01*
X17968Y-16061D01*
X17917Y-16183D01*
X17917Y-16315D01*
X17967Y-16438D01*
X18061Y-16531D01*
X18183Y-16582D01*
X18315Y-16582D01*
X18438Y-16532D01*
X18531Y-16438D01*
X18582Y-16316D01*
X18582Y-16184D01*
X18532Y-16061D01*
X18457Y-15987D01*
X18457Y-15250D01*
X18457Y-12835D01*
X19335Y-11957D01*
X23500Y-11957D01*
X23579Y-11941D01*
X23579Y-11941D01*
X23646Y-11896D01*
X24340Y-11202D01*
X24489Y-11203D01*
X24656Y-11134D01*
X24783Y-11006D01*
X24852Y-10840D01*
X24853Y-10660D01*
X24853Y-13712D01*
X24756Y-13616D01*
X24590Y-13547D01*
X24410Y-13547D01*
X24243Y-13615D01*
X24116Y-13743D01*
X24047Y-13909D01*
X24047Y-14089D01*
X24115Y-14256D01*
X24243Y-14383D01*
X24409Y-14452D01*
X24589Y-14452D01*
X24756Y-14384D01*
X24883Y-14256D01*
X24952Y-14090D01*
X24952Y-13910D01*
X24952Y-19292D01*
X23952Y-19292D01*
X23952Y-13910D01*
X23884Y-13743D01*
X23756Y-13616D01*
X23590Y-13547D01*
X23410Y-13547D01*
X23243Y-13615D01*
X23116Y-13743D01*
X23047Y-13909D01*
X23047Y-14089D01*
X23115Y-14256D01*
X23243Y-14383D01*
X23409Y-14452D01*
X23589Y-14452D01*
X23756Y-14384D01*
X23883Y-14256D01*
X23952Y-14090D01*
X23952Y-13910D01*
X23952Y-19292D01*
X23335Y-19292D01*
X22952Y-18909D01*
X22952Y-13910D01*
X22884Y-13743D01*
X22756Y-13616D01*
X22590Y-13547D01*
X22410Y-13547D01*
X22243Y-13615D01*
X22116Y-13743D01*
X22047Y-13909D01*
X22047Y-14089D01*
X22115Y-14256D01*
X22243Y-14383D01*
X22409Y-14452D01*
X22589Y-14452D01*
X22756Y-14384D01*
X22883Y-14256D01*
X22952Y-14090D01*
X22952Y-13910D01*
X22952Y-18909D01*
X22832Y-18789D01*
X22832Y-18684D01*
X22782Y-18561D01*
X22688Y-18468D01*
X22566Y-18417D01*
X22434Y-18417D01*
X22311Y-18467D01*
X22218Y-18561D01*
X22167Y-18683D01*
X22167Y-18815D01*
X22217Y-18938D01*
X22311Y-19031D01*
X22433Y-19082D01*
X22539Y-19082D01*
X23103Y-19646D01*
X23103Y-19646D01*
X23148Y-19676D01*
X23170Y-19691D01*
X23170Y-19691D01*
X23249Y-19707D01*
X23250Y-19707D01*
X25487Y-19707D01*
X25561Y-19781D01*
X25683Y-19832D01*
X25815Y-19832D01*
X25938Y-19782D01*
X26031Y-19688D01*
X26082Y-19566D01*
X26082Y-19434D01*
X26082Y-22824D01*
X26047Y-22909D01*
X26047Y-23089D01*
X26115Y-23256D01*
X26243Y-23383D01*
X26409Y-23452D01*
X26589Y-23452D01*
X26756Y-23384D01*
X26883Y-23256D01*
X26952Y-23090D01*
X26952Y-22910D01*
X26952Y-24292D01*
X26750Y-24292D01*
X26683Y-24305D01*
X26670Y-24308D01*
X26603Y-24353D01*
X26289Y-24667D01*
X26184Y-24667D01*
X26061Y-24717D01*
X25968Y-24811D01*
X25952Y-24848D01*
X25952Y-22910D01*
X25884Y-22743D01*
X25756Y-22616D01*
X25590Y-22547D01*
X25410Y-22547D01*
X25243Y-22615D01*
X25116Y-22743D01*
X25047Y-22909D01*
X25047Y-23089D01*
X25115Y-23256D01*
X25243Y-23383D01*
X25409Y-23452D01*
X25589Y-23452D01*
X25756Y-23384D01*
X25883Y-23256D01*
X25952Y-23090D01*
X25952Y-22910D01*
X25952Y-24848D01*
X25917Y-24933D01*
X25917Y-25065D01*
X25967Y-25188D01*
X26061Y-25281D01*
X26183Y-25332D01*
X26315Y-25332D01*
X26438Y-25282D01*
X26531Y-25188D01*
X26582Y-25066D01*
X26582Y-24960D01*
X26835Y-24707D01*
X38000Y-24707D01*
X38079Y-24691D01*
X38079Y-24691D01*
X38146Y-24646D01*
X38646Y-24146D01*
X38691Y-24079D01*
X38691Y-24079D01*
X38694Y-24066D01*
X38707Y-24000D01*
X38707Y-24000D01*
X38707Y-23404D01*
X38756Y-23384D01*
X38883Y-23256D01*
X38952Y-23090D01*
X38952Y-22910D01*
X38952Y-26572D01*
X26332Y-26572D01*
X26332Y-25934D01*
X26282Y-25811D01*
X26188Y-25718D01*
X26066Y-25667D01*
X25960Y-25667D01*
X25332Y-25039D01*
X25332Y-23934D01*
X25282Y-23811D01*
X25188Y-23718D01*
X25066Y-23667D01*
X24952Y-23667D01*
X24952Y-22910D01*
X24884Y-22743D01*
X24756Y-22616D01*
X24590Y-22547D01*
X24410Y-22547D01*
X24243Y-22615D01*
X24116Y-22743D01*
X24047Y-22909D01*
X24047Y-23089D01*
X24115Y-23256D01*
X24243Y-23383D01*
X24409Y-23452D01*
X24589Y-23452D01*
X24756Y-23384D01*
X24883Y-23256D01*
X24952Y-23090D01*
X24952Y-22910D01*
X24952Y-23667D01*
X24934Y-23667D01*
X24811Y-23717D01*
X24737Y-23792D01*
X23952Y-23792D01*
X23952Y-22910D01*
X23884Y-22743D01*
X23756Y-22616D01*
X23590Y-22547D01*
X23410Y-22547D01*
X23243Y-22615D01*
X23116Y-22743D01*
X23047Y-22909D01*
X23047Y-23089D01*
X23115Y-23256D01*
X23243Y-23383D01*
X23409Y-23452D01*
X23589Y-23452D01*
X23756Y-23384D01*
X23883Y-23256D01*
X23952Y-23090D01*
X23952Y-22910D01*
X23952Y-23792D01*
X22952Y-23792D01*
X22952Y-22910D01*
X22884Y-22743D01*
X22756Y-22616D01*
X22590Y-22547D01*
X22410Y-22547D01*
X22243Y-22615D01*
X22116Y-22743D01*
X22047Y-22909D01*
X22047Y-23089D01*
X22115Y-23256D01*
X22243Y-23383D01*
X22409Y-23452D01*
X22589Y-23452D01*
X22756Y-23384D01*
X22883Y-23256D01*
X22952Y-23090D01*
X22952Y-22910D01*
X22952Y-23792D01*
X21952Y-23792D01*
X21952Y-22910D01*
X21952Y-13910D01*
X21884Y-13743D01*
X21756Y-13616D01*
X21590Y-13547D01*
X21410Y-13547D01*
X21243Y-13615D01*
X21116Y-13743D01*
X21047Y-13909D01*
X21047Y-14089D01*
X21115Y-14256D01*
X21243Y-14383D01*
X21409Y-14452D01*
X21589Y-14452D01*
X21756Y-14384D01*
X21883Y-14256D01*
X21952Y-14090D01*
X21952Y-13910D01*
X21952Y-22910D01*
X21884Y-22743D01*
X21756Y-22616D01*
X21590Y-22547D01*
X21410Y-22547D01*
X21243Y-22615D01*
X21116Y-22743D01*
X21047Y-22909D01*
X21047Y-23089D01*
X21115Y-23256D01*
X21243Y-23383D01*
X21409Y-23452D01*
X21589Y-23452D01*
X21756Y-23384D01*
X21883Y-23256D01*
X21952Y-23090D01*
X21952Y-22910D01*
X21952Y-23792D01*
X20952Y-23792D01*
X20952Y-13910D01*
X20884Y-13743D01*
X20756Y-13616D01*
X20590Y-13547D01*
X20410Y-13547D01*
X20243Y-13615D01*
X20116Y-13743D01*
X20047Y-13909D01*
X20047Y-14089D01*
X20115Y-14256D01*
X20243Y-14383D01*
X20409Y-14452D01*
X20589Y-14452D01*
X20756Y-14384D01*
X20883Y-14256D01*
X20952Y-14090D01*
X20952Y-13910D01*
X20952Y-23792D01*
X20335Y-23792D01*
X19841Y-23298D01*
X19883Y-23256D01*
X19952Y-23090D01*
X19952Y-22910D01*
X19952Y-13910D01*
X19884Y-13743D01*
X19756Y-13616D01*
X19590Y-13547D01*
X19410Y-13547D01*
X19243Y-13615D01*
X19116Y-13743D01*
X19047Y-13909D01*
X19047Y-14089D01*
X19115Y-14256D01*
X19243Y-14383D01*
X19409Y-14452D01*
X19589Y-14452D01*
X19756Y-14384D01*
X19883Y-14256D01*
X19952Y-14090D01*
X19952Y-13910D01*
X19952Y-22910D01*
X19884Y-22743D01*
X19756Y-22616D01*
X19590Y-22547D01*
X19410Y-22547D01*
X19243Y-22615D01*
X19116Y-22743D01*
X19047Y-22909D01*
X19047Y-23089D01*
X19115Y-23256D01*
X19243Y-23383D01*
X19409Y-23452D01*
X20103Y-24146D01*
X20103Y-24146D01*
X20148Y-24176D01*
X20170Y-24191D01*
X20170Y-24191D01*
X20249Y-24207D01*
X20250Y-24207D01*
X24737Y-24207D01*
X24811Y-24281D01*
X24933Y-24332D01*
X25065Y-24332D01*
X25188Y-24282D01*
X25281Y-24188D01*
X25332Y-24066D01*
X25332Y-23934D01*
X25332Y-25039D01*
X25146Y-24853D01*
X25079Y-24808D01*
X25000Y-24792D01*
X21835Y-24792D01*
X21832Y-24789D01*
X21832Y-24684D01*
X21782Y-24561D01*
X21688Y-24468D01*
X21566Y-24417D01*
X21434Y-24417D01*
X21311Y-24467D01*
X21218Y-24561D01*
X21167Y-24683D01*
X21167Y-24815D01*
X21217Y-24938D01*
X21311Y-25031D01*
X21433Y-25082D01*
X21539Y-25082D01*
X21603Y-25146D01*
X21603Y-25146D01*
X21648Y-25176D01*
X21670Y-25191D01*
X21670Y-25191D01*
X21750Y-25207D01*
X24914Y-25207D01*
X25667Y-25960D01*
X25667Y-26065D01*
X25717Y-26188D01*
X25811Y-26281D01*
X25933Y-26332D01*
X26065Y-26332D01*
X26188Y-26282D01*
X26281Y-26188D01*
X26332Y-26066D01*
X26332Y-25934D01*
X26332Y-26572D01*
X17734Y-26572D01*
X17734Y-25305D01*
X17585Y-24943D01*
X17308Y-24665D01*
X16946Y-24515D01*
X16555Y-24515D01*
X16193Y-24664D01*
X15915Y-24941D01*
X15765Y-25303D01*
X15765Y-25694D01*
X15914Y-26056D01*
X16191Y-26334D01*
X16553Y-26484D01*
X16944Y-26484D01*
X17306Y-26335D01*
X17584Y-26058D01*
X17734Y-25696D01*
X17734Y-25305D01*
X17734Y-26572D01*
X15677Y-26572D01*
X15677Y-6177D01*
X42822Y-6177D01*
X42822Y-26572D01*
M02*
