G04 (created by PCBNEW (2013-03-31 BZR 4008)-stable) date 13.09.2013 22:32:34*
%MOIN*%
G04 Gerber Fmt 3.4, Leading zero omitted, Abs format*
%FSLAX34Y34*%
G01*
G70*
G90*
G04 APERTURE LIST*
%ADD10C,0.006*%
%ADD11C,0.0591*%
%ADD12C,0.1181*%
%ADD13R,0.06X0.06*%
%ADD14C,0.06*%
%ADD15C,0.189*%
%ADD16R,0.189X0.189*%
%ADD17C,0.0590551*%
%ADD18C,0.1654*%
%ADD19C,0.035*%
%ADD20C,0.01*%
%ADD21C,0.00787402*%
G04 APERTURE END LIST*
G54D10*
G54D11*
X21600Y-11750D03*
X22600Y-11750D03*
X23400Y-11750D03*
X24400Y-11750D03*
G54D12*
X20400Y-10700D03*
X25800Y-10700D03*
G54D13*
X40500Y-18000D03*
G54D14*
X41500Y-18000D03*
X40500Y-19000D03*
X41500Y-19000D03*
X40500Y-20000D03*
X41500Y-20000D03*
G54D15*
X30500Y-9750D03*
G54D16*
X30500Y-12150D03*
G54D15*
X28500Y-10650D03*
G54D17*
X19500Y-23000D03*
X20500Y-23000D03*
X21500Y-23000D03*
X22500Y-23000D03*
X23500Y-23000D03*
X24500Y-23000D03*
X25500Y-23000D03*
X26500Y-23000D03*
X27500Y-23000D03*
X28500Y-23000D03*
X29500Y-23000D03*
X30500Y-23000D03*
X31500Y-23000D03*
X32500Y-23000D03*
X33500Y-23000D03*
X34500Y-23000D03*
X35500Y-23000D03*
X36500Y-23000D03*
X37500Y-23000D03*
X38500Y-23000D03*
X38500Y-15000D03*
X37500Y-15000D03*
X36500Y-15000D03*
X35500Y-15000D03*
X34500Y-15000D03*
X33500Y-15000D03*
X32500Y-15000D03*
X31500Y-15000D03*
X30500Y-15000D03*
X29500Y-15000D03*
X28500Y-15000D03*
X27500Y-15000D03*
X26500Y-15000D03*
X25500Y-15000D03*
X24500Y-15000D03*
X23500Y-15000D03*
X22500Y-15000D03*
X21500Y-15000D03*
X20500Y-15000D03*
X19500Y-15000D03*
G54D18*
X41750Y-8250D03*
X41750Y-25500D03*
X16750Y-25500D03*
X16750Y-8250D03*
G54D19*
X32500Y-24000D03*
X25250Y-26000D03*
X23250Y-26000D03*
X34250Y-10500D03*
X29250Y-20000D03*
X36000Y-17750D03*
X17250Y-21250D03*
X35750Y-12250D03*
X25000Y-24000D03*
X22500Y-24000D03*
X17750Y-15250D03*
X18250Y-16250D03*
X26750Y-24500D03*
X26000Y-26000D03*
X30250Y-18750D03*
G54D20*
X22500Y-24000D02*
X25000Y-24000D01*
X34500Y-23000D02*
X34500Y-22000D01*
X39500Y-19000D02*
X40500Y-18000D01*
X39500Y-19500D02*
X39500Y-19000D01*
X38750Y-20250D02*
X39500Y-19500D01*
X36250Y-20250D02*
X38750Y-20250D01*
X34500Y-22000D02*
X36250Y-20250D01*
X21600Y-11750D02*
X19500Y-11750D01*
X17750Y-13500D02*
X17750Y-15250D01*
X19500Y-11750D02*
X17750Y-13500D01*
X24400Y-11750D02*
X24400Y-11850D01*
X18250Y-13750D02*
X18250Y-16250D01*
X19250Y-12750D02*
X18250Y-13750D01*
X23500Y-12750D02*
X19250Y-12750D01*
X24400Y-11850D02*
X23500Y-12750D01*
X38500Y-23000D02*
X38500Y-24000D01*
X38000Y-24500D02*
X26750Y-24500D01*
X38500Y-24000D02*
X38000Y-24500D01*
X21750Y-25250D02*
X19500Y-23000D01*
X25250Y-25250D02*
X21750Y-25250D01*
X26000Y-26000D02*
X25250Y-25250D01*
X19500Y-22750D02*
X19500Y-23000D01*
X23500Y-18750D02*
X19500Y-22750D01*
X30250Y-18750D02*
X23500Y-18750D01*
G54D10*
G36*
X42822Y-26572D02*
X42734Y-26572D01*
X42734Y-25305D01*
X42734Y-8055D01*
X42585Y-7693D01*
X42308Y-7415D01*
X41946Y-7265D01*
X41555Y-7265D01*
X41193Y-7414D01*
X40915Y-7691D01*
X40765Y-8053D01*
X40765Y-8444D01*
X40914Y-8806D01*
X41191Y-9084D01*
X41553Y-9234D01*
X41944Y-9234D01*
X42306Y-9085D01*
X42584Y-8808D01*
X42734Y-8446D01*
X42734Y-8055D01*
X42734Y-25305D01*
X42585Y-24943D01*
X42308Y-24665D01*
X41957Y-24520D01*
X41957Y-18909D01*
X41957Y-17909D01*
X41888Y-17741D01*
X41759Y-17612D01*
X41591Y-17542D01*
X41409Y-17542D01*
X41241Y-17611D01*
X41112Y-17740D01*
X41042Y-17908D01*
X41042Y-18090D01*
X41111Y-18258D01*
X41240Y-18387D01*
X41408Y-18457D01*
X41590Y-18457D01*
X41758Y-18388D01*
X41887Y-18259D01*
X41957Y-18091D01*
X41957Y-17909D01*
X41957Y-18909D01*
X41888Y-18741D01*
X41759Y-18612D01*
X41591Y-18542D01*
X41409Y-18542D01*
X41241Y-18611D01*
X41112Y-18740D01*
X41042Y-18908D01*
X41042Y-19090D01*
X41111Y-19258D01*
X41240Y-19387D01*
X41408Y-19457D01*
X41590Y-19457D01*
X41758Y-19388D01*
X41887Y-19259D01*
X41957Y-19091D01*
X41957Y-18909D01*
X41957Y-24520D01*
X41946Y-24515D01*
X41555Y-24515D01*
X41193Y-24664D01*
X40957Y-24900D01*
X40957Y-19909D01*
X40957Y-18909D01*
X40957Y-18909D01*
X40957Y-18268D01*
X40957Y-17668D01*
X40933Y-17610D01*
X40889Y-17566D01*
X40831Y-17542D01*
X40768Y-17542D01*
X40168Y-17542D01*
X40110Y-17566D01*
X40066Y-17610D01*
X40042Y-17668D01*
X40042Y-17731D01*
X40042Y-18164D01*
X39353Y-18853D01*
X39308Y-18920D01*
X39292Y-19000D01*
X39292Y-19414D01*
X38952Y-19753D01*
X38952Y-14910D01*
X38884Y-14743D01*
X38756Y-14616D01*
X38590Y-14547D01*
X38410Y-14547D01*
X38243Y-14615D01*
X38116Y-14743D01*
X38047Y-14909D01*
X38047Y-15089D01*
X38115Y-15256D01*
X38243Y-15383D01*
X38409Y-15452D01*
X38589Y-15452D01*
X38756Y-15384D01*
X38883Y-15256D01*
X38952Y-15090D01*
X38952Y-14910D01*
X38952Y-19753D01*
X38664Y-20042D01*
X37952Y-20042D01*
X37952Y-14910D01*
X37884Y-14743D01*
X37756Y-14616D01*
X37590Y-14547D01*
X37410Y-14547D01*
X37243Y-14615D01*
X37116Y-14743D01*
X37047Y-14909D01*
X37047Y-15089D01*
X37115Y-15256D01*
X37243Y-15383D01*
X37409Y-15452D01*
X37589Y-15452D01*
X37756Y-15384D01*
X37883Y-15256D01*
X37952Y-15090D01*
X37952Y-14910D01*
X37952Y-20042D01*
X36952Y-20042D01*
X36952Y-14910D01*
X36884Y-14743D01*
X36756Y-14616D01*
X36590Y-14547D01*
X36410Y-14547D01*
X36243Y-14615D01*
X36116Y-14743D01*
X36047Y-14909D01*
X36047Y-15089D01*
X36115Y-15256D01*
X36243Y-15383D01*
X36409Y-15452D01*
X36589Y-15452D01*
X36756Y-15384D01*
X36883Y-15256D01*
X36952Y-15090D01*
X36952Y-14910D01*
X36952Y-20042D01*
X36250Y-20042D01*
X36183Y-20055D01*
X36170Y-20058D01*
X36103Y-20103D01*
X35952Y-20253D01*
X35952Y-14910D01*
X35884Y-14743D01*
X35756Y-14616D01*
X35590Y-14547D01*
X35410Y-14547D01*
X35243Y-14615D01*
X35116Y-14743D01*
X35047Y-14909D01*
X35047Y-15089D01*
X35115Y-15256D01*
X35243Y-15383D01*
X35409Y-15452D01*
X35589Y-15452D01*
X35756Y-15384D01*
X35883Y-15256D01*
X35952Y-15090D01*
X35952Y-14910D01*
X35952Y-20253D01*
X34952Y-21253D01*
X34952Y-14910D01*
X34884Y-14743D01*
X34756Y-14616D01*
X34590Y-14547D01*
X34410Y-14547D01*
X34243Y-14615D01*
X34116Y-14743D01*
X34047Y-14909D01*
X34047Y-15089D01*
X34115Y-15256D01*
X34243Y-15383D01*
X34409Y-15452D01*
X34589Y-15452D01*
X34756Y-15384D01*
X34883Y-15256D01*
X34952Y-15090D01*
X34952Y-14910D01*
X34952Y-21253D01*
X34353Y-21853D01*
X34308Y-21920D01*
X34292Y-22000D01*
X34292Y-22595D01*
X34243Y-22615D01*
X34116Y-22743D01*
X34047Y-22909D01*
X34047Y-23089D01*
X34115Y-23256D01*
X34243Y-23383D01*
X34409Y-23452D01*
X34589Y-23452D01*
X34756Y-23384D01*
X34883Y-23256D01*
X34952Y-23090D01*
X34952Y-22910D01*
X34884Y-22743D01*
X34756Y-22616D01*
X34707Y-22595D01*
X34707Y-22085D01*
X36335Y-20457D01*
X38750Y-20457D01*
X38829Y-20441D01*
X38829Y-20441D01*
X38896Y-20396D01*
X39646Y-19646D01*
X39646Y-19646D01*
X39676Y-19601D01*
X39691Y-19579D01*
X39691Y-19579D01*
X39707Y-19500D01*
X39707Y-19500D01*
X39707Y-19085D01*
X40335Y-18457D01*
X40831Y-18457D01*
X40889Y-18433D01*
X40933Y-18389D01*
X40957Y-18331D01*
X40957Y-18268D01*
X40957Y-18909D01*
X40888Y-18741D01*
X40759Y-18612D01*
X40591Y-18542D01*
X40409Y-18542D01*
X40241Y-18611D01*
X40112Y-18740D01*
X40042Y-18908D01*
X40042Y-19090D01*
X40111Y-19258D01*
X40240Y-19387D01*
X40408Y-19457D01*
X40590Y-19457D01*
X40758Y-19388D01*
X40887Y-19259D01*
X40957Y-19091D01*
X40957Y-18909D01*
X40957Y-19909D01*
X40888Y-19741D01*
X40759Y-19612D01*
X40591Y-19542D01*
X40409Y-19542D01*
X40241Y-19611D01*
X40112Y-19740D01*
X40042Y-19908D01*
X40042Y-20090D01*
X40111Y-20258D01*
X40240Y-20387D01*
X40408Y-20457D01*
X40590Y-20457D01*
X40758Y-20388D01*
X40887Y-20259D01*
X40957Y-20091D01*
X40957Y-19909D01*
X40957Y-24900D01*
X40915Y-24941D01*
X40765Y-25303D01*
X40765Y-25694D01*
X40914Y-26056D01*
X41191Y-26334D01*
X41553Y-26484D01*
X41944Y-26484D01*
X42306Y-26335D01*
X42584Y-26058D01*
X42734Y-25696D01*
X42734Y-25305D01*
X42734Y-26572D01*
X38952Y-26572D01*
X38952Y-22910D01*
X38884Y-22743D01*
X38756Y-22616D01*
X38590Y-22547D01*
X38410Y-22547D01*
X38243Y-22615D01*
X38116Y-22743D01*
X38047Y-22909D01*
X38047Y-23089D01*
X38115Y-23256D01*
X38243Y-23383D01*
X38292Y-23404D01*
X38292Y-23914D01*
X37952Y-24253D01*
X37952Y-22910D01*
X37884Y-22743D01*
X37756Y-22616D01*
X37590Y-22547D01*
X37410Y-22547D01*
X37243Y-22615D01*
X37116Y-22743D01*
X37047Y-22909D01*
X37047Y-23089D01*
X37115Y-23256D01*
X37243Y-23383D01*
X37409Y-23452D01*
X37589Y-23452D01*
X37756Y-23384D01*
X37883Y-23256D01*
X37952Y-23090D01*
X37952Y-22910D01*
X37952Y-24253D01*
X37914Y-24292D01*
X36952Y-24292D01*
X36952Y-22910D01*
X36884Y-22743D01*
X36756Y-22616D01*
X36590Y-22547D01*
X36410Y-22547D01*
X36243Y-22615D01*
X36116Y-22743D01*
X36047Y-22909D01*
X36047Y-23089D01*
X36115Y-23256D01*
X36243Y-23383D01*
X36409Y-23452D01*
X36589Y-23452D01*
X36756Y-23384D01*
X36883Y-23256D01*
X36952Y-23090D01*
X36952Y-22910D01*
X36952Y-24292D01*
X35952Y-24292D01*
X35952Y-22910D01*
X35884Y-22743D01*
X35756Y-22616D01*
X35590Y-22547D01*
X35410Y-22547D01*
X35243Y-22615D01*
X35116Y-22743D01*
X35047Y-22909D01*
X35047Y-23089D01*
X35115Y-23256D01*
X35243Y-23383D01*
X35409Y-23452D01*
X35589Y-23452D01*
X35756Y-23384D01*
X35883Y-23256D01*
X35952Y-23090D01*
X35952Y-22910D01*
X35952Y-24292D01*
X33952Y-24292D01*
X33952Y-22910D01*
X33952Y-14910D01*
X33884Y-14743D01*
X33756Y-14616D01*
X33590Y-14547D01*
X33410Y-14547D01*
X33243Y-14615D01*
X33116Y-14743D01*
X33047Y-14909D01*
X33047Y-15089D01*
X33115Y-15256D01*
X33243Y-15383D01*
X33409Y-15452D01*
X33589Y-15452D01*
X33756Y-15384D01*
X33883Y-15256D01*
X33952Y-15090D01*
X33952Y-14910D01*
X33952Y-22910D01*
X33884Y-22743D01*
X33756Y-22616D01*
X33590Y-22547D01*
X33410Y-22547D01*
X33243Y-22615D01*
X33116Y-22743D01*
X33047Y-22909D01*
X33047Y-23089D01*
X33115Y-23256D01*
X33243Y-23383D01*
X33409Y-23452D01*
X33589Y-23452D01*
X33756Y-23384D01*
X33883Y-23256D01*
X33952Y-23090D01*
X33952Y-22910D01*
X33952Y-24292D01*
X32952Y-24292D01*
X32952Y-22910D01*
X32952Y-14910D01*
X32884Y-14743D01*
X32756Y-14616D01*
X32590Y-14547D01*
X32410Y-14547D01*
X32243Y-14615D01*
X32116Y-14743D01*
X32047Y-14909D01*
X32047Y-15089D01*
X32115Y-15256D01*
X32243Y-15383D01*
X32409Y-15452D01*
X32589Y-15452D01*
X32756Y-15384D01*
X32883Y-15256D01*
X32952Y-15090D01*
X32952Y-14910D01*
X32952Y-22910D01*
X32884Y-22743D01*
X32756Y-22616D01*
X32590Y-22547D01*
X32410Y-22547D01*
X32243Y-22615D01*
X32116Y-22743D01*
X32047Y-22909D01*
X32047Y-23089D01*
X32115Y-23256D01*
X32243Y-23383D01*
X32409Y-23452D01*
X32589Y-23452D01*
X32756Y-23384D01*
X32883Y-23256D01*
X32952Y-23090D01*
X32952Y-22910D01*
X32952Y-24292D01*
X31952Y-24292D01*
X31952Y-22910D01*
X31952Y-14910D01*
X31884Y-14743D01*
X31756Y-14616D01*
X31602Y-14552D01*
X31602Y-13063D01*
X31602Y-11173D01*
X31578Y-11115D01*
X31534Y-11071D01*
X31476Y-11047D01*
X31413Y-11047D01*
X29523Y-11047D01*
X29465Y-11071D01*
X29421Y-11115D01*
X29397Y-11173D01*
X29397Y-11236D01*
X29397Y-13126D01*
X29421Y-13184D01*
X29465Y-13228D01*
X29523Y-13252D01*
X29586Y-13252D01*
X31476Y-13252D01*
X31534Y-13228D01*
X31578Y-13184D01*
X31602Y-13126D01*
X31602Y-13063D01*
X31602Y-14552D01*
X31590Y-14547D01*
X31410Y-14547D01*
X31243Y-14615D01*
X31116Y-14743D01*
X31047Y-14909D01*
X31047Y-15089D01*
X31115Y-15256D01*
X31243Y-15383D01*
X31409Y-15452D01*
X31589Y-15452D01*
X31756Y-15384D01*
X31883Y-15256D01*
X31952Y-15090D01*
X31952Y-14910D01*
X31952Y-22910D01*
X31884Y-22743D01*
X31756Y-22616D01*
X31590Y-22547D01*
X31410Y-22547D01*
X31243Y-22615D01*
X31116Y-22743D01*
X31047Y-22909D01*
X31047Y-23089D01*
X31115Y-23256D01*
X31243Y-23383D01*
X31409Y-23452D01*
X31589Y-23452D01*
X31756Y-23384D01*
X31883Y-23256D01*
X31952Y-23090D01*
X31952Y-22910D01*
X31952Y-24292D01*
X30952Y-24292D01*
X30952Y-22910D01*
X30952Y-14910D01*
X30884Y-14743D01*
X30756Y-14616D01*
X30590Y-14547D01*
X30410Y-14547D01*
X30243Y-14615D01*
X30116Y-14743D01*
X30047Y-14909D01*
X30047Y-15089D01*
X30115Y-15256D01*
X30243Y-15383D01*
X30409Y-15452D01*
X30589Y-15452D01*
X30756Y-15384D01*
X30883Y-15256D01*
X30952Y-15090D01*
X30952Y-14910D01*
X30952Y-22910D01*
X30884Y-22743D01*
X30756Y-22616D01*
X30590Y-22547D01*
X30582Y-22547D01*
X30582Y-18684D01*
X30532Y-18561D01*
X30438Y-18468D01*
X30316Y-18417D01*
X30184Y-18417D01*
X30061Y-18467D01*
X29987Y-18542D01*
X29952Y-18542D01*
X29952Y-14910D01*
X29884Y-14743D01*
X29756Y-14616D01*
X29590Y-14547D01*
X29410Y-14547D01*
X29243Y-14615D01*
X29116Y-14743D01*
X29047Y-14909D01*
X29047Y-15089D01*
X29115Y-15256D01*
X29243Y-15383D01*
X29409Y-15452D01*
X29589Y-15452D01*
X29756Y-15384D01*
X29883Y-15256D01*
X29952Y-15090D01*
X29952Y-14910D01*
X29952Y-18542D01*
X28952Y-18542D01*
X28952Y-14910D01*
X28884Y-14743D01*
X28756Y-14616D01*
X28590Y-14547D01*
X28410Y-14547D01*
X28243Y-14615D01*
X28116Y-14743D01*
X28047Y-14909D01*
X28047Y-15089D01*
X28115Y-15256D01*
X28243Y-15383D01*
X28409Y-15452D01*
X28589Y-15452D01*
X28756Y-15384D01*
X28883Y-15256D01*
X28952Y-15090D01*
X28952Y-14910D01*
X28952Y-18542D01*
X27952Y-18542D01*
X27952Y-14910D01*
X27884Y-14743D01*
X27756Y-14616D01*
X27590Y-14547D01*
X27410Y-14547D01*
X27243Y-14615D01*
X27116Y-14743D01*
X27047Y-14909D01*
X27047Y-15089D01*
X27115Y-15256D01*
X27243Y-15383D01*
X27409Y-15452D01*
X27589Y-15452D01*
X27756Y-15384D01*
X27883Y-15256D01*
X27952Y-15090D01*
X27952Y-14910D01*
X27952Y-18542D01*
X26952Y-18542D01*
X26952Y-14910D01*
X26884Y-14743D01*
X26756Y-14616D01*
X26590Y-14547D01*
X26548Y-14547D01*
X26548Y-10551D01*
X26434Y-10276D01*
X26224Y-10066D01*
X25949Y-9952D01*
X25651Y-9951D01*
X25376Y-10065D01*
X25166Y-10275D01*
X25052Y-10550D01*
X25051Y-10848D01*
X25165Y-11123D01*
X25375Y-11333D01*
X25650Y-11447D01*
X25948Y-11448D01*
X26223Y-11334D01*
X26433Y-11124D01*
X26547Y-10849D01*
X26548Y-10551D01*
X26548Y-14547D01*
X26410Y-14547D01*
X26243Y-14615D01*
X26116Y-14743D01*
X26047Y-14909D01*
X26047Y-15089D01*
X26115Y-15256D01*
X26243Y-15383D01*
X26409Y-15452D01*
X26589Y-15452D01*
X26756Y-15384D01*
X26883Y-15256D01*
X26952Y-15090D01*
X26952Y-14910D01*
X26952Y-18542D01*
X25952Y-18542D01*
X25952Y-14910D01*
X25884Y-14743D01*
X25756Y-14616D01*
X25590Y-14547D01*
X25410Y-14547D01*
X25243Y-14615D01*
X25116Y-14743D01*
X25047Y-14909D01*
X25047Y-15089D01*
X25115Y-15256D01*
X25243Y-15383D01*
X25409Y-15452D01*
X25589Y-15452D01*
X25756Y-15384D01*
X25883Y-15256D01*
X25952Y-15090D01*
X25952Y-14910D01*
X25952Y-18542D01*
X24952Y-18542D01*
X24952Y-14910D01*
X24884Y-14743D01*
X24853Y-14712D01*
X24853Y-11660D01*
X24784Y-11493D01*
X24656Y-11366D01*
X24490Y-11297D01*
X24310Y-11296D01*
X24143Y-11365D01*
X24016Y-11493D01*
X23947Y-11659D01*
X23946Y-11839D01*
X23996Y-11959D01*
X23853Y-12103D01*
X23853Y-11660D01*
X23784Y-11493D01*
X23656Y-11366D01*
X23490Y-11297D01*
X23310Y-11296D01*
X23143Y-11365D01*
X23016Y-11493D01*
X23000Y-11531D01*
X22984Y-11493D01*
X22856Y-11366D01*
X22690Y-11297D01*
X22510Y-11296D01*
X22343Y-11365D01*
X22216Y-11493D01*
X22147Y-11659D01*
X22146Y-11839D01*
X22215Y-12006D01*
X22343Y-12133D01*
X22509Y-12202D01*
X22689Y-12203D01*
X22856Y-12134D01*
X22983Y-12006D01*
X22999Y-11968D01*
X23015Y-12006D01*
X23143Y-12133D01*
X23309Y-12202D01*
X23489Y-12203D01*
X23656Y-12134D01*
X23783Y-12006D01*
X23852Y-11840D01*
X23853Y-11660D01*
X23853Y-12103D01*
X23414Y-12542D01*
X19250Y-12542D01*
X19170Y-12558D01*
X19148Y-12573D01*
X19103Y-12603D01*
X18103Y-13603D01*
X18058Y-13670D01*
X18042Y-13750D01*
X18042Y-15087D01*
X18032Y-15061D01*
X17957Y-14987D01*
X17957Y-13585D01*
X19585Y-11957D01*
X21195Y-11957D01*
X21215Y-12006D01*
X21343Y-12133D01*
X21509Y-12202D01*
X21689Y-12203D01*
X21856Y-12134D01*
X21983Y-12006D01*
X22052Y-11840D01*
X22053Y-11660D01*
X21984Y-11493D01*
X21856Y-11366D01*
X21690Y-11297D01*
X21510Y-11296D01*
X21343Y-11365D01*
X21216Y-11493D01*
X21195Y-11542D01*
X21148Y-11542D01*
X21148Y-10551D01*
X21034Y-10276D01*
X20824Y-10066D01*
X20549Y-9952D01*
X20251Y-9951D01*
X19976Y-10065D01*
X19766Y-10275D01*
X19652Y-10550D01*
X19651Y-10848D01*
X19765Y-11123D01*
X19975Y-11333D01*
X20250Y-11447D01*
X20548Y-11448D01*
X20823Y-11334D01*
X21033Y-11124D01*
X21147Y-10849D01*
X21148Y-10551D01*
X21148Y-11542D01*
X19500Y-11542D01*
X19433Y-11555D01*
X19420Y-11558D01*
X19353Y-11603D01*
X17734Y-13221D01*
X17734Y-8055D01*
X17585Y-7693D01*
X17308Y-7415D01*
X16946Y-7265D01*
X16555Y-7265D01*
X16193Y-7414D01*
X15915Y-7691D01*
X15765Y-8053D01*
X15765Y-8444D01*
X15914Y-8806D01*
X16191Y-9084D01*
X16553Y-9234D01*
X16944Y-9234D01*
X17306Y-9085D01*
X17584Y-8808D01*
X17734Y-8446D01*
X17734Y-8055D01*
X17734Y-13221D01*
X17603Y-13353D01*
X17558Y-13420D01*
X17542Y-13500D01*
X17542Y-14987D01*
X17468Y-15061D01*
X17417Y-15183D01*
X17417Y-15315D01*
X17467Y-15438D01*
X17561Y-15531D01*
X17683Y-15582D01*
X17815Y-15582D01*
X17938Y-15532D01*
X18031Y-15438D01*
X18042Y-15412D01*
X18042Y-15987D01*
X17968Y-16061D01*
X17917Y-16183D01*
X17917Y-16315D01*
X17967Y-16438D01*
X18061Y-16531D01*
X18183Y-16582D01*
X18315Y-16582D01*
X18438Y-16532D01*
X18531Y-16438D01*
X18582Y-16316D01*
X18582Y-16184D01*
X18532Y-16061D01*
X18457Y-15987D01*
X18457Y-13835D01*
X19335Y-12957D01*
X23500Y-12957D01*
X23579Y-12941D01*
X23579Y-12941D01*
X23646Y-12896D01*
X24340Y-12202D01*
X24489Y-12203D01*
X24656Y-12134D01*
X24783Y-12006D01*
X24852Y-11840D01*
X24853Y-11660D01*
X24853Y-14712D01*
X24756Y-14616D01*
X24590Y-14547D01*
X24410Y-14547D01*
X24243Y-14615D01*
X24116Y-14743D01*
X24047Y-14909D01*
X24047Y-15089D01*
X24115Y-15256D01*
X24243Y-15383D01*
X24409Y-15452D01*
X24589Y-15452D01*
X24756Y-15384D01*
X24883Y-15256D01*
X24952Y-15090D01*
X24952Y-14910D01*
X24952Y-18542D01*
X23952Y-18542D01*
X23952Y-14910D01*
X23884Y-14743D01*
X23756Y-14616D01*
X23590Y-14547D01*
X23410Y-14547D01*
X23243Y-14615D01*
X23116Y-14743D01*
X23047Y-14909D01*
X23047Y-15089D01*
X23115Y-15256D01*
X23243Y-15383D01*
X23409Y-15452D01*
X23589Y-15452D01*
X23756Y-15384D01*
X23883Y-15256D01*
X23952Y-15090D01*
X23952Y-14910D01*
X23952Y-18542D01*
X23500Y-18542D01*
X23420Y-18558D01*
X23398Y-18573D01*
X23353Y-18603D01*
X22952Y-19003D01*
X22952Y-14910D01*
X22884Y-14743D01*
X22756Y-14616D01*
X22590Y-14547D01*
X22410Y-14547D01*
X22243Y-14615D01*
X22116Y-14743D01*
X22047Y-14909D01*
X22047Y-15089D01*
X22115Y-15256D01*
X22243Y-15383D01*
X22409Y-15452D01*
X22589Y-15452D01*
X22756Y-15384D01*
X22883Y-15256D01*
X22952Y-15090D01*
X22952Y-14910D01*
X22952Y-19003D01*
X21952Y-20003D01*
X21952Y-14910D01*
X21884Y-14743D01*
X21756Y-14616D01*
X21590Y-14547D01*
X21410Y-14547D01*
X21243Y-14615D01*
X21116Y-14743D01*
X21047Y-14909D01*
X21047Y-15089D01*
X21115Y-15256D01*
X21243Y-15383D01*
X21409Y-15452D01*
X21589Y-15452D01*
X21756Y-15384D01*
X21883Y-15256D01*
X21952Y-15090D01*
X21952Y-14910D01*
X21952Y-20003D01*
X20952Y-21003D01*
X20952Y-14910D01*
X20884Y-14743D01*
X20756Y-14616D01*
X20590Y-14547D01*
X20410Y-14547D01*
X20243Y-14615D01*
X20116Y-14743D01*
X20047Y-14909D01*
X20047Y-15089D01*
X20115Y-15256D01*
X20243Y-15383D01*
X20409Y-15452D01*
X20589Y-15452D01*
X20756Y-15384D01*
X20883Y-15256D01*
X20952Y-15090D01*
X20952Y-14910D01*
X20952Y-21003D01*
X19952Y-22003D01*
X19952Y-14910D01*
X19884Y-14743D01*
X19756Y-14616D01*
X19590Y-14547D01*
X19410Y-14547D01*
X19243Y-14615D01*
X19116Y-14743D01*
X19047Y-14909D01*
X19047Y-15089D01*
X19115Y-15256D01*
X19243Y-15383D01*
X19409Y-15452D01*
X19589Y-15452D01*
X19756Y-15384D01*
X19883Y-15256D01*
X19952Y-15090D01*
X19952Y-14910D01*
X19952Y-22003D01*
X19408Y-22547D01*
X19243Y-22615D01*
X19116Y-22743D01*
X19047Y-22909D01*
X19047Y-23089D01*
X19115Y-23256D01*
X19243Y-23383D01*
X19409Y-23452D01*
X19589Y-23452D01*
X19639Y-23432D01*
X21603Y-25396D01*
X21603Y-25396D01*
X21648Y-25426D01*
X21670Y-25441D01*
X21670Y-25441D01*
X21750Y-25457D01*
X25164Y-25457D01*
X25667Y-25960D01*
X25667Y-26065D01*
X25717Y-26188D01*
X25811Y-26281D01*
X25933Y-26332D01*
X26065Y-26332D01*
X26188Y-26282D01*
X26281Y-26188D01*
X26332Y-26066D01*
X26332Y-25934D01*
X26282Y-25811D01*
X26188Y-25718D01*
X26066Y-25667D01*
X25960Y-25667D01*
X25952Y-25659D01*
X25952Y-22910D01*
X25884Y-22743D01*
X25756Y-22616D01*
X25590Y-22547D01*
X25410Y-22547D01*
X25243Y-22615D01*
X25116Y-22743D01*
X25047Y-22909D01*
X25047Y-23089D01*
X25115Y-23256D01*
X25243Y-23383D01*
X25409Y-23452D01*
X25589Y-23452D01*
X25756Y-23384D01*
X25883Y-23256D01*
X25952Y-23090D01*
X25952Y-22910D01*
X25952Y-25659D01*
X25396Y-25103D01*
X25332Y-25060D01*
X25332Y-23934D01*
X25282Y-23811D01*
X25188Y-23718D01*
X25066Y-23667D01*
X24952Y-23667D01*
X24952Y-22910D01*
X24884Y-22743D01*
X24756Y-22616D01*
X24590Y-22547D01*
X24410Y-22547D01*
X24243Y-22615D01*
X24116Y-22743D01*
X24047Y-22909D01*
X24047Y-23089D01*
X24115Y-23256D01*
X24243Y-23383D01*
X24409Y-23452D01*
X24589Y-23452D01*
X24756Y-23384D01*
X24883Y-23256D01*
X24952Y-23090D01*
X24952Y-22910D01*
X24952Y-23667D01*
X24934Y-23667D01*
X24811Y-23717D01*
X24737Y-23792D01*
X23952Y-23792D01*
X23952Y-22910D01*
X23884Y-22743D01*
X23756Y-22616D01*
X23590Y-22547D01*
X23410Y-22547D01*
X23243Y-22615D01*
X23116Y-22743D01*
X23047Y-22909D01*
X23047Y-23089D01*
X23115Y-23256D01*
X23243Y-23383D01*
X23409Y-23452D01*
X23589Y-23452D01*
X23756Y-23384D01*
X23883Y-23256D01*
X23952Y-23090D01*
X23952Y-22910D01*
X23952Y-23792D01*
X22952Y-23792D01*
X22952Y-22910D01*
X22884Y-22743D01*
X22756Y-22616D01*
X22590Y-22547D01*
X22410Y-22547D01*
X22243Y-22615D01*
X22116Y-22743D01*
X22047Y-22909D01*
X22047Y-23089D01*
X22115Y-23256D01*
X22243Y-23383D01*
X22409Y-23452D01*
X22589Y-23452D01*
X22756Y-23384D01*
X22883Y-23256D01*
X22952Y-23090D01*
X22952Y-22910D01*
X22952Y-23792D01*
X22762Y-23792D01*
X22688Y-23718D01*
X22566Y-23667D01*
X22434Y-23667D01*
X22311Y-23717D01*
X22218Y-23811D01*
X22167Y-23933D01*
X22167Y-24065D01*
X22217Y-24188D01*
X22311Y-24281D01*
X22433Y-24332D01*
X22565Y-24332D01*
X22688Y-24282D01*
X22762Y-24207D01*
X24737Y-24207D01*
X24811Y-24281D01*
X24933Y-24332D01*
X25065Y-24332D01*
X25188Y-24282D01*
X25281Y-24188D01*
X25332Y-24066D01*
X25332Y-23934D01*
X25332Y-25060D01*
X25329Y-25058D01*
X25250Y-25042D01*
X21952Y-25042D01*
X21952Y-22910D01*
X21884Y-22743D01*
X21756Y-22616D01*
X21590Y-22547D01*
X21410Y-22547D01*
X21243Y-22615D01*
X21116Y-22743D01*
X21047Y-22909D01*
X21047Y-23089D01*
X21115Y-23256D01*
X21243Y-23383D01*
X21409Y-23452D01*
X21589Y-23452D01*
X21756Y-23384D01*
X21883Y-23256D01*
X21952Y-23090D01*
X21952Y-22910D01*
X21952Y-25042D01*
X21835Y-25042D01*
X19932Y-23139D01*
X19952Y-23090D01*
X19952Y-22910D01*
X19884Y-22743D01*
X19841Y-22701D01*
X23585Y-18957D01*
X29987Y-18957D01*
X30061Y-19031D01*
X30183Y-19082D01*
X30315Y-19082D01*
X30438Y-19032D01*
X30531Y-18938D01*
X30582Y-18816D01*
X30582Y-18684D01*
X30582Y-22547D01*
X30410Y-22547D01*
X30243Y-22615D01*
X30116Y-22743D01*
X30047Y-22909D01*
X30047Y-23089D01*
X30115Y-23256D01*
X30243Y-23383D01*
X30409Y-23452D01*
X30589Y-23452D01*
X30756Y-23384D01*
X30883Y-23256D01*
X30952Y-23090D01*
X30952Y-22910D01*
X30952Y-24292D01*
X29952Y-24292D01*
X29952Y-22910D01*
X29884Y-22743D01*
X29756Y-22616D01*
X29590Y-22547D01*
X29410Y-22547D01*
X29243Y-22615D01*
X29116Y-22743D01*
X29047Y-22909D01*
X29047Y-23089D01*
X29115Y-23256D01*
X29243Y-23383D01*
X29409Y-23452D01*
X29589Y-23452D01*
X29756Y-23384D01*
X29883Y-23256D01*
X29952Y-23090D01*
X29952Y-22910D01*
X29952Y-24292D01*
X28952Y-24292D01*
X28952Y-22910D01*
X28884Y-22743D01*
X28756Y-22616D01*
X28590Y-22547D01*
X28410Y-22547D01*
X28243Y-22615D01*
X28116Y-22743D01*
X28047Y-22909D01*
X28047Y-23089D01*
X28115Y-23256D01*
X28243Y-23383D01*
X28409Y-23452D01*
X28589Y-23452D01*
X28756Y-23384D01*
X28883Y-23256D01*
X28952Y-23090D01*
X28952Y-22910D01*
X28952Y-24292D01*
X27952Y-24292D01*
X27952Y-22910D01*
X27884Y-22743D01*
X27756Y-22616D01*
X27590Y-22547D01*
X27410Y-22547D01*
X27243Y-22615D01*
X27116Y-22743D01*
X27047Y-22909D01*
X27047Y-23089D01*
X27115Y-23256D01*
X27243Y-23383D01*
X27409Y-23452D01*
X27589Y-23452D01*
X27756Y-23384D01*
X27883Y-23256D01*
X27952Y-23090D01*
X27952Y-22910D01*
X27952Y-24292D01*
X27012Y-24292D01*
X26952Y-24232D01*
X26952Y-22910D01*
X26884Y-22743D01*
X26756Y-22616D01*
X26590Y-22547D01*
X26410Y-22547D01*
X26243Y-22615D01*
X26116Y-22743D01*
X26047Y-22909D01*
X26047Y-23089D01*
X26115Y-23256D01*
X26243Y-23383D01*
X26409Y-23452D01*
X26589Y-23452D01*
X26756Y-23384D01*
X26883Y-23256D01*
X26952Y-23090D01*
X26952Y-22910D01*
X26952Y-24232D01*
X26938Y-24218D01*
X26816Y-24167D01*
X26684Y-24167D01*
X26561Y-24217D01*
X26468Y-24311D01*
X26417Y-24433D01*
X26417Y-24565D01*
X26467Y-24688D01*
X26561Y-24781D01*
X26683Y-24832D01*
X26815Y-24832D01*
X26938Y-24782D01*
X27012Y-24707D01*
X38000Y-24707D01*
X38079Y-24691D01*
X38079Y-24691D01*
X38146Y-24646D01*
X38646Y-24146D01*
X38691Y-24079D01*
X38691Y-24079D01*
X38694Y-24066D01*
X38707Y-24000D01*
X38707Y-24000D01*
X38707Y-23404D01*
X38756Y-23384D01*
X38883Y-23256D01*
X38952Y-23090D01*
X38952Y-22910D01*
X38952Y-26572D01*
X17734Y-26572D01*
X17734Y-25305D01*
X17585Y-24943D01*
X17308Y-24665D01*
X16946Y-24515D01*
X16555Y-24515D01*
X16193Y-24664D01*
X15915Y-24941D01*
X15765Y-25303D01*
X15765Y-25694D01*
X15914Y-26056D01*
X16191Y-26334D01*
X16553Y-26484D01*
X16944Y-26484D01*
X17306Y-26335D01*
X17584Y-26058D01*
X17734Y-25696D01*
X17734Y-25305D01*
X17734Y-26572D01*
X15677Y-26572D01*
X15677Y-7177D01*
X42822Y-7177D01*
X42822Y-26572D01*
X42822Y-26572D01*
G37*
G54D21*
X42822Y-26572D02*
X42734Y-26572D01*
X42734Y-25305D01*
X42734Y-8055D01*
X42585Y-7693D01*
X42308Y-7415D01*
X41946Y-7265D01*
X41555Y-7265D01*
X41193Y-7414D01*
X40915Y-7691D01*
X40765Y-8053D01*
X40765Y-8444D01*
X40914Y-8806D01*
X41191Y-9084D01*
X41553Y-9234D01*
X41944Y-9234D01*
X42306Y-9085D01*
X42584Y-8808D01*
X42734Y-8446D01*
X42734Y-8055D01*
X42734Y-25305D01*
X42585Y-24943D01*
X42308Y-24665D01*
X41957Y-24520D01*
X41957Y-18909D01*
X41957Y-17909D01*
X41888Y-17741D01*
X41759Y-17612D01*
X41591Y-17542D01*
X41409Y-17542D01*
X41241Y-17611D01*
X41112Y-17740D01*
X41042Y-17908D01*
X41042Y-18090D01*
X41111Y-18258D01*
X41240Y-18387D01*
X41408Y-18457D01*
X41590Y-18457D01*
X41758Y-18388D01*
X41887Y-18259D01*
X41957Y-18091D01*
X41957Y-17909D01*
X41957Y-18909D01*
X41888Y-18741D01*
X41759Y-18612D01*
X41591Y-18542D01*
X41409Y-18542D01*
X41241Y-18611D01*
X41112Y-18740D01*
X41042Y-18908D01*
X41042Y-19090D01*
X41111Y-19258D01*
X41240Y-19387D01*
X41408Y-19457D01*
X41590Y-19457D01*
X41758Y-19388D01*
X41887Y-19259D01*
X41957Y-19091D01*
X41957Y-18909D01*
X41957Y-24520D01*
X41946Y-24515D01*
X41555Y-24515D01*
X41193Y-24664D01*
X40957Y-24900D01*
X40957Y-19909D01*
X40957Y-18909D01*
X40957Y-18909D01*
X40957Y-18268D01*
X40957Y-17668D01*
X40933Y-17610D01*
X40889Y-17566D01*
X40831Y-17542D01*
X40768Y-17542D01*
X40168Y-17542D01*
X40110Y-17566D01*
X40066Y-17610D01*
X40042Y-17668D01*
X40042Y-17731D01*
X40042Y-18164D01*
X39353Y-18853D01*
X39308Y-18920D01*
X39292Y-19000D01*
X39292Y-19414D01*
X38952Y-19753D01*
X38952Y-14910D01*
X38884Y-14743D01*
X38756Y-14616D01*
X38590Y-14547D01*
X38410Y-14547D01*
X38243Y-14615D01*
X38116Y-14743D01*
X38047Y-14909D01*
X38047Y-15089D01*
X38115Y-15256D01*
X38243Y-15383D01*
X38409Y-15452D01*
X38589Y-15452D01*
X38756Y-15384D01*
X38883Y-15256D01*
X38952Y-15090D01*
X38952Y-14910D01*
X38952Y-19753D01*
X38664Y-20042D01*
X37952Y-20042D01*
X37952Y-14910D01*
X37884Y-14743D01*
X37756Y-14616D01*
X37590Y-14547D01*
X37410Y-14547D01*
X37243Y-14615D01*
X37116Y-14743D01*
X37047Y-14909D01*
X37047Y-15089D01*
X37115Y-15256D01*
X37243Y-15383D01*
X37409Y-15452D01*
X37589Y-15452D01*
X37756Y-15384D01*
X37883Y-15256D01*
X37952Y-15090D01*
X37952Y-14910D01*
X37952Y-20042D01*
X36952Y-20042D01*
X36952Y-14910D01*
X36884Y-14743D01*
X36756Y-14616D01*
X36590Y-14547D01*
X36410Y-14547D01*
X36243Y-14615D01*
X36116Y-14743D01*
X36047Y-14909D01*
X36047Y-15089D01*
X36115Y-15256D01*
X36243Y-15383D01*
X36409Y-15452D01*
X36589Y-15452D01*
X36756Y-15384D01*
X36883Y-15256D01*
X36952Y-15090D01*
X36952Y-14910D01*
X36952Y-20042D01*
X36250Y-20042D01*
X36183Y-20055D01*
X36170Y-20058D01*
X36103Y-20103D01*
X35952Y-20253D01*
X35952Y-14910D01*
X35884Y-14743D01*
X35756Y-14616D01*
X35590Y-14547D01*
X35410Y-14547D01*
X35243Y-14615D01*
X35116Y-14743D01*
X35047Y-14909D01*
X35047Y-15089D01*
X35115Y-15256D01*
X35243Y-15383D01*
X35409Y-15452D01*
X35589Y-15452D01*
X35756Y-15384D01*
X35883Y-15256D01*
X35952Y-15090D01*
X35952Y-14910D01*
X35952Y-20253D01*
X34952Y-21253D01*
X34952Y-14910D01*
X34884Y-14743D01*
X34756Y-14616D01*
X34590Y-14547D01*
X34410Y-14547D01*
X34243Y-14615D01*
X34116Y-14743D01*
X34047Y-14909D01*
X34047Y-15089D01*
X34115Y-15256D01*
X34243Y-15383D01*
X34409Y-15452D01*
X34589Y-15452D01*
X34756Y-15384D01*
X34883Y-15256D01*
X34952Y-15090D01*
X34952Y-14910D01*
X34952Y-21253D01*
X34353Y-21853D01*
X34308Y-21920D01*
X34292Y-22000D01*
X34292Y-22595D01*
X34243Y-22615D01*
X34116Y-22743D01*
X34047Y-22909D01*
X34047Y-23089D01*
X34115Y-23256D01*
X34243Y-23383D01*
X34409Y-23452D01*
X34589Y-23452D01*
X34756Y-23384D01*
X34883Y-23256D01*
X34952Y-23090D01*
X34952Y-22910D01*
X34884Y-22743D01*
X34756Y-22616D01*
X34707Y-22595D01*
X34707Y-22085D01*
X36335Y-20457D01*
X38750Y-20457D01*
X38829Y-20441D01*
X38829Y-20441D01*
X38896Y-20396D01*
X39646Y-19646D01*
X39646Y-19646D01*
X39676Y-19601D01*
X39691Y-19579D01*
X39691Y-19579D01*
X39707Y-19500D01*
X39707Y-19500D01*
X39707Y-19085D01*
X40335Y-18457D01*
X40831Y-18457D01*
X40889Y-18433D01*
X40933Y-18389D01*
X40957Y-18331D01*
X40957Y-18268D01*
X40957Y-18909D01*
X40888Y-18741D01*
X40759Y-18612D01*
X40591Y-18542D01*
X40409Y-18542D01*
X40241Y-18611D01*
X40112Y-18740D01*
X40042Y-18908D01*
X40042Y-19090D01*
X40111Y-19258D01*
X40240Y-19387D01*
X40408Y-19457D01*
X40590Y-19457D01*
X40758Y-19388D01*
X40887Y-19259D01*
X40957Y-19091D01*
X40957Y-18909D01*
X40957Y-19909D01*
X40888Y-19741D01*
X40759Y-19612D01*
X40591Y-19542D01*
X40409Y-19542D01*
X40241Y-19611D01*
X40112Y-19740D01*
X40042Y-19908D01*
X40042Y-20090D01*
X40111Y-20258D01*
X40240Y-20387D01*
X40408Y-20457D01*
X40590Y-20457D01*
X40758Y-20388D01*
X40887Y-20259D01*
X40957Y-20091D01*
X40957Y-19909D01*
X40957Y-24900D01*
X40915Y-24941D01*
X40765Y-25303D01*
X40765Y-25694D01*
X40914Y-26056D01*
X41191Y-26334D01*
X41553Y-26484D01*
X41944Y-26484D01*
X42306Y-26335D01*
X42584Y-26058D01*
X42734Y-25696D01*
X42734Y-25305D01*
X42734Y-26572D01*
X38952Y-26572D01*
X38952Y-22910D01*
X38884Y-22743D01*
X38756Y-22616D01*
X38590Y-22547D01*
X38410Y-22547D01*
X38243Y-22615D01*
X38116Y-22743D01*
X38047Y-22909D01*
X38047Y-23089D01*
X38115Y-23256D01*
X38243Y-23383D01*
X38292Y-23404D01*
X38292Y-23914D01*
X37952Y-24253D01*
X37952Y-22910D01*
X37884Y-22743D01*
X37756Y-22616D01*
X37590Y-22547D01*
X37410Y-22547D01*
X37243Y-22615D01*
X37116Y-22743D01*
X37047Y-22909D01*
X37047Y-23089D01*
X37115Y-23256D01*
X37243Y-23383D01*
X37409Y-23452D01*
X37589Y-23452D01*
X37756Y-23384D01*
X37883Y-23256D01*
X37952Y-23090D01*
X37952Y-22910D01*
X37952Y-24253D01*
X37914Y-24292D01*
X36952Y-24292D01*
X36952Y-22910D01*
X36884Y-22743D01*
X36756Y-22616D01*
X36590Y-22547D01*
X36410Y-22547D01*
X36243Y-22615D01*
X36116Y-22743D01*
X36047Y-22909D01*
X36047Y-23089D01*
X36115Y-23256D01*
X36243Y-23383D01*
X36409Y-23452D01*
X36589Y-23452D01*
X36756Y-23384D01*
X36883Y-23256D01*
X36952Y-23090D01*
X36952Y-22910D01*
X36952Y-24292D01*
X35952Y-24292D01*
X35952Y-22910D01*
X35884Y-22743D01*
X35756Y-22616D01*
X35590Y-22547D01*
X35410Y-22547D01*
X35243Y-22615D01*
X35116Y-22743D01*
X35047Y-22909D01*
X35047Y-23089D01*
X35115Y-23256D01*
X35243Y-23383D01*
X35409Y-23452D01*
X35589Y-23452D01*
X35756Y-23384D01*
X35883Y-23256D01*
X35952Y-23090D01*
X35952Y-22910D01*
X35952Y-24292D01*
X33952Y-24292D01*
X33952Y-22910D01*
X33952Y-14910D01*
X33884Y-14743D01*
X33756Y-14616D01*
X33590Y-14547D01*
X33410Y-14547D01*
X33243Y-14615D01*
X33116Y-14743D01*
X33047Y-14909D01*
X33047Y-15089D01*
X33115Y-15256D01*
X33243Y-15383D01*
X33409Y-15452D01*
X33589Y-15452D01*
X33756Y-15384D01*
X33883Y-15256D01*
X33952Y-15090D01*
X33952Y-14910D01*
X33952Y-22910D01*
X33884Y-22743D01*
X33756Y-22616D01*
X33590Y-22547D01*
X33410Y-22547D01*
X33243Y-22615D01*
X33116Y-22743D01*
X33047Y-22909D01*
X33047Y-23089D01*
X33115Y-23256D01*
X33243Y-23383D01*
X33409Y-23452D01*
X33589Y-23452D01*
X33756Y-23384D01*
X33883Y-23256D01*
X33952Y-23090D01*
X33952Y-22910D01*
X33952Y-24292D01*
X32952Y-24292D01*
X32952Y-22910D01*
X32952Y-14910D01*
X32884Y-14743D01*
X32756Y-14616D01*
X32590Y-14547D01*
X32410Y-14547D01*
X32243Y-14615D01*
X32116Y-14743D01*
X32047Y-14909D01*
X32047Y-15089D01*
X32115Y-15256D01*
X32243Y-15383D01*
X32409Y-15452D01*
X32589Y-15452D01*
X32756Y-15384D01*
X32883Y-15256D01*
X32952Y-15090D01*
X32952Y-14910D01*
X32952Y-22910D01*
X32884Y-22743D01*
X32756Y-22616D01*
X32590Y-22547D01*
X32410Y-22547D01*
X32243Y-22615D01*
X32116Y-22743D01*
X32047Y-22909D01*
X32047Y-23089D01*
X32115Y-23256D01*
X32243Y-23383D01*
X32409Y-23452D01*
X32589Y-23452D01*
X32756Y-23384D01*
X32883Y-23256D01*
X32952Y-23090D01*
X32952Y-22910D01*
X32952Y-24292D01*
X31952Y-24292D01*
X31952Y-22910D01*
X31952Y-14910D01*
X31884Y-14743D01*
X31756Y-14616D01*
X31602Y-14552D01*
X31602Y-13063D01*
X31602Y-11173D01*
X31578Y-11115D01*
X31534Y-11071D01*
X31476Y-11047D01*
X31413Y-11047D01*
X29523Y-11047D01*
X29465Y-11071D01*
X29421Y-11115D01*
X29397Y-11173D01*
X29397Y-11236D01*
X29397Y-13126D01*
X29421Y-13184D01*
X29465Y-13228D01*
X29523Y-13252D01*
X29586Y-13252D01*
X31476Y-13252D01*
X31534Y-13228D01*
X31578Y-13184D01*
X31602Y-13126D01*
X31602Y-13063D01*
X31602Y-14552D01*
X31590Y-14547D01*
X31410Y-14547D01*
X31243Y-14615D01*
X31116Y-14743D01*
X31047Y-14909D01*
X31047Y-15089D01*
X31115Y-15256D01*
X31243Y-15383D01*
X31409Y-15452D01*
X31589Y-15452D01*
X31756Y-15384D01*
X31883Y-15256D01*
X31952Y-15090D01*
X31952Y-14910D01*
X31952Y-22910D01*
X31884Y-22743D01*
X31756Y-22616D01*
X31590Y-22547D01*
X31410Y-22547D01*
X31243Y-22615D01*
X31116Y-22743D01*
X31047Y-22909D01*
X31047Y-23089D01*
X31115Y-23256D01*
X31243Y-23383D01*
X31409Y-23452D01*
X31589Y-23452D01*
X31756Y-23384D01*
X31883Y-23256D01*
X31952Y-23090D01*
X31952Y-22910D01*
X31952Y-24292D01*
X30952Y-24292D01*
X30952Y-22910D01*
X30952Y-14910D01*
X30884Y-14743D01*
X30756Y-14616D01*
X30590Y-14547D01*
X30410Y-14547D01*
X30243Y-14615D01*
X30116Y-14743D01*
X30047Y-14909D01*
X30047Y-15089D01*
X30115Y-15256D01*
X30243Y-15383D01*
X30409Y-15452D01*
X30589Y-15452D01*
X30756Y-15384D01*
X30883Y-15256D01*
X30952Y-15090D01*
X30952Y-14910D01*
X30952Y-22910D01*
X30884Y-22743D01*
X30756Y-22616D01*
X30590Y-22547D01*
X30582Y-22547D01*
X30582Y-18684D01*
X30532Y-18561D01*
X30438Y-18468D01*
X30316Y-18417D01*
X30184Y-18417D01*
X30061Y-18467D01*
X29987Y-18542D01*
X29952Y-18542D01*
X29952Y-14910D01*
X29884Y-14743D01*
X29756Y-14616D01*
X29590Y-14547D01*
X29410Y-14547D01*
X29243Y-14615D01*
X29116Y-14743D01*
X29047Y-14909D01*
X29047Y-15089D01*
X29115Y-15256D01*
X29243Y-15383D01*
X29409Y-15452D01*
X29589Y-15452D01*
X29756Y-15384D01*
X29883Y-15256D01*
X29952Y-15090D01*
X29952Y-14910D01*
X29952Y-18542D01*
X28952Y-18542D01*
X28952Y-14910D01*
X28884Y-14743D01*
X28756Y-14616D01*
X28590Y-14547D01*
X28410Y-14547D01*
X28243Y-14615D01*
X28116Y-14743D01*
X28047Y-14909D01*
X28047Y-15089D01*
X28115Y-15256D01*
X28243Y-15383D01*
X28409Y-15452D01*
X28589Y-15452D01*
X28756Y-15384D01*
X28883Y-15256D01*
X28952Y-15090D01*
X28952Y-14910D01*
X28952Y-18542D01*
X27952Y-18542D01*
X27952Y-14910D01*
X27884Y-14743D01*
X27756Y-14616D01*
X27590Y-14547D01*
X27410Y-14547D01*
X27243Y-14615D01*
X27116Y-14743D01*
X27047Y-14909D01*
X27047Y-15089D01*
X27115Y-15256D01*
X27243Y-15383D01*
X27409Y-15452D01*
X27589Y-15452D01*
X27756Y-15384D01*
X27883Y-15256D01*
X27952Y-15090D01*
X27952Y-14910D01*
X27952Y-18542D01*
X26952Y-18542D01*
X26952Y-14910D01*
X26884Y-14743D01*
X26756Y-14616D01*
X26590Y-14547D01*
X26548Y-14547D01*
X26548Y-10551D01*
X26434Y-10276D01*
X26224Y-10066D01*
X25949Y-9952D01*
X25651Y-9951D01*
X25376Y-10065D01*
X25166Y-10275D01*
X25052Y-10550D01*
X25051Y-10848D01*
X25165Y-11123D01*
X25375Y-11333D01*
X25650Y-11447D01*
X25948Y-11448D01*
X26223Y-11334D01*
X26433Y-11124D01*
X26547Y-10849D01*
X26548Y-10551D01*
X26548Y-14547D01*
X26410Y-14547D01*
X26243Y-14615D01*
X26116Y-14743D01*
X26047Y-14909D01*
X26047Y-15089D01*
X26115Y-15256D01*
X26243Y-15383D01*
X26409Y-15452D01*
X26589Y-15452D01*
X26756Y-15384D01*
X26883Y-15256D01*
X26952Y-15090D01*
X26952Y-14910D01*
X26952Y-18542D01*
X25952Y-18542D01*
X25952Y-14910D01*
X25884Y-14743D01*
X25756Y-14616D01*
X25590Y-14547D01*
X25410Y-14547D01*
X25243Y-14615D01*
X25116Y-14743D01*
X25047Y-14909D01*
X25047Y-15089D01*
X25115Y-15256D01*
X25243Y-15383D01*
X25409Y-15452D01*
X25589Y-15452D01*
X25756Y-15384D01*
X25883Y-15256D01*
X25952Y-15090D01*
X25952Y-14910D01*
X25952Y-18542D01*
X24952Y-18542D01*
X24952Y-14910D01*
X24884Y-14743D01*
X24853Y-14712D01*
X24853Y-11660D01*
X24784Y-11493D01*
X24656Y-11366D01*
X24490Y-11297D01*
X24310Y-11296D01*
X24143Y-11365D01*
X24016Y-11493D01*
X23947Y-11659D01*
X23946Y-11839D01*
X23996Y-11959D01*
X23853Y-12103D01*
X23853Y-11660D01*
X23784Y-11493D01*
X23656Y-11366D01*
X23490Y-11297D01*
X23310Y-11296D01*
X23143Y-11365D01*
X23016Y-11493D01*
X23000Y-11531D01*
X22984Y-11493D01*
X22856Y-11366D01*
X22690Y-11297D01*
X22510Y-11296D01*
X22343Y-11365D01*
X22216Y-11493D01*
X22147Y-11659D01*
X22146Y-11839D01*
X22215Y-12006D01*
X22343Y-12133D01*
X22509Y-12202D01*
X22689Y-12203D01*
X22856Y-12134D01*
X22983Y-12006D01*
X22999Y-11968D01*
X23015Y-12006D01*
X23143Y-12133D01*
X23309Y-12202D01*
X23489Y-12203D01*
X23656Y-12134D01*
X23783Y-12006D01*
X23852Y-11840D01*
X23853Y-11660D01*
X23853Y-12103D01*
X23414Y-12542D01*
X19250Y-12542D01*
X19170Y-12558D01*
X19148Y-12573D01*
X19103Y-12603D01*
X18103Y-13603D01*
X18058Y-13670D01*
X18042Y-13750D01*
X18042Y-15087D01*
X18032Y-15061D01*
X17957Y-14987D01*
X17957Y-13585D01*
X19585Y-11957D01*
X21195Y-11957D01*
X21215Y-12006D01*
X21343Y-12133D01*
X21509Y-12202D01*
X21689Y-12203D01*
X21856Y-12134D01*
X21983Y-12006D01*
X22052Y-11840D01*
X22053Y-11660D01*
X21984Y-11493D01*
X21856Y-11366D01*
X21690Y-11297D01*
X21510Y-11296D01*
X21343Y-11365D01*
X21216Y-11493D01*
X21195Y-11542D01*
X21148Y-11542D01*
X21148Y-10551D01*
X21034Y-10276D01*
X20824Y-10066D01*
X20549Y-9952D01*
X20251Y-9951D01*
X19976Y-10065D01*
X19766Y-10275D01*
X19652Y-10550D01*
X19651Y-10848D01*
X19765Y-11123D01*
X19975Y-11333D01*
X20250Y-11447D01*
X20548Y-11448D01*
X20823Y-11334D01*
X21033Y-11124D01*
X21147Y-10849D01*
X21148Y-10551D01*
X21148Y-11542D01*
X19500Y-11542D01*
X19433Y-11555D01*
X19420Y-11558D01*
X19353Y-11603D01*
X17734Y-13221D01*
X17734Y-8055D01*
X17585Y-7693D01*
X17308Y-7415D01*
X16946Y-7265D01*
X16555Y-7265D01*
X16193Y-7414D01*
X15915Y-7691D01*
X15765Y-8053D01*
X15765Y-8444D01*
X15914Y-8806D01*
X16191Y-9084D01*
X16553Y-9234D01*
X16944Y-9234D01*
X17306Y-9085D01*
X17584Y-8808D01*
X17734Y-8446D01*
X17734Y-8055D01*
X17734Y-13221D01*
X17603Y-13353D01*
X17558Y-13420D01*
X17542Y-13500D01*
X17542Y-14987D01*
X17468Y-15061D01*
X17417Y-15183D01*
X17417Y-15315D01*
X17467Y-15438D01*
X17561Y-15531D01*
X17683Y-15582D01*
X17815Y-15582D01*
X17938Y-15532D01*
X18031Y-15438D01*
X18042Y-15412D01*
X18042Y-15987D01*
X17968Y-16061D01*
X17917Y-16183D01*
X17917Y-16315D01*
X17967Y-16438D01*
X18061Y-16531D01*
X18183Y-16582D01*
X18315Y-16582D01*
X18438Y-16532D01*
X18531Y-16438D01*
X18582Y-16316D01*
X18582Y-16184D01*
X18532Y-16061D01*
X18457Y-15987D01*
X18457Y-13835D01*
X19335Y-12957D01*
X23500Y-12957D01*
X23579Y-12941D01*
X23579Y-12941D01*
X23646Y-12896D01*
X24340Y-12202D01*
X24489Y-12203D01*
X24656Y-12134D01*
X24783Y-12006D01*
X24852Y-11840D01*
X24853Y-11660D01*
X24853Y-14712D01*
X24756Y-14616D01*
X24590Y-14547D01*
X24410Y-14547D01*
X24243Y-14615D01*
X24116Y-14743D01*
X24047Y-14909D01*
X24047Y-15089D01*
X24115Y-15256D01*
X24243Y-15383D01*
X24409Y-15452D01*
X24589Y-15452D01*
X24756Y-15384D01*
X24883Y-15256D01*
X24952Y-15090D01*
X24952Y-14910D01*
X24952Y-18542D01*
X23952Y-18542D01*
X23952Y-14910D01*
X23884Y-14743D01*
X23756Y-14616D01*
X23590Y-14547D01*
X23410Y-14547D01*
X23243Y-14615D01*
X23116Y-14743D01*
X23047Y-14909D01*
X23047Y-15089D01*
X23115Y-15256D01*
X23243Y-15383D01*
X23409Y-15452D01*
X23589Y-15452D01*
X23756Y-15384D01*
X23883Y-15256D01*
X23952Y-15090D01*
X23952Y-14910D01*
X23952Y-18542D01*
X23500Y-18542D01*
X23420Y-18558D01*
X23398Y-18573D01*
X23353Y-18603D01*
X22952Y-19003D01*
X22952Y-14910D01*
X22884Y-14743D01*
X22756Y-14616D01*
X22590Y-14547D01*
X22410Y-14547D01*
X22243Y-14615D01*
X22116Y-14743D01*
X22047Y-14909D01*
X22047Y-15089D01*
X22115Y-15256D01*
X22243Y-15383D01*
X22409Y-15452D01*
X22589Y-15452D01*
X22756Y-15384D01*
X22883Y-15256D01*
X22952Y-15090D01*
X22952Y-14910D01*
X22952Y-19003D01*
X21952Y-20003D01*
X21952Y-14910D01*
X21884Y-14743D01*
X21756Y-14616D01*
X21590Y-14547D01*
X21410Y-14547D01*
X21243Y-14615D01*
X21116Y-14743D01*
X21047Y-14909D01*
X21047Y-15089D01*
X21115Y-15256D01*
X21243Y-15383D01*
X21409Y-15452D01*
X21589Y-15452D01*
X21756Y-15384D01*
X21883Y-15256D01*
X21952Y-15090D01*
X21952Y-14910D01*
X21952Y-20003D01*
X20952Y-21003D01*
X20952Y-14910D01*
X20884Y-14743D01*
X20756Y-14616D01*
X20590Y-14547D01*
X20410Y-14547D01*
X20243Y-14615D01*
X20116Y-14743D01*
X20047Y-14909D01*
X20047Y-15089D01*
X20115Y-15256D01*
X20243Y-15383D01*
X20409Y-15452D01*
X20589Y-15452D01*
X20756Y-15384D01*
X20883Y-15256D01*
X20952Y-15090D01*
X20952Y-14910D01*
X20952Y-21003D01*
X19952Y-22003D01*
X19952Y-14910D01*
X19884Y-14743D01*
X19756Y-14616D01*
X19590Y-14547D01*
X19410Y-14547D01*
X19243Y-14615D01*
X19116Y-14743D01*
X19047Y-14909D01*
X19047Y-15089D01*
X19115Y-15256D01*
X19243Y-15383D01*
X19409Y-15452D01*
X19589Y-15452D01*
X19756Y-15384D01*
X19883Y-15256D01*
X19952Y-15090D01*
X19952Y-14910D01*
X19952Y-22003D01*
X19408Y-22547D01*
X19243Y-22615D01*
X19116Y-22743D01*
X19047Y-22909D01*
X19047Y-23089D01*
X19115Y-23256D01*
X19243Y-23383D01*
X19409Y-23452D01*
X19589Y-23452D01*
X19639Y-23432D01*
X21603Y-25396D01*
X21603Y-25396D01*
X21648Y-25426D01*
X21670Y-25441D01*
X21670Y-25441D01*
X21750Y-25457D01*
X25164Y-25457D01*
X25667Y-25960D01*
X25667Y-26065D01*
X25717Y-26188D01*
X25811Y-26281D01*
X25933Y-26332D01*
X26065Y-26332D01*
X26188Y-26282D01*
X26281Y-26188D01*
X26332Y-26066D01*
X26332Y-25934D01*
X26282Y-25811D01*
X26188Y-25718D01*
X26066Y-25667D01*
X25960Y-25667D01*
X25952Y-25659D01*
X25952Y-22910D01*
X25884Y-22743D01*
X25756Y-22616D01*
X25590Y-22547D01*
X25410Y-22547D01*
X25243Y-22615D01*
X25116Y-22743D01*
X25047Y-22909D01*
X25047Y-23089D01*
X25115Y-23256D01*
X25243Y-23383D01*
X25409Y-23452D01*
X25589Y-23452D01*
X25756Y-23384D01*
X25883Y-23256D01*
X25952Y-23090D01*
X25952Y-22910D01*
X25952Y-25659D01*
X25396Y-25103D01*
X25332Y-25060D01*
X25332Y-23934D01*
X25282Y-23811D01*
X25188Y-23718D01*
X25066Y-23667D01*
X24952Y-23667D01*
X24952Y-22910D01*
X24884Y-22743D01*
X24756Y-22616D01*
X24590Y-22547D01*
X24410Y-22547D01*
X24243Y-22615D01*
X24116Y-22743D01*
X24047Y-22909D01*
X24047Y-23089D01*
X24115Y-23256D01*
X24243Y-23383D01*
X24409Y-23452D01*
X24589Y-23452D01*
X24756Y-23384D01*
X24883Y-23256D01*
X24952Y-23090D01*
X24952Y-22910D01*
X24952Y-23667D01*
X24934Y-23667D01*
X24811Y-23717D01*
X24737Y-23792D01*
X23952Y-23792D01*
X23952Y-22910D01*
X23884Y-22743D01*
X23756Y-22616D01*
X23590Y-22547D01*
X23410Y-22547D01*
X23243Y-22615D01*
X23116Y-22743D01*
X23047Y-22909D01*
X23047Y-23089D01*
X23115Y-23256D01*
X23243Y-23383D01*
X23409Y-23452D01*
X23589Y-23452D01*
X23756Y-23384D01*
X23883Y-23256D01*
X23952Y-23090D01*
X23952Y-22910D01*
X23952Y-23792D01*
X22952Y-23792D01*
X22952Y-22910D01*
X22884Y-22743D01*
X22756Y-22616D01*
X22590Y-22547D01*
X22410Y-22547D01*
X22243Y-22615D01*
X22116Y-22743D01*
X22047Y-22909D01*
X22047Y-23089D01*
X22115Y-23256D01*
X22243Y-23383D01*
X22409Y-23452D01*
X22589Y-23452D01*
X22756Y-23384D01*
X22883Y-23256D01*
X22952Y-23090D01*
X22952Y-22910D01*
X22952Y-23792D01*
X22762Y-23792D01*
X22688Y-23718D01*
X22566Y-23667D01*
X22434Y-23667D01*
X22311Y-23717D01*
X22218Y-23811D01*
X22167Y-23933D01*
X22167Y-24065D01*
X22217Y-24188D01*
X22311Y-24281D01*
X22433Y-24332D01*
X22565Y-24332D01*
X22688Y-24282D01*
X22762Y-24207D01*
X24737Y-24207D01*
X24811Y-24281D01*
X24933Y-24332D01*
X25065Y-24332D01*
X25188Y-24282D01*
X25281Y-24188D01*
X25332Y-24066D01*
X25332Y-23934D01*
X25332Y-25060D01*
X25329Y-25058D01*
X25250Y-25042D01*
X21952Y-25042D01*
X21952Y-22910D01*
X21884Y-22743D01*
X21756Y-22616D01*
X21590Y-22547D01*
X21410Y-22547D01*
X21243Y-22615D01*
X21116Y-22743D01*
X21047Y-22909D01*
X21047Y-23089D01*
X21115Y-23256D01*
X21243Y-23383D01*
X21409Y-23452D01*
X21589Y-23452D01*
X21756Y-23384D01*
X21883Y-23256D01*
X21952Y-23090D01*
X21952Y-22910D01*
X21952Y-25042D01*
X21835Y-25042D01*
X19932Y-23139D01*
X19952Y-23090D01*
X19952Y-22910D01*
X19884Y-22743D01*
X19841Y-22701D01*
X23585Y-18957D01*
X29987Y-18957D01*
X30061Y-19031D01*
X30183Y-19082D01*
X30315Y-19082D01*
X30438Y-19032D01*
X30531Y-18938D01*
X30582Y-18816D01*
X30582Y-18684D01*
X30582Y-22547D01*
X30410Y-22547D01*
X30243Y-22615D01*
X30116Y-22743D01*
X30047Y-22909D01*
X30047Y-23089D01*
X30115Y-23256D01*
X30243Y-23383D01*
X30409Y-23452D01*
X30589Y-23452D01*
X30756Y-23384D01*
X30883Y-23256D01*
X30952Y-23090D01*
X30952Y-22910D01*
X30952Y-24292D01*
X29952Y-24292D01*
X29952Y-22910D01*
X29884Y-22743D01*
X29756Y-22616D01*
X29590Y-22547D01*
X29410Y-22547D01*
X29243Y-22615D01*
X29116Y-22743D01*
X29047Y-22909D01*
X29047Y-23089D01*
X29115Y-23256D01*
X29243Y-23383D01*
X29409Y-23452D01*
X29589Y-23452D01*
X29756Y-23384D01*
X29883Y-23256D01*
X29952Y-23090D01*
X29952Y-22910D01*
X29952Y-24292D01*
X28952Y-24292D01*
X28952Y-22910D01*
X28884Y-22743D01*
X28756Y-22616D01*
X28590Y-22547D01*
X28410Y-22547D01*
X28243Y-22615D01*
X28116Y-22743D01*
X28047Y-22909D01*
X28047Y-23089D01*
X28115Y-23256D01*
X28243Y-23383D01*
X28409Y-23452D01*
X28589Y-23452D01*
X28756Y-23384D01*
X28883Y-23256D01*
X28952Y-23090D01*
X28952Y-22910D01*
X28952Y-24292D01*
X27952Y-24292D01*
X27952Y-22910D01*
X27884Y-22743D01*
X27756Y-22616D01*
X27590Y-22547D01*
X27410Y-22547D01*
X27243Y-22615D01*
X27116Y-22743D01*
X27047Y-22909D01*
X27047Y-23089D01*
X27115Y-23256D01*
X27243Y-23383D01*
X27409Y-23452D01*
X27589Y-23452D01*
X27756Y-23384D01*
X27883Y-23256D01*
X27952Y-23090D01*
X27952Y-22910D01*
X27952Y-24292D01*
X27012Y-24292D01*
X26952Y-24232D01*
X26952Y-22910D01*
X26884Y-22743D01*
X26756Y-22616D01*
X26590Y-22547D01*
X26410Y-22547D01*
X26243Y-22615D01*
X26116Y-22743D01*
X26047Y-22909D01*
X26047Y-23089D01*
X26115Y-23256D01*
X26243Y-23383D01*
X26409Y-23452D01*
X26589Y-23452D01*
X26756Y-23384D01*
X26883Y-23256D01*
X26952Y-23090D01*
X26952Y-22910D01*
X26952Y-24232D01*
X26938Y-24218D01*
X26816Y-24167D01*
X26684Y-24167D01*
X26561Y-24217D01*
X26468Y-24311D01*
X26417Y-24433D01*
X26417Y-24565D01*
X26467Y-24688D01*
X26561Y-24781D01*
X26683Y-24832D01*
X26815Y-24832D01*
X26938Y-24782D01*
X27012Y-24707D01*
X38000Y-24707D01*
X38079Y-24691D01*
X38079Y-24691D01*
X38146Y-24646D01*
X38646Y-24146D01*
X38691Y-24079D01*
X38691Y-24079D01*
X38694Y-24066D01*
X38707Y-24000D01*
X38707Y-24000D01*
X38707Y-23404D01*
X38756Y-23384D01*
X38883Y-23256D01*
X38952Y-23090D01*
X38952Y-22910D01*
X38952Y-26572D01*
X17734Y-26572D01*
X17734Y-25305D01*
X17585Y-24943D01*
X17308Y-24665D01*
X16946Y-24515D01*
X16555Y-24515D01*
X16193Y-24664D01*
X15915Y-24941D01*
X15765Y-25303D01*
X15765Y-25694D01*
X15914Y-26056D01*
X16191Y-26334D01*
X16553Y-26484D01*
X16944Y-26484D01*
X17306Y-26335D01*
X17584Y-26058D01*
X17734Y-25696D01*
X17734Y-25305D01*
X17734Y-26572D01*
X15677Y-26572D01*
X15677Y-7177D01*
X42822Y-7177D01*
X42822Y-26572D01*
M02*
