M48
;DRILL file {Pcbnew (2013-03-31 BZR 4008)-stable} date 15.09.2013 15:25:43
;FORMAT={-:-/ absolute / inch / decimal}
FMAT,2
INCH,TZ
T1C0.024
T2C0.025
T3C0.035
T4C0.039
T5C0.040
T6C0.091
T7C0.130
%
G90
G05
M72
T1
X1.95Y-1.4
X1.95Y-2.3
X2.05Y-1.4
X2.05Y-2.3
X2.15Y-1.4
X2.15Y-2.3
X2.25Y-1.4
X2.25Y-2.3
X2.35Y-1.4
X2.35Y-2.3
X2.45Y-1.4
X2.45Y-2.3
X2.55Y-1.4
X2.55Y-2.3
X2.65Y-1.4
X2.65Y-2.3
X2.75Y-1.4
X2.75Y-2.3
X2.85Y-1.4
X2.85Y-2.3
X2.95Y-1.4
X2.95Y-2.3
X3.05Y-1.4
X3.05Y-2.3
X3.15Y-1.4
X3.15Y-2.3
X3.25Y-1.4
X3.25Y-2.3
X3.35Y-1.4
X3.35Y-2.3
X3.45Y-1.4
X3.45Y-2.3
X3.55Y-1.4
X3.55Y-2.3
X3.65Y-1.4
X3.65Y-2.3
X3.75Y-1.4
X3.75Y-2.3
X3.85Y-1.4
X3.85Y-2.3
T2
X1.725Y-2.125
X1.775Y-1.425
X1.825Y-1.625
X2.125Y-1.875
X2.15Y-2.475
X2.25Y-1.875
X2.325Y-2.6
X2.5Y-2.4
X2.525Y-2.6
X2.575Y-1.95
X2.6Y-2.6
X2.625Y-2.5
X3.075Y-1.975
X3.25Y-2.4
X3.5Y-1.25
X3.6Y-1.775
X3.75Y-1.075
T3
X3.375Y-0.7258
X3.375Y-0.8242
X3.65Y-0.7258
X3.65Y-0.8242
X3.925Y-0.7258
X3.925Y-0.8242
T4
X2.16Y-1.075
X2.26Y-1.075
X2.34Y-1.075
X2.44Y-1.075
T5
X4.05Y-1.8
X4.05Y-1.9
X4.05Y-2.
X4.15Y-1.8
X4.15Y-1.9
X4.15Y-2.
T6
X2.04Y-0.97
X2.58Y-0.97
T7
X1.675Y-0.725
X1.675Y-2.55
X4.175Y-0.725
X4.175Y-2.55
T5
X2.85Y-0.935G85X2.85Y-0.995
G05
X3.08Y-0.875G85X3.02Y-0.875
G05
X3.08Y-1.115G85X3.02Y-1.115
G05
T0
M30
