G04 (created by PCBNEW (2013-03-31 BZR 4008)-stable) date 13.09.2013 22:32:34*
%MOIN*%
G04 Gerber Fmt 3.4, Leading zero omitted, Abs format*
%FSLAX34Y34*%
G01*
G70*
G90*
G04 APERTURE LIST*
%ADD10C,0.006*%
%ADD11C,0.0591*%
%ADD12C,0.1181*%
%ADD13R,0.06X0.06*%
%ADD14C,0.06*%
%ADD15C,0.189*%
%ADD16R,0.189X0.189*%
%ADD17C,0.0590551*%
%ADD18C,0.1654*%
G04 APERTURE END LIST*
G54D10*
G54D11*
X21600Y-11750D03*
X22600Y-11750D03*
X23400Y-11750D03*
X24400Y-11750D03*
G54D12*
X20400Y-10700D03*
X25800Y-10700D03*
G54D13*
X40500Y-18000D03*
G54D14*
X41500Y-18000D03*
X40500Y-19000D03*
X41500Y-19000D03*
X40500Y-20000D03*
X41500Y-20000D03*
G54D15*
X30500Y-9750D03*
G54D16*
X30500Y-12150D03*
G54D15*
X28500Y-10650D03*
G54D17*
X19500Y-23000D03*
X20500Y-23000D03*
X21500Y-23000D03*
X22500Y-23000D03*
X23500Y-23000D03*
X24500Y-23000D03*
X25500Y-23000D03*
X26500Y-23000D03*
X27500Y-23000D03*
X28500Y-23000D03*
X29500Y-23000D03*
X30500Y-23000D03*
X31500Y-23000D03*
X32500Y-23000D03*
X33500Y-23000D03*
X34500Y-23000D03*
X35500Y-23000D03*
X36500Y-23000D03*
X37500Y-23000D03*
X38500Y-23000D03*
X38500Y-15000D03*
X37500Y-15000D03*
X36500Y-15000D03*
X35500Y-15000D03*
X34500Y-15000D03*
X33500Y-15000D03*
X32500Y-15000D03*
X31500Y-15000D03*
X30500Y-15000D03*
X29500Y-15000D03*
X28500Y-15000D03*
X27500Y-15000D03*
X26500Y-15000D03*
X25500Y-15000D03*
X24500Y-15000D03*
X23500Y-15000D03*
X22500Y-15000D03*
X21500Y-15000D03*
X20500Y-15000D03*
X19500Y-15000D03*
G54D18*
X41750Y-8250D03*
X41750Y-25500D03*
X16750Y-25500D03*
X16750Y-8250D03*
M02*
