G04 (created by PCBNEW (2013-03-31 BZR 4008)-stable) date 15.09.2013 15:25:41*
%MOIN*%
G04 Gerber Fmt 3.4, Leading zero omitted, Abs format*
%FSLAX34Y34*%
G01*
G70*
G90*
G04 APERTURE LIST*
%ADD10C,0.006*%
%ADD11C,0.011811*%
%ADD12C,0.00787402*%
%ADD13C,0.005*%
%ADD14C,0.008*%
%ADD15C,0.0039*%
%ADD16C,0.0026*%
%ADD17C,0.004*%
%ADD18C,0.002*%
%ADD19C,0.015*%
%ADD20C,0.0031*%
%ADD21C,0.012*%
%ADD22C,0.0043*%
%ADD23C,0.01*%
%ADD24C,0.0079*%
%ADD25C,0.0047*%
%ADD26C,0.00590551*%
G04 APERTURE END LIST*
G54D10*
G54D11*
X19148Y-8495D02*
X19626Y-8495D01*
X19682Y-8467D01*
X19710Y-8438D01*
X19739Y-8382D01*
X19739Y-8270D01*
X19710Y-8214D01*
X19682Y-8185D01*
X19626Y-8157D01*
X19148Y-8157D01*
X19710Y-7904D02*
X19739Y-7820D01*
X19739Y-7679D01*
X19710Y-7623D01*
X19682Y-7595D01*
X19626Y-7567D01*
X19570Y-7567D01*
X19514Y-7595D01*
X19485Y-7623D01*
X19457Y-7679D01*
X19429Y-7792D01*
X19401Y-7848D01*
X19373Y-7876D01*
X19317Y-7904D01*
X19260Y-7904D01*
X19204Y-7876D01*
X19176Y-7848D01*
X19148Y-7792D01*
X19148Y-7651D01*
X19176Y-7567D01*
X19429Y-7117D02*
X19457Y-7032D01*
X19485Y-7004D01*
X19542Y-6976D01*
X19626Y-6976D01*
X19682Y-7004D01*
X19710Y-7032D01*
X19739Y-7089D01*
X19739Y-7314D01*
X19148Y-7314D01*
X19148Y-7117D01*
X19176Y-7061D01*
X19204Y-7032D01*
X19260Y-7004D01*
X19317Y-7004D01*
X19373Y-7032D01*
X19401Y-7061D01*
X19429Y-7117D01*
X19429Y-7314D01*
G54D12*
X26515Y-26221D02*
X26909Y-26090D01*
X26515Y-25959D01*
X26515Y-25828D02*
X26834Y-25828D01*
X26871Y-25809D01*
X26890Y-25790D01*
X26909Y-25753D01*
X26909Y-25678D01*
X26890Y-25640D01*
X26871Y-25621D01*
X26834Y-25603D01*
X26515Y-25603D01*
X26890Y-25434D02*
X26909Y-25378D01*
X26909Y-25284D01*
X26890Y-25246D01*
X26871Y-25228D01*
X26834Y-25209D01*
X26796Y-25209D01*
X26759Y-25228D01*
X26740Y-25246D01*
X26721Y-25284D01*
X26703Y-25359D01*
X26684Y-25396D01*
X26665Y-25415D01*
X26628Y-25434D01*
X26590Y-25434D01*
X26553Y-25415D01*
X26534Y-25396D01*
X26515Y-25359D01*
X26515Y-25265D01*
X26534Y-25209D01*
X26703Y-24909D02*
X26721Y-24853D01*
X26740Y-24834D01*
X26778Y-24815D01*
X26834Y-24815D01*
X26871Y-24834D01*
X26890Y-24853D01*
X26909Y-24890D01*
X26909Y-25040D01*
X26515Y-25040D01*
X26515Y-24909D01*
X26534Y-24871D01*
X26553Y-24853D01*
X26590Y-24834D01*
X26628Y-24834D01*
X26665Y-24853D01*
X26684Y-24871D01*
X26703Y-24909D01*
X26703Y-25040D01*
X27520Y-26174D02*
X27539Y-26137D01*
X27539Y-26062D01*
X27520Y-26024D01*
X27483Y-26006D01*
X27464Y-26006D01*
X27426Y-26024D01*
X27408Y-26062D01*
X27408Y-26118D01*
X27389Y-26156D01*
X27351Y-26174D01*
X27333Y-26174D01*
X27295Y-26156D01*
X27276Y-26118D01*
X27276Y-26062D01*
X27295Y-26024D01*
X27539Y-25837D02*
X27145Y-25837D01*
X27539Y-25668D02*
X27333Y-25668D01*
X27295Y-25687D01*
X27276Y-25724D01*
X27276Y-25781D01*
X27295Y-25818D01*
X27314Y-25837D01*
X27539Y-25425D02*
X27520Y-25462D01*
X27501Y-25481D01*
X27464Y-25500D01*
X27351Y-25500D01*
X27314Y-25481D01*
X27295Y-25462D01*
X27276Y-25425D01*
X27276Y-25368D01*
X27295Y-25331D01*
X27314Y-25312D01*
X27351Y-25293D01*
X27464Y-25293D01*
X27501Y-25312D01*
X27520Y-25331D01*
X27539Y-25368D01*
X27539Y-25425D01*
X27539Y-25125D02*
X27276Y-25125D01*
X27351Y-25125D02*
X27314Y-25106D01*
X27295Y-25087D01*
X27276Y-25050D01*
X27276Y-25012D01*
X27276Y-24937D02*
X27276Y-24787D01*
X27145Y-24881D02*
X27483Y-24881D01*
X27520Y-24862D01*
X27539Y-24825D01*
X27539Y-24787D01*
G54D11*
X28014Y-8290D02*
X28014Y-7840D01*
X28239Y-8065D02*
X27789Y-8065D01*
X28239Y-7249D02*
X28239Y-7587D01*
X28239Y-7418D02*
X27648Y-7418D01*
X27732Y-7474D01*
X27789Y-7531D01*
X27817Y-7587D01*
X27648Y-6715D02*
X27648Y-6996D01*
X27929Y-7025D01*
X27901Y-6996D01*
X27873Y-6940D01*
X27873Y-6800D01*
X27901Y-6743D01*
X27929Y-6715D01*
X27985Y-6687D01*
X28126Y-6687D01*
X28182Y-6715D01*
X28210Y-6743D01*
X28239Y-6800D01*
X28239Y-6940D01*
X28210Y-6996D01*
X28182Y-7025D01*
X27648Y-6518D02*
X28239Y-6321D01*
X27648Y-6125D01*
G54D12*
X42659Y-20696D02*
X42265Y-20696D01*
X42265Y-20546D01*
X42284Y-20509D01*
X42303Y-20490D01*
X42340Y-20471D01*
X42396Y-20471D01*
X42434Y-20490D01*
X42453Y-20509D01*
X42471Y-20546D01*
X42471Y-20696D01*
X42659Y-20302D02*
X42396Y-20302D01*
X42471Y-20302D02*
X42434Y-20284D01*
X42415Y-20265D01*
X42396Y-20227D01*
X42396Y-20190D01*
X42659Y-20002D02*
X42640Y-20040D01*
X42621Y-20059D01*
X42584Y-20077D01*
X42471Y-20077D01*
X42434Y-20059D01*
X42415Y-20040D01*
X42396Y-20002D01*
X42396Y-19946D01*
X42415Y-19909D01*
X42434Y-19890D01*
X42471Y-19871D01*
X42584Y-19871D01*
X42621Y-19890D01*
X42640Y-19909D01*
X42659Y-19946D01*
X42659Y-20002D01*
X42396Y-19534D02*
X42715Y-19534D01*
X42753Y-19553D01*
X42771Y-19571D01*
X42790Y-19609D01*
X42790Y-19665D01*
X42771Y-19703D01*
X42640Y-19534D02*
X42659Y-19571D01*
X42659Y-19646D01*
X42640Y-19684D01*
X42621Y-19703D01*
X42584Y-19721D01*
X42471Y-19721D01*
X42434Y-19703D01*
X42415Y-19684D01*
X42396Y-19646D01*
X42396Y-19571D01*
X42415Y-19534D01*
X42659Y-19346D02*
X42396Y-19346D01*
X42471Y-19346D02*
X42434Y-19328D01*
X42415Y-19309D01*
X42396Y-19271D01*
X42396Y-19234D01*
X42659Y-18934D02*
X42453Y-18934D01*
X42415Y-18953D01*
X42396Y-18990D01*
X42396Y-19065D01*
X42415Y-19103D01*
X42640Y-18934D02*
X42659Y-18971D01*
X42659Y-19065D01*
X42640Y-19103D01*
X42603Y-19121D01*
X42565Y-19121D01*
X42528Y-19103D01*
X42509Y-19065D01*
X42509Y-18971D01*
X42490Y-18934D01*
X42659Y-18746D02*
X42396Y-18746D01*
X42434Y-18746D02*
X42415Y-18728D01*
X42396Y-18690D01*
X42396Y-18634D01*
X42415Y-18596D01*
X42453Y-18578D01*
X42659Y-18578D01*
X42453Y-18578D02*
X42415Y-18559D01*
X42396Y-18521D01*
X42396Y-18465D01*
X42415Y-18428D01*
X42453Y-18409D01*
X42659Y-18409D01*
X42659Y-18221D02*
X42396Y-18221D01*
X42434Y-18221D02*
X42415Y-18203D01*
X42396Y-18165D01*
X42396Y-18109D01*
X42415Y-18071D01*
X42453Y-18053D01*
X42659Y-18053D01*
X42453Y-18053D02*
X42415Y-18034D01*
X42396Y-17997D01*
X42396Y-17940D01*
X42415Y-17903D01*
X42453Y-17884D01*
X42659Y-17884D01*
X42640Y-17547D02*
X42659Y-17584D01*
X42659Y-17659D01*
X42640Y-17697D01*
X42603Y-17715D01*
X42453Y-17715D01*
X42415Y-17697D01*
X42396Y-17659D01*
X42396Y-17584D01*
X42415Y-17547D01*
X42453Y-17528D01*
X42490Y-17528D01*
X42528Y-17715D01*
X42659Y-17359D02*
X42396Y-17359D01*
X42471Y-17359D02*
X42434Y-17340D01*
X42415Y-17322D01*
X42396Y-17284D01*
X42396Y-17247D01*
X41265Y-17374D02*
X41659Y-17243D01*
X41265Y-17112D01*
X41509Y-16981D02*
X41509Y-16681D01*
X41659Y-16831D02*
X41359Y-16831D01*
X41284Y-21549D02*
X41265Y-21587D01*
X41265Y-21643D01*
X41284Y-21699D01*
X41321Y-21737D01*
X41359Y-21756D01*
X41434Y-21774D01*
X41490Y-21774D01*
X41565Y-21756D01*
X41603Y-21737D01*
X41640Y-21699D01*
X41659Y-21643D01*
X41659Y-21606D01*
X41640Y-21549D01*
X41621Y-21531D01*
X41490Y-21531D01*
X41490Y-21606D01*
X41659Y-21362D02*
X41265Y-21362D01*
X41659Y-21137D01*
X41265Y-21137D01*
X41659Y-20950D02*
X41265Y-20950D01*
X41265Y-20856D01*
X41284Y-20800D01*
X41321Y-20762D01*
X41359Y-20743D01*
X41434Y-20725D01*
X41490Y-20725D01*
X41565Y-20743D01*
X41603Y-20762D01*
X41640Y-20800D01*
X41659Y-20856D01*
X41659Y-20950D01*
X40409Y-20628D02*
X40221Y-20759D01*
X40409Y-20853D02*
X40015Y-20853D01*
X40015Y-20703D01*
X40034Y-20665D01*
X40053Y-20646D01*
X40090Y-20628D01*
X40146Y-20628D01*
X40184Y-20646D01*
X40203Y-20665D01*
X40221Y-20703D01*
X40221Y-20853D01*
X40409Y-17393D02*
X40015Y-17393D01*
X40015Y-17243D01*
X40034Y-17206D01*
X40053Y-17187D01*
X40090Y-17168D01*
X40146Y-17168D01*
X40184Y-17187D01*
X40203Y-17206D01*
X40221Y-17243D01*
X40221Y-17393D01*
X40409Y-17000D02*
X40015Y-17000D01*
X40015Y-16906D01*
X40034Y-16850D01*
X40071Y-16812D01*
X40109Y-16793D01*
X40184Y-16775D01*
X40240Y-16775D01*
X40315Y-16793D01*
X40353Y-16812D01*
X40390Y-16850D01*
X40409Y-16906D01*
X40409Y-17000D01*
X40409Y-16606D02*
X40015Y-16606D01*
X36909Y-26559D02*
X36515Y-26559D01*
X36515Y-26465D01*
X36534Y-26409D01*
X36571Y-26371D01*
X36609Y-26353D01*
X36684Y-26334D01*
X36740Y-26334D01*
X36815Y-26353D01*
X36853Y-26371D01*
X36890Y-26409D01*
X36909Y-26465D01*
X36909Y-26559D01*
X36759Y-26165D02*
X36759Y-25865D01*
X36909Y-26015D02*
X36609Y-26015D01*
X36703Y-25378D02*
X36703Y-25246D01*
X36909Y-25190D02*
X36909Y-25378D01*
X36515Y-25378D01*
X36515Y-25190D01*
X36890Y-25040D02*
X36909Y-24984D01*
X36909Y-24890D01*
X36890Y-24853D01*
X36871Y-24834D01*
X36834Y-24815D01*
X36796Y-24815D01*
X36759Y-24834D01*
X36740Y-24853D01*
X36721Y-24890D01*
X36703Y-24965D01*
X36684Y-25003D01*
X36665Y-25021D01*
X36628Y-25040D01*
X36590Y-25040D01*
X36553Y-25021D01*
X36534Y-25003D01*
X36515Y-24965D01*
X36515Y-24871D01*
X36534Y-24815D01*
X36909Y-24646D02*
X36515Y-24646D01*
X36515Y-24553D01*
X36534Y-24497D01*
X36571Y-24459D01*
X36609Y-24440D01*
X36684Y-24422D01*
X36740Y-24422D01*
X36815Y-24440D01*
X36853Y-24459D01*
X36890Y-24497D01*
X36909Y-24553D01*
X36909Y-24646D01*
X37389Y-26502D02*
X37389Y-26203D01*
X37539Y-25659D02*
X37520Y-25696D01*
X37501Y-25715D01*
X37464Y-25734D01*
X37351Y-25734D01*
X37314Y-25715D01*
X37295Y-25696D01*
X37276Y-25659D01*
X37276Y-25603D01*
X37295Y-25565D01*
X37314Y-25546D01*
X37351Y-25528D01*
X37464Y-25528D01*
X37501Y-25546D01*
X37520Y-25565D01*
X37539Y-25603D01*
X37539Y-25659D01*
X37276Y-25359D02*
X37670Y-25359D01*
X37295Y-25359D02*
X37276Y-25321D01*
X37276Y-25246D01*
X37295Y-25209D01*
X37314Y-25190D01*
X37351Y-25171D01*
X37464Y-25171D01*
X37501Y-25190D01*
X37520Y-25209D01*
X37539Y-25246D01*
X37539Y-25321D01*
X37520Y-25359D01*
X37520Y-24853D02*
X37539Y-24890D01*
X37539Y-24965D01*
X37520Y-25003D01*
X37483Y-25021D01*
X37333Y-25021D01*
X37295Y-25003D01*
X37276Y-24965D01*
X37276Y-24890D01*
X37295Y-24853D01*
X37333Y-24834D01*
X37370Y-24834D01*
X37408Y-25021D01*
X37276Y-24665D02*
X37539Y-24665D01*
X37314Y-24665D02*
X37295Y-24646D01*
X37276Y-24609D01*
X37276Y-24553D01*
X37295Y-24515D01*
X37333Y-24497D01*
X37539Y-24497D01*
X34909Y-26559D02*
X34515Y-26559D01*
X34515Y-26465D01*
X34534Y-26409D01*
X34571Y-26371D01*
X34609Y-26353D01*
X34684Y-26334D01*
X34740Y-26334D01*
X34815Y-26353D01*
X34853Y-26371D01*
X34890Y-26409D01*
X34909Y-26465D01*
X34909Y-26559D01*
X34759Y-26165D02*
X34759Y-25865D01*
X34703Y-25378D02*
X34703Y-25246D01*
X34909Y-25190D02*
X34909Y-25378D01*
X34515Y-25378D01*
X34515Y-25190D01*
X34890Y-25040D02*
X34909Y-24984D01*
X34909Y-24890D01*
X34890Y-24853D01*
X34871Y-24834D01*
X34834Y-24815D01*
X34796Y-24815D01*
X34759Y-24834D01*
X34740Y-24853D01*
X34721Y-24890D01*
X34703Y-24965D01*
X34684Y-25003D01*
X34665Y-25021D01*
X34628Y-25040D01*
X34590Y-25040D01*
X34553Y-25021D01*
X34534Y-25003D01*
X34515Y-24965D01*
X34515Y-24871D01*
X34534Y-24815D01*
X34909Y-24646D02*
X34515Y-24646D01*
X34515Y-24553D01*
X34534Y-24497D01*
X34571Y-24459D01*
X34609Y-24440D01*
X34684Y-24422D01*
X34740Y-24422D01*
X34815Y-24440D01*
X34853Y-24459D01*
X34890Y-24497D01*
X34909Y-24553D01*
X34909Y-24646D01*
X35389Y-26502D02*
X35389Y-26203D01*
X35539Y-25659D02*
X35520Y-25696D01*
X35501Y-25715D01*
X35464Y-25734D01*
X35351Y-25734D01*
X35314Y-25715D01*
X35295Y-25696D01*
X35276Y-25659D01*
X35276Y-25603D01*
X35295Y-25565D01*
X35314Y-25546D01*
X35351Y-25528D01*
X35464Y-25528D01*
X35501Y-25546D01*
X35520Y-25565D01*
X35539Y-25603D01*
X35539Y-25659D01*
X35276Y-25359D02*
X35670Y-25359D01*
X35295Y-25359D02*
X35276Y-25321D01*
X35276Y-25246D01*
X35295Y-25209D01*
X35314Y-25190D01*
X35351Y-25171D01*
X35464Y-25171D01*
X35501Y-25190D01*
X35520Y-25209D01*
X35539Y-25246D01*
X35539Y-25321D01*
X35520Y-25359D01*
X35520Y-24853D02*
X35539Y-24890D01*
X35539Y-24965D01*
X35520Y-25003D01*
X35483Y-25021D01*
X35333Y-25021D01*
X35295Y-25003D01*
X35276Y-24965D01*
X35276Y-24890D01*
X35295Y-24853D01*
X35333Y-24834D01*
X35370Y-24834D01*
X35408Y-25021D01*
X35276Y-24665D02*
X35539Y-24665D01*
X35314Y-24665D02*
X35295Y-24646D01*
X35276Y-24609D01*
X35276Y-24553D01*
X35295Y-24515D01*
X35333Y-24497D01*
X35539Y-24497D01*
X32909Y-26559D02*
X32515Y-26559D01*
X32515Y-26465D01*
X32534Y-26409D01*
X32571Y-26371D01*
X32609Y-26353D01*
X32684Y-26334D01*
X32740Y-26334D01*
X32815Y-26353D01*
X32853Y-26371D01*
X32890Y-26409D01*
X32909Y-26465D01*
X32909Y-26559D01*
X32759Y-26165D02*
X32759Y-25865D01*
X32909Y-26015D02*
X32609Y-26015D01*
X32703Y-25378D02*
X32703Y-25246D01*
X32909Y-25190D02*
X32909Y-25378D01*
X32515Y-25378D01*
X32515Y-25190D01*
X32890Y-25040D02*
X32909Y-24984D01*
X32909Y-24890D01*
X32890Y-24853D01*
X32871Y-24834D01*
X32834Y-24815D01*
X32796Y-24815D01*
X32759Y-24834D01*
X32740Y-24853D01*
X32721Y-24890D01*
X32703Y-24965D01*
X32684Y-25003D01*
X32665Y-25021D01*
X32628Y-25040D01*
X32590Y-25040D01*
X32553Y-25021D01*
X32534Y-25003D01*
X32515Y-24965D01*
X32515Y-24871D01*
X32534Y-24815D01*
X32909Y-24646D02*
X32515Y-24646D01*
X32515Y-24553D01*
X32534Y-24497D01*
X32571Y-24459D01*
X32609Y-24440D01*
X32684Y-24422D01*
X32740Y-24422D01*
X32815Y-24440D01*
X32853Y-24459D01*
X32890Y-24497D01*
X32909Y-24553D01*
X32909Y-24646D01*
X33389Y-26502D02*
X33389Y-26203D01*
X33539Y-26353D02*
X33239Y-26353D01*
X33539Y-25659D02*
X33520Y-25696D01*
X33501Y-25715D01*
X33464Y-25734D01*
X33351Y-25734D01*
X33314Y-25715D01*
X33295Y-25696D01*
X33276Y-25659D01*
X33276Y-25603D01*
X33295Y-25565D01*
X33314Y-25546D01*
X33351Y-25528D01*
X33464Y-25528D01*
X33501Y-25546D01*
X33520Y-25565D01*
X33539Y-25603D01*
X33539Y-25659D01*
X33276Y-25359D02*
X33670Y-25359D01*
X33295Y-25359D02*
X33276Y-25321D01*
X33276Y-25246D01*
X33295Y-25209D01*
X33314Y-25190D01*
X33351Y-25171D01*
X33464Y-25171D01*
X33501Y-25190D01*
X33520Y-25209D01*
X33539Y-25246D01*
X33539Y-25321D01*
X33520Y-25359D01*
X33520Y-24853D02*
X33539Y-24890D01*
X33539Y-24965D01*
X33520Y-25003D01*
X33483Y-25021D01*
X33333Y-25021D01*
X33295Y-25003D01*
X33276Y-24965D01*
X33276Y-24890D01*
X33295Y-24853D01*
X33333Y-24834D01*
X33370Y-24834D01*
X33408Y-25021D01*
X33276Y-24665D02*
X33539Y-24665D01*
X33314Y-24665D02*
X33295Y-24646D01*
X33276Y-24609D01*
X33276Y-24553D01*
X33295Y-24515D01*
X33333Y-24497D01*
X33539Y-24497D01*
X30909Y-26559D02*
X30515Y-26559D01*
X30515Y-26465D01*
X30534Y-26409D01*
X30571Y-26371D01*
X30609Y-26353D01*
X30684Y-26334D01*
X30740Y-26334D01*
X30815Y-26353D01*
X30853Y-26371D01*
X30890Y-26409D01*
X30909Y-26465D01*
X30909Y-26559D01*
X30759Y-26165D02*
X30759Y-25865D01*
X30703Y-25378D02*
X30703Y-25246D01*
X30909Y-25190D02*
X30909Y-25378D01*
X30515Y-25378D01*
X30515Y-25190D01*
X30890Y-25040D02*
X30909Y-24984D01*
X30909Y-24890D01*
X30890Y-24853D01*
X30871Y-24834D01*
X30834Y-24815D01*
X30796Y-24815D01*
X30759Y-24834D01*
X30740Y-24853D01*
X30721Y-24890D01*
X30703Y-24965D01*
X30684Y-25003D01*
X30665Y-25021D01*
X30628Y-25040D01*
X30590Y-25040D01*
X30553Y-25021D01*
X30534Y-25003D01*
X30515Y-24965D01*
X30515Y-24871D01*
X30534Y-24815D01*
X30909Y-24646D02*
X30515Y-24646D01*
X30515Y-24553D01*
X30534Y-24497D01*
X30571Y-24459D01*
X30609Y-24440D01*
X30684Y-24422D01*
X30740Y-24422D01*
X30815Y-24440D01*
X30853Y-24459D01*
X30890Y-24497D01*
X30909Y-24553D01*
X30909Y-24646D01*
X31389Y-26502D02*
X31389Y-26203D01*
X31539Y-26353D02*
X31239Y-26353D01*
X31539Y-25659D02*
X31520Y-25696D01*
X31501Y-25715D01*
X31464Y-25734D01*
X31351Y-25734D01*
X31314Y-25715D01*
X31295Y-25696D01*
X31276Y-25659D01*
X31276Y-25603D01*
X31295Y-25565D01*
X31314Y-25546D01*
X31351Y-25528D01*
X31464Y-25528D01*
X31501Y-25546D01*
X31520Y-25565D01*
X31539Y-25603D01*
X31539Y-25659D01*
X31276Y-25359D02*
X31670Y-25359D01*
X31295Y-25359D02*
X31276Y-25321D01*
X31276Y-25246D01*
X31295Y-25209D01*
X31314Y-25190D01*
X31351Y-25171D01*
X31464Y-25171D01*
X31501Y-25190D01*
X31520Y-25209D01*
X31539Y-25246D01*
X31539Y-25321D01*
X31520Y-25359D01*
X31520Y-24853D02*
X31539Y-24890D01*
X31539Y-24965D01*
X31520Y-25003D01*
X31483Y-25021D01*
X31333Y-25021D01*
X31295Y-25003D01*
X31276Y-24965D01*
X31276Y-24890D01*
X31295Y-24853D01*
X31333Y-24834D01*
X31370Y-24834D01*
X31408Y-25021D01*
X31276Y-24665D02*
X31539Y-24665D01*
X31314Y-24665D02*
X31295Y-24646D01*
X31276Y-24609D01*
X31276Y-24553D01*
X31295Y-24515D01*
X31333Y-24497D01*
X31539Y-24497D01*
X28515Y-25828D02*
X28515Y-25565D01*
X28909Y-25828D01*
X28909Y-25565D01*
X28909Y-25415D02*
X28515Y-25415D01*
X28515Y-25321D01*
X28534Y-25265D01*
X28571Y-25228D01*
X28609Y-25209D01*
X28684Y-25190D01*
X28740Y-25190D01*
X28815Y-25209D01*
X28853Y-25228D01*
X28890Y-25265D01*
X28909Y-25321D01*
X28909Y-25415D01*
X29539Y-26053D02*
X29520Y-26090D01*
X29501Y-26109D01*
X29464Y-26128D01*
X29351Y-26128D01*
X29314Y-26109D01*
X29295Y-26090D01*
X29276Y-26053D01*
X29276Y-25996D01*
X29295Y-25959D01*
X29314Y-25940D01*
X29351Y-25921D01*
X29464Y-25921D01*
X29501Y-25940D01*
X29520Y-25959D01*
X29539Y-25996D01*
X29539Y-26053D01*
X29276Y-25753D02*
X29670Y-25753D01*
X29295Y-25753D02*
X29276Y-25715D01*
X29276Y-25640D01*
X29295Y-25603D01*
X29314Y-25584D01*
X29351Y-25565D01*
X29464Y-25565D01*
X29501Y-25584D01*
X29520Y-25603D01*
X29539Y-25640D01*
X29539Y-25715D01*
X29520Y-25753D01*
X29520Y-25246D02*
X29539Y-25284D01*
X29539Y-25359D01*
X29520Y-25396D01*
X29483Y-25415D01*
X29333Y-25415D01*
X29295Y-25396D01*
X29276Y-25359D01*
X29276Y-25284D01*
X29295Y-25246D01*
X29333Y-25228D01*
X29370Y-25228D01*
X29408Y-25415D01*
X29276Y-25059D02*
X29539Y-25059D01*
X29314Y-25059D02*
X29295Y-25040D01*
X29276Y-25003D01*
X29276Y-24946D01*
X29295Y-24909D01*
X29333Y-24890D01*
X29539Y-24890D01*
X24121Y-26384D02*
X24140Y-26402D01*
X24159Y-26459D01*
X24159Y-26496D01*
X24140Y-26552D01*
X24103Y-26590D01*
X24065Y-26609D01*
X23990Y-26627D01*
X23934Y-26627D01*
X23859Y-26609D01*
X23821Y-26590D01*
X23784Y-26552D01*
X23765Y-26496D01*
X23765Y-26459D01*
X23784Y-26402D01*
X23803Y-26384D01*
X24159Y-25915D02*
X23765Y-25915D01*
X23765Y-25765D01*
X23784Y-25728D01*
X23803Y-25709D01*
X23840Y-25690D01*
X23896Y-25690D01*
X23934Y-25709D01*
X23953Y-25728D01*
X23971Y-25765D01*
X23971Y-25915D01*
X24046Y-25540D02*
X24046Y-25353D01*
X24159Y-25578D02*
X23765Y-25446D01*
X24159Y-25315D01*
X23765Y-25109D02*
X23765Y-25071D01*
X23784Y-25034D01*
X23803Y-25015D01*
X23840Y-24996D01*
X23915Y-24978D01*
X24009Y-24978D01*
X24084Y-24996D01*
X24121Y-25015D01*
X24140Y-25034D01*
X24159Y-25071D01*
X24159Y-25109D01*
X24140Y-25146D01*
X24121Y-25165D01*
X24084Y-25184D01*
X24009Y-25203D01*
X23915Y-25203D01*
X23840Y-25184D01*
X23803Y-25165D01*
X23784Y-25146D01*
X23765Y-25109D01*
X23765Y-24434D02*
X23765Y-24359D01*
X23784Y-24321D01*
X23821Y-24284D01*
X23896Y-24265D01*
X24028Y-24265D01*
X24103Y-24284D01*
X24140Y-24321D01*
X24159Y-24359D01*
X24159Y-24434D01*
X24140Y-24471D01*
X24103Y-24509D01*
X24028Y-24528D01*
X23896Y-24528D01*
X23821Y-24509D01*
X23784Y-24471D01*
X23765Y-24434D01*
X24159Y-24097D02*
X23765Y-24097D01*
X24159Y-23872D02*
X23934Y-24040D01*
X23765Y-23872D02*
X23990Y-24097D01*
X22121Y-26412D02*
X22140Y-26431D01*
X22159Y-26487D01*
X22159Y-26524D01*
X22140Y-26581D01*
X22103Y-26618D01*
X22065Y-26637D01*
X21990Y-26656D01*
X21934Y-26656D01*
X21859Y-26637D01*
X21821Y-26618D01*
X21784Y-26581D01*
X21765Y-26524D01*
X21765Y-26487D01*
X21784Y-26431D01*
X21803Y-26412D01*
X22159Y-25943D02*
X21765Y-25943D01*
X21765Y-25793D01*
X21784Y-25756D01*
X21803Y-25737D01*
X21840Y-25718D01*
X21896Y-25718D01*
X21934Y-25737D01*
X21953Y-25756D01*
X21971Y-25793D01*
X21971Y-25943D01*
X21953Y-25418D02*
X21971Y-25362D01*
X21990Y-25343D01*
X22028Y-25324D01*
X22084Y-25324D01*
X22121Y-25343D01*
X22140Y-25362D01*
X22159Y-25399D01*
X22159Y-25549D01*
X21765Y-25549D01*
X21765Y-25418D01*
X21784Y-25381D01*
X21803Y-25362D01*
X21840Y-25343D01*
X21878Y-25343D01*
X21915Y-25362D01*
X21934Y-25381D01*
X21953Y-25418D01*
X21953Y-25549D01*
X21765Y-25081D02*
X21765Y-25043D01*
X21784Y-25006D01*
X21803Y-24987D01*
X21840Y-24968D01*
X21915Y-24950D01*
X22009Y-24950D01*
X22084Y-24968D01*
X22121Y-24987D01*
X22140Y-25006D01*
X22159Y-25043D01*
X22159Y-25081D01*
X22140Y-25118D01*
X22121Y-25137D01*
X22084Y-25156D01*
X22009Y-25175D01*
X21915Y-25175D01*
X21840Y-25156D01*
X21803Y-25137D01*
X21784Y-25118D01*
X21765Y-25081D01*
X21765Y-24406D02*
X21765Y-24331D01*
X21784Y-24293D01*
X21821Y-24256D01*
X21896Y-24237D01*
X22028Y-24237D01*
X22103Y-24256D01*
X22140Y-24293D01*
X22159Y-24331D01*
X22159Y-24406D01*
X22140Y-24443D01*
X22103Y-24481D01*
X22028Y-24500D01*
X21896Y-24500D01*
X21821Y-24481D01*
X21784Y-24443D01*
X21765Y-24406D01*
X22159Y-24068D02*
X21765Y-24068D01*
X22159Y-23843D02*
X21934Y-24012D01*
X21765Y-23843D02*
X21990Y-24068D01*
X19034Y-25799D02*
X19015Y-25837D01*
X19015Y-25893D01*
X19034Y-25949D01*
X19071Y-25987D01*
X19109Y-26006D01*
X19184Y-26024D01*
X19240Y-26024D01*
X19315Y-26006D01*
X19353Y-25987D01*
X19390Y-25949D01*
X19409Y-25893D01*
X19409Y-25856D01*
X19390Y-25799D01*
X19371Y-25781D01*
X19240Y-25781D01*
X19240Y-25856D01*
X19409Y-25612D02*
X19015Y-25612D01*
X19409Y-25387D01*
X19015Y-25387D01*
X19409Y-25200D02*
X19015Y-25200D01*
X19015Y-25106D01*
X19034Y-25050D01*
X19071Y-25012D01*
X19109Y-24993D01*
X19184Y-24975D01*
X19240Y-24975D01*
X19315Y-24993D01*
X19353Y-25012D01*
X19390Y-25050D01*
X19409Y-25106D01*
X19409Y-25200D01*
X20189Y-26484D02*
X20170Y-26503D01*
X20114Y-26540D01*
X20076Y-26559D01*
X20020Y-26577D01*
X19926Y-26596D01*
X19851Y-26596D01*
X19758Y-26577D01*
X19701Y-26559D01*
X19664Y-26540D01*
X19608Y-26503D01*
X19589Y-26484D01*
X19683Y-26353D02*
X19664Y-26334D01*
X19645Y-26296D01*
X19645Y-26203D01*
X19664Y-26165D01*
X19683Y-26146D01*
X19720Y-26128D01*
X19758Y-26128D01*
X19814Y-26146D01*
X20039Y-26371D01*
X20039Y-26128D01*
X19645Y-25884D02*
X19645Y-25846D01*
X19664Y-25809D01*
X19683Y-25790D01*
X19720Y-25771D01*
X19795Y-25753D01*
X19889Y-25753D01*
X19964Y-25771D01*
X20001Y-25790D01*
X20020Y-25809D01*
X20039Y-25846D01*
X20039Y-25884D01*
X20020Y-25921D01*
X20001Y-25940D01*
X19964Y-25959D01*
X19889Y-25978D01*
X19795Y-25978D01*
X19720Y-25959D01*
X19683Y-25940D01*
X19664Y-25921D01*
X19645Y-25884D01*
X20189Y-25621D02*
X20170Y-25603D01*
X20114Y-25565D01*
X20076Y-25546D01*
X20020Y-25528D01*
X19926Y-25509D01*
X19851Y-25509D01*
X19758Y-25528D01*
X19701Y-25546D01*
X19664Y-25565D01*
X19608Y-25603D01*
X19589Y-25621D01*
X19645Y-24946D02*
X19645Y-24871D01*
X19664Y-24834D01*
X19701Y-24796D01*
X19776Y-24778D01*
X19908Y-24778D01*
X19983Y-24796D01*
X20020Y-24834D01*
X20039Y-24871D01*
X20039Y-24946D01*
X20020Y-24984D01*
X19983Y-25021D01*
X19908Y-25040D01*
X19776Y-25040D01*
X19701Y-25021D01*
X19664Y-24984D01*
X19645Y-24946D01*
X20039Y-24609D02*
X19645Y-24609D01*
X20039Y-24384D02*
X19814Y-24553D01*
X19645Y-24384D02*
X19870Y-24609D01*
X18396Y-24524D02*
X18790Y-24524D01*
X18603Y-24337D02*
X18640Y-24318D01*
X18659Y-24281D01*
X18603Y-24524D02*
X18640Y-24505D01*
X18659Y-24468D01*
X18659Y-24393D01*
X18640Y-24356D01*
X18603Y-24337D01*
X18396Y-24337D01*
X18265Y-24112D02*
X18584Y-24112D01*
X18621Y-24093D01*
X18640Y-24074D01*
X18659Y-24037D01*
X18659Y-23962D01*
X18640Y-23924D01*
X18621Y-23906D01*
X18584Y-23887D01*
X18265Y-23887D01*
X18640Y-23718D02*
X18659Y-23662D01*
X18659Y-23568D01*
X18640Y-23531D01*
X18621Y-23512D01*
X18584Y-23493D01*
X18546Y-23493D01*
X18509Y-23512D01*
X18490Y-23531D01*
X18471Y-23568D01*
X18453Y-23643D01*
X18434Y-23681D01*
X18415Y-23699D01*
X18378Y-23718D01*
X18340Y-23718D01*
X18303Y-23699D01*
X18284Y-23681D01*
X18265Y-23643D01*
X18265Y-23549D01*
X18284Y-23493D01*
X18453Y-23193D02*
X18471Y-23137D01*
X18490Y-23118D01*
X18528Y-23099D01*
X18584Y-23099D01*
X18621Y-23118D01*
X18640Y-23137D01*
X18659Y-23174D01*
X18659Y-23324D01*
X18265Y-23324D01*
X18265Y-23193D01*
X18284Y-23156D01*
X18303Y-23137D01*
X18340Y-23118D01*
X18378Y-23118D01*
X18415Y-23137D01*
X18434Y-23156D01*
X18453Y-23193D01*
X18453Y-23324D01*
X18659Y-22631D02*
X18265Y-22631D01*
X18265Y-22481D01*
X18284Y-22443D01*
X18303Y-22425D01*
X18340Y-22406D01*
X18396Y-22406D01*
X18434Y-22425D01*
X18453Y-22443D01*
X18471Y-22481D01*
X18471Y-22631D01*
X18265Y-22275D02*
X18659Y-22181D01*
X18378Y-22106D01*
X18659Y-22031D01*
X18265Y-21937D01*
X18659Y-21562D02*
X18471Y-21693D01*
X18659Y-21787D02*
X18265Y-21787D01*
X18265Y-21637D01*
X18284Y-21600D01*
X18303Y-21581D01*
X18340Y-21562D01*
X18396Y-21562D01*
X18434Y-21581D01*
X18453Y-21600D01*
X18471Y-21637D01*
X18471Y-21787D01*
X18265Y-21018D02*
X18265Y-20943D01*
X18284Y-20906D01*
X18321Y-20868D01*
X18396Y-20850D01*
X18528Y-20850D01*
X18603Y-20868D01*
X18640Y-20906D01*
X18659Y-20943D01*
X18659Y-21018D01*
X18640Y-21056D01*
X18603Y-21093D01*
X18528Y-21112D01*
X18396Y-21112D01*
X18321Y-21093D01*
X18284Y-21056D01*
X18265Y-21018D01*
X18659Y-20681D02*
X18265Y-20681D01*
X18659Y-20456D02*
X18434Y-20625D01*
X18265Y-20456D02*
X18490Y-20681D01*
G54D11*
X16489Y-20787D02*
X15898Y-20787D01*
X15898Y-20562D01*
X15926Y-20506D01*
X15954Y-20478D01*
X16010Y-20449D01*
X16095Y-20449D01*
X16151Y-20478D01*
X16179Y-20506D01*
X16207Y-20562D01*
X16207Y-20787D01*
X15898Y-20253D02*
X16489Y-20112D01*
X16067Y-20000D01*
X16489Y-19887D01*
X15898Y-19746D01*
X16489Y-19184D02*
X16207Y-19381D01*
X16489Y-19521D02*
X15898Y-19521D01*
X15898Y-19296D01*
X15926Y-19240D01*
X15954Y-19212D01*
X16010Y-19184D01*
X16095Y-19184D01*
X16151Y-19212D01*
X16179Y-19240D01*
X16207Y-19296D01*
X16207Y-19521D01*
G54D13*
X20050Y-11200D02*
X20050Y-5650D01*
X25950Y-5650D02*
X25950Y-11200D01*
X20050Y-11200D02*
X25950Y-11200D01*
X20050Y-5650D02*
X25950Y-5650D01*
G54D14*
X40150Y-10100D02*
X38950Y-10100D01*
X38950Y-10100D02*
X38950Y-12900D01*
X38950Y-12900D02*
X40150Y-12900D01*
X41350Y-10100D02*
X41650Y-10100D01*
X41650Y-10100D02*
X42550Y-10700D01*
X42550Y-10700D02*
X42550Y-12300D01*
X42550Y-12300D02*
X41650Y-12900D01*
X41650Y-12900D02*
X41350Y-12900D01*
G54D15*
X35900Y-15300D02*
G75*
G03X35900Y-15300I-50J0D01*
G74*
G01*
X36300Y-15300D02*
X35900Y-15300D01*
X35900Y-15300D02*
X35900Y-14700D01*
X35900Y-14700D02*
X36300Y-14700D01*
X36700Y-14700D02*
X37100Y-14700D01*
X37100Y-14700D02*
X37100Y-15300D01*
X37100Y-15300D02*
X36700Y-15300D01*
X20600Y-15900D02*
G75*
G03X20600Y-15900I-50J0D01*
G74*
G01*
X20550Y-15450D02*
X20550Y-15850D01*
X20550Y-15850D02*
X19950Y-15850D01*
X19950Y-15850D02*
X19950Y-15450D01*
X19950Y-15050D02*
X19950Y-14650D01*
X19950Y-14650D02*
X20550Y-14650D01*
X20550Y-14650D02*
X20550Y-15050D01*
X18000Y-16850D02*
G75*
G03X18000Y-16850I-50J0D01*
G74*
G01*
X17950Y-17300D02*
X17950Y-16900D01*
X17950Y-16900D02*
X18550Y-16900D01*
X18550Y-16900D02*
X18550Y-17300D01*
X18550Y-17700D02*
X18550Y-18100D01*
X18550Y-18100D02*
X17950Y-18100D01*
X17950Y-18100D02*
X17950Y-17700D01*
X23250Y-11850D02*
G75*
G03X23250Y-11850I-50J0D01*
G74*
G01*
X23200Y-12300D02*
X23200Y-11900D01*
X23200Y-11900D02*
X23800Y-11900D01*
X23800Y-11900D02*
X23800Y-12300D01*
X23800Y-12700D02*
X23800Y-13100D01*
X23800Y-13100D02*
X23200Y-13100D01*
X23200Y-13100D02*
X23200Y-12700D01*
X22250Y-11850D02*
G75*
G03X22250Y-11850I-50J0D01*
G74*
G01*
X22200Y-12300D02*
X22200Y-11900D01*
X22200Y-11900D02*
X22800Y-11900D01*
X22800Y-11900D02*
X22800Y-12300D01*
X22800Y-12700D02*
X22800Y-13100D01*
X22800Y-13100D02*
X22200Y-13100D01*
X22200Y-13100D02*
X22200Y-12700D01*
X37250Y-11350D02*
G75*
G03X37250Y-11350I-50J0D01*
G74*
G01*
X37200Y-11800D02*
X37200Y-11400D01*
X37200Y-11400D02*
X37800Y-11400D01*
X37800Y-11400D02*
X37800Y-11800D01*
X37800Y-12200D02*
X37800Y-12600D01*
X37800Y-12600D02*
X37200Y-12600D01*
X37200Y-12600D02*
X37200Y-12200D01*
X23750Y-21100D02*
G75*
G03X23750Y-21100I-50J0D01*
G74*
G01*
X23700Y-21550D02*
X23700Y-21150D01*
X23700Y-21150D02*
X24300Y-21150D01*
X24300Y-21150D02*
X24300Y-21550D01*
X24300Y-21950D02*
X24300Y-22350D01*
X24300Y-22350D02*
X23700Y-22350D01*
X23700Y-22350D02*
X23700Y-21950D01*
X28700Y-14700D02*
G75*
G03X28700Y-14700I-50J0D01*
G74*
G01*
X28200Y-14700D02*
X28600Y-14700D01*
X28600Y-14700D02*
X28600Y-15300D01*
X28600Y-15300D02*
X28200Y-15300D01*
X27800Y-15300D02*
X27400Y-15300D01*
X27400Y-15300D02*
X27400Y-14700D01*
X27400Y-14700D02*
X27800Y-14700D01*
X38250Y-10350D02*
G75*
G03X38250Y-10350I-50J0D01*
G74*
G01*
X38200Y-10800D02*
X38200Y-10400D01*
X38200Y-10400D02*
X38800Y-10400D01*
X38800Y-10400D02*
X38800Y-10800D01*
X38800Y-11200D02*
X38800Y-11600D01*
X38800Y-11600D02*
X38200Y-11600D01*
X38200Y-11600D02*
X38200Y-11200D01*
X17000Y-17350D02*
G75*
G03X17000Y-17350I-50J0D01*
G74*
G01*
X16950Y-17800D02*
X16950Y-17400D01*
X16950Y-17400D02*
X17550Y-17400D01*
X17550Y-17400D02*
X17550Y-17800D01*
X17550Y-18200D02*
X17550Y-18600D01*
X17550Y-18600D02*
X16950Y-18600D01*
X16950Y-18600D02*
X16950Y-18200D01*
X33500Y-9350D02*
G75*
G03X33500Y-9350I-50J0D01*
G74*
G01*
X33450Y-9800D02*
X33450Y-9400D01*
X33450Y-9400D02*
X34050Y-9400D01*
X34050Y-9400D02*
X34050Y-9800D01*
X34050Y-10200D02*
X34050Y-10600D01*
X34050Y-10600D02*
X33450Y-10600D01*
X33450Y-10600D02*
X33450Y-10200D01*
X37400Y-15300D02*
G75*
G03X37400Y-15300I-50J0D01*
G74*
G01*
X37800Y-15300D02*
X37400Y-15300D01*
X37400Y-15300D02*
X37400Y-14700D01*
X37400Y-14700D02*
X37800Y-14700D01*
X38200Y-14700D02*
X38600Y-14700D01*
X38600Y-14700D02*
X38600Y-15300D01*
X38600Y-15300D02*
X38200Y-15300D01*
X20900Y-15550D02*
G75*
G03X20900Y-15550I-50J0D01*
G74*
G01*
X21300Y-15550D02*
X20900Y-15550D01*
X20900Y-15550D02*
X20900Y-14950D01*
X20900Y-14950D02*
X21300Y-14950D01*
X21700Y-14950D02*
X22100Y-14950D01*
X22100Y-14950D02*
X22100Y-15550D01*
X22100Y-15550D02*
X21700Y-15550D01*
X32900Y-15300D02*
G75*
G03X32900Y-15300I-50J0D01*
G74*
G01*
X33300Y-15300D02*
X32900Y-15300D01*
X32900Y-15300D02*
X32900Y-14700D01*
X32900Y-14700D02*
X33300Y-14700D01*
X33700Y-14700D02*
X34100Y-14700D01*
X34100Y-14700D02*
X34100Y-15300D01*
X34100Y-15300D02*
X33700Y-15300D01*
X31400Y-15300D02*
G75*
G03X31400Y-15300I-50J0D01*
G74*
G01*
X31800Y-15300D02*
X31400Y-15300D01*
X31400Y-15300D02*
X31400Y-14700D01*
X31400Y-14700D02*
X31800Y-14700D01*
X32200Y-14700D02*
X32600Y-14700D01*
X32600Y-14700D02*
X32600Y-15300D01*
X32600Y-15300D02*
X32200Y-15300D01*
X28900Y-15300D02*
G75*
G03X28900Y-15300I-50J0D01*
G74*
G01*
X29300Y-15300D02*
X28900Y-15300D01*
X28900Y-15300D02*
X28900Y-14700D01*
X28900Y-14700D02*
X29300Y-14700D01*
X29700Y-14700D02*
X30100Y-14700D01*
X30100Y-14700D02*
X30100Y-15300D01*
X30100Y-15300D02*
X29700Y-15300D01*
X21500Y-20100D02*
G75*
G03X21500Y-20100I-50J0D01*
G74*
G01*
X21450Y-20550D02*
X21450Y-20150D01*
X21450Y-20150D02*
X22050Y-20150D01*
X22050Y-20150D02*
X22050Y-20550D01*
X22050Y-20950D02*
X22050Y-21350D01*
X22050Y-21350D02*
X21450Y-21350D01*
X21450Y-21350D02*
X21450Y-20950D01*
X28150Y-16300D02*
G75*
G03X28150Y-16300I-50J0D01*
G74*
G01*
X28550Y-16300D02*
X28150Y-16300D01*
X28150Y-16300D02*
X28150Y-15700D01*
X28150Y-15700D02*
X28550Y-15700D01*
X28950Y-15700D02*
X29350Y-15700D01*
X29350Y-15700D02*
X29350Y-16300D01*
X29350Y-16300D02*
X28950Y-16300D01*
X37250Y-20850D02*
G75*
G03X37250Y-20850I-50J0D01*
G74*
G01*
X37200Y-21300D02*
X37200Y-20900D01*
X37200Y-20900D02*
X37800Y-20900D01*
X37800Y-20900D02*
X37800Y-21300D01*
X37800Y-21700D02*
X37800Y-22100D01*
X37800Y-22100D02*
X37200Y-22100D01*
X37200Y-22100D02*
X37200Y-21700D01*
X34400Y-22300D02*
G75*
G03X34400Y-22300I-50J0D01*
G74*
G01*
X34800Y-22300D02*
X34400Y-22300D01*
X34400Y-22300D02*
X34400Y-21700D01*
X34400Y-21700D02*
X34800Y-21700D01*
X35200Y-21700D02*
X35600Y-21700D01*
X35600Y-21700D02*
X35600Y-22300D01*
X35600Y-22300D02*
X35200Y-22300D01*
X25200Y-17450D02*
G75*
G03X25200Y-17450I-50J0D01*
G74*
G01*
X24700Y-17450D02*
X25100Y-17450D01*
X25100Y-17450D02*
X25100Y-18050D01*
X25100Y-18050D02*
X24700Y-18050D01*
X24300Y-18050D02*
X23900Y-18050D01*
X23900Y-18050D02*
X23900Y-17450D01*
X23900Y-17450D02*
X24300Y-17450D01*
X32200Y-21700D02*
G75*
G03X32200Y-21700I-50J0D01*
G74*
G01*
X31700Y-21700D02*
X32100Y-21700D01*
X32100Y-21700D02*
X32100Y-22300D01*
X32100Y-22300D02*
X31700Y-22300D01*
X31300Y-22300D02*
X30900Y-22300D01*
X30900Y-22300D02*
X30900Y-21700D01*
X30900Y-21700D02*
X31300Y-21700D01*
X27200Y-21700D02*
G75*
G03X27200Y-21700I-50J0D01*
G74*
G01*
X26700Y-21700D02*
X27100Y-21700D01*
X27100Y-21700D02*
X27100Y-22300D01*
X27100Y-22300D02*
X26700Y-22300D01*
X26300Y-22300D02*
X25900Y-22300D01*
X25900Y-22300D02*
X25900Y-21700D01*
X25900Y-21700D02*
X26300Y-21700D01*
X25700Y-21700D02*
G75*
G03X25700Y-21700I-50J0D01*
G74*
G01*
X25200Y-21700D02*
X25600Y-21700D01*
X25600Y-21700D02*
X25600Y-22300D01*
X25600Y-22300D02*
X25200Y-22300D01*
X24800Y-22300D02*
X24400Y-22300D01*
X24400Y-22300D02*
X24400Y-21700D01*
X24400Y-21700D02*
X24800Y-21700D01*
X24900Y-15300D02*
G75*
G03X24900Y-15300I-50J0D01*
G74*
G01*
X25300Y-15300D02*
X24900Y-15300D01*
X24900Y-15300D02*
X24900Y-14700D01*
X24900Y-14700D02*
X25300Y-14700D01*
X25700Y-14700D02*
X26100Y-14700D01*
X26100Y-14700D02*
X26100Y-15300D01*
X26100Y-15300D02*
X25700Y-15300D01*
X19250Y-20850D02*
G75*
G03X19250Y-20850I-50J0D01*
G74*
G01*
X19200Y-21300D02*
X19200Y-20900D01*
X19200Y-20900D02*
X19800Y-20900D01*
X19800Y-20900D02*
X19800Y-21300D01*
X19800Y-21700D02*
X19800Y-22100D01*
X19800Y-22100D02*
X19200Y-22100D01*
X19200Y-22100D02*
X19200Y-21700D01*
X35350Y-21400D02*
G75*
G03X35350Y-21400I-50J0D01*
G74*
G01*
X35300Y-20950D02*
X35300Y-21350D01*
X35300Y-21350D02*
X34700Y-21350D01*
X34700Y-21350D02*
X34700Y-20950D01*
X34700Y-20550D02*
X34700Y-20150D01*
X34700Y-20150D02*
X35300Y-20150D01*
X35300Y-20150D02*
X35300Y-20550D01*
X28850Y-22150D02*
G75*
G03X28850Y-22150I-50J0D01*
G74*
G01*
X28800Y-21700D02*
X28800Y-22100D01*
X28800Y-22100D02*
X28200Y-22100D01*
X28200Y-22100D02*
X28200Y-21700D01*
X28200Y-21300D02*
X28200Y-20900D01*
X28200Y-20900D02*
X28800Y-20900D01*
X28800Y-20900D02*
X28800Y-21300D01*
X29250Y-20850D02*
G75*
G03X29250Y-20850I-50J0D01*
G74*
G01*
X29200Y-21300D02*
X29200Y-20900D01*
X29200Y-20900D02*
X29800Y-20900D01*
X29800Y-20900D02*
X29800Y-21300D01*
X29800Y-21700D02*
X29800Y-22100D01*
X29800Y-22100D02*
X29200Y-22100D01*
X29200Y-22100D02*
X29200Y-21700D01*
X30750Y-20100D02*
G75*
G03X30750Y-20100I-50J0D01*
G74*
G01*
X30700Y-20550D02*
X30700Y-20150D01*
X30700Y-20150D02*
X31300Y-20150D01*
X31300Y-20150D02*
X31300Y-20550D01*
X31300Y-20950D02*
X31300Y-21350D01*
X31300Y-21350D02*
X30700Y-21350D01*
X30700Y-21350D02*
X30700Y-20950D01*
X20400Y-22300D02*
G75*
G03X20400Y-22300I-50J0D01*
G74*
G01*
X20800Y-22300D02*
X20400Y-22300D01*
X20400Y-22300D02*
X20400Y-21700D01*
X20400Y-21700D02*
X20800Y-21700D01*
X21200Y-21700D02*
X21600Y-21700D01*
X21600Y-21700D02*
X21600Y-22300D01*
X21600Y-22300D02*
X21200Y-22300D01*
X35000Y-17100D02*
G75*
G03X35000Y-17100I-50J0D01*
G74*
G01*
X34950Y-17550D02*
X34950Y-17150D01*
X34950Y-17150D02*
X35550Y-17150D01*
X35550Y-17150D02*
X35550Y-17550D01*
X35550Y-17950D02*
X35550Y-18350D01*
X35550Y-18350D02*
X34950Y-18350D01*
X34950Y-18350D02*
X34950Y-17950D01*
X27900Y-19050D02*
G75*
G03X27900Y-19050I-50J0D01*
G74*
G01*
X28300Y-19050D02*
X27900Y-19050D01*
X27900Y-19050D02*
X27900Y-18450D01*
X27900Y-18450D02*
X28300Y-18450D01*
X28700Y-18450D02*
X29100Y-18450D01*
X29100Y-18450D02*
X29100Y-19050D01*
X29100Y-19050D02*
X28700Y-19050D01*
X38850Y-22150D02*
G75*
G03X38850Y-22150I-50J0D01*
G74*
G01*
X38800Y-21700D02*
X38800Y-22100D01*
X38800Y-22100D02*
X38200Y-22100D01*
X38200Y-22100D02*
X38200Y-21700D01*
X38200Y-21300D02*
X38200Y-20900D01*
X38200Y-20900D02*
X38800Y-20900D01*
X38800Y-20900D02*
X38800Y-21300D01*
X36750Y-17100D02*
G75*
G03X36750Y-17100I-50J0D01*
G74*
G01*
X36700Y-17550D02*
X36700Y-17150D01*
X36700Y-17150D02*
X37300Y-17150D01*
X37300Y-17150D02*
X37300Y-17550D01*
X37300Y-17950D02*
X37300Y-18350D01*
X37300Y-18350D02*
X36700Y-18350D01*
X36700Y-18350D02*
X36700Y-17950D01*
X32750Y-20350D02*
G75*
G03X32750Y-20350I-50J0D01*
G74*
G01*
X32700Y-20800D02*
X32700Y-20400D01*
X32700Y-20400D02*
X33300Y-20400D01*
X33300Y-20400D02*
X33300Y-20800D01*
X33300Y-21200D02*
X33300Y-21600D01*
X33300Y-21600D02*
X32700Y-21600D01*
X32700Y-21600D02*
X32700Y-21200D01*
X33250Y-17100D02*
G75*
G03X33250Y-17100I-50J0D01*
G74*
G01*
X33200Y-17550D02*
X33200Y-17150D01*
X33200Y-17150D02*
X33800Y-17150D01*
X33800Y-17150D02*
X33800Y-17550D01*
X33800Y-17950D02*
X33800Y-18350D01*
X33800Y-18350D02*
X33200Y-18350D01*
X33200Y-18350D02*
X33200Y-17950D01*
X27350Y-21150D02*
G75*
G03X27350Y-21150I-50J0D01*
G74*
G01*
X27300Y-20700D02*
X27300Y-21100D01*
X27300Y-21100D02*
X26700Y-21100D01*
X26700Y-21100D02*
X26700Y-20700D01*
X26700Y-20300D02*
X26700Y-19900D01*
X26700Y-19900D02*
X27300Y-19900D01*
X27300Y-19900D02*
X27300Y-20300D01*
X26350Y-21150D02*
G75*
G03X26350Y-21150I-50J0D01*
G74*
G01*
X26300Y-20700D02*
X26300Y-21100D01*
X26300Y-21100D02*
X25700Y-21100D01*
X25700Y-21100D02*
X25700Y-20700D01*
X25700Y-20300D02*
X25700Y-19900D01*
X25700Y-19900D02*
X26300Y-19900D01*
X26300Y-19900D02*
X26300Y-20300D01*
X24750Y-19850D02*
G75*
G03X24750Y-19850I-50J0D01*
G74*
G01*
X24700Y-20300D02*
X24700Y-19900D01*
X24700Y-19900D02*
X25300Y-19900D01*
X25300Y-19900D02*
X25300Y-20300D01*
X25300Y-20700D02*
X25300Y-21100D01*
X25300Y-21100D02*
X24700Y-21100D01*
X24700Y-21100D02*
X24700Y-20700D01*
X26350Y-17400D02*
G75*
G03X26350Y-17400I-50J0D01*
G74*
G01*
X26300Y-16950D02*
X26300Y-17350D01*
X26300Y-17350D02*
X25700Y-17350D01*
X25700Y-17350D02*
X25700Y-16950D01*
X25700Y-16550D02*
X25700Y-16150D01*
X25700Y-16150D02*
X26300Y-16150D01*
X26300Y-16150D02*
X26300Y-16550D01*
X27350Y-17400D02*
G75*
G03X27350Y-17400I-50J0D01*
G74*
G01*
X27300Y-16950D02*
X27300Y-17350D01*
X27300Y-17350D02*
X26700Y-17350D01*
X26700Y-17350D02*
X26700Y-16950D01*
X26700Y-16550D02*
X26700Y-16150D01*
X26700Y-16150D02*
X27300Y-16150D01*
X27300Y-16150D02*
X27300Y-16550D01*
G54D14*
X40000Y-20500D02*
X40000Y-17500D01*
X42000Y-17500D02*
X42000Y-20500D01*
X42000Y-20500D02*
X40000Y-20500D01*
X40000Y-17500D02*
X42000Y-17500D01*
G54D16*
X30118Y-25304D02*
X30246Y-25304D01*
X30246Y-25304D02*
X30246Y-25107D01*
X30118Y-25107D02*
X30246Y-25107D01*
X30118Y-25304D02*
X30118Y-25107D01*
X29873Y-25304D02*
X29932Y-25304D01*
X29932Y-25304D02*
X29932Y-25205D01*
X29873Y-25205D02*
X29932Y-25205D01*
X29873Y-25304D02*
X29873Y-25205D01*
X30068Y-25304D02*
X30127Y-25304D01*
X30127Y-25304D02*
X30127Y-25205D01*
X30068Y-25205D02*
X30127Y-25205D01*
X30068Y-25304D02*
X30068Y-25205D01*
X29922Y-25304D02*
X30078Y-25304D01*
X30078Y-25304D02*
X30078Y-25235D01*
X29922Y-25235D02*
X30078Y-25235D01*
X29922Y-25304D02*
X29922Y-25235D01*
X30118Y-25893D02*
X30246Y-25893D01*
X30246Y-25893D02*
X30246Y-25696D01*
X30118Y-25696D02*
X30246Y-25696D01*
X30118Y-25893D02*
X30118Y-25696D01*
X29754Y-25893D02*
X29882Y-25893D01*
X29882Y-25893D02*
X29882Y-25696D01*
X29754Y-25696D02*
X29882Y-25696D01*
X29754Y-25893D02*
X29754Y-25696D01*
X30068Y-25795D02*
X30127Y-25795D01*
X30127Y-25795D02*
X30127Y-25696D01*
X30068Y-25696D02*
X30127Y-25696D01*
X30068Y-25795D02*
X30068Y-25696D01*
X29873Y-25795D02*
X29932Y-25795D01*
X29932Y-25795D02*
X29932Y-25696D01*
X29873Y-25696D02*
X29932Y-25696D01*
X29873Y-25795D02*
X29873Y-25696D01*
X29922Y-25765D02*
X30078Y-25765D01*
X30078Y-25765D02*
X30078Y-25696D01*
X29922Y-25696D02*
X30078Y-25696D01*
X29922Y-25765D02*
X29922Y-25696D01*
X29961Y-25500D02*
X30039Y-25500D01*
X30039Y-25500D02*
X30039Y-25422D01*
X29961Y-25422D02*
X30039Y-25422D01*
X29961Y-25500D02*
X29961Y-25422D01*
X29764Y-25304D02*
X29882Y-25304D01*
X29882Y-25304D02*
X29882Y-25186D01*
X29764Y-25186D02*
X29882Y-25186D01*
X29764Y-25304D02*
X29764Y-25186D01*
X29754Y-25136D02*
X29843Y-25136D01*
X29843Y-25136D02*
X29843Y-25107D01*
X29754Y-25107D02*
X29843Y-25107D01*
X29754Y-25136D02*
X29754Y-25107D01*
G54D17*
X30226Y-25294D02*
X30226Y-25706D01*
X29774Y-25696D02*
X29774Y-25136D01*
G54D18*
X29851Y-25166D02*
G75*
G03X29851Y-25166I-28J0D01*
G74*
G01*
G54D17*
X29863Y-25107D02*
G75*
G03X30137Y-25107I137J0D01*
G74*
G01*
X30137Y-25893D02*
G75*
G03X29863Y-25893I-137J0D01*
G74*
G01*
G54D16*
X36118Y-25304D02*
X36246Y-25304D01*
X36246Y-25304D02*
X36246Y-25107D01*
X36118Y-25107D02*
X36246Y-25107D01*
X36118Y-25304D02*
X36118Y-25107D01*
X35873Y-25304D02*
X35932Y-25304D01*
X35932Y-25304D02*
X35932Y-25205D01*
X35873Y-25205D02*
X35932Y-25205D01*
X35873Y-25304D02*
X35873Y-25205D01*
X36068Y-25304D02*
X36127Y-25304D01*
X36127Y-25304D02*
X36127Y-25205D01*
X36068Y-25205D02*
X36127Y-25205D01*
X36068Y-25304D02*
X36068Y-25205D01*
X35922Y-25304D02*
X36078Y-25304D01*
X36078Y-25304D02*
X36078Y-25235D01*
X35922Y-25235D02*
X36078Y-25235D01*
X35922Y-25304D02*
X35922Y-25235D01*
X36118Y-25893D02*
X36246Y-25893D01*
X36246Y-25893D02*
X36246Y-25696D01*
X36118Y-25696D02*
X36246Y-25696D01*
X36118Y-25893D02*
X36118Y-25696D01*
X35754Y-25893D02*
X35882Y-25893D01*
X35882Y-25893D02*
X35882Y-25696D01*
X35754Y-25696D02*
X35882Y-25696D01*
X35754Y-25893D02*
X35754Y-25696D01*
X36068Y-25795D02*
X36127Y-25795D01*
X36127Y-25795D02*
X36127Y-25696D01*
X36068Y-25696D02*
X36127Y-25696D01*
X36068Y-25795D02*
X36068Y-25696D01*
X35873Y-25795D02*
X35932Y-25795D01*
X35932Y-25795D02*
X35932Y-25696D01*
X35873Y-25696D02*
X35932Y-25696D01*
X35873Y-25795D02*
X35873Y-25696D01*
X35922Y-25765D02*
X36078Y-25765D01*
X36078Y-25765D02*
X36078Y-25696D01*
X35922Y-25696D02*
X36078Y-25696D01*
X35922Y-25765D02*
X35922Y-25696D01*
X35961Y-25500D02*
X36039Y-25500D01*
X36039Y-25500D02*
X36039Y-25422D01*
X35961Y-25422D02*
X36039Y-25422D01*
X35961Y-25500D02*
X35961Y-25422D01*
X35764Y-25304D02*
X35882Y-25304D01*
X35882Y-25304D02*
X35882Y-25186D01*
X35764Y-25186D02*
X35882Y-25186D01*
X35764Y-25304D02*
X35764Y-25186D01*
X35754Y-25136D02*
X35843Y-25136D01*
X35843Y-25136D02*
X35843Y-25107D01*
X35754Y-25107D02*
X35843Y-25107D01*
X35754Y-25136D02*
X35754Y-25107D01*
G54D17*
X36226Y-25294D02*
X36226Y-25706D01*
X35774Y-25696D02*
X35774Y-25136D01*
G54D18*
X35851Y-25166D02*
G75*
G03X35851Y-25166I-28J0D01*
G74*
G01*
G54D17*
X35863Y-25107D02*
G75*
G03X36137Y-25107I137J0D01*
G74*
G01*
X36137Y-25893D02*
G75*
G03X35863Y-25893I-137J0D01*
G74*
G01*
G54D16*
X24382Y-25696D02*
X24254Y-25696D01*
X24254Y-25696D02*
X24254Y-25893D01*
X24382Y-25893D02*
X24254Y-25893D01*
X24382Y-25696D02*
X24382Y-25893D01*
X24627Y-25696D02*
X24568Y-25696D01*
X24568Y-25696D02*
X24568Y-25795D01*
X24627Y-25795D02*
X24568Y-25795D01*
X24627Y-25696D02*
X24627Y-25795D01*
X24432Y-25696D02*
X24373Y-25696D01*
X24373Y-25696D02*
X24373Y-25795D01*
X24432Y-25795D02*
X24373Y-25795D01*
X24432Y-25696D02*
X24432Y-25795D01*
X24578Y-25696D02*
X24422Y-25696D01*
X24422Y-25696D02*
X24422Y-25765D01*
X24578Y-25765D02*
X24422Y-25765D01*
X24578Y-25696D02*
X24578Y-25765D01*
X24382Y-25107D02*
X24254Y-25107D01*
X24254Y-25107D02*
X24254Y-25304D01*
X24382Y-25304D02*
X24254Y-25304D01*
X24382Y-25107D02*
X24382Y-25304D01*
X24746Y-25107D02*
X24618Y-25107D01*
X24618Y-25107D02*
X24618Y-25304D01*
X24746Y-25304D02*
X24618Y-25304D01*
X24746Y-25107D02*
X24746Y-25304D01*
X24432Y-25205D02*
X24373Y-25205D01*
X24373Y-25205D02*
X24373Y-25304D01*
X24432Y-25304D02*
X24373Y-25304D01*
X24432Y-25205D02*
X24432Y-25304D01*
X24627Y-25205D02*
X24568Y-25205D01*
X24568Y-25205D02*
X24568Y-25304D01*
X24627Y-25304D02*
X24568Y-25304D01*
X24627Y-25205D02*
X24627Y-25304D01*
X24578Y-25235D02*
X24422Y-25235D01*
X24422Y-25235D02*
X24422Y-25304D01*
X24578Y-25304D02*
X24422Y-25304D01*
X24578Y-25235D02*
X24578Y-25304D01*
X24539Y-25500D02*
X24461Y-25500D01*
X24461Y-25500D02*
X24461Y-25578D01*
X24539Y-25578D02*
X24461Y-25578D01*
X24539Y-25500D02*
X24539Y-25578D01*
X24736Y-25696D02*
X24618Y-25696D01*
X24618Y-25696D02*
X24618Y-25814D01*
X24736Y-25814D02*
X24618Y-25814D01*
X24736Y-25696D02*
X24736Y-25814D01*
X24746Y-25864D02*
X24657Y-25864D01*
X24657Y-25864D02*
X24657Y-25893D01*
X24746Y-25893D02*
X24657Y-25893D01*
X24746Y-25864D02*
X24746Y-25893D01*
G54D17*
X24274Y-25706D02*
X24274Y-25294D01*
X24726Y-25304D02*
X24726Y-25864D01*
G54D18*
X24705Y-25834D02*
G75*
G03X24705Y-25834I-28J0D01*
G74*
G01*
G54D17*
X24637Y-25893D02*
G75*
G03X24363Y-25893I-137J0D01*
G74*
G01*
X24363Y-25107D02*
G75*
G03X24637Y-25107I137J0D01*
G74*
G01*
G54D16*
X22382Y-25696D02*
X22254Y-25696D01*
X22254Y-25696D02*
X22254Y-25893D01*
X22382Y-25893D02*
X22254Y-25893D01*
X22382Y-25696D02*
X22382Y-25893D01*
X22627Y-25696D02*
X22568Y-25696D01*
X22568Y-25696D02*
X22568Y-25795D01*
X22627Y-25795D02*
X22568Y-25795D01*
X22627Y-25696D02*
X22627Y-25795D01*
X22432Y-25696D02*
X22373Y-25696D01*
X22373Y-25696D02*
X22373Y-25795D01*
X22432Y-25795D02*
X22373Y-25795D01*
X22432Y-25696D02*
X22432Y-25795D01*
X22578Y-25696D02*
X22422Y-25696D01*
X22422Y-25696D02*
X22422Y-25765D01*
X22578Y-25765D02*
X22422Y-25765D01*
X22578Y-25696D02*
X22578Y-25765D01*
X22382Y-25107D02*
X22254Y-25107D01*
X22254Y-25107D02*
X22254Y-25304D01*
X22382Y-25304D02*
X22254Y-25304D01*
X22382Y-25107D02*
X22382Y-25304D01*
X22746Y-25107D02*
X22618Y-25107D01*
X22618Y-25107D02*
X22618Y-25304D01*
X22746Y-25304D02*
X22618Y-25304D01*
X22746Y-25107D02*
X22746Y-25304D01*
X22432Y-25205D02*
X22373Y-25205D01*
X22373Y-25205D02*
X22373Y-25304D01*
X22432Y-25304D02*
X22373Y-25304D01*
X22432Y-25205D02*
X22432Y-25304D01*
X22627Y-25205D02*
X22568Y-25205D01*
X22568Y-25205D02*
X22568Y-25304D01*
X22627Y-25304D02*
X22568Y-25304D01*
X22627Y-25205D02*
X22627Y-25304D01*
X22578Y-25235D02*
X22422Y-25235D01*
X22422Y-25235D02*
X22422Y-25304D01*
X22578Y-25304D02*
X22422Y-25304D01*
X22578Y-25235D02*
X22578Y-25304D01*
X22539Y-25500D02*
X22461Y-25500D01*
X22461Y-25500D02*
X22461Y-25578D01*
X22539Y-25578D02*
X22461Y-25578D01*
X22539Y-25500D02*
X22539Y-25578D01*
X22736Y-25696D02*
X22618Y-25696D01*
X22618Y-25696D02*
X22618Y-25814D01*
X22736Y-25814D02*
X22618Y-25814D01*
X22736Y-25696D02*
X22736Y-25814D01*
X22746Y-25864D02*
X22657Y-25864D01*
X22657Y-25864D02*
X22657Y-25893D01*
X22746Y-25893D02*
X22657Y-25893D01*
X22746Y-25864D02*
X22746Y-25893D01*
G54D17*
X22274Y-25706D02*
X22274Y-25294D01*
X22726Y-25304D02*
X22726Y-25864D01*
G54D18*
X22705Y-25834D02*
G75*
G03X22705Y-25834I-28J0D01*
G74*
G01*
G54D17*
X22637Y-25893D02*
G75*
G03X22363Y-25893I-137J0D01*
G74*
G01*
X22363Y-25107D02*
G75*
G03X22637Y-25107I137J0D01*
G74*
G01*
G54D16*
X17132Y-20196D02*
X17004Y-20196D01*
X17004Y-20196D02*
X17004Y-20393D01*
X17132Y-20393D02*
X17004Y-20393D01*
X17132Y-20196D02*
X17132Y-20393D01*
X17377Y-20196D02*
X17318Y-20196D01*
X17318Y-20196D02*
X17318Y-20295D01*
X17377Y-20295D02*
X17318Y-20295D01*
X17377Y-20196D02*
X17377Y-20295D01*
X17182Y-20196D02*
X17123Y-20196D01*
X17123Y-20196D02*
X17123Y-20295D01*
X17182Y-20295D02*
X17123Y-20295D01*
X17182Y-20196D02*
X17182Y-20295D01*
X17328Y-20196D02*
X17172Y-20196D01*
X17172Y-20196D02*
X17172Y-20265D01*
X17328Y-20265D02*
X17172Y-20265D01*
X17328Y-20196D02*
X17328Y-20265D01*
X17132Y-19607D02*
X17004Y-19607D01*
X17004Y-19607D02*
X17004Y-19804D01*
X17132Y-19804D02*
X17004Y-19804D01*
X17132Y-19607D02*
X17132Y-19804D01*
X17496Y-19607D02*
X17368Y-19607D01*
X17368Y-19607D02*
X17368Y-19804D01*
X17496Y-19804D02*
X17368Y-19804D01*
X17496Y-19607D02*
X17496Y-19804D01*
X17182Y-19705D02*
X17123Y-19705D01*
X17123Y-19705D02*
X17123Y-19804D01*
X17182Y-19804D02*
X17123Y-19804D01*
X17182Y-19705D02*
X17182Y-19804D01*
X17377Y-19705D02*
X17318Y-19705D01*
X17318Y-19705D02*
X17318Y-19804D01*
X17377Y-19804D02*
X17318Y-19804D01*
X17377Y-19705D02*
X17377Y-19804D01*
X17328Y-19735D02*
X17172Y-19735D01*
X17172Y-19735D02*
X17172Y-19804D01*
X17328Y-19804D02*
X17172Y-19804D01*
X17328Y-19735D02*
X17328Y-19804D01*
X17289Y-20000D02*
X17211Y-20000D01*
X17211Y-20000D02*
X17211Y-20078D01*
X17289Y-20078D02*
X17211Y-20078D01*
X17289Y-20000D02*
X17289Y-20078D01*
X17486Y-20196D02*
X17368Y-20196D01*
X17368Y-20196D02*
X17368Y-20314D01*
X17486Y-20314D02*
X17368Y-20314D01*
X17486Y-20196D02*
X17486Y-20314D01*
X17496Y-20364D02*
X17407Y-20364D01*
X17407Y-20364D02*
X17407Y-20393D01*
X17496Y-20393D02*
X17407Y-20393D01*
X17496Y-20364D02*
X17496Y-20393D01*
G54D17*
X17024Y-20206D02*
X17024Y-19794D01*
X17476Y-19804D02*
X17476Y-20364D01*
G54D18*
X17455Y-20334D02*
G75*
G03X17455Y-20334I-28J0D01*
G74*
G01*
G54D17*
X17387Y-20393D02*
G75*
G03X17113Y-20393I-137J0D01*
G74*
G01*
X17113Y-19607D02*
G75*
G03X17387Y-19607I137J0D01*
G74*
G01*
G54D16*
X18618Y-25304D02*
X18746Y-25304D01*
X18746Y-25304D02*
X18746Y-25107D01*
X18618Y-25107D02*
X18746Y-25107D01*
X18618Y-25304D02*
X18618Y-25107D01*
X18373Y-25304D02*
X18432Y-25304D01*
X18432Y-25304D02*
X18432Y-25205D01*
X18373Y-25205D02*
X18432Y-25205D01*
X18373Y-25304D02*
X18373Y-25205D01*
X18568Y-25304D02*
X18627Y-25304D01*
X18627Y-25304D02*
X18627Y-25205D01*
X18568Y-25205D02*
X18627Y-25205D01*
X18568Y-25304D02*
X18568Y-25205D01*
X18422Y-25304D02*
X18578Y-25304D01*
X18578Y-25304D02*
X18578Y-25235D01*
X18422Y-25235D02*
X18578Y-25235D01*
X18422Y-25304D02*
X18422Y-25235D01*
X18618Y-25893D02*
X18746Y-25893D01*
X18746Y-25893D02*
X18746Y-25696D01*
X18618Y-25696D02*
X18746Y-25696D01*
X18618Y-25893D02*
X18618Y-25696D01*
X18254Y-25893D02*
X18382Y-25893D01*
X18382Y-25893D02*
X18382Y-25696D01*
X18254Y-25696D02*
X18382Y-25696D01*
X18254Y-25893D02*
X18254Y-25696D01*
X18568Y-25795D02*
X18627Y-25795D01*
X18627Y-25795D02*
X18627Y-25696D01*
X18568Y-25696D02*
X18627Y-25696D01*
X18568Y-25795D02*
X18568Y-25696D01*
X18373Y-25795D02*
X18432Y-25795D01*
X18432Y-25795D02*
X18432Y-25696D01*
X18373Y-25696D02*
X18432Y-25696D01*
X18373Y-25795D02*
X18373Y-25696D01*
X18422Y-25765D02*
X18578Y-25765D01*
X18578Y-25765D02*
X18578Y-25696D01*
X18422Y-25696D02*
X18578Y-25696D01*
X18422Y-25765D02*
X18422Y-25696D01*
X18461Y-25500D02*
X18539Y-25500D01*
X18539Y-25500D02*
X18539Y-25422D01*
X18461Y-25422D02*
X18539Y-25422D01*
X18461Y-25500D02*
X18461Y-25422D01*
X18264Y-25304D02*
X18382Y-25304D01*
X18382Y-25304D02*
X18382Y-25186D01*
X18264Y-25186D02*
X18382Y-25186D01*
X18264Y-25304D02*
X18264Y-25186D01*
X18254Y-25136D02*
X18343Y-25136D01*
X18343Y-25136D02*
X18343Y-25107D01*
X18254Y-25107D02*
X18343Y-25107D01*
X18254Y-25136D02*
X18254Y-25107D01*
G54D17*
X18726Y-25294D02*
X18726Y-25706D01*
X18274Y-25696D02*
X18274Y-25136D01*
G54D18*
X18351Y-25166D02*
G75*
G03X18351Y-25166I-28J0D01*
G74*
G01*
G54D17*
X18363Y-25107D02*
G75*
G03X18637Y-25107I137J0D01*
G74*
G01*
X18637Y-25893D02*
G75*
G03X18363Y-25893I-137J0D01*
G74*
G01*
G54D16*
X31882Y-25696D02*
X31754Y-25696D01*
X31754Y-25696D02*
X31754Y-25893D01*
X31882Y-25893D02*
X31754Y-25893D01*
X31882Y-25696D02*
X31882Y-25893D01*
X32127Y-25696D02*
X32068Y-25696D01*
X32068Y-25696D02*
X32068Y-25795D01*
X32127Y-25795D02*
X32068Y-25795D01*
X32127Y-25696D02*
X32127Y-25795D01*
X31932Y-25696D02*
X31873Y-25696D01*
X31873Y-25696D02*
X31873Y-25795D01*
X31932Y-25795D02*
X31873Y-25795D01*
X31932Y-25696D02*
X31932Y-25795D01*
X32078Y-25696D02*
X31922Y-25696D01*
X31922Y-25696D02*
X31922Y-25765D01*
X32078Y-25765D02*
X31922Y-25765D01*
X32078Y-25696D02*
X32078Y-25765D01*
X31882Y-25107D02*
X31754Y-25107D01*
X31754Y-25107D02*
X31754Y-25304D01*
X31882Y-25304D02*
X31754Y-25304D01*
X31882Y-25107D02*
X31882Y-25304D01*
X32246Y-25107D02*
X32118Y-25107D01*
X32118Y-25107D02*
X32118Y-25304D01*
X32246Y-25304D02*
X32118Y-25304D01*
X32246Y-25107D02*
X32246Y-25304D01*
X31932Y-25205D02*
X31873Y-25205D01*
X31873Y-25205D02*
X31873Y-25304D01*
X31932Y-25304D02*
X31873Y-25304D01*
X31932Y-25205D02*
X31932Y-25304D01*
X32127Y-25205D02*
X32068Y-25205D01*
X32068Y-25205D02*
X32068Y-25304D01*
X32127Y-25304D02*
X32068Y-25304D01*
X32127Y-25205D02*
X32127Y-25304D01*
X32078Y-25235D02*
X31922Y-25235D01*
X31922Y-25235D02*
X31922Y-25304D01*
X32078Y-25304D02*
X31922Y-25304D01*
X32078Y-25235D02*
X32078Y-25304D01*
X32039Y-25500D02*
X31961Y-25500D01*
X31961Y-25500D02*
X31961Y-25578D01*
X32039Y-25578D02*
X31961Y-25578D01*
X32039Y-25500D02*
X32039Y-25578D01*
X32236Y-25696D02*
X32118Y-25696D01*
X32118Y-25696D02*
X32118Y-25814D01*
X32236Y-25814D02*
X32118Y-25814D01*
X32236Y-25696D02*
X32236Y-25814D01*
X32246Y-25864D02*
X32157Y-25864D01*
X32157Y-25864D02*
X32157Y-25893D01*
X32246Y-25893D02*
X32157Y-25893D01*
X32246Y-25864D02*
X32246Y-25893D01*
G54D17*
X31774Y-25706D02*
X31774Y-25294D01*
X32226Y-25304D02*
X32226Y-25864D01*
G54D18*
X32205Y-25834D02*
G75*
G03X32205Y-25834I-28J0D01*
G74*
G01*
G54D17*
X32137Y-25893D02*
G75*
G03X31863Y-25893I-137J0D01*
G74*
G01*
X31863Y-25107D02*
G75*
G03X32137Y-25107I137J0D01*
G74*
G01*
G54D16*
X20382Y-25696D02*
X20254Y-25696D01*
X20254Y-25696D02*
X20254Y-25893D01*
X20382Y-25893D02*
X20254Y-25893D01*
X20382Y-25696D02*
X20382Y-25893D01*
X20627Y-25696D02*
X20568Y-25696D01*
X20568Y-25696D02*
X20568Y-25795D01*
X20627Y-25795D02*
X20568Y-25795D01*
X20627Y-25696D02*
X20627Y-25795D01*
X20432Y-25696D02*
X20373Y-25696D01*
X20373Y-25696D02*
X20373Y-25795D01*
X20432Y-25795D02*
X20373Y-25795D01*
X20432Y-25696D02*
X20432Y-25795D01*
X20578Y-25696D02*
X20422Y-25696D01*
X20422Y-25696D02*
X20422Y-25765D01*
X20578Y-25765D02*
X20422Y-25765D01*
X20578Y-25696D02*
X20578Y-25765D01*
X20382Y-25107D02*
X20254Y-25107D01*
X20254Y-25107D02*
X20254Y-25304D01*
X20382Y-25304D02*
X20254Y-25304D01*
X20382Y-25107D02*
X20382Y-25304D01*
X20746Y-25107D02*
X20618Y-25107D01*
X20618Y-25107D02*
X20618Y-25304D01*
X20746Y-25304D02*
X20618Y-25304D01*
X20746Y-25107D02*
X20746Y-25304D01*
X20432Y-25205D02*
X20373Y-25205D01*
X20373Y-25205D02*
X20373Y-25304D01*
X20432Y-25304D02*
X20373Y-25304D01*
X20432Y-25205D02*
X20432Y-25304D01*
X20627Y-25205D02*
X20568Y-25205D01*
X20568Y-25205D02*
X20568Y-25304D01*
X20627Y-25304D02*
X20568Y-25304D01*
X20627Y-25205D02*
X20627Y-25304D01*
X20578Y-25235D02*
X20422Y-25235D01*
X20422Y-25235D02*
X20422Y-25304D01*
X20578Y-25304D02*
X20422Y-25304D01*
X20578Y-25235D02*
X20578Y-25304D01*
X20539Y-25500D02*
X20461Y-25500D01*
X20461Y-25500D02*
X20461Y-25578D01*
X20539Y-25578D02*
X20461Y-25578D01*
X20539Y-25500D02*
X20539Y-25578D01*
X20736Y-25696D02*
X20618Y-25696D01*
X20618Y-25696D02*
X20618Y-25814D01*
X20736Y-25814D02*
X20618Y-25814D01*
X20736Y-25696D02*
X20736Y-25814D01*
X20746Y-25864D02*
X20657Y-25864D01*
X20657Y-25864D02*
X20657Y-25893D01*
X20746Y-25893D02*
X20657Y-25893D01*
X20746Y-25864D02*
X20746Y-25893D01*
G54D17*
X20274Y-25706D02*
X20274Y-25294D01*
X20726Y-25304D02*
X20726Y-25864D01*
G54D18*
X20705Y-25834D02*
G75*
G03X20705Y-25834I-28J0D01*
G74*
G01*
G54D17*
X20637Y-25893D02*
G75*
G03X20363Y-25893I-137J0D01*
G74*
G01*
X20363Y-25107D02*
G75*
G03X20637Y-25107I137J0D01*
G74*
G01*
G54D16*
X28118Y-25304D02*
X28246Y-25304D01*
X28246Y-25304D02*
X28246Y-25107D01*
X28118Y-25107D02*
X28246Y-25107D01*
X28118Y-25304D02*
X28118Y-25107D01*
X27873Y-25304D02*
X27932Y-25304D01*
X27932Y-25304D02*
X27932Y-25205D01*
X27873Y-25205D02*
X27932Y-25205D01*
X27873Y-25304D02*
X27873Y-25205D01*
X28068Y-25304D02*
X28127Y-25304D01*
X28127Y-25304D02*
X28127Y-25205D01*
X28068Y-25205D02*
X28127Y-25205D01*
X28068Y-25304D02*
X28068Y-25205D01*
X27922Y-25304D02*
X28078Y-25304D01*
X28078Y-25304D02*
X28078Y-25235D01*
X27922Y-25235D02*
X28078Y-25235D01*
X27922Y-25304D02*
X27922Y-25235D01*
X28118Y-25893D02*
X28246Y-25893D01*
X28246Y-25893D02*
X28246Y-25696D01*
X28118Y-25696D02*
X28246Y-25696D01*
X28118Y-25893D02*
X28118Y-25696D01*
X27754Y-25893D02*
X27882Y-25893D01*
X27882Y-25893D02*
X27882Y-25696D01*
X27754Y-25696D02*
X27882Y-25696D01*
X27754Y-25893D02*
X27754Y-25696D01*
X28068Y-25795D02*
X28127Y-25795D01*
X28127Y-25795D02*
X28127Y-25696D01*
X28068Y-25696D02*
X28127Y-25696D01*
X28068Y-25795D02*
X28068Y-25696D01*
X27873Y-25795D02*
X27932Y-25795D01*
X27932Y-25795D02*
X27932Y-25696D01*
X27873Y-25696D02*
X27932Y-25696D01*
X27873Y-25795D02*
X27873Y-25696D01*
X27922Y-25765D02*
X28078Y-25765D01*
X28078Y-25765D02*
X28078Y-25696D01*
X27922Y-25696D02*
X28078Y-25696D01*
X27922Y-25765D02*
X27922Y-25696D01*
X27961Y-25500D02*
X28039Y-25500D01*
X28039Y-25500D02*
X28039Y-25422D01*
X27961Y-25422D02*
X28039Y-25422D01*
X27961Y-25500D02*
X27961Y-25422D01*
X27764Y-25304D02*
X27882Y-25304D01*
X27882Y-25304D02*
X27882Y-25186D01*
X27764Y-25186D02*
X27882Y-25186D01*
X27764Y-25304D02*
X27764Y-25186D01*
X27754Y-25136D02*
X27843Y-25136D01*
X27843Y-25136D02*
X27843Y-25107D01*
X27754Y-25107D02*
X27843Y-25107D01*
X27754Y-25136D02*
X27754Y-25107D01*
G54D17*
X28226Y-25294D02*
X28226Y-25706D01*
X27774Y-25696D02*
X27774Y-25136D01*
G54D18*
X27851Y-25166D02*
G75*
G03X27851Y-25166I-28J0D01*
G74*
G01*
G54D17*
X27863Y-25107D02*
G75*
G03X28137Y-25107I137J0D01*
G74*
G01*
X28137Y-25893D02*
G75*
G03X27863Y-25893I-137J0D01*
G74*
G01*
G54D16*
X38118Y-25304D02*
X38246Y-25304D01*
X38246Y-25304D02*
X38246Y-25107D01*
X38118Y-25107D02*
X38246Y-25107D01*
X38118Y-25304D02*
X38118Y-25107D01*
X37873Y-25304D02*
X37932Y-25304D01*
X37932Y-25304D02*
X37932Y-25205D01*
X37873Y-25205D02*
X37932Y-25205D01*
X37873Y-25304D02*
X37873Y-25205D01*
X38068Y-25304D02*
X38127Y-25304D01*
X38127Y-25304D02*
X38127Y-25205D01*
X38068Y-25205D02*
X38127Y-25205D01*
X38068Y-25304D02*
X38068Y-25205D01*
X37922Y-25304D02*
X38078Y-25304D01*
X38078Y-25304D02*
X38078Y-25235D01*
X37922Y-25235D02*
X38078Y-25235D01*
X37922Y-25304D02*
X37922Y-25235D01*
X38118Y-25893D02*
X38246Y-25893D01*
X38246Y-25893D02*
X38246Y-25696D01*
X38118Y-25696D02*
X38246Y-25696D01*
X38118Y-25893D02*
X38118Y-25696D01*
X37754Y-25893D02*
X37882Y-25893D01*
X37882Y-25893D02*
X37882Y-25696D01*
X37754Y-25696D02*
X37882Y-25696D01*
X37754Y-25893D02*
X37754Y-25696D01*
X38068Y-25795D02*
X38127Y-25795D01*
X38127Y-25795D02*
X38127Y-25696D01*
X38068Y-25696D02*
X38127Y-25696D01*
X38068Y-25795D02*
X38068Y-25696D01*
X37873Y-25795D02*
X37932Y-25795D01*
X37932Y-25795D02*
X37932Y-25696D01*
X37873Y-25696D02*
X37932Y-25696D01*
X37873Y-25795D02*
X37873Y-25696D01*
X37922Y-25765D02*
X38078Y-25765D01*
X38078Y-25765D02*
X38078Y-25696D01*
X37922Y-25696D02*
X38078Y-25696D01*
X37922Y-25765D02*
X37922Y-25696D01*
X37961Y-25500D02*
X38039Y-25500D01*
X38039Y-25500D02*
X38039Y-25422D01*
X37961Y-25422D02*
X38039Y-25422D01*
X37961Y-25500D02*
X37961Y-25422D01*
X37764Y-25304D02*
X37882Y-25304D01*
X37882Y-25304D02*
X37882Y-25186D01*
X37764Y-25186D02*
X37882Y-25186D01*
X37764Y-25304D02*
X37764Y-25186D01*
X37754Y-25136D02*
X37843Y-25136D01*
X37843Y-25136D02*
X37843Y-25107D01*
X37754Y-25107D02*
X37843Y-25107D01*
X37754Y-25136D02*
X37754Y-25107D01*
G54D17*
X38226Y-25294D02*
X38226Y-25706D01*
X37774Y-25696D02*
X37774Y-25136D01*
G54D18*
X37851Y-25166D02*
G75*
G03X37851Y-25166I-28J0D01*
G74*
G01*
G54D17*
X37863Y-25107D02*
G75*
G03X38137Y-25107I137J0D01*
G74*
G01*
X38137Y-25893D02*
G75*
G03X37863Y-25893I-137J0D01*
G74*
G01*
G54D16*
X33882Y-25696D02*
X33754Y-25696D01*
X33754Y-25696D02*
X33754Y-25893D01*
X33882Y-25893D02*
X33754Y-25893D01*
X33882Y-25696D02*
X33882Y-25893D01*
X34127Y-25696D02*
X34068Y-25696D01*
X34068Y-25696D02*
X34068Y-25795D01*
X34127Y-25795D02*
X34068Y-25795D01*
X34127Y-25696D02*
X34127Y-25795D01*
X33932Y-25696D02*
X33873Y-25696D01*
X33873Y-25696D02*
X33873Y-25795D01*
X33932Y-25795D02*
X33873Y-25795D01*
X33932Y-25696D02*
X33932Y-25795D01*
X34078Y-25696D02*
X33922Y-25696D01*
X33922Y-25696D02*
X33922Y-25765D01*
X34078Y-25765D02*
X33922Y-25765D01*
X34078Y-25696D02*
X34078Y-25765D01*
X33882Y-25107D02*
X33754Y-25107D01*
X33754Y-25107D02*
X33754Y-25304D01*
X33882Y-25304D02*
X33754Y-25304D01*
X33882Y-25107D02*
X33882Y-25304D01*
X34246Y-25107D02*
X34118Y-25107D01*
X34118Y-25107D02*
X34118Y-25304D01*
X34246Y-25304D02*
X34118Y-25304D01*
X34246Y-25107D02*
X34246Y-25304D01*
X33932Y-25205D02*
X33873Y-25205D01*
X33873Y-25205D02*
X33873Y-25304D01*
X33932Y-25304D02*
X33873Y-25304D01*
X33932Y-25205D02*
X33932Y-25304D01*
X34127Y-25205D02*
X34068Y-25205D01*
X34068Y-25205D02*
X34068Y-25304D01*
X34127Y-25304D02*
X34068Y-25304D01*
X34127Y-25205D02*
X34127Y-25304D01*
X34078Y-25235D02*
X33922Y-25235D01*
X33922Y-25235D02*
X33922Y-25304D01*
X34078Y-25304D02*
X33922Y-25304D01*
X34078Y-25235D02*
X34078Y-25304D01*
X34039Y-25500D02*
X33961Y-25500D01*
X33961Y-25500D02*
X33961Y-25578D01*
X34039Y-25578D02*
X33961Y-25578D01*
X34039Y-25500D02*
X34039Y-25578D01*
X34236Y-25696D02*
X34118Y-25696D01*
X34118Y-25696D02*
X34118Y-25814D01*
X34236Y-25814D02*
X34118Y-25814D01*
X34236Y-25696D02*
X34236Y-25814D01*
X34246Y-25864D02*
X34157Y-25864D01*
X34157Y-25864D02*
X34157Y-25893D01*
X34246Y-25893D02*
X34157Y-25893D01*
X34246Y-25864D02*
X34246Y-25893D01*
G54D17*
X33774Y-25706D02*
X33774Y-25294D01*
X34226Y-25304D02*
X34226Y-25864D01*
G54D18*
X34205Y-25834D02*
G75*
G03X34205Y-25834I-28J0D01*
G74*
G01*
G54D17*
X34137Y-25893D02*
G75*
G03X33863Y-25893I-137J0D01*
G74*
G01*
X33863Y-25107D02*
G75*
G03X34137Y-25107I137J0D01*
G74*
G01*
G54D19*
X32200Y-5950D02*
X32200Y-5650D01*
X32200Y-5650D02*
X28800Y-5650D01*
X28800Y-5650D02*
X28800Y-5950D01*
X32200Y-7150D02*
X28800Y-7150D01*
X32200Y-10950D02*
X28800Y-10950D01*
X28800Y-5950D02*
X28800Y-10950D01*
X32200Y-5950D02*
X32200Y-10950D01*
X19994Y-19980D02*
X20388Y-20394D01*
X20388Y-20394D02*
X20388Y-19606D01*
X20388Y-19606D02*
X19994Y-20000D01*
X19994Y-20413D02*
X19994Y-19587D01*
G54D13*
X35490Y-10985D02*
X35690Y-10985D01*
X35690Y-10985D02*
X35690Y-10515D01*
X35490Y-10985D02*
X35490Y-10515D01*
X34900Y-10985D02*
X34900Y-10515D01*
X35100Y-10985D02*
X35100Y-10515D01*
X34900Y-10985D02*
X35100Y-10985D01*
X34310Y-10985D02*
X34510Y-10985D01*
X34510Y-10985D02*
X34510Y-10515D01*
X34310Y-10985D02*
X34310Y-10515D01*
X34645Y-9290D02*
X35355Y-9290D01*
X35355Y-9290D02*
X35355Y-9485D01*
X34645Y-9290D02*
X34645Y-9485D01*
X34095Y-10515D02*
X34095Y-9485D01*
X34095Y-9485D02*
X35905Y-9485D01*
X35905Y-9485D02*
X35905Y-10515D01*
X35905Y-10515D02*
X34095Y-10515D01*
G54D20*
X35525Y-19112D02*
G75*
G03X35525Y-19112I-62J0D01*
G74*
G01*
X34500Y-19450D02*
X34500Y-19050D01*
X35525Y-19450D02*
X35525Y-19050D01*
X34500Y-19050D02*
X35525Y-19050D01*
X35525Y-19450D02*
X34500Y-19450D01*
X29025Y-19862D02*
G75*
G03X29025Y-19862I-62J0D01*
G74*
G01*
X28000Y-20200D02*
X28000Y-19800D01*
X29025Y-20200D02*
X29025Y-19800D01*
X28000Y-19800D02*
X29025Y-19800D01*
X29025Y-20200D02*
X28000Y-20200D01*
X37275Y-19112D02*
G75*
G03X37275Y-19112I-62J0D01*
G74*
G01*
X36250Y-19450D02*
X36250Y-19050D01*
X37275Y-19450D02*
X37275Y-19050D01*
X36250Y-19050D02*
X37275Y-19050D01*
X37275Y-19450D02*
X36250Y-19450D01*
X33525Y-19112D02*
G75*
G03X33525Y-19112I-62J0D01*
G74*
G01*
X32500Y-19450D02*
X32500Y-19050D01*
X33525Y-19450D02*
X33525Y-19050D01*
X32500Y-19050D02*
X33525Y-19050D01*
X33525Y-19450D02*
X32500Y-19450D01*
X27025Y-18112D02*
G75*
G03X27025Y-18112I-62J0D01*
G74*
G01*
X26000Y-18450D02*
X26000Y-18050D01*
X27025Y-18450D02*
X27025Y-18050D01*
X26000Y-18050D02*
X27025Y-18050D01*
X27025Y-18450D02*
X26000Y-18450D01*
G54D19*
X33256Y-11770D02*
X32862Y-11356D01*
X32862Y-11356D02*
X32862Y-12144D01*
X32862Y-12144D02*
X33256Y-11750D01*
X33256Y-11337D02*
X33256Y-12163D01*
G54D15*
X34650Y-12050D02*
G75*
G03X34650Y-12050I-50J0D01*
G74*
G01*
X35050Y-12050D02*
X34650Y-12050D01*
X34650Y-12050D02*
X34650Y-11450D01*
X34650Y-11450D02*
X35050Y-11450D01*
X35450Y-11450D02*
X35850Y-11450D01*
X35850Y-11450D02*
X35850Y-12050D01*
X35850Y-12050D02*
X35450Y-12050D01*
G54D19*
X35000Y-7750D02*
G75*
G03X35000Y-7750I-1250J0D01*
G74*
G01*
X37750Y-7750D02*
G75*
G03X37750Y-7750I-1250J0D01*
G74*
G01*
X40500Y-7750D02*
G75*
G03X40500Y-7750I-1250J0D01*
G74*
G01*
G54D13*
X29625Y-19225D02*
X29625Y-18965D01*
X30375Y-19225D02*
X30375Y-18965D01*
X30000Y-19775D02*
X30000Y-20035D01*
X30590Y-19775D02*
X29410Y-19775D01*
X29410Y-19775D02*
X29410Y-19225D01*
X29410Y-19225D02*
X30590Y-19225D01*
X30590Y-19225D02*
X30590Y-19775D01*
X31875Y-19025D02*
X31875Y-19285D01*
X31125Y-19025D02*
X31125Y-19285D01*
X31500Y-18475D02*
X31500Y-18215D01*
X30910Y-18475D02*
X32090Y-18475D01*
X32090Y-18475D02*
X32090Y-19025D01*
X32090Y-19025D02*
X30910Y-19025D01*
X30910Y-19025D02*
X30910Y-18475D01*
X24225Y-16875D02*
X23965Y-16875D01*
X24225Y-16125D02*
X23965Y-16125D01*
X24775Y-16500D02*
X25035Y-16500D01*
X24775Y-15910D02*
X24775Y-17090D01*
X24775Y-17090D02*
X24225Y-17090D01*
X24225Y-17090D02*
X24225Y-15910D01*
X24225Y-15910D02*
X24775Y-15910D01*
G54D19*
X22256Y-17770D02*
X21862Y-17356D01*
X21862Y-17356D02*
X21862Y-18144D01*
X21862Y-18144D02*
X22256Y-17750D01*
X22256Y-17337D02*
X22256Y-18163D01*
X39000Y-23500D02*
X39000Y-13500D01*
X19000Y-13500D02*
X19000Y-23500D01*
X39000Y-22500D02*
X19000Y-22500D01*
X19000Y-14500D02*
X39000Y-14500D01*
X19000Y-13500D02*
X39000Y-13500D01*
X39000Y-23500D02*
X19000Y-23500D01*
G54D21*
X26142Y-8200D02*
X26571Y-8200D01*
X26657Y-8228D01*
X26714Y-8285D01*
X26742Y-8371D01*
X26742Y-8428D01*
X26742Y-7600D02*
X26742Y-7942D01*
X26742Y-7771D02*
X26142Y-7771D01*
X26228Y-7828D01*
X26285Y-7885D01*
X26314Y-7942D01*
G54D14*
X40445Y-9511D02*
X40445Y-9835D01*
X40464Y-9873D01*
X40483Y-9892D01*
X40521Y-9911D01*
X40597Y-9911D01*
X40635Y-9892D01*
X40654Y-9873D01*
X40673Y-9835D01*
X40673Y-9511D01*
X40845Y-9550D02*
X40864Y-9530D01*
X40902Y-9511D01*
X40997Y-9511D01*
X41035Y-9530D01*
X41054Y-9550D01*
X41073Y-9588D01*
X41073Y-9626D01*
X41054Y-9683D01*
X40826Y-9911D01*
X41073Y-9911D01*
G54D22*
X35967Y-15579D02*
X35901Y-15485D01*
X35854Y-15579D02*
X35854Y-15382D01*
X35929Y-15382D01*
X35948Y-15392D01*
X35957Y-15401D01*
X35967Y-15420D01*
X35967Y-15448D01*
X35957Y-15467D01*
X35948Y-15476D01*
X35929Y-15485D01*
X35854Y-15485D01*
X36032Y-15382D02*
X36154Y-15382D01*
X36089Y-15457D01*
X36117Y-15457D01*
X36136Y-15467D01*
X36145Y-15476D01*
X36154Y-15495D01*
X36154Y-15542D01*
X36145Y-15560D01*
X36136Y-15570D01*
X36117Y-15579D01*
X36060Y-15579D01*
X36042Y-15570D01*
X36032Y-15560D01*
X20123Y-16329D02*
X20057Y-16235D01*
X20010Y-16329D02*
X20010Y-16132D01*
X20085Y-16132D01*
X20104Y-16142D01*
X20113Y-16151D01*
X20123Y-16170D01*
X20123Y-16198D01*
X20113Y-16217D01*
X20104Y-16226D01*
X20085Y-16235D01*
X20010Y-16235D01*
X20310Y-16329D02*
X20198Y-16329D01*
X20254Y-16329D02*
X20254Y-16132D01*
X20235Y-16160D01*
X20217Y-16179D01*
X20198Y-16189D01*
X20376Y-16132D02*
X20507Y-16132D01*
X20423Y-16329D01*
X18829Y-17626D02*
X18735Y-17692D01*
X18829Y-17739D02*
X18632Y-17739D01*
X18632Y-17664D01*
X18642Y-17645D01*
X18651Y-17636D01*
X18670Y-17626D01*
X18698Y-17626D01*
X18717Y-17636D01*
X18726Y-17645D01*
X18735Y-17664D01*
X18735Y-17739D01*
X18632Y-17560D02*
X18632Y-17439D01*
X18707Y-17504D01*
X18707Y-17476D01*
X18717Y-17457D01*
X18726Y-17448D01*
X18745Y-17439D01*
X18792Y-17439D01*
X18810Y-17448D01*
X18820Y-17457D01*
X18829Y-17476D01*
X18829Y-17532D01*
X18820Y-17551D01*
X18810Y-17560D01*
X18632Y-17373D02*
X18632Y-17251D01*
X18707Y-17317D01*
X18707Y-17288D01*
X18717Y-17270D01*
X18726Y-17260D01*
X18745Y-17251D01*
X18792Y-17251D01*
X18810Y-17260D01*
X18820Y-17270D01*
X18829Y-17288D01*
X18829Y-17345D01*
X18820Y-17363D01*
X18810Y-17373D01*
X24079Y-12626D02*
X23985Y-12692D01*
X24079Y-12739D02*
X23882Y-12739D01*
X23882Y-12664D01*
X23892Y-12645D01*
X23901Y-12636D01*
X23920Y-12626D01*
X23948Y-12626D01*
X23967Y-12636D01*
X23976Y-12645D01*
X23985Y-12664D01*
X23985Y-12739D01*
X23882Y-12560D02*
X23882Y-12439D01*
X23957Y-12504D01*
X23957Y-12476D01*
X23967Y-12457D01*
X23976Y-12448D01*
X23995Y-12439D01*
X24042Y-12439D01*
X24060Y-12448D01*
X24070Y-12457D01*
X24079Y-12476D01*
X24079Y-12532D01*
X24070Y-12551D01*
X24060Y-12560D01*
X23882Y-12317D02*
X23882Y-12298D01*
X23892Y-12279D01*
X23901Y-12270D01*
X23920Y-12260D01*
X23957Y-12251D01*
X24004Y-12251D01*
X24042Y-12260D01*
X24060Y-12270D01*
X24070Y-12279D01*
X24079Y-12298D01*
X24079Y-12317D01*
X24070Y-12335D01*
X24060Y-12345D01*
X24042Y-12354D01*
X24004Y-12363D01*
X23957Y-12363D01*
X23920Y-12354D01*
X23901Y-12345D01*
X23892Y-12335D01*
X23882Y-12317D01*
X22079Y-12626D02*
X21985Y-12692D01*
X22079Y-12739D02*
X21882Y-12739D01*
X21882Y-12664D01*
X21892Y-12645D01*
X21901Y-12636D01*
X21920Y-12626D01*
X21948Y-12626D01*
X21967Y-12636D01*
X21976Y-12645D01*
X21985Y-12664D01*
X21985Y-12739D01*
X21901Y-12551D02*
X21892Y-12542D01*
X21882Y-12523D01*
X21882Y-12476D01*
X21892Y-12457D01*
X21901Y-12448D01*
X21920Y-12439D01*
X21939Y-12439D01*
X21967Y-12448D01*
X22079Y-12560D01*
X22079Y-12439D01*
X22079Y-12345D02*
X22079Y-12307D01*
X22070Y-12288D01*
X22060Y-12279D01*
X22032Y-12260D01*
X21995Y-12251D01*
X21920Y-12251D01*
X21901Y-12260D01*
X21892Y-12270D01*
X21882Y-12288D01*
X21882Y-12326D01*
X21892Y-12345D01*
X21901Y-12354D01*
X21920Y-12363D01*
X21967Y-12363D01*
X21985Y-12354D01*
X21995Y-12345D01*
X22004Y-12326D01*
X22004Y-12288D01*
X21995Y-12270D01*
X21985Y-12260D01*
X21967Y-12251D01*
X37467Y-13060D02*
X37457Y-13070D01*
X37429Y-13079D01*
X37410Y-13079D01*
X37382Y-13070D01*
X37363Y-13051D01*
X37354Y-13032D01*
X37345Y-12995D01*
X37345Y-12967D01*
X37354Y-12929D01*
X37363Y-12910D01*
X37382Y-12892D01*
X37410Y-12882D01*
X37429Y-12882D01*
X37457Y-12892D01*
X37467Y-12901D01*
X37542Y-12901D02*
X37551Y-12892D01*
X37570Y-12882D01*
X37617Y-12882D01*
X37636Y-12892D01*
X37645Y-12901D01*
X37654Y-12920D01*
X37654Y-12939D01*
X37645Y-12967D01*
X37532Y-13079D01*
X37654Y-13079D01*
X23579Y-21032D02*
X23485Y-21098D01*
X23579Y-21145D02*
X23382Y-21145D01*
X23382Y-21070D01*
X23392Y-21051D01*
X23401Y-21042D01*
X23420Y-21032D01*
X23448Y-21032D01*
X23467Y-21042D01*
X23476Y-21051D01*
X23485Y-21070D01*
X23485Y-21145D01*
X23401Y-20957D02*
X23392Y-20948D01*
X23382Y-20929D01*
X23382Y-20882D01*
X23392Y-20863D01*
X23401Y-20854D01*
X23420Y-20845D01*
X23439Y-20845D01*
X23467Y-20854D01*
X23579Y-20967D01*
X23579Y-20845D01*
X27967Y-15579D02*
X27901Y-15485D01*
X27854Y-15579D02*
X27854Y-15382D01*
X27929Y-15382D01*
X27948Y-15392D01*
X27957Y-15401D01*
X27967Y-15420D01*
X27967Y-15448D01*
X27957Y-15467D01*
X27948Y-15476D01*
X27929Y-15485D01*
X27854Y-15485D01*
X28136Y-15382D02*
X28098Y-15382D01*
X28079Y-15392D01*
X28070Y-15401D01*
X28051Y-15429D01*
X28042Y-15467D01*
X28042Y-15542D01*
X28051Y-15560D01*
X28060Y-15570D01*
X28079Y-15579D01*
X28117Y-15579D01*
X28136Y-15570D01*
X28145Y-15560D01*
X28154Y-15542D01*
X28154Y-15495D01*
X28145Y-15476D01*
X28136Y-15467D01*
X28117Y-15457D01*
X28079Y-15457D01*
X28060Y-15467D01*
X28051Y-15476D01*
X28042Y-15495D01*
X38467Y-12060D02*
X38457Y-12070D01*
X38429Y-12079D01*
X38410Y-12079D01*
X38382Y-12070D01*
X38363Y-12051D01*
X38354Y-12032D01*
X38345Y-11995D01*
X38345Y-11967D01*
X38354Y-11929D01*
X38363Y-11910D01*
X38382Y-11892D01*
X38410Y-11882D01*
X38429Y-11882D01*
X38457Y-11892D01*
X38467Y-11901D01*
X38532Y-11882D02*
X38654Y-11882D01*
X38589Y-11957D01*
X38617Y-11957D01*
X38636Y-11967D01*
X38645Y-11976D01*
X38654Y-11995D01*
X38654Y-12042D01*
X38645Y-12060D01*
X38636Y-12070D01*
X38617Y-12079D01*
X38560Y-12079D01*
X38542Y-12070D01*
X38532Y-12060D01*
X16829Y-18032D02*
X16735Y-18098D01*
X16829Y-18145D02*
X16632Y-18145D01*
X16632Y-18070D01*
X16642Y-18051D01*
X16651Y-18042D01*
X16670Y-18032D01*
X16698Y-18032D01*
X16717Y-18042D01*
X16726Y-18051D01*
X16735Y-18070D01*
X16735Y-18145D01*
X16829Y-17845D02*
X16829Y-17957D01*
X16829Y-17901D02*
X16632Y-17901D01*
X16660Y-17920D01*
X16679Y-17939D01*
X16689Y-17957D01*
X33310Y-10032D02*
X33320Y-10042D01*
X33329Y-10070D01*
X33329Y-10089D01*
X33320Y-10117D01*
X33301Y-10136D01*
X33282Y-10145D01*
X33245Y-10154D01*
X33217Y-10154D01*
X33179Y-10145D01*
X33160Y-10136D01*
X33142Y-10117D01*
X33132Y-10089D01*
X33132Y-10070D01*
X33142Y-10042D01*
X33151Y-10032D01*
X33329Y-9845D02*
X33329Y-9957D01*
X33329Y-9901D02*
X33132Y-9901D01*
X33160Y-9920D01*
X33179Y-9939D01*
X33189Y-9957D01*
X37967Y-15579D02*
X37901Y-15485D01*
X37854Y-15579D02*
X37854Y-15382D01*
X37929Y-15382D01*
X37948Y-15392D01*
X37957Y-15401D01*
X37967Y-15420D01*
X37967Y-15448D01*
X37957Y-15467D01*
X37948Y-15476D01*
X37929Y-15485D01*
X37854Y-15485D01*
X38032Y-15382D02*
X38164Y-15382D01*
X38079Y-15579D01*
X21873Y-15829D02*
X21807Y-15735D01*
X21760Y-15829D02*
X21760Y-15632D01*
X21835Y-15632D01*
X21854Y-15642D01*
X21863Y-15651D01*
X21873Y-15670D01*
X21873Y-15698D01*
X21863Y-15717D01*
X21854Y-15726D01*
X21835Y-15735D01*
X21760Y-15735D01*
X22060Y-15829D02*
X21948Y-15829D01*
X22004Y-15829D02*
X22004Y-15632D01*
X21985Y-15660D01*
X21967Y-15679D01*
X21948Y-15689D01*
X22229Y-15632D02*
X22192Y-15632D01*
X22173Y-15642D01*
X22164Y-15651D01*
X22145Y-15679D01*
X22136Y-15717D01*
X22136Y-15792D01*
X22145Y-15810D01*
X22154Y-15820D01*
X22173Y-15829D01*
X22211Y-15829D01*
X22229Y-15820D01*
X22239Y-15810D01*
X22248Y-15792D01*
X22248Y-15745D01*
X22239Y-15726D01*
X22229Y-15717D01*
X22211Y-15707D01*
X22173Y-15707D01*
X22154Y-15717D01*
X22145Y-15726D01*
X22136Y-15745D01*
X33967Y-15579D02*
X33901Y-15485D01*
X33854Y-15579D02*
X33854Y-15382D01*
X33929Y-15382D01*
X33948Y-15392D01*
X33957Y-15401D01*
X33967Y-15420D01*
X33967Y-15448D01*
X33957Y-15467D01*
X33948Y-15476D01*
X33929Y-15485D01*
X33854Y-15485D01*
X34079Y-15467D02*
X34060Y-15457D01*
X34051Y-15448D01*
X34042Y-15429D01*
X34042Y-15420D01*
X34051Y-15401D01*
X34060Y-15392D01*
X34079Y-15382D01*
X34117Y-15382D01*
X34136Y-15392D01*
X34145Y-15401D01*
X34154Y-15420D01*
X34154Y-15429D01*
X34145Y-15448D01*
X34136Y-15457D01*
X34117Y-15467D01*
X34079Y-15467D01*
X34060Y-15476D01*
X34051Y-15485D01*
X34042Y-15504D01*
X34042Y-15542D01*
X34051Y-15560D01*
X34060Y-15570D01*
X34079Y-15579D01*
X34117Y-15579D01*
X34136Y-15570D01*
X34145Y-15560D01*
X34154Y-15542D01*
X34154Y-15504D01*
X34145Y-15485D01*
X34136Y-15476D01*
X34117Y-15467D01*
X31967Y-15579D02*
X31901Y-15485D01*
X31854Y-15579D02*
X31854Y-15382D01*
X31929Y-15382D01*
X31948Y-15392D01*
X31957Y-15401D01*
X31967Y-15420D01*
X31967Y-15448D01*
X31957Y-15467D01*
X31948Y-15476D01*
X31929Y-15485D01*
X31854Y-15485D01*
X32136Y-15448D02*
X32136Y-15579D01*
X32089Y-15373D02*
X32042Y-15514D01*
X32164Y-15514D01*
X29967Y-15579D02*
X29901Y-15485D01*
X29854Y-15579D02*
X29854Y-15382D01*
X29929Y-15382D01*
X29948Y-15392D01*
X29957Y-15401D01*
X29967Y-15420D01*
X29967Y-15448D01*
X29957Y-15467D01*
X29948Y-15476D01*
X29929Y-15485D01*
X29854Y-15485D01*
X30060Y-15579D02*
X30098Y-15579D01*
X30117Y-15570D01*
X30126Y-15560D01*
X30145Y-15532D01*
X30154Y-15495D01*
X30154Y-15420D01*
X30145Y-15401D01*
X30136Y-15392D01*
X30117Y-15382D01*
X30079Y-15382D01*
X30060Y-15392D01*
X30051Y-15401D01*
X30042Y-15420D01*
X30042Y-15467D01*
X30051Y-15485D01*
X30060Y-15495D01*
X30079Y-15504D01*
X30117Y-15504D01*
X30136Y-15495D01*
X30145Y-15485D01*
X30154Y-15467D01*
X22329Y-20876D02*
X22235Y-20942D01*
X22329Y-20989D02*
X22132Y-20989D01*
X22132Y-20914D01*
X22142Y-20895D01*
X22151Y-20886D01*
X22170Y-20876D01*
X22198Y-20876D01*
X22217Y-20886D01*
X22226Y-20895D01*
X22235Y-20914D01*
X22235Y-20989D01*
X22329Y-20689D02*
X22329Y-20801D01*
X22329Y-20745D02*
X22132Y-20745D01*
X22160Y-20764D01*
X22179Y-20782D01*
X22189Y-20801D01*
X22132Y-20567D02*
X22132Y-20548D01*
X22142Y-20529D01*
X22151Y-20520D01*
X22170Y-20510D01*
X22207Y-20501D01*
X22254Y-20501D01*
X22292Y-20510D01*
X22310Y-20520D01*
X22320Y-20529D01*
X22329Y-20548D01*
X22329Y-20567D01*
X22320Y-20585D01*
X22310Y-20595D01*
X22292Y-20604D01*
X22254Y-20613D01*
X22207Y-20613D01*
X22170Y-20604D01*
X22151Y-20595D01*
X22142Y-20585D01*
X22132Y-20567D01*
X28717Y-16579D02*
X28651Y-16485D01*
X28604Y-16579D02*
X28604Y-16382D01*
X28679Y-16382D01*
X28698Y-16392D01*
X28707Y-16401D01*
X28717Y-16420D01*
X28717Y-16448D01*
X28707Y-16467D01*
X28698Y-16476D01*
X28679Y-16485D01*
X28604Y-16485D01*
X28895Y-16382D02*
X28801Y-16382D01*
X28792Y-16476D01*
X28801Y-16467D01*
X28820Y-16457D01*
X28867Y-16457D01*
X28886Y-16467D01*
X28895Y-16476D01*
X28904Y-16495D01*
X28904Y-16542D01*
X28895Y-16560D01*
X28886Y-16570D01*
X28867Y-16579D01*
X28820Y-16579D01*
X28801Y-16570D01*
X28792Y-16560D01*
X37079Y-21626D02*
X36985Y-21692D01*
X37079Y-21739D02*
X36882Y-21739D01*
X36882Y-21664D01*
X36892Y-21645D01*
X36901Y-21636D01*
X36920Y-21626D01*
X36948Y-21626D01*
X36967Y-21636D01*
X36976Y-21645D01*
X36985Y-21664D01*
X36985Y-21739D01*
X36901Y-21551D02*
X36892Y-21542D01*
X36882Y-21523D01*
X36882Y-21476D01*
X36892Y-21457D01*
X36901Y-21448D01*
X36920Y-21439D01*
X36939Y-21439D01*
X36967Y-21448D01*
X37079Y-21560D01*
X37079Y-21439D01*
X37079Y-21251D02*
X37079Y-21363D01*
X37079Y-21307D02*
X36882Y-21307D01*
X36910Y-21326D01*
X36929Y-21345D01*
X36939Y-21363D01*
X36079Y-22126D02*
X35985Y-22192D01*
X36079Y-22239D02*
X35882Y-22239D01*
X35882Y-22164D01*
X35892Y-22145D01*
X35901Y-22136D01*
X35920Y-22126D01*
X35948Y-22126D01*
X35967Y-22136D01*
X35976Y-22145D01*
X35985Y-22164D01*
X35985Y-22239D01*
X36079Y-21939D02*
X36079Y-22051D01*
X36079Y-21995D02*
X35882Y-21995D01*
X35910Y-22014D01*
X35929Y-22032D01*
X35939Y-22051D01*
X36079Y-21845D02*
X36079Y-21807D01*
X36070Y-21788D01*
X36060Y-21779D01*
X36032Y-21760D01*
X35995Y-21751D01*
X35920Y-21751D01*
X35901Y-21760D01*
X35892Y-21770D01*
X35882Y-21788D01*
X35882Y-21826D01*
X35892Y-21845D01*
X35901Y-21854D01*
X35920Y-21863D01*
X35967Y-21863D01*
X35985Y-21854D01*
X35995Y-21845D01*
X36004Y-21826D01*
X36004Y-21788D01*
X35995Y-21770D01*
X35985Y-21760D01*
X35967Y-21751D01*
X24373Y-18329D02*
X24307Y-18235D01*
X24260Y-18329D02*
X24260Y-18132D01*
X24335Y-18132D01*
X24354Y-18142D01*
X24363Y-18151D01*
X24373Y-18170D01*
X24373Y-18198D01*
X24363Y-18217D01*
X24354Y-18226D01*
X24335Y-18235D01*
X24260Y-18235D01*
X24448Y-18151D02*
X24457Y-18142D01*
X24476Y-18132D01*
X24523Y-18132D01*
X24542Y-18142D01*
X24551Y-18151D01*
X24560Y-18170D01*
X24560Y-18189D01*
X24551Y-18217D01*
X24439Y-18329D01*
X24560Y-18329D01*
X24636Y-18151D02*
X24645Y-18142D01*
X24664Y-18132D01*
X24711Y-18132D01*
X24729Y-18142D01*
X24739Y-18151D01*
X24748Y-18170D01*
X24748Y-18189D01*
X24739Y-18217D01*
X24626Y-18329D01*
X24748Y-18329D01*
X31873Y-21579D02*
X31807Y-21485D01*
X31760Y-21579D02*
X31760Y-21382D01*
X31835Y-21382D01*
X31854Y-21392D01*
X31863Y-21401D01*
X31873Y-21420D01*
X31873Y-21448D01*
X31863Y-21467D01*
X31854Y-21476D01*
X31835Y-21485D01*
X31760Y-21485D01*
X32060Y-21579D02*
X31948Y-21579D01*
X32004Y-21579D02*
X32004Y-21382D01*
X31985Y-21410D01*
X31967Y-21429D01*
X31948Y-21439D01*
X32229Y-21448D02*
X32229Y-21579D01*
X32182Y-21373D02*
X32136Y-21514D01*
X32257Y-21514D01*
X26873Y-21579D02*
X26807Y-21485D01*
X26760Y-21579D02*
X26760Y-21382D01*
X26835Y-21382D01*
X26854Y-21392D01*
X26863Y-21401D01*
X26873Y-21420D01*
X26873Y-21448D01*
X26863Y-21467D01*
X26854Y-21476D01*
X26835Y-21485D01*
X26760Y-21485D01*
X27060Y-21579D02*
X26948Y-21579D01*
X27004Y-21579D02*
X27004Y-21382D01*
X26985Y-21410D01*
X26967Y-21429D01*
X26948Y-21439D01*
X27173Y-21467D02*
X27154Y-21457D01*
X27145Y-21448D01*
X27136Y-21429D01*
X27136Y-21420D01*
X27145Y-21401D01*
X27154Y-21392D01*
X27173Y-21382D01*
X27211Y-21382D01*
X27229Y-21392D01*
X27239Y-21401D01*
X27248Y-21420D01*
X27248Y-21429D01*
X27239Y-21448D01*
X27229Y-21457D01*
X27211Y-21467D01*
X27173Y-21467D01*
X27154Y-21476D01*
X27145Y-21485D01*
X27136Y-21504D01*
X27136Y-21542D01*
X27145Y-21560D01*
X27154Y-21570D01*
X27173Y-21579D01*
X27211Y-21579D01*
X27229Y-21570D01*
X27239Y-21560D01*
X27248Y-21542D01*
X27248Y-21504D01*
X27239Y-21485D01*
X27229Y-21476D01*
X27211Y-21467D01*
X24873Y-21579D02*
X24807Y-21485D01*
X24760Y-21579D02*
X24760Y-21382D01*
X24835Y-21382D01*
X24854Y-21392D01*
X24863Y-21401D01*
X24873Y-21420D01*
X24873Y-21448D01*
X24863Y-21467D01*
X24854Y-21476D01*
X24835Y-21485D01*
X24760Y-21485D01*
X24948Y-21401D02*
X24957Y-21392D01*
X24976Y-21382D01*
X25023Y-21382D01*
X25042Y-21392D01*
X25051Y-21401D01*
X25060Y-21420D01*
X25060Y-21439D01*
X25051Y-21467D01*
X24939Y-21579D01*
X25060Y-21579D01*
X25126Y-21382D02*
X25248Y-21382D01*
X25182Y-21457D01*
X25211Y-21457D01*
X25229Y-21467D01*
X25239Y-21476D01*
X25248Y-21495D01*
X25248Y-21542D01*
X25239Y-21560D01*
X25229Y-21570D01*
X25211Y-21579D01*
X25154Y-21579D01*
X25136Y-21570D01*
X25126Y-21560D01*
X25873Y-15579D02*
X25807Y-15485D01*
X25760Y-15579D02*
X25760Y-15382D01*
X25835Y-15382D01*
X25854Y-15392D01*
X25863Y-15401D01*
X25873Y-15420D01*
X25873Y-15448D01*
X25863Y-15467D01*
X25854Y-15476D01*
X25835Y-15485D01*
X25760Y-15485D01*
X26060Y-15579D02*
X25948Y-15579D01*
X26004Y-15579D02*
X26004Y-15382D01*
X25985Y-15410D01*
X25967Y-15429D01*
X25948Y-15439D01*
X26239Y-15382D02*
X26145Y-15382D01*
X26136Y-15476D01*
X26145Y-15467D01*
X26164Y-15457D01*
X26211Y-15457D01*
X26229Y-15467D01*
X26239Y-15476D01*
X26248Y-15495D01*
X26248Y-15542D01*
X26239Y-15560D01*
X26229Y-15570D01*
X26211Y-15579D01*
X26164Y-15579D01*
X26145Y-15570D01*
X26136Y-15560D01*
X20079Y-21626D02*
X19985Y-21692D01*
X20079Y-21739D02*
X19882Y-21739D01*
X19882Y-21664D01*
X19892Y-21645D01*
X19901Y-21636D01*
X19920Y-21626D01*
X19948Y-21626D01*
X19967Y-21636D01*
X19976Y-21645D01*
X19985Y-21664D01*
X19985Y-21739D01*
X20079Y-21439D02*
X20079Y-21551D01*
X20079Y-21495D02*
X19882Y-21495D01*
X19910Y-21514D01*
X19929Y-21532D01*
X19939Y-21551D01*
X20079Y-21251D02*
X20079Y-21363D01*
X20079Y-21307D02*
X19882Y-21307D01*
X19910Y-21326D01*
X19929Y-21345D01*
X19939Y-21363D01*
X34579Y-20876D02*
X34485Y-20942D01*
X34579Y-20989D02*
X34382Y-20989D01*
X34382Y-20914D01*
X34392Y-20895D01*
X34401Y-20886D01*
X34420Y-20876D01*
X34448Y-20876D01*
X34467Y-20886D01*
X34476Y-20895D01*
X34485Y-20914D01*
X34485Y-20989D01*
X34382Y-20810D02*
X34382Y-20689D01*
X34457Y-20754D01*
X34457Y-20726D01*
X34467Y-20707D01*
X34476Y-20698D01*
X34495Y-20689D01*
X34542Y-20689D01*
X34560Y-20698D01*
X34570Y-20707D01*
X34579Y-20726D01*
X34579Y-20782D01*
X34570Y-20801D01*
X34560Y-20810D01*
X34579Y-20501D02*
X34579Y-20613D01*
X34579Y-20557D02*
X34382Y-20557D01*
X34410Y-20576D01*
X34429Y-20595D01*
X34439Y-20613D01*
X28079Y-21626D02*
X27985Y-21692D01*
X28079Y-21739D02*
X27882Y-21739D01*
X27882Y-21664D01*
X27892Y-21645D01*
X27901Y-21636D01*
X27920Y-21626D01*
X27948Y-21626D01*
X27967Y-21636D01*
X27976Y-21645D01*
X27985Y-21664D01*
X27985Y-21739D01*
X27882Y-21560D02*
X27882Y-21439D01*
X27957Y-21504D01*
X27957Y-21476D01*
X27967Y-21457D01*
X27976Y-21448D01*
X27995Y-21439D01*
X28042Y-21439D01*
X28060Y-21448D01*
X28070Y-21457D01*
X28079Y-21476D01*
X28079Y-21532D01*
X28070Y-21551D01*
X28060Y-21560D01*
X27948Y-21270D02*
X28079Y-21270D01*
X27873Y-21317D02*
X28014Y-21363D01*
X28014Y-21242D01*
X30060Y-21532D02*
X30070Y-21542D01*
X30079Y-21570D01*
X30079Y-21589D01*
X30070Y-21617D01*
X30051Y-21636D01*
X30032Y-21645D01*
X29995Y-21654D01*
X29967Y-21654D01*
X29929Y-21645D01*
X29910Y-21636D01*
X29892Y-21617D01*
X29882Y-21589D01*
X29882Y-21570D01*
X29892Y-21542D01*
X29901Y-21532D01*
X29948Y-21363D02*
X30079Y-21363D01*
X29873Y-21410D02*
X30014Y-21457D01*
X30014Y-21335D01*
X30579Y-20876D02*
X30485Y-20942D01*
X30579Y-20989D02*
X30382Y-20989D01*
X30382Y-20914D01*
X30392Y-20895D01*
X30401Y-20886D01*
X30420Y-20876D01*
X30448Y-20876D01*
X30467Y-20886D01*
X30476Y-20895D01*
X30485Y-20914D01*
X30485Y-20989D01*
X30382Y-20810D02*
X30382Y-20689D01*
X30457Y-20754D01*
X30457Y-20726D01*
X30467Y-20707D01*
X30476Y-20698D01*
X30495Y-20689D01*
X30542Y-20689D01*
X30560Y-20698D01*
X30570Y-20707D01*
X30579Y-20726D01*
X30579Y-20782D01*
X30570Y-20801D01*
X30560Y-20810D01*
X30401Y-20613D02*
X30392Y-20604D01*
X30382Y-20585D01*
X30382Y-20538D01*
X30392Y-20520D01*
X30401Y-20510D01*
X30420Y-20501D01*
X30439Y-20501D01*
X30467Y-20510D01*
X30579Y-20623D01*
X30579Y-20501D01*
X20873Y-21579D02*
X20807Y-21485D01*
X20760Y-21579D02*
X20760Y-21382D01*
X20835Y-21382D01*
X20854Y-21392D01*
X20863Y-21401D01*
X20873Y-21420D01*
X20873Y-21448D01*
X20863Y-21467D01*
X20854Y-21476D01*
X20835Y-21485D01*
X20760Y-21485D01*
X21060Y-21579D02*
X20948Y-21579D01*
X21004Y-21579D02*
X21004Y-21382D01*
X20985Y-21410D01*
X20967Y-21429D01*
X20948Y-21439D01*
X21136Y-21401D02*
X21145Y-21392D01*
X21164Y-21382D01*
X21211Y-21382D01*
X21229Y-21392D01*
X21239Y-21401D01*
X21248Y-21420D01*
X21248Y-21439D01*
X21239Y-21467D01*
X21126Y-21579D01*
X21248Y-21579D01*
X34829Y-17876D02*
X34735Y-17942D01*
X34829Y-17989D02*
X34632Y-17989D01*
X34632Y-17914D01*
X34642Y-17895D01*
X34651Y-17886D01*
X34670Y-17876D01*
X34698Y-17876D01*
X34717Y-17886D01*
X34726Y-17895D01*
X34735Y-17914D01*
X34735Y-17989D01*
X34651Y-17801D02*
X34642Y-17792D01*
X34632Y-17773D01*
X34632Y-17726D01*
X34642Y-17707D01*
X34651Y-17698D01*
X34670Y-17689D01*
X34689Y-17689D01*
X34717Y-17698D01*
X34829Y-17810D01*
X34829Y-17689D01*
X34632Y-17623D02*
X34632Y-17492D01*
X34829Y-17576D01*
X28373Y-18329D02*
X28307Y-18235D01*
X28260Y-18329D02*
X28260Y-18132D01*
X28335Y-18132D01*
X28354Y-18142D01*
X28363Y-18151D01*
X28373Y-18170D01*
X28373Y-18198D01*
X28363Y-18217D01*
X28354Y-18226D01*
X28335Y-18235D01*
X28260Y-18235D01*
X28448Y-18151D02*
X28457Y-18142D01*
X28476Y-18132D01*
X28523Y-18132D01*
X28542Y-18142D01*
X28551Y-18151D01*
X28560Y-18170D01*
X28560Y-18189D01*
X28551Y-18217D01*
X28439Y-18329D01*
X28560Y-18329D01*
X28673Y-18217D02*
X28654Y-18207D01*
X28645Y-18198D01*
X28636Y-18179D01*
X28636Y-18170D01*
X28645Y-18151D01*
X28654Y-18142D01*
X28673Y-18132D01*
X28711Y-18132D01*
X28729Y-18142D01*
X28739Y-18151D01*
X28748Y-18170D01*
X28748Y-18179D01*
X28739Y-18198D01*
X28729Y-18207D01*
X28711Y-18217D01*
X28673Y-18217D01*
X28654Y-18226D01*
X28645Y-18235D01*
X28636Y-18254D01*
X28636Y-18292D01*
X28645Y-18310D01*
X28654Y-18320D01*
X28673Y-18329D01*
X28711Y-18329D01*
X28729Y-18320D01*
X28739Y-18310D01*
X28748Y-18292D01*
X28748Y-18254D01*
X28739Y-18235D01*
X28729Y-18226D01*
X28711Y-18217D01*
X38373Y-20829D02*
X38307Y-20735D01*
X38260Y-20829D02*
X38260Y-20632D01*
X38335Y-20632D01*
X38354Y-20642D01*
X38363Y-20651D01*
X38373Y-20670D01*
X38373Y-20698D01*
X38363Y-20717D01*
X38354Y-20726D01*
X38335Y-20735D01*
X38260Y-20735D01*
X38439Y-20632D02*
X38560Y-20632D01*
X38495Y-20707D01*
X38523Y-20707D01*
X38542Y-20717D01*
X38551Y-20726D01*
X38560Y-20745D01*
X38560Y-20792D01*
X38551Y-20810D01*
X38542Y-20820D01*
X38523Y-20829D01*
X38467Y-20829D01*
X38448Y-20820D01*
X38439Y-20810D01*
X38626Y-20632D02*
X38757Y-20632D01*
X38673Y-20829D01*
X36579Y-17876D02*
X36485Y-17942D01*
X36579Y-17989D02*
X36382Y-17989D01*
X36382Y-17914D01*
X36392Y-17895D01*
X36401Y-17886D01*
X36420Y-17876D01*
X36448Y-17876D01*
X36467Y-17886D01*
X36476Y-17895D01*
X36485Y-17914D01*
X36485Y-17989D01*
X36382Y-17810D02*
X36382Y-17689D01*
X36457Y-17754D01*
X36457Y-17726D01*
X36467Y-17707D01*
X36476Y-17698D01*
X36495Y-17689D01*
X36542Y-17689D01*
X36560Y-17698D01*
X36570Y-17707D01*
X36579Y-17726D01*
X36579Y-17782D01*
X36570Y-17801D01*
X36560Y-17810D01*
X36382Y-17510D02*
X36382Y-17604D01*
X36476Y-17613D01*
X36467Y-17604D01*
X36457Y-17585D01*
X36457Y-17538D01*
X36467Y-17520D01*
X36476Y-17510D01*
X36495Y-17501D01*
X36542Y-17501D01*
X36560Y-17510D01*
X36570Y-17520D01*
X36579Y-17538D01*
X36579Y-17585D01*
X36570Y-17604D01*
X36560Y-17613D01*
X32579Y-21126D02*
X32485Y-21192D01*
X32579Y-21239D02*
X32382Y-21239D01*
X32382Y-21164D01*
X32392Y-21145D01*
X32401Y-21136D01*
X32420Y-21126D01*
X32448Y-21126D01*
X32467Y-21136D01*
X32476Y-21145D01*
X32485Y-21164D01*
X32485Y-21239D01*
X32382Y-21060D02*
X32382Y-20939D01*
X32457Y-21004D01*
X32457Y-20976D01*
X32467Y-20957D01*
X32476Y-20948D01*
X32495Y-20939D01*
X32542Y-20939D01*
X32560Y-20948D01*
X32570Y-20957D01*
X32579Y-20976D01*
X32579Y-21032D01*
X32570Y-21051D01*
X32560Y-21060D01*
X32467Y-20826D02*
X32457Y-20845D01*
X32448Y-20854D01*
X32429Y-20863D01*
X32420Y-20863D01*
X32401Y-20854D01*
X32392Y-20845D01*
X32382Y-20826D01*
X32382Y-20788D01*
X32392Y-20770D01*
X32401Y-20760D01*
X32420Y-20751D01*
X32429Y-20751D01*
X32448Y-20760D01*
X32457Y-20770D01*
X32467Y-20788D01*
X32467Y-20826D01*
X32476Y-20845D01*
X32485Y-20854D01*
X32504Y-20863D01*
X32542Y-20863D01*
X32560Y-20854D01*
X32570Y-20845D01*
X32579Y-20826D01*
X32579Y-20788D01*
X32570Y-20770D01*
X32560Y-20760D01*
X32542Y-20751D01*
X32504Y-20751D01*
X32485Y-20760D01*
X32476Y-20770D01*
X32467Y-20788D01*
X33079Y-17876D02*
X32985Y-17942D01*
X33079Y-17989D02*
X32882Y-17989D01*
X32882Y-17914D01*
X32892Y-17895D01*
X32901Y-17886D01*
X32920Y-17876D01*
X32948Y-17876D01*
X32967Y-17886D01*
X32976Y-17895D01*
X32985Y-17914D01*
X32985Y-17989D01*
X32882Y-17810D02*
X32882Y-17689D01*
X32957Y-17754D01*
X32957Y-17726D01*
X32967Y-17707D01*
X32976Y-17698D01*
X32995Y-17689D01*
X33042Y-17689D01*
X33060Y-17698D01*
X33070Y-17707D01*
X33079Y-17726D01*
X33079Y-17782D01*
X33070Y-17801D01*
X33060Y-17810D01*
X32882Y-17520D02*
X32882Y-17557D01*
X32892Y-17576D01*
X32901Y-17585D01*
X32929Y-17604D01*
X32967Y-17613D01*
X33042Y-17613D01*
X33060Y-17604D01*
X33070Y-17595D01*
X33079Y-17576D01*
X33079Y-17538D01*
X33070Y-17520D01*
X33060Y-17510D01*
X33042Y-17501D01*
X32995Y-17501D01*
X32976Y-17510D01*
X32967Y-17520D01*
X32957Y-17538D01*
X32957Y-17576D01*
X32967Y-17595D01*
X32976Y-17604D01*
X32995Y-17613D01*
X26873Y-19579D02*
X26807Y-19485D01*
X26760Y-19579D02*
X26760Y-19382D01*
X26835Y-19382D01*
X26854Y-19392D01*
X26863Y-19401D01*
X26873Y-19420D01*
X26873Y-19448D01*
X26863Y-19467D01*
X26854Y-19476D01*
X26835Y-19485D01*
X26760Y-19485D01*
X27060Y-19579D02*
X26948Y-19579D01*
X27004Y-19579D02*
X27004Y-19382D01*
X26985Y-19410D01*
X26967Y-19429D01*
X26948Y-19439D01*
X27126Y-19382D02*
X27248Y-19382D01*
X27182Y-19457D01*
X27211Y-19457D01*
X27229Y-19467D01*
X27239Y-19476D01*
X27248Y-19495D01*
X27248Y-19542D01*
X27239Y-19560D01*
X27229Y-19570D01*
X27211Y-19579D01*
X27154Y-19579D01*
X27136Y-19570D01*
X27126Y-19560D01*
X25579Y-20626D02*
X25485Y-20692D01*
X25579Y-20739D02*
X25382Y-20739D01*
X25382Y-20664D01*
X25392Y-20645D01*
X25401Y-20636D01*
X25420Y-20626D01*
X25448Y-20626D01*
X25467Y-20636D01*
X25476Y-20645D01*
X25485Y-20664D01*
X25485Y-20739D01*
X25401Y-20551D02*
X25392Y-20542D01*
X25382Y-20523D01*
X25382Y-20476D01*
X25392Y-20457D01*
X25401Y-20448D01*
X25420Y-20439D01*
X25439Y-20439D01*
X25467Y-20448D01*
X25579Y-20560D01*
X25579Y-20439D01*
X25382Y-20317D02*
X25382Y-20298D01*
X25392Y-20279D01*
X25401Y-20270D01*
X25420Y-20260D01*
X25457Y-20251D01*
X25504Y-20251D01*
X25542Y-20260D01*
X25560Y-20270D01*
X25570Y-20279D01*
X25579Y-20298D01*
X25579Y-20317D01*
X25570Y-20335D01*
X25560Y-20345D01*
X25542Y-20354D01*
X25504Y-20363D01*
X25457Y-20363D01*
X25420Y-20354D01*
X25401Y-20345D01*
X25392Y-20335D01*
X25382Y-20317D01*
X24579Y-20626D02*
X24485Y-20692D01*
X24579Y-20739D02*
X24382Y-20739D01*
X24382Y-20664D01*
X24392Y-20645D01*
X24401Y-20636D01*
X24420Y-20626D01*
X24448Y-20626D01*
X24467Y-20636D01*
X24476Y-20645D01*
X24485Y-20664D01*
X24485Y-20739D01*
X24401Y-20551D02*
X24392Y-20542D01*
X24382Y-20523D01*
X24382Y-20476D01*
X24392Y-20457D01*
X24401Y-20448D01*
X24420Y-20439D01*
X24439Y-20439D01*
X24467Y-20448D01*
X24579Y-20560D01*
X24579Y-20439D01*
X24448Y-20270D02*
X24579Y-20270D01*
X24373Y-20317D02*
X24514Y-20363D01*
X24514Y-20242D01*
X25579Y-16876D02*
X25485Y-16942D01*
X25579Y-16989D02*
X25382Y-16989D01*
X25382Y-16914D01*
X25392Y-16895D01*
X25401Y-16886D01*
X25420Y-16876D01*
X25448Y-16876D01*
X25467Y-16886D01*
X25476Y-16895D01*
X25485Y-16914D01*
X25485Y-16989D01*
X25401Y-16801D02*
X25392Y-16792D01*
X25382Y-16773D01*
X25382Y-16726D01*
X25392Y-16707D01*
X25401Y-16698D01*
X25420Y-16689D01*
X25439Y-16689D01*
X25467Y-16698D01*
X25579Y-16810D01*
X25579Y-16689D01*
X25382Y-16520D02*
X25382Y-16557D01*
X25392Y-16576D01*
X25401Y-16585D01*
X25429Y-16604D01*
X25467Y-16613D01*
X25542Y-16613D01*
X25560Y-16604D01*
X25570Y-16595D01*
X25579Y-16576D01*
X25579Y-16538D01*
X25570Y-16520D01*
X25560Y-16510D01*
X25542Y-16501D01*
X25495Y-16501D01*
X25476Y-16510D01*
X25467Y-16520D01*
X25457Y-16538D01*
X25457Y-16576D01*
X25467Y-16595D01*
X25476Y-16604D01*
X25495Y-16613D01*
X27579Y-16876D02*
X27485Y-16942D01*
X27579Y-16989D02*
X27382Y-16989D01*
X27382Y-16914D01*
X27392Y-16895D01*
X27401Y-16886D01*
X27420Y-16876D01*
X27448Y-16876D01*
X27467Y-16886D01*
X27476Y-16895D01*
X27485Y-16914D01*
X27485Y-16989D01*
X27401Y-16801D02*
X27392Y-16792D01*
X27382Y-16773D01*
X27382Y-16726D01*
X27392Y-16707D01*
X27401Y-16698D01*
X27420Y-16689D01*
X27439Y-16689D01*
X27467Y-16698D01*
X27579Y-16810D01*
X27579Y-16689D01*
X27382Y-16510D02*
X27382Y-16604D01*
X27476Y-16613D01*
X27467Y-16604D01*
X27457Y-16585D01*
X27457Y-16538D01*
X27467Y-16520D01*
X27476Y-16510D01*
X27495Y-16501D01*
X27542Y-16501D01*
X27560Y-16510D01*
X27570Y-16520D01*
X27579Y-16538D01*
X27579Y-16585D01*
X27570Y-16604D01*
X27560Y-16613D01*
G54D14*
X39661Y-18545D02*
X39261Y-18545D01*
X39261Y-18392D01*
X39280Y-18354D01*
X39300Y-18335D01*
X39338Y-18316D01*
X39395Y-18316D01*
X39433Y-18335D01*
X39452Y-18354D01*
X39471Y-18392D01*
X39471Y-18545D01*
X39661Y-17935D02*
X39661Y-18164D01*
X39661Y-18049D02*
X39261Y-18049D01*
X39319Y-18088D01*
X39357Y-18126D01*
X39376Y-18164D01*
G54D13*
X30121Y-24471D02*
X29821Y-24471D01*
X29821Y-24400D01*
X29835Y-24357D01*
X29864Y-24328D01*
X29892Y-24314D01*
X29950Y-24300D01*
X29992Y-24300D01*
X30050Y-24314D01*
X30078Y-24328D01*
X30107Y-24357D01*
X30121Y-24400D01*
X30121Y-24471D01*
X29821Y-24200D02*
X29821Y-24000D01*
X30121Y-24128D01*
X36121Y-24614D02*
X35821Y-24614D01*
X35821Y-24542D01*
X35835Y-24500D01*
X35864Y-24471D01*
X35892Y-24457D01*
X35950Y-24442D01*
X35992Y-24442D01*
X36050Y-24457D01*
X36078Y-24471D01*
X36107Y-24500D01*
X36121Y-24542D01*
X36121Y-24614D01*
X36121Y-24157D02*
X36121Y-24328D01*
X36121Y-24242D02*
X35821Y-24242D01*
X35864Y-24271D01*
X35892Y-24300D01*
X35907Y-24328D01*
X35821Y-23971D02*
X35821Y-23942D01*
X35835Y-23914D01*
X35850Y-23900D01*
X35878Y-23885D01*
X35935Y-23871D01*
X36007Y-23871D01*
X36064Y-23885D01*
X36092Y-23900D01*
X36107Y-23914D01*
X36121Y-23942D01*
X36121Y-23971D01*
X36107Y-24000D01*
X36092Y-24014D01*
X36064Y-24028D01*
X36007Y-24042D01*
X35935Y-24042D01*
X35878Y-24028D01*
X35850Y-24014D01*
X35835Y-24000D01*
X35821Y-23971D01*
X24621Y-24471D02*
X24321Y-24471D01*
X24321Y-24400D01*
X24335Y-24357D01*
X24364Y-24328D01*
X24392Y-24314D01*
X24450Y-24300D01*
X24492Y-24300D01*
X24550Y-24314D01*
X24578Y-24328D01*
X24607Y-24357D01*
X24621Y-24400D01*
X24621Y-24471D01*
X24350Y-24185D02*
X24335Y-24171D01*
X24321Y-24142D01*
X24321Y-24071D01*
X24335Y-24042D01*
X24350Y-24028D01*
X24378Y-24014D01*
X24407Y-24014D01*
X24450Y-24028D01*
X24621Y-24200D01*
X24621Y-24014D01*
X22621Y-24471D02*
X22321Y-24471D01*
X22321Y-24400D01*
X22335Y-24357D01*
X22364Y-24328D01*
X22392Y-24314D01*
X22450Y-24300D01*
X22492Y-24300D01*
X22550Y-24314D01*
X22578Y-24328D01*
X22607Y-24357D01*
X22621Y-24400D01*
X22621Y-24471D01*
X22321Y-24200D02*
X22321Y-24014D01*
X22435Y-24114D01*
X22435Y-24071D01*
X22450Y-24042D01*
X22464Y-24028D01*
X22492Y-24014D01*
X22564Y-24014D01*
X22592Y-24028D01*
X22607Y-24042D01*
X22621Y-24071D01*
X22621Y-24157D01*
X22607Y-24185D01*
X22592Y-24200D01*
X17871Y-20221D02*
X17571Y-20221D01*
X17571Y-20150D01*
X17585Y-20107D01*
X17614Y-20078D01*
X17642Y-20064D01*
X17700Y-20050D01*
X17742Y-20050D01*
X17800Y-20064D01*
X17828Y-20078D01*
X17857Y-20107D01*
X17871Y-20150D01*
X17871Y-20221D01*
X17871Y-19764D02*
X17871Y-19935D01*
X17871Y-19850D02*
X17571Y-19850D01*
X17614Y-19878D01*
X17642Y-19907D01*
X17657Y-19935D01*
X18121Y-25864D02*
X17821Y-25864D01*
X17821Y-25792D01*
X17835Y-25750D01*
X17864Y-25721D01*
X17892Y-25707D01*
X17950Y-25692D01*
X17992Y-25692D01*
X18050Y-25707D01*
X18078Y-25721D01*
X18107Y-25750D01*
X18121Y-25792D01*
X18121Y-25864D01*
X18121Y-25407D02*
X18121Y-25578D01*
X18121Y-25492D02*
X17821Y-25492D01*
X17864Y-25521D01*
X17892Y-25550D01*
X17907Y-25578D01*
X17850Y-25292D02*
X17835Y-25278D01*
X17821Y-25250D01*
X17821Y-25178D01*
X17835Y-25150D01*
X17850Y-25135D01*
X17878Y-25121D01*
X17907Y-25121D01*
X17950Y-25135D01*
X18121Y-25307D01*
X18121Y-25121D01*
X32121Y-24614D02*
X31821Y-24614D01*
X31821Y-24542D01*
X31835Y-24500D01*
X31864Y-24471D01*
X31892Y-24457D01*
X31950Y-24442D01*
X31992Y-24442D01*
X32050Y-24457D01*
X32078Y-24471D01*
X32107Y-24500D01*
X32121Y-24542D01*
X32121Y-24614D01*
X32121Y-24157D02*
X32121Y-24328D01*
X32121Y-24242D02*
X31821Y-24242D01*
X31864Y-24271D01*
X31892Y-24300D01*
X31907Y-24328D01*
X32121Y-23871D02*
X32121Y-24042D01*
X32121Y-23957D02*
X31821Y-23957D01*
X31864Y-23985D01*
X31892Y-24014D01*
X31907Y-24042D01*
X20621Y-24471D02*
X20321Y-24471D01*
X20321Y-24400D01*
X20335Y-24357D01*
X20364Y-24328D01*
X20392Y-24314D01*
X20450Y-24300D01*
X20492Y-24300D01*
X20550Y-24314D01*
X20578Y-24328D01*
X20607Y-24357D01*
X20621Y-24400D01*
X20621Y-24471D01*
X20421Y-24042D02*
X20621Y-24042D01*
X20307Y-24114D02*
X20521Y-24185D01*
X20521Y-24000D01*
X28121Y-24471D02*
X27821Y-24471D01*
X27821Y-24400D01*
X27835Y-24357D01*
X27864Y-24328D01*
X27892Y-24314D01*
X27950Y-24300D01*
X27992Y-24300D01*
X28050Y-24314D01*
X28078Y-24328D01*
X28107Y-24357D01*
X28121Y-24400D01*
X28121Y-24471D01*
X27821Y-24042D02*
X27821Y-24100D01*
X27835Y-24128D01*
X27850Y-24142D01*
X27892Y-24171D01*
X27950Y-24185D01*
X28064Y-24185D01*
X28092Y-24171D01*
X28107Y-24157D01*
X28121Y-24128D01*
X28121Y-24071D01*
X28107Y-24042D01*
X28092Y-24028D01*
X28064Y-24014D01*
X27992Y-24014D01*
X27964Y-24028D01*
X27950Y-24042D01*
X27935Y-24071D01*
X27935Y-24128D01*
X27950Y-24157D01*
X27964Y-24171D01*
X27992Y-24185D01*
X38121Y-24614D02*
X37821Y-24614D01*
X37821Y-24542D01*
X37835Y-24500D01*
X37864Y-24471D01*
X37892Y-24457D01*
X37950Y-24442D01*
X37992Y-24442D01*
X38050Y-24457D01*
X38078Y-24471D01*
X38107Y-24500D01*
X38121Y-24542D01*
X38121Y-24614D01*
X38121Y-24157D02*
X38121Y-24328D01*
X38121Y-24242D02*
X37821Y-24242D01*
X37864Y-24271D01*
X37892Y-24300D01*
X37907Y-24328D01*
X37821Y-24057D02*
X37821Y-23871D01*
X37935Y-23971D01*
X37935Y-23928D01*
X37950Y-23900D01*
X37964Y-23885D01*
X37992Y-23871D01*
X38064Y-23871D01*
X38092Y-23885D01*
X38107Y-23900D01*
X38121Y-23928D01*
X38121Y-24014D01*
X38107Y-24042D01*
X38092Y-24057D01*
X34121Y-24614D02*
X33821Y-24614D01*
X33821Y-24542D01*
X33835Y-24500D01*
X33864Y-24471D01*
X33892Y-24457D01*
X33950Y-24442D01*
X33992Y-24442D01*
X34050Y-24457D01*
X34078Y-24471D01*
X34107Y-24500D01*
X34121Y-24542D01*
X34121Y-24614D01*
X34121Y-24157D02*
X34121Y-24328D01*
X34121Y-24242D02*
X33821Y-24242D01*
X33864Y-24271D01*
X33892Y-24300D01*
X33907Y-24328D01*
X33921Y-23900D02*
X34121Y-23900D01*
X33807Y-23971D02*
X34021Y-24042D01*
X34021Y-23857D01*
G54D23*
X28373Y-12235D02*
X28392Y-12254D01*
X28411Y-12311D01*
X28411Y-12350D01*
X28392Y-12407D01*
X28354Y-12445D01*
X28316Y-12464D01*
X28240Y-12483D01*
X28183Y-12483D01*
X28107Y-12464D01*
X28069Y-12445D01*
X28030Y-12407D01*
X28011Y-12350D01*
X28011Y-12311D01*
X28030Y-12254D01*
X28050Y-12235D01*
X28011Y-11988D02*
X28011Y-11911D01*
X28030Y-11873D01*
X28069Y-11835D01*
X28145Y-11816D01*
X28278Y-11816D01*
X28354Y-11835D01*
X28392Y-11873D01*
X28411Y-11911D01*
X28411Y-11988D01*
X28392Y-12026D01*
X28354Y-12064D01*
X28278Y-12083D01*
X28145Y-12083D01*
X28069Y-12064D01*
X28030Y-12026D01*
X28011Y-11988D01*
X28411Y-11645D02*
X28011Y-11645D01*
X28411Y-11416D01*
X28011Y-11416D01*
X28411Y-11016D02*
X28411Y-11245D01*
X28411Y-11130D02*
X28011Y-11130D01*
X28069Y-11169D01*
X28107Y-11207D01*
X28126Y-11245D01*
G54D21*
X19807Y-19242D02*
X19807Y-18642D01*
X19950Y-18642D01*
X20035Y-18671D01*
X20092Y-18728D01*
X20121Y-18785D01*
X20150Y-18900D01*
X20150Y-18985D01*
X20121Y-19100D01*
X20092Y-19157D01*
X20035Y-19214D01*
X19950Y-19242D01*
X19807Y-19242D01*
X20692Y-18642D02*
X20407Y-18642D01*
X20378Y-18928D01*
X20407Y-18900D01*
X20464Y-18871D01*
X20607Y-18871D01*
X20664Y-18900D01*
X20692Y-18928D01*
X20721Y-18985D01*
X20721Y-19128D01*
X20692Y-19185D01*
X20664Y-19214D01*
X20607Y-19242D01*
X20464Y-19242D01*
X20407Y-19214D01*
X20378Y-19185D01*
G54D15*
X20912Y-19413D02*
X21005Y-19413D01*
X20893Y-19469D02*
X20959Y-19272D01*
X21024Y-19469D01*
X19489Y-19469D02*
X19489Y-19272D01*
X19601Y-19469D02*
X19517Y-19357D01*
X19601Y-19272D02*
X19489Y-19385D01*
G54D24*
X36199Y-9765D02*
X36199Y-10084D01*
X36218Y-10121D01*
X36237Y-10140D01*
X36274Y-10159D01*
X36349Y-10159D01*
X36387Y-10140D01*
X36406Y-10121D01*
X36424Y-10084D01*
X36424Y-9765D01*
X36818Y-10159D02*
X36593Y-10159D01*
X36706Y-10159D02*
X36706Y-9765D01*
X36668Y-9821D01*
X36631Y-9859D01*
X36593Y-9878D01*
G54D25*
X34471Y-18400D02*
X34442Y-18385D01*
X34414Y-18357D01*
X34371Y-18314D01*
X34342Y-18300D01*
X34314Y-18300D01*
X34328Y-18371D02*
X34300Y-18357D01*
X34271Y-18328D01*
X34257Y-18271D01*
X34257Y-18171D01*
X34271Y-18114D01*
X34300Y-18085D01*
X34328Y-18071D01*
X34385Y-18071D01*
X34414Y-18085D01*
X34442Y-18114D01*
X34457Y-18171D01*
X34457Y-18271D01*
X34442Y-18328D01*
X34414Y-18357D01*
X34385Y-18371D01*
X34328Y-18371D01*
X34571Y-18100D02*
X34585Y-18085D01*
X34614Y-18071D01*
X34685Y-18071D01*
X34714Y-18085D01*
X34728Y-18100D01*
X34742Y-18128D01*
X34742Y-18157D01*
X34728Y-18200D01*
X34557Y-18371D01*
X34742Y-18371D01*
X27900Y-19528D02*
X27885Y-19557D01*
X27857Y-19585D01*
X27814Y-19628D01*
X27800Y-19657D01*
X27800Y-19685D01*
X27871Y-19671D02*
X27857Y-19700D01*
X27828Y-19728D01*
X27771Y-19742D01*
X27671Y-19742D01*
X27614Y-19728D01*
X27585Y-19700D01*
X27571Y-19671D01*
X27571Y-19614D01*
X27585Y-19585D01*
X27614Y-19557D01*
X27671Y-19542D01*
X27771Y-19542D01*
X27828Y-19557D01*
X27857Y-19585D01*
X27871Y-19614D01*
X27871Y-19671D01*
X27571Y-19442D02*
X27571Y-19257D01*
X27685Y-19357D01*
X27685Y-19314D01*
X27700Y-19285D01*
X27714Y-19271D01*
X27742Y-19257D01*
X27814Y-19257D01*
X27842Y-19271D01*
X27857Y-19285D01*
X27871Y-19314D01*
X27871Y-19400D01*
X27857Y-19428D01*
X27842Y-19442D01*
X36221Y-18400D02*
X36192Y-18385D01*
X36164Y-18357D01*
X36121Y-18314D01*
X36092Y-18300D01*
X36064Y-18300D01*
X36078Y-18371D02*
X36050Y-18357D01*
X36021Y-18328D01*
X36007Y-18271D01*
X36007Y-18171D01*
X36021Y-18114D01*
X36050Y-18085D01*
X36078Y-18071D01*
X36135Y-18071D01*
X36164Y-18085D01*
X36192Y-18114D01*
X36207Y-18171D01*
X36207Y-18271D01*
X36192Y-18328D01*
X36164Y-18357D01*
X36135Y-18371D01*
X36078Y-18371D01*
X36464Y-18171D02*
X36464Y-18371D01*
X36392Y-18057D02*
X36321Y-18271D01*
X36507Y-18271D01*
X32721Y-18400D02*
X32692Y-18385D01*
X32664Y-18357D01*
X32621Y-18314D01*
X32592Y-18300D01*
X32564Y-18300D01*
X32578Y-18371D02*
X32550Y-18357D01*
X32521Y-18328D01*
X32507Y-18271D01*
X32507Y-18171D01*
X32521Y-18114D01*
X32550Y-18085D01*
X32578Y-18071D01*
X32635Y-18071D01*
X32664Y-18085D01*
X32692Y-18114D01*
X32707Y-18171D01*
X32707Y-18271D01*
X32692Y-18328D01*
X32664Y-18357D01*
X32635Y-18371D01*
X32578Y-18371D01*
X32978Y-18071D02*
X32835Y-18071D01*
X32821Y-18214D01*
X32835Y-18200D01*
X32864Y-18185D01*
X32935Y-18185D01*
X32964Y-18200D01*
X32978Y-18214D01*
X32992Y-18242D01*
X32992Y-18314D01*
X32978Y-18342D01*
X32964Y-18357D01*
X32935Y-18371D01*
X32864Y-18371D01*
X32835Y-18357D01*
X32821Y-18342D01*
X25863Y-18317D02*
X25848Y-18346D01*
X25820Y-18374D01*
X25777Y-18417D01*
X25763Y-18446D01*
X25763Y-18474D01*
X25834Y-18460D02*
X25820Y-18489D01*
X25791Y-18517D01*
X25734Y-18531D01*
X25634Y-18531D01*
X25577Y-18517D01*
X25548Y-18489D01*
X25534Y-18460D01*
X25534Y-18403D01*
X25548Y-18374D01*
X25577Y-18346D01*
X25634Y-18331D01*
X25734Y-18331D01*
X25791Y-18346D01*
X25820Y-18374D01*
X25834Y-18403D01*
X25834Y-18460D01*
X25834Y-18046D02*
X25834Y-18217D01*
X25834Y-18131D02*
X25534Y-18131D01*
X25577Y-18160D01*
X25605Y-18189D01*
X25620Y-18217D01*
G54D21*
X32271Y-13242D02*
X32271Y-12642D01*
X32414Y-12642D01*
X32500Y-12671D01*
X32557Y-12728D01*
X32585Y-12785D01*
X32614Y-12900D01*
X32614Y-12985D01*
X32585Y-13100D01*
X32557Y-13157D01*
X32500Y-13214D01*
X32414Y-13242D01*
X32271Y-13242D01*
X33185Y-13242D02*
X32842Y-13242D01*
X33014Y-13242D02*
X33014Y-12642D01*
X32957Y-12728D01*
X32900Y-12785D01*
X32842Y-12814D01*
X33728Y-12642D02*
X33442Y-12642D01*
X33414Y-12928D01*
X33442Y-12900D01*
X33500Y-12871D01*
X33642Y-12871D01*
X33700Y-12900D01*
X33728Y-12928D01*
X33757Y-12985D01*
X33757Y-13128D01*
X33728Y-13185D01*
X33700Y-13214D01*
X33642Y-13242D01*
X33500Y-13242D01*
X33442Y-13214D01*
X33414Y-13185D01*
G54D15*
X32244Y-12383D02*
X32337Y-12383D01*
X32225Y-12439D02*
X32291Y-12242D01*
X32356Y-12439D01*
X33657Y-12439D02*
X33657Y-12242D01*
X33769Y-12439D02*
X33685Y-12327D01*
X33769Y-12242D02*
X33657Y-12355D01*
G54D22*
X35467Y-12310D02*
X35457Y-12320D01*
X35429Y-12329D01*
X35410Y-12329D01*
X35382Y-12320D01*
X35363Y-12301D01*
X35354Y-12282D01*
X35345Y-12245D01*
X35345Y-12217D01*
X35354Y-12179D01*
X35363Y-12160D01*
X35382Y-12142D01*
X35410Y-12132D01*
X35429Y-12132D01*
X35457Y-12142D01*
X35467Y-12151D01*
X35645Y-12132D02*
X35551Y-12132D01*
X35542Y-12226D01*
X35551Y-12217D01*
X35570Y-12207D01*
X35617Y-12207D01*
X35636Y-12217D01*
X35645Y-12226D01*
X35654Y-12245D01*
X35654Y-12292D01*
X35645Y-12310D01*
X35636Y-12320D01*
X35617Y-12329D01*
X35570Y-12329D01*
X35551Y-12320D01*
X35542Y-12310D01*
G54D13*
X33092Y-7800D02*
X33107Y-7814D01*
X33121Y-7857D01*
X33121Y-7885D01*
X33107Y-7928D01*
X33078Y-7957D01*
X33050Y-7971D01*
X32992Y-7985D01*
X32950Y-7985D01*
X32892Y-7971D01*
X32864Y-7957D01*
X32835Y-7928D01*
X32821Y-7885D01*
X32821Y-7857D01*
X32835Y-7814D01*
X32850Y-7800D01*
X32821Y-7542D02*
X32821Y-7600D01*
X32835Y-7628D01*
X32850Y-7642D01*
X32892Y-7671D01*
X32950Y-7685D01*
X33064Y-7685D01*
X33092Y-7671D01*
X33107Y-7657D01*
X33121Y-7628D01*
X33121Y-7571D01*
X33107Y-7542D01*
X33092Y-7528D01*
X33064Y-7514D01*
X32992Y-7514D01*
X32964Y-7528D01*
X32950Y-7542D01*
X32935Y-7571D01*
X32935Y-7628D01*
X32950Y-7657D01*
X32964Y-7671D01*
X32992Y-7685D01*
G54D14*
X33559Y-8902D02*
X33559Y-8597D01*
X33711Y-8750D02*
X33407Y-8750D01*
G54D13*
X35842Y-7800D02*
X35857Y-7814D01*
X35871Y-7857D01*
X35871Y-7885D01*
X35857Y-7928D01*
X35828Y-7957D01*
X35800Y-7971D01*
X35742Y-7985D01*
X35700Y-7985D01*
X35642Y-7971D01*
X35614Y-7957D01*
X35585Y-7928D01*
X35571Y-7885D01*
X35571Y-7857D01*
X35585Y-7814D01*
X35600Y-7800D01*
X35571Y-7700D02*
X35571Y-7500D01*
X35871Y-7628D01*
G54D14*
X36309Y-8902D02*
X36309Y-8597D01*
X36461Y-8750D02*
X36157Y-8750D01*
G54D13*
X38592Y-7800D02*
X38607Y-7814D01*
X38621Y-7857D01*
X38621Y-7885D01*
X38607Y-7928D01*
X38578Y-7957D01*
X38550Y-7971D01*
X38492Y-7985D01*
X38450Y-7985D01*
X38392Y-7971D01*
X38364Y-7957D01*
X38335Y-7928D01*
X38321Y-7885D01*
X38321Y-7857D01*
X38335Y-7814D01*
X38350Y-7800D01*
X38450Y-7628D02*
X38435Y-7657D01*
X38421Y-7671D01*
X38392Y-7685D01*
X38378Y-7685D01*
X38350Y-7671D01*
X38335Y-7657D01*
X38321Y-7628D01*
X38321Y-7571D01*
X38335Y-7542D01*
X38350Y-7528D01*
X38378Y-7514D01*
X38392Y-7514D01*
X38421Y-7528D01*
X38435Y-7542D01*
X38450Y-7571D01*
X38450Y-7628D01*
X38464Y-7657D01*
X38478Y-7671D01*
X38507Y-7685D01*
X38564Y-7685D01*
X38592Y-7671D01*
X38607Y-7657D01*
X38621Y-7628D01*
X38621Y-7571D01*
X38607Y-7542D01*
X38592Y-7528D01*
X38564Y-7514D01*
X38507Y-7514D01*
X38478Y-7528D01*
X38464Y-7542D01*
X38450Y-7571D01*
G54D14*
X39059Y-8902D02*
X39059Y-8597D01*
X39211Y-8750D02*
X38907Y-8750D01*
G54D15*
X29760Y-18579D02*
X29760Y-18382D01*
X29807Y-18382D01*
X29835Y-18392D01*
X29854Y-18410D01*
X29863Y-18429D01*
X29873Y-18467D01*
X29873Y-18495D01*
X29863Y-18532D01*
X29854Y-18551D01*
X29835Y-18570D01*
X29807Y-18579D01*
X29760Y-18579D01*
X30060Y-18579D02*
X29948Y-18579D01*
X30004Y-18579D02*
X30004Y-18382D01*
X29985Y-18410D01*
X29967Y-18429D01*
X29948Y-18439D01*
X30229Y-18382D02*
X30192Y-18382D01*
X30173Y-18392D01*
X30164Y-18401D01*
X30145Y-18429D01*
X30136Y-18467D01*
X30136Y-18542D01*
X30145Y-18560D01*
X30154Y-18570D01*
X30173Y-18579D01*
X30211Y-18579D01*
X30229Y-18570D01*
X30239Y-18560D01*
X30248Y-18542D01*
X30248Y-18495D01*
X30239Y-18476D01*
X30229Y-18467D01*
X30211Y-18457D01*
X30173Y-18457D01*
X30154Y-18467D01*
X30145Y-18476D01*
X30136Y-18495D01*
X31260Y-19829D02*
X31260Y-19632D01*
X31307Y-19632D01*
X31335Y-19642D01*
X31354Y-19660D01*
X31363Y-19679D01*
X31373Y-19717D01*
X31373Y-19745D01*
X31363Y-19782D01*
X31354Y-19801D01*
X31335Y-19820D01*
X31307Y-19829D01*
X31260Y-19829D01*
X31560Y-19829D02*
X31448Y-19829D01*
X31504Y-19829D02*
X31504Y-19632D01*
X31485Y-19660D01*
X31467Y-19679D01*
X31448Y-19689D01*
X31626Y-19632D02*
X31757Y-19632D01*
X31673Y-19829D01*
X25079Y-17145D02*
X24882Y-17145D01*
X24882Y-17098D01*
X24892Y-17070D01*
X24910Y-17051D01*
X24929Y-17042D01*
X24967Y-17032D01*
X24995Y-17032D01*
X25032Y-17042D01*
X25051Y-17051D01*
X25070Y-17070D01*
X25079Y-17098D01*
X25079Y-17145D01*
X25079Y-16939D02*
X25079Y-16901D01*
X25070Y-16882D01*
X25060Y-16873D01*
X25032Y-16854D01*
X24995Y-16845D01*
X24920Y-16845D01*
X24901Y-16854D01*
X24892Y-16863D01*
X24882Y-16882D01*
X24882Y-16920D01*
X24892Y-16939D01*
X24901Y-16948D01*
X24920Y-16957D01*
X24967Y-16957D01*
X24985Y-16948D01*
X24995Y-16939D01*
X25004Y-16920D01*
X25004Y-16882D01*
X24995Y-16863D01*
X24985Y-16854D01*
X24967Y-16845D01*
G54D21*
X21557Y-16992D02*
X21557Y-16392D01*
X21700Y-16392D01*
X21785Y-16421D01*
X21842Y-16478D01*
X21871Y-16535D01*
X21900Y-16650D01*
X21900Y-16735D01*
X21871Y-16850D01*
X21842Y-16907D01*
X21785Y-16964D01*
X21700Y-16992D01*
X21557Y-16992D01*
X22242Y-16650D02*
X22185Y-16621D01*
X22157Y-16592D01*
X22128Y-16535D01*
X22128Y-16507D01*
X22157Y-16450D01*
X22185Y-16421D01*
X22242Y-16392D01*
X22357Y-16392D01*
X22414Y-16421D01*
X22442Y-16450D01*
X22471Y-16507D01*
X22471Y-16535D01*
X22442Y-16592D01*
X22414Y-16621D01*
X22357Y-16650D01*
X22242Y-16650D01*
X22185Y-16678D01*
X22157Y-16707D01*
X22128Y-16764D01*
X22128Y-16878D01*
X22157Y-16935D01*
X22185Y-16964D01*
X22242Y-16992D01*
X22357Y-16992D01*
X22414Y-16964D01*
X22442Y-16935D01*
X22471Y-16878D01*
X22471Y-16764D01*
X22442Y-16707D01*
X22414Y-16678D01*
X22357Y-16650D01*
G54D15*
X21244Y-18383D02*
X21337Y-18383D01*
X21225Y-18439D02*
X21291Y-18242D01*
X21356Y-18439D01*
X22657Y-18439D02*
X22657Y-18242D01*
X22769Y-18439D02*
X22685Y-18327D01*
X22769Y-18242D02*
X22657Y-18355D01*
G54D21*
X37414Y-16742D02*
X37414Y-16142D01*
X38042Y-16685D02*
X38014Y-16714D01*
X37928Y-16742D01*
X37871Y-16742D01*
X37785Y-16714D01*
X37728Y-16657D01*
X37700Y-16600D01*
X37671Y-16485D01*
X37671Y-16400D01*
X37700Y-16285D01*
X37728Y-16228D01*
X37785Y-16171D01*
X37871Y-16142D01*
X37928Y-16142D01*
X38014Y-16171D01*
X38042Y-16200D01*
X38614Y-16742D02*
X38271Y-16742D01*
X38442Y-16742D02*
X38442Y-16142D01*
X38385Y-16228D01*
X38328Y-16285D01*
X38271Y-16314D01*
G54D26*
X38338Y-21974D02*
X38324Y-22003D01*
X38324Y-22045D01*
X38338Y-22087D01*
X38366Y-22115D01*
X38394Y-22129D01*
X38450Y-22143D01*
X38492Y-22143D01*
X38549Y-22129D01*
X38577Y-22115D01*
X38605Y-22087D01*
X38619Y-22045D01*
X38619Y-22017D01*
X38605Y-21974D01*
X38591Y-21960D01*
X38492Y-21960D01*
X38492Y-22017D01*
X38619Y-21834D02*
X38324Y-21834D01*
X38619Y-21665D01*
X38324Y-21665D01*
X38619Y-21525D02*
X38324Y-21525D01*
X38324Y-21454D01*
X38338Y-21412D01*
X38366Y-21384D01*
X38394Y-21370D01*
X38450Y-21356D01*
X38492Y-21356D01*
X38549Y-21370D01*
X38577Y-21384D01*
X38605Y-21412D01*
X38619Y-21454D01*
X38619Y-21525D01*
X36619Y-22115D02*
X36324Y-22115D01*
X36324Y-22003D01*
X36338Y-21974D01*
X36352Y-21960D01*
X36380Y-21946D01*
X36422Y-21946D01*
X36450Y-21960D01*
X36464Y-21974D01*
X36478Y-22003D01*
X36478Y-22115D01*
X36619Y-21651D02*
X36478Y-21750D01*
X36619Y-21820D02*
X36324Y-21820D01*
X36324Y-21707D01*
X36338Y-21679D01*
X36352Y-21665D01*
X36380Y-21651D01*
X36422Y-21651D01*
X36450Y-21665D01*
X36464Y-21679D01*
X36478Y-21707D01*
X36478Y-21820D01*
X36324Y-21468D02*
X36324Y-21440D01*
X36338Y-21412D01*
X36352Y-21398D01*
X36380Y-21384D01*
X36436Y-21370D01*
X36507Y-21370D01*
X36563Y-21384D01*
X36591Y-21398D01*
X36605Y-21412D01*
X36619Y-21440D01*
X36619Y-21468D01*
X36605Y-21496D01*
X36591Y-21510D01*
X36563Y-21525D01*
X36507Y-21539D01*
X36436Y-21539D01*
X36380Y-21525D01*
X36352Y-21510D01*
X36338Y-21496D01*
X36324Y-21468D01*
X37619Y-22115D02*
X37324Y-22115D01*
X37324Y-22003D01*
X37338Y-21974D01*
X37352Y-21960D01*
X37380Y-21946D01*
X37422Y-21946D01*
X37450Y-21960D01*
X37464Y-21974D01*
X37478Y-22003D01*
X37478Y-22115D01*
X37619Y-21651D02*
X37478Y-21750D01*
X37619Y-21820D02*
X37324Y-21820D01*
X37324Y-21707D01*
X37338Y-21679D01*
X37352Y-21665D01*
X37380Y-21651D01*
X37422Y-21651D01*
X37450Y-21665D01*
X37464Y-21679D01*
X37478Y-21707D01*
X37478Y-21820D01*
X37619Y-21370D02*
X37619Y-21539D01*
X37619Y-21454D02*
X37324Y-21454D01*
X37366Y-21482D01*
X37394Y-21510D01*
X37408Y-21539D01*
X35619Y-22178D02*
X35478Y-22277D01*
X35619Y-22347D02*
X35324Y-22347D01*
X35324Y-22235D01*
X35338Y-22206D01*
X35352Y-22192D01*
X35380Y-22178D01*
X35422Y-22178D01*
X35450Y-22192D01*
X35464Y-22206D01*
X35478Y-22235D01*
X35478Y-22347D01*
X35464Y-22052D02*
X35464Y-21953D01*
X35619Y-21911D02*
X35619Y-22052D01*
X35324Y-22052D01*
X35324Y-21911D01*
X35605Y-21799D02*
X35619Y-21757D01*
X35619Y-21686D01*
X35605Y-21658D01*
X35591Y-21644D01*
X35563Y-21630D01*
X35535Y-21630D01*
X35507Y-21644D01*
X35492Y-21658D01*
X35478Y-21686D01*
X35464Y-21742D01*
X35450Y-21771D01*
X35436Y-21785D01*
X35408Y-21799D01*
X35380Y-21799D01*
X35352Y-21785D01*
X35338Y-21771D01*
X35324Y-21742D01*
X35324Y-21672D01*
X35338Y-21630D01*
X35464Y-21503D02*
X35464Y-21405D01*
X35619Y-21363D02*
X35619Y-21503D01*
X35324Y-21503D01*
X35324Y-21363D01*
X35324Y-21278D02*
X35324Y-21110D01*
X35619Y-21194D02*
X35324Y-21194D01*
X34619Y-22045D02*
X34324Y-22045D01*
X34324Y-21932D01*
X34338Y-21904D01*
X34352Y-21890D01*
X34380Y-21876D01*
X34422Y-21876D01*
X34450Y-21890D01*
X34464Y-21904D01*
X34478Y-21932D01*
X34478Y-22045D01*
X34619Y-21750D02*
X34324Y-21750D01*
X34324Y-21679D01*
X34338Y-21637D01*
X34366Y-21609D01*
X34394Y-21595D01*
X34450Y-21581D01*
X34492Y-21581D01*
X34549Y-21595D01*
X34577Y-21609D01*
X34605Y-21637D01*
X34619Y-21679D01*
X34619Y-21750D01*
X34619Y-21454D02*
X34324Y-21454D01*
X33619Y-22101D02*
X33324Y-22101D01*
X33324Y-21989D01*
X33338Y-21960D01*
X33352Y-21946D01*
X33380Y-21932D01*
X33422Y-21932D01*
X33450Y-21946D01*
X33464Y-21960D01*
X33478Y-21989D01*
X33478Y-22101D01*
X33464Y-21806D02*
X33464Y-21707D01*
X33619Y-21665D02*
X33619Y-21806D01*
X33324Y-21806D01*
X33324Y-21665D01*
X33324Y-21567D02*
X33324Y-21384D01*
X33436Y-21482D01*
X33436Y-21440D01*
X33450Y-21412D01*
X33464Y-21398D01*
X33492Y-21384D01*
X33563Y-21384D01*
X33591Y-21398D01*
X33605Y-21412D01*
X33619Y-21440D01*
X33619Y-21525D01*
X33605Y-21553D01*
X33591Y-21567D01*
X32619Y-22101D02*
X32324Y-22101D01*
X32324Y-21989D01*
X32338Y-21960D01*
X32352Y-21946D01*
X32380Y-21932D01*
X32422Y-21932D01*
X32450Y-21946D01*
X32464Y-21960D01*
X32478Y-21989D01*
X32478Y-22101D01*
X32464Y-21806D02*
X32464Y-21707D01*
X32619Y-21665D02*
X32619Y-21806D01*
X32324Y-21806D01*
X32324Y-21665D01*
X32352Y-21553D02*
X32338Y-21539D01*
X32324Y-21510D01*
X32324Y-21440D01*
X32338Y-21412D01*
X32352Y-21398D01*
X32380Y-21384D01*
X32408Y-21384D01*
X32450Y-21398D01*
X32619Y-21567D01*
X32619Y-21384D01*
X31619Y-22101D02*
X31324Y-22101D01*
X31324Y-21989D01*
X31338Y-21960D01*
X31352Y-21946D01*
X31380Y-21932D01*
X31422Y-21932D01*
X31450Y-21946D01*
X31464Y-21960D01*
X31478Y-21989D01*
X31478Y-22101D01*
X31464Y-21806D02*
X31464Y-21707D01*
X31619Y-21665D02*
X31619Y-21806D01*
X31324Y-21806D01*
X31324Y-21665D01*
X31619Y-21384D02*
X31619Y-21553D01*
X31619Y-21468D02*
X31324Y-21468D01*
X31366Y-21496D01*
X31394Y-21525D01*
X31408Y-21553D01*
X30619Y-22101D02*
X30324Y-22101D01*
X30324Y-21989D01*
X30338Y-21960D01*
X30352Y-21946D01*
X30380Y-21932D01*
X30422Y-21932D01*
X30450Y-21946D01*
X30464Y-21960D01*
X30478Y-21989D01*
X30478Y-22101D01*
X30464Y-21806D02*
X30464Y-21707D01*
X30619Y-21665D02*
X30619Y-21806D01*
X30324Y-21806D01*
X30324Y-21665D01*
X30324Y-21482D02*
X30324Y-21454D01*
X30338Y-21426D01*
X30352Y-21412D01*
X30380Y-21398D01*
X30436Y-21384D01*
X30507Y-21384D01*
X30563Y-21398D01*
X30591Y-21412D01*
X30605Y-21426D01*
X30619Y-21454D01*
X30619Y-21482D01*
X30605Y-21510D01*
X30591Y-21525D01*
X30563Y-21539D01*
X30507Y-21553D01*
X30436Y-21553D01*
X30380Y-21539D01*
X30352Y-21525D01*
X30338Y-21510D01*
X30324Y-21482D01*
X29619Y-22115D02*
X29324Y-22115D01*
X29324Y-22003D01*
X29338Y-21974D01*
X29352Y-21960D01*
X29380Y-21946D01*
X29422Y-21946D01*
X29450Y-21960D01*
X29464Y-21974D01*
X29478Y-22003D01*
X29478Y-22115D01*
X29619Y-21820D02*
X29324Y-21820D01*
X29324Y-21750D01*
X29338Y-21707D01*
X29366Y-21679D01*
X29394Y-21665D01*
X29450Y-21651D01*
X29492Y-21651D01*
X29549Y-21665D01*
X29577Y-21679D01*
X29605Y-21707D01*
X29619Y-21750D01*
X29619Y-21820D01*
X29324Y-21553D02*
X29324Y-21356D01*
X29619Y-21482D01*
X28619Y-22115D02*
X28324Y-22115D01*
X28324Y-22003D01*
X28338Y-21974D01*
X28352Y-21960D01*
X28380Y-21946D01*
X28422Y-21946D01*
X28450Y-21960D01*
X28464Y-21974D01*
X28478Y-22003D01*
X28478Y-22115D01*
X28619Y-21820D02*
X28324Y-21820D01*
X28324Y-21750D01*
X28338Y-21707D01*
X28366Y-21679D01*
X28394Y-21665D01*
X28450Y-21651D01*
X28492Y-21651D01*
X28549Y-21665D01*
X28577Y-21679D01*
X28605Y-21707D01*
X28619Y-21750D01*
X28619Y-21820D01*
X28324Y-21398D02*
X28324Y-21454D01*
X28338Y-21482D01*
X28352Y-21496D01*
X28394Y-21525D01*
X28450Y-21539D01*
X28563Y-21539D01*
X28591Y-21525D01*
X28605Y-21510D01*
X28619Y-21482D01*
X28619Y-21426D01*
X28605Y-21398D01*
X28591Y-21384D01*
X28563Y-21370D01*
X28492Y-21370D01*
X28464Y-21384D01*
X28450Y-21398D01*
X28436Y-21426D01*
X28436Y-21482D01*
X28450Y-21510D01*
X28464Y-21525D01*
X28492Y-21539D01*
X27619Y-22115D02*
X27324Y-22115D01*
X27324Y-22003D01*
X27338Y-21974D01*
X27352Y-21960D01*
X27380Y-21946D01*
X27422Y-21946D01*
X27450Y-21960D01*
X27464Y-21974D01*
X27478Y-22003D01*
X27478Y-22115D01*
X27619Y-21820D02*
X27324Y-21820D01*
X27324Y-21750D01*
X27338Y-21707D01*
X27366Y-21679D01*
X27394Y-21665D01*
X27450Y-21651D01*
X27492Y-21651D01*
X27549Y-21665D01*
X27577Y-21679D01*
X27605Y-21707D01*
X27619Y-21750D01*
X27619Y-21820D01*
X27324Y-21384D02*
X27324Y-21525D01*
X27464Y-21539D01*
X27450Y-21525D01*
X27436Y-21496D01*
X27436Y-21426D01*
X27450Y-21398D01*
X27464Y-21384D01*
X27492Y-21370D01*
X27563Y-21370D01*
X27591Y-21384D01*
X27605Y-21398D01*
X27619Y-21426D01*
X27619Y-21496D01*
X27605Y-21525D01*
X27591Y-21539D01*
X26619Y-22115D02*
X26324Y-22115D01*
X26324Y-22003D01*
X26338Y-21974D01*
X26352Y-21960D01*
X26380Y-21946D01*
X26422Y-21946D01*
X26450Y-21960D01*
X26464Y-21974D01*
X26478Y-22003D01*
X26478Y-22115D01*
X26619Y-21820D02*
X26324Y-21820D01*
X26324Y-21750D01*
X26338Y-21707D01*
X26366Y-21679D01*
X26394Y-21665D01*
X26450Y-21651D01*
X26492Y-21651D01*
X26549Y-21665D01*
X26577Y-21679D01*
X26605Y-21707D01*
X26619Y-21750D01*
X26619Y-21820D01*
X26422Y-21398D02*
X26619Y-21398D01*
X26310Y-21468D02*
X26521Y-21539D01*
X26521Y-21356D01*
X25619Y-22115D02*
X25324Y-22115D01*
X25324Y-22003D01*
X25338Y-21974D01*
X25352Y-21960D01*
X25380Y-21946D01*
X25422Y-21946D01*
X25450Y-21960D01*
X25464Y-21974D01*
X25478Y-22003D01*
X25478Y-22115D01*
X25619Y-21820D02*
X25324Y-21820D01*
X25324Y-21750D01*
X25338Y-21707D01*
X25366Y-21679D01*
X25394Y-21665D01*
X25450Y-21651D01*
X25492Y-21651D01*
X25549Y-21665D01*
X25577Y-21679D01*
X25605Y-21707D01*
X25619Y-21750D01*
X25619Y-21820D01*
X25324Y-21553D02*
X25324Y-21370D01*
X25436Y-21468D01*
X25436Y-21426D01*
X25450Y-21398D01*
X25464Y-21384D01*
X25492Y-21370D01*
X25563Y-21370D01*
X25591Y-21384D01*
X25605Y-21398D01*
X25619Y-21426D01*
X25619Y-21510D01*
X25605Y-21539D01*
X25591Y-21553D01*
X24619Y-22115D02*
X24324Y-22115D01*
X24324Y-22003D01*
X24338Y-21974D01*
X24352Y-21960D01*
X24380Y-21946D01*
X24422Y-21946D01*
X24450Y-21960D01*
X24464Y-21974D01*
X24478Y-22003D01*
X24478Y-22115D01*
X24619Y-21820D02*
X24324Y-21820D01*
X24324Y-21750D01*
X24338Y-21707D01*
X24366Y-21679D01*
X24394Y-21665D01*
X24450Y-21651D01*
X24492Y-21651D01*
X24549Y-21665D01*
X24577Y-21679D01*
X24605Y-21707D01*
X24619Y-21750D01*
X24619Y-21820D01*
X24352Y-21539D02*
X24338Y-21525D01*
X24324Y-21496D01*
X24324Y-21426D01*
X24338Y-21398D01*
X24352Y-21384D01*
X24380Y-21370D01*
X24408Y-21370D01*
X24450Y-21384D01*
X24619Y-21553D01*
X24619Y-21370D01*
X23619Y-22115D02*
X23324Y-22115D01*
X23324Y-22003D01*
X23338Y-21974D01*
X23352Y-21960D01*
X23380Y-21946D01*
X23422Y-21946D01*
X23450Y-21960D01*
X23464Y-21974D01*
X23478Y-22003D01*
X23478Y-22115D01*
X23619Y-21820D02*
X23324Y-21820D01*
X23324Y-21750D01*
X23338Y-21707D01*
X23366Y-21679D01*
X23394Y-21665D01*
X23450Y-21651D01*
X23492Y-21651D01*
X23549Y-21665D01*
X23577Y-21679D01*
X23605Y-21707D01*
X23619Y-21750D01*
X23619Y-21820D01*
X23619Y-21370D02*
X23619Y-21539D01*
X23619Y-21454D02*
X23324Y-21454D01*
X23366Y-21482D01*
X23394Y-21510D01*
X23408Y-21539D01*
X22619Y-22115D02*
X22324Y-22115D01*
X22324Y-22003D01*
X22338Y-21974D01*
X22352Y-21960D01*
X22380Y-21946D01*
X22422Y-21946D01*
X22450Y-21960D01*
X22464Y-21974D01*
X22478Y-22003D01*
X22478Y-22115D01*
X22619Y-21820D02*
X22324Y-21820D01*
X22324Y-21750D01*
X22338Y-21707D01*
X22366Y-21679D01*
X22394Y-21665D01*
X22450Y-21651D01*
X22492Y-21651D01*
X22549Y-21665D01*
X22577Y-21679D01*
X22605Y-21707D01*
X22619Y-21750D01*
X22619Y-21820D01*
X22324Y-21468D02*
X22324Y-21440D01*
X22338Y-21412D01*
X22352Y-21398D01*
X22380Y-21384D01*
X22436Y-21370D01*
X22507Y-21370D01*
X22563Y-21384D01*
X22591Y-21398D01*
X22605Y-21412D01*
X22619Y-21440D01*
X22619Y-21468D01*
X22605Y-21496D01*
X22591Y-21510D01*
X22563Y-21525D01*
X22507Y-21539D01*
X22436Y-21539D01*
X22380Y-21525D01*
X22352Y-21510D01*
X22338Y-21496D01*
X22324Y-21468D01*
X21324Y-22031D02*
X21619Y-21932D01*
X21324Y-21834D01*
X21507Y-21735D02*
X21507Y-21510D01*
X21619Y-21623D02*
X21394Y-21623D01*
X20338Y-21974D02*
X20324Y-22003D01*
X20324Y-22045D01*
X20338Y-22087D01*
X20366Y-22115D01*
X20394Y-22129D01*
X20450Y-22143D01*
X20492Y-22143D01*
X20549Y-22129D01*
X20577Y-22115D01*
X20605Y-22087D01*
X20619Y-22045D01*
X20619Y-22017D01*
X20605Y-21974D01*
X20591Y-21960D01*
X20492Y-21960D01*
X20492Y-22017D01*
X20619Y-21834D02*
X20324Y-21834D01*
X20619Y-21665D01*
X20324Y-21665D01*
X20619Y-21525D02*
X20324Y-21525D01*
X20324Y-21454D01*
X20338Y-21412D01*
X20366Y-21384D01*
X20394Y-21370D01*
X20450Y-21356D01*
X20492Y-21356D01*
X20549Y-21370D01*
X20577Y-21384D01*
X20605Y-21412D01*
X20619Y-21454D01*
X20619Y-21525D01*
X19324Y-22291D02*
X19619Y-22192D01*
X19324Y-22094D01*
X19324Y-21996D02*
X19563Y-21996D01*
X19591Y-21982D01*
X19605Y-21967D01*
X19619Y-21939D01*
X19619Y-21883D01*
X19605Y-21855D01*
X19591Y-21841D01*
X19563Y-21827D01*
X19324Y-21827D01*
X19605Y-21700D02*
X19619Y-21658D01*
X19619Y-21588D01*
X19605Y-21560D01*
X19591Y-21546D01*
X19563Y-21532D01*
X19535Y-21532D01*
X19507Y-21546D01*
X19492Y-21560D01*
X19478Y-21588D01*
X19464Y-21644D01*
X19450Y-21672D01*
X19436Y-21686D01*
X19408Y-21700D01*
X19380Y-21700D01*
X19352Y-21686D01*
X19338Y-21672D01*
X19324Y-21644D01*
X19324Y-21574D01*
X19338Y-21532D01*
X19464Y-21307D02*
X19478Y-21264D01*
X19492Y-21250D01*
X19521Y-21236D01*
X19563Y-21236D01*
X19591Y-21250D01*
X19605Y-21264D01*
X19619Y-21293D01*
X19619Y-21405D01*
X19324Y-21405D01*
X19324Y-21307D01*
X19338Y-21278D01*
X19352Y-21264D01*
X19380Y-21250D01*
X19408Y-21250D01*
X19436Y-21264D01*
X19450Y-21278D01*
X19464Y-21307D01*
X19464Y-21405D01*
X19619Y-15615D02*
X19324Y-15615D01*
X19324Y-15503D01*
X19338Y-15474D01*
X19352Y-15460D01*
X19380Y-15446D01*
X19422Y-15446D01*
X19450Y-15460D01*
X19464Y-15474D01*
X19478Y-15503D01*
X19478Y-15615D01*
X19591Y-15151D02*
X19605Y-15165D01*
X19619Y-15207D01*
X19619Y-15235D01*
X19605Y-15278D01*
X19577Y-15306D01*
X19549Y-15320D01*
X19492Y-15334D01*
X19450Y-15334D01*
X19394Y-15320D01*
X19366Y-15306D01*
X19338Y-15278D01*
X19324Y-15235D01*
X19324Y-15207D01*
X19338Y-15165D01*
X19352Y-15151D01*
X19324Y-15053D02*
X19324Y-14856D01*
X19619Y-14982D01*
X20619Y-15615D02*
X20324Y-15615D01*
X20324Y-15503D01*
X20338Y-15474D01*
X20352Y-15460D01*
X20380Y-15446D01*
X20422Y-15446D01*
X20450Y-15460D01*
X20464Y-15474D01*
X20478Y-15503D01*
X20478Y-15615D01*
X20591Y-15151D02*
X20605Y-15165D01*
X20619Y-15207D01*
X20619Y-15235D01*
X20605Y-15278D01*
X20577Y-15306D01*
X20549Y-15320D01*
X20492Y-15334D01*
X20450Y-15334D01*
X20394Y-15320D01*
X20366Y-15306D01*
X20338Y-15278D01*
X20324Y-15235D01*
X20324Y-15207D01*
X20338Y-15165D01*
X20352Y-15151D01*
X20324Y-14898D02*
X20324Y-14954D01*
X20338Y-14982D01*
X20352Y-14996D01*
X20394Y-15025D01*
X20450Y-15039D01*
X20563Y-15039D01*
X20591Y-15025D01*
X20605Y-15010D01*
X20619Y-14982D01*
X20619Y-14926D01*
X20605Y-14898D01*
X20591Y-14884D01*
X20563Y-14870D01*
X20492Y-14870D01*
X20464Y-14884D01*
X20450Y-14898D01*
X20436Y-14926D01*
X20436Y-14982D01*
X20450Y-15010D01*
X20464Y-15025D01*
X20492Y-15039D01*
X22619Y-15615D02*
X22324Y-15615D01*
X22324Y-15503D01*
X22338Y-15474D01*
X22352Y-15460D01*
X22380Y-15446D01*
X22422Y-15446D01*
X22450Y-15460D01*
X22464Y-15474D01*
X22478Y-15503D01*
X22478Y-15615D01*
X22591Y-15151D02*
X22605Y-15165D01*
X22619Y-15207D01*
X22619Y-15235D01*
X22605Y-15278D01*
X22577Y-15306D01*
X22549Y-15320D01*
X22492Y-15334D01*
X22450Y-15334D01*
X22394Y-15320D01*
X22366Y-15306D01*
X22338Y-15278D01*
X22324Y-15235D01*
X22324Y-15207D01*
X22338Y-15165D01*
X22352Y-15151D01*
X22422Y-14898D02*
X22619Y-14898D01*
X22310Y-14968D02*
X22521Y-15039D01*
X22521Y-14856D01*
X21619Y-15615D02*
X21324Y-15615D01*
X21324Y-15503D01*
X21338Y-15474D01*
X21352Y-15460D01*
X21380Y-15446D01*
X21422Y-15446D01*
X21450Y-15460D01*
X21464Y-15474D01*
X21478Y-15503D01*
X21478Y-15615D01*
X21591Y-15151D02*
X21605Y-15165D01*
X21619Y-15207D01*
X21619Y-15235D01*
X21605Y-15278D01*
X21577Y-15306D01*
X21549Y-15320D01*
X21492Y-15334D01*
X21450Y-15334D01*
X21394Y-15320D01*
X21366Y-15306D01*
X21338Y-15278D01*
X21324Y-15235D01*
X21324Y-15207D01*
X21338Y-15165D01*
X21352Y-15151D01*
X21324Y-14884D02*
X21324Y-15025D01*
X21464Y-15039D01*
X21450Y-15025D01*
X21436Y-14996D01*
X21436Y-14926D01*
X21450Y-14898D01*
X21464Y-14884D01*
X21492Y-14870D01*
X21563Y-14870D01*
X21591Y-14884D01*
X21605Y-14898D01*
X21619Y-14926D01*
X21619Y-14996D01*
X21605Y-15025D01*
X21591Y-15039D01*
X23619Y-15615D02*
X23324Y-15615D01*
X23324Y-15503D01*
X23338Y-15474D01*
X23352Y-15460D01*
X23380Y-15446D01*
X23422Y-15446D01*
X23450Y-15460D01*
X23464Y-15474D01*
X23478Y-15503D01*
X23478Y-15615D01*
X23591Y-15151D02*
X23605Y-15165D01*
X23619Y-15207D01*
X23619Y-15235D01*
X23605Y-15278D01*
X23577Y-15306D01*
X23549Y-15320D01*
X23492Y-15334D01*
X23450Y-15334D01*
X23394Y-15320D01*
X23366Y-15306D01*
X23338Y-15278D01*
X23324Y-15235D01*
X23324Y-15207D01*
X23338Y-15165D01*
X23352Y-15151D01*
X23324Y-15053D02*
X23324Y-14870D01*
X23436Y-14968D01*
X23436Y-14926D01*
X23450Y-14898D01*
X23464Y-14884D01*
X23492Y-14870D01*
X23563Y-14870D01*
X23591Y-14884D01*
X23605Y-14898D01*
X23619Y-14926D01*
X23619Y-15010D01*
X23605Y-15039D01*
X23591Y-15053D01*
X24619Y-15615D02*
X24324Y-15615D01*
X24324Y-15503D01*
X24338Y-15474D01*
X24352Y-15460D01*
X24380Y-15446D01*
X24422Y-15446D01*
X24450Y-15460D01*
X24464Y-15474D01*
X24478Y-15503D01*
X24478Y-15615D01*
X24591Y-15151D02*
X24605Y-15165D01*
X24619Y-15207D01*
X24619Y-15235D01*
X24605Y-15278D01*
X24577Y-15306D01*
X24549Y-15320D01*
X24492Y-15334D01*
X24450Y-15334D01*
X24394Y-15320D01*
X24366Y-15306D01*
X24338Y-15278D01*
X24324Y-15235D01*
X24324Y-15207D01*
X24338Y-15165D01*
X24352Y-15151D01*
X24352Y-15039D02*
X24338Y-15025D01*
X24324Y-14996D01*
X24324Y-14926D01*
X24338Y-14898D01*
X24352Y-14884D01*
X24380Y-14870D01*
X24408Y-14870D01*
X24450Y-14884D01*
X24619Y-15053D01*
X24619Y-14870D01*
X25619Y-15615D02*
X25324Y-15615D01*
X25324Y-15503D01*
X25338Y-15474D01*
X25352Y-15460D01*
X25380Y-15446D01*
X25422Y-15446D01*
X25450Y-15460D01*
X25464Y-15474D01*
X25478Y-15503D01*
X25478Y-15615D01*
X25591Y-15151D02*
X25605Y-15165D01*
X25619Y-15207D01*
X25619Y-15235D01*
X25605Y-15278D01*
X25577Y-15306D01*
X25549Y-15320D01*
X25492Y-15334D01*
X25450Y-15334D01*
X25394Y-15320D01*
X25366Y-15306D01*
X25338Y-15278D01*
X25324Y-15235D01*
X25324Y-15207D01*
X25338Y-15165D01*
X25352Y-15151D01*
X25619Y-14870D02*
X25619Y-15039D01*
X25619Y-14954D02*
X25324Y-14954D01*
X25366Y-14982D01*
X25394Y-15010D01*
X25408Y-15039D01*
X26619Y-15615D02*
X26324Y-15615D01*
X26324Y-15503D01*
X26338Y-15474D01*
X26352Y-15460D01*
X26380Y-15446D01*
X26422Y-15446D01*
X26450Y-15460D01*
X26464Y-15474D01*
X26478Y-15503D01*
X26478Y-15615D01*
X26591Y-15151D02*
X26605Y-15165D01*
X26619Y-15207D01*
X26619Y-15235D01*
X26605Y-15278D01*
X26577Y-15306D01*
X26549Y-15320D01*
X26492Y-15334D01*
X26450Y-15334D01*
X26394Y-15320D01*
X26366Y-15306D01*
X26338Y-15278D01*
X26324Y-15235D01*
X26324Y-15207D01*
X26338Y-15165D01*
X26352Y-15151D01*
X26324Y-14968D02*
X26324Y-14940D01*
X26338Y-14912D01*
X26352Y-14898D01*
X26380Y-14884D01*
X26436Y-14870D01*
X26507Y-14870D01*
X26563Y-14884D01*
X26591Y-14898D01*
X26605Y-14912D01*
X26619Y-14940D01*
X26619Y-14968D01*
X26605Y-14996D01*
X26591Y-15010D01*
X26563Y-15025D01*
X26507Y-15039D01*
X26436Y-15039D01*
X26380Y-15025D01*
X26352Y-15010D01*
X26338Y-14996D01*
X26324Y-14968D01*
X27619Y-15615D02*
X27324Y-15615D01*
X27324Y-15503D01*
X27338Y-15474D01*
X27352Y-15460D01*
X27380Y-15446D01*
X27422Y-15446D01*
X27450Y-15460D01*
X27464Y-15474D01*
X27478Y-15503D01*
X27478Y-15615D01*
X27464Y-15221D02*
X27478Y-15179D01*
X27492Y-15165D01*
X27521Y-15151D01*
X27563Y-15151D01*
X27591Y-15165D01*
X27605Y-15179D01*
X27619Y-15207D01*
X27619Y-15320D01*
X27324Y-15320D01*
X27324Y-15221D01*
X27338Y-15193D01*
X27352Y-15179D01*
X27380Y-15165D01*
X27408Y-15165D01*
X27436Y-15179D01*
X27450Y-15193D01*
X27464Y-15221D01*
X27464Y-15320D01*
X27324Y-15053D02*
X27324Y-14870D01*
X27436Y-14968D01*
X27436Y-14926D01*
X27450Y-14898D01*
X27464Y-14884D01*
X27492Y-14870D01*
X27563Y-14870D01*
X27591Y-14884D01*
X27605Y-14898D01*
X27619Y-14926D01*
X27619Y-15010D01*
X27605Y-15039D01*
X27591Y-15053D01*
X28619Y-15615D02*
X28324Y-15615D01*
X28324Y-15503D01*
X28338Y-15474D01*
X28352Y-15460D01*
X28380Y-15446D01*
X28422Y-15446D01*
X28450Y-15460D01*
X28464Y-15474D01*
X28478Y-15503D01*
X28478Y-15615D01*
X28464Y-15221D02*
X28478Y-15179D01*
X28492Y-15165D01*
X28521Y-15151D01*
X28563Y-15151D01*
X28591Y-15165D01*
X28605Y-15179D01*
X28619Y-15207D01*
X28619Y-15320D01*
X28324Y-15320D01*
X28324Y-15221D01*
X28338Y-15193D01*
X28352Y-15179D01*
X28380Y-15165D01*
X28408Y-15165D01*
X28436Y-15179D01*
X28450Y-15193D01*
X28464Y-15221D01*
X28464Y-15320D01*
X28352Y-15039D02*
X28338Y-15025D01*
X28324Y-14996D01*
X28324Y-14926D01*
X28338Y-14898D01*
X28352Y-14884D01*
X28380Y-14870D01*
X28408Y-14870D01*
X28450Y-14884D01*
X28619Y-15053D01*
X28619Y-14870D01*
X29619Y-15615D02*
X29324Y-15615D01*
X29324Y-15503D01*
X29338Y-15474D01*
X29352Y-15460D01*
X29380Y-15446D01*
X29422Y-15446D01*
X29450Y-15460D01*
X29464Y-15474D01*
X29478Y-15503D01*
X29478Y-15615D01*
X29464Y-15221D02*
X29478Y-15179D01*
X29492Y-15165D01*
X29521Y-15151D01*
X29563Y-15151D01*
X29591Y-15165D01*
X29605Y-15179D01*
X29619Y-15207D01*
X29619Y-15320D01*
X29324Y-15320D01*
X29324Y-15221D01*
X29338Y-15193D01*
X29352Y-15179D01*
X29380Y-15165D01*
X29408Y-15165D01*
X29436Y-15179D01*
X29450Y-15193D01*
X29464Y-15221D01*
X29464Y-15320D01*
X29619Y-14870D02*
X29619Y-15039D01*
X29619Y-14954D02*
X29324Y-14954D01*
X29366Y-14982D01*
X29394Y-15010D01*
X29408Y-15039D01*
X30619Y-15615D02*
X30324Y-15615D01*
X30324Y-15503D01*
X30338Y-15474D01*
X30352Y-15460D01*
X30380Y-15446D01*
X30422Y-15446D01*
X30450Y-15460D01*
X30464Y-15474D01*
X30478Y-15503D01*
X30478Y-15615D01*
X30464Y-15221D02*
X30478Y-15179D01*
X30492Y-15165D01*
X30521Y-15151D01*
X30563Y-15151D01*
X30591Y-15165D01*
X30605Y-15179D01*
X30619Y-15207D01*
X30619Y-15320D01*
X30324Y-15320D01*
X30324Y-15221D01*
X30338Y-15193D01*
X30352Y-15179D01*
X30380Y-15165D01*
X30408Y-15165D01*
X30436Y-15179D01*
X30450Y-15193D01*
X30464Y-15221D01*
X30464Y-15320D01*
X30324Y-14968D02*
X30324Y-14940D01*
X30338Y-14912D01*
X30352Y-14898D01*
X30380Y-14884D01*
X30436Y-14870D01*
X30507Y-14870D01*
X30563Y-14884D01*
X30591Y-14898D01*
X30605Y-14912D01*
X30619Y-14940D01*
X30619Y-14968D01*
X30605Y-14996D01*
X30591Y-15010D01*
X30563Y-15025D01*
X30507Y-15039D01*
X30436Y-15039D01*
X30380Y-15025D01*
X30352Y-15010D01*
X30338Y-14996D01*
X30324Y-14968D01*
X31619Y-15594D02*
X31324Y-15594D01*
X31324Y-15482D01*
X31338Y-15453D01*
X31352Y-15439D01*
X31380Y-15425D01*
X31422Y-15425D01*
X31450Y-15439D01*
X31464Y-15453D01*
X31478Y-15482D01*
X31478Y-15594D01*
X31535Y-15313D02*
X31535Y-15172D01*
X31619Y-15341D02*
X31324Y-15242D01*
X31619Y-15144D01*
X31324Y-15074D02*
X31324Y-14877D01*
X31619Y-15003D01*
X32619Y-15594D02*
X32324Y-15594D01*
X32324Y-15482D01*
X32338Y-15453D01*
X32352Y-15439D01*
X32380Y-15425D01*
X32422Y-15425D01*
X32450Y-15439D01*
X32464Y-15453D01*
X32478Y-15482D01*
X32478Y-15594D01*
X32535Y-15313D02*
X32535Y-15172D01*
X32619Y-15341D02*
X32324Y-15242D01*
X32619Y-15144D01*
X32324Y-14919D02*
X32324Y-14975D01*
X32338Y-15003D01*
X32352Y-15017D01*
X32394Y-15046D01*
X32450Y-15060D01*
X32563Y-15060D01*
X32591Y-15046D01*
X32605Y-15032D01*
X32619Y-15003D01*
X32619Y-14947D01*
X32605Y-14919D01*
X32591Y-14905D01*
X32563Y-14891D01*
X32492Y-14891D01*
X32464Y-14905D01*
X32450Y-14919D01*
X32436Y-14947D01*
X32436Y-15003D01*
X32450Y-15032D01*
X32464Y-15046D01*
X32492Y-15060D01*
X33619Y-15594D02*
X33324Y-15594D01*
X33324Y-15482D01*
X33338Y-15453D01*
X33352Y-15439D01*
X33380Y-15425D01*
X33422Y-15425D01*
X33450Y-15439D01*
X33464Y-15453D01*
X33478Y-15482D01*
X33478Y-15594D01*
X33535Y-15313D02*
X33535Y-15172D01*
X33619Y-15341D02*
X33324Y-15242D01*
X33619Y-15144D01*
X33324Y-14905D02*
X33324Y-15046D01*
X33464Y-15060D01*
X33450Y-15046D01*
X33436Y-15017D01*
X33436Y-14947D01*
X33450Y-14919D01*
X33464Y-14905D01*
X33492Y-14891D01*
X33563Y-14891D01*
X33591Y-14905D01*
X33605Y-14919D01*
X33619Y-14947D01*
X33619Y-15017D01*
X33605Y-15046D01*
X33591Y-15060D01*
X34619Y-15594D02*
X34324Y-15594D01*
X34324Y-15482D01*
X34338Y-15453D01*
X34352Y-15439D01*
X34380Y-15425D01*
X34422Y-15425D01*
X34450Y-15439D01*
X34464Y-15453D01*
X34478Y-15482D01*
X34478Y-15594D01*
X34535Y-15313D02*
X34535Y-15172D01*
X34619Y-15341D02*
X34324Y-15242D01*
X34619Y-15144D01*
X34422Y-14919D02*
X34619Y-14919D01*
X34310Y-14989D02*
X34521Y-15060D01*
X34521Y-14877D01*
X35619Y-15594D02*
X35324Y-15594D01*
X35324Y-15482D01*
X35338Y-15453D01*
X35352Y-15439D01*
X35380Y-15425D01*
X35422Y-15425D01*
X35450Y-15439D01*
X35464Y-15453D01*
X35478Y-15482D01*
X35478Y-15594D01*
X35535Y-15313D02*
X35535Y-15172D01*
X35619Y-15341D02*
X35324Y-15242D01*
X35619Y-15144D01*
X35324Y-15074D02*
X35324Y-14891D01*
X35436Y-14989D01*
X35436Y-14947D01*
X35450Y-14919D01*
X35464Y-14905D01*
X35492Y-14891D01*
X35563Y-14891D01*
X35591Y-14905D01*
X35605Y-14919D01*
X35619Y-14947D01*
X35619Y-15032D01*
X35605Y-15060D01*
X35591Y-15074D01*
X36619Y-15594D02*
X36324Y-15594D01*
X36324Y-15482D01*
X36338Y-15453D01*
X36352Y-15439D01*
X36380Y-15425D01*
X36422Y-15425D01*
X36450Y-15439D01*
X36464Y-15453D01*
X36478Y-15482D01*
X36478Y-15594D01*
X36535Y-15313D02*
X36535Y-15172D01*
X36619Y-15341D02*
X36324Y-15242D01*
X36619Y-15144D01*
X36352Y-15060D02*
X36338Y-15046D01*
X36324Y-15017D01*
X36324Y-14947D01*
X36338Y-14919D01*
X36352Y-14905D01*
X36380Y-14891D01*
X36408Y-14891D01*
X36450Y-14905D01*
X36619Y-15074D01*
X36619Y-14891D01*
X37619Y-15594D02*
X37324Y-15594D01*
X37324Y-15482D01*
X37338Y-15453D01*
X37352Y-15439D01*
X37380Y-15425D01*
X37422Y-15425D01*
X37450Y-15439D01*
X37464Y-15453D01*
X37478Y-15482D01*
X37478Y-15594D01*
X37535Y-15313D02*
X37535Y-15172D01*
X37619Y-15341D02*
X37324Y-15242D01*
X37619Y-15144D01*
X37619Y-14891D02*
X37619Y-15060D01*
X37619Y-14975D02*
X37324Y-14975D01*
X37366Y-15003D01*
X37394Y-15032D01*
X37408Y-15060D01*
X38619Y-15594D02*
X38324Y-15594D01*
X38324Y-15482D01*
X38338Y-15453D01*
X38352Y-15439D01*
X38380Y-15425D01*
X38422Y-15425D01*
X38450Y-15439D01*
X38464Y-15453D01*
X38478Y-15482D01*
X38478Y-15594D01*
X38535Y-15313D02*
X38535Y-15172D01*
X38619Y-15341D02*
X38324Y-15242D01*
X38619Y-15144D01*
X38324Y-14989D02*
X38324Y-14961D01*
X38338Y-14933D01*
X38352Y-14919D01*
X38380Y-14905D01*
X38436Y-14891D01*
X38507Y-14891D01*
X38563Y-14905D01*
X38591Y-14919D01*
X38605Y-14933D01*
X38619Y-14961D01*
X38619Y-14989D01*
X38605Y-15017D01*
X38591Y-15032D01*
X38563Y-15046D01*
X38507Y-15060D01*
X38436Y-15060D01*
X38380Y-15046D01*
X38352Y-15032D01*
X38338Y-15017D01*
X38324Y-14989D01*
M02*
