G04 (created by PCBNEW (2013-03-31 BZR 4008)-stable) date 15.09.2013 15:25:41*
%MOIN*%
G04 Gerber Fmt 3.4, Leading zero omitted, Abs format*
%FSLAX34Y34*%
G01*
G70*
G90*
G04 APERTURE LIST*
%ADD10C,0.006*%
%ADD11C,0.0591*%
%ADD12C,0.1181*%
%ADD13R,0.08X0.144*%
%ADD14R,0.08X0.04*%
%ADD15R,0.035X0.055*%
%ADD16R,0.055X0.035*%
%ADD17R,0.06X0.06*%
%ADD18C,0.06*%
%ADD19R,0.0472X0.0472*%
%ADD20C,0.189*%
%ADD21R,0.189X0.189*%
%ADD22R,0.0512X0.0669*%
%ADD23R,0.0276X0.063*%
%ADD24R,0.0276X0.0827*%
%ADD25R,0.0787X0.1083*%
%ADD26R,0.0315X0.0394*%
%ADD27R,0.0236X0.0394*%
%ADD28R,0.0394X0.0236*%
%ADD29C,0.0590551*%
%ADD30C,0.1654*%
G04 APERTURE END LIST*
G54D10*
G54D11*
X21600Y-10750D03*
X22600Y-10750D03*
X23400Y-10750D03*
X24400Y-10750D03*
G54D12*
X20400Y-9700D03*
X25800Y-9700D03*
G54D13*
X42050Y-11500D03*
G54D14*
X39450Y-11500D03*
X39450Y-12400D03*
X39450Y-10600D03*
G54D15*
X36125Y-15000D03*
X36875Y-15000D03*
G54D16*
X20250Y-15625D03*
X20250Y-14875D03*
X18250Y-17125D03*
X18250Y-17875D03*
X23500Y-12125D03*
X23500Y-12875D03*
X22500Y-12125D03*
X22500Y-12875D03*
X37500Y-11625D03*
X37500Y-12375D03*
X24000Y-21375D03*
X24000Y-22125D03*
G54D15*
X28375Y-15000D03*
X27625Y-15000D03*
G54D16*
X38500Y-10625D03*
X38500Y-11375D03*
X17250Y-17625D03*
X17250Y-18375D03*
X33750Y-9625D03*
X33750Y-10375D03*
G54D15*
X37625Y-15000D03*
X38375Y-15000D03*
X21125Y-15250D03*
X21875Y-15250D03*
X33125Y-15000D03*
X33875Y-15000D03*
X31625Y-15000D03*
X32375Y-15000D03*
X29125Y-15000D03*
X29875Y-15000D03*
G54D16*
X21750Y-20375D03*
X21750Y-21125D03*
G54D15*
X28375Y-16000D03*
X29125Y-16000D03*
G54D16*
X37500Y-21125D03*
X37500Y-21875D03*
G54D15*
X34625Y-22000D03*
X35375Y-22000D03*
X24875Y-17750D03*
X24125Y-17750D03*
X31875Y-22000D03*
X31125Y-22000D03*
X26875Y-22000D03*
X26125Y-22000D03*
X25375Y-22000D03*
X24625Y-22000D03*
X25125Y-15000D03*
X25875Y-15000D03*
G54D16*
X19500Y-21125D03*
X19500Y-21875D03*
X35000Y-21125D03*
X35000Y-20375D03*
X28500Y-21875D03*
X28500Y-21125D03*
X29500Y-21125D03*
X29500Y-21875D03*
X31000Y-20375D03*
X31000Y-21125D03*
G54D15*
X20625Y-22000D03*
X21375Y-22000D03*
G54D16*
X35250Y-17375D03*
X35250Y-18125D03*
G54D15*
X28125Y-18750D03*
X28875Y-18750D03*
G54D16*
X38500Y-21875D03*
X38500Y-21125D03*
X37000Y-17375D03*
X37000Y-18125D03*
X33000Y-20625D03*
X33000Y-21375D03*
X33500Y-17375D03*
X33500Y-18125D03*
X27000Y-20875D03*
X27000Y-20125D03*
X26000Y-20875D03*
X26000Y-20125D03*
X25000Y-20125D03*
X25000Y-20875D03*
X26000Y-17125D03*
X26000Y-16375D03*
X27000Y-17125D03*
X27000Y-16375D03*
G54D17*
X40500Y-18000D03*
G54D18*
X41500Y-18000D03*
X40500Y-19000D03*
X41500Y-19000D03*
X40500Y-20000D03*
X41500Y-20000D03*
G54D19*
X30000Y-25913D03*
X30000Y-25087D03*
X36000Y-25913D03*
X36000Y-25087D03*
X24500Y-25087D03*
X24500Y-25913D03*
X22500Y-25087D03*
X22500Y-25913D03*
X17250Y-19587D03*
X17250Y-20413D03*
X18500Y-25913D03*
X18500Y-25087D03*
X32000Y-25087D03*
X32000Y-25913D03*
X20500Y-25087D03*
X20500Y-25913D03*
X28000Y-25913D03*
X28000Y-25087D03*
X38000Y-25913D03*
X38000Y-25087D03*
X34000Y-25087D03*
X34000Y-25913D03*
G54D20*
X30500Y-8750D03*
G54D21*
X30500Y-11150D03*
G54D20*
X28500Y-9650D03*
G54D22*
X20939Y-20000D03*
X19561Y-20000D03*
G54D23*
X34409Y-10748D03*
G54D24*
X35000Y-10650D03*
G54D23*
X35591Y-10748D03*
G54D25*
X35000Y-9705D03*
G54D26*
X35000Y-19683D03*
X34625Y-18817D03*
X35375Y-18817D03*
X28500Y-20433D03*
X28125Y-19567D03*
X28875Y-19567D03*
X36750Y-19683D03*
X36375Y-18817D03*
X37125Y-18817D03*
X33000Y-19683D03*
X32625Y-18817D03*
X33375Y-18817D03*
X26500Y-18683D03*
X26125Y-17817D03*
X26875Y-17817D03*
G54D22*
X32311Y-11750D03*
X33689Y-11750D03*
G54D15*
X34875Y-11750D03*
X35625Y-11750D03*
G54D11*
X33750Y-8242D03*
X33750Y-7258D03*
X36500Y-8242D03*
X36500Y-7258D03*
X39250Y-8242D03*
X39250Y-7258D03*
G54D27*
X30375Y-19084D03*
X30000Y-19916D03*
X29625Y-19084D03*
X31125Y-19166D03*
X31500Y-18334D03*
X31875Y-19166D03*
G54D28*
X24084Y-16125D03*
X24916Y-16500D03*
X24084Y-16875D03*
G54D22*
X21311Y-17750D03*
X22689Y-17750D03*
G54D29*
X19500Y-23000D03*
X20500Y-23000D03*
X21500Y-23000D03*
X22500Y-23000D03*
X23500Y-23000D03*
X24500Y-23000D03*
X25500Y-23000D03*
X26500Y-23000D03*
X27500Y-23000D03*
X28500Y-23000D03*
X29500Y-23000D03*
X30500Y-23000D03*
X31500Y-23000D03*
X32500Y-23000D03*
X33500Y-23000D03*
X34500Y-23000D03*
X35500Y-23000D03*
X36500Y-23000D03*
X37500Y-23000D03*
X38500Y-23000D03*
X38500Y-14000D03*
X37500Y-14000D03*
X36500Y-14000D03*
X35500Y-14000D03*
X34500Y-14000D03*
X33500Y-14000D03*
X32500Y-14000D03*
X31500Y-14000D03*
X30500Y-14000D03*
X29500Y-14000D03*
X28500Y-14000D03*
X27500Y-14000D03*
X26500Y-14000D03*
X25500Y-14000D03*
X24500Y-14000D03*
X23500Y-14000D03*
X22500Y-14000D03*
X21500Y-14000D03*
X20500Y-14000D03*
X19500Y-14000D03*
G54D30*
X41750Y-7250D03*
X41750Y-25500D03*
X16750Y-25500D03*
X16750Y-7250D03*
M02*
