G04 (created by PCBNEW (2013-03-31 BZR 4008)-stable) date 13.09.2013 22:32:34*
%MOIN*%
G04 Gerber Fmt 3.4, Leading zero omitted, Abs format*
%FSLAX34Y34*%
G01*
G70*
G90*
G04 APERTURE LIST*
%ADD10C,0.006*%
%ADD11C,0.011811*%
%ADD12C,0.00787402*%
%ADD13C,0.005*%
%ADD14C,0.008*%
%ADD15C,0.0039*%
%ADD16C,0.0026*%
%ADD17C,0.004*%
%ADD18C,0.002*%
%ADD19C,0.015*%
%ADD20C,0.0031*%
%ADD21C,0.012*%
%ADD22C,0.0043*%
%ADD23C,0.01*%
%ADD24C,0.0079*%
%ADD25C,0.0047*%
%ADD26C,0.00590551*%
G04 APERTURE END LIST*
G54D10*
G54D11*
X28014Y-9290D02*
X28014Y-8840D01*
X28239Y-9065D02*
X27789Y-9065D01*
X28239Y-8249D02*
X28239Y-8587D01*
X28239Y-8418D02*
X27648Y-8418D01*
X27732Y-8474D01*
X27789Y-8531D01*
X27817Y-8587D01*
X27704Y-8025D02*
X27676Y-7996D01*
X27648Y-7940D01*
X27648Y-7800D01*
X27676Y-7743D01*
X27704Y-7715D01*
X27760Y-7687D01*
X27817Y-7687D01*
X27901Y-7715D01*
X28239Y-8053D01*
X28239Y-7687D01*
X27648Y-7518D02*
X28239Y-7321D01*
X27648Y-7125D01*
G54D12*
X42659Y-20696D02*
X42265Y-20696D01*
X42265Y-20546D01*
X42284Y-20509D01*
X42303Y-20490D01*
X42340Y-20471D01*
X42396Y-20471D01*
X42434Y-20490D01*
X42453Y-20509D01*
X42471Y-20546D01*
X42471Y-20696D01*
X42659Y-20302D02*
X42396Y-20302D01*
X42471Y-20302D02*
X42434Y-20284D01*
X42415Y-20265D01*
X42396Y-20227D01*
X42396Y-20190D01*
X42659Y-20002D02*
X42640Y-20040D01*
X42621Y-20059D01*
X42584Y-20077D01*
X42471Y-20077D01*
X42434Y-20059D01*
X42415Y-20040D01*
X42396Y-20002D01*
X42396Y-19946D01*
X42415Y-19909D01*
X42434Y-19890D01*
X42471Y-19871D01*
X42584Y-19871D01*
X42621Y-19890D01*
X42640Y-19909D01*
X42659Y-19946D01*
X42659Y-20002D01*
X42396Y-19534D02*
X42715Y-19534D01*
X42753Y-19553D01*
X42771Y-19571D01*
X42790Y-19609D01*
X42790Y-19665D01*
X42771Y-19703D01*
X42640Y-19534D02*
X42659Y-19571D01*
X42659Y-19646D01*
X42640Y-19684D01*
X42621Y-19703D01*
X42584Y-19721D01*
X42471Y-19721D01*
X42434Y-19703D01*
X42415Y-19684D01*
X42396Y-19646D01*
X42396Y-19571D01*
X42415Y-19534D01*
X42659Y-19346D02*
X42396Y-19346D01*
X42471Y-19346D02*
X42434Y-19328D01*
X42415Y-19309D01*
X42396Y-19271D01*
X42396Y-19234D01*
X42659Y-18934D02*
X42453Y-18934D01*
X42415Y-18953D01*
X42396Y-18990D01*
X42396Y-19065D01*
X42415Y-19103D01*
X42640Y-18934D02*
X42659Y-18971D01*
X42659Y-19065D01*
X42640Y-19103D01*
X42603Y-19121D01*
X42565Y-19121D01*
X42528Y-19103D01*
X42509Y-19065D01*
X42509Y-18971D01*
X42490Y-18934D01*
X42659Y-18746D02*
X42396Y-18746D01*
X42434Y-18746D02*
X42415Y-18728D01*
X42396Y-18690D01*
X42396Y-18634D01*
X42415Y-18596D01*
X42453Y-18578D01*
X42659Y-18578D01*
X42453Y-18578D02*
X42415Y-18559D01*
X42396Y-18521D01*
X42396Y-18465D01*
X42415Y-18428D01*
X42453Y-18409D01*
X42659Y-18409D01*
X42659Y-18221D02*
X42396Y-18221D01*
X42434Y-18221D02*
X42415Y-18203D01*
X42396Y-18165D01*
X42396Y-18109D01*
X42415Y-18071D01*
X42453Y-18053D01*
X42659Y-18053D01*
X42453Y-18053D02*
X42415Y-18034D01*
X42396Y-17997D01*
X42396Y-17940D01*
X42415Y-17903D01*
X42453Y-17884D01*
X42659Y-17884D01*
X42640Y-17547D02*
X42659Y-17584D01*
X42659Y-17659D01*
X42640Y-17697D01*
X42603Y-17715D01*
X42453Y-17715D01*
X42415Y-17697D01*
X42396Y-17659D01*
X42396Y-17584D01*
X42415Y-17547D01*
X42453Y-17528D01*
X42490Y-17528D01*
X42528Y-17715D01*
X42659Y-17359D02*
X42396Y-17359D01*
X42471Y-17359D02*
X42434Y-17340D01*
X42415Y-17322D01*
X42396Y-17284D01*
X42396Y-17247D01*
X41265Y-17374D02*
X41659Y-17243D01*
X41265Y-17112D01*
X41509Y-16981D02*
X41509Y-16681D01*
X41659Y-16831D02*
X41359Y-16831D01*
X41284Y-21549D02*
X41265Y-21587D01*
X41265Y-21643D01*
X41284Y-21699D01*
X41321Y-21737D01*
X41359Y-21756D01*
X41434Y-21774D01*
X41490Y-21774D01*
X41565Y-21756D01*
X41603Y-21737D01*
X41640Y-21699D01*
X41659Y-21643D01*
X41659Y-21606D01*
X41640Y-21549D01*
X41621Y-21531D01*
X41490Y-21531D01*
X41490Y-21606D01*
X41659Y-21362D02*
X41265Y-21362D01*
X41659Y-21137D01*
X41265Y-21137D01*
X41659Y-20950D02*
X41265Y-20950D01*
X41265Y-20856D01*
X41284Y-20800D01*
X41321Y-20762D01*
X41359Y-20743D01*
X41434Y-20725D01*
X41490Y-20725D01*
X41565Y-20743D01*
X41603Y-20762D01*
X41640Y-20800D01*
X41659Y-20856D01*
X41659Y-20950D01*
X40409Y-20628D02*
X40221Y-20759D01*
X40409Y-20853D02*
X40015Y-20853D01*
X40015Y-20703D01*
X40034Y-20665D01*
X40053Y-20646D01*
X40090Y-20628D01*
X40146Y-20628D01*
X40184Y-20646D01*
X40203Y-20665D01*
X40221Y-20703D01*
X40221Y-20853D01*
X40409Y-17393D02*
X40015Y-17393D01*
X40015Y-17243D01*
X40034Y-17206D01*
X40053Y-17187D01*
X40090Y-17168D01*
X40146Y-17168D01*
X40184Y-17187D01*
X40203Y-17206D01*
X40221Y-17243D01*
X40221Y-17393D01*
X40409Y-17000D02*
X40015Y-17000D01*
X40015Y-16906D01*
X40034Y-16850D01*
X40071Y-16812D01*
X40109Y-16793D01*
X40184Y-16775D01*
X40240Y-16775D01*
X40315Y-16793D01*
X40353Y-16812D01*
X40390Y-16850D01*
X40409Y-16906D01*
X40409Y-17000D01*
X40409Y-16606D02*
X40015Y-16606D01*
X36909Y-26559D02*
X36515Y-26559D01*
X36515Y-26465D01*
X36534Y-26409D01*
X36571Y-26371D01*
X36609Y-26353D01*
X36684Y-26334D01*
X36740Y-26334D01*
X36815Y-26353D01*
X36853Y-26371D01*
X36890Y-26409D01*
X36909Y-26465D01*
X36909Y-26559D01*
X36759Y-26165D02*
X36759Y-25865D01*
X36909Y-26015D02*
X36609Y-26015D01*
X36703Y-25378D02*
X36703Y-25246D01*
X36909Y-25190D02*
X36909Y-25378D01*
X36515Y-25378D01*
X36515Y-25190D01*
X36890Y-25040D02*
X36909Y-24984D01*
X36909Y-24890D01*
X36890Y-24853D01*
X36871Y-24834D01*
X36834Y-24815D01*
X36796Y-24815D01*
X36759Y-24834D01*
X36740Y-24853D01*
X36721Y-24890D01*
X36703Y-24965D01*
X36684Y-25003D01*
X36665Y-25021D01*
X36628Y-25040D01*
X36590Y-25040D01*
X36553Y-25021D01*
X36534Y-25003D01*
X36515Y-24965D01*
X36515Y-24871D01*
X36534Y-24815D01*
X36909Y-24646D02*
X36515Y-24646D01*
X36515Y-24553D01*
X36534Y-24497D01*
X36571Y-24459D01*
X36609Y-24440D01*
X36684Y-24422D01*
X36740Y-24422D01*
X36815Y-24440D01*
X36853Y-24459D01*
X36890Y-24497D01*
X36909Y-24553D01*
X36909Y-24646D01*
X37389Y-26502D02*
X37389Y-26203D01*
X37539Y-25659D02*
X37520Y-25696D01*
X37501Y-25715D01*
X37464Y-25734D01*
X37351Y-25734D01*
X37314Y-25715D01*
X37295Y-25696D01*
X37276Y-25659D01*
X37276Y-25603D01*
X37295Y-25565D01*
X37314Y-25546D01*
X37351Y-25528D01*
X37464Y-25528D01*
X37501Y-25546D01*
X37520Y-25565D01*
X37539Y-25603D01*
X37539Y-25659D01*
X37276Y-25359D02*
X37670Y-25359D01*
X37295Y-25359D02*
X37276Y-25321D01*
X37276Y-25246D01*
X37295Y-25209D01*
X37314Y-25190D01*
X37351Y-25171D01*
X37464Y-25171D01*
X37501Y-25190D01*
X37520Y-25209D01*
X37539Y-25246D01*
X37539Y-25321D01*
X37520Y-25359D01*
X37520Y-24853D02*
X37539Y-24890D01*
X37539Y-24965D01*
X37520Y-25003D01*
X37483Y-25021D01*
X37333Y-25021D01*
X37295Y-25003D01*
X37276Y-24965D01*
X37276Y-24890D01*
X37295Y-24853D01*
X37333Y-24834D01*
X37370Y-24834D01*
X37408Y-25021D01*
X37276Y-24665D02*
X37539Y-24665D01*
X37314Y-24665D02*
X37295Y-24646D01*
X37276Y-24609D01*
X37276Y-24553D01*
X37295Y-24515D01*
X37333Y-24497D01*
X37539Y-24497D01*
X34909Y-26559D02*
X34515Y-26559D01*
X34515Y-26465D01*
X34534Y-26409D01*
X34571Y-26371D01*
X34609Y-26353D01*
X34684Y-26334D01*
X34740Y-26334D01*
X34815Y-26353D01*
X34853Y-26371D01*
X34890Y-26409D01*
X34909Y-26465D01*
X34909Y-26559D01*
X34759Y-26165D02*
X34759Y-25865D01*
X34703Y-25378D02*
X34703Y-25246D01*
X34909Y-25190D02*
X34909Y-25378D01*
X34515Y-25378D01*
X34515Y-25190D01*
X34890Y-25040D02*
X34909Y-24984D01*
X34909Y-24890D01*
X34890Y-24853D01*
X34871Y-24834D01*
X34834Y-24815D01*
X34796Y-24815D01*
X34759Y-24834D01*
X34740Y-24853D01*
X34721Y-24890D01*
X34703Y-24965D01*
X34684Y-25003D01*
X34665Y-25021D01*
X34628Y-25040D01*
X34590Y-25040D01*
X34553Y-25021D01*
X34534Y-25003D01*
X34515Y-24965D01*
X34515Y-24871D01*
X34534Y-24815D01*
X34909Y-24646D02*
X34515Y-24646D01*
X34515Y-24553D01*
X34534Y-24497D01*
X34571Y-24459D01*
X34609Y-24440D01*
X34684Y-24422D01*
X34740Y-24422D01*
X34815Y-24440D01*
X34853Y-24459D01*
X34890Y-24497D01*
X34909Y-24553D01*
X34909Y-24646D01*
X35389Y-26502D02*
X35389Y-26203D01*
X35539Y-25659D02*
X35520Y-25696D01*
X35501Y-25715D01*
X35464Y-25734D01*
X35351Y-25734D01*
X35314Y-25715D01*
X35295Y-25696D01*
X35276Y-25659D01*
X35276Y-25603D01*
X35295Y-25565D01*
X35314Y-25546D01*
X35351Y-25528D01*
X35464Y-25528D01*
X35501Y-25546D01*
X35520Y-25565D01*
X35539Y-25603D01*
X35539Y-25659D01*
X35276Y-25359D02*
X35670Y-25359D01*
X35295Y-25359D02*
X35276Y-25321D01*
X35276Y-25246D01*
X35295Y-25209D01*
X35314Y-25190D01*
X35351Y-25171D01*
X35464Y-25171D01*
X35501Y-25190D01*
X35520Y-25209D01*
X35539Y-25246D01*
X35539Y-25321D01*
X35520Y-25359D01*
X35520Y-24853D02*
X35539Y-24890D01*
X35539Y-24965D01*
X35520Y-25003D01*
X35483Y-25021D01*
X35333Y-25021D01*
X35295Y-25003D01*
X35276Y-24965D01*
X35276Y-24890D01*
X35295Y-24853D01*
X35333Y-24834D01*
X35370Y-24834D01*
X35408Y-25021D01*
X35276Y-24665D02*
X35539Y-24665D01*
X35314Y-24665D02*
X35295Y-24646D01*
X35276Y-24609D01*
X35276Y-24553D01*
X35295Y-24515D01*
X35333Y-24497D01*
X35539Y-24497D01*
X32909Y-26559D02*
X32515Y-26559D01*
X32515Y-26465D01*
X32534Y-26409D01*
X32571Y-26371D01*
X32609Y-26353D01*
X32684Y-26334D01*
X32740Y-26334D01*
X32815Y-26353D01*
X32853Y-26371D01*
X32890Y-26409D01*
X32909Y-26465D01*
X32909Y-26559D01*
X32759Y-26165D02*
X32759Y-25865D01*
X32909Y-26015D02*
X32609Y-26015D01*
X32703Y-25378D02*
X32703Y-25246D01*
X32909Y-25190D02*
X32909Y-25378D01*
X32515Y-25378D01*
X32515Y-25190D01*
X32890Y-25040D02*
X32909Y-24984D01*
X32909Y-24890D01*
X32890Y-24853D01*
X32871Y-24834D01*
X32834Y-24815D01*
X32796Y-24815D01*
X32759Y-24834D01*
X32740Y-24853D01*
X32721Y-24890D01*
X32703Y-24965D01*
X32684Y-25003D01*
X32665Y-25021D01*
X32628Y-25040D01*
X32590Y-25040D01*
X32553Y-25021D01*
X32534Y-25003D01*
X32515Y-24965D01*
X32515Y-24871D01*
X32534Y-24815D01*
X32909Y-24646D02*
X32515Y-24646D01*
X32515Y-24553D01*
X32534Y-24497D01*
X32571Y-24459D01*
X32609Y-24440D01*
X32684Y-24422D01*
X32740Y-24422D01*
X32815Y-24440D01*
X32853Y-24459D01*
X32890Y-24497D01*
X32909Y-24553D01*
X32909Y-24646D01*
X33389Y-26502D02*
X33389Y-26203D01*
X33539Y-26353D02*
X33239Y-26353D01*
X33539Y-25659D02*
X33520Y-25696D01*
X33501Y-25715D01*
X33464Y-25734D01*
X33351Y-25734D01*
X33314Y-25715D01*
X33295Y-25696D01*
X33276Y-25659D01*
X33276Y-25603D01*
X33295Y-25565D01*
X33314Y-25546D01*
X33351Y-25528D01*
X33464Y-25528D01*
X33501Y-25546D01*
X33520Y-25565D01*
X33539Y-25603D01*
X33539Y-25659D01*
X33276Y-25359D02*
X33670Y-25359D01*
X33295Y-25359D02*
X33276Y-25321D01*
X33276Y-25246D01*
X33295Y-25209D01*
X33314Y-25190D01*
X33351Y-25171D01*
X33464Y-25171D01*
X33501Y-25190D01*
X33520Y-25209D01*
X33539Y-25246D01*
X33539Y-25321D01*
X33520Y-25359D01*
X33520Y-24853D02*
X33539Y-24890D01*
X33539Y-24965D01*
X33520Y-25003D01*
X33483Y-25021D01*
X33333Y-25021D01*
X33295Y-25003D01*
X33276Y-24965D01*
X33276Y-24890D01*
X33295Y-24853D01*
X33333Y-24834D01*
X33370Y-24834D01*
X33408Y-25021D01*
X33276Y-24665D02*
X33539Y-24665D01*
X33314Y-24665D02*
X33295Y-24646D01*
X33276Y-24609D01*
X33276Y-24553D01*
X33295Y-24515D01*
X33333Y-24497D01*
X33539Y-24497D01*
X30909Y-26559D02*
X30515Y-26559D01*
X30515Y-26465D01*
X30534Y-26409D01*
X30571Y-26371D01*
X30609Y-26353D01*
X30684Y-26334D01*
X30740Y-26334D01*
X30815Y-26353D01*
X30853Y-26371D01*
X30890Y-26409D01*
X30909Y-26465D01*
X30909Y-26559D01*
X30759Y-26165D02*
X30759Y-25865D01*
X30703Y-25378D02*
X30703Y-25246D01*
X30909Y-25190D02*
X30909Y-25378D01*
X30515Y-25378D01*
X30515Y-25190D01*
X30890Y-25040D02*
X30909Y-24984D01*
X30909Y-24890D01*
X30890Y-24853D01*
X30871Y-24834D01*
X30834Y-24815D01*
X30796Y-24815D01*
X30759Y-24834D01*
X30740Y-24853D01*
X30721Y-24890D01*
X30703Y-24965D01*
X30684Y-25003D01*
X30665Y-25021D01*
X30628Y-25040D01*
X30590Y-25040D01*
X30553Y-25021D01*
X30534Y-25003D01*
X30515Y-24965D01*
X30515Y-24871D01*
X30534Y-24815D01*
X30909Y-24646D02*
X30515Y-24646D01*
X30515Y-24553D01*
X30534Y-24497D01*
X30571Y-24459D01*
X30609Y-24440D01*
X30684Y-24422D01*
X30740Y-24422D01*
X30815Y-24440D01*
X30853Y-24459D01*
X30890Y-24497D01*
X30909Y-24553D01*
X30909Y-24646D01*
X31389Y-26502D02*
X31389Y-26203D01*
X31539Y-26353D02*
X31239Y-26353D01*
X31539Y-25659D02*
X31520Y-25696D01*
X31501Y-25715D01*
X31464Y-25734D01*
X31351Y-25734D01*
X31314Y-25715D01*
X31295Y-25696D01*
X31276Y-25659D01*
X31276Y-25603D01*
X31295Y-25565D01*
X31314Y-25546D01*
X31351Y-25528D01*
X31464Y-25528D01*
X31501Y-25546D01*
X31520Y-25565D01*
X31539Y-25603D01*
X31539Y-25659D01*
X31276Y-25359D02*
X31670Y-25359D01*
X31295Y-25359D02*
X31276Y-25321D01*
X31276Y-25246D01*
X31295Y-25209D01*
X31314Y-25190D01*
X31351Y-25171D01*
X31464Y-25171D01*
X31501Y-25190D01*
X31520Y-25209D01*
X31539Y-25246D01*
X31539Y-25321D01*
X31520Y-25359D01*
X31520Y-24853D02*
X31539Y-24890D01*
X31539Y-24965D01*
X31520Y-25003D01*
X31483Y-25021D01*
X31333Y-25021D01*
X31295Y-25003D01*
X31276Y-24965D01*
X31276Y-24890D01*
X31295Y-24853D01*
X31333Y-24834D01*
X31370Y-24834D01*
X31408Y-25021D01*
X31276Y-24665D02*
X31539Y-24665D01*
X31314Y-24665D02*
X31295Y-24646D01*
X31276Y-24609D01*
X31276Y-24553D01*
X31295Y-24515D01*
X31333Y-24497D01*
X31539Y-24497D01*
X28515Y-25828D02*
X28515Y-25565D01*
X28909Y-25828D01*
X28909Y-25565D01*
X28909Y-25415D02*
X28515Y-25415D01*
X28515Y-25321D01*
X28534Y-25265D01*
X28571Y-25228D01*
X28609Y-25209D01*
X28684Y-25190D01*
X28740Y-25190D01*
X28815Y-25209D01*
X28853Y-25228D01*
X28890Y-25265D01*
X28909Y-25321D01*
X28909Y-25415D01*
X29539Y-26053D02*
X29520Y-26090D01*
X29501Y-26109D01*
X29464Y-26128D01*
X29351Y-26128D01*
X29314Y-26109D01*
X29295Y-26090D01*
X29276Y-26053D01*
X29276Y-25996D01*
X29295Y-25959D01*
X29314Y-25940D01*
X29351Y-25921D01*
X29464Y-25921D01*
X29501Y-25940D01*
X29520Y-25959D01*
X29539Y-25996D01*
X29539Y-26053D01*
X29276Y-25753D02*
X29670Y-25753D01*
X29295Y-25753D02*
X29276Y-25715D01*
X29276Y-25640D01*
X29295Y-25603D01*
X29314Y-25584D01*
X29351Y-25565D01*
X29464Y-25565D01*
X29501Y-25584D01*
X29520Y-25603D01*
X29539Y-25640D01*
X29539Y-25715D01*
X29520Y-25753D01*
X29520Y-25246D02*
X29539Y-25284D01*
X29539Y-25359D01*
X29520Y-25396D01*
X29483Y-25415D01*
X29333Y-25415D01*
X29295Y-25396D01*
X29276Y-25359D01*
X29276Y-25284D01*
X29295Y-25246D01*
X29333Y-25228D01*
X29370Y-25228D01*
X29408Y-25415D01*
X29276Y-25059D02*
X29539Y-25059D01*
X29314Y-25059D02*
X29295Y-25040D01*
X29276Y-25003D01*
X29276Y-24946D01*
X29295Y-24909D01*
X29333Y-24890D01*
X29539Y-24890D01*
X24121Y-26384D02*
X24140Y-26402D01*
X24159Y-26459D01*
X24159Y-26496D01*
X24140Y-26552D01*
X24103Y-26590D01*
X24065Y-26609D01*
X23990Y-26627D01*
X23934Y-26627D01*
X23859Y-26609D01*
X23821Y-26590D01*
X23784Y-26552D01*
X23765Y-26496D01*
X23765Y-26459D01*
X23784Y-26402D01*
X23803Y-26384D01*
X24159Y-25915D02*
X23765Y-25915D01*
X23765Y-25765D01*
X23784Y-25728D01*
X23803Y-25709D01*
X23840Y-25690D01*
X23896Y-25690D01*
X23934Y-25709D01*
X23953Y-25728D01*
X23971Y-25765D01*
X23971Y-25915D01*
X24046Y-25540D02*
X24046Y-25353D01*
X24159Y-25578D02*
X23765Y-25446D01*
X24159Y-25315D01*
X23765Y-25109D02*
X23765Y-25071D01*
X23784Y-25034D01*
X23803Y-25015D01*
X23840Y-24996D01*
X23915Y-24978D01*
X24009Y-24978D01*
X24084Y-24996D01*
X24121Y-25015D01*
X24140Y-25034D01*
X24159Y-25071D01*
X24159Y-25109D01*
X24140Y-25146D01*
X24121Y-25165D01*
X24084Y-25184D01*
X24009Y-25203D01*
X23915Y-25203D01*
X23840Y-25184D01*
X23803Y-25165D01*
X23784Y-25146D01*
X23765Y-25109D01*
X23765Y-24434D02*
X23765Y-24359D01*
X23784Y-24321D01*
X23821Y-24284D01*
X23896Y-24265D01*
X24028Y-24265D01*
X24103Y-24284D01*
X24140Y-24321D01*
X24159Y-24359D01*
X24159Y-24434D01*
X24140Y-24471D01*
X24103Y-24509D01*
X24028Y-24528D01*
X23896Y-24528D01*
X23821Y-24509D01*
X23784Y-24471D01*
X23765Y-24434D01*
X24159Y-24097D02*
X23765Y-24097D01*
X24159Y-23872D02*
X23934Y-24040D01*
X23765Y-23872D02*
X23990Y-24097D01*
X26515Y-26221D02*
X26909Y-26090D01*
X26515Y-25959D01*
X26515Y-25828D02*
X26834Y-25828D01*
X26871Y-25809D01*
X26890Y-25790D01*
X26909Y-25753D01*
X26909Y-25678D01*
X26890Y-25640D01*
X26871Y-25621D01*
X26834Y-25603D01*
X26515Y-25603D01*
X26890Y-25434D02*
X26909Y-25378D01*
X26909Y-25284D01*
X26890Y-25246D01*
X26871Y-25228D01*
X26834Y-25209D01*
X26796Y-25209D01*
X26759Y-25228D01*
X26740Y-25246D01*
X26721Y-25284D01*
X26703Y-25359D01*
X26684Y-25396D01*
X26665Y-25415D01*
X26628Y-25434D01*
X26590Y-25434D01*
X26553Y-25415D01*
X26534Y-25396D01*
X26515Y-25359D01*
X26515Y-25265D01*
X26534Y-25209D01*
X26703Y-24909D02*
X26721Y-24853D01*
X26740Y-24834D01*
X26778Y-24815D01*
X26834Y-24815D01*
X26871Y-24834D01*
X26890Y-24853D01*
X26909Y-24890D01*
X26909Y-25040D01*
X26515Y-25040D01*
X26515Y-24909D01*
X26534Y-24871D01*
X26553Y-24853D01*
X26590Y-24834D01*
X26628Y-24834D01*
X26665Y-24853D01*
X26684Y-24871D01*
X26703Y-24909D01*
X26703Y-25040D01*
X27520Y-26174D02*
X27539Y-26137D01*
X27539Y-26062D01*
X27520Y-26024D01*
X27483Y-26006D01*
X27464Y-26006D01*
X27426Y-26024D01*
X27408Y-26062D01*
X27408Y-26118D01*
X27389Y-26156D01*
X27351Y-26174D01*
X27333Y-26174D01*
X27295Y-26156D01*
X27276Y-26118D01*
X27276Y-26062D01*
X27295Y-26024D01*
X27539Y-25837D02*
X27145Y-25837D01*
X27539Y-25668D02*
X27333Y-25668D01*
X27295Y-25687D01*
X27276Y-25724D01*
X27276Y-25781D01*
X27295Y-25818D01*
X27314Y-25837D01*
X27539Y-25425D02*
X27520Y-25462D01*
X27501Y-25481D01*
X27464Y-25500D01*
X27351Y-25500D01*
X27314Y-25481D01*
X27295Y-25462D01*
X27276Y-25425D01*
X27276Y-25368D01*
X27295Y-25331D01*
X27314Y-25312D01*
X27351Y-25293D01*
X27464Y-25293D01*
X27501Y-25312D01*
X27520Y-25331D01*
X27539Y-25368D01*
X27539Y-25425D01*
X27539Y-25125D02*
X27276Y-25125D01*
X27351Y-25125D02*
X27314Y-25106D01*
X27295Y-25087D01*
X27276Y-25050D01*
X27276Y-25012D01*
X27276Y-24937D02*
X27276Y-24787D01*
X27145Y-24881D02*
X27483Y-24881D01*
X27520Y-24862D01*
X27539Y-24825D01*
X27539Y-24787D01*
X22121Y-26412D02*
X22140Y-26431D01*
X22159Y-26487D01*
X22159Y-26524D01*
X22140Y-26581D01*
X22103Y-26618D01*
X22065Y-26637D01*
X21990Y-26656D01*
X21934Y-26656D01*
X21859Y-26637D01*
X21821Y-26618D01*
X21784Y-26581D01*
X21765Y-26524D01*
X21765Y-26487D01*
X21784Y-26431D01*
X21803Y-26412D01*
X22159Y-25943D02*
X21765Y-25943D01*
X21765Y-25793D01*
X21784Y-25756D01*
X21803Y-25737D01*
X21840Y-25718D01*
X21896Y-25718D01*
X21934Y-25737D01*
X21953Y-25756D01*
X21971Y-25793D01*
X21971Y-25943D01*
X21953Y-25418D02*
X21971Y-25362D01*
X21990Y-25343D01*
X22028Y-25324D01*
X22084Y-25324D01*
X22121Y-25343D01*
X22140Y-25362D01*
X22159Y-25399D01*
X22159Y-25549D01*
X21765Y-25549D01*
X21765Y-25418D01*
X21784Y-25381D01*
X21803Y-25362D01*
X21840Y-25343D01*
X21878Y-25343D01*
X21915Y-25362D01*
X21934Y-25381D01*
X21953Y-25418D01*
X21953Y-25549D01*
X21765Y-25081D02*
X21765Y-25043D01*
X21784Y-25006D01*
X21803Y-24987D01*
X21840Y-24968D01*
X21915Y-24950D01*
X22009Y-24950D01*
X22084Y-24968D01*
X22121Y-24987D01*
X22140Y-25006D01*
X22159Y-25043D01*
X22159Y-25081D01*
X22140Y-25118D01*
X22121Y-25137D01*
X22084Y-25156D01*
X22009Y-25175D01*
X21915Y-25175D01*
X21840Y-25156D01*
X21803Y-25137D01*
X21784Y-25118D01*
X21765Y-25081D01*
X21765Y-24406D02*
X21765Y-24331D01*
X21784Y-24293D01*
X21821Y-24256D01*
X21896Y-24237D01*
X22028Y-24237D01*
X22103Y-24256D01*
X22140Y-24293D01*
X22159Y-24331D01*
X22159Y-24406D01*
X22140Y-24443D01*
X22103Y-24481D01*
X22028Y-24500D01*
X21896Y-24500D01*
X21821Y-24481D01*
X21784Y-24443D01*
X21765Y-24406D01*
X22159Y-24068D02*
X21765Y-24068D01*
X22159Y-23843D02*
X21934Y-24012D01*
X21765Y-23843D02*
X21990Y-24068D01*
X19034Y-25799D02*
X19015Y-25837D01*
X19015Y-25893D01*
X19034Y-25949D01*
X19071Y-25987D01*
X19109Y-26006D01*
X19184Y-26024D01*
X19240Y-26024D01*
X19315Y-26006D01*
X19353Y-25987D01*
X19390Y-25949D01*
X19409Y-25893D01*
X19409Y-25856D01*
X19390Y-25799D01*
X19371Y-25781D01*
X19240Y-25781D01*
X19240Y-25856D01*
X19409Y-25612D02*
X19015Y-25612D01*
X19409Y-25387D01*
X19015Y-25387D01*
X19409Y-25200D02*
X19015Y-25200D01*
X19015Y-25106D01*
X19034Y-25050D01*
X19071Y-25012D01*
X19109Y-24993D01*
X19184Y-24975D01*
X19240Y-24975D01*
X19315Y-24993D01*
X19353Y-25012D01*
X19390Y-25050D01*
X19409Y-25106D01*
X19409Y-25200D01*
X20189Y-26484D02*
X20170Y-26503D01*
X20114Y-26540D01*
X20076Y-26559D01*
X20020Y-26577D01*
X19926Y-26596D01*
X19851Y-26596D01*
X19758Y-26577D01*
X19701Y-26559D01*
X19664Y-26540D01*
X19608Y-26503D01*
X19589Y-26484D01*
X19683Y-26353D02*
X19664Y-26334D01*
X19645Y-26296D01*
X19645Y-26203D01*
X19664Y-26165D01*
X19683Y-26146D01*
X19720Y-26128D01*
X19758Y-26128D01*
X19814Y-26146D01*
X20039Y-26371D01*
X20039Y-26128D01*
X19645Y-25884D02*
X19645Y-25846D01*
X19664Y-25809D01*
X19683Y-25790D01*
X19720Y-25771D01*
X19795Y-25753D01*
X19889Y-25753D01*
X19964Y-25771D01*
X20001Y-25790D01*
X20020Y-25809D01*
X20039Y-25846D01*
X20039Y-25884D01*
X20020Y-25921D01*
X20001Y-25940D01*
X19964Y-25959D01*
X19889Y-25978D01*
X19795Y-25978D01*
X19720Y-25959D01*
X19683Y-25940D01*
X19664Y-25921D01*
X19645Y-25884D01*
X20189Y-25621D02*
X20170Y-25603D01*
X20114Y-25565D01*
X20076Y-25546D01*
X20020Y-25528D01*
X19926Y-25509D01*
X19851Y-25509D01*
X19758Y-25528D01*
X19701Y-25546D01*
X19664Y-25565D01*
X19608Y-25603D01*
X19589Y-25621D01*
X19645Y-24946D02*
X19645Y-24871D01*
X19664Y-24834D01*
X19701Y-24796D01*
X19776Y-24778D01*
X19908Y-24778D01*
X19983Y-24796D01*
X20020Y-24834D01*
X20039Y-24871D01*
X20039Y-24946D01*
X20020Y-24984D01*
X19983Y-25021D01*
X19908Y-25040D01*
X19776Y-25040D01*
X19701Y-25021D01*
X19664Y-24984D01*
X19645Y-24946D01*
X20039Y-24609D02*
X19645Y-24609D01*
X20039Y-24384D02*
X19814Y-24553D01*
X19645Y-24384D02*
X19870Y-24609D01*
X18396Y-24524D02*
X18790Y-24524D01*
X18603Y-24337D02*
X18640Y-24318D01*
X18659Y-24281D01*
X18603Y-24524D02*
X18640Y-24505D01*
X18659Y-24468D01*
X18659Y-24393D01*
X18640Y-24356D01*
X18603Y-24337D01*
X18396Y-24337D01*
X18265Y-24112D02*
X18584Y-24112D01*
X18621Y-24093D01*
X18640Y-24074D01*
X18659Y-24037D01*
X18659Y-23962D01*
X18640Y-23924D01*
X18621Y-23906D01*
X18584Y-23887D01*
X18265Y-23887D01*
X18640Y-23718D02*
X18659Y-23662D01*
X18659Y-23568D01*
X18640Y-23531D01*
X18621Y-23512D01*
X18584Y-23493D01*
X18546Y-23493D01*
X18509Y-23512D01*
X18490Y-23531D01*
X18471Y-23568D01*
X18453Y-23643D01*
X18434Y-23681D01*
X18415Y-23699D01*
X18378Y-23718D01*
X18340Y-23718D01*
X18303Y-23699D01*
X18284Y-23681D01*
X18265Y-23643D01*
X18265Y-23549D01*
X18284Y-23493D01*
X18453Y-23193D02*
X18471Y-23137D01*
X18490Y-23118D01*
X18528Y-23099D01*
X18584Y-23099D01*
X18621Y-23118D01*
X18640Y-23137D01*
X18659Y-23174D01*
X18659Y-23324D01*
X18265Y-23324D01*
X18265Y-23193D01*
X18284Y-23156D01*
X18303Y-23137D01*
X18340Y-23118D01*
X18378Y-23118D01*
X18415Y-23137D01*
X18434Y-23156D01*
X18453Y-23193D01*
X18453Y-23324D01*
X18659Y-22631D02*
X18265Y-22631D01*
X18265Y-22481D01*
X18284Y-22443D01*
X18303Y-22425D01*
X18340Y-22406D01*
X18396Y-22406D01*
X18434Y-22425D01*
X18453Y-22443D01*
X18471Y-22481D01*
X18471Y-22631D01*
X18265Y-22275D02*
X18659Y-22181D01*
X18378Y-22106D01*
X18659Y-22031D01*
X18265Y-21937D01*
X18659Y-21562D02*
X18471Y-21693D01*
X18659Y-21787D02*
X18265Y-21787D01*
X18265Y-21637D01*
X18284Y-21600D01*
X18303Y-21581D01*
X18340Y-21562D01*
X18396Y-21562D01*
X18434Y-21581D01*
X18453Y-21600D01*
X18471Y-21637D01*
X18471Y-21787D01*
X18265Y-21018D02*
X18265Y-20943D01*
X18284Y-20906D01*
X18321Y-20868D01*
X18396Y-20850D01*
X18528Y-20850D01*
X18603Y-20868D01*
X18640Y-20906D01*
X18659Y-20943D01*
X18659Y-21018D01*
X18640Y-21056D01*
X18603Y-21093D01*
X18528Y-21112D01*
X18396Y-21112D01*
X18321Y-21093D01*
X18284Y-21056D01*
X18265Y-21018D01*
X18659Y-20681D02*
X18265Y-20681D01*
X18659Y-20456D02*
X18434Y-20625D01*
X18265Y-20456D02*
X18490Y-20681D01*
G54D11*
X16489Y-20787D02*
X15898Y-20787D01*
X15898Y-20562D01*
X15926Y-20506D01*
X15954Y-20478D01*
X16010Y-20449D01*
X16095Y-20449D01*
X16151Y-20478D01*
X16179Y-20506D01*
X16207Y-20562D01*
X16207Y-20787D01*
X15898Y-20253D02*
X16489Y-20112D01*
X16067Y-20000D01*
X16489Y-19887D01*
X15898Y-19746D01*
X16489Y-19184D02*
X16207Y-19381D01*
X16489Y-19521D02*
X15898Y-19521D01*
X15898Y-19296D01*
X15926Y-19240D01*
X15954Y-19212D01*
X16010Y-19184D01*
X16095Y-19184D01*
X16151Y-19212D01*
X16179Y-19240D01*
X16207Y-19296D01*
X16207Y-19521D01*
G54D13*
X20050Y-12200D02*
X20050Y-6650D01*
X25950Y-6650D02*
X25950Y-12200D01*
X20050Y-12200D02*
X25950Y-12200D01*
X20050Y-6650D02*
X25950Y-6650D01*
G54D14*
X35350Y-10600D02*
X35350Y-11800D01*
X35350Y-11800D02*
X38150Y-11800D01*
X38150Y-11800D02*
X38150Y-10600D01*
X35350Y-9400D02*
X35350Y-9100D01*
X35350Y-9100D02*
X35950Y-8200D01*
X35950Y-8200D02*
X37550Y-8200D01*
X37550Y-8200D02*
X38150Y-9100D01*
X38150Y-9100D02*
X38150Y-9400D01*
G54D15*
X24795Y-18276D02*
X24795Y-17724D01*
X24854Y-18276D02*
X24146Y-18276D01*
X24146Y-18276D02*
X24146Y-17724D01*
X24146Y-17724D02*
X24854Y-17724D01*
X24854Y-17724D02*
X24854Y-18276D01*
X28705Y-19224D02*
X28705Y-19776D01*
X28646Y-19224D02*
X29354Y-19224D01*
X29354Y-19224D02*
X29354Y-19776D01*
X29354Y-19776D02*
X28646Y-19776D01*
X28646Y-19776D02*
X28646Y-19224D01*
X35900Y-16300D02*
G75*
G03X35900Y-16300I-50J0D01*
G74*
G01*
X36300Y-16300D02*
X35900Y-16300D01*
X35900Y-16300D02*
X35900Y-15700D01*
X35900Y-15700D02*
X36300Y-15700D01*
X36700Y-15700D02*
X37100Y-15700D01*
X37100Y-15700D02*
X37100Y-16300D01*
X37100Y-16300D02*
X36700Y-16300D01*
X20850Y-16900D02*
G75*
G03X20850Y-16900I-50J0D01*
G74*
G01*
X20800Y-16450D02*
X20800Y-16850D01*
X20800Y-16850D02*
X20200Y-16850D01*
X20200Y-16850D02*
X20200Y-16450D01*
X20200Y-16050D02*
X20200Y-15650D01*
X20200Y-15650D02*
X20800Y-15650D01*
X20800Y-15650D02*
X20800Y-16050D01*
X18000Y-16850D02*
G75*
G03X18000Y-16850I-50J0D01*
G74*
G01*
X17950Y-17300D02*
X17950Y-16900D01*
X17950Y-16900D02*
X18550Y-16900D01*
X18550Y-16900D02*
X18550Y-17300D01*
X18550Y-17700D02*
X18550Y-18100D01*
X18550Y-18100D02*
X17950Y-18100D01*
X17950Y-18100D02*
X17950Y-17700D01*
X23250Y-12850D02*
G75*
G03X23250Y-12850I-50J0D01*
G74*
G01*
X23200Y-13300D02*
X23200Y-12900D01*
X23200Y-12900D02*
X23800Y-12900D01*
X23800Y-12900D02*
X23800Y-13300D01*
X23800Y-13700D02*
X23800Y-14100D01*
X23800Y-14100D02*
X23200Y-14100D01*
X23200Y-14100D02*
X23200Y-13700D01*
X22250Y-12850D02*
G75*
G03X22250Y-12850I-50J0D01*
G74*
G01*
X22200Y-13300D02*
X22200Y-12900D01*
X22200Y-12900D02*
X22800Y-12900D01*
X22800Y-12900D02*
X22800Y-13300D01*
X22800Y-13700D02*
X22800Y-14100D01*
X22800Y-14100D02*
X22200Y-14100D01*
X22200Y-14100D02*
X22200Y-13700D01*
X36150Y-12800D02*
G75*
G03X36150Y-12800I-50J0D01*
G74*
G01*
X36550Y-12800D02*
X36150Y-12800D01*
X36150Y-12800D02*
X36150Y-12200D01*
X36150Y-12200D02*
X36550Y-12200D01*
X36950Y-12200D02*
X37350Y-12200D01*
X37350Y-12200D02*
X37350Y-12800D01*
X37350Y-12800D02*
X36950Y-12800D01*
X25450Y-19700D02*
G75*
G03X25450Y-19700I-50J0D01*
G74*
G01*
X24950Y-19700D02*
X25350Y-19700D01*
X25350Y-19700D02*
X25350Y-20300D01*
X25350Y-20300D02*
X24950Y-20300D01*
X24550Y-20300D02*
X24150Y-20300D01*
X24150Y-20300D02*
X24150Y-19700D01*
X24150Y-19700D02*
X24550Y-19700D01*
X28450Y-15700D02*
G75*
G03X28450Y-15700I-50J0D01*
G74*
G01*
X27950Y-15700D02*
X28350Y-15700D01*
X28350Y-15700D02*
X28350Y-16300D01*
X28350Y-16300D02*
X27950Y-16300D01*
X27550Y-16300D02*
X27150Y-16300D01*
X27150Y-16300D02*
X27150Y-15700D01*
X27150Y-15700D02*
X27550Y-15700D01*
X35650Y-13800D02*
G75*
G03X35650Y-13800I-50J0D01*
G74*
G01*
X36050Y-13800D02*
X35650Y-13800D01*
X35650Y-13800D02*
X35650Y-13200D01*
X35650Y-13200D02*
X36050Y-13200D01*
X36450Y-13200D02*
X36850Y-13200D01*
X36850Y-13200D02*
X36850Y-13800D01*
X36850Y-13800D02*
X36450Y-13800D01*
X17000Y-17350D02*
G75*
G03X17000Y-17350I-50J0D01*
G74*
G01*
X16950Y-17800D02*
X16950Y-17400D01*
X16950Y-17400D02*
X17550Y-17400D01*
X17550Y-17400D02*
X17550Y-17800D01*
X17550Y-18200D02*
X17550Y-18600D01*
X17550Y-18600D02*
X16950Y-18600D01*
X16950Y-18600D02*
X16950Y-18200D01*
X32750Y-8350D02*
G75*
G03X32750Y-8350I-50J0D01*
G74*
G01*
X32700Y-8800D02*
X32700Y-8400D01*
X32700Y-8400D02*
X33300Y-8400D01*
X33300Y-8400D02*
X33300Y-8800D01*
X33300Y-9200D02*
X33300Y-9600D01*
X33300Y-9600D02*
X32700Y-9600D01*
X32700Y-9600D02*
X32700Y-9200D01*
X37650Y-16300D02*
G75*
G03X37650Y-16300I-50J0D01*
G74*
G01*
X38050Y-16300D02*
X37650Y-16300D01*
X37650Y-16300D02*
X37650Y-15700D01*
X37650Y-15700D02*
X38050Y-15700D01*
X38450Y-15700D02*
X38850Y-15700D01*
X38850Y-15700D02*
X38850Y-16300D01*
X38850Y-16300D02*
X38450Y-16300D01*
X21150Y-16550D02*
G75*
G03X21150Y-16550I-50J0D01*
G74*
G01*
X21550Y-16550D02*
X21150Y-16550D01*
X21150Y-16550D02*
X21150Y-15950D01*
X21150Y-15950D02*
X21550Y-15950D01*
X21950Y-15950D02*
X22350Y-15950D01*
X22350Y-15950D02*
X22350Y-16550D01*
X22350Y-16550D02*
X21950Y-16550D01*
X32900Y-16300D02*
G75*
G03X32900Y-16300I-50J0D01*
G74*
G01*
X33300Y-16300D02*
X32900Y-16300D01*
X32900Y-16300D02*
X32900Y-15700D01*
X32900Y-15700D02*
X33300Y-15700D01*
X33700Y-15700D02*
X34100Y-15700D01*
X34100Y-15700D02*
X34100Y-16300D01*
X34100Y-16300D02*
X33700Y-16300D01*
X31150Y-16300D02*
G75*
G03X31150Y-16300I-50J0D01*
G74*
G01*
X31550Y-16300D02*
X31150Y-16300D01*
X31150Y-16300D02*
X31150Y-15700D01*
X31150Y-15700D02*
X31550Y-15700D01*
X31950Y-15700D02*
X32350Y-15700D01*
X32350Y-15700D02*
X32350Y-16300D01*
X32350Y-16300D02*
X31950Y-16300D01*
X28900Y-16300D02*
G75*
G03X28900Y-16300I-50J0D01*
G74*
G01*
X29300Y-16300D02*
X28900Y-16300D01*
X28900Y-16300D02*
X28900Y-15700D01*
X28900Y-15700D02*
X29300Y-15700D01*
X29700Y-15700D02*
X30100Y-15700D01*
X30100Y-15700D02*
X30100Y-16300D01*
X30100Y-16300D02*
X29700Y-16300D01*
X20400Y-22050D02*
G75*
G03X20400Y-22050I-50J0D01*
G74*
G01*
X20800Y-22050D02*
X20400Y-22050D01*
X20400Y-22050D02*
X20400Y-21450D01*
X20400Y-21450D02*
X20800Y-21450D01*
X21200Y-21450D02*
X21600Y-21450D01*
X21600Y-21450D02*
X21600Y-22050D01*
X21600Y-22050D02*
X21200Y-22050D01*
X28150Y-17050D02*
G75*
G03X28150Y-17050I-50J0D01*
G74*
G01*
X28550Y-17050D02*
X28150Y-17050D01*
X28150Y-17050D02*
X28150Y-16450D01*
X28150Y-16450D02*
X28550Y-16450D01*
X28950Y-16450D02*
X29350Y-16450D01*
X29350Y-16450D02*
X29350Y-17050D01*
X29350Y-17050D02*
X28950Y-17050D01*
X37250Y-20850D02*
G75*
G03X37250Y-20850I-50J0D01*
G74*
G01*
X37200Y-21300D02*
X37200Y-20900D01*
X37200Y-20900D02*
X37800Y-20900D01*
X37800Y-20900D02*
X37800Y-21300D01*
X37800Y-21700D02*
X37800Y-22100D01*
X37800Y-22100D02*
X37200Y-22100D01*
X37200Y-22100D02*
X37200Y-21700D01*
X34400Y-24300D02*
G75*
G03X34400Y-24300I-50J0D01*
G74*
G01*
X34800Y-24300D02*
X34400Y-24300D01*
X34400Y-24300D02*
X34400Y-23700D01*
X34400Y-23700D02*
X34800Y-23700D01*
X35200Y-23700D02*
X35600Y-23700D01*
X35600Y-23700D02*
X35600Y-24300D01*
X35600Y-24300D02*
X35200Y-24300D01*
X24100Y-19650D02*
G75*
G03X24100Y-19650I-50J0D01*
G74*
G01*
X24050Y-19200D02*
X24050Y-19600D01*
X24050Y-19600D02*
X23450Y-19600D01*
X23450Y-19600D02*
X23450Y-19200D01*
X23450Y-18800D02*
X23450Y-18400D01*
X23450Y-18400D02*
X24050Y-18400D01*
X24050Y-18400D02*
X24050Y-18800D01*
X32200Y-21700D02*
G75*
G03X32200Y-21700I-50J0D01*
G74*
G01*
X31700Y-21700D02*
X32100Y-21700D01*
X32100Y-21700D02*
X32100Y-22300D01*
X32100Y-22300D02*
X31700Y-22300D01*
X31300Y-22300D02*
X30900Y-22300D01*
X30900Y-22300D02*
X30900Y-21700D01*
X30900Y-21700D02*
X31300Y-21700D01*
X27200Y-21700D02*
G75*
G03X27200Y-21700I-50J0D01*
G74*
G01*
X26700Y-21700D02*
X27100Y-21700D01*
X27100Y-21700D02*
X27100Y-22300D01*
X27100Y-22300D02*
X26700Y-22300D01*
X26300Y-22300D02*
X25900Y-22300D01*
X25900Y-22300D02*
X25900Y-21700D01*
X25900Y-21700D02*
X26300Y-21700D01*
X26700Y-20700D02*
G75*
G03X26700Y-20700I-50J0D01*
G74*
G01*
X26200Y-20700D02*
X26600Y-20700D01*
X26600Y-20700D02*
X26600Y-21300D01*
X26600Y-21300D02*
X26200Y-21300D01*
X25800Y-21300D02*
X25400Y-21300D01*
X25400Y-21300D02*
X25400Y-20700D01*
X25400Y-20700D02*
X25800Y-20700D01*
X24150Y-16300D02*
G75*
G03X24150Y-16300I-50J0D01*
G74*
G01*
X24550Y-16300D02*
X24150Y-16300D01*
X24150Y-16300D02*
X24150Y-15700D01*
X24150Y-15700D02*
X24550Y-15700D01*
X24950Y-15700D02*
X25350Y-15700D01*
X25350Y-15700D02*
X25350Y-16300D01*
X25350Y-16300D02*
X24950Y-16300D01*
X19250Y-20850D02*
G75*
G03X19250Y-20850I-50J0D01*
G74*
G01*
X19200Y-21300D02*
X19200Y-20900D01*
X19200Y-20900D02*
X19800Y-20900D01*
X19800Y-20900D02*
X19800Y-21300D01*
X19800Y-21700D02*
X19800Y-22100D01*
X19800Y-22100D02*
X19200Y-22100D01*
X19200Y-22100D02*
X19200Y-21700D01*
X35100Y-21650D02*
G75*
G03X35100Y-21650I-50J0D01*
G74*
G01*
X35050Y-21200D02*
X35050Y-21600D01*
X35050Y-21600D02*
X34450Y-21600D01*
X34450Y-21600D02*
X34450Y-21200D01*
X34450Y-20800D02*
X34450Y-20400D01*
X34450Y-20400D02*
X35050Y-20400D01*
X35050Y-20400D02*
X35050Y-20800D01*
X28850Y-22150D02*
G75*
G03X28850Y-22150I-50J0D01*
G74*
G01*
X28800Y-21700D02*
X28800Y-22100D01*
X28800Y-22100D02*
X28200Y-22100D01*
X28200Y-22100D02*
X28200Y-21700D01*
X28200Y-21300D02*
X28200Y-20900D01*
X28200Y-20900D02*
X28800Y-20900D01*
X28800Y-20900D02*
X28800Y-21300D01*
X29250Y-20850D02*
G75*
G03X29250Y-20850I-50J0D01*
G74*
G01*
X29200Y-21300D02*
X29200Y-20900D01*
X29200Y-20900D02*
X29800Y-20900D01*
X29800Y-20900D02*
X29800Y-21300D01*
X29800Y-21700D02*
X29800Y-22100D01*
X29800Y-22100D02*
X29200Y-22100D01*
X29200Y-22100D02*
X29200Y-21700D01*
X30750Y-20100D02*
G75*
G03X30750Y-20100I-50J0D01*
G74*
G01*
X30700Y-20550D02*
X30700Y-20150D01*
X30700Y-20150D02*
X31300Y-20150D01*
X31300Y-20150D02*
X31300Y-20550D01*
X31300Y-20950D02*
X31300Y-21350D01*
X31300Y-21350D02*
X30700Y-21350D01*
X30700Y-21350D02*
X30700Y-20950D01*
X20400Y-24300D02*
G75*
G03X20400Y-24300I-50J0D01*
G74*
G01*
X20800Y-24300D02*
X20400Y-24300D01*
X20400Y-24300D02*
X20400Y-23700D01*
X20400Y-23700D02*
X20800Y-23700D01*
X21200Y-23700D02*
X21600Y-23700D01*
X21600Y-23700D02*
X21600Y-24300D01*
X21600Y-24300D02*
X21200Y-24300D01*
X35000Y-17100D02*
G75*
G03X35000Y-17100I-50J0D01*
G74*
G01*
X34950Y-17550D02*
X34950Y-17150D01*
X34950Y-17150D02*
X35550Y-17150D01*
X35550Y-17150D02*
X35550Y-17550D01*
X35550Y-17950D02*
X35550Y-18350D01*
X35550Y-18350D02*
X34950Y-18350D01*
X34950Y-18350D02*
X34950Y-17950D01*
X31500Y-17100D02*
G75*
G03X31500Y-17100I-50J0D01*
G74*
G01*
X31450Y-17550D02*
X31450Y-17150D01*
X31450Y-17150D02*
X32050Y-17150D01*
X32050Y-17150D02*
X32050Y-17550D01*
X32050Y-17950D02*
X32050Y-18350D01*
X32050Y-18350D02*
X31450Y-18350D01*
X31450Y-18350D02*
X31450Y-17950D01*
X38850Y-22150D02*
G75*
G03X38850Y-22150I-50J0D01*
G74*
G01*
X38800Y-21700D02*
X38800Y-22100D01*
X38800Y-22100D02*
X38200Y-22100D01*
X38200Y-22100D02*
X38200Y-21700D01*
X38200Y-21300D02*
X38200Y-20900D01*
X38200Y-20900D02*
X38800Y-20900D01*
X38800Y-20900D02*
X38800Y-21300D01*
X36750Y-17100D02*
G75*
G03X36750Y-17100I-50J0D01*
G74*
G01*
X36700Y-17550D02*
X36700Y-17150D01*
X36700Y-17150D02*
X37300Y-17150D01*
X37300Y-17150D02*
X37300Y-17550D01*
X37300Y-17950D02*
X37300Y-18350D01*
X37300Y-18350D02*
X36700Y-18350D01*
X36700Y-18350D02*
X36700Y-17950D01*
X32750Y-20350D02*
G75*
G03X32750Y-20350I-50J0D01*
G74*
G01*
X32700Y-20800D02*
X32700Y-20400D01*
X32700Y-20400D02*
X33300Y-20400D01*
X33300Y-20400D02*
X33300Y-20800D01*
X33300Y-21200D02*
X33300Y-21600D01*
X33300Y-21600D02*
X32700Y-21600D01*
X32700Y-21600D02*
X32700Y-21200D01*
X33250Y-17100D02*
G75*
G03X33250Y-17100I-50J0D01*
G74*
G01*
X33200Y-17550D02*
X33200Y-17150D01*
X33200Y-17150D02*
X33800Y-17150D01*
X33800Y-17150D02*
X33800Y-17550D01*
X33800Y-17950D02*
X33800Y-18350D01*
X33800Y-18350D02*
X33200Y-18350D01*
X33200Y-18350D02*
X33200Y-17950D01*
X29700Y-23700D02*
G75*
G03X29700Y-23700I-50J0D01*
G74*
G01*
X29200Y-23700D02*
X29600Y-23700D01*
X29600Y-23700D02*
X29600Y-24300D01*
X29600Y-24300D02*
X29200Y-24300D01*
X28800Y-24300D02*
X28400Y-24300D01*
X28400Y-24300D02*
X28400Y-23700D01*
X28400Y-23700D02*
X28800Y-23700D01*
X28850Y-18900D02*
G75*
G03X28850Y-18900I-50J0D01*
G74*
G01*
X28800Y-18450D02*
X28800Y-18850D01*
X28800Y-18850D02*
X28200Y-18850D01*
X28200Y-18850D02*
X28200Y-18450D01*
X28200Y-18050D02*
X28200Y-17650D01*
X28200Y-17650D02*
X28800Y-17650D01*
X28800Y-17650D02*
X28800Y-18050D01*
X29850Y-18900D02*
G75*
G03X29850Y-18900I-50J0D01*
G74*
G01*
X29800Y-18450D02*
X29800Y-18850D01*
X29800Y-18850D02*
X29200Y-18850D01*
X29200Y-18850D02*
X29200Y-18450D01*
X29200Y-18050D02*
X29200Y-17650D01*
X29200Y-17650D02*
X29800Y-17650D01*
X29800Y-17650D02*
X29800Y-18050D01*
X26350Y-18150D02*
G75*
G03X26350Y-18150I-50J0D01*
G74*
G01*
X26300Y-17700D02*
X26300Y-18100D01*
X26300Y-18100D02*
X25700Y-18100D01*
X25700Y-18100D02*
X25700Y-17700D01*
X25700Y-17300D02*
X25700Y-16900D01*
X25700Y-16900D02*
X26300Y-16900D01*
X26300Y-16900D02*
X26300Y-17300D01*
X27350Y-18150D02*
G75*
G03X27350Y-18150I-50J0D01*
G74*
G01*
X27300Y-17700D02*
X27300Y-18100D01*
X27300Y-18100D02*
X26700Y-18100D01*
X26700Y-18100D02*
X26700Y-17700D01*
X26700Y-17300D02*
X26700Y-16900D01*
X26700Y-16900D02*
X27300Y-16900D01*
X27300Y-16900D02*
X27300Y-17300D01*
G54D14*
X40000Y-20500D02*
X40000Y-17500D01*
X42000Y-17500D02*
X42000Y-20500D01*
X42000Y-20500D02*
X40000Y-20500D01*
X40000Y-17500D02*
X42000Y-17500D01*
G54D16*
X30118Y-25304D02*
X30246Y-25304D01*
X30246Y-25304D02*
X30246Y-25107D01*
X30118Y-25107D02*
X30246Y-25107D01*
X30118Y-25304D02*
X30118Y-25107D01*
X29873Y-25304D02*
X29932Y-25304D01*
X29932Y-25304D02*
X29932Y-25205D01*
X29873Y-25205D02*
X29932Y-25205D01*
X29873Y-25304D02*
X29873Y-25205D01*
X30068Y-25304D02*
X30127Y-25304D01*
X30127Y-25304D02*
X30127Y-25205D01*
X30068Y-25205D02*
X30127Y-25205D01*
X30068Y-25304D02*
X30068Y-25205D01*
X29922Y-25304D02*
X30078Y-25304D01*
X30078Y-25304D02*
X30078Y-25235D01*
X29922Y-25235D02*
X30078Y-25235D01*
X29922Y-25304D02*
X29922Y-25235D01*
X30118Y-25893D02*
X30246Y-25893D01*
X30246Y-25893D02*
X30246Y-25696D01*
X30118Y-25696D02*
X30246Y-25696D01*
X30118Y-25893D02*
X30118Y-25696D01*
X29754Y-25893D02*
X29882Y-25893D01*
X29882Y-25893D02*
X29882Y-25696D01*
X29754Y-25696D02*
X29882Y-25696D01*
X29754Y-25893D02*
X29754Y-25696D01*
X30068Y-25795D02*
X30127Y-25795D01*
X30127Y-25795D02*
X30127Y-25696D01*
X30068Y-25696D02*
X30127Y-25696D01*
X30068Y-25795D02*
X30068Y-25696D01*
X29873Y-25795D02*
X29932Y-25795D01*
X29932Y-25795D02*
X29932Y-25696D01*
X29873Y-25696D02*
X29932Y-25696D01*
X29873Y-25795D02*
X29873Y-25696D01*
X29922Y-25765D02*
X30078Y-25765D01*
X30078Y-25765D02*
X30078Y-25696D01*
X29922Y-25696D02*
X30078Y-25696D01*
X29922Y-25765D02*
X29922Y-25696D01*
X29961Y-25500D02*
X30039Y-25500D01*
X30039Y-25500D02*
X30039Y-25422D01*
X29961Y-25422D02*
X30039Y-25422D01*
X29961Y-25500D02*
X29961Y-25422D01*
X29764Y-25304D02*
X29882Y-25304D01*
X29882Y-25304D02*
X29882Y-25186D01*
X29764Y-25186D02*
X29882Y-25186D01*
X29764Y-25304D02*
X29764Y-25186D01*
X29754Y-25136D02*
X29843Y-25136D01*
X29843Y-25136D02*
X29843Y-25107D01*
X29754Y-25107D02*
X29843Y-25107D01*
X29754Y-25136D02*
X29754Y-25107D01*
G54D17*
X30226Y-25294D02*
X30226Y-25706D01*
X29774Y-25696D02*
X29774Y-25136D01*
G54D18*
X29851Y-25166D02*
G75*
G03X29851Y-25166I-28J0D01*
G74*
G01*
G54D17*
X29863Y-25107D02*
G75*
G03X30137Y-25107I137J0D01*
G74*
G01*
X30137Y-25893D02*
G75*
G03X29863Y-25893I-137J0D01*
G74*
G01*
G54D16*
X36118Y-25304D02*
X36246Y-25304D01*
X36246Y-25304D02*
X36246Y-25107D01*
X36118Y-25107D02*
X36246Y-25107D01*
X36118Y-25304D02*
X36118Y-25107D01*
X35873Y-25304D02*
X35932Y-25304D01*
X35932Y-25304D02*
X35932Y-25205D01*
X35873Y-25205D02*
X35932Y-25205D01*
X35873Y-25304D02*
X35873Y-25205D01*
X36068Y-25304D02*
X36127Y-25304D01*
X36127Y-25304D02*
X36127Y-25205D01*
X36068Y-25205D02*
X36127Y-25205D01*
X36068Y-25304D02*
X36068Y-25205D01*
X35922Y-25304D02*
X36078Y-25304D01*
X36078Y-25304D02*
X36078Y-25235D01*
X35922Y-25235D02*
X36078Y-25235D01*
X35922Y-25304D02*
X35922Y-25235D01*
X36118Y-25893D02*
X36246Y-25893D01*
X36246Y-25893D02*
X36246Y-25696D01*
X36118Y-25696D02*
X36246Y-25696D01*
X36118Y-25893D02*
X36118Y-25696D01*
X35754Y-25893D02*
X35882Y-25893D01*
X35882Y-25893D02*
X35882Y-25696D01*
X35754Y-25696D02*
X35882Y-25696D01*
X35754Y-25893D02*
X35754Y-25696D01*
X36068Y-25795D02*
X36127Y-25795D01*
X36127Y-25795D02*
X36127Y-25696D01*
X36068Y-25696D02*
X36127Y-25696D01*
X36068Y-25795D02*
X36068Y-25696D01*
X35873Y-25795D02*
X35932Y-25795D01*
X35932Y-25795D02*
X35932Y-25696D01*
X35873Y-25696D02*
X35932Y-25696D01*
X35873Y-25795D02*
X35873Y-25696D01*
X35922Y-25765D02*
X36078Y-25765D01*
X36078Y-25765D02*
X36078Y-25696D01*
X35922Y-25696D02*
X36078Y-25696D01*
X35922Y-25765D02*
X35922Y-25696D01*
X35961Y-25500D02*
X36039Y-25500D01*
X36039Y-25500D02*
X36039Y-25422D01*
X35961Y-25422D02*
X36039Y-25422D01*
X35961Y-25500D02*
X35961Y-25422D01*
X35764Y-25304D02*
X35882Y-25304D01*
X35882Y-25304D02*
X35882Y-25186D01*
X35764Y-25186D02*
X35882Y-25186D01*
X35764Y-25304D02*
X35764Y-25186D01*
X35754Y-25136D02*
X35843Y-25136D01*
X35843Y-25136D02*
X35843Y-25107D01*
X35754Y-25107D02*
X35843Y-25107D01*
X35754Y-25136D02*
X35754Y-25107D01*
G54D17*
X36226Y-25294D02*
X36226Y-25706D01*
X35774Y-25696D02*
X35774Y-25136D01*
G54D18*
X35851Y-25166D02*
G75*
G03X35851Y-25166I-28J0D01*
G74*
G01*
G54D17*
X35863Y-25107D02*
G75*
G03X36137Y-25107I137J0D01*
G74*
G01*
X36137Y-25893D02*
G75*
G03X35863Y-25893I-137J0D01*
G74*
G01*
G54D16*
X24382Y-25696D02*
X24254Y-25696D01*
X24254Y-25696D02*
X24254Y-25893D01*
X24382Y-25893D02*
X24254Y-25893D01*
X24382Y-25696D02*
X24382Y-25893D01*
X24627Y-25696D02*
X24568Y-25696D01*
X24568Y-25696D02*
X24568Y-25795D01*
X24627Y-25795D02*
X24568Y-25795D01*
X24627Y-25696D02*
X24627Y-25795D01*
X24432Y-25696D02*
X24373Y-25696D01*
X24373Y-25696D02*
X24373Y-25795D01*
X24432Y-25795D02*
X24373Y-25795D01*
X24432Y-25696D02*
X24432Y-25795D01*
X24578Y-25696D02*
X24422Y-25696D01*
X24422Y-25696D02*
X24422Y-25765D01*
X24578Y-25765D02*
X24422Y-25765D01*
X24578Y-25696D02*
X24578Y-25765D01*
X24382Y-25107D02*
X24254Y-25107D01*
X24254Y-25107D02*
X24254Y-25304D01*
X24382Y-25304D02*
X24254Y-25304D01*
X24382Y-25107D02*
X24382Y-25304D01*
X24746Y-25107D02*
X24618Y-25107D01*
X24618Y-25107D02*
X24618Y-25304D01*
X24746Y-25304D02*
X24618Y-25304D01*
X24746Y-25107D02*
X24746Y-25304D01*
X24432Y-25205D02*
X24373Y-25205D01*
X24373Y-25205D02*
X24373Y-25304D01*
X24432Y-25304D02*
X24373Y-25304D01*
X24432Y-25205D02*
X24432Y-25304D01*
X24627Y-25205D02*
X24568Y-25205D01*
X24568Y-25205D02*
X24568Y-25304D01*
X24627Y-25304D02*
X24568Y-25304D01*
X24627Y-25205D02*
X24627Y-25304D01*
X24578Y-25235D02*
X24422Y-25235D01*
X24422Y-25235D02*
X24422Y-25304D01*
X24578Y-25304D02*
X24422Y-25304D01*
X24578Y-25235D02*
X24578Y-25304D01*
X24539Y-25500D02*
X24461Y-25500D01*
X24461Y-25500D02*
X24461Y-25578D01*
X24539Y-25578D02*
X24461Y-25578D01*
X24539Y-25500D02*
X24539Y-25578D01*
X24736Y-25696D02*
X24618Y-25696D01*
X24618Y-25696D02*
X24618Y-25814D01*
X24736Y-25814D02*
X24618Y-25814D01*
X24736Y-25696D02*
X24736Y-25814D01*
X24746Y-25864D02*
X24657Y-25864D01*
X24657Y-25864D02*
X24657Y-25893D01*
X24746Y-25893D02*
X24657Y-25893D01*
X24746Y-25864D02*
X24746Y-25893D01*
G54D17*
X24274Y-25706D02*
X24274Y-25294D01*
X24726Y-25304D02*
X24726Y-25864D01*
G54D18*
X24705Y-25834D02*
G75*
G03X24705Y-25834I-28J0D01*
G74*
G01*
G54D17*
X24637Y-25893D02*
G75*
G03X24363Y-25893I-137J0D01*
G74*
G01*
X24363Y-25107D02*
G75*
G03X24637Y-25107I137J0D01*
G74*
G01*
G54D16*
X22382Y-25696D02*
X22254Y-25696D01*
X22254Y-25696D02*
X22254Y-25893D01*
X22382Y-25893D02*
X22254Y-25893D01*
X22382Y-25696D02*
X22382Y-25893D01*
X22627Y-25696D02*
X22568Y-25696D01*
X22568Y-25696D02*
X22568Y-25795D01*
X22627Y-25795D02*
X22568Y-25795D01*
X22627Y-25696D02*
X22627Y-25795D01*
X22432Y-25696D02*
X22373Y-25696D01*
X22373Y-25696D02*
X22373Y-25795D01*
X22432Y-25795D02*
X22373Y-25795D01*
X22432Y-25696D02*
X22432Y-25795D01*
X22578Y-25696D02*
X22422Y-25696D01*
X22422Y-25696D02*
X22422Y-25765D01*
X22578Y-25765D02*
X22422Y-25765D01*
X22578Y-25696D02*
X22578Y-25765D01*
X22382Y-25107D02*
X22254Y-25107D01*
X22254Y-25107D02*
X22254Y-25304D01*
X22382Y-25304D02*
X22254Y-25304D01*
X22382Y-25107D02*
X22382Y-25304D01*
X22746Y-25107D02*
X22618Y-25107D01*
X22618Y-25107D02*
X22618Y-25304D01*
X22746Y-25304D02*
X22618Y-25304D01*
X22746Y-25107D02*
X22746Y-25304D01*
X22432Y-25205D02*
X22373Y-25205D01*
X22373Y-25205D02*
X22373Y-25304D01*
X22432Y-25304D02*
X22373Y-25304D01*
X22432Y-25205D02*
X22432Y-25304D01*
X22627Y-25205D02*
X22568Y-25205D01*
X22568Y-25205D02*
X22568Y-25304D01*
X22627Y-25304D02*
X22568Y-25304D01*
X22627Y-25205D02*
X22627Y-25304D01*
X22578Y-25235D02*
X22422Y-25235D01*
X22422Y-25235D02*
X22422Y-25304D01*
X22578Y-25304D02*
X22422Y-25304D01*
X22578Y-25235D02*
X22578Y-25304D01*
X22539Y-25500D02*
X22461Y-25500D01*
X22461Y-25500D02*
X22461Y-25578D01*
X22539Y-25578D02*
X22461Y-25578D01*
X22539Y-25500D02*
X22539Y-25578D01*
X22736Y-25696D02*
X22618Y-25696D01*
X22618Y-25696D02*
X22618Y-25814D01*
X22736Y-25814D02*
X22618Y-25814D01*
X22736Y-25696D02*
X22736Y-25814D01*
X22746Y-25864D02*
X22657Y-25864D01*
X22657Y-25864D02*
X22657Y-25893D01*
X22746Y-25893D02*
X22657Y-25893D01*
X22746Y-25864D02*
X22746Y-25893D01*
G54D17*
X22274Y-25706D02*
X22274Y-25294D01*
X22726Y-25304D02*
X22726Y-25864D01*
G54D18*
X22705Y-25834D02*
G75*
G03X22705Y-25834I-28J0D01*
G74*
G01*
G54D17*
X22637Y-25893D02*
G75*
G03X22363Y-25893I-137J0D01*
G74*
G01*
X22363Y-25107D02*
G75*
G03X22637Y-25107I137J0D01*
G74*
G01*
G54D16*
X17132Y-20196D02*
X17004Y-20196D01*
X17004Y-20196D02*
X17004Y-20393D01*
X17132Y-20393D02*
X17004Y-20393D01*
X17132Y-20196D02*
X17132Y-20393D01*
X17377Y-20196D02*
X17318Y-20196D01*
X17318Y-20196D02*
X17318Y-20295D01*
X17377Y-20295D02*
X17318Y-20295D01*
X17377Y-20196D02*
X17377Y-20295D01*
X17182Y-20196D02*
X17123Y-20196D01*
X17123Y-20196D02*
X17123Y-20295D01*
X17182Y-20295D02*
X17123Y-20295D01*
X17182Y-20196D02*
X17182Y-20295D01*
X17328Y-20196D02*
X17172Y-20196D01*
X17172Y-20196D02*
X17172Y-20265D01*
X17328Y-20265D02*
X17172Y-20265D01*
X17328Y-20196D02*
X17328Y-20265D01*
X17132Y-19607D02*
X17004Y-19607D01*
X17004Y-19607D02*
X17004Y-19804D01*
X17132Y-19804D02*
X17004Y-19804D01*
X17132Y-19607D02*
X17132Y-19804D01*
X17496Y-19607D02*
X17368Y-19607D01*
X17368Y-19607D02*
X17368Y-19804D01*
X17496Y-19804D02*
X17368Y-19804D01*
X17496Y-19607D02*
X17496Y-19804D01*
X17182Y-19705D02*
X17123Y-19705D01*
X17123Y-19705D02*
X17123Y-19804D01*
X17182Y-19804D02*
X17123Y-19804D01*
X17182Y-19705D02*
X17182Y-19804D01*
X17377Y-19705D02*
X17318Y-19705D01*
X17318Y-19705D02*
X17318Y-19804D01*
X17377Y-19804D02*
X17318Y-19804D01*
X17377Y-19705D02*
X17377Y-19804D01*
X17328Y-19735D02*
X17172Y-19735D01*
X17172Y-19735D02*
X17172Y-19804D01*
X17328Y-19804D02*
X17172Y-19804D01*
X17328Y-19735D02*
X17328Y-19804D01*
X17289Y-20000D02*
X17211Y-20000D01*
X17211Y-20000D02*
X17211Y-20078D01*
X17289Y-20078D02*
X17211Y-20078D01*
X17289Y-20000D02*
X17289Y-20078D01*
X17486Y-20196D02*
X17368Y-20196D01*
X17368Y-20196D02*
X17368Y-20314D01*
X17486Y-20314D02*
X17368Y-20314D01*
X17486Y-20196D02*
X17486Y-20314D01*
X17496Y-20364D02*
X17407Y-20364D01*
X17407Y-20364D02*
X17407Y-20393D01*
X17496Y-20393D02*
X17407Y-20393D01*
X17496Y-20364D02*
X17496Y-20393D01*
G54D17*
X17024Y-20206D02*
X17024Y-19794D01*
X17476Y-19804D02*
X17476Y-20364D01*
G54D18*
X17455Y-20334D02*
G75*
G03X17455Y-20334I-28J0D01*
G74*
G01*
G54D17*
X17387Y-20393D02*
G75*
G03X17113Y-20393I-137J0D01*
G74*
G01*
X17113Y-19607D02*
G75*
G03X17387Y-19607I137J0D01*
G74*
G01*
G54D16*
X18618Y-25304D02*
X18746Y-25304D01*
X18746Y-25304D02*
X18746Y-25107D01*
X18618Y-25107D02*
X18746Y-25107D01*
X18618Y-25304D02*
X18618Y-25107D01*
X18373Y-25304D02*
X18432Y-25304D01*
X18432Y-25304D02*
X18432Y-25205D01*
X18373Y-25205D02*
X18432Y-25205D01*
X18373Y-25304D02*
X18373Y-25205D01*
X18568Y-25304D02*
X18627Y-25304D01*
X18627Y-25304D02*
X18627Y-25205D01*
X18568Y-25205D02*
X18627Y-25205D01*
X18568Y-25304D02*
X18568Y-25205D01*
X18422Y-25304D02*
X18578Y-25304D01*
X18578Y-25304D02*
X18578Y-25235D01*
X18422Y-25235D02*
X18578Y-25235D01*
X18422Y-25304D02*
X18422Y-25235D01*
X18618Y-25893D02*
X18746Y-25893D01*
X18746Y-25893D02*
X18746Y-25696D01*
X18618Y-25696D02*
X18746Y-25696D01*
X18618Y-25893D02*
X18618Y-25696D01*
X18254Y-25893D02*
X18382Y-25893D01*
X18382Y-25893D02*
X18382Y-25696D01*
X18254Y-25696D02*
X18382Y-25696D01*
X18254Y-25893D02*
X18254Y-25696D01*
X18568Y-25795D02*
X18627Y-25795D01*
X18627Y-25795D02*
X18627Y-25696D01*
X18568Y-25696D02*
X18627Y-25696D01*
X18568Y-25795D02*
X18568Y-25696D01*
X18373Y-25795D02*
X18432Y-25795D01*
X18432Y-25795D02*
X18432Y-25696D01*
X18373Y-25696D02*
X18432Y-25696D01*
X18373Y-25795D02*
X18373Y-25696D01*
X18422Y-25765D02*
X18578Y-25765D01*
X18578Y-25765D02*
X18578Y-25696D01*
X18422Y-25696D02*
X18578Y-25696D01*
X18422Y-25765D02*
X18422Y-25696D01*
X18461Y-25500D02*
X18539Y-25500D01*
X18539Y-25500D02*
X18539Y-25422D01*
X18461Y-25422D02*
X18539Y-25422D01*
X18461Y-25500D02*
X18461Y-25422D01*
X18264Y-25304D02*
X18382Y-25304D01*
X18382Y-25304D02*
X18382Y-25186D01*
X18264Y-25186D02*
X18382Y-25186D01*
X18264Y-25304D02*
X18264Y-25186D01*
X18254Y-25136D02*
X18343Y-25136D01*
X18343Y-25136D02*
X18343Y-25107D01*
X18254Y-25107D02*
X18343Y-25107D01*
X18254Y-25136D02*
X18254Y-25107D01*
G54D17*
X18726Y-25294D02*
X18726Y-25706D01*
X18274Y-25696D02*
X18274Y-25136D01*
G54D18*
X18351Y-25166D02*
G75*
G03X18351Y-25166I-28J0D01*
G74*
G01*
G54D17*
X18363Y-25107D02*
G75*
G03X18637Y-25107I137J0D01*
G74*
G01*
X18637Y-25893D02*
G75*
G03X18363Y-25893I-137J0D01*
G74*
G01*
G54D16*
X31882Y-25696D02*
X31754Y-25696D01*
X31754Y-25696D02*
X31754Y-25893D01*
X31882Y-25893D02*
X31754Y-25893D01*
X31882Y-25696D02*
X31882Y-25893D01*
X32127Y-25696D02*
X32068Y-25696D01*
X32068Y-25696D02*
X32068Y-25795D01*
X32127Y-25795D02*
X32068Y-25795D01*
X32127Y-25696D02*
X32127Y-25795D01*
X31932Y-25696D02*
X31873Y-25696D01*
X31873Y-25696D02*
X31873Y-25795D01*
X31932Y-25795D02*
X31873Y-25795D01*
X31932Y-25696D02*
X31932Y-25795D01*
X32078Y-25696D02*
X31922Y-25696D01*
X31922Y-25696D02*
X31922Y-25765D01*
X32078Y-25765D02*
X31922Y-25765D01*
X32078Y-25696D02*
X32078Y-25765D01*
X31882Y-25107D02*
X31754Y-25107D01*
X31754Y-25107D02*
X31754Y-25304D01*
X31882Y-25304D02*
X31754Y-25304D01*
X31882Y-25107D02*
X31882Y-25304D01*
X32246Y-25107D02*
X32118Y-25107D01*
X32118Y-25107D02*
X32118Y-25304D01*
X32246Y-25304D02*
X32118Y-25304D01*
X32246Y-25107D02*
X32246Y-25304D01*
X31932Y-25205D02*
X31873Y-25205D01*
X31873Y-25205D02*
X31873Y-25304D01*
X31932Y-25304D02*
X31873Y-25304D01*
X31932Y-25205D02*
X31932Y-25304D01*
X32127Y-25205D02*
X32068Y-25205D01*
X32068Y-25205D02*
X32068Y-25304D01*
X32127Y-25304D02*
X32068Y-25304D01*
X32127Y-25205D02*
X32127Y-25304D01*
X32078Y-25235D02*
X31922Y-25235D01*
X31922Y-25235D02*
X31922Y-25304D01*
X32078Y-25304D02*
X31922Y-25304D01*
X32078Y-25235D02*
X32078Y-25304D01*
X32039Y-25500D02*
X31961Y-25500D01*
X31961Y-25500D02*
X31961Y-25578D01*
X32039Y-25578D02*
X31961Y-25578D01*
X32039Y-25500D02*
X32039Y-25578D01*
X32236Y-25696D02*
X32118Y-25696D01*
X32118Y-25696D02*
X32118Y-25814D01*
X32236Y-25814D02*
X32118Y-25814D01*
X32236Y-25696D02*
X32236Y-25814D01*
X32246Y-25864D02*
X32157Y-25864D01*
X32157Y-25864D02*
X32157Y-25893D01*
X32246Y-25893D02*
X32157Y-25893D01*
X32246Y-25864D02*
X32246Y-25893D01*
G54D17*
X31774Y-25706D02*
X31774Y-25294D01*
X32226Y-25304D02*
X32226Y-25864D01*
G54D18*
X32205Y-25834D02*
G75*
G03X32205Y-25834I-28J0D01*
G74*
G01*
G54D17*
X32137Y-25893D02*
G75*
G03X31863Y-25893I-137J0D01*
G74*
G01*
X31863Y-25107D02*
G75*
G03X32137Y-25107I137J0D01*
G74*
G01*
G54D16*
X20382Y-25696D02*
X20254Y-25696D01*
X20254Y-25696D02*
X20254Y-25893D01*
X20382Y-25893D02*
X20254Y-25893D01*
X20382Y-25696D02*
X20382Y-25893D01*
X20627Y-25696D02*
X20568Y-25696D01*
X20568Y-25696D02*
X20568Y-25795D01*
X20627Y-25795D02*
X20568Y-25795D01*
X20627Y-25696D02*
X20627Y-25795D01*
X20432Y-25696D02*
X20373Y-25696D01*
X20373Y-25696D02*
X20373Y-25795D01*
X20432Y-25795D02*
X20373Y-25795D01*
X20432Y-25696D02*
X20432Y-25795D01*
X20578Y-25696D02*
X20422Y-25696D01*
X20422Y-25696D02*
X20422Y-25765D01*
X20578Y-25765D02*
X20422Y-25765D01*
X20578Y-25696D02*
X20578Y-25765D01*
X20382Y-25107D02*
X20254Y-25107D01*
X20254Y-25107D02*
X20254Y-25304D01*
X20382Y-25304D02*
X20254Y-25304D01*
X20382Y-25107D02*
X20382Y-25304D01*
X20746Y-25107D02*
X20618Y-25107D01*
X20618Y-25107D02*
X20618Y-25304D01*
X20746Y-25304D02*
X20618Y-25304D01*
X20746Y-25107D02*
X20746Y-25304D01*
X20432Y-25205D02*
X20373Y-25205D01*
X20373Y-25205D02*
X20373Y-25304D01*
X20432Y-25304D02*
X20373Y-25304D01*
X20432Y-25205D02*
X20432Y-25304D01*
X20627Y-25205D02*
X20568Y-25205D01*
X20568Y-25205D02*
X20568Y-25304D01*
X20627Y-25304D02*
X20568Y-25304D01*
X20627Y-25205D02*
X20627Y-25304D01*
X20578Y-25235D02*
X20422Y-25235D01*
X20422Y-25235D02*
X20422Y-25304D01*
X20578Y-25304D02*
X20422Y-25304D01*
X20578Y-25235D02*
X20578Y-25304D01*
X20539Y-25500D02*
X20461Y-25500D01*
X20461Y-25500D02*
X20461Y-25578D01*
X20539Y-25578D02*
X20461Y-25578D01*
X20539Y-25500D02*
X20539Y-25578D01*
X20736Y-25696D02*
X20618Y-25696D01*
X20618Y-25696D02*
X20618Y-25814D01*
X20736Y-25814D02*
X20618Y-25814D01*
X20736Y-25696D02*
X20736Y-25814D01*
X20746Y-25864D02*
X20657Y-25864D01*
X20657Y-25864D02*
X20657Y-25893D01*
X20746Y-25893D02*
X20657Y-25893D01*
X20746Y-25864D02*
X20746Y-25893D01*
G54D17*
X20274Y-25706D02*
X20274Y-25294D01*
X20726Y-25304D02*
X20726Y-25864D01*
G54D18*
X20705Y-25834D02*
G75*
G03X20705Y-25834I-28J0D01*
G74*
G01*
G54D17*
X20637Y-25893D02*
G75*
G03X20363Y-25893I-137J0D01*
G74*
G01*
X20363Y-25107D02*
G75*
G03X20637Y-25107I137J0D01*
G74*
G01*
G54D16*
X27882Y-25696D02*
X27754Y-25696D01*
X27754Y-25696D02*
X27754Y-25893D01*
X27882Y-25893D02*
X27754Y-25893D01*
X27882Y-25696D02*
X27882Y-25893D01*
X28127Y-25696D02*
X28068Y-25696D01*
X28068Y-25696D02*
X28068Y-25795D01*
X28127Y-25795D02*
X28068Y-25795D01*
X28127Y-25696D02*
X28127Y-25795D01*
X27932Y-25696D02*
X27873Y-25696D01*
X27873Y-25696D02*
X27873Y-25795D01*
X27932Y-25795D02*
X27873Y-25795D01*
X27932Y-25696D02*
X27932Y-25795D01*
X28078Y-25696D02*
X27922Y-25696D01*
X27922Y-25696D02*
X27922Y-25765D01*
X28078Y-25765D02*
X27922Y-25765D01*
X28078Y-25696D02*
X28078Y-25765D01*
X27882Y-25107D02*
X27754Y-25107D01*
X27754Y-25107D02*
X27754Y-25304D01*
X27882Y-25304D02*
X27754Y-25304D01*
X27882Y-25107D02*
X27882Y-25304D01*
X28246Y-25107D02*
X28118Y-25107D01*
X28118Y-25107D02*
X28118Y-25304D01*
X28246Y-25304D02*
X28118Y-25304D01*
X28246Y-25107D02*
X28246Y-25304D01*
X27932Y-25205D02*
X27873Y-25205D01*
X27873Y-25205D02*
X27873Y-25304D01*
X27932Y-25304D02*
X27873Y-25304D01*
X27932Y-25205D02*
X27932Y-25304D01*
X28127Y-25205D02*
X28068Y-25205D01*
X28068Y-25205D02*
X28068Y-25304D01*
X28127Y-25304D02*
X28068Y-25304D01*
X28127Y-25205D02*
X28127Y-25304D01*
X28078Y-25235D02*
X27922Y-25235D01*
X27922Y-25235D02*
X27922Y-25304D01*
X28078Y-25304D02*
X27922Y-25304D01*
X28078Y-25235D02*
X28078Y-25304D01*
X28039Y-25500D02*
X27961Y-25500D01*
X27961Y-25500D02*
X27961Y-25578D01*
X28039Y-25578D02*
X27961Y-25578D01*
X28039Y-25500D02*
X28039Y-25578D01*
X28236Y-25696D02*
X28118Y-25696D01*
X28118Y-25696D02*
X28118Y-25814D01*
X28236Y-25814D02*
X28118Y-25814D01*
X28236Y-25696D02*
X28236Y-25814D01*
X28246Y-25864D02*
X28157Y-25864D01*
X28157Y-25864D02*
X28157Y-25893D01*
X28246Y-25893D02*
X28157Y-25893D01*
X28246Y-25864D02*
X28246Y-25893D01*
G54D17*
X27774Y-25706D02*
X27774Y-25294D01*
X28226Y-25304D02*
X28226Y-25864D01*
G54D18*
X28205Y-25834D02*
G75*
G03X28205Y-25834I-28J0D01*
G74*
G01*
G54D17*
X28137Y-25893D02*
G75*
G03X27863Y-25893I-137J0D01*
G74*
G01*
X27863Y-25107D02*
G75*
G03X28137Y-25107I137J0D01*
G74*
G01*
G54D16*
X38118Y-25304D02*
X38246Y-25304D01*
X38246Y-25304D02*
X38246Y-25107D01*
X38118Y-25107D02*
X38246Y-25107D01*
X38118Y-25304D02*
X38118Y-25107D01*
X37873Y-25304D02*
X37932Y-25304D01*
X37932Y-25304D02*
X37932Y-25205D01*
X37873Y-25205D02*
X37932Y-25205D01*
X37873Y-25304D02*
X37873Y-25205D01*
X38068Y-25304D02*
X38127Y-25304D01*
X38127Y-25304D02*
X38127Y-25205D01*
X38068Y-25205D02*
X38127Y-25205D01*
X38068Y-25304D02*
X38068Y-25205D01*
X37922Y-25304D02*
X38078Y-25304D01*
X38078Y-25304D02*
X38078Y-25235D01*
X37922Y-25235D02*
X38078Y-25235D01*
X37922Y-25304D02*
X37922Y-25235D01*
X38118Y-25893D02*
X38246Y-25893D01*
X38246Y-25893D02*
X38246Y-25696D01*
X38118Y-25696D02*
X38246Y-25696D01*
X38118Y-25893D02*
X38118Y-25696D01*
X37754Y-25893D02*
X37882Y-25893D01*
X37882Y-25893D02*
X37882Y-25696D01*
X37754Y-25696D02*
X37882Y-25696D01*
X37754Y-25893D02*
X37754Y-25696D01*
X38068Y-25795D02*
X38127Y-25795D01*
X38127Y-25795D02*
X38127Y-25696D01*
X38068Y-25696D02*
X38127Y-25696D01*
X38068Y-25795D02*
X38068Y-25696D01*
X37873Y-25795D02*
X37932Y-25795D01*
X37932Y-25795D02*
X37932Y-25696D01*
X37873Y-25696D02*
X37932Y-25696D01*
X37873Y-25795D02*
X37873Y-25696D01*
X37922Y-25765D02*
X38078Y-25765D01*
X38078Y-25765D02*
X38078Y-25696D01*
X37922Y-25696D02*
X38078Y-25696D01*
X37922Y-25765D02*
X37922Y-25696D01*
X37961Y-25500D02*
X38039Y-25500D01*
X38039Y-25500D02*
X38039Y-25422D01*
X37961Y-25422D02*
X38039Y-25422D01*
X37961Y-25500D02*
X37961Y-25422D01*
X37764Y-25304D02*
X37882Y-25304D01*
X37882Y-25304D02*
X37882Y-25186D01*
X37764Y-25186D02*
X37882Y-25186D01*
X37764Y-25304D02*
X37764Y-25186D01*
X37754Y-25136D02*
X37843Y-25136D01*
X37843Y-25136D02*
X37843Y-25107D01*
X37754Y-25107D02*
X37843Y-25107D01*
X37754Y-25136D02*
X37754Y-25107D01*
G54D17*
X38226Y-25294D02*
X38226Y-25706D01*
X37774Y-25696D02*
X37774Y-25136D01*
G54D18*
X37851Y-25166D02*
G75*
G03X37851Y-25166I-28J0D01*
G74*
G01*
G54D17*
X37863Y-25107D02*
G75*
G03X38137Y-25107I137J0D01*
G74*
G01*
X38137Y-25893D02*
G75*
G03X37863Y-25893I-137J0D01*
G74*
G01*
G54D16*
X33882Y-25696D02*
X33754Y-25696D01*
X33754Y-25696D02*
X33754Y-25893D01*
X33882Y-25893D02*
X33754Y-25893D01*
X33882Y-25696D02*
X33882Y-25893D01*
X34127Y-25696D02*
X34068Y-25696D01*
X34068Y-25696D02*
X34068Y-25795D01*
X34127Y-25795D02*
X34068Y-25795D01*
X34127Y-25696D02*
X34127Y-25795D01*
X33932Y-25696D02*
X33873Y-25696D01*
X33873Y-25696D02*
X33873Y-25795D01*
X33932Y-25795D02*
X33873Y-25795D01*
X33932Y-25696D02*
X33932Y-25795D01*
X34078Y-25696D02*
X33922Y-25696D01*
X33922Y-25696D02*
X33922Y-25765D01*
X34078Y-25765D02*
X33922Y-25765D01*
X34078Y-25696D02*
X34078Y-25765D01*
X33882Y-25107D02*
X33754Y-25107D01*
X33754Y-25107D02*
X33754Y-25304D01*
X33882Y-25304D02*
X33754Y-25304D01*
X33882Y-25107D02*
X33882Y-25304D01*
X34246Y-25107D02*
X34118Y-25107D01*
X34118Y-25107D02*
X34118Y-25304D01*
X34246Y-25304D02*
X34118Y-25304D01*
X34246Y-25107D02*
X34246Y-25304D01*
X33932Y-25205D02*
X33873Y-25205D01*
X33873Y-25205D02*
X33873Y-25304D01*
X33932Y-25304D02*
X33873Y-25304D01*
X33932Y-25205D02*
X33932Y-25304D01*
X34127Y-25205D02*
X34068Y-25205D01*
X34068Y-25205D02*
X34068Y-25304D01*
X34127Y-25304D02*
X34068Y-25304D01*
X34127Y-25205D02*
X34127Y-25304D01*
X34078Y-25235D02*
X33922Y-25235D01*
X33922Y-25235D02*
X33922Y-25304D01*
X34078Y-25304D02*
X33922Y-25304D01*
X34078Y-25235D02*
X34078Y-25304D01*
X34039Y-25500D02*
X33961Y-25500D01*
X33961Y-25500D02*
X33961Y-25578D01*
X34039Y-25578D02*
X33961Y-25578D01*
X34039Y-25500D02*
X34039Y-25578D01*
X34236Y-25696D02*
X34118Y-25696D01*
X34118Y-25696D02*
X34118Y-25814D01*
X34236Y-25814D02*
X34118Y-25814D01*
X34236Y-25696D02*
X34236Y-25814D01*
X34246Y-25864D02*
X34157Y-25864D01*
X34157Y-25864D02*
X34157Y-25893D01*
X34246Y-25893D02*
X34157Y-25893D01*
X34246Y-25864D02*
X34246Y-25893D01*
G54D17*
X33774Y-25706D02*
X33774Y-25294D01*
X34226Y-25304D02*
X34226Y-25864D01*
G54D18*
X34205Y-25834D02*
G75*
G03X34205Y-25834I-28J0D01*
G74*
G01*
G54D17*
X34137Y-25893D02*
G75*
G03X33863Y-25893I-137J0D01*
G74*
G01*
X33863Y-25107D02*
G75*
G03X34137Y-25107I137J0D01*
G74*
G01*
G54D19*
X32200Y-6950D02*
X32200Y-6650D01*
X32200Y-6650D02*
X28800Y-6650D01*
X28800Y-6650D02*
X28800Y-6950D01*
X32200Y-8150D02*
X28800Y-8150D01*
X32200Y-11950D02*
X28800Y-11950D01*
X28800Y-6950D02*
X28800Y-11950D01*
X32200Y-6950D02*
X32200Y-11950D01*
X21256Y-20520D02*
X20862Y-20106D01*
X20862Y-20106D02*
X20862Y-20894D01*
X20862Y-20894D02*
X21256Y-20500D01*
X21256Y-20087D02*
X21256Y-20913D01*
G54D13*
X34740Y-9985D02*
X34940Y-9985D01*
X34940Y-9985D02*
X34940Y-9515D01*
X34740Y-9985D02*
X34740Y-9515D01*
X34150Y-9985D02*
X34150Y-9515D01*
X34350Y-9985D02*
X34350Y-9515D01*
X34150Y-9985D02*
X34350Y-9985D01*
X33560Y-9985D02*
X33760Y-9985D01*
X33760Y-9985D02*
X33760Y-9515D01*
X33560Y-9985D02*
X33560Y-9515D01*
X33895Y-8290D02*
X34605Y-8290D01*
X34605Y-8290D02*
X34605Y-8485D01*
X33895Y-8290D02*
X33895Y-8485D01*
X33345Y-9515D02*
X33345Y-8485D01*
X33345Y-8485D02*
X35155Y-8485D01*
X35155Y-8485D02*
X35155Y-9515D01*
X35155Y-9515D02*
X33345Y-9515D01*
G54D20*
X35275Y-19112D02*
G75*
G03X35275Y-19112I-62J0D01*
G74*
G01*
X34250Y-19450D02*
X34250Y-19050D01*
X35275Y-19450D02*
X35275Y-19050D01*
X34250Y-19050D02*
X35275Y-19050D01*
X35275Y-19450D02*
X34250Y-19450D01*
X31775Y-19112D02*
G75*
G03X31775Y-19112I-62J0D01*
G74*
G01*
X30750Y-19450D02*
X30750Y-19050D01*
X31775Y-19450D02*
X31775Y-19050D01*
X30750Y-19050D02*
X31775Y-19050D01*
X31775Y-19450D02*
X30750Y-19450D01*
X37025Y-19112D02*
G75*
G03X37025Y-19112I-62J0D01*
G74*
G01*
X36000Y-19450D02*
X36000Y-19050D01*
X37025Y-19450D02*
X37025Y-19050D01*
X36000Y-19050D02*
X37025Y-19050D01*
X37025Y-19450D02*
X36000Y-19450D01*
X33525Y-19112D02*
G75*
G03X33525Y-19112I-62J0D01*
G74*
G01*
X32500Y-19450D02*
X32500Y-19050D01*
X33525Y-19450D02*
X33525Y-19050D01*
X32500Y-19050D02*
X33525Y-19050D01*
X33525Y-19450D02*
X32500Y-19450D01*
X27025Y-18862D02*
G75*
G03X27025Y-18862I-62J0D01*
G74*
G01*
X26000Y-19200D02*
X26000Y-18800D01*
X27025Y-19200D02*
X27025Y-18800D01*
X26000Y-18800D02*
X27025Y-18800D01*
X27025Y-19200D02*
X26000Y-19200D01*
G54D19*
X39000Y-22500D02*
X19000Y-22500D01*
X19000Y-15500D02*
X39000Y-15500D01*
X19000Y-14500D02*
X39000Y-14500D01*
X39000Y-14500D02*
X39000Y-23500D01*
X39000Y-23500D02*
X19000Y-23500D01*
X19000Y-23500D02*
X19000Y-14500D01*
X33520Y-10994D02*
X33106Y-11388D01*
X33106Y-11388D02*
X33894Y-11388D01*
X33894Y-11388D02*
X33500Y-10994D01*
X33087Y-10994D02*
X33913Y-10994D01*
G54D21*
X19142Y-9450D02*
X19571Y-9450D01*
X19657Y-9478D01*
X19714Y-9535D01*
X19742Y-9621D01*
X19742Y-9678D01*
X19742Y-8850D02*
X19742Y-9192D01*
X19742Y-9021D02*
X19142Y-9021D01*
X19228Y-9078D01*
X19285Y-9135D01*
X19314Y-9192D01*
X21642Y-10592D02*
X22128Y-10592D01*
X22185Y-10564D01*
X22214Y-10535D01*
X22242Y-10478D01*
X22242Y-10364D01*
X22214Y-10307D01*
X22185Y-10278D01*
X22128Y-10250D01*
X21642Y-10250D01*
X22214Y-9992D02*
X22242Y-9907D01*
X22242Y-9764D01*
X22214Y-9707D01*
X22185Y-9678D01*
X22128Y-9650D01*
X22071Y-9650D01*
X22014Y-9678D01*
X21985Y-9707D01*
X21957Y-9764D01*
X21928Y-9878D01*
X21900Y-9935D01*
X21871Y-9964D01*
X21814Y-9992D01*
X21757Y-9992D01*
X21700Y-9964D01*
X21671Y-9935D01*
X21642Y-9878D01*
X21642Y-9735D01*
X21671Y-9650D01*
X21928Y-9192D02*
X21957Y-9107D01*
X21985Y-9078D01*
X22042Y-9050D01*
X22128Y-9050D01*
X22185Y-9078D01*
X22214Y-9107D01*
X22242Y-9164D01*
X22242Y-9392D01*
X21642Y-9392D01*
X21642Y-9192D01*
X21671Y-9135D01*
X21700Y-9107D01*
X21757Y-9078D01*
X21814Y-9078D01*
X21871Y-9107D01*
X21900Y-9135D01*
X21928Y-9192D01*
X21928Y-9392D01*
X21642Y-8621D02*
X22071Y-8621D01*
X22157Y-8650D01*
X22214Y-8707D01*
X22242Y-8792D01*
X22242Y-8850D01*
X22071Y-8364D02*
X22071Y-8078D01*
X22242Y-8421D02*
X21642Y-8221D01*
X22242Y-8021D01*
X22185Y-7478D02*
X22214Y-7507D01*
X22242Y-7592D01*
X22242Y-7649D01*
X22214Y-7735D01*
X22157Y-7792D01*
X22100Y-7821D01*
X21985Y-7849D01*
X21900Y-7849D01*
X21785Y-7821D01*
X21728Y-7792D01*
X21671Y-7735D01*
X21642Y-7649D01*
X21642Y-7592D01*
X21671Y-7507D01*
X21700Y-7478D01*
X22242Y-7221D02*
X21642Y-7221D01*
X22242Y-6878D02*
X21900Y-7135D01*
X21642Y-6878D02*
X21985Y-7221D01*
G54D14*
X36445Y-9461D02*
X36445Y-9785D01*
X36464Y-9823D01*
X36483Y-9842D01*
X36521Y-9861D01*
X36597Y-9861D01*
X36635Y-9842D01*
X36654Y-9823D01*
X36673Y-9785D01*
X36673Y-9461D01*
X36845Y-9500D02*
X36864Y-9480D01*
X36902Y-9461D01*
X36997Y-9461D01*
X37035Y-9480D01*
X37054Y-9500D01*
X37073Y-9538D01*
X37073Y-9576D01*
X37054Y-9633D01*
X36826Y-9861D01*
X37073Y-9861D01*
X34207Y-10461D02*
X34207Y-10061D01*
X34435Y-10461D01*
X34435Y-10061D01*
X34854Y-10423D02*
X34835Y-10442D01*
X34778Y-10461D01*
X34740Y-10461D01*
X34683Y-10442D01*
X34645Y-10404D01*
X34626Y-10366D01*
X34607Y-10290D01*
X34607Y-10233D01*
X34626Y-10157D01*
X34645Y-10119D01*
X34683Y-10080D01*
X34740Y-10061D01*
X34778Y-10061D01*
X34835Y-10080D01*
X34854Y-10100D01*
X35026Y-10461D02*
X35026Y-10061D01*
X35178Y-10061D01*
X35216Y-10080D01*
X35235Y-10100D01*
X35254Y-10138D01*
X35254Y-10195D01*
X35235Y-10233D01*
X35216Y-10252D01*
X35178Y-10271D01*
X35026Y-10271D01*
X35635Y-10461D02*
X35407Y-10461D01*
X35521Y-10461D02*
X35521Y-10061D01*
X35483Y-10119D01*
X35445Y-10157D01*
X35407Y-10176D01*
X36016Y-10461D02*
X35788Y-10461D01*
X35902Y-10461D02*
X35902Y-10061D01*
X35864Y-10119D01*
X35826Y-10157D01*
X35788Y-10176D01*
X36397Y-10461D02*
X36169Y-10461D01*
X36283Y-10461D02*
X36283Y-10061D01*
X36245Y-10119D01*
X36207Y-10157D01*
X36169Y-10176D01*
X36530Y-10061D02*
X36797Y-10061D01*
X36626Y-10461D01*
X36930Y-10442D02*
X36988Y-10461D01*
X37083Y-10461D01*
X37121Y-10442D01*
X37140Y-10423D01*
X37159Y-10385D01*
X37159Y-10347D01*
X37140Y-10309D01*
X37121Y-10290D01*
X37083Y-10271D01*
X37007Y-10252D01*
X36969Y-10233D01*
X36950Y-10214D01*
X36930Y-10176D01*
X36930Y-10138D01*
X36950Y-10100D01*
X36969Y-10080D01*
X37007Y-10061D01*
X37102Y-10061D01*
X37159Y-10080D01*
X37273Y-10061D02*
X37502Y-10061D01*
X37388Y-10461D02*
X37388Y-10061D01*
X37597Y-10061D02*
X37845Y-10061D01*
X37711Y-10214D01*
X37769Y-10214D01*
X37807Y-10233D01*
X37826Y-10252D01*
X37845Y-10290D01*
X37845Y-10385D01*
X37826Y-10423D01*
X37807Y-10442D01*
X37769Y-10461D01*
X37654Y-10461D01*
X37616Y-10442D01*
X37597Y-10423D01*
X37978Y-10061D02*
X38226Y-10061D01*
X38092Y-10214D01*
X38150Y-10214D01*
X38188Y-10233D01*
X38207Y-10252D01*
X38226Y-10290D01*
X38226Y-10385D01*
X38207Y-10423D01*
X38188Y-10442D01*
X38150Y-10461D01*
X38035Y-10461D01*
X37997Y-10442D01*
X37978Y-10423D01*
X38340Y-10061D02*
X38569Y-10061D01*
X38454Y-10461D02*
X38454Y-10061D01*
X38664Y-10061D02*
X38911Y-10061D01*
X38778Y-10214D01*
X38835Y-10214D01*
X38873Y-10233D01*
X38892Y-10252D01*
X38911Y-10290D01*
X38911Y-10385D01*
X38892Y-10423D01*
X38873Y-10442D01*
X38835Y-10461D01*
X38721Y-10461D01*
X38683Y-10442D01*
X38664Y-10423D01*
X39292Y-10080D02*
X39254Y-10061D01*
X39197Y-10061D01*
X39140Y-10080D01*
X39102Y-10119D01*
X39083Y-10157D01*
X39064Y-10233D01*
X39064Y-10290D01*
X39083Y-10366D01*
X39102Y-10404D01*
X39140Y-10442D01*
X39197Y-10461D01*
X39235Y-10461D01*
X39292Y-10442D01*
X39311Y-10423D01*
X39311Y-10290D01*
X39235Y-10290D01*
G54D21*
X24057Y-17492D02*
X24057Y-16892D01*
X24200Y-16892D01*
X24285Y-16921D01*
X24342Y-16978D01*
X24371Y-17035D01*
X24400Y-17150D01*
X24400Y-17235D01*
X24371Y-17350D01*
X24342Y-17407D01*
X24285Y-17464D01*
X24200Y-17492D01*
X24057Y-17492D01*
X24685Y-17492D02*
X24800Y-17492D01*
X24857Y-17464D01*
X24885Y-17435D01*
X24942Y-17350D01*
X24971Y-17235D01*
X24971Y-17007D01*
X24942Y-16950D01*
X24914Y-16921D01*
X24857Y-16892D01*
X24742Y-16892D01*
X24685Y-16921D01*
X24657Y-16950D01*
X24628Y-17007D01*
X24628Y-17150D01*
X24657Y-17207D01*
X24685Y-17235D01*
X24742Y-17264D01*
X24857Y-17264D01*
X24914Y-17235D01*
X24942Y-17207D01*
X24971Y-17150D01*
X24858Y-16855D02*
X24744Y-16855D01*
X24686Y-16884D01*
X24658Y-16913D01*
X24601Y-16998D01*
X24572Y-17113D01*
X24572Y-17341D01*
X24601Y-17398D01*
X24629Y-17427D01*
X24686Y-17455D01*
X24801Y-17455D01*
X24858Y-17427D01*
X24886Y-17398D01*
X24915Y-17341D01*
X24915Y-17198D01*
X24886Y-17141D01*
X24858Y-17113D01*
X24801Y-17084D01*
X24686Y-17084D01*
X24629Y-17113D01*
X24601Y-17141D01*
X24572Y-17198D01*
X25087Y-16855D02*
X25287Y-17455D01*
X25487Y-16855D01*
X25658Y-16913D02*
X25687Y-16884D01*
X25744Y-16855D01*
X25887Y-16855D01*
X25944Y-16884D01*
X25972Y-16913D01*
X26001Y-16970D01*
X26001Y-17027D01*
X25972Y-17113D01*
X25629Y-17455D01*
X26001Y-17455D01*
X28057Y-20492D02*
X28057Y-19892D01*
X28200Y-19892D01*
X28285Y-19921D01*
X28342Y-19978D01*
X28371Y-20035D01*
X28400Y-20150D01*
X28400Y-20235D01*
X28371Y-20350D01*
X28342Y-20407D01*
X28285Y-20464D01*
X28200Y-20492D01*
X28057Y-20492D01*
X28742Y-20150D02*
X28685Y-20121D01*
X28657Y-20092D01*
X28628Y-20035D01*
X28628Y-20007D01*
X28657Y-19950D01*
X28685Y-19921D01*
X28742Y-19892D01*
X28857Y-19892D01*
X28914Y-19921D01*
X28942Y-19950D01*
X28971Y-20007D01*
X28971Y-20035D01*
X28942Y-20092D01*
X28914Y-20121D01*
X28857Y-20150D01*
X28742Y-20150D01*
X28685Y-20178D01*
X28657Y-20207D01*
X28628Y-20264D01*
X28628Y-20378D01*
X28657Y-20435D01*
X28685Y-20464D01*
X28742Y-20492D01*
X28857Y-20492D01*
X28914Y-20464D01*
X28942Y-20435D01*
X28971Y-20378D01*
X28971Y-20264D01*
X28942Y-20207D01*
X28914Y-20178D01*
X28857Y-20150D01*
X27784Y-19929D02*
X27670Y-19929D01*
X27612Y-19958D01*
X27584Y-19987D01*
X27527Y-20072D01*
X27498Y-20187D01*
X27498Y-20415D01*
X27527Y-20472D01*
X27555Y-20501D01*
X27612Y-20529D01*
X27727Y-20529D01*
X27784Y-20501D01*
X27812Y-20472D01*
X27841Y-20415D01*
X27841Y-20272D01*
X27812Y-20215D01*
X27784Y-20187D01*
X27727Y-20158D01*
X27612Y-20158D01*
X27555Y-20187D01*
X27527Y-20215D01*
X27498Y-20272D01*
X28013Y-19929D02*
X28213Y-20529D01*
X28413Y-19929D01*
X28584Y-19987D02*
X28613Y-19958D01*
X28670Y-19929D01*
X28813Y-19929D01*
X28870Y-19958D01*
X28898Y-19987D01*
X28927Y-20044D01*
X28927Y-20101D01*
X28898Y-20187D01*
X28555Y-20529D01*
X28927Y-20529D01*
G54D22*
X35967Y-16579D02*
X35901Y-16485D01*
X35854Y-16579D02*
X35854Y-16382D01*
X35929Y-16382D01*
X35948Y-16392D01*
X35957Y-16401D01*
X35967Y-16420D01*
X35967Y-16448D01*
X35957Y-16467D01*
X35948Y-16476D01*
X35929Y-16485D01*
X35854Y-16485D01*
X36032Y-16382D02*
X36154Y-16382D01*
X36089Y-16457D01*
X36117Y-16457D01*
X36136Y-16467D01*
X36145Y-16476D01*
X36154Y-16495D01*
X36154Y-16542D01*
X36145Y-16560D01*
X36136Y-16570D01*
X36117Y-16579D01*
X36060Y-16579D01*
X36042Y-16570D01*
X36032Y-16560D01*
X36382Y-16229D02*
X36270Y-16229D01*
X36326Y-16229D02*
X36326Y-16032D01*
X36307Y-16060D01*
X36288Y-16079D01*
X36270Y-16089D01*
X36504Y-16032D02*
X36523Y-16032D01*
X36542Y-16042D01*
X36551Y-16051D01*
X36560Y-16070D01*
X36570Y-16107D01*
X36570Y-16154D01*
X36560Y-16192D01*
X36551Y-16210D01*
X36542Y-16220D01*
X36523Y-16229D01*
X36504Y-16229D01*
X36485Y-16220D01*
X36476Y-16210D01*
X36467Y-16192D01*
X36457Y-16154D01*
X36457Y-16107D01*
X36467Y-16070D01*
X36476Y-16051D01*
X36485Y-16042D01*
X36504Y-16032D01*
X36654Y-16229D02*
X36654Y-16032D01*
X36673Y-16154D02*
X36729Y-16229D01*
X36729Y-16098D02*
X36654Y-16173D01*
X20373Y-17329D02*
X20307Y-17235D01*
X20260Y-17329D02*
X20260Y-17132D01*
X20335Y-17132D01*
X20354Y-17142D01*
X20363Y-17151D01*
X20373Y-17170D01*
X20373Y-17198D01*
X20363Y-17217D01*
X20354Y-17226D01*
X20335Y-17235D01*
X20260Y-17235D01*
X20560Y-17329D02*
X20448Y-17329D01*
X20504Y-17329D02*
X20504Y-17132D01*
X20485Y-17160D01*
X20467Y-17179D01*
X20448Y-17189D01*
X20626Y-17132D02*
X20757Y-17132D01*
X20673Y-17329D01*
X20729Y-16367D02*
X20729Y-16479D01*
X20729Y-16423D02*
X20532Y-16423D01*
X20560Y-16442D01*
X20579Y-16461D01*
X20589Y-16479D01*
X20532Y-16245D02*
X20532Y-16226D01*
X20542Y-16207D01*
X20551Y-16198D01*
X20570Y-16189D01*
X20607Y-16179D01*
X20654Y-16179D01*
X20692Y-16189D01*
X20710Y-16198D01*
X20720Y-16207D01*
X20729Y-16226D01*
X20729Y-16245D01*
X20720Y-16264D01*
X20710Y-16273D01*
X20692Y-16282D01*
X20654Y-16292D01*
X20607Y-16292D01*
X20570Y-16282D01*
X20551Y-16273D01*
X20542Y-16264D01*
X20532Y-16245D01*
X20729Y-16095D02*
X20532Y-16095D01*
X20654Y-16076D02*
X20729Y-16020D01*
X20598Y-16020D02*
X20673Y-16095D01*
X19079Y-17626D02*
X18985Y-17692D01*
X19079Y-17739D02*
X18882Y-17739D01*
X18882Y-17664D01*
X18892Y-17645D01*
X18901Y-17636D01*
X18920Y-17626D01*
X18948Y-17626D01*
X18967Y-17636D01*
X18976Y-17645D01*
X18985Y-17664D01*
X18985Y-17739D01*
X18882Y-17560D02*
X18882Y-17439D01*
X18957Y-17504D01*
X18957Y-17476D01*
X18967Y-17457D01*
X18976Y-17448D01*
X18995Y-17439D01*
X19042Y-17439D01*
X19060Y-17448D01*
X19070Y-17457D01*
X19079Y-17476D01*
X19079Y-17532D01*
X19070Y-17551D01*
X19060Y-17560D01*
X18882Y-17373D02*
X18882Y-17251D01*
X18957Y-17317D01*
X18957Y-17288D01*
X18967Y-17270D01*
X18976Y-17260D01*
X18995Y-17251D01*
X19042Y-17251D01*
X19060Y-17260D01*
X19070Y-17270D01*
X19079Y-17288D01*
X19079Y-17345D01*
X19070Y-17363D01*
X19060Y-17373D01*
X18048Y-17636D02*
X18179Y-17636D01*
X17973Y-17682D02*
X18114Y-17729D01*
X18114Y-17607D01*
X18179Y-17532D02*
X17982Y-17532D01*
X18104Y-17514D02*
X18179Y-17457D01*
X18048Y-17457D02*
X18123Y-17532D01*
X17982Y-17392D02*
X17982Y-17260D01*
X18179Y-17345D01*
X24329Y-13626D02*
X24235Y-13692D01*
X24329Y-13739D02*
X24132Y-13739D01*
X24132Y-13664D01*
X24142Y-13645D01*
X24151Y-13636D01*
X24170Y-13626D01*
X24198Y-13626D01*
X24217Y-13636D01*
X24226Y-13645D01*
X24235Y-13664D01*
X24235Y-13739D01*
X24132Y-13560D02*
X24132Y-13439D01*
X24207Y-13504D01*
X24207Y-13476D01*
X24217Y-13457D01*
X24226Y-13448D01*
X24245Y-13439D01*
X24292Y-13439D01*
X24310Y-13448D01*
X24320Y-13457D01*
X24329Y-13476D01*
X24329Y-13532D01*
X24320Y-13551D01*
X24310Y-13560D01*
X24132Y-13317D02*
X24132Y-13298D01*
X24142Y-13279D01*
X24151Y-13270D01*
X24170Y-13260D01*
X24207Y-13251D01*
X24254Y-13251D01*
X24292Y-13260D01*
X24310Y-13270D01*
X24320Y-13279D01*
X24329Y-13298D01*
X24329Y-13317D01*
X24320Y-13335D01*
X24310Y-13345D01*
X24292Y-13354D01*
X24254Y-13363D01*
X24207Y-13363D01*
X24170Y-13354D01*
X24151Y-13345D01*
X24142Y-13335D01*
X24132Y-13317D01*
X23429Y-13617D02*
X23429Y-13729D01*
X23429Y-13673D02*
X23232Y-13673D01*
X23260Y-13692D01*
X23279Y-13711D01*
X23289Y-13729D01*
X23232Y-13495D02*
X23232Y-13476D01*
X23242Y-13457D01*
X23251Y-13448D01*
X23270Y-13439D01*
X23307Y-13429D01*
X23354Y-13429D01*
X23392Y-13439D01*
X23410Y-13448D01*
X23420Y-13457D01*
X23429Y-13476D01*
X23429Y-13495D01*
X23420Y-13514D01*
X23410Y-13523D01*
X23392Y-13532D01*
X23354Y-13542D01*
X23307Y-13542D01*
X23270Y-13532D01*
X23251Y-13523D01*
X23242Y-13514D01*
X23232Y-13495D01*
X23429Y-13345D02*
X23232Y-13345D01*
X23354Y-13326D02*
X23429Y-13270D01*
X23298Y-13270D02*
X23373Y-13345D01*
X21829Y-13626D02*
X21735Y-13692D01*
X21829Y-13739D02*
X21632Y-13739D01*
X21632Y-13664D01*
X21642Y-13645D01*
X21651Y-13636D01*
X21670Y-13626D01*
X21698Y-13626D01*
X21717Y-13636D01*
X21726Y-13645D01*
X21735Y-13664D01*
X21735Y-13739D01*
X21651Y-13551D02*
X21642Y-13542D01*
X21632Y-13523D01*
X21632Y-13476D01*
X21642Y-13457D01*
X21651Y-13448D01*
X21670Y-13439D01*
X21689Y-13439D01*
X21717Y-13448D01*
X21829Y-13560D01*
X21829Y-13439D01*
X21829Y-13345D02*
X21829Y-13307D01*
X21820Y-13288D01*
X21810Y-13279D01*
X21782Y-13260D01*
X21745Y-13251D01*
X21670Y-13251D01*
X21651Y-13260D01*
X21642Y-13270D01*
X21632Y-13288D01*
X21632Y-13326D01*
X21642Y-13345D01*
X21651Y-13354D01*
X21670Y-13363D01*
X21717Y-13363D01*
X21735Y-13354D01*
X21745Y-13345D01*
X21754Y-13326D01*
X21754Y-13288D01*
X21745Y-13270D01*
X21735Y-13260D01*
X21717Y-13251D01*
X22429Y-13617D02*
X22429Y-13729D01*
X22429Y-13673D02*
X22232Y-13673D01*
X22260Y-13692D01*
X22279Y-13711D01*
X22289Y-13729D01*
X22232Y-13495D02*
X22232Y-13476D01*
X22242Y-13457D01*
X22251Y-13448D01*
X22270Y-13439D01*
X22307Y-13429D01*
X22354Y-13429D01*
X22392Y-13439D01*
X22410Y-13448D01*
X22420Y-13457D01*
X22429Y-13476D01*
X22429Y-13495D01*
X22420Y-13514D01*
X22410Y-13523D01*
X22392Y-13532D01*
X22354Y-13542D01*
X22307Y-13542D01*
X22270Y-13532D01*
X22251Y-13523D01*
X22242Y-13514D01*
X22232Y-13495D01*
X22429Y-13345D02*
X22232Y-13345D01*
X22354Y-13326D02*
X22429Y-13270D01*
X22298Y-13270D02*
X22373Y-13345D01*
X37810Y-12532D02*
X37820Y-12542D01*
X37829Y-12570D01*
X37829Y-12589D01*
X37820Y-12617D01*
X37801Y-12636D01*
X37782Y-12645D01*
X37745Y-12654D01*
X37717Y-12654D01*
X37679Y-12645D01*
X37660Y-12636D01*
X37642Y-12617D01*
X37632Y-12589D01*
X37632Y-12570D01*
X37642Y-12542D01*
X37651Y-12532D01*
X37651Y-12457D02*
X37642Y-12448D01*
X37632Y-12429D01*
X37632Y-12382D01*
X37642Y-12363D01*
X37651Y-12354D01*
X37670Y-12345D01*
X37689Y-12345D01*
X37717Y-12354D01*
X37829Y-12467D01*
X37829Y-12345D01*
X36623Y-12729D02*
X36510Y-12729D01*
X36567Y-12729D02*
X36567Y-12532D01*
X36548Y-12560D01*
X36529Y-12579D01*
X36510Y-12589D01*
X36745Y-12532D02*
X36764Y-12532D01*
X36782Y-12542D01*
X36792Y-12551D01*
X36801Y-12570D01*
X36810Y-12607D01*
X36810Y-12654D01*
X36801Y-12692D01*
X36792Y-12710D01*
X36782Y-12720D01*
X36764Y-12729D01*
X36745Y-12729D01*
X36726Y-12720D01*
X36717Y-12710D01*
X36707Y-12692D01*
X36698Y-12654D01*
X36698Y-12607D01*
X36707Y-12570D01*
X36717Y-12551D01*
X36726Y-12542D01*
X36745Y-12532D01*
X36979Y-12598D02*
X36979Y-12729D01*
X36895Y-12598D02*
X36895Y-12701D01*
X36904Y-12720D01*
X36923Y-12729D01*
X36951Y-12729D01*
X36970Y-12720D01*
X36979Y-12710D01*
X24717Y-20579D02*
X24651Y-20485D01*
X24604Y-20579D02*
X24604Y-20382D01*
X24679Y-20382D01*
X24698Y-20392D01*
X24707Y-20401D01*
X24717Y-20420D01*
X24717Y-20448D01*
X24707Y-20467D01*
X24698Y-20476D01*
X24679Y-20485D01*
X24604Y-20485D01*
X24792Y-20401D02*
X24801Y-20392D01*
X24820Y-20382D01*
X24867Y-20382D01*
X24886Y-20392D01*
X24895Y-20401D01*
X24904Y-20420D01*
X24904Y-20439D01*
X24895Y-20467D01*
X24782Y-20579D01*
X24904Y-20579D01*
X24726Y-19929D02*
X24613Y-19929D01*
X24670Y-19929D02*
X24670Y-19732D01*
X24651Y-19760D01*
X24632Y-19779D01*
X24613Y-19789D01*
X24810Y-19929D02*
X24810Y-19732D01*
X24829Y-19854D02*
X24886Y-19929D01*
X24886Y-19798D02*
X24810Y-19873D01*
X27717Y-16579D02*
X27651Y-16485D01*
X27604Y-16579D02*
X27604Y-16382D01*
X27679Y-16382D01*
X27698Y-16392D01*
X27707Y-16401D01*
X27717Y-16420D01*
X27717Y-16448D01*
X27707Y-16467D01*
X27698Y-16476D01*
X27679Y-16485D01*
X27604Y-16485D01*
X27886Y-16382D02*
X27848Y-16382D01*
X27829Y-16392D01*
X27820Y-16401D01*
X27801Y-16429D01*
X27792Y-16467D01*
X27792Y-16542D01*
X27801Y-16560D01*
X27810Y-16570D01*
X27829Y-16579D01*
X27867Y-16579D01*
X27886Y-16570D01*
X27895Y-16560D01*
X27904Y-16542D01*
X27904Y-16495D01*
X27895Y-16476D01*
X27886Y-16467D01*
X27867Y-16457D01*
X27829Y-16457D01*
X27810Y-16467D01*
X27801Y-16476D01*
X27792Y-16495D01*
X27726Y-15929D02*
X27613Y-15929D01*
X27670Y-15929D02*
X27670Y-15732D01*
X27651Y-15760D01*
X27632Y-15779D01*
X27613Y-15789D01*
X27810Y-15929D02*
X27810Y-15732D01*
X27829Y-15854D02*
X27886Y-15929D01*
X27886Y-15798D02*
X27810Y-15873D01*
X37310Y-13532D02*
X37320Y-13542D01*
X37329Y-13570D01*
X37329Y-13589D01*
X37320Y-13617D01*
X37301Y-13636D01*
X37282Y-13645D01*
X37245Y-13654D01*
X37217Y-13654D01*
X37179Y-13645D01*
X37160Y-13636D01*
X37142Y-13617D01*
X37132Y-13589D01*
X37132Y-13570D01*
X37142Y-13542D01*
X37151Y-13532D01*
X37132Y-13467D02*
X37132Y-13345D01*
X37207Y-13410D01*
X37207Y-13382D01*
X37217Y-13363D01*
X37226Y-13354D01*
X37245Y-13345D01*
X37292Y-13345D01*
X37310Y-13354D01*
X37320Y-13363D01*
X37329Y-13382D01*
X37329Y-13439D01*
X37320Y-13457D01*
X37310Y-13467D01*
X36123Y-13729D02*
X36010Y-13729D01*
X36067Y-13729D02*
X36067Y-13532D01*
X36048Y-13560D01*
X36029Y-13579D01*
X36010Y-13589D01*
X36245Y-13532D02*
X36264Y-13532D01*
X36282Y-13542D01*
X36292Y-13551D01*
X36301Y-13570D01*
X36310Y-13607D01*
X36310Y-13654D01*
X36301Y-13692D01*
X36292Y-13710D01*
X36282Y-13720D01*
X36264Y-13729D01*
X36245Y-13729D01*
X36226Y-13720D01*
X36217Y-13710D01*
X36207Y-13692D01*
X36198Y-13654D01*
X36198Y-13607D01*
X36207Y-13570D01*
X36217Y-13551D01*
X36226Y-13542D01*
X36245Y-13532D01*
X36479Y-13598D02*
X36479Y-13729D01*
X36395Y-13598D02*
X36395Y-13701D01*
X36404Y-13720D01*
X36423Y-13729D01*
X36451Y-13729D01*
X36470Y-13720D01*
X36479Y-13710D01*
X17217Y-17079D02*
X17151Y-16985D01*
X17104Y-17079D02*
X17104Y-16882D01*
X17179Y-16882D01*
X17198Y-16892D01*
X17207Y-16901D01*
X17217Y-16920D01*
X17217Y-16948D01*
X17207Y-16967D01*
X17198Y-16976D01*
X17179Y-16985D01*
X17104Y-16985D01*
X17404Y-17079D02*
X17292Y-17079D01*
X17348Y-17079D02*
X17348Y-16882D01*
X17329Y-16910D01*
X17310Y-16929D01*
X17292Y-16939D01*
X17179Y-18023D02*
X17179Y-18136D01*
X17179Y-18079D02*
X16982Y-18079D01*
X17010Y-18098D01*
X17029Y-18117D01*
X17039Y-18136D01*
X17179Y-17939D02*
X16982Y-17939D01*
X17104Y-17920D02*
X17179Y-17863D01*
X17048Y-17863D02*
X17123Y-17939D01*
X32967Y-8060D02*
X32957Y-8070D01*
X32929Y-8079D01*
X32910Y-8079D01*
X32882Y-8070D01*
X32863Y-8051D01*
X32854Y-8032D01*
X32845Y-7995D01*
X32845Y-7967D01*
X32854Y-7929D01*
X32863Y-7910D01*
X32882Y-7892D01*
X32910Y-7882D01*
X32929Y-7882D01*
X32957Y-7892D01*
X32967Y-7901D01*
X33154Y-8079D02*
X33042Y-8079D01*
X33098Y-8079D02*
X33098Y-7882D01*
X33079Y-7910D01*
X33060Y-7929D01*
X33042Y-7939D01*
X32929Y-9126D02*
X32929Y-9239D01*
X32929Y-9182D02*
X32732Y-9182D01*
X32760Y-9201D01*
X32779Y-9220D01*
X32789Y-9239D01*
X32732Y-9004D02*
X32732Y-8985D01*
X32742Y-8967D01*
X32751Y-8957D01*
X32770Y-8948D01*
X32807Y-8939D01*
X32854Y-8939D01*
X32892Y-8948D01*
X32910Y-8957D01*
X32920Y-8967D01*
X32929Y-8985D01*
X32929Y-9004D01*
X32920Y-9023D01*
X32910Y-9032D01*
X32892Y-9042D01*
X32854Y-9051D01*
X32807Y-9051D01*
X32770Y-9042D01*
X32751Y-9032D01*
X32742Y-9023D01*
X32732Y-9004D01*
X32798Y-8770D02*
X32929Y-8770D01*
X32798Y-8854D02*
X32901Y-8854D01*
X32920Y-8845D01*
X32929Y-8826D01*
X32929Y-8798D01*
X32920Y-8779D01*
X32910Y-8770D01*
X37967Y-16579D02*
X37901Y-16485D01*
X37854Y-16579D02*
X37854Y-16382D01*
X37929Y-16382D01*
X37948Y-16392D01*
X37957Y-16401D01*
X37967Y-16420D01*
X37967Y-16448D01*
X37957Y-16467D01*
X37948Y-16476D01*
X37929Y-16485D01*
X37854Y-16485D01*
X38032Y-16382D02*
X38164Y-16382D01*
X38079Y-16579D01*
X38132Y-16229D02*
X38020Y-16229D01*
X38076Y-16229D02*
X38076Y-16032D01*
X38057Y-16060D01*
X38038Y-16079D01*
X38020Y-16089D01*
X38254Y-16032D02*
X38273Y-16032D01*
X38292Y-16042D01*
X38301Y-16051D01*
X38310Y-16070D01*
X38320Y-16107D01*
X38320Y-16154D01*
X38310Y-16192D01*
X38301Y-16210D01*
X38292Y-16220D01*
X38273Y-16229D01*
X38254Y-16229D01*
X38235Y-16220D01*
X38226Y-16210D01*
X38217Y-16192D01*
X38207Y-16154D01*
X38207Y-16107D01*
X38217Y-16070D01*
X38226Y-16051D01*
X38235Y-16042D01*
X38254Y-16032D01*
X38404Y-16229D02*
X38404Y-16032D01*
X38423Y-16154D02*
X38479Y-16229D01*
X38479Y-16098D02*
X38404Y-16173D01*
X21873Y-16829D02*
X21807Y-16735D01*
X21760Y-16829D02*
X21760Y-16632D01*
X21835Y-16632D01*
X21854Y-16642D01*
X21863Y-16651D01*
X21873Y-16670D01*
X21873Y-16698D01*
X21863Y-16717D01*
X21854Y-16726D01*
X21835Y-16735D01*
X21760Y-16735D01*
X22060Y-16829D02*
X21948Y-16829D01*
X22004Y-16829D02*
X22004Y-16632D01*
X21985Y-16660D01*
X21967Y-16679D01*
X21948Y-16689D01*
X22229Y-16632D02*
X22192Y-16632D01*
X22173Y-16642D01*
X22164Y-16651D01*
X22145Y-16679D01*
X22136Y-16717D01*
X22136Y-16792D01*
X22145Y-16810D01*
X22154Y-16820D01*
X22173Y-16829D01*
X22211Y-16829D01*
X22229Y-16820D01*
X22239Y-16810D01*
X22248Y-16792D01*
X22248Y-16745D01*
X22239Y-16726D01*
X22229Y-16717D01*
X22211Y-16707D01*
X22173Y-16707D01*
X22154Y-16717D01*
X22145Y-16726D01*
X22136Y-16745D01*
X21632Y-16479D02*
X21520Y-16479D01*
X21576Y-16479D02*
X21576Y-16282D01*
X21557Y-16310D01*
X21538Y-16329D01*
X21520Y-16339D01*
X21754Y-16282D02*
X21773Y-16282D01*
X21792Y-16292D01*
X21801Y-16301D01*
X21810Y-16320D01*
X21820Y-16357D01*
X21820Y-16404D01*
X21810Y-16442D01*
X21801Y-16460D01*
X21792Y-16470D01*
X21773Y-16479D01*
X21754Y-16479D01*
X21735Y-16470D01*
X21726Y-16460D01*
X21717Y-16442D01*
X21707Y-16404D01*
X21707Y-16357D01*
X21717Y-16320D01*
X21726Y-16301D01*
X21735Y-16292D01*
X21754Y-16282D01*
X21904Y-16479D02*
X21904Y-16282D01*
X21923Y-16404D02*
X21979Y-16479D01*
X21979Y-16348D02*
X21904Y-16423D01*
X33967Y-16579D02*
X33901Y-16485D01*
X33854Y-16579D02*
X33854Y-16382D01*
X33929Y-16382D01*
X33948Y-16392D01*
X33957Y-16401D01*
X33967Y-16420D01*
X33967Y-16448D01*
X33957Y-16467D01*
X33948Y-16476D01*
X33929Y-16485D01*
X33854Y-16485D01*
X34079Y-16467D02*
X34060Y-16457D01*
X34051Y-16448D01*
X34042Y-16429D01*
X34042Y-16420D01*
X34051Y-16401D01*
X34060Y-16392D01*
X34079Y-16382D01*
X34117Y-16382D01*
X34136Y-16392D01*
X34145Y-16401D01*
X34154Y-16420D01*
X34154Y-16429D01*
X34145Y-16448D01*
X34136Y-16457D01*
X34117Y-16467D01*
X34079Y-16467D01*
X34060Y-16476D01*
X34051Y-16485D01*
X34042Y-16504D01*
X34042Y-16542D01*
X34051Y-16560D01*
X34060Y-16570D01*
X34079Y-16579D01*
X34117Y-16579D01*
X34136Y-16570D01*
X34145Y-16560D01*
X34154Y-16542D01*
X34154Y-16504D01*
X34145Y-16485D01*
X34136Y-16476D01*
X34117Y-16467D01*
X33382Y-16229D02*
X33270Y-16229D01*
X33326Y-16229D02*
X33326Y-16032D01*
X33307Y-16060D01*
X33288Y-16079D01*
X33270Y-16089D01*
X33504Y-16032D02*
X33523Y-16032D01*
X33542Y-16042D01*
X33551Y-16051D01*
X33560Y-16070D01*
X33570Y-16107D01*
X33570Y-16154D01*
X33560Y-16192D01*
X33551Y-16210D01*
X33542Y-16220D01*
X33523Y-16229D01*
X33504Y-16229D01*
X33485Y-16220D01*
X33476Y-16210D01*
X33467Y-16192D01*
X33457Y-16154D01*
X33457Y-16107D01*
X33467Y-16070D01*
X33476Y-16051D01*
X33485Y-16042D01*
X33504Y-16032D01*
X33654Y-16229D02*
X33654Y-16032D01*
X33673Y-16154D02*
X33729Y-16229D01*
X33729Y-16098D02*
X33654Y-16173D01*
X31967Y-16579D02*
X31901Y-16485D01*
X31854Y-16579D02*
X31854Y-16382D01*
X31929Y-16382D01*
X31948Y-16392D01*
X31957Y-16401D01*
X31967Y-16420D01*
X31967Y-16448D01*
X31957Y-16467D01*
X31948Y-16476D01*
X31929Y-16485D01*
X31854Y-16485D01*
X32136Y-16448D02*
X32136Y-16579D01*
X32089Y-16373D02*
X32042Y-16514D01*
X32164Y-16514D01*
X31632Y-16229D02*
X31520Y-16229D01*
X31576Y-16229D02*
X31576Y-16032D01*
X31557Y-16060D01*
X31538Y-16079D01*
X31520Y-16089D01*
X31754Y-16032D02*
X31773Y-16032D01*
X31792Y-16042D01*
X31801Y-16051D01*
X31810Y-16070D01*
X31820Y-16107D01*
X31820Y-16154D01*
X31810Y-16192D01*
X31801Y-16210D01*
X31792Y-16220D01*
X31773Y-16229D01*
X31754Y-16229D01*
X31735Y-16220D01*
X31726Y-16210D01*
X31717Y-16192D01*
X31707Y-16154D01*
X31707Y-16107D01*
X31717Y-16070D01*
X31726Y-16051D01*
X31735Y-16042D01*
X31754Y-16032D01*
X31904Y-16229D02*
X31904Y-16032D01*
X31923Y-16154D02*
X31979Y-16229D01*
X31979Y-16098D02*
X31904Y-16173D01*
X29967Y-16579D02*
X29901Y-16485D01*
X29854Y-16579D02*
X29854Y-16382D01*
X29929Y-16382D01*
X29948Y-16392D01*
X29957Y-16401D01*
X29967Y-16420D01*
X29967Y-16448D01*
X29957Y-16467D01*
X29948Y-16476D01*
X29929Y-16485D01*
X29854Y-16485D01*
X30060Y-16579D02*
X30098Y-16579D01*
X30117Y-16570D01*
X30126Y-16560D01*
X30145Y-16532D01*
X30154Y-16495D01*
X30154Y-16420D01*
X30145Y-16401D01*
X30136Y-16392D01*
X30117Y-16382D01*
X30079Y-16382D01*
X30060Y-16392D01*
X30051Y-16401D01*
X30042Y-16420D01*
X30042Y-16467D01*
X30051Y-16485D01*
X30060Y-16495D01*
X30079Y-16504D01*
X30117Y-16504D01*
X30136Y-16495D01*
X30145Y-16485D01*
X30154Y-16467D01*
X29382Y-16229D02*
X29270Y-16229D01*
X29326Y-16229D02*
X29326Y-16032D01*
X29307Y-16060D01*
X29288Y-16079D01*
X29270Y-16089D01*
X29504Y-16032D02*
X29523Y-16032D01*
X29542Y-16042D01*
X29551Y-16051D01*
X29560Y-16070D01*
X29570Y-16107D01*
X29570Y-16154D01*
X29560Y-16192D01*
X29551Y-16210D01*
X29542Y-16220D01*
X29523Y-16229D01*
X29504Y-16229D01*
X29485Y-16220D01*
X29476Y-16210D01*
X29467Y-16192D01*
X29457Y-16154D01*
X29457Y-16107D01*
X29467Y-16070D01*
X29476Y-16051D01*
X29485Y-16042D01*
X29504Y-16032D01*
X29654Y-16229D02*
X29654Y-16032D01*
X29673Y-16154D02*
X29729Y-16229D01*
X29729Y-16098D02*
X29654Y-16173D01*
X20873Y-21329D02*
X20807Y-21235D01*
X20760Y-21329D02*
X20760Y-21132D01*
X20835Y-21132D01*
X20854Y-21142D01*
X20863Y-21151D01*
X20873Y-21170D01*
X20873Y-21198D01*
X20863Y-21217D01*
X20854Y-21226D01*
X20835Y-21235D01*
X20760Y-21235D01*
X21060Y-21329D02*
X20948Y-21329D01*
X21004Y-21329D02*
X21004Y-21132D01*
X20985Y-21160D01*
X20967Y-21179D01*
X20948Y-21189D01*
X21182Y-21132D02*
X21201Y-21132D01*
X21220Y-21142D01*
X21229Y-21151D01*
X21239Y-21170D01*
X21248Y-21207D01*
X21248Y-21254D01*
X21239Y-21292D01*
X21229Y-21310D01*
X21220Y-21320D01*
X21201Y-21329D01*
X21182Y-21329D01*
X21164Y-21320D01*
X21154Y-21310D01*
X21145Y-21292D01*
X21136Y-21254D01*
X21136Y-21207D01*
X21145Y-21170D01*
X21154Y-21151D01*
X21164Y-21142D01*
X21182Y-21132D01*
X20976Y-21979D02*
X20863Y-21979D01*
X20920Y-21979D02*
X20920Y-21782D01*
X20901Y-21810D01*
X20882Y-21829D01*
X20863Y-21839D01*
X21060Y-21979D02*
X21060Y-21782D01*
X21079Y-21904D02*
X21136Y-21979D01*
X21136Y-21848D02*
X21060Y-21923D01*
X28717Y-17329D02*
X28651Y-17235D01*
X28604Y-17329D02*
X28604Y-17132D01*
X28679Y-17132D01*
X28698Y-17142D01*
X28707Y-17151D01*
X28717Y-17170D01*
X28717Y-17198D01*
X28707Y-17217D01*
X28698Y-17226D01*
X28679Y-17235D01*
X28604Y-17235D01*
X28895Y-17132D02*
X28801Y-17132D01*
X28792Y-17226D01*
X28801Y-17217D01*
X28820Y-17207D01*
X28867Y-17207D01*
X28886Y-17217D01*
X28895Y-17226D01*
X28904Y-17245D01*
X28904Y-17292D01*
X28895Y-17310D01*
X28886Y-17320D01*
X28867Y-17329D01*
X28820Y-17329D01*
X28801Y-17320D01*
X28792Y-17310D01*
X28632Y-16979D02*
X28520Y-16979D01*
X28576Y-16979D02*
X28576Y-16782D01*
X28557Y-16810D01*
X28538Y-16829D01*
X28520Y-16839D01*
X28754Y-16782D02*
X28773Y-16782D01*
X28792Y-16792D01*
X28801Y-16801D01*
X28810Y-16820D01*
X28820Y-16857D01*
X28820Y-16904D01*
X28810Y-16942D01*
X28801Y-16960D01*
X28792Y-16970D01*
X28773Y-16979D01*
X28754Y-16979D01*
X28735Y-16970D01*
X28726Y-16960D01*
X28717Y-16942D01*
X28707Y-16904D01*
X28707Y-16857D01*
X28717Y-16820D01*
X28726Y-16801D01*
X28735Y-16792D01*
X28754Y-16782D01*
X28904Y-16979D02*
X28904Y-16782D01*
X28923Y-16904D02*
X28979Y-16979D01*
X28979Y-16848D02*
X28904Y-16923D01*
X37079Y-21626D02*
X36985Y-21692D01*
X37079Y-21739D02*
X36882Y-21739D01*
X36882Y-21664D01*
X36892Y-21645D01*
X36901Y-21636D01*
X36920Y-21626D01*
X36948Y-21626D01*
X36967Y-21636D01*
X36976Y-21645D01*
X36985Y-21664D01*
X36985Y-21739D01*
X36901Y-21551D02*
X36892Y-21542D01*
X36882Y-21523D01*
X36882Y-21476D01*
X36892Y-21457D01*
X36901Y-21448D01*
X36920Y-21439D01*
X36939Y-21439D01*
X36967Y-21448D01*
X37079Y-21560D01*
X37079Y-21439D01*
X37079Y-21251D02*
X37079Y-21363D01*
X37079Y-21307D02*
X36882Y-21307D01*
X36910Y-21326D01*
X36929Y-21345D01*
X36939Y-21363D01*
X37429Y-21711D02*
X37429Y-21823D01*
X37429Y-21767D02*
X37232Y-21767D01*
X37260Y-21786D01*
X37279Y-21804D01*
X37289Y-21823D01*
X37232Y-21589D02*
X37232Y-21570D01*
X37242Y-21551D01*
X37251Y-21542D01*
X37270Y-21532D01*
X37307Y-21523D01*
X37354Y-21523D01*
X37392Y-21532D01*
X37410Y-21542D01*
X37420Y-21551D01*
X37429Y-21570D01*
X37429Y-21589D01*
X37420Y-21607D01*
X37410Y-21617D01*
X37392Y-21626D01*
X37354Y-21636D01*
X37307Y-21636D01*
X37270Y-21626D01*
X37251Y-21617D01*
X37242Y-21607D01*
X37232Y-21589D01*
X37232Y-21401D02*
X37232Y-21382D01*
X37242Y-21363D01*
X37251Y-21354D01*
X37270Y-21345D01*
X37307Y-21335D01*
X37354Y-21335D01*
X37392Y-21345D01*
X37410Y-21354D01*
X37420Y-21363D01*
X37429Y-21382D01*
X37429Y-21401D01*
X37420Y-21420D01*
X37410Y-21429D01*
X37392Y-21439D01*
X37354Y-21448D01*
X37307Y-21448D01*
X37270Y-21439D01*
X37251Y-21429D01*
X37242Y-21420D01*
X37232Y-21401D01*
X37429Y-21251D02*
X37232Y-21251D01*
X37354Y-21232D02*
X37429Y-21176D01*
X37298Y-21176D02*
X37373Y-21251D01*
X36079Y-24126D02*
X35985Y-24192D01*
X36079Y-24239D02*
X35882Y-24239D01*
X35882Y-24164D01*
X35892Y-24145D01*
X35901Y-24136D01*
X35920Y-24126D01*
X35948Y-24126D01*
X35967Y-24136D01*
X35976Y-24145D01*
X35985Y-24164D01*
X35985Y-24239D01*
X36079Y-23939D02*
X36079Y-24051D01*
X36079Y-23995D02*
X35882Y-23995D01*
X35910Y-24014D01*
X35929Y-24032D01*
X35939Y-24051D01*
X36079Y-23845D02*
X36079Y-23807D01*
X36070Y-23788D01*
X36060Y-23779D01*
X36032Y-23760D01*
X35995Y-23751D01*
X35920Y-23751D01*
X35901Y-23760D01*
X35892Y-23770D01*
X35882Y-23788D01*
X35882Y-23826D01*
X35892Y-23845D01*
X35901Y-23854D01*
X35920Y-23863D01*
X35967Y-23863D01*
X35985Y-23854D01*
X35995Y-23845D01*
X36004Y-23826D01*
X36004Y-23788D01*
X35995Y-23770D01*
X35985Y-23760D01*
X35967Y-23751D01*
X34788Y-24229D02*
X34676Y-24229D01*
X34732Y-24229D02*
X34732Y-24032D01*
X34713Y-24060D01*
X34695Y-24079D01*
X34676Y-24089D01*
X34910Y-24032D02*
X34929Y-24032D01*
X34948Y-24042D01*
X34957Y-24051D01*
X34967Y-24070D01*
X34976Y-24107D01*
X34976Y-24154D01*
X34967Y-24192D01*
X34957Y-24210D01*
X34948Y-24220D01*
X34929Y-24229D01*
X34910Y-24229D01*
X34892Y-24220D01*
X34882Y-24210D01*
X34873Y-24192D01*
X34863Y-24154D01*
X34863Y-24107D01*
X34873Y-24070D01*
X34882Y-24051D01*
X34892Y-24042D01*
X34910Y-24032D01*
X35098Y-24032D02*
X35117Y-24032D01*
X35136Y-24042D01*
X35145Y-24051D01*
X35154Y-24070D01*
X35164Y-24107D01*
X35164Y-24154D01*
X35154Y-24192D01*
X35145Y-24210D01*
X35136Y-24220D01*
X35117Y-24229D01*
X35098Y-24229D01*
X35079Y-24220D01*
X35070Y-24210D01*
X35060Y-24192D01*
X35051Y-24154D01*
X35051Y-24107D01*
X35060Y-24070D01*
X35070Y-24051D01*
X35079Y-24042D01*
X35098Y-24032D01*
X35248Y-24229D02*
X35248Y-24032D01*
X35267Y-24154D02*
X35323Y-24229D01*
X35323Y-24098D02*
X35248Y-24173D01*
X23329Y-19126D02*
X23235Y-19192D01*
X23329Y-19239D02*
X23132Y-19239D01*
X23132Y-19164D01*
X23142Y-19145D01*
X23151Y-19136D01*
X23170Y-19126D01*
X23198Y-19126D01*
X23217Y-19136D01*
X23226Y-19145D01*
X23235Y-19164D01*
X23235Y-19239D01*
X23151Y-19051D02*
X23142Y-19042D01*
X23132Y-19023D01*
X23132Y-18976D01*
X23142Y-18957D01*
X23151Y-18948D01*
X23170Y-18939D01*
X23189Y-18939D01*
X23217Y-18948D01*
X23329Y-19060D01*
X23329Y-18939D01*
X23151Y-18863D02*
X23142Y-18854D01*
X23132Y-18835D01*
X23132Y-18788D01*
X23142Y-18770D01*
X23151Y-18760D01*
X23170Y-18751D01*
X23189Y-18751D01*
X23217Y-18760D01*
X23329Y-18873D01*
X23329Y-18751D01*
X23979Y-19117D02*
X23979Y-19229D01*
X23979Y-19173D02*
X23782Y-19173D01*
X23810Y-19192D01*
X23829Y-19211D01*
X23839Y-19229D01*
X23782Y-18995D02*
X23782Y-18976D01*
X23792Y-18957D01*
X23801Y-18948D01*
X23820Y-18939D01*
X23857Y-18929D01*
X23904Y-18929D01*
X23942Y-18939D01*
X23960Y-18948D01*
X23970Y-18957D01*
X23979Y-18976D01*
X23979Y-18995D01*
X23970Y-19014D01*
X23960Y-19023D01*
X23942Y-19032D01*
X23904Y-19042D01*
X23857Y-19042D01*
X23820Y-19032D01*
X23801Y-19023D01*
X23792Y-19014D01*
X23782Y-18995D01*
X23979Y-18845D02*
X23782Y-18845D01*
X23904Y-18826D02*
X23979Y-18770D01*
X23848Y-18770D02*
X23923Y-18845D01*
X31873Y-21579D02*
X31807Y-21485D01*
X31760Y-21579D02*
X31760Y-21382D01*
X31835Y-21382D01*
X31854Y-21392D01*
X31863Y-21401D01*
X31873Y-21420D01*
X31873Y-21448D01*
X31863Y-21467D01*
X31854Y-21476D01*
X31835Y-21485D01*
X31760Y-21485D01*
X32060Y-21579D02*
X31948Y-21579D01*
X32004Y-21579D02*
X32004Y-21382D01*
X31985Y-21410D01*
X31967Y-21429D01*
X31948Y-21439D01*
X32229Y-21448D02*
X32229Y-21579D01*
X32182Y-21373D02*
X32136Y-21514D01*
X32257Y-21514D01*
X31382Y-21929D02*
X31270Y-21929D01*
X31326Y-21929D02*
X31326Y-21732D01*
X31307Y-21760D01*
X31288Y-21779D01*
X31270Y-21789D01*
X31504Y-21732D02*
X31523Y-21732D01*
X31542Y-21742D01*
X31551Y-21751D01*
X31560Y-21770D01*
X31570Y-21807D01*
X31570Y-21854D01*
X31560Y-21892D01*
X31551Y-21910D01*
X31542Y-21920D01*
X31523Y-21929D01*
X31504Y-21929D01*
X31485Y-21920D01*
X31476Y-21910D01*
X31467Y-21892D01*
X31457Y-21854D01*
X31457Y-21807D01*
X31467Y-21770D01*
X31476Y-21751D01*
X31485Y-21742D01*
X31504Y-21732D01*
X31654Y-21929D02*
X31654Y-21732D01*
X31673Y-21854D02*
X31729Y-21929D01*
X31729Y-21798D02*
X31654Y-21873D01*
X26873Y-21579D02*
X26807Y-21485D01*
X26760Y-21579D02*
X26760Y-21382D01*
X26835Y-21382D01*
X26854Y-21392D01*
X26863Y-21401D01*
X26873Y-21420D01*
X26873Y-21448D01*
X26863Y-21467D01*
X26854Y-21476D01*
X26835Y-21485D01*
X26760Y-21485D01*
X27060Y-21579D02*
X26948Y-21579D01*
X27004Y-21579D02*
X27004Y-21382D01*
X26985Y-21410D01*
X26967Y-21429D01*
X26948Y-21439D01*
X27173Y-21467D02*
X27154Y-21457D01*
X27145Y-21448D01*
X27136Y-21429D01*
X27136Y-21420D01*
X27145Y-21401D01*
X27154Y-21392D01*
X27173Y-21382D01*
X27211Y-21382D01*
X27229Y-21392D01*
X27239Y-21401D01*
X27248Y-21420D01*
X27248Y-21429D01*
X27239Y-21448D01*
X27229Y-21457D01*
X27211Y-21467D01*
X27173Y-21467D01*
X27154Y-21476D01*
X27145Y-21485D01*
X27136Y-21504D01*
X27136Y-21542D01*
X27145Y-21560D01*
X27154Y-21570D01*
X27173Y-21579D01*
X27211Y-21579D01*
X27229Y-21570D01*
X27239Y-21560D01*
X27248Y-21542D01*
X27248Y-21504D01*
X27239Y-21485D01*
X27229Y-21476D01*
X27211Y-21467D01*
X26382Y-21929D02*
X26270Y-21929D01*
X26326Y-21929D02*
X26326Y-21732D01*
X26307Y-21760D01*
X26288Y-21779D01*
X26270Y-21789D01*
X26504Y-21732D02*
X26523Y-21732D01*
X26542Y-21742D01*
X26551Y-21751D01*
X26560Y-21770D01*
X26570Y-21807D01*
X26570Y-21854D01*
X26560Y-21892D01*
X26551Y-21910D01*
X26542Y-21920D01*
X26523Y-21929D01*
X26504Y-21929D01*
X26485Y-21920D01*
X26476Y-21910D01*
X26467Y-21892D01*
X26457Y-21854D01*
X26457Y-21807D01*
X26467Y-21770D01*
X26476Y-21751D01*
X26485Y-21742D01*
X26504Y-21732D01*
X26654Y-21929D02*
X26654Y-21732D01*
X26673Y-21854D02*
X26729Y-21929D01*
X26729Y-21798D02*
X26654Y-21873D01*
X25873Y-20579D02*
X25807Y-20485D01*
X25760Y-20579D02*
X25760Y-20382D01*
X25835Y-20382D01*
X25854Y-20392D01*
X25863Y-20401D01*
X25873Y-20420D01*
X25873Y-20448D01*
X25863Y-20467D01*
X25854Y-20476D01*
X25835Y-20485D01*
X25760Y-20485D01*
X25948Y-20401D02*
X25957Y-20392D01*
X25976Y-20382D01*
X26023Y-20382D01*
X26042Y-20392D01*
X26051Y-20401D01*
X26060Y-20420D01*
X26060Y-20439D01*
X26051Y-20467D01*
X25939Y-20579D01*
X26060Y-20579D01*
X26126Y-20382D02*
X26248Y-20382D01*
X26182Y-20457D01*
X26211Y-20457D01*
X26229Y-20467D01*
X26239Y-20476D01*
X26248Y-20495D01*
X26248Y-20542D01*
X26239Y-20560D01*
X26229Y-20570D01*
X26211Y-20579D01*
X26154Y-20579D01*
X26136Y-20570D01*
X26126Y-20560D01*
X25882Y-20929D02*
X25770Y-20929D01*
X25826Y-20929D02*
X25826Y-20732D01*
X25807Y-20760D01*
X25788Y-20779D01*
X25770Y-20789D01*
X26004Y-20732D02*
X26023Y-20732D01*
X26042Y-20742D01*
X26051Y-20751D01*
X26060Y-20770D01*
X26070Y-20807D01*
X26070Y-20854D01*
X26060Y-20892D01*
X26051Y-20910D01*
X26042Y-20920D01*
X26023Y-20929D01*
X26004Y-20929D01*
X25985Y-20920D01*
X25976Y-20910D01*
X25967Y-20892D01*
X25957Y-20854D01*
X25957Y-20807D01*
X25967Y-20770D01*
X25976Y-20751D01*
X25985Y-20742D01*
X26004Y-20732D01*
X26154Y-20929D02*
X26154Y-20732D01*
X26173Y-20854D02*
X26229Y-20929D01*
X26229Y-20798D02*
X26154Y-20873D01*
X24873Y-16579D02*
X24807Y-16485D01*
X24760Y-16579D02*
X24760Y-16382D01*
X24835Y-16382D01*
X24854Y-16392D01*
X24863Y-16401D01*
X24873Y-16420D01*
X24873Y-16448D01*
X24863Y-16467D01*
X24854Y-16476D01*
X24835Y-16485D01*
X24760Y-16485D01*
X25060Y-16579D02*
X24948Y-16579D01*
X25004Y-16579D02*
X25004Y-16382D01*
X24985Y-16410D01*
X24967Y-16429D01*
X24948Y-16439D01*
X25239Y-16382D02*
X25145Y-16382D01*
X25136Y-16476D01*
X25145Y-16467D01*
X25164Y-16457D01*
X25211Y-16457D01*
X25229Y-16467D01*
X25239Y-16476D01*
X25248Y-16495D01*
X25248Y-16542D01*
X25239Y-16560D01*
X25229Y-16570D01*
X25211Y-16579D01*
X25164Y-16579D01*
X25145Y-16570D01*
X25136Y-16560D01*
X24632Y-16229D02*
X24520Y-16229D01*
X24576Y-16229D02*
X24576Y-16032D01*
X24557Y-16060D01*
X24538Y-16079D01*
X24520Y-16089D01*
X24754Y-16032D02*
X24773Y-16032D01*
X24792Y-16042D01*
X24801Y-16051D01*
X24810Y-16070D01*
X24820Y-16107D01*
X24820Y-16154D01*
X24810Y-16192D01*
X24801Y-16210D01*
X24792Y-16220D01*
X24773Y-16229D01*
X24754Y-16229D01*
X24735Y-16220D01*
X24726Y-16210D01*
X24717Y-16192D01*
X24707Y-16154D01*
X24707Y-16107D01*
X24717Y-16070D01*
X24726Y-16051D01*
X24735Y-16042D01*
X24754Y-16032D01*
X24904Y-16229D02*
X24904Y-16032D01*
X24923Y-16154D02*
X24979Y-16229D01*
X24979Y-16098D02*
X24904Y-16173D01*
X20079Y-21626D02*
X19985Y-21692D01*
X20079Y-21739D02*
X19882Y-21739D01*
X19882Y-21664D01*
X19892Y-21645D01*
X19901Y-21636D01*
X19920Y-21626D01*
X19948Y-21626D01*
X19967Y-21636D01*
X19976Y-21645D01*
X19985Y-21664D01*
X19985Y-21739D01*
X20079Y-21439D02*
X20079Y-21551D01*
X20079Y-21495D02*
X19882Y-21495D01*
X19910Y-21514D01*
X19929Y-21532D01*
X19939Y-21551D01*
X20079Y-21251D02*
X20079Y-21363D01*
X20079Y-21307D02*
X19882Y-21307D01*
X19910Y-21326D01*
X19929Y-21345D01*
X19939Y-21363D01*
X19298Y-21636D02*
X19429Y-21636D01*
X19223Y-21682D02*
X19364Y-21729D01*
X19364Y-21607D01*
X19429Y-21532D02*
X19232Y-21532D01*
X19354Y-21514D02*
X19429Y-21457D01*
X19298Y-21457D02*
X19373Y-21532D01*
X19232Y-21392D02*
X19232Y-21260D01*
X19429Y-21345D01*
X34329Y-21126D02*
X34235Y-21192D01*
X34329Y-21239D02*
X34132Y-21239D01*
X34132Y-21164D01*
X34142Y-21145D01*
X34151Y-21136D01*
X34170Y-21126D01*
X34198Y-21126D01*
X34217Y-21136D01*
X34226Y-21145D01*
X34235Y-21164D01*
X34235Y-21239D01*
X34132Y-21060D02*
X34132Y-20939D01*
X34207Y-21004D01*
X34207Y-20976D01*
X34217Y-20957D01*
X34226Y-20948D01*
X34245Y-20939D01*
X34292Y-20939D01*
X34310Y-20948D01*
X34320Y-20957D01*
X34329Y-20976D01*
X34329Y-21032D01*
X34320Y-21051D01*
X34310Y-21060D01*
X34329Y-20751D02*
X34329Y-20863D01*
X34329Y-20807D02*
X34132Y-20807D01*
X34160Y-20826D01*
X34179Y-20845D01*
X34189Y-20863D01*
X34979Y-21023D02*
X34979Y-21136D01*
X34979Y-21079D02*
X34782Y-21079D01*
X34810Y-21098D01*
X34829Y-21117D01*
X34839Y-21136D01*
X34979Y-20939D02*
X34782Y-20939D01*
X34904Y-20920D02*
X34979Y-20863D01*
X34848Y-20863D02*
X34923Y-20939D01*
X28079Y-21626D02*
X27985Y-21692D01*
X28079Y-21739D02*
X27882Y-21739D01*
X27882Y-21664D01*
X27892Y-21645D01*
X27901Y-21636D01*
X27920Y-21626D01*
X27948Y-21626D01*
X27967Y-21636D01*
X27976Y-21645D01*
X27985Y-21664D01*
X27985Y-21739D01*
X27882Y-21560D02*
X27882Y-21439D01*
X27957Y-21504D01*
X27957Y-21476D01*
X27967Y-21457D01*
X27976Y-21448D01*
X27995Y-21439D01*
X28042Y-21439D01*
X28060Y-21448D01*
X28070Y-21457D01*
X28079Y-21476D01*
X28079Y-21532D01*
X28070Y-21551D01*
X28060Y-21560D01*
X27948Y-21270D02*
X28079Y-21270D01*
X27873Y-21317D02*
X28014Y-21363D01*
X28014Y-21242D01*
X28729Y-21523D02*
X28729Y-21636D01*
X28729Y-21579D02*
X28532Y-21579D01*
X28560Y-21598D01*
X28579Y-21617D01*
X28589Y-21636D01*
X28729Y-21439D02*
X28532Y-21439D01*
X28654Y-21420D02*
X28729Y-21363D01*
X28598Y-21363D02*
X28673Y-21439D01*
X30060Y-21532D02*
X30070Y-21542D01*
X30079Y-21570D01*
X30079Y-21589D01*
X30070Y-21617D01*
X30051Y-21636D01*
X30032Y-21645D01*
X29995Y-21654D01*
X29967Y-21654D01*
X29929Y-21645D01*
X29910Y-21636D01*
X29892Y-21617D01*
X29882Y-21589D01*
X29882Y-21570D01*
X29892Y-21542D01*
X29901Y-21532D01*
X29948Y-21363D02*
X30079Y-21363D01*
X29873Y-21410D02*
X30014Y-21457D01*
X30014Y-21335D01*
X29429Y-21720D02*
X29429Y-21833D01*
X29429Y-21776D02*
X29232Y-21776D01*
X29260Y-21795D01*
X29279Y-21814D01*
X29289Y-21833D01*
X29232Y-21598D02*
X29232Y-21579D01*
X29242Y-21560D01*
X29251Y-21551D01*
X29270Y-21542D01*
X29307Y-21532D01*
X29354Y-21532D01*
X29392Y-21542D01*
X29410Y-21551D01*
X29420Y-21560D01*
X29429Y-21579D01*
X29429Y-21598D01*
X29420Y-21617D01*
X29410Y-21626D01*
X29392Y-21636D01*
X29354Y-21645D01*
X29307Y-21645D01*
X29270Y-21636D01*
X29251Y-21626D01*
X29242Y-21617D01*
X29232Y-21598D01*
X29232Y-21410D02*
X29232Y-21392D01*
X29242Y-21373D01*
X29251Y-21363D01*
X29270Y-21354D01*
X29307Y-21345D01*
X29354Y-21345D01*
X29392Y-21354D01*
X29410Y-21363D01*
X29420Y-21373D01*
X29429Y-21392D01*
X29429Y-21410D01*
X29420Y-21429D01*
X29410Y-21439D01*
X29392Y-21448D01*
X29354Y-21457D01*
X29307Y-21457D01*
X29270Y-21448D01*
X29251Y-21439D01*
X29242Y-21429D01*
X29232Y-21410D01*
X29298Y-21260D02*
X29429Y-21260D01*
X29317Y-21260D02*
X29307Y-21251D01*
X29298Y-21232D01*
X29298Y-21204D01*
X29307Y-21185D01*
X29326Y-21176D01*
X29429Y-21176D01*
X30579Y-20876D02*
X30485Y-20942D01*
X30579Y-20989D02*
X30382Y-20989D01*
X30382Y-20914D01*
X30392Y-20895D01*
X30401Y-20886D01*
X30420Y-20876D01*
X30448Y-20876D01*
X30467Y-20886D01*
X30476Y-20895D01*
X30485Y-20914D01*
X30485Y-20989D01*
X30382Y-20810D02*
X30382Y-20689D01*
X30457Y-20754D01*
X30457Y-20726D01*
X30467Y-20707D01*
X30476Y-20698D01*
X30495Y-20689D01*
X30542Y-20689D01*
X30560Y-20698D01*
X30570Y-20707D01*
X30579Y-20726D01*
X30579Y-20782D01*
X30570Y-20801D01*
X30560Y-20810D01*
X30401Y-20613D02*
X30392Y-20604D01*
X30382Y-20585D01*
X30382Y-20538D01*
X30392Y-20520D01*
X30401Y-20510D01*
X30420Y-20501D01*
X30439Y-20501D01*
X30467Y-20510D01*
X30579Y-20623D01*
X30579Y-20501D01*
X30929Y-20773D02*
X30929Y-20886D01*
X30929Y-20829D02*
X30732Y-20829D01*
X30760Y-20848D01*
X30779Y-20867D01*
X30789Y-20886D01*
X30929Y-20689D02*
X30732Y-20689D01*
X30854Y-20670D02*
X30929Y-20613D01*
X30798Y-20613D02*
X30873Y-20689D01*
X20079Y-24126D02*
X19985Y-24192D01*
X20079Y-24239D02*
X19882Y-24239D01*
X19882Y-24164D01*
X19892Y-24145D01*
X19901Y-24136D01*
X19920Y-24126D01*
X19948Y-24126D01*
X19967Y-24136D01*
X19976Y-24145D01*
X19985Y-24164D01*
X19985Y-24239D01*
X20079Y-23939D02*
X20079Y-24051D01*
X20079Y-23995D02*
X19882Y-23995D01*
X19910Y-24014D01*
X19929Y-24032D01*
X19939Y-24051D01*
X19901Y-23863D02*
X19892Y-23854D01*
X19882Y-23835D01*
X19882Y-23788D01*
X19892Y-23770D01*
X19901Y-23760D01*
X19920Y-23751D01*
X19939Y-23751D01*
X19967Y-23760D01*
X20079Y-23873D01*
X20079Y-23751D01*
X20976Y-24229D02*
X20863Y-24229D01*
X20920Y-24229D02*
X20920Y-24032D01*
X20901Y-24060D01*
X20882Y-24079D01*
X20863Y-24089D01*
X21060Y-24229D02*
X21060Y-24032D01*
X21079Y-24154D02*
X21136Y-24229D01*
X21136Y-24098D02*
X21060Y-24173D01*
X34829Y-17876D02*
X34735Y-17942D01*
X34829Y-17989D02*
X34632Y-17989D01*
X34632Y-17914D01*
X34642Y-17895D01*
X34651Y-17886D01*
X34670Y-17876D01*
X34698Y-17876D01*
X34717Y-17886D01*
X34726Y-17895D01*
X34735Y-17914D01*
X34735Y-17989D01*
X34651Y-17801D02*
X34642Y-17792D01*
X34632Y-17773D01*
X34632Y-17726D01*
X34642Y-17707D01*
X34651Y-17698D01*
X34670Y-17689D01*
X34689Y-17689D01*
X34717Y-17698D01*
X34829Y-17810D01*
X34829Y-17689D01*
X34632Y-17623D02*
X34632Y-17492D01*
X34829Y-17576D01*
X35179Y-17773D02*
X35179Y-17886D01*
X35179Y-17829D02*
X34982Y-17829D01*
X35010Y-17848D01*
X35029Y-17867D01*
X35039Y-17886D01*
X35179Y-17689D02*
X34982Y-17689D01*
X35104Y-17670D02*
X35179Y-17613D01*
X35048Y-17613D02*
X35123Y-17689D01*
X31329Y-17876D02*
X31235Y-17942D01*
X31329Y-17989D02*
X31132Y-17989D01*
X31132Y-17914D01*
X31142Y-17895D01*
X31151Y-17886D01*
X31170Y-17876D01*
X31198Y-17876D01*
X31217Y-17886D01*
X31226Y-17895D01*
X31235Y-17914D01*
X31235Y-17989D01*
X31151Y-17801D02*
X31142Y-17792D01*
X31132Y-17773D01*
X31132Y-17726D01*
X31142Y-17707D01*
X31151Y-17698D01*
X31170Y-17689D01*
X31189Y-17689D01*
X31217Y-17698D01*
X31329Y-17810D01*
X31329Y-17689D01*
X31217Y-17576D02*
X31207Y-17595D01*
X31198Y-17604D01*
X31179Y-17613D01*
X31170Y-17613D01*
X31151Y-17604D01*
X31142Y-17595D01*
X31132Y-17576D01*
X31132Y-17538D01*
X31142Y-17520D01*
X31151Y-17510D01*
X31170Y-17501D01*
X31179Y-17501D01*
X31198Y-17510D01*
X31207Y-17520D01*
X31217Y-17538D01*
X31217Y-17576D01*
X31226Y-17595D01*
X31235Y-17604D01*
X31254Y-17613D01*
X31292Y-17613D01*
X31310Y-17604D01*
X31320Y-17595D01*
X31329Y-17576D01*
X31329Y-17538D01*
X31320Y-17520D01*
X31310Y-17510D01*
X31292Y-17501D01*
X31254Y-17501D01*
X31235Y-17510D01*
X31226Y-17520D01*
X31217Y-17538D01*
X31679Y-17773D02*
X31679Y-17886D01*
X31679Y-17829D02*
X31482Y-17829D01*
X31510Y-17848D01*
X31529Y-17867D01*
X31539Y-17886D01*
X31679Y-17689D02*
X31482Y-17689D01*
X31604Y-17670D02*
X31679Y-17613D01*
X31548Y-17613D02*
X31623Y-17689D01*
X38373Y-20829D02*
X38307Y-20735D01*
X38260Y-20829D02*
X38260Y-20632D01*
X38335Y-20632D01*
X38354Y-20642D01*
X38363Y-20651D01*
X38373Y-20670D01*
X38373Y-20698D01*
X38363Y-20717D01*
X38354Y-20726D01*
X38335Y-20735D01*
X38260Y-20735D01*
X38439Y-20632D02*
X38560Y-20632D01*
X38495Y-20707D01*
X38523Y-20707D01*
X38542Y-20717D01*
X38551Y-20726D01*
X38560Y-20745D01*
X38560Y-20792D01*
X38551Y-20810D01*
X38542Y-20820D01*
X38523Y-20829D01*
X38467Y-20829D01*
X38448Y-20820D01*
X38439Y-20810D01*
X38626Y-20632D02*
X38757Y-20632D01*
X38673Y-20829D01*
X38729Y-21523D02*
X38729Y-21636D01*
X38729Y-21579D02*
X38532Y-21579D01*
X38560Y-21598D01*
X38579Y-21617D01*
X38589Y-21636D01*
X38729Y-21439D02*
X38532Y-21439D01*
X38654Y-21420D02*
X38729Y-21363D01*
X38598Y-21363D02*
X38673Y-21439D01*
X36579Y-17876D02*
X36485Y-17942D01*
X36579Y-17989D02*
X36382Y-17989D01*
X36382Y-17914D01*
X36392Y-17895D01*
X36401Y-17886D01*
X36420Y-17876D01*
X36448Y-17876D01*
X36467Y-17886D01*
X36476Y-17895D01*
X36485Y-17914D01*
X36485Y-17989D01*
X36382Y-17810D02*
X36382Y-17689D01*
X36457Y-17754D01*
X36457Y-17726D01*
X36467Y-17707D01*
X36476Y-17698D01*
X36495Y-17689D01*
X36542Y-17689D01*
X36560Y-17698D01*
X36570Y-17707D01*
X36579Y-17726D01*
X36579Y-17782D01*
X36570Y-17801D01*
X36560Y-17810D01*
X36382Y-17510D02*
X36382Y-17604D01*
X36476Y-17613D01*
X36467Y-17604D01*
X36457Y-17585D01*
X36457Y-17538D01*
X36467Y-17520D01*
X36476Y-17510D01*
X36495Y-17501D01*
X36542Y-17501D01*
X36560Y-17510D01*
X36570Y-17520D01*
X36579Y-17538D01*
X36579Y-17585D01*
X36570Y-17604D01*
X36560Y-17613D01*
X36929Y-17773D02*
X36929Y-17886D01*
X36929Y-17829D02*
X36732Y-17829D01*
X36760Y-17848D01*
X36779Y-17867D01*
X36789Y-17886D01*
X36929Y-17689D02*
X36732Y-17689D01*
X36854Y-17670D02*
X36929Y-17613D01*
X36798Y-17613D02*
X36873Y-17689D01*
X32579Y-21126D02*
X32485Y-21192D01*
X32579Y-21239D02*
X32382Y-21239D01*
X32382Y-21164D01*
X32392Y-21145D01*
X32401Y-21136D01*
X32420Y-21126D01*
X32448Y-21126D01*
X32467Y-21136D01*
X32476Y-21145D01*
X32485Y-21164D01*
X32485Y-21239D01*
X32382Y-21060D02*
X32382Y-20939D01*
X32457Y-21004D01*
X32457Y-20976D01*
X32467Y-20957D01*
X32476Y-20948D01*
X32495Y-20939D01*
X32542Y-20939D01*
X32560Y-20948D01*
X32570Y-20957D01*
X32579Y-20976D01*
X32579Y-21032D01*
X32570Y-21051D01*
X32560Y-21060D01*
X32467Y-20826D02*
X32457Y-20845D01*
X32448Y-20854D01*
X32429Y-20863D01*
X32420Y-20863D01*
X32401Y-20854D01*
X32392Y-20845D01*
X32382Y-20826D01*
X32382Y-20788D01*
X32392Y-20770D01*
X32401Y-20760D01*
X32420Y-20751D01*
X32429Y-20751D01*
X32448Y-20760D01*
X32457Y-20770D01*
X32467Y-20788D01*
X32467Y-20826D01*
X32476Y-20845D01*
X32485Y-20854D01*
X32504Y-20863D01*
X32542Y-20863D01*
X32560Y-20854D01*
X32570Y-20845D01*
X32579Y-20826D01*
X32579Y-20788D01*
X32570Y-20770D01*
X32560Y-20760D01*
X32542Y-20751D01*
X32504Y-20751D01*
X32485Y-20760D01*
X32476Y-20770D01*
X32467Y-20788D01*
X32929Y-21023D02*
X32929Y-21136D01*
X32929Y-21079D02*
X32732Y-21079D01*
X32760Y-21098D01*
X32779Y-21117D01*
X32789Y-21136D01*
X32929Y-20939D02*
X32732Y-20939D01*
X32854Y-20920D02*
X32929Y-20863D01*
X32798Y-20863D02*
X32873Y-20939D01*
X33079Y-17876D02*
X32985Y-17942D01*
X33079Y-17989D02*
X32882Y-17989D01*
X32882Y-17914D01*
X32892Y-17895D01*
X32901Y-17886D01*
X32920Y-17876D01*
X32948Y-17876D01*
X32967Y-17886D01*
X32976Y-17895D01*
X32985Y-17914D01*
X32985Y-17989D01*
X32882Y-17810D02*
X32882Y-17689D01*
X32957Y-17754D01*
X32957Y-17726D01*
X32967Y-17707D01*
X32976Y-17698D01*
X32995Y-17689D01*
X33042Y-17689D01*
X33060Y-17698D01*
X33070Y-17707D01*
X33079Y-17726D01*
X33079Y-17782D01*
X33070Y-17801D01*
X33060Y-17810D01*
X32882Y-17520D02*
X32882Y-17557D01*
X32892Y-17576D01*
X32901Y-17585D01*
X32929Y-17604D01*
X32967Y-17613D01*
X33042Y-17613D01*
X33060Y-17604D01*
X33070Y-17595D01*
X33079Y-17576D01*
X33079Y-17538D01*
X33070Y-17520D01*
X33060Y-17510D01*
X33042Y-17501D01*
X32995Y-17501D01*
X32976Y-17510D01*
X32967Y-17520D01*
X32957Y-17538D01*
X32957Y-17576D01*
X32967Y-17595D01*
X32976Y-17604D01*
X32995Y-17613D01*
X33429Y-17773D02*
X33429Y-17886D01*
X33429Y-17829D02*
X33232Y-17829D01*
X33260Y-17848D01*
X33279Y-17867D01*
X33289Y-17886D01*
X33429Y-17689D02*
X33232Y-17689D01*
X33354Y-17670D02*
X33429Y-17613D01*
X33298Y-17613D02*
X33373Y-17689D01*
X28079Y-24126D02*
X27985Y-24192D01*
X28079Y-24239D02*
X27882Y-24239D01*
X27882Y-24164D01*
X27892Y-24145D01*
X27901Y-24136D01*
X27920Y-24126D01*
X27948Y-24126D01*
X27967Y-24136D01*
X27976Y-24145D01*
X27985Y-24164D01*
X27985Y-24239D01*
X28079Y-23939D02*
X28079Y-24051D01*
X28079Y-23995D02*
X27882Y-23995D01*
X27910Y-24014D01*
X27929Y-24032D01*
X27939Y-24051D01*
X27882Y-23873D02*
X27882Y-23751D01*
X27957Y-23817D01*
X27957Y-23788D01*
X27967Y-23770D01*
X27976Y-23760D01*
X27995Y-23751D01*
X28042Y-23751D01*
X28060Y-23760D01*
X28070Y-23770D01*
X28079Y-23788D01*
X28079Y-23845D01*
X28070Y-23863D01*
X28060Y-23873D01*
X28976Y-23929D02*
X28863Y-23929D01*
X28920Y-23929D02*
X28920Y-23732D01*
X28901Y-23760D01*
X28882Y-23779D01*
X28863Y-23789D01*
X29060Y-23929D02*
X29060Y-23732D01*
X29079Y-23854D02*
X29136Y-23929D01*
X29136Y-23798D02*
X29060Y-23873D01*
X28079Y-18376D02*
X27985Y-18442D01*
X28079Y-18489D02*
X27882Y-18489D01*
X27882Y-18414D01*
X27892Y-18395D01*
X27901Y-18386D01*
X27920Y-18376D01*
X27948Y-18376D01*
X27967Y-18386D01*
X27976Y-18395D01*
X27985Y-18414D01*
X27985Y-18489D01*
X27901Y-18301D02*
X27892Y-18292D01*
X27882Y-18273D01*
X27882Y-18226D01*
X27892Y-18207D01*
X27901Y-18198D01*
X27920Y-18189D01*
X27939Y-18189D01*
X27967Y-18198D01*
X28079Y-18310D01*
X28079Y-18189D01*
X27882Y-18067D02*
X27882Y-18048D01*
X27892Y-18029D01*
X27901Y-18020D01*
X27920Y-18010D01*
X27957Y-18001D01*
X28004Y-18001D01*
X28042Y-18010D01*
X28060Y-18020D01*
X28070Y-18029D01*
X28079Y-18048D01*
X28079Y-18067D01*
X28070Y-18085D01*
X28060Y-18095D01*
X28042Y-18104D01*
X28004Y-18113D01*
X27957Y-18113D01*
X27920Y-18104D01*
X27901Y-18095D01*
X27892Y-18085D01*
X27882Y-18067D01*
X28729Y-18273D02*
X28729Y-18386D01*
X28729Y-18329D02*
X28532Y-18329D01*
X28560Y-18348D01*
X28579Y-18367D01*
X28589Y-18386D01*
X28729Y-18189D02*
X28532Y-18189D01*
X28654Y-18170D02*
X28729Y-18113D01*
X28598Y-18113D02*
X28673Y-18189D01*
X30079Y-18376D02*
X29985Y-18442D01*
X30079Y-18489D02*
X29882Y-18489D01*
X29882Y-18414D01*
X29892Y-18395D01*
X29901Y-18386D01*
X29920Y-18376D01*
X29948Y-18376D01*
X29967Y-18386D01*
X29976Y-18395D01*
X29985Y-18414D01*
X29985Y-18489D01*
X29901Y-18301D02*
X29892Y-18292D01*
X29882Y-18273D01*
X29882Y-18226D01*
X29892Y-18207D01*
X29901Y-18198D01*
X29920Y-18189D01*
X29939Y-18189D01*
X29967Y-18198D01*
X30079Y-18310D01*
X30079Y-18189D01*
X29948Y-18020D02*
X30079Y-18020D01*
X29873Y-18067D02*
X30014Y-18113D01*
X30014Y-17992D01*
X29551Y-18493D02*
X29542Y-18484D01*
X29532Y-18465D01*
X29532Y-18418D01*
X29542Y-18400D01*
X29551Y-18390D01*
X29570Y-18381D01*
X29589Y-18381D01*
X29617Y-18390D01*
X29729Y-18503D01*
X29729Y-18381D01*
X29551Y-18306D02*
X29542Y-18296D01*
X29532Y-18278D01*
X29532Y-18231D01*
X29542Y-18212D01*
X29551Y-18203D01*
X29570Y-18193D01*
X29589Y-18193D01*
X29617Y-18203D01*
X29729Y-18315D01*
X29729Y-18193D01*
X29532Y-18071D02*
X29532Y-18053D01*
X29542Y-18034D01*
X29551Y-18024D01*
X29570Y-18015D01*
X29607Y-18006D01*
X29654Y-18006D01*
X29692Y-18015D01*
X29710Y-18024D01*
X29720Y-18034D01*
X29729Y-18053D01*
X29729Y-18071D01*
X29720Y-18090D01*
X29710Y-18099D01*
X29692Y-18109D01*
X29654Y-18118D01*
X29607Y-18118D01*
X29570Y-18109D01*
X29551Y-18099D01*
X29542Y-18090D01*
X29532Y-18071D01*
X25579Y-17626D02*
X25485Y-17692D01*
X25579Y-17739D02*
X25382Y-17739D01*
X25382Y-17664D01*
X25392Y-17645D01*
X25401Y-17636D01*
X25420Y-17626D01*
X25448Y-17626D01*
X25467Y-17636D01*
X25476Y-17645D01*
X25485Y-17664D01*
X25485Y-17739D01*
X25401Y-17551D02*
X25392Y-17542D01*
X25382Y-17523D01*
X25382Y-17476D01*
X25392Y-17457D01*
X25401Y-17448D01*
X25420Y-17439D01*
X25439Y-17439D01*
X25467Y-17448D01*
X25579Y-17560D01*
X25579Y-17439D01*
X25382Y-17270D02*
X25382Y-17307D01*
X25392Y-17326D01*
X25401Y-17335D01*
X25429Y-17354D01*
X25467Y-17363D01*
X25542Y-17363D01*
X25560Y-17354D01*
X25570Y-17345D01*
X25579Y-17326D01*
X25579Y-17288D01*
X25570Y-17270D01*
X25560Y-17260D01*
X25542Y-17251D01*
X25495Y-17251D01*
X25476Y-17260D01*
X25467Y-17270D01*
X25457Y-17288D01*
X25457Y-17326D01*
X25467Y-17345D01*
X25476Y-17354D01*
X25495Y-17363D01*
X26229Y-17523D02*
X26229Y-17636D01*
X26229Y-17579D02*
X26032Y-17579D01*
X26060Y-17598D01*
X26079Y-17617D01*
X26089Y-17636D01*
X26229Y-17439D02*
X26032Y-17439D01*
X26154Y-17420D02*
X26229Y-17363D01*
X26098Y-17363D02*
X26173Y-17439D01*
X27579Y-17626D02*
X27485Y-17692D01*
X27579Y-17739D02*
X27382Y-17739D01*
X27382Y-17664D01*
X27392Y-17645D01*
X27401Y-17636D01*
X27420Y-17626D01*
X27448Y-17626D01*
X27467Y-17636D01*
X27476Y-17645D01*
X27485Y-17664D01*
X27485Y-17739D01*
X27401Y-17551D02*
X27392Y-17542D01*
X27382Y-17523D01*
X27382Y-17476D01*
X27392Y-17457D01*
X27401Y-17448D01*
X27420Y-17439D01*
X27439Y-17439D01*
X27467Y-17448D01*
X27579Y-17560D01*
X27579Y-17439D01*
X27382Y-17260D02*
X27382Y-17354D01*
X27476Y-17363D01*
X27467Y-17354D01*
X27457Y-17335D01*
X27457Y-17288D01*
X27467Y-17270D01*
X27476Y-17260D01*
X27495Y-17251D01*
X27542Y-17251D01*
X27560Y-17260D01*
X27570Y-17270D01*
X27579Y-17288D01*
X27579Y-17335D01*
X27570Y-17354D01*
X27560Y-17363D01*
X27229Y-17523D02*
X27229Y-17636D01*
X27229Y-17579D02*
X27032Y-17579D01*
X27060Y-17598D01*
X27079Y-17617D01*
X27089Y-17636D01*
X27229Y-17439D02*
X27032Y-17439D01*
X27154Y-17420D02*
X27229Y-17363D01*
X27098Y-17363D02*
X27173Y-17439D01*
G54D14*
X39661Y-18545D02*
X39261Y-18545D01*
X39261Y-18392D01*
X39280Y-18354D01*
X39300Y-18335D01*
X39338Y-18316D01*
X39395Y-18316D01*
X39433Y-18335D01*
X39452Y-18354D01*
X39471Y-18392D01*
X39471Y-18545D01*
X39661Y-17935D02*
X39661Y-18164D01*
X39661Y-18049D02*
X39261Y-18049D01*
X39319Y-18088D01*
X39357Y-18126D01*
X39376Y-18164D01*
G54D13*
X29778Y-24621D02*
X29778Y-24321D01*
X29850Y-24321D01*
X29892Y-24335D01*
X29921Y-24364D01*
X29935Y-24392D01*
X29950Y-24450D01*
X29950Y-24492D01*
X29935Y-24550D01*
X29921Y-24578D01*
X29892Y-24607D01*
X29850Y-24621D01*
X29778Y-24621D01*
X30050Y-24321D02*
X30250Y-24321D01*
X30121Y-24621D01*
X30621Y-25692D02*
X30621Y-25835D01*
X30321Y-25835D01*
X30464Y-25592D02*
X30464Y-25492D01*
X30621Y-25450D02*
X30621Y-25592D01*
X30321Y-25592D01*
X30321Y-25450D01*
X30621Y-25321D02*
X30321Y-25321D01*
X30321Y-25250D01*
X30335Y-25207D01*
X30364Y-25178D01*
X30392Y-25164D01*
X30450Y-25150D01*
X30492Y-25150D01*
X30550Y-25164D01*
X30578Y-25178D01*
X30607Y-25207D01*
X30621Y-25250D01*
X30621Y-25321D01*
X35635Y-24621D02*
X35635Y-24321D01*
X35707Y-24321D01*
X35750Y-24335D01*
X35778Y-24364D01*
X35792Y-24392D01*
X35807Y-24450D01*
X35807Y-24492D01*
X35792Y-24550D01*
X35778Y-24578D01*
X35750Y-24607D01*
X35707Y-24621D01*
X35635Y-24621D01*
X36092Y-24621D02*
X35921Y-24621D01*
X36007Y-24621D02*
X36007Y-24321D01*
X35978Y-24364D01*
X35950Y-24392D01*
X35921Y-24407D01*
X36278Y-24321D02*
X36307Y-24321D01*
X36335Y-24335D01*
X36350Y-24350D01*
X36364Y-24378D01*
X36378Y-24435D01*
X36378Y-24507D01*
X36364Y-24564D01*
X36350Y-24592D01*
X36335Y-24607D01*
X36307Y-24621D01*
X36278Y-24621D01*
X36250Y-24607D01*
X36235Y-24592D01*
X36221Y-24564D01*
X36207Y-24507D01*
X36207Y-24435D01*
X36221Y-24378D01*
X36235Y-24350D01*
X36250Y-24335D01*
X36278Y-24321D01*
X36621Y-25692D02*
X36621Y-25835D01*
X36321Y-25835D01*
X36464Y-25592D02*
X36464Y-25492D01*
X36621Y-25450D02*
X36621Y-25592D01*
X36321Y-25592D01*
X36321Y-25450D01*
X36621Y-25321D02*
X36321Y-25321D01*
X36321Y-25250D01*
X36335Y-25207D01*
X36364Y-25178D01*
X36392Y-25164D01*
X36450Y-25150D01*
X36492Y-25150D01*
X36550Y-25164D01*
X36578Y-25178D01*
X36607Y-25207D01*
X36621Y-25250D01*
X36621Y-25321D01*
X25121Y-25721D02*
X24821Y-25721D01*
X24821Y-25650D01*
X24835Y-25607D01*
X24864Y-25578D01*
X24892Y-25564D01*
X24950Y-25550D01*
X24992Y-25550D01*
X25050Y-25564D01*
X25078Y-25578D01*
X25107Y-25607D01*
X25121Y-25650D01*
X25121Y-25721D01*
X24850Y-25435D02*
X24835Y-25421D01*
X24821Y-25392D01*
X24821Y-25321D01*
X24835Y-25292D01*
X24850Y-25278D01*
X24878Y-25264D01*
X24907Y-25264D01*
X24950Y-25278D01*
X25121Y-25450D01*
X25121Y-25264D01*
X24121Y-25692D02*
X24121Y-25835D01*
X23821Y-25835D01*
X23964Y-25592D02*
X23964Y-25492D01*
X24121Y-25450D02*
X24121Y-25592D01*
X23821Y-25592D01*
X23821Y-25450D01*
X24121Y-25321D02*
X23821Y-25321D01*
X23821Y-25250D01*
X23835Y-25207D01*
X23864Y-25178D01*
X23892Y-25164D01*
X23950Y-25150D01*
X23992Y-25150D01*
X24050Y-25164D01*
X24078Y-25178D01*
X24107Y-25207D01*
X24121Y-25250D01*
X24121Y-25321D01*
X23121Y-25721D02*
X22821Y-25721D01*
X22821Y-25650D01*
X22835Y-25607D01*
X22864Y-25578D01*
X22892Y-25564D01*
X22950Y-25550D01*
X22992Y-25550D01*
X23050Y-25564D01*
X23078Y-25578D01*
X23107Y-25607D01*
X23121Y-25650D01*
X23121Y-25721D01*
X22821Y-25450D02*
X22821Y-25264D01*
X22935Y-25364D01*
X22935Y-25321D01*
X22950Y-25292D01*
X22964Y-25278D01*
X22992Y-25264D01*
X23064Y-25264D01*
X23092Y-25278D01*
X23107Y-25292D01*
X23121Y-25321D01*
X23121Y-25407D01*
X23107Y-25435D01*
X23092Y-25450D01*
X22121Y-25692D02*
X22121Y-25835D01*
X21821Y-25835D01*
X21964Y-25592D02*
X21964Y-25492D01*
X22121Y-25450D02*
X22121Y-25592D01*
X21821Y-25592D01*
X21821Y-25450D01*
X22121Y-25321D02*
X21821Y-25321D01*
X21821Y-25250D01*
X21835Y-25207D01*
X21864Y-25178D01*
X21892Y-25164D01*
X21950Y-25150D01*
X21992Y-25150D01*
X22050Y-25164D01*
X22078Y-25178D01*
X22107Y-25207D01*
X22121Y-25250D01*
X22121Y-25321D01*
X17871Y-20221D02*
X17571Y-20221D01*
X17571Y-20150D01*
X17585Y-20107D01*
X17614Y-20078D01*
X17642Y-20064D01*
X17700Y-20050D01*
X17742Y-20050D01*
X17800Y-20064D01*
X17828Y-20078D01*
X17857Y-20107D01*
X17871Y-20150D01*
X17871Y-20221D01*
X17871Y-19764D02*
X17871Y-19935D01*
X17871Y-19850D02*
X17571Y-19850D01*
X17614Y-19878D01*
X17642Y-19907D01*
X17657Y-19935D01*
X16871Y-20192D02*
X16871Y-20335D01*
X16571Y-20335D01*
X16714Y-20092D02*
X16714Y-19992D01*
X16871Y-19950D02*
X16871Y-20092D01*
X16571Y-20092D01*
X16571Y-19950D01*
X16871Y-19821D02*
X16571Y-19821D01*
X16571Y-19750D01*
X16585Y-19707D01*
X16614Y-19678D01*
X16642Y-19664D01*
X16700Y-19650D01*
X16742Y-19650D01*
X16800Y-19664D01*
X16828Y-19678D01*
X16857Y-19707D01*
X16871Y-19750D01*
X16871Y-19821D01*
X18121Y-24614D02*
X17821Y-24614D01*
X17821Y-24542D01*
X17835Y-24500D01*
X17864Y-24471D01*
X17892Y-24457D01*
X17950Y-24442D01*
X17992Y-24442D01*
X18050Y-24457D01*
X18078Y-24471D01*
X18107Y-24500D01*
X18121Y-24542D01*
X18121Y-24614D01*
X18121Y-24157D02*
X18121Y-24328D01*
X18121Y-24242D02*
X17821Y-24242D01*
X17864Y-24271D01*
X17892Y-24300D01*
X17907Y-24328D01*
X17850Y-24042D02*
X17835Y-24028D01*
X17821Y-24000D01*
X17821Y-23928D01*
X17835Y-23900D01*
X17850Y-23885D01*
X17878Y-23871D01*
X17907Y-23871D01*
X17950Y-23885D01*
X18121Y-24057D01*
X18121Y-23871D01*
X19121Y-25692D02*
X19121Y-25835D01*
X18821Y-25835D01*
X18964Y-25592D02*
X18964Y-25492D01*
X19121Y-25450D02*
X19121Y-25592D01*
X18821Y-25592D01*
X18821Y-25450D01*
X19121Y-25321D02*
X18821Y-25321D01*
X18821Y-25250D01*
X18835Y-25207D01*
X18864Y-25178D01*
X18892Y-25164D01*
X18950Y-25150D01*
X18992Y-25150D01*
X19050Y-25164D01*
X19078Y-25178D01*
X19107Y-25207D01*
X19121Y-25250D01*
X19121Y-25321D01*
X32121Y-24614D02*
X31821Y-24614D01*
X31821Y-24542D01*
X31835Y-24500D01*
X31864Y-24471D01*
X31892Y-24457D01*
X31950Y-24442D01*
X31992Y-24442D01*
X32050Y-24457D01*
X32078Y-24471D01*
X32107Y-24500D01*
X32121Y-24542D01*
X32121Y-24614D01*
X32121Y-24157D02*
X32121Y-24328D01*
X32121Y-24242D02*
X31821Y-24242D01*
X31864Y-24271D01*
X31892Y-24300D01*
X31907Y-24328D01*
X32121Y-23871D02*
X32121Y-24042D01*
X32121Y-23957D02*
X31821Y-23957D01*
X31864Y-23985D01*
X31892Y-24014D01*
X31907Y-24042D01*
X31621Y-25692D02*
X31621Y-25835D01*
X31321Y-25835D01*
X31464Y-25592D02*
X31464Y-25492D01*
X31621Y-25450D02*
X31621Y-25592D01*
X31321Y-25592D01*
X31321Y-25450D01*
X31621Y-25321D02*
X31321Y-25321D01*
X31321Y-25250D01*
X31335Y-25207D01*
X31364Y-25178D01*
X31392Y-25164D01*
X31450Y-25150D01*
X31492Y-25150D01*
X31550Y-25164D01*
X31578Y-25178D01*
X31607Y-25207D01*
X31621Y-25250D01*
X31621Y-25321D01*
X21121Y-25721D02*
X20821Y-25721D01*
X20821Y-25650D01*
X20835Y-25607D01*
X20864Y-25578D01*
X20892Y-25564D01*
X20950Y-25550D01*
X20992Y-25550D01*
X21050Y-25564D01*
X21078Y-25578D01*
X21107Y-25607D01*
X21121Y-25650D01*
X21121Y-25721D01*
X20921Y-25292D02*
X21121Y-25292D01*
X20807Y-25364D02*
X21021Y-25435D01*
X21021Y-25250D01*
X20121Y-25692D02*
X20121Y-25835D01*
X19821Y-25835D01*
X19964Y-25592D02*
X19964Y-25492D01*
X20121Y-25450D02*
X20121Y-25592D01*
X19821Y-25592D01*
X19821Y-25450D01*
X20121Y-25321D02*
X19821Y-25321D01*
X19821Y-25250D01*
X19835Y-25207D01*
X19864Y-25178D01*
X19892Y-25164D01*
X19950Y-25150D01*
X19992Y-25150D01*
X20050Y-25164D01*
X20078Y-25178D01*
X20107Y-25207D01*
X20121Y-25250D01*
X20121Y-25321D01*
X27778Y-24621D02*
X27778Y-24321D01*
X27850Y-24321D01*
X27892Y-24335D01*
X27921Y-24364D01*
X27935Y-24392D01*
X27950Y-24450D01*
X27950Y-24492D01*
X27935Y-24550D01*
X27921Y-24578D01*
X27892Y-24607D01*
X27850Y-24621D01*
X27778Y-24621D01*
X28207Y-24321D02*
X28150Y-24321D01*
X28121Y-24335D01*
X28107Y-24350D01*
X28078Y-24392D01*
X28064Y-24450D01*
X28064Y-24564D01*
X28078Y-24592D01*
X28092Y-24607D01*
X28121Y-24621D01*
X28178Y-24621D01*
X28207Y-24607D01*
X28221Y-24592D01*
X28235Y-24564D01*
X28235Y-24492D01*
X28221Y-24464D01*
X28207Y-24450D01*
X28178Y-24435D01*
X28121Y-24435D01*
X28092Y-24450D01*
X28078Y-24464D01*
X28064Y-24492D01*
X27621Y-25692D02*
X27621Y-25835D01*
X27321Y-25835D01*
X27464Y-25592D02*
X27464Y-25492D01*
X27621Y-25450D02*
X27621Y-25592D01*
X27321Y-25592D01*
X27321Y-25450D01*
X27621Y-25321D02*
X27321Y-25321D01*
X27321Y-25250D01*
X27335Y-25207D01*
X27364Y-25178D01*
X27392Y-25164D01*
X27450Y-25150D01*
X27492Y-25150D01*
X27550Y-25164D01*
X27578Y-25178D01*
X27607Y-25207D01*
X27621Y-25250D01*
X27621Y-25321D01*
X38121Y-24614D02*
X37821Y-24614D01*
X37821Y-24542D01*
X37835Y-24500D01*
X37864Y-24471D01*
X37892Y-24457D01*
X37950Y-24442D01*
X37992Y-24442D01*
X38050Y-24457D01*
X38078Y-24471D01*
X38107Y-24500D01*
X38121Y-24542D01*
X38121Y-24614D01*
X38121Y-24157D02*
X38121Y-24328D01*
X38121Y-24242D02*
X37821Y-24242D01*
X37864Y-24271D01*
X37892Y-24300D01*
X37907Y-24328D01*
X37821Y-24057D02*
X37821Y-23871D01*
X37935Y-23971D01*
X37935Y-23928D01*
X37950Y-23900D01*
X37964Y-23885D01*
X37992Y-23871D01*
X38064Y-23871D01*
X38092Y-23885D01*
X38107Y-23900D01*
X38121Y-23928D01*
X38121Y-24014D01*
X38107Y-24042D01*
X38092Y-24057D01*
X38621Y-25692D02*
X38621Y-25835D01*
X38321Y-25835D01*
X38464Y-25592D02*
X38464Y-25492D01*
X38621Y-25450D02*
X38621Y-25592D01*
X38321Y-25592D01*
X38321Y-25450D01*
X38621Y-25321D02*
X38321Y-25321D01*
X38321Y-25250D01*
X38335Y-25207D01*
X38364Y-25178D01*
X38392Y-25164D01*
X38450Y-25150D01*
X38492Y-25150D01*
X38550Y-25164D01*
X38578Y-25178D01*
X38607Y-25207D01*
X38621Y-25250D01*
X38621Y-25321D01*
X34121Y-24614D02*
X33821Y-24614D01*
X33821Y-24542D01*
X33835Y-24500D01*
X33864Y-24471D01*
X33892Y-24457D01*
X33950Y-24442D01*
X33992Y-24442D01*
X34050Y-24457D01*
X34078Y-24471D01*
X34107Y-24500D01*
X34121Y-24542D01*
X34121Y-24614D01*
X34121Y-24157D02*
X34121Y-24328D01*
X34121Y-24242D02*
X33821Y-24242D01*
X33864Y-24271D01*
X33892Y-24300D01*
X33907Y-24328D01*
X33921Y-23900D02*
X34121Y-23900D01*
X33807Y-23971D02*
X34021Y-24042D01*
X34021Y-23857D01*
X33621Y-25692D02*
X33621Y-25835D01*
X33321Y-25835D01*
X33464Y-25592D02*
X33464Y-25492D01*
X33621Y-25450D02*
X33621Y-25592D01*
X33321Y-25592D01*
X33321Y-25450D01*
X33621Y-25321D02*
X33321Y-25321D01*
X33321Y-25250D01*
X33335Y-25207D01*
X33364Y-25178D01*
X33392Y-25164D01*
X33450Y-25150D01*
X33492Y-25150D01*
X33550Y-25164D01*
X33578Y-25178D01*
X33607Y-25207D01*
X33621Y-25250D01*
X33621Y-25321D01*
G54D23*
X28373Y-13235D02*
X28392Y-13254D01*
X28411Y-13311D01*
X28411Y-13350D01*
X28392Y-13407D01*
X28354Y-13445D01*
X28316Y-13464D01*
X28240Y-13483D01*
X28183Y-13483D01*
X28107Y-13464D01*
X28069Y-13445D01*
X28030Y-13407D01*
X28011Y-13350D01*
X28011Y-13311D01*
X28030Y-13254D01*
X28050Y-13235D01*
X28011Y-12988D02*
X28011Y-12911D01*
X28030Y-12873D01*
X28069Y-12835D01*
X28145Y-12816D01*
X28278Y-12816D01*
X28354Y-12835D01*
X28392Y-12873D01*
X28411Y-12911D01*
X28411Y-12988D01*
X28392Y-13026D01*
X28354Y-13064D01*
X28278Y-13083D01*
X28145Y-13083D01*
X28069Y-13064D01*
X28030Y-13026D01*
X28011Y-12988D01*
X28411Y-12645D02*
X28011Y-12645D01*
X28411Y-12416D01*
X28011Y-12416D01*
X28411Y-12016D02*
X28411Y-12245D01*
X28411Y-12130D02*
X28011Y-12130D01*
X28069Y-12169D01*
X28107Y-12207D01*
X28126Y-12245D01*
X28252Y-9511D02*
X28271Y-9454D01*
X28290Y-9435D01*
X28328Y-9416D01*
X28385Y-9416D01*
X28423Y-9435D01*
X28442Y-9454D01*
X28461Y-9492D01*
X28461Y-9645D01*
X28061Y-9645D01*
X28061Y-9511D01*
X28080Y-9473D01*
X28100Y-9454D01*
X28138Y-9435D01*
X28176Y-9435D01*
X28214Y-9454D01*
X28233Y-9473D01*
X28252Y-9511D01*
X28252Y-9645D01*
X28347Y-9264D02*
X28347Y-9073D01*
X28461Y-9302D02*
X28061Y-9169D01*
X28461Y-9035D01*
X28461Y-8673D02*
X28271Y-8807D01*
X28461Y-8902D02*
X28061Y-8902D01*
X28061Y-8750D01*
X28080Y-8711D01*
X28100Y-8692D01*
X28138Y-8673D01*
X28195Y-8673D01*
X28233Y-8692D01*
X28252Y-8711D01*
X28271Y-8750D01*
X28271Y-8902D01*
X28461Y-8273D02*
X28271Y-8407D01*
X28461Y-8502D02*
X28061Y-8502D01*
X28061Y-8350D01*
X28080Y-8311D01*
X28100Y-8292D01*
X28138Y-8273D01*
X28195Y-8273D01*
X28233Y-8292D01*
X28252Y-8311D01*
X28271Y-8350D01*
X28271Y-8502D01*
X28252Y-8102D02*
X28252Y-7969D01*
X28461Y-7911D02*
X28461Y-8102D01*
X28061Y-8102D01*
X28061Y-7911D01*
X28461Y-7550D02*
X28461Y-7740D01*
X28061Y-7740D01*
X28500Y-7511D02*
X28500Y-7207D01*
X28061Y-6997D02*
X28347Y-6997D01*
X28404Y-7016D01*
X28442Y-7054D01*
X28461Y-7111D01*
X28461Y-7150D01*
X28347Y-6826D02*
X28347Y-6635D01*
X28461Y-6864D02*
X28061Y-6730D01*
X28461Y-6597D01*
X28423Y-6235D02*
X28442Y-6254D01*
X28461Y-6311D01*
X28461Y-6350D01*
X28442Y-6407D01*
X28404Y-6445D01*
X28366Y-6464D01*
X28290Y-6483D01*
X28233Y-6483D01*
X28157Y-6464D01*
X28119Y-6445D01*
X28080Y-6407D01*
X28061Y-6350D01*
X28061Y-6311D01*
X28080Y-6254D01*
X28100Y-6235D01*
X28461Y-6064D02*
X28061Y-6064D01*
X28461Y-5835D02*
X28233Y-6007D01*
X28061Y-5835D02*
X28290Y-6064D01*
G54D21*
X20557Y-19742D02*
X20557Y-19142D01*
X20700Y-19142D01*
X20785Y-19171D01*
X20842Y-19228D01*
X20871Y-19285D01*
X20900Y-19400D01*
X20900Y-19485D01*
X20871Y-19600D01*
X20842Y-19657D01*
X20785Y-19714D01*
X20700Y-19742D01*
X20557Y-19742D01*
X21442Y-19142D02*
X21157Y-19142D01*
X21128Y-19428D01*
X21157Y-19400D01*
X21214Y-19371D01*
X21357Y-19371D01*
X21414Y-19400D01*
X21442Y-19428D01*
X21471Y-19485D01*
X21471Y-19628D01*
X21442Y-19685D01*
X21414Y-19714D01*
X21357Y-19742D01*
X21214Y-19742D01*
X21157Y-19714D01*
X21128Y-19685D01*
G54D15*
X20244Y-21133D02*
X20337Y-21133D01*
X20225Y-21189D02*
X20291Y-20992D01*
X20356Y-21189D01*
X21657Y-21189D02*
X21657Y-20992D01*
X21769Y-21189D02*
X21685Y-21077D01*
X21769Y-20992D02*
X21657Y-21105D01*
G54D24*
X33949Y-7515D02*
X33949Y-7834D01*
X33968Y-7871D01*
X33987Y-7890D01*
X34024Y-7909D01*
X34099Y-7909D01*
X34137Y-7890D01*
X34156Y-7871D01*
X34174Y-7834D01*
X34174Y-7515D01*
X34568Y-7909D02*
X34343Y-7909D01*
X34456Y-7909D02*
X34456Y-7515D01*
X34418Y-7571D01*
X34381Y-7609D01*
X34343Y-7628D01*
X33228Y-10731D02*
X32834Y-10731D01*
X33115Y-10600D01*
X32834Y-10468D01*
X33228Y-10468D01*
X33190Y-10056D02*
X33209Y-10074D01*
X33228Y-10131D01*
X33228Y-10168D01*
X33209Y-10224D01*
X33172Y-10262D01*
X33134Y-10281D01*
X33059Y-10300D01*
X33003Y-10300D01*
X32928Y-10281D01*
X32890Y-10262D01*
X32853Y-10224D01*
X32834Y-10168D01*
X32834Y-10131D01*
X32853Y-10074D01*
X32872Y-10056D01*
X32834Y-9924D02*
X32834Y-9662D01*
X33228Y-9830D01*
X33003Y-9455D02*
X32984Y-9493D01*
X32965Y-9512D01*
X32928Y-9530D01*
X32909Y-9530D01*
X32872Y-9512D01*
X32853Y-9493D01*
X32834Y-9455D01*
X32834Y-9380D01*
X32853Y-9343D01*
X32872Y-9324D01*
X32909Y-9305D01*
X32928Y-9305D01*
X32965Y-9324D01*
X32984Y-9343D01*
X33003Y-9380D01*
X33003Y-9455D01*
X33022Y-9493D01*
X33040Y-9512D01*
X33078Y-9530D01*
X33153Y-9530D01*
X33190Y-9512D01*
X33209Y-9493D01*
X33228Y-9455D01*
X33228Y-9380D01*
X33209Y-9343D01*
X33190Y-9324D01*
X33153Y-9305D01*
X33078Y-9305D01*
X33040Y-9324D01*
X33022Y-9343D01*
X33003Y-9380D01*
X33228Y-8949D02*
X33228Y-9136D01*
X32834Y-9136D01*
X32834Y-8742D02*
X32834Y-8705D01*
X32853Y-8667D01*
X32872Y-8648D01*
X32909Y-8630D01*
X32984Y-8611D01*
X33078Y-8611D01*
X33153Y-8630D01*
X33190Y-8648D01*
X33209Y-8667D01*
X33228Y-8705D01*
X33228Y-8742D01*
X33209Y-8780D01*
X33190Y-8799D01*
X33153Y-8817D01*
X33078Y-8836D01*
X32984Y-8836D01*
X32909Y-8817D01*
X32872Y-8799D01*
X32853Y-8780D01*
X32834Y-8742D01*
X33003Y-8386D02*
X32984Y-8423D01*
X32965Y-8442D01*
X32928Y-8461D01*
X32909Y-8461D01*
X32872Y-8442D01*
X32853Y-8423D01*
X32834Y-8386D01*
X32834Y-8311D01*
X32853Y-8273D01*
X32872Y-8254D01*
X32909Y-8236D01*
X32928Y-8236D01*
X32965Y-8254D01*
X32984Y-8273D01*
X33003Y-8311D01*
X33003Y-8386D01*
X33022Y-8423D01*
X33040Y-8442D01*
X33078Y-8461D01*
X33153Y-8461D01*
X33190Y-8442D01*
X33209Y-8423D01*
X33228Y-8386D01*
X33228Y-8311D01*
X33209Y-8273D01*
X33190Y-8254D01*
X33153Y-8236D01*
X33078Y-8236D01*
X33040Y-8254D01*
X33022Y-8273D01*
X33003Y-8311D01*
X33115Y-8086D02*
X33115Y-7898D01*
X33228Y-8123D02*
X32834Y-7992D01*
X33228Y-7860D01*
X33190Y-7504D02*
X33209Y-7523D01*
X33228Y-7579D01*
X33228Y-7617D01*
X33209Y-7673D01*
X33172Y-7710D01*
X33134Y-7729D01*
X33059Y-7748D01*
X33003Y-7748D01*
X32928Y-7729D01*
X32890Y-7710D01*
X32853Y-7673D01*
X32834Y-7617D01*
X32834Y-7579D01*
X32853Y-7523D01*
X32872Y-7504D01*
X33228Y-7335D02*
X32834Y-7335D01*
X33022Y-7335D02*
X33022Y-7110D01*
X33228Y-7110D02*
X32834Y-7110D01*
G54D25*
X34113Y-19317D02*
X34098Y-19346D01*
X34070Y-19374D01*
X34027Y-19417D01*
X34013Y-19446D01*
X34013Y-19474D01*
X34084Y-19460D02*
X34070Y-19489D01*
X34041Y-19517D01*
X33984Y-19531D01*
X33884Y-19531D01*
X33827Y-19517D01*
X33798Y-19489D01*
X33784Y-19460D01*
X33784Y-19403D01*
X33798Y-19374D01*
X33827Y-19346D01*
X33884Y-19331D01*
X33984Y-19331D01*
X34041Y-19346D01*
X34070Y-19374D01*
X34084Y-19403D01*
X34084Y-19460D01*
X33813Y-19217D02*
X33798Y-19203D01*
X33784Y-19174D01*
X33784Y-19103D01*
X33798Y-19074D01*
X33813Y-19060D01*
X33841Y-19046D01*
X33870Y-19046D01*
X33913Y-19060D01*
X34084Y-19231D01*
X34084Y-19046D01*
G54D15*
X34049Y-19226D02*
X34077Y-19235D01*
X34087Y-19245D01*
X34096Y-19264D01*
X34096Y-19292D01*
X34087Y-19310D01*
X34077Y-19320D01*
X34058Y-19329D01*
X33983Y-19329D01*
X33983Y-19132D01*
X34049Y-19132D01*
X34068Y-19142D01*
X34077Y-19151D01*
X34087Y-19170D01*
X34087Y-19189D01*
X34077Y-19207D01*
X34068Y-19217D01*
X34049Y-19226D01*
X33983Y-19226D01*
X34293Y-19310D02*
X34284Y-19320D01*
X34255Y-19329D01*
X34237Y-19329D01*
X34209Y-19320D01*
X34190Y-19301D01*
X34180Y-19282D01*
X34171Y-19245D01*
X34171Y-19217D01*
X34180Y-19179D01*
X34190Y-19160D01*
X34209Y-19142D01*
X34237Y-19132D01*
X34255Y-19132D01*
X34284Y-19142D01*
X34293Y-19151D01*
X34406Y-19217D02*
X34387Y-19207D01*
X34377Y-19198D01*
X34368Y-19179D01*
X34368Y-19170D01*
X34377Y-19151D01*
X34387Y-19142D01*
X34406Y-19132D01*
X34443Y-19132D01*
X34462Y-19142D01*
X34471Y-19151D01*
X34481Y-19170D01*
X34481Y-19179D01*
X34471Y-19198D01*
X34462Y-19207D01*
X34443Y-19217D01*
X34406Y-19217D01*
X34387Y-19226D01*
X34377Y-19235D01*
X34368Y-19254D01*
X34368Y-19292D01*
X34377Y-19310D01*
X34387Y-19320D01*
X34406Y-19329D01*
X34443Y-19329D01*
X34462Y-19320D01*
X34471Y-19310D01*
X34481Y-19292D01*
X34481Y-19254D01*
X34471Y-19235D01*
X34462Y-19226D01*
X34443Y-19217D01*
X34668Y-19329D02*
X34556Y-19329D01*
X34612Y-19329D02*
X34612Y-19132D01*
X34593Y-19160D01*
X34574Y-19179D01*
X34556Y-19189D01*
X34734Y-19132D02*
X34865Y-19132D01*
X34781Y-19329D01*
X34940Y-19254D02*
X35090Y-19254D01*
X35269Y-19198D02*
X35269Y-19329D01*
X35222Y-19123D02*
X35175Y-19264D01*
X35297Y-19264D01*
X35409Y-19132D02*
X35428Y-19132D01*
X35447Y-19142D01*
X35456Y-19151D01*
X35466Y-19170D01*
X35475Y-19207D01*
X35475Y-19254D01*
X35466Y-19292D01*
X35456Y-19310D01*
X35447Y-19320D01*
X35428Y-19329D01*
X35409Y-19329D01*
X35391Y-19320D01*
X35381Y-19310D01*
X35372Y-19292D01*
X35362Y-19254D01*
X35362Y-19207D01*
X35372Y-19170D01*
X35381Y-19151D01*
X35391Y-19142D01*
X35409Y-19132D01*
G54D25*
X30613Y-19317D02*
X30598Y-19346D01*
X30570Y-19374D01*
X30527Y-19417D01*
X30513Y-19446D01*
X30513Y-19474D01*
X30584Y-19460D02*
X30570Y-19489D01*
X30541Y-19517D01*
X30484Y-19531D01*
X30384Y-19531D01*
X30327Y-19517D01*
X30298Y-19489D01*
X30284Y-19460D01*
X30284Y-19403D01*
X30298Y-19374D01*
X30327Y-19346D01*
X30384Y-19331D01*
X30484Y-19331D01*
X30541Y-19346D01*
X30570Y-19374D01*
X30584Y-19403D01*
X30584Y-19460D01*
X30284Y-19231D02*
X30284Y-19046D01*
X30398Y-19146D01*
X30398Y-19103D01*
X30413Y-19074D01*
X30427Y-19060D01*
X30455Y-19046D01*
X30527Y-19046D01*
X30555Y-19060D01*
X30570Y-19074D01*
X30584Y-19103D01*
X30584Y-19189D01*
X30570Y-19217D01*
X30555Y-19231D01*
G54D15*
X30549Y-19226D02*
X30577Y-19235D01*
X30587Y-19245D01*
X30596Y-19264D01*
X30596Y-19292D01*
X30587Y-19310D01*
X30577Y-19320D01*
X30558Y-19329D01*
X30483Y-19329D01*
X30483Y-19132D01*
X30549Y-19132D01*
X30568Y-19142D01*
X30577Y-19151D01*
X30587Y-19170D01*
X30587Y-19189D01*
X30577Y-19207D01*
X30568Y-19217D01*
X30549Y-19226D01*
X30483Y-19226D01*
X30793Y-19310D02*
X30784Y-19320D01*
X30755Y-19329D01*
X30737Y-19329D01*
X30709Y-19320D01*
X30690Y-19301D01*
X30680Y-19282D01*
X30671Y-19245D01*
X30671Y-19217D01*
X30680Y-19179D01*
X30690Y-19160D01*
X30709Y-19142D01*
X30737Y-19132D01*
X30755Y-19132D01*
X30784Y-19142D01*
X30793Y-19151D01*
X30906Y-19217D02*
X30887Y-19207D01*
X30877Y-19198D01*
X30868Y-19179D01*
X30868Y-19170D01*
X30877Y-19151D01*
X30887Y-19142D01*
X30906Y-19132D01*
X30943Y-19132D01*
X30962Y-19142D01*
X30971Y-19151D01*
X30981Y-19170D01*
X30981Y-19179D01*
X30971Y-19198D01*
X30962Y-19207D01*
X30943Y-19217D01*
X30906Y-19217D01*
X30887Y-19226D01*
X30877Y-19235D01*
X30868Y-19254D01*
X30868Y-19292D01*
X30877Y-19310D01*
X30887Y-19320D01*
X30906Y-19329D01*
X30943Y-19329D01*
X30962Y-19320D01*
X30971Y-19310D01*
X30981Y-19292D01*
X30981Y-19254D01*
X30971Y-19235D01*
X30962Y-19226D01*
X30943Y-19217D01*
X31103Y-19132D02*
X31121Y-19132D01*
X31140Y-19142D01*
X31149Y-19151D01*
X31159Y-19170D01*
X31168Y-19207D01*
X31168Y-19254D01*
X31159Y-19292D01*
X31149Y-19310D01*
X31140Y-19320D01*
X31121Y-19329D01*
X31103Y-19329D01*
X31084Y-19320D01*
X31074Y-19310D01*
X31065Y-19292D01*
X31056Y-19254D01*
X31056Y-19207D01*
X31065Y-19170D01*
X31074Y-19151D01*
X31084Y-19142D01*
X31103Y-19132D01*
X31234Y-19132D02*
X31365Y-19132D01*
X31281Y-19329D01*
X31440Y-19254D02*
X31590Y-19254D01*
X31769Y-19198D02*
X31769Y-19329D01*
X31722Y-19123D02*
X31675Y-19264D01*
X31797Y-19264D01*
X31909Y-19132D02*
X31928Y-19132D01*
X31947Y-19142D01*
X31956Y-19151D01*
X31966Y-19170D01*
X31975Y-19207D01*
X31975Y-19254D01*
X31966Y-19292D01*
X31956Y-19310D01*
X31947Y-19320D01*
X31928Y-19329D01*
X31909Y-19329D01*
X31891Y-19320D01*
X31881Y-19310D01*
X31872Y-19292D01*
X31862Y-19254D01*
X31862Y-19207D01*
X31872Y-19170D01*
X31881Y-19151D01*
X31891Y-19142D01*
X31909Y-19132D01*
G54D25*
X35863Y-19317D02*
X35848Y-19346D01*
X35820Y-19374D01*
X35777Y-19417D01*
X35763Y-19446D01*
X35763Y-19474D01*
X35834Y-19460D02*
X35820Y-19489D01*
X35791Y-19517D01*
X35734Y-19531D01*
X35634Y-19531D01*
X35577Y-19517D01*
X35548Y-19489D01*
X35534Y-19460D01*
X35534Y-19403D01*
X35548Y-19374D01*
X35577Y-19346D01*
X35634Y-19331D01*
X35734Y-19331D01*
X35791Y-19346D01*
X35820Y-19374D01*
X35834Y-19403D01*
X35834Y-19460D01*
X35634Y-19074D02*
X35834Y-19074D01*
X35520Y-19146D02*
X35734Y-19217D01*
X35734Y-19031D01*
G54D15*
X35799Y-19226D02*
X35827Y-19235D01*
X35837Y-19245D01*
X35846Y-19264D01*
X35846Y-19292D01*
X35837Y-19310D01*
X35827Y-19320D01*
X35808Y-19329D01*
X35733Y-19329D01*
X35733Y-19132D01*
X35799Y-19132D01*
X35818Y-19142D01*
X35827Y-19151D01*
X35837Y-19170D01*
X35837Y-19189D01*
X35827Y-19207D01*
X35818Y-19217D01*
X35799Y-19226D01*
X35733Y-19226D01*
X36043Y-19310D02*
X36034Y-19320D01*
X36005Y-19329D01*
X35987Y-19329D01*
X35959Y-19320D01*
X35940Y-19301D01*
X35930Y-19282D01*
X35921Y-19245D01*
X35921Y-19217D01*
X35930Y-19179D01*
X35940Y-19160D01*
X35959Y-19142D01*
X35987Y-19132D01*
X36005Y-19132D01*
X36034Y-19142D01*
X36043Y-19151D01*
X36156Y-19217D02*
X36137Y-19207D01*
X36127Y-19198D01*
X36118Y-19179D01*
X36118Y-19170D01*
X36127Y-19151D01*
X36137Y-19142D01*
X36156Y-19132D01*
X36193Y-19132D01*
X36212Y-19142D01*
X36221Y-19151D01*
X36231Y-19170D01*
X36231Y-19179D01*
X36221Y-19198D01*
X36212Y-19207D01*
X36193Y-19217D01*
X36156Y-19217D01*
X36137Y-19226D01*
X36127Y-19235D01*
X36118Y-19254D01*
X36118Y-19292D01*
X36127Y-19310D01*
X36137Y-19320D01*
X36156Y-19329D01*
X36193Y-19329D01*
X36212Y-19320D01*
X36221Y-19310D01*
X36231Y-19292D01*
X36231Y-19254D01*
X36221Y-19235D01*
X36212Y-19226D01*
X36193Y-19217D01*
X36418Y-19329D02*
X36306Y-19329D01*
X36362Y-19329D02*
X36362Y-19132D01*
X36343Y-19160D01*
X36324Y-19179D01*
X36306Y-19189D01*
X36484Y-19132D02*
X36615Y-19132D01*
X36531Y-19329D01*
X36690Y-19254D02*
X36840Y-19254D01*
X37019Y-19198D02*
X37019Y-19329D01*
X36972Y-19123D02*
X36925Y-19264D01*
X37047Y-19264D01*
X37159Y-19132D02*
X37178Y-19132D01*
X37197Y-19142D01*
X37206Y-19151D01*
X37216Y-19170D01*
X37225Y-19207D01*
X37225Y-19254D01*
X37216Y-19292D01*
X37206Y-19310D01*
X37197Y-19320D01*
X37178Y-19329D01*
X37159Y-19329D01*
X37141Y-19320D01*
X37131Y-19310D01*
X37122Y-19292D01*
X37112Y-19254D01*
X37112Y-19207D01*
X37122Y-19170D01*
X37131Y-19151D01*
X37141Y-19142D01*
X37159Y-19132D01*
G54D25*
X32363Y-19317D02*
X32348Y-19346D01*
X32320Y-19374D01*
X32277Y-19417D01*
X32263Y-19446D01*
X32263Y-19474D01*
X32334Y-19460D02*
X32320Y-19489D01*
X32291Y-19517D01*
X32234Y-19531D01*
X32134Y-19531D01*
X32077Y-19517D01*
X32048Y-19489D01*
X32034Y-19460D01*
X32034Y-19403D01*
X32048Y-19374D01*
X32077Y-19346D01*
X32134Y-19331D01*
X32234Y-19331D01*
X32291Y-19346D01*
X32320Y-19374D01*
X32334Y-19403D01*
X32334Y-19460D01*
X32034Y-19060D02*
X32034Y-19203D01*
X32177Y-19217D01*
X32163Y-19203D01*
X32148Y-19174D01*
X32148Y-19103D01*
X32163Y-19074D01*
X32177Y-19060D01*
X32205Y-19046D01*
X32277Y-19046D01*
X32305Y-19060D01*
X32320Y-19074D01*
X32334Y-19103D01*
X32334Y-19174D01*
X32320Y-19203D01*
X32305Y-19217D01*
G54D15*
X32299Y-19226D02*
X32327Y-19235D01*
X32337Y-19245D01*
X32346Y-19264D01*
X32346Y-19292D01*
X32337Y-19310D01*
X32327Y-19320D01*
X32308Y-19329D01*
X32233Y-19329D01*
X32233Y-19132D01*
X32299Y-19132D01*
X32318Y-19142D01*
X32327Y-19151D01*
X32337Y-19170D01*
X32337Y-19189D01*
X32327Y-19207D01*
X32318Y-19217D01*
X32299Y-19226D01*
X32233Y-19226D01*
X32543Y-19310D02*
X32534Y-19320D01*
X32505Y-19329D01*
X32487Y-19329D01*
X32459Y-19320D01*
X32440Y-19301D01*
X32430Y-19282D01*
X32421Y-19245D01*
X32421Y-19217D01*
X32430Y-19179D01*
X32440Y-19160D01*
X32459Y-19142D01*
X32487Y-19132D01*
X32505Y-19132D01*
X32534Y-19142D01*
X32543Y-19151D01*
X32656Y-19217D02*
X32637Y-19207D01*
X32627Y-19198D01*
X32618Y-19179D01*
X32618Y-19170D01*
X32627Y-19151D01*
X32637Y-19142D01*
X32656Y-19132D01*
X32693Y-19132D01*
X32712Y-19142D01*
X32721Y-19151D01*
X32731Y-19170D01*
X32731Y-19179D01*
X32721Y-19198D01*
X32712Y-19207D01*
X32693Y-19217D01*
X32656Y-19217D01*
X32637Y-19226D01*
X32627Y-19235D01*
X32618Y-19254D01*
X32618Y-19292D01*
X32627Y-19310D01*
X32637Y-19320D01*
X32656Y-19329D01*
X32693Y-19329D01*
X32712Y-19320D01*
X32721Y-19310D01*
X32731Y-19292D01*
X32731Y-19254D01*
X32721Y-19235D01*
X32712Y-19226D01*
X32693Y-19217D01*
X32853Y-19132D02*
X32871Y-19132D01*
X32890Y-19142D01*
X32899Y-19151D01*
X32909Y-19170D01*
X32918Y-19207D01*
X32918Y-19254D01*
X32909Y-19292D01*
X32899Y-19310D01*
X32890Y-19320D01*
X32871Y-19329D01*
X32853Y-19329D01*
X32834Y-19320D01*
X32824Y-19310D01*
X32815Y-19292D01*
X32806Y-19254D01*
X32806Y-19207D01*
X32815Y-19170D01*
X32824Y-19151D01*
X32834Y-19142D01*
X32853Y-19132D01*
X32984Y-19132D02*
X33115Y-19132D01*
X33031Y-19329D01*
X33190Y-19254D02*
X33340Y-19254D01*
X33519Y-19198D02*
X33519Y-19329D01*
X33472Y-19123D02*
X33425Y-19264D01*
X33547Y-19264D01*
X33659Y-19132D02*
X33678Y-19132D01*
X33697Y-19142D01*
X33706Y-19151D01*
X33716Y-19170D01*
X33725Y-19207D01*
X33725Y-19254D01*
X33716Y-19292D01*
X33706Y-19310D01*
X33697Y-19320D01*
X33678Y-19329D01*
X33659Y-19329D01*
X33641Y-19320D01*
X33631Y-19310D01*
X33622Y-19292D01*
X33612Y-19254D01*
X33612Y-19207D01*
X33622Y-19170D01*
X33631Y-19151D01*
X33641Y-19142D01*
X33659Y-19132D01*
G54D25*
X25863Y-19067D02*
X25848Y-19096D01*
X25820Y-19124D01*
X25777Y-19167D01*
X25763Y-19196D01*
X25763Y-19224D01*
X25834Y-19210D02*
X25820Y-19239D01*
X25791Y-19267D01*
X25734Y-19281D01*
X25634Y-19281D01*
X25577Y-19267D01*
X25548Y-19239D01*
X25534Y-19210D01*
X25534Y-19153D01*
X25548Y-19124D01*
X25577Y-19096D01*
X25634Y-19081D01*
X25734Y-19081D01*
X25791Y-19096D01*
X25820Y-19124D01*
X25834Y-19153D01*
X25834Y-19210D01*
X25834Y-18796D02*
X25834Y-18967D01*
X25834Y-18881D02*
X25534Y-18881D01*
X25577Y-18910D01*
X25605Y-18939D01*
X25620Y-18967D01*
G54D15*
X25799Y-18976D02*
X25827Y-18985D01*
X25837Y-18995D01*
X25846Y-19014D01*
X25846Y-19042D01*
X25837Y-19060D01*
X25827Y-19070D01*
X25808Y-19079D01*
X25733Y-19079D01*
X25733Y-18882D01*
X25799Y-18882D01*
X25818Y-18892D01*
X25827Y-18901D01*
X25837Y-18920D01*
X25837Y-18939D01*
X25827Y-18957D01*
X25818Y-18967D01*
X25799Y-18976D01*
X25733Y-18976D01*
X26043Y-19060D02*
X26034Y-19070D01*
X26005Y-19079D01*
X25987Y-19079D01*
X25959Y-19070D01*
X25940Y-19051D01*
X25930Y-19032D01*
X25921Y-18995D01*
X25921Y-18967D01*
X25930Y-18929D01*
X25940Y-18910D01*
X25959Y-18892D01*
X25987Y-18882D01*
X26005Y-18882D01*
X26034Y-18892D01*
X26043Y-18901D01*
X26156Y-18967D02*
X26137Y-18957D01*
X26127Y-18948D01*
X26118Y-18929D01*
X26118Y-18920D01*
X26127Y-18901D01*
X26137Y-18892D01*
X26156Y-18882D01*
X26193Y-18882D01*
X26212Y-18892D01*
X26221Y-18901D01*
X26231Y-18920D01*
X26231Y-18929D01*
X26221Y-18948D01*
X26212Y-18957D01*
X26193Y-18967D01*
X26156Y-18967D01*
X26137Y-18976D01*
X26127Y-18985D01*
X26118Y-19004D01*
X26118Y-19042D01*
X26127Y-19060D01*
X26137Y-19070D01*
X26156Y-19079D01*
X26193Y-19079D01*
X26212Y-19070D01*
X26221Y-19060D01*
X26231Y-19042D01*
X26231Y-19004D01*
X26221Y-18985D01*
X26212Y-18976D01*
X26193Y-18967D01*
X26353Y-18882D02*
X26371Y-18882D01*
X26390Y-18892D01*
X26399Y-18901D01*
X26409Y-18920D01*
X26418Y-18957D01*
X26418Y-19004D01*
X26409Y-19042D01*
X26399Y-19060D01*
X26390Y-19070D01*
X26371Y-19079D01*
X26353Y-19079D01*
X26334Y-19070D01*
X26324Y-19060D01*
X26315Y-19042D01*
X26306Y-19004D01*
X26306Y-18957D01*
X26315Y-18920D01*
X26324Y-18901D01*
X26334Y-18892D01*
X26353Y-18882D01*
X26484Y-18882D02*
X26615Y-18882D01*
X26531Y-19079D01*
X26690Y-19004D02*
X26840Y-19004D01*
X27019Y-18948D02*
X27019Y-19079D01*
X26972Y-18873D02*
X26925Y-19014D01*
X27047Y-19014D01*
X27159Y-18882D02*
X27178Y-18882D01*
X27197Y-18892D01*
X27206Y-18901D01*
X27216Y-18920D01*
X27225Y-18957D01*
X27225Y-19004D01*
X27216Y-19042D01*
X27206Y-19060D01*
X27197Y-19070D01*
X27178Y-19079D01*
X27159Y-19079D01*
X27141Y-19070D01*
X27131Y-19060D01*
X27122Y-19042D01*
X27112Y-19004D01*
X27112Y-18957D01*
X27122Y-18920D01*
X27131Y-18901D01*
X27141Y-18892D01*
X27159Y-18882D01*
G54D21*
X21414Y-18242D02*
X21414Y-17642D01*
X22042Y-18185D02*
X22014Y-18214D01*
X21928Y-18242D01*
X21871Y-18242D01*
X21785Y-18214D01*
X21728Y-18157D01*
X21700Y-18100D01*
X21671Y-17985D01*
X21671Y-17900D01*
X21700Y-17785D01*
X21728Y-17728D01*
X21785Y-17671D01*
X21871Y-17642D01*
X21928Y-17642D01*
X22014Y-17671D01*
X22042Y-17700D01*
X22614Y-18242D02*
X22271Y-18242D01*
X22442Y-18242D02*
X22442Y-17642D01*
X22385Y-17728D01*
X22328Y-17785D01*
X22271Y-17814D01*
X22507Y-19821D02*
X22792Y-19821D01*
X22449Y-19992D02*
X22649Y-19392D01*
X22849Y-19992D01*
X22964Y-19392D02*
X23307Y-19392D01*
X23135Y-19992D02*
X23135Y-19392D01*
X23449Y-19392D02*
X23849Y-19992D01*
X23849Y-19392D02*
X23449Y-19992D01*
X24078Y-19992D02*
X24078Y-19392D01*
X24278Y-19821D01*
X24478Y-19392D01*
X24478Y-19992D01*
X24764Y-19678D02*
X24964Y-19678D01*
X25049Y-19992D02*
X24764Y-19992D01*
X24764Y-19392D01*
X25049Y-19392D01*
X25621Y-19421D02*
X25564Y-19392D01*
X25478Y-19392D01*
X25392Y-19421D01*
X25335Y-19478D01*
X25307Y-19535D01*
X25278Y-19650D01*
X25278Y-19735D01*
X25307Y-19850D01*
X25335Y-19907D01*
X25392Y-19964D01*
X25478Y-19992D01*
X25535Y-19992D01*
X25621Y-19964D01*
X25649Y-19935D01*
X25649Y-19735D01*
X25535Y-19735D01*
X25878Y-19821D02*
X26164Y-19821D01*
X25821Y-19992D02*
X26021Y-19392D01*
X26221Y-19992D01*
X26735Y-19992D02*
X26392Y-19992D01*
X26564Y-19992D02*
X26564Y-19392D01*
X26507Y-19478D01*
X26450Y-19535D01*
X26392Y-19564D01*
X26964Y-19450D02*
X26992Y-19421D01*
X27050Y-19392D01*
X27192Y-19392D01*
X27250Y-19421D01*
X27278Y-19450D01*
X27307Y-19507D01*
X27307Y-19564D01*
X27278Y-19650D01*
X26935Y-19992D01*
X27307Y-19992D01*
X27650Y-19650D02*
X27592Y-19621D01*
X27564Y-19592D01*
X27535Y-19535D01*
X27535Y-19507D01*
X27564Y-19450D01*
X27592Y-19421D01*
X27650Y-19392D01*
X27764Y-19392D01*
X27821Y-19421D01*
X27850Y-19450D01*
X27878Y-19507D01*
X27878Y-19535D01*
X27850Y-19592D01*
X27821Y-19621D01*
X27764Y-19650D01*
X27650Y-19650D01*
X27592Y-19678D01*
X27564Y-19707D01*
X27535Y-19764D01*
X27535Y-19878D01*
X27564Y-19935D01*
X27592Y-19964D01*
X27650Y-19992D01*
X27764Y-19992D01*
X27821Y-19964D01*
X27850Y-19935D01*
X27878Y-19878D01*
X27878Y-19764D01*
X27850Y-19707D01*
X27821Y-19678D01*
X27764Y-19650D01*
X28107Y-19821D02*
X28392Y-19821D01*
X28050Y-19992D02*
X28250Y-19392D01*
X28450Y-19992D01*
X28907Y-19592D02*
X28907Y-19992D01*
X28764Y-19364D02*
X28621Y-19792D01*
X28992Y-19792D01*
X29221Y-19392D02*
X29221Y-19878D01*
X29250Y-19935D01*
X29278Y-19964D01*
X29335Y-19992D01*
X29450Y-19992D01*
X29507Y-19964D01*
X29535Y-19935D01*
X29564Y-19878D01*
X29564Y-19392D01*
X29707Y-20050D02*
X30164Y-20050D01*
X30507Y-19678D02*
X30592Y-19707D01*
X30621Y-19735D01*
X30650Y-19792D01*
X30650Y-19878D01*
X30621Y-19935D01*
X30592Y-19964D01*
X30535Y-19992D01*
X30307Y-19992D01*
X30307Y-19392D01*
X30507Y-19392D01*
X30564Y-19421D01*
X30592Y-19450D01*
X30621Y-19507D01*
X30621Y-19564D01*
X30592Y-19621D01*
X30564Y-19650D01*
X30507Y-19678D01*
X30307Y-19678D01*
X31021Y-19392D02*
X31135Y-19392D01*
X31192Y-19421D01*
X31250Y-19478D01*
X31278Y-19592D01*
X31278Y-19792D01*
X31250Y-19907D01*
X31192Y-19964D01*
X31135Y-19992D01*
X31021Y-19992D01*
X30964Y-19964D01*
X30907Y-19907D01*
X30878Y-19792D01*
X30878Y-19592D01*
X30907Y-19478D01*
X30964Y-19421D01*
X31021Y-19392D01*
X31507Y-19821D02*
X31792Y-19821D01*
X31450Y-19992D02*
X31650Y-19392D01*
X31850Y-19992D01*
X32392Y-19992D02*
X32192Y-19707D01*
X32050Y-19992D02*
X32050Y-19392D01*
X32278Y-19392D01*
X32335Y-19421D01*
X32364Y-19450D01*
X32392Y-19507D01*
X32392Y-19592D01*
X32364Y-19650D01*
X32335Y-19678D01*
X32278Y-19707D01*
X32050Y-19707D01*
X32650Y-19992D02*
X32650Y-19392D01*
X32792Y-19392D01*
X32878Y-19421D01*
X32935Y-19478D01*
X32964Y-19535D01*
X32992Y-19650D01*
X32992Y-19735D01*
X32964Y-19850D01*
X32935Y-19907D01*
X32878Y-19964D01*
X32792Y-19992D01*
X32650Y-19992D01*
G54D26*
X38338Y-21974D02*
X38324Y-22003D01*
X38324Y-22045D01*
X38338Y-22087D01*
X38366Y-22115D01*
X38394Y-22129D01*
X38450Y-22143D01*
X38492Y-22143D01*
X38549Y-22129D01*
X38577Y-22115D01*
X38605Y-22087D01*
X38619Y-22045D01*
X38619Y-22017D01*
X38605Y-21974D01*
X38591Y-21960D01*
X38492Y-21960D01*
X38492Y-22017D01*
X38619Y-21834D02*
X38324Y-21834D01*
X38619Y-21665D01*
X38324Y-21665D01*
X38619Y-21525D02*
X38324Y-21525D01*
X38324Y-21454D01*
X38338Y-21412D01*
X38366Y-21384D01*
X38394Y-21370D01*
X38450Y-21356D01*
X38492Y-21356D01*
X38549Y-21370D01*
X38577Y-21384D01*
X38605Y-21412D01*
X38619Y-21454D01*
X38619Y-21525D01*
X36619Y-22115D02*
X36324Y-22115D01*
X36324Y-22003D01*
X36338Y-21974D01*
X36352Y-21960D01*
X36380Y-21946D01*
X36422Y-21946D01*
X36450Y-21960D01*
X36464Y-21974D01*
X36478Y-22003D01*
X36478Y-22115D01*
X36619Y-21651D02*
X36478Y-21750D01*
X36619Y-21820D02*
X36324Y-21820D01*
X36324Y-21707D01*
X36338Y-21679D01*
X36352Y-21665D01*
X36380Y-21651D01*
X36422Y-21651D01*
X36450Y-21665D01*
X36464Y-21679D01*
X36478Y-21707D01*
X36478Y-21820D01*
X36324Y-21468D02*
X36324Y-21440D01*
X36338Y-21412D01*
X36352Y-21398D01*
X36380Y-21384D01*
X36436Y-21370D01*
X36507Y-21370D01*
X36563Y-21384D01*
X36591Y-21398D01*
X36605Y-21412D01*
X36619Y-21440D01*
X36619Y-21468D01*
X36605Y-21496D01*
X36591Y-21510D01*
X36563Y-21525D01*
X36507Y-21539D01*
X36436Y-21539D01*
X36380Y-21525D01*
X36352Y-21510D01*
X36338Y-21496D01*
X36324Y-21468D01*
X37619Y-22115D02*
X37324Y-22115D01*
X37324Y-22003D01*
X37338Y-21974D01*
X37352Y-21960D01*
X37380Y-21946D01*
X37422Y-21946D01*
X37450Y-21960D01*
X37464Y-21974D01*
X37478Y-22003D01*
X37478Y-22115D01*
X37619Y-21651D02*
X37478Y-21750D01*
X37619Y-21820D02*
X37324Y-21820D01*
X37324Y-21707D01*
X37338Y-21679D01*
X37352Y-21665D01*
X37380Y-21651D01*
X37422Y-21651D01*
X37450Y-21665D01*
X37464Y-21679D01*
X37478Y-21707D01*
X37478Y-21820D01*
X37619Y-21370D02*
X37619Y-21539D01*
X37619Y-21454D02*
X37324Y-21454D01*
X37366Y-21482D01*
X37394Y-21510D01*
X37408Y-21539D01*
X35619Y-22178D02*
X35478Y-22277D01*
X35619Y-22347D02*
X35324Y-22347D01*
X35324Y-22235D01*
X35338Y-22206D01*
X35352Y-22192D01*
X35380Y-22178D01*
X35422Y-22178D01*
X35450Y-22192D01*
X35464Y-22206D01*
X35478Y-22235D01*
X35478Y-22347D01*
X35464Y-22052D02*
X35464Y-21953D01*
X35619Y-21911D02*
X35619Y-22052D01*
X35324Y-22052D01*
X35324Y-21911D01*
X35605Y-21799D02*
X35619Y-21757D01*
X35619Y-21686D01*
X35605Y-21658D01*
X35591Y-21644D01*
X35563Y-21630D01*
X35535Y-21630D01*
X35507Y-21644D01*
X35492Y-21658D01*
X35478Y-21686D01*
X35464Y-21742D01*
X35450Y-21771D01*
X35436Y-21785D01*
X35408Y-21799D01*
X35380Y-21799D01*
X35352Y-21785D01*
X35338Y-21771D01*
X35324Y-21742D01*
X35324Y-21672D01*
X35338Y-21630D01*
X35464Y-21503D02*
X35464Y-21405D01*
X35619Y-21363D02*
X35619Y-21503D01*
X35324Y-21503D01*
X35324Y-21363D01*
X35324Y-21278D02*
X35324Y-21110D01*
X35619Y-21194D02*
X35324Y-21194D01*
X34619Y-22045D02*
X34324Y-22045D01*
X34324Y-21932D01*
X34338Y-21904D01*
X34352Y-21890D01*
X34380Y-21876D01*
X34422Y-21876D01*
X34450Y-21890D01*
X34464Y-21904D01*
X34478Y-21932D01*
X34478Y-22045D01*
X34619Y-21750D02*
X34324Y-21750D01*
X34324Y-21679D01*
X34338Y-21637D01*
X34366Y-21609D01*
X34394Y-21595D01*
X34450Y-21581D01*
X34492Y-21581D01*
X34549Y-21595D01*
X34577Y-21609D01*
X34605Y-21637D01*
X34619Y-21679D01*
X34619Y-21750D01*
X34619Y-21454D02*
X34324Y-21454D01*
X33619Y-22101D02*
X33324Y-22101D01*
X33324Y-21989D01*
X33338Y-21960D01*
X33352Y-21946D01*
X33380Y-21932D01*
X33422Y-21932D01*
X33450Y-21946D01*
X33464Y-21960D01*
X33478Y-21989D01*
X33478Y-22101D01*
X33464Y-21806D02*
X33464Y-21707D01*
X33619Y-21665D02*
X33619Y-21806D01*
X33324Y-21806D01*
X33324Y-21665D01*
X33324Y-21567D02*
X33324Y-21384D01*
X33436Y-21482D01*
X33436Y-21440D01*
X33450Y-21412D01*
X33464Y-21398D01*
X33492Y-21384D01*
X33563Y-21384D01*
X33591Y-21398D01*
X33605Y-21412D01*
X33619Y-21440D01*
X33619Y-21525D01*
X33605Y-21553D01*
X33591Y-21567D01*
X32619Y-22101D02*
X32324Y-22101D01*
X32324Y-21989D01*
X32338Y-21960D01*
X32352Y-21946D01*
X32380Y-21932D01*
X32422Y-21932D01*
X32450Y-21946D01*
X32464Y-21960D01*
X32478Y-21989D01*
X32478Y-22101D01*
X32464Y-21806D02*
X32464Y-21707D01*
X32619Y-21665D02*
X32619Y-21806D01*
X32324Y-21806D01*
X32324Y-21665D01*
X32352Y-21553D02*
X32338Y-21539D01*
X32324Y-21510D01*
X32324Y-21440D01*
X32338Y-21412D01*
X32352Y-21398D01*
X32380Y-21384D01*
X32408Y-21384D01*
X32450Y-21398D01*
X32619Y-21567D01*
X32619Y-21384D01*
X31619Y-22101D02*
X31324Y-22101D01*
X31324Y-21989D01*
X31338Y-21960D01*
X31352Y-21946D01*
X31380Y-21932D01*
X31422Y-21932D01*
X31450Y-21946D01*
X31464Y-21960D01*
X31478Y-21989D01*
X31478Y-22101D01*
X31464Y-21806D02*
X31464Y-21707D01*
X31619Y-21665D02*
X31619Y-21806D01*
X31324Y-21806D01*
X31324Y-21665D01*
X31619Y-21384D02*
X31619Y-21553D01*
X31619Y-21468D02*
X31324Y-21468D01*
X31366Y-21496D01*
X31394Y-21525D01*
X31408Y-21553D01*
X30619Y-22101D02*
X30324Y-22101D01*
X30324Y-21989D01*
X30338Y-21960D01*
X30352Y-21946D01*
X30380Y-21932D01*
X30422Y-21932D01*
X30450Y-21946D01*
X30464Y-21960D01*
X30478Y-21989D01*
X30478Y-22101D01*
X30464Y-21806D02*
X30464Y-21707D01*
X30619Y-21665D02*
X30619Y-21806D01*
X30324Y-21806D01*
X30324Y-21665D01*
X30324Y-21482D02*
X30324Y-21454D01*
X30338Y-21426D01*
X30352Y-21412D01*
X30380Y-21398D01*
X30436Y-21384D01*
X30507Y-21384D01*
X30563Y-21398D01*
X30591Y-21412D01*
X30605Y-21426D01*
X30619Y-21454D01*
X30619Y-21482D01*
X30605Y-21510D01*
X30591Y-21525D01*
X30563Y-21539D01*
X30507Y-21553D01*
X30436Y-21553D01*
X30380Y-21539D01*
X30352Y-21525D01*
X30338Y-21510D01*
X30324Y-21482D01*
X29619Y-22115D02*
X29324Y-22115D01*
X29324Y-22003D01*
X29338Y-21974D01*
X29352Y-21960D01*
X29380Y-21946D01*
X29422Y-21946D01*
X29450Y-21960D01*
X29464Y-21974D01*
X29478Y-22003D01*
X29478Y-22115D01*
X29619Y-21820D02*
X29324Y-21820D01*
X29324Y-21750D01*
X29338Y-21707D01*
X29366Y-21679D01*
X29394Y-21665D01*
X29450Y-21651D01*
X29492Y-21651D01*
X29549Y-21665D01*
X29577Y-21679D01*
X29605Y-21707D01*
X29619Y-21750D01*
X29619Y-21820D01*
X29324Y-21553D02*
X29324Y-21356D01*
X29619Y-21482D01*
X28619Y-22115D02*
X28324Y-22115D01*
X28324Y-22003D01*
X28338Y-21974D01*
X28352Y-21960D01*
X28380Y-21946D01*
X28422Y-21946D01*
X28450Y-21960D01*
X28464Y-21974D01*
X28478Y-22003D01*
X28478Y-22115D01*
X28619Y-21820D02*
X28324Y-21820D01*
X28324Y-21750D01*
X28338Y-21707D01*
X28366Y-21679D01*
X28394Y-21665D01*
X28450Y-21651D01*
X28492Y-21651D01*
X28549Y-21665D01*
X28577Y-21679D01*
X28605Y-21707D01*
X28619Y-21750D01*
X28619Y-21820D01*
X28324Y-21398D02*
X28324Y-21454D01*
X28338Y-21482D01*
X28352Y-21496D01*
X28394Y-21525D01*
X28450Y-21539D01*
X28563Y-21539D01*
X28591Y-21525D01*
X28605Y-21510D01*
X28619Y-21482D01*
X28619Y-21426D01*
X28605Y-21398D01*
X28591Y-21384D01*
X28563Y-21370D01*
X28492Y-21370D01*
X28464Y-21384D01*
X28450Y-21398D01*
X28436Y-21426D01*
X28436Y-21482D01*
X28450Y-21510D01*
X28464Y-21525D01*
X28492Y-21539D01*
X27619Y-22115D02*
X27324Y-22115D01*
X27324Y-22003D01*
X27338Y-21974D01*
X27352Y-21960D01*
X27380Y-21946D01*
X27422Y-21946D01*
X27450Y-21960D01*
X27464Y-21974D01*
X27478Y-22003D01*
X27478Y-22115D01*
X27619Y-21820D02*
X27324Y-21820D01*
X27324Y-21750D01*
X27338Y-21707D01*
X27366Y-21679D01*
X27394Y-21665D01*
X27450Y-21651D01*
X27492Y-21651D01*
X27549Y-21665D01*
X27577Y-21679D01*
X27605Y-21707D01*
X27619Y-21750D01*
X27619Y-21820D01*
X27324Y-21384D02*
X27324Y-21525D01*
X27464Y-21539D01*
X27450Y-21525D01*
X27436Y-21496D01*
X27436Y-21426D01*
X27450Y-21398D01*
X27464Y-21384D01*
X27492Y-21370D01*
X27563Y-21370D01*
X27591Y-21384D01*
X27605Y-21398D01*
X27619Y-21426D01*
X27619Y-21496D01*
X27605Y-21525D01*
X27591Y-21539D01*
X26619Y-22115D02*
X26324Y-22115D01*
X26324Y-22003D01*
X26338Y-21974D01*
X26352Y-21960D01*
X26380Y-21946D01*
X26422Y-21946D01*
X26450Y-21960D01*
X26464Y-21974D01*
X26478Y-22003D01*
X26478Y-22115D01*
X26619Y-21820D02*
X26324Y-21820D01*
X26324Y-21750D01*
X26338Y-21707D01*
X26366Y-21679D01*
X26394Y-21665D01*
X26450Y-21651D01*
X26492Y-21651D01*
X26549Y-21665D01*
X26577Y-21679D01*
X26605Y-21707D01*
X26619Y-21750D01*
X26619Y-21820D01*
X26422Y-21398D02*
X26619Y-21398D01*
X26310Y-21468D02*
X26521Y-21539D01*
X26521Y-21356D01*
X25619Y-22115D02*
X25324Y-22115D01*
X25324Y-22003D01*
X25338Y-21974D01*
X25352Y-21960D01*
X25380Y-21946D01*
X25422Y-21946D01*
X25450Y-21960D01*
X25464Y-21974D01*
X25478Y-22003D01*
X25478Y-22115D01*
X25619Y-21820D02*
X25324Y-21820D01*
X25324Y-21750D01*
X25338Y-21707D01*
X25366Y-21679D01*
X25394Y-21665D01*
X25450Y-21651D01*
X25492Y-21651D01*
X25549Y-21665D01*
X25577Y-21679D01*
X25605Y-21707D01*
X25619Y-21750D01*
X25619Y-21820D01*
X25324Y-21553D02*
X25324Y-21370D01*
X25436Y-21468D01*
X25436Y-21426D01*
X25450Y-21398D01*
X25464Y-21384D01*
X25492Y-21370D01*
X25563Y-21370D01*
X25591Y-21384D01*
X25605Y-21398D01*
X25619Y-21426D01*
X25619Y-21510D01*
X25605Y-21539D01*
X25591Y-21553D01*
X24619Y-22115D02*
X24324Y-22115D01*
X24324Y-22003D01*
X24338Y-21974D01*
X24352Y-21960D01*
X24380Y-21946D01*
X24422Y-21946D01*
X24450Y-21960D01*
X24464Y-21974D01*
X24478Y-22003D01*
X24478Y-22115D01*
X24619Y-21820D02*
X24324Y-21820D01*
X24324Y-21750D01*
X24338Y-21707D01*
X24366Y-21679D01*
X24394Y-21665D01*
X24450Y-21651D01*
X24492Y-21651D01*
X24549Y-21665D01*
X24577Y-21679D01*
X24605Y-21707D01*
X24619Y-21750D01*
X24619Y-21820D01*
X24352Y-21539D02*
X24338Y-21525D01*
X24324Y-21496D01*
X24324Y-21426D01*
X24338Y-21398D01*
X24352Y-21384D01*
X24380Y-21370D01*
X24408Y-21370D01*
X24450Y-21384D01*
X24619Y-21553D01*
X24619Y-21370D01*
X23619Y-22115D02*
X23324Y-22115D01*
X23324Y-22003D01*
X23338Y-21974D01*
X23352Y-21960D01*
X23380Y-21946D01*
X23422Y-21946D01*
X23450Y-21960D01*
X23464Y-21974D01*
X23478Y-22003D01*
X23478Y-22115D01*
X23619Y-21820D02*
X23324Y-21820D01*
X23324Y-21750D01*
X23338Y-21707D01*
X23366Y-21679D01*
X23394Y-21665D01*
X23450Y-21651D01*
X23492Y-21651D01*
X23549Y-21665D01*
X23577Y-21679D01*
X23605Y-21707D01*
X23619Y-21750D01*
X23619Y-21820D01*
X23619Y-21370D02*
X23619Y-21539D01*
X23619Y-21454D02*
X23324Y-21454D01*
X23366Y-21482D01*
X23394Y-21510D01*
X23408Y-21539D01*
X22619Y-22115D02*
X22324Y-22115D01*
X22324Y-22003D01*
X22338Y-21974D01*
X22352Y-21960D01*
X22380Y-21946D01*
X22422Y-21946D01*
X22450Y-21960D01*
X22464Y-21974D01*
X22478Y-22003D01*
X22478Y-22115D01*
X22619Y-21820D02*
X22324Y-21820D01*
X22324Y-21750D01*
X22338Y-21707D01*
X22366Y-21679D01*
X22394Y-21665D01*
X22450Y-21651D01*
X22492Y-21651D01*
X22549Y-21665D01*
X22577Y-21679D01*
X22605Y-21707D01*
X22619Y-21750D01*
X22619Y-21820D01*
X22324Y-21468D02*
X22324Y-21440D01*
X22338Y-21412D01*
X22352Y-21398D01*
X22380Y-21384D01*
X22436Y-21370D01*
X22507Y-21370D01*
X22563Y-21384D01*
X22591Y-21398D01*
X22605Y-21412D01*
X22619Y-21440D01*
X22619Y-21468D01*
X22605Y-21496D01*
X22591Y-21510D01*
X22563Y-21525D01*
X22507Y-21539D01*
X22436Y-21539D01*
X22380Y-21525D01*
X22352Y-21510D01*
X22338Y-21496D01*
X22324Y-21468D01*
X21324Y-22031D02*
X21619Y-21932D01*
X21324Y-21834D01*
X21507Y-21735D02*
X21507Y-21510D01*
X21619Y-21623D02*
X21394Y-21623D01*
X20338Y-21974D02*
X20324Y-22003D01*
X20324Y-22045D01*
X20338Y-22087D01*
X20366Y-22115D01*
X20394Y-22129D01*
X20450Y-22143D01*
X20492Y-22143D01*
X20549Y-22129D01*
X20577Y-22115D01*
X20605Y-22087D01*
X20619Y-22045D01*
X20619Y-22017D01*
X20605Y-21974D01*
X20591Y-21960D01*
X20492Y-21960D01*
X20492Y-22017D01*
X20619Y-21834D02*
X20324Y-21834D01*
X20619Y-21665D01*
X20324Y-21665D01*
X20619Y-21525D02*
X20324Y-21525D01*
X20324Y-21454D01*
X20338Y-21412D01*
X20366Y-21384D01*
X20394Y-21370D01*
X20450Y-21356D01*
X20492Y-21356D01*
X20549Y-21370D01*
X20577Y-21384D01*
X20605Y-21412D01*
X20619Y-21454D01*
X20619Y-21525D01*
X19324Y-22291D02*
X19619Y-22192D01*
X19324Y-22094D01*
X19324Y-21996D02*
X19563Y-21996D01*
X19591Y-21982D01*
X19605Y-21967D01*
X19619Y-21939D01*
X19619Y-21883D01*
X19605Y-21855D01*
X19591Y-21841D01*
X19563Y-21827D01*
X19324Y-21827D01*
X19605Y-21700D02*
X19619Y-21658D01*
X19619Y-21588D01*
X19605Y-21560D01*
X19591Y-21546D01*
X19563Y-21532D01*
X19535Y-21532D01*
X19507Y-21546D01*
X19492Y-21560D01*
X19478Y-21588D01*
X19464Y-21644D01*
X19450Y-21672D01*
X19436Y-21686D01*
X19408Y-21700D01*
X19380Y-21700D01*
X19352Y-21686D01*
X19338Y-21672D01*
X19324Y-21644D01*
X19324Y-21574D01*
X19338Y-21532D01*
X19464Y-21307D02*
X19478Y-21264D01*
X19492Y-21250D01*
X19521Y-21236D01*
X19563Y-21236D01*
X19591Y-21250D01*
X19605Y-21264D01*
X19619Y-21293D01*
X19619Y-21405D01*
X19324Y-21405D01*
X19324Y-21307D01*
X19338Y-21278D01*
X19352Y-21264D01*
X19380Y-21250D01*
X19408Y-21250D01*
X19436Y-21264D01*
X19450Y-21278D01*
X19464Y-21307D01*
X19464Y-21405D01*
X19619Y-16615D02*
X19324Y-16615D01*
X19324Y-16503D01*
X19338Y-16474D01*
X19352Y-16460D01*
X19380Y-16446D01*
X19422Y-16446D01*
X19450Y-16460D01*
X19464Y-16474D01*
X19478Y-16503D01*
X19478Y-16615D01*
X19591Y-16151D02*
X19605Y-16165D01*
X19619Y-16207D01*
X19619Y-16235D01*
X19605Y-16278D01*
X19577Y-16306D01*
X19549Y-16320D01*
X19492Y-16334D01*
X19450Y-16334D01*
X19394Y-16320D01*
X19366Y-16306D01*
X19338Y-16278D01*
X19324Y-16235D01*
X19324Y-16207D01*
X19338Y-16165D01*
X19352Y-16151D01*
X19324Y-16053D02*
X19324Y-15856D01*
X19619Y-15982D01*
X20619Y-16615D02*
X20324Y-16615D01*
X20324Y-16503D01*
X20338Y-16474D01*
X20352Y-16460D01*
X20380Y-16446D01*
X20422Y-16446D01*
X20450Y-16460D01*
X20464Y-16474D01*
X20478Y-16503D01*
X20478Y-16615D01*
X20591Y-16151D02*
X20605Y-16165D01*
X20619Y-16207D01*
X20619Y-16235D01*
X20605Y-16278D01*
X20577Y-16306D01*
X20549Y-16320D01*
X20492Y-16334D01*
X20450Y-16334D01*
X20394Y-16320D01*
X20366Y-16306D01*
X20338Y-16278D01*
X20324Y-16235D01*
X20324Y-16207D01*
X20338Y-16165D01*
X20352Y-16151D01*
X20324Y-15898D02*
X20324Y-15954D01*
X20338Y-15982D01*
X20352Y-15996D01*
X20394Y-16025D01*
X20450Y-16039D01*
X20563Y-16039D01*
X20591Y-16025D01*
X20605Y-16010D01*
X20619Y-15982D01*
X20619Y-15926D01*
X20605Y-15898D01*
X20591Y-15884D01*
X20563Y-15870D01*
X20492Y-15870D01*
X20464Y-15884D01*
X20450Y-15898D01*
X20436Y-15926D01*
X20436Y-15982D01*
X20450Y-16010D01*
X20464Y-16025D01*
X20492Y-16039D01*
X22619Y-16615D02*
X22324Y-16615D01*
X22324Y-16503D01*
X22338Y-16474D01*
X22352Y-16460D01*
X22380Y-16446D01*
X22422Y-16446D01*
X22450Y-16460D01*
X22464Y-16474D01*
X22478Y-16503D01*
X22478Y-16615D01*
X22591Y-16151D02*
X22605Y-16165D01*
X22619Y-16207D01*
X22619Y-16235D01*
X22605Y-16278D01*
X22577Y-16306D01*
X22549Y-16320D01*
X22492Y-16334D01*
X22450Y-16334D01*
X22394Y-16320D01*
X22366Y-16306D01*
X22338Y-16278D01*
X22324Y-16235D01*
X22324Y-16207D01*
X22338Y-16165D01*
X22352Y-16151D01*
X22422Y-15898D02*
X22619Y-15898D01*
X22310Y-15968D02*
X22521Y-16039D01*
X22521Y-15856D01*
X21619Y-16615D02*
X21324Y-16615D01*
X21324Y-16503D01*
X21338Y-16474D01*
X21352Y-16460D01*
X21380Y-16446D01*
X21422Y-16446D01*
X21450Y-16460D01*
X21464Y-16474D01*
X21478Y-16503D01*
X21478Y-16615D01*
X21591Y-16151D02*
X21605Y-16165D01*
X21619Y-16207D01*
X21619Y-16235D01*
X21605Y-16278D01*
X21577Y-16306D01*
X21549Y-16320D01*
X21492Y-16334D01*
X21450Y-16334D01*
X21394Y-16320D01*
X21366Y-16306D01*
X21338Y-16278D01*
X21324Y-16235D01*
X21324Y-16207D01*
X21338Y-16165D01*
X21352Y-16151D01*
X21324Y-15884D02*
X21324Y-16025D01*
X21464Y-16039D01*
X21450Y-16025D01*
X21436Y-15996D01*
X21436Y-15926D01*
X21450Y-15898D01*
X21464Y-15884D01*
X21492Y-15870D01*
X21563Y-15870D01*
X21591Y-15884D01*
X21605Y-15898D01*
X21619Y-15926D01*
X21619Y-15996D01*
X21605Y-16025D01*
X21591Y-16039D01*
X23619Y-16615D02*
X23324Y-16615D01*
X23324Y-16503D01*
X23338Y-16474D01*
X23352Y-16460D01*
X23380Y-16446D01*
X23422Y-16446D01*
X23450Y-16460D01*
X23464Y-16474D01*
X23478Y-16503D01*
X23478Y-16615D01*
X23591Y-16151D02*
X23605Y-16165D01*
X23619Y-16207D01*
X23619Y-16235D01*
X23605Y-16278D01*
X23577Y-16306D01*
X23549Y-16320D01*
X23492Y-16334D01*
X23450Y-16334D01*
X23394Y-16320D01*
X23366Y-16306D01*
X23338Y-16278D01*
X23324Y-16235D01*
X23324Y-16207D01*
X23338Y-16165D01*
X23352Y-16151D01*
X23324Y-16053D02*
X23324Y-15870D01*
X23436Y-15968D01*
X23436Y-15926D01*
X23450Y-15898D01*
X23464Y-15884D01*
X23492Y-15870D01*
X23563Y-15870D01*
X23591Y-15884D01*
X23605Y-15898D01*
X23619Y-15926D01*
X23619Y-16010D01*
X23605Y-16039D01*
X23591Y-16053D01*
X24619Y-16615D02*
X24324Y-16615D01*
X24324Y-16503D01*
X24338Y-16474D01*
X24352Y-16460D01*
X24380Y-16446D01*
X24422Y-16446D01*
X24450Y-16460D01*
X24464Y-16474D01*
X24478Y-16503D01*
X24478Y-16615D01*
X24591Y-16151D02*
X24605Y-16165D01*
X24619Y-16207D01*
X24619Y-16235D01*
X24605Y-16278D01*
X24577Y-16306D01*
X24549Y-16320D01*
X24492Y-16334D01*
X24450Y-16334D01*
X24394Y-16320D01*
X24366Y-16306D01*
X24338Y-16278D01*
X24324Y-16235D01*
X24324Y-16207D01*
X24338Y-16165D01*
X24352Y-16151D01*
X24352Y-16039D02*
X24338Y-16025D01*
X24324Y-15996D01*
X24324Y-15926D01*
X24338Y-15898D01*
X24352Y-15884D01*
X24380Y-15870D01*
X24408Y-15870D01*
X24450Y-15884D01*
X24619Y-16053D01*
X24619Y-15870D01*
X25619Y-16615D02*
X25324Y-16615D01*
X25324Y-16503D01*
X25338Y-16474D01*
X25352Y-16460D01*
X25380Y-16446D01*
X25422Y-16446D01*
X25450Y-16460D01*
X25464Y-16474D01*
X25478Y-16503D01*
X25478Y-16615D01*
X25591Y-16151D02*
X25605Y-16165D01*
X25619Y-16207D01*
X25619Y-16235D01*
X25605Y-16278D01*
X25577Y-16306D01*
X25549Y-16320D01*
X25492Y-16334D01*
X25450Y-16334D01*
X25394Y-16320D01*
X25366Y-16306D01*
X25338Y-16278D01*
X25324Y-16235D01*
X25324Y-16207D01*
X25338Y-16165D01*
X25352Y-16151D01*
X25619Y-15870D02*
X25619Y-16039D01*
X25619Y-15954D02*
X25324Y-15954D01*
X25366Y-15982D01*
X25394Y-16010D01*
X25408Y-16039D01*
X26619Y-16615D02*
X26324Y-16615D01*
X26324Y-16503D01*
X26338Y-16474D01*
X26352Y-16460D01*
X26380Y-16446D01*
X26422Y-16446D01*
X26450Y-16460D01*
X26464Y-16474D01*
X26478Y-16503D01*
X26478Y-16615D01*
X26591Y-16151D02*
X26605Y-16165D01*
X26619Y-16207D01*
X26619Y-16235D01*
X26605Y-16278D01*
X26577Y-16306D01*
X26549Y-16320D01*
X26492Y-16334D01*
X26450Y-16334D01*
X26394Y-16320D01*
X26366Y-16306D01*
X26338Y-16278D01*
X26324Y-16235D01*
X26324Y-16207D01*
X26338Y-16165D01*
X26352Y-16151D01*
X26324Y-15968D02*
X26324Y-15940D01*
X26338Y-15912D01*
X26352Y-15898D01*
X26380Y-15884D01*
X26436Y-15870D01*
X26507Y-15870D01*
X26563Y-15884D01*
X26591Y-15898D01*
X26605Y-15912D01*
X26619Y-15940D01*
X26619Y-15968D01*
X26605Y-15996D01*
X26591Y-16010D01*
X26563Y-16025D01*
X26507Y-16039D01*
X26436Y-16039D01*
X26380Y-16025D01*
X26352Y-16010D01*
X26338Y-15996D01*
X26324Y-15968D01*
X27619Y-16615D02*
X27324Y-16615D01*
X27324Y-16503D01*
X27338Y-16474D01*
X27352Y-16460D01*
X27380Y-16446D01*
X27422Y-16446D01*
X27450Y-16460D01*
X27464Y-16474D01*
X27478Y-16503D01*
X27478Y-16615D01*
X27464Y-16221D02*
X27478Y-16179D01*
X27492Y-16165D01*
X27521Y-16151D01*
X27563Y-16151D01*
X27591Y-16165D01*
X27605Y-16179D01*
X27619Y-16207D01*
X27619Y-16320D01*
X27324Y-16320D01*
X27324Y-16221D01*
X27338Y-16193D01*
X27352Y-16179D01*
X27380Y-16165D01*
X27408Y-16165D01*
X27436Y-16179D01*
X27450Y-16193D01*
X27464Y-16221D01*
X27464Y-16320D01*
X27324Y-16053D02*
X27324Y-15870D01*
X27436Y-15968D01*
X27436Y-15926D01*
X27450Y-15898D01*
X27464Y-15884D01*
X27492Y-15870D01*
X27563Y-15870D01*
X27591Y-15884D01*
X27605Y-15898D01*
X27619Y-15926D01*
X27619Y-16010D01*
X27605Y-16039D01*
X27591Y-16053D01*
X28619Y-16615D02*
X28324Y-16615D01*
X28324Y-16503D01*
X28338Y-16474D01*
X28352Y-16460D01*
X28380Y-16446D01*
X28422Y-16446D01*
X28450Y-16460D01*
X28464Y-16474D01*
X28478Y-16503D01*
X28478Y-16615D01*
X28464Y-16221D02*
X28478Y-16179D01*
X28492Y-16165D01*
X28521Y-16151D01*
X28563Y-16151D01*
X28591Y-16165D01*
X28605Y-16179D01*
X28619Y-16207D01*
X28619Y-16320D01*
X28324Y-16320D01*
X28324Y-16221D01*
X28338Y-16193D01*
X28352Y-16179D01*
X28380Y-16165D01*
X28408Y-16165D01*
X28436Y-16179D01*
X28450Y-16193D01*
X28464Y-16221D01*
X28464Y-16320D01*
X28352Y-16039D02*
X28338Y-16025D01*
X28324Y-15996D01*
X28324Y-15926D01*
X28338Y-15898D01*
X28352Y-15884D01*
X28380Y-15870D01*
X28408Y-15870D01*
X28450Y-15884D01*
X28619Y-16053D01*
X28619Y-15870D01*
X29619Y-16615D02*
X29324Y-16615D01*
X29324Y-16503D01*
X29338Y-16474D01*
X29352Y-16460D01*
X29380Y-16446D01*
X29422Y-16446D01*
X29450Y-16460D01*
X29464Y-16474D01*
X29478Y-16503D01*
X29478Y-16615D01*
X29464Y-16221D02*
X29478Y-16179D01*
X29492Y-16165D01*
X29521Y-16151D01*
X29563Y-16151D01*
X29591Y-16165D01*
X29605Y-16179D01*
X29619Y-16207D01*
X29619Y-16320D01*
X29324Y-16320D01*
X29324Y-16221D01*
X29338Y-16193D01*
X29352Y-16179D01*
X29380Y-16165D01*
X29408Y-16165D01*
X29436Y-16179D01*
X29450Y-16193D01*
X29464Y-16221D01*
X29464Y-16320D01*
X29619Y-15870D02*
X29619Y-16039D01*
X29619Y-15954D02*
X29324Y-15954D01*
X29366Y-15982D01*
X29394Y-16010D01*
X29408Y-16039D01*
X30619Y-16615D02*
X30324Y-16615D01*
X30324Y-16503D01*
X30338Y-16474D01*
X30352Y-16460D01*
X30380Y-16446D01*
X30422Y-16446D01*
X30450Y-16460D01*
X30464Y-16474D01*
X30478Y-16503D01*
X30478Y-16615D01*
X30464Y-16221D02*
X30478Y-16179D01*
X30492Y-16165D01*
X30521Y-16151D01*
X30563Y-16151D01*
X30591Y-16165D01*
X30605Y-16179D01*
X30619Y-16207D01*
X30619Y-16320D01*
X30324Y-16320D01*
X30324Y-16221D01*
X30338Y-16193D01*
X30352Y-16179D01*
X30380Y-16165D01*
X30408Y-16165D01*
X30436Y-16179D01*
X30450Y-16193D01*
X30464Y-16221D01*
X30464Y-16320D01*
X30324Y-15968D02*
X30324Y-15940D01*
X30338Y-15912D01*
X30352Y-15898D01*
X30380Y-15884D01*
X30436Y-15870D01*
X30507Y-15870D01*
X30563Y-15884D01*
X30591Y-15898D01*
X30605Y-15912D01*
X30619Y-15940D01*
X30619Y-15968D01*
X30605Y-15996D01*
X30591Y-16010D01*
X30563Y-16025D01*
X30507Y-16039D01*
X30436Y-16039D01*
X30380Y-16025D01*
X30352Y-16010D01*
X30338Y-15996D01*
X30324Y-15968D01*
X31619Y-16594D02*
X31324Y-16594D01*
X31324Y-16482D01*
X31338Y-16453D01*
X31352Y-16439D01*
X31380Y-16425D01*
X31422Y-16425D01*
X31450Y-16439D01*
X31464Y-16453D01*
X31478Y-16482D01*
X31478Y-16594D01*
X31535Y-16313D02*
X31535Y-16172D01*
X31619Y-16341D02*
X31324Y-16242D01*
X31619Y-16144D01*
X31324Y-16074D02*
X31324Y-15877D01*
X31619Y-16003D01*
X32619Y-16594D02*
X32324Y-16594D01*
X32324Y-16482D01*
X32338Y-16453D01*
X32352Y-16439D01*
X32380Y-16425D01*
X32422Y-16425D01*
X32450Y-16439D01*
X32464Y-16453D01*
X32478Y-16482D01*
X32478Y-16594D01*
X32535Y-16313D02*
X32535Y-16172D01*
X32619Y-16341D02*
X32324Y-16242D01*
X32619Y-16144D01*
X32324Y-15919D02*
X32324Y-15975D01*
X32338Y-16003D01*
X32352Y-16017D01*
X32394Y-16046D01*
X32450Y-16060D01*
X32563Y-16060D01*
X32591Y-16046D01*
X32605Y-16032D01*
X32619Y-16003D01*
X32619Y-15947D01*
X32605Y-15919D01*
X32591Y-15905D01*
X32563Y-15891D01*
X32492Y-15891D01*
X32464Y-15905D01*
X32450Y-15919D01*
X32436Y-15947D01*
X32436Y-16003D01*
X32450Y-16032D01*
X32464Y-16046D01*
X32492Y-16060D01*
X33619Y-16594D02*
X33324Y-16594D01*
X33324Y-16482D01*
X33338Y-16453D01*
X33352Y-16439D01*
X33380Y-16425D01*
X33422Y-16425D01*
X33450Y-16439D01*
X33464Y-16453D01*
X33478Y-16482D01*
X33478Y-16594D01*
X33535Y-16313D02*
X33535Y-16172D01*
X33619Y-16341D02*
X33324Y-16242D01*
X33619Y-16144D01*
X33324Y-15905D02*
X33324Y-16046D01*
X33464Y-16060D01*
X33450Y-16046D01*
X33436Y-16017D01*
X33436Y-15947D01*
X33450Y-15919D01*
X33464Y-15905D01*
X33492Y-15891D01*
X33563Y-15891D01*
X33591Y-15905D01*
X33605Y-15919D01*
X33619Y-15947D01*
X33619Y-16017D01*
X33605Y-16046D01*
X33591Y-16060D01*
X34619Y-16594D02*
X34324Y-16594D01*
X34324Y-16482D01*
X34338Y-16453D01*
X34352Y-16439D01*
X34380Y-16425D01*
X34422Y-16425D01*
X34450Y-16439D01*
X34464Y-16453D01*
X34478Y-16482D01*
X34478Y-16594D01*
X34535Y-16313D02*
X34535Y-16172D01*
X34619Y-16341D02*
X34324Y-16242D01*
X34619Y-16144D01*
X34422Y-15919D02*
X34619Y-15919D01*
X34310Y-15989D02*
X34521Y-16060D01*
X34521Y-15877D01*
X35619Y-16594D02*
X35324Y-16594D01*
X35324Y-16482D01*
X35338Y-16453D01*
X35352Y-16439D01*
X35380Y-16425D01*
X35422Y-16425D01*
X35450Y-16439D01*
X35464Y-16453D01*
X35478Y-16482D01*
X35478Y-16594D01*
X35535Y-16313D02*
X35535Y-16172D01*
X35619Y-16341D02*
X35324Y-16242D01*
X35619Y-16144D01*
X35324Y-16074D02*
X35324Y-15891D01*
X35436Y-15989D01*
X35436Y-15947D01*
X35450Y-15919D01*
X35464Y-15905D01*
X35492Y-15891D01*
X35563Y-15891D01*
X35591Y-15905D01*
X35605Y-15919D01*
X35619Y-15947D01*
X35619Y-16032D01*
X35605Y-16060D01*
X35591Y-16074D01*
X36619Y-16594D02*
X36324Y-16594D01*
X36324Y-16482D01*
X36338Y-16453D01*
X36352Y-16439D01*
X36380Y-16425D01*
X36422Y-16425D01*
X36450Y-16439D01*
X36464Y-16453D01*
X36478Y-16482D01*
X36478Y-16594D01*
X36535Y-16313D02*
X36535Y-16172D01*
X36619Y-16341D02*
X36324Y-16242D01*
X36619Y-16144D01*
X36352Y-16060D02*
X36338Y-16046D01*
X36324Y-16017D01*
X36324Y-15947D01*
X36338Y-15919D01*
X36352Y-15905D01*
X36380Y-15891D01*
X36408Y-15891D01*
X36450Y-15905D01*
X36619Y-16074D01*
X36619Y-15891D01*
X37619Y-16594D02*
X37324Y-16594D01*
X37324Y-16482D01*
X37338Y-16453D01*
X37352Y-16439D01*
X37380Y-16425D01*
X37422Y-16425D01*
X37450Y-16439D01*
X37464Y-16453D01*
X37478Y-16482D01*
X37478Y-16594D01*
X37535Y-16313D02*
X37535Y-16172D01*
X37619Y-16341D02*
X37324Y-16242D01*
X37619Y-16144D01*
X37619Y-15891D02*
X37619Y-16060D01*
X37619Y-15975D02*
X37324Y-15975D01*
X37366Y-16003D01*
X37394Y-16032D01*
X37408Y-16060D01*
X38619Y-16594D02*
X38324Y-16594D01*
X38324Y-16482D01*
X38338Y-16453D01*
X38352Y-16439D01*
X38380Y-16425D01*
X38422Y-16425D01*
X38450Y-16439D01*
X38464Y-16453D01*
X38478Y-16482D01*
X38478Y-16594D01*
X38535Y-16313D02*
X38535Y-16172D01*
X38619Y-16341D02*
X38324Y-16242D01*
X38619Y-16144D01*
X38324Y-15989D02*
X38324Y-15961D01*
X38338Y-15933D01*
X38352Y-15919D01*
X38380Y-15905D01*
X38436Y-15891D01*
X38507Y-15891D01*
X38563Y-15905D01*
X38591Y-15919D01*
X38605Y-15933D01*
X38619Y-15961D01*
X38619Y-15989D01*
X38605Y-16017D01*
X38591Y-16032D01*
X38563Y-16046D01*
X38507Y-16060D01*
X38436Y-16060D01*
X38380Y-16046D01*
X38352Y-16032D01*
X38338Y-16017D01*
X38324Y-15989D01*
G54D21*
X33742Y-13978D02*
X33142Y-13978D01*
X33142Y-13835D01*
X33171Y-13750D01*
X33228Y-13692D01*
X33285Y-13664D01*
X33400Y-13635D01*
X33485Y-13635D01*
X33600Y-13664D01*
X33657Y-13692D01*
X33714Y-13750D01*
X33742Y-13835D01*
X33742Y-13978D01*
X33742Y-13064D02*
X33742Y-13407D01*
X33742Y-13235D02*
X33142Y-13235D01*
X33228Y-13292D01*
X33285Y-13350D01*
X33314Y-13407D01*
X33142Y-12521D02*
X33142Y-12807D01*
X33428Y-12835D01*
X33400Y-12807D01*
X33371Y-12750D01*
X33371Y-12607D01*
X33400Y-12550D01*
X33428Y-12521D01*
X33485Y-12492D01*
X33628Y-12492D01*
X33685Y-12521D01*
X33714Y-12550D01*
X33742Y-12607D01*
X33742Y-12750D01*
X33714Y-12807D01*
X33685Y-12835D01*
G54D15*
X34133Y-12005D02*
X34133Y-11912D01*
X34189Y-12024D02*
X33992Y-11958D01*
X34189Y-11893D01*
X34189Y-10592D02*
X33992Y-10592D01*
X34189Y-10480D02*
X34077Y-10564D01*
X33992Y-10480D02*
X34105Y-10592D01*
M02*
